999
FreeCAD v2023.810 14555 (Git shallow)
  0
SECTION
  2
HEADER
  9
$ACADVER
  1
AC1014
  9
$ACADMAINTVER
 70
     9
  9
$DWGCODEPAGE
  3
ANSI_1252
  9
$TEXTSTYLE
  7
STANDARD
  9
$DIMSTYLE
  2
STANDARD
  9
$DIMTXSTY
  7
STANDARD
  9
$CMLSTYLE
  2
STANDARD
  9
$LUNITS
 70
2
  9
$INSUNITS
 70
4
  9
$PEXTMAX
 10
50
 20
50
 30
50
  9
$PEXTMIN
 10
0
 20
0
 30
0
  9
$HANDSEED
  5
FFFF
  0
ENDSEC
  0
SECTION
  2
CLASSES
  0
CLASS
  1
ACDBDICTIONARYWDFLT
  2
AcDbDictionaryWithDefault
  3
ObjectDBX Classes
 90
        0
280
     0
281
     0
  0
CLASS
  1
XRECORD
  2
AcDbXrecord
  3
ObjectDBX Classes
 90
        0
280
     0
281
     0
  0
CLASS
  1
LWPOLYLINE
  2
AcDbPolyline
  3
ObjectDBX Classes
 90
        0
280
     0
281
     1
  0
ENDSEC
  0
SECTION
  2
TABLES
  0
TABLE
  2
VPORT
  5
20
330
0
100
AcDbSymbolTable
 70
     1
  0
VPORT
  5
21
330
20
100
AcDbSymbolTableRecord
100
AcDbViewportTableRecord
  2
*ACTIVE
 70
     0
  0
ENDTAB
  0
TABLE
  2
LTYPE
  5
22
330
0
100
AcDbSymbolTable
 70
     1
  0
LTYPE
  5
23
330
21
100
AcDbSymbolTableRecord
100
AcDbLinetypeTableRecord
  2
BYBLOCK
 70
     0
  3

 72
    65
 73
     0
 40
0.0
  0
LTYPE
  5
24
330
21
100
AcDbSymbolTableRecord
100
AcDbLinetypeTableRecord
  2
BYLAYER
 70
     0
  3

 72
    65
 73
     0
 40
0.0
  0
LTYPE
  5
25
330
21
100
AcDbSymbolTableRecord
100
AcDbLinetypeTableRecord
  2
CONTINUOUS
 70
     0
  3
Solid line
 72
    65
 73
     0
 40
0.0
  0
ENDTAB
  0
TABLE
  2
LAYER
  5
CBA
330
0
100
AcDbSymbolTable
 70
3
  0
LAYER
  5
CBB
330
CBA
100
AcDbSymbolTableRecord
100
AcDbLayerTableRecord
  2
0
 70
   0
 62
   7
  6
CONTINUOUS
  0
LAYER
  5
CBC
330
CBA
100
AcDbSymbolTableRecord
100
AcDbLayerTableRecord
  2
none
 70
    0
 62
    7
  6
CONTINUOUS
  0
LAYER
  5
CBD
330
CBA
100
AcDbSymbolTableRecord
100
AcDbLayerTableRecord
  2
Shape2DView027
 70
    0
 62
    7
  6
CONTINUOUS
  0
ENDTAB
  0
TABLE
  2
STYLE
  5
70
330
0
100
AcDbSymbolTable
 70
     2
  0
STYLE
  5
71
330
70
100
AcDbSymbolTableRecord
100
AcDbTextStyleTableRecord
  2
STANDARD
 70
     0
 40
0.0
 41
1.0
 50
0.0
 71
     0
 42
2.5
  3
arial.ttf
  4

  0
STYLE
  5
72
330
70
100
AcDbSymbolTableRecord
100
AcDbTextStyleTableRecord
  2
ANNOTATIVE
 70
     0
 40
0.0
 41
1.0
 50
0.0
 71
     0
 42
2.5
  3
arial.ttf
  4

  0
ENDTAB
  0
TABLE
  2
VIEW
  5
73
330
0
100
AcDbSymbolTable
 70
     0
  0
ENDTAB
  0
TABLE
  2
UCS
  5
74
330
0
100
AcDbSymbolTable
 70
     0
  0
ENDTAB
  0
TABLE
  2
APPID
  5
75
330
0
100
AcDbSymbolTable
 70
     2
  0
APPID
  5
76
330
75
100
AcDbSymbolTableRecord
100
AcDbRegAppTableRecord
  2
ACAD
 70
     0
  0
APPID
  5
77
330
75
100
AcDbSymbolTableRecord
100
AcDbRegAppTableRecord
  2
ACADANNOTATIVE
 70
     0
  0
ENDTAB
  0
TABLE
  2
DIMSTYLE
  5
78
330
0
100
AcDbSymbolTable
 70
     2
  0
DIMSTYLE
105
79
330
78
100
AcDbSymbolTableRecord
100
AcDbDimStyleTableRecord
  2
STANDARD
 70
     0
  3

  4

  5

  6

  7

 40
0.0
 41
2.5
 42
0.625
 43
3.75
 44
1.25
 45
0.0
 46
0.0
 47
0.0
 48
0.0
140
2.5
141
2.5
142
0.0
143
0.03937007874016
144
1.0
145
0.0
146
1.0
147
0.625
 71
     0
 72
     0
 73
     0
 74
     0
 75
     0
 76
     0
 77
     1
 78
     8
170
     0
171
     3
172
     1
173
     0
174
     0
175
     0
176
     0
177
     0
178
     0
270
     2
271
     2
272
     2
273
     2
274
     3
340
71
275
     0
280
     0
281
     0
282
     0
283
     0
284
     8
285
     0
286
     0
287
     3
288
     0
  0
ENDTAB
  0
TABLE
  2
BLOCK_RECORD
  5
A01
330
0
100
AcDbSymbolTable
  70
5
  0
BLOCK_RECORD
  5
A02
330
A01
100
AcDbSymbolTableRecord
100
AcDbBlockTableRecord
  2
*MODEL_SPACE
  0
BLOCK_RECORD
  5
A03
330
A01
100
AcDbSymbolTableRecord
100
AcDbBlockTableRecord
  2
*PAPER_SPACE
  0
ENDTAB
  0
ENDSEC
  0
SECTION
  2
BLOCKS
  0
BLOCK
  5
A04
330
A02
100
AcDbEntity
  8
0
100
AcDbBlockBegin
  2
*MODEL_SPACE
 70
   0
 10
0
 20
0
 30
0
  3
*MODEL_SPACE
  1
 
  0
ENDBLK
  5
A05
330
A02
100
AcDbEntity
  8
0
100
AcDbBlockEnd
  0
BLOCK
  5
A06
330
A03
100
AcDbEntity
 67
1
  8
0
100
AcDbBlockBegin
  2
*PAPER_SPACE
 70
   0
 10
0
 20
0
 30
0
  3
*PAPER_SPACE
  1
 
  0
ENDBLK
  5
A07
330
A03
100
AcDbEntity
 67
    1
  8
0
100
AcDbBlockEnd
  0
ENDSEC
  0
SECTION
  2
ENTITIES
  0
LINE
  5
A08
330
A02
100
AcDbEntity
  8
Shape2DView027
100
AcDbLine
 10
-41.7193
 20
21.2132
 30
0
 11
-21.2132
 21
41.7193
 31
0
  0
ARC
  5
A09
330
A02
100
AcDbEntity
  8
Shape2DView027
100
AcDbCircle
 10
-20.5061
 20
-3.3e-15
 30
0
 40
30
100
AcDbArc
 50
135
 51
-135
  0
ARC
  5
A0A
330
A02
100
AcDbEntity
  8
Shape2DView027
100
AcDbCircle
 10
3.9e-15
 20
20.5061
 30
0
 40
30
100
AcDbArc
 50
45
 51
135
  0
LINE
  5
A0B
330
A02
100
AcDbEntity
  8
Shape2DView027
100
AcDbLine
 10
-21.2132
 20
-41.7193
 30
0
 11
-41.7193
 21
-21.2132
 31
0
  0
LINE
  5
A0C
330
A02
100
AcDbEntity
  8
Shape2DView027
100
AcDbLine
 10
21.2132
 20
41.7193
 30
0
 11
41.7193
 21
21.2132
 31
0
  0
ARC
  5
A0D
330
A02
100
AcDbEntity
  8
Shape2DView027
100
AcDbCircle
 10
-4.5e-15
 20
-20.5061
 30
0
 40
30
100
AcDbArc
 50
-135
 51
-45
  0
ARC
  5
A0E
330
A02
100
AcDbEntity
  8
Shape2DView027
100
AcDbCircle
 10
20.5061
 20
5.1e-15
 30
0
 40
30
100
AcDbArc
 50
-45
 51
45
  0
LINE
  5
A0F
330
A02
100
AcDbEntity
  8
Shape2DView027
100
AcDbLine
 10
41.7193
 20
-21.2132
 30
0
 11
21.2132
 21
-41.7193
 31
0
  0
ARC
  5
A10
330
A02
100
AcDbEntity
  8
Shape2DView027
100
AcDbCircle
 10
-10.1
 20
-41.6624
 30
0
 40
0.2
100
AcDbArc
 50
-180
 51
0
  0
LINE
  5
A11
330
A02
100
AcDbEntity
  8
Shape2DView027
100
AcDbLine
 10
-10.3
 20
-29.9624
 30
0
 11
-10.3
 21
-41.6624
 31
0
  0
LINE
  5
A12
330
A02
100
AcDbEntity
  8
Shape2DView027
100
AcDbLine
 10
-9.9
 20
-41.6624
 30
0
 11
-9.9
 21
-29.9624
 31
0
  0
ARC
  5
A13
330
A02
100
AcDbEntity
  8
Shape2DView027
100
AcDbCircle
 10
-10.1
 20
-29.9624
 30
0
 40
0.2
100
AcDbArc
 50
0
 51
180
  0
LINE
  5
A14
330
A02
100
AcDbEntity
  8
Shape2DView027
100
AcDbLine
 10
-7.3
 20
-37.7624
 30
0
 11
7.3
 21
-37.7624
 31
0
  0
LINE
  5
A15
330
A02
100
AcDbEntity
  8
Shape2DView027
100
AcDbLine
 10
-7.3
 20
-41.6624
 30
0
 11
-7.3
 21
-37.7624
 31
0
  0
LINE
  5
A16
330
A02
100
AcDbEntity
  8
Shape2DView027
100
AcDbLine
 10
7.3
 20
-37.7624
 30
0
 11
7.3
 21
-41.6624
 31
0
  0
ARC
  5
A17
330
A02
100
AcDbEntity
  8
Shape2DView027
100
AcDbCircle
 10
-7.5
 20
-41.6624
 30
0
 40
0.2
100
AcDbArc
 50
180
 51
0
  0
ARC
  5
A18
330
A02
100
AcDbEntity
  8
Shape2DView027
100
AcDbCircle
 10
7.5
 20
-41.6624
 30
0
 40
0.2
100
AcDbArc
 50
180
 51
-1.05849e-10
  0
LINE
  5
A19
330
A02
100
AcDbEntity
  8
Shape2DView027
100
AcDbLine
 10
-7.7
 20
-29.9624
 30
0
 11
-7.7
 21
-41.6624
 31
0
  0
LINE
  5
A1A
330
A02
100
AcDbEntity
  8
Shape2DView027
100
AcDbLine
 10
7.7
 20
-41.6624
 30
0
 11
7.7
 21
-29.9624
 31
0
  0
ARC
  5
A1B
330
A02
100
AcDbEntity
  8
Shape2DView027
100
AcDbCircle
 10
-7.5
 20
-29.9624
 30
0
 40
0.2
100
AcDbArc
 50
0
 51
180
  0
ARC
  5
A1C
330
A02
100
AcDbEntity
  8
Shape2DView027
100
AcDbCircle
 10
7.5
 20
-29.9624
 30
0
 40
0.2
100
AcDbArc
 50
0
 51
180
  0
LINE
  5
A1D
330
A02
100
AcDbEntity
  8
Shape2DView027
100
AcDbLine
 10
-7.3
 20
-35.1624
 30
0
 11
-7.3
 21
-29.9624
 31
0
  0
LINE
  5
A1E
330
A02
100
AcDbEntity
  8
Shape2DView027
100
AcDbLine
 10
7.3
 20
-29.9624
 30
0
 11
7.3
 21
-35.1624
 31
0
  0
LINE
  5
A1F
330
A02
100
AcDbEntity
  8
Shape2DView027
100
AcDbLine
 10
7.3
 20
-35.1624
 30
0
 11
-7.3
 21
-35.1624
 31
0
  0
ARC
  5
A20
330
A02
100
AcDbEntity
  8
Shape2DView027
100
AcDbCircle
 10
-41.6624
 20
-10.1
 30
0
 40
0.2
100
AcDbArc
 50
90
 51
-90
  0
LINE
  5
A21
330
A02
100
AcDbEntity
  8
Shape2DView027
100
AcDbLine
 10
-29.9624
 20
-9.9
 30
0
 11
-41.6624
 21
-9.9
 31
0
  0
LINE
  5
A22
330
A02
100
AcDbEntity
  8
Shape2DView027
100
AcDbLine
 10
-41.6624
 20
-10.3
 30
0
 11
-29.9624
 21
-10.3
 31
0
  0
ARC
  5
A23
330
A02
100
AcDbEntity
  8
Shape2DView027
100
AcDbCircle
 10
-29.9624
 20
-10.1
 30
0
 40
0.2
100
AcDbArc
 50
-90
 51
90
  0
LINE
  5
A24
330
A02
100
AcDbEntity
  8
Shape2DView027
100
AcDbLine
 10
-37.7624
 20
7.3
 30
0
 11
-37.7624
 21
-7.3
 31
0
  0
LINE
  5
A25
330
A02
100
AcDbEntity
  8
Shape2DView027
100
AcDbLine
 10
-41.6624
 20
7.3
 30
0
 11
-37.7624
 21
7.3
 31
0
  0
LINE
  5
A26
330
A02
100
AcDbEntity
  8
Shape2DView027
100
AcDbLine
 10
-37.7624
 20
-7.3
 30
0
 11
-41.6624
 21
-7.3
 31
0
  0
ARC
  5
A27
330
A02
100
AcDbEntity
  8
Shape2DView027
100
AcDbCircle
 10
-41.6624
 20
7.5
 30
0
 40
0.2
100
AcDbArc
 50
90
 51
-90
  0
ARC
  5
A28
330
A02
100
AcDbEntity
  8
Shape2DView027
100
AcDbCircle
 10
-41.6624
 20
-7.5
 30
0
 40
0.2
100
AcDbArc
 50
90
 51
-90
  0
LINE
  5
A29
330
A02
100
AcDbEntity
  8
Shape2DView027
100
AcDbLine
 10
-29.9624
 20
7.7
 30
0
 11
-41.6624
 21
7.7
 31
0
  0
LINE
  5
A2A
330
A02
100
AcDbEntity
  8
Shape2DView027
100
AcDbLine
 10
-41.6624
 20
-7.7
 30
0
 11
-29.9624
 21
-7.7
 31
0
  0
ARC
  5
A2B
330
A02
100
AcDbEntity
  8
Shape2DView027
100
AcDbCircle
 10
-29.9624
 20
7.5
 30
0
 40
0.2
100
AcDbArc
 50
-90
 51
90
  0
ARC
  5
A2C
330
A02
100
AcDbEntity
  8
Shape2DView027
100
AcDbCircle
 10
-29.9624
 20
-7.5
 30
0
 40
0.2
100
AcDbArc
 50
-90
 51
90
  0
LINE
  5
A2D
330
A02
100
AcDbEntity
  8
Shape2DView027
100
AcDbLine
 10
-35.1624
 20
7.3
 30
0
 11
-29.9624
 21
7.3
 31
0
  0
LINE
  5
A2E
330
A02
100
AcDbEntity
  8
Shape2DView027
100
AcDbLine
 10
-29.9624
 20
-7.3
 30
0
 11
-35.1624
 21
-7.3
 31
0
  0
LINE
  5
A2F
330
A02
100
AcDbEntity
  8
Shape2DView027
100
AcDbLine
 10
-35.1624
 20
-7.3
 30
0
 11
-35.1624
 21
7.3
 31
0
  0
ARC
  5
A30
330
A02
100
AcDbEntity
  8
Shape2DView027
100
AcDbCircle
 10
10.1
 20
-41.6624
 30
0
 40
0.2
100
AcDbArc
 50
-180
 51
0
  0
LINE
  5
A31
330
A02
100
AcDbEntity
  8
Shape2DView027
100
AcDbLine
 10
9.9
 20
-29.9624
 30
0
 11
9.9
 21
-41.6624
 31
0
  0
LINE
  5
A32
330
A02
100
AcDbEntity
  8
Shape2DView027
100
AcDbLine
 10
10.3
 20
-41.6624
 30
0
 11
10.3
 21
-29.9624
 31
0
  0
ARC
  5
A33
330
A02
100
AcDbEntity
  8
Shape2DView027
100
AcDbCircle
 10
10.1
 20
-29.9624
 30
0
 40
0.2
100
AcDbArc
 50
0
 51
180
  0
ARC
  5
A34
330
A02
100
AcDbEntity
  8
Shape2DView027
100
AcDbCircle
 10
41.6624
 20
-10.1
 30
0
 40
0.2
100
AcDbArc
 50
-90
 51
90
  0
LINE
  5
A35
330
A02
100
AcDbEntity
  8
Shape2DView027
100
AcDbLine
 10
29.9624
 20
-10.3
 30
0
 11
41.6624
 21
-10.3
 31
0
  0
LINE
  5
A36
330
A02
100
AcDbEntity
  8
Shape2DView027
100
AcDbLine
 10
41.6624
 20
-9.9
 30
0
 11
29.9624
 21
-9.9
 31
0
  0
ARC
  5
A37
330
A02
100
AcDbEntity
  8
Shape2DView027
100
AcDbCircle
 10
29.9624
 20
-10.1
 30
0
 40
0.2
100
AcDbArc
 50
90
 51
-90
  0
LINE
  5
A38
330
A02
100
AcDbEntity
  8
Shape2DView027
100
AcDbLine
 10
37.7624
 20
-7.3
 30
0
 11
37.7624
 21
7.3
 31
0
  0
LINE
  5
A39
330
A02
100
AcDbEntity
  8
Shape2DView027
100
AcDbLine
 10
41.6624
 20
-7.3
 30
0
 11
37.7624
 21
-7.3
 31
0
  0
LINE
  5
A3A
330
A02
100
AcDbEntity
  8
Shape2DView027
100
AcDbLine
 10
37.7624
 20
7.3
 30
0
 11
41.6624
 21
7.3
 31
0
  0
ARC
  5
A3B
330
A02
100
AcDbEntity
  8
Shape2DView027
100
AcDbCircle
 10
41.6624
 20
-7.5
 30
0
 40
0.2
100
AcDbArc
 50
-90
 51
90
  0
ARC
  5
A3C
330
A02
100
AcDbEntity
  8
Shape2DView027
100
AcDbCircle
 10
41.6624
 20
7.5
 30
0
 40
0.2
100
AcDbArc
 50
-90
 51
90
  0
LINE
  5
A3D
330
A02
100
AcDbEntity
  8
Shape2DView027
100
AcDbLine
 10
29.9624
 20
-7.7
 30
0
 11
41.6624
 21
-7.7
 31
0
  0
LINE
  5
A3E
330
A02
100
AcDbEntity
  8
Shape2DView027
100
AcDbLine
 10
41.6624
 20
7.7
 30
0
 11
29.9624
 21
7.7
 31
0
  0
ARC
  5
A3F
330
A02
100
AcDbEntity
  8
Shape2DView027
100
AcDbCircle
 10
29.9624
 20
-7.5
 30
0
 40
0.2
100
AcDbArc
 50
90
 51
-90
  0
ARC
  5
A40
330
A02
100
AcDbEntity
  8
Shape2DView027
100
AcDbCircle
 10
29.9624
 20
7.5
 30
0
 40
0.2
100
AcDbArc
 50
90
 51
-90
  0
LINE
  5
A41
330
A02
100
AcDbEntity
  8
Shape2DView027
100
AcDbLine
 10
35.1624
 20
-7.3
 30
0
 11
29.9624
 21
-7.3
 31
0
  0
LINE
  5
A42
330
A02
100
AcDbEntity
  8
Shape2DView027
100
AcDbLine
 10
29.9624
 20
7.3
 30
0
 11
35.1624
 21
7.3
 31
0
  0
LINE
  5
A43
330
A02
100
AcDbEntity
  8
Shape2DView027
100
AcDbLine
 10
35.1624
 20
7.3
 30
0
 11
35.1624
 21
-7.3
 31
0
  0
ARC
  5
A44
330
A02
100
AcDbEntity
  8
Shape2DView027
100
AcDbCircle
 10
-41.6624
 20
10.1
 30
0
 40
0.2
100
AcDbArc
 50
90
 51
-90
  0
LINE
  5
A45
330
A02
100
AcDbEntity
  8
Shape2DView027
100
AcDbLine
 10
-29.9624
 20
10.3
 30
0
 11
-41.6624
 21
10.3
 31
0
  0
LINE
  5
A46
330
A02
100
AcDbEntity
  8
Shape2DView027
100
AcDbLine
 10
-41.6624
 20
9.9
 30
0
 11
-29.9624
 21
9.9
 31
0
  0
ARC
  5
A47
330
A02
100
AcDbEntity
  8
Shape2DView027
100
AcDbCircle
 10
-29.9624
 20
10.1
 30
0
 40
0.2
100
AcDbArc
 50
-90
 51
90
  0
ARC
  5
A48
330
A02
100
AcDbEntity
  8
Shape2DView027
100
AcDbCircle
 10
-10.1
 20
41.6624
 30
0
 40
0.2
100
AcDbArc
 50
1.22133e-11
 51
180
  0
LINE
  5
A49
330
A02
100
AcDbEntity
  8
Shape2DView027
100
AcDbLine
 10
-9.9
 20
29.9624
 30
0
 11
-9.9
 21
41.6624
 31
0
  0
LINE
  5
A4A
330
A02
100
AcDbEntity
  8
Shape2DView027
100
AcDbLine
 10
-10.3
 20
41.6624
 30
0
 11
-10.3
 21
29.9624
 31
0
  0
ARC
  5
A4B
330
A02
100
AcDbEntity
  8
Shape2DView027
100
AcDbCircle
 10
-10.1
 20
29.9624
 30
0
 40
0.2
100
AcDbArc
 50
180
 51
0
  0
LINE
  5
A4C
330
A02
100
AcDbEntity
  8
Shape2DView027
100
AcDbLine
 10
7.3
 20
37.7624
 30
0
 11
-7.3
 21
37.7624
 31
0
  0
LINE
  5
A4D
330
A02
100
AcDbEntity
  8
Shape2DView027
100
AcDbLine
 10
7.3
 20
41.6624
 30
0
 11
7.3
 21
37.7624
 31
0
  0
LINE
  5
A4E
330
A02
100
AcDbEntity
  8
Shape2DView027
100
AcDbLine
 10
-7.3
 20
37.7624
 30
0
 11
-7.3
 21
41.6624
 31
0
  0
ARC
  5
A4F
330
A02
100
AcDbEntity
  8
Shape2DView027
100
AcDbCircle
 10
7.5
 20
41.6624
 30
0
 40
0.2
100
AcDbArc
 50
0
 51
180
  0
ARC
  5
A50
330
A02
100
AcDbEntity
  8
Shape2DView027
100
AcDbCircle
 10
-7.5
 20
41.6624
 30
0
 40
0.2
100
AcDbArc
 50
0
 51
180
  0
LINE
  5
A51
330
A02
100
AcDbEntity
  8
Shape2DView027
100
AcDbLine
 10
7.7
 20
29.9624
 30
0
 11
7.7
 21
41.6624
 31
0
  0
LINE
  5
A52
330
A02
100
AcDbEntity
  8
Shape2DView027
100
AcDbLine
 10
-7.7
 20
41.6624
 30
0
 11
-7.7
 21
29.9624
 31
0
  0
ARC
  5
A53
330
A02
100
AcDbEntity
  8
Shape2DView027
100
AcDbCircle
 10
7.5
 20
29.9624
 30
0
 40
0.2
100
AcDbArc
 50
180
 51
0
  0
ARC
  5
A54
330
A02
100
AcDbEntity
  8
Shape2DView027
100
AcDbCircle
 10
-7.5
 20
29.9624
 30
0
 40
0.2
100
AcDbArc
 50
180
 51
0
  0
LINE
  5
A55
330
A02
100
AcDbEntity
  8
Shape2DView027
100
AcDbLine
 10
7.3
 20
35.1624
 30
0
 11
7.3
 21
29.9624
 31
0
  0
LINE
  5
A56
330
A02
100
AcDbEntity
  8
Shape2DView027
100
AcDbLine
 10
-7.3
 20
29.9624
 30
0
 11
-7.3
 21
35.1624
 31
0
  0
LINE
  5
A57
330
A02
100
AcDbEntity
  8
Shape2DView027
100
AcDbLine
 10
-7.3
 20
35.1624
 30
0
 11
7.3
 21
35.1624
 31
0
  0
SPLINE
  5
A58
330
A02
100
AcDbEntity
  8
Shape2DView027
100
AcDbSpline
210
0
220
0
230
1
 70
8
 71
1
 72
4
 73
2
 74
0
 40
0
 40
0
 40
38.1182
 40
38.1182
 10
19.2293
 20
-9.74869
 30
0
 10
16.048
 20
-4.72716
 30
0
  0
SPLINE
  5
A59
330
A02
100
AcDbEntity
  8
Shape2DView027
100
AcDbSpline
210
0
220
0
230
1
 70
8
 71
2
 72
6
 73
3
 74
0
 40
0
 40
0
 40
0
 40
1
 40
1
 40
1
 10
16.048
 20
-4.72716
 30
0
 10
16.1649
 20
-4.14235
 30
0
 10
16.2351
 20
-3.55755
 30
0
  0
SPLINE
  5
A5A
330
A02
100
AcDbEntity
  8
Shape2DView027
100
AcDbSpline
210
0
220
0
230
1
 70
8
 71
3
 72
8
 73
4
 74
0
 40
0
 40
0
 40
0
 40
0
 40
1
 40
1
 40
1
 40
1
 10
16.2351
 20
-3.55755
 30
0
 10
16.1883
 20
-3.57314
 30
0
 10
15.5801
 20
-3.66671
 30
0
 10
15.393
 20
-3.6979
 30
0
  0
SPLINE
  5
A5B
330
A02
100
AcDbEntity
  8
Shape2DView027
100
AcDbSpline
210
0
220
0
230
1
 70
8
 71
1
 72
4
 73
2
 74
0
 40
0
 40
0
 40
4.993
 40
4.993
 10
15.393
 20
-3.6979
 30
0
 10
14.9719
 20
-3.04292
 30
0
  0
SPLINE
  5
A5C
330
A02
100
AcDbEntity
  8
Shape2DView027
100
AcDbSpline
210
0
220
0
230
1
 70
8
 71
1
 72
4
 73
2
 74
0
 40
0
 40
0
 40
0.3
 40
0.3
 10
14.9719
 20
-3.04292
 30
0
 10
15.0187
 20
-3.04292
 30
0
  0
SPLINE
  5
A5D
330
A02
100
AcDbEntity
  8
Shape2DView027
100
AcDbSpline
210
0
220
0
230
1
 70
8
 71
3
 72
8
 73
4
 74
0
 40
0
 40
0
 40
0
 40
0
 40
1
 40
1
 40
1
 40
1
 10
15.0187
 20
-3.04292
 30
0
 10
15.1123
 20
-2.94935
 30
0
 10
15.2215
 20
-2.91816
 30
0
 10
15.2215
 20
-2.91816
 30
0
  0
SPLINE
  5
A5E
330
A02
100
AcDbEntity
  8
Shape2DView027
100
AcDbSpline
210
0
220
0
230
1
 70
8
 71
1
 72
4
 73
2
 74
0
 40
0
 40
0
 40
7.21249
 40
7.21249
 10
15.2215
 20
-2.91816
 30
0
 10
16.2975
 20
-2.59067
 30
0
  0
SPLINE
  5
A5F
330
A02
100
AcDbEntity
  8
Shape2DView027
100
AcDbSpline
210
0
220
0
230
1
 70
8
 71
3
 72
8
 73
4
 74
0
 40
0
 40
0
 40
0
 40
0
 40
1
 40
1
 40
1
 40
1
 10
16.2975
 20
-2.59067
 30
0
 10
16.3131
 20
-2.26318
 30
0
 10
16.3287
 20
-1.95128
 30
0
 10
16.3287
 20
-1.62379
 30
0
  0
SPLINE
  5
A60
330
A02
100
AcDbEntity
  8
Shape2DView027
100
AcDbSpline
210
0
220
0
230
1
 70
8
 71
3
 72
8
 73
4
 74
0
 40
0
 40
0
 40
0
 40
0
 40
1
 40
1
 40
1
 40
1
 10
16.3287
 20
-1.62379
 30
0
 10
16.3287
 20
-1.32749
 30
0
 10
16.3131
 20
-1.04678
 30
0
 10
16.2975
 20
-0.750479
 30
0
  0
SPLINE
  5
A61
330
A02
100
AcDbEntity
  8
Shape2DView027
100
AcDbSpline
210
0
220
0
230
1
 70
8
 71
3
 72
8
 73
4
 74
0
 40
0
 40
0
 40
0
 40
0
 40
1
 40
1
 40
1
 40
1
 10
16.2975
 20
-0.750479
 30
0
 10
16.2351
 20
-0.766074
 30
0
 10
15.5801
 20
-1.01559
 30
0
 10
15.471
 20
-1.04678
 30
0
  0
SPLINE
  5
A62
330
A02
100
AcDbEntity
  8
Shape2DView027
100
AcDbSpline
210
0
220
0
230
1
 70
8
 71
3
 72
8
 73
4
 74
0
 40
0
 40
0
 40
0
 40
0
 40
1
 40
1
 40
1
 40
1
 10
15.471
 20
-1.04678
 30
0
 10
15.3462
 20
-1.09357
 30
0
 10
15.1123
 20
-1.10916
 30
0
 10
14.9875
 20
-0.781669
 30
0
  0
SPLINE
  5
A63
330
A02
100
AcDbEntity
  8
Shape2DView027
100
AcDbSpline
210
0
220
0
230
1
 70
8
 71
3
 72
8
 73
4
 74
0
 40
0
 40
0
 40
0
 40
0
 40
1
 40
1
 40
1
 40
1
 10
14.9875
 20
-0.781669
 30
0
 10
14.8628
 20
-0.454177
 30
0
 10
15.2059
 20
-0.298229
 30
0
 10
15.2059
 20
-0.298229
 30
0
  0
SPLINE
  5
A64
330
A02
100
AcDbEntity
  8
Shape2DView027
100
AcDbSpline
210
0
220
0
230
1
 70
8
 71
1
 72
4
 73
2
 74
0
 40
0
 40
0
 40
7.15542
 40
7.15542
 10
15.2059
 20
-0.298229
 30
0
 10
16.2039
 20
0.200805
 30
0
  0
SPLINE
  5
A65
330
A02
100
AcDbEntity
  8
Shape2DView027
100
AcDbSpline
210
0
220
0
230
1
 70
8
 71
2
 72
6
 73
3
 74
0
 40
0
 40
0
 40
0
 40
1
 40
1
 40
1
 10
16.2039
 20
0.200805
 30
0
 10
16.1065
 20
1.13649
 30
0
 10
15.892
 20
2.0254
 30
0
  0
SPLINE
  5
A66
330
A02
100
AcDbEntity
  8
Shape2DView027
100
AcDbSpline
210
0
220
0
230
1
 70
8
 71
3
 72
8
 73
4
 74
0
 40
0
 40
0
 40
0
 40
0
 40
1
 40
1
 40
1
 40
1
 10
15.892
 20
2.0254
 30
0
 10
15.8764
 20
2.0098
 30
0
 10
15.2371
 20
1.65112
 30
0
 10
15.1279
 20
1.58874
 30
0
  0
SPLINE
  5
A67
330
A02
100
AcDbEntity
  8
Shape2DView027
100
AcDbSpline
210
0
220
0
230
1
 70
8
 71
3
 72
8
 73
4
 74
0
 40
0
 40
0
 40
0
 40
0
 40
1
 40
1
 40
1
 40
1
 10
15.1279
 20
1.58874
 30
0
 10
15.0187
 20
1.52637
 30
0
 10
14.7848
 20
1.46399
 30
0
 10
14.6133
 20
1.76029
 30
0
  0
SPLINE
  5
A68
330
A02
100
AcDbEntity
  8
Shape2DView027
100
AcDbSpline
210
0
220
0
230
1
 70
8
 71
3
 72
8
 73
4
 74
0
 40
0
 40
0
 40
0
 40
0
 40
1
 40
1
 40
1
 40
1
 10
14.6133
 20
1.76029
 30
0
 10
14.4417
 20
2.05659
 30
0
 10
14.7536
 20
2.27492
 30
0
 10
14.7536
 20
2.27492
 30
0
  0
SPLINE
  5
A69
330
A02
100
AcDbEntity
  8
Shape2DView027
100
AcDbSpline
210
0
220
0
230
1
 70
8
 71
1
 72
4
 73
2
 74
0
 40
0
 40
0
 40
7.22011
 40
7.22011
 10
14.7536
 20
2.27492
 30
0
 10
15.6581
 20
2.94549
 30
0
  0
SPLINE
  5
A6A
330
A02
100
AcDbEntity
  8
Shape2DView027
100
AcDbSpline
210
0
220
0
230
1
 70
8
 71
3
 72
8
 73
4
 74
0
 40
0
 40
0
 40
0
 40
0
 40
1
 40
1
 40
1
 40
1
 10
15.6581
 20
2.94549
 30
0
 10
15.4866
 20
3.5381
 30
0
 10
15.2682
 20
4.11511
 30
0
 10
15.0343
 20
4.67652
 30
0
  0
SPLINE
  5
A6B
330
A02
100
AcDbEntity
  8
Shape2DView027
100
AcDbSpline
210
0
220
0
230
1
 70
8
 71
3
 72
8
 73
4
 74
0
 40
0
 40
0
 40
0
 40
0
 40
1
 40
1
 40
1
 40
1
 10
15.0343
 20
4.67652
 30
0
 10
15.0343
 20
4.67652
 30
0
 10
14.4573
 20
4.19308
 30
0
 10
14.3481
 20
4.11511
 30
0
  0
SPLINE
  5
A6C
330
A02
100
AcDbEntity
  8
Shape2DView027
100
AcDbSpline
210
0
220
0
230
1
 70
8
 71
3
 72
8
 73
4
 74
0
 40
0
 40
0
 40
0
 40
0
 40
1
 40
1
 40
1
 40
1
 10
14.3481
 20
4.11511
 30
0
 10
14.2546
 20
4.03713
 30
0
 10
14.0363
 20
3.92797
 30
0
 10
13.8023
 20
4.19308
 30
0
  0
SPLINE
  5
A6D
330
A02
100
AcDbEntity
  8
Shape2DView027
100
AcDbSpline
210
0
220
0
230
1
 70
8
 71
3
 72
8
 73
4
 74
0
 40
0
 40
0
 40
0
 40
0
 40
1
 40
1
 40
1
 40
1
 10
13.8023
 20
4.19308
 30
0
 10
13.584
 20
4.45819
 30
0
 10
13.8491
 20
4.7233
 30
0
 10
13.8491
 20
4.7233
 30
0
  0
SPLINE
  5
A6E
330
A02
100
AcDbEntity
  8
Shape2DView027
100
AcDbSpline
210
0
220
0
230
1
 70
8
 71
1
 72
4
 73
2
 74
0
 40
0
 40
0
 40
7.21388
 40
7.21388
 10
13.8491
 20
4.7233
 30
0
 10
14.6289
 20
5.53424
 30
0
  0
SPLINE
  5
A6F
330
A02
100
AcDbEntity
  8
Shape2DView027
100
AcDbSpline
210
0
220
0
230
1
 70
8
 71
3
 72
8
 73
4
 74
0
 40
0
 40
0
 40
0
 40
0
 40
1
 40
1
 40
1
 40
1
 10
14.6289
 20
5.53424
 30
0
 10
14.3481
 20
6.08005
 30
0
 10
14.0518
 20
6.62587
 30
0
 10
13.7088
 20
7.1405
 30
0
  0
SPLINE
  5
A70
330
A02
100
AcDbEntity
  8
Shape2DView027
100
AcDbSpline
210
0
220
0
230
1
 70
8
 71
3
 72
8
 73
4
 74
0
 40
0
 40
0
 40
0
 40
0
 40
1
 40
1
 40
1
 40
1
 10
13.7088
 20
7.1405
 30
0
 10
13.6932
 20
7.10931
 30
0
 10
13.2253
 20
6.56349
 30
0
 10
13.1318
 20
6.46992
 30
0
  0
SPLINE
  5
A71
330
A02
100
AcDbEntity
  8
Shape2DView027
100
AcDbSpline
210
0
220
0
230
1
 70
8
 71
3
 72
8
 73
4
 74
0
 40
0
 40
0
 40
0
 40
0
 40
1
 40
1
 40
1
 40
1
 10
13.1318
 20
6.46992
 30
0
 10
13.0538
 20
6.37636
 30
0
 10
12.851
 20
6.236
 30
0
 10
12.5859
 20
6.45433
 30
0
  0
SPLINE
  5
A72
330
A02
100
AcDbEntity
  8
Shape2DView027
100
AcDbSpline
210
0
220
0
230
1
 70
8
 71
3
 72
8
 73
4
 74
0
 40
0
 40
0
 40
0
 40
0
 40
1
 40
1
 40
1
 40
1
 10
12.5859
 20
6.45433
 30
0
 10
12.3208
 20
6.67266
 30
0
 10
12.5391
 20
6.98455
 30
0
 10
12.5391
 20
6.98455
 30
0
  0
SPLINE
  5
A73
330
A02
100
AcDbEntity
  8
Shape2DView027
100
AcDbSpline
210
0
220
0
230
1
 70
8
 71
1
 72
4
 73
2
 74
0
 40
0
 40
0
 40
7.2111
 40
7.2111
 10
12.5391
 20
6.98455
 30
0
 10
13.1629
 20
7.92024
 30
0
  0
SPLINE
  5
A74
330
A02
100
AcDbEntity
  8
Shape2DView027
100
AcDbSpline
210
0
220
0
230
1
 70
8
 71
3
 72
8
 73
4
 74
0
 40
0
 40
0
 40
0
 40
0
 40
1
 40
1
 40
1
 40
1
 10
13.1629
 20
7.92024
 30
0
 10
12.8043
 20
8.41928
 30
0
 10
12.3988
 20
8.88712
 30
0
 10
11.9933
 20
9.33937
 30
0
  0
SPLINE
  5
A75
330
A02
100
AcDbEntity
  8
Shape2DView027
100
AcDbSpline
210
0
220
0
230
1
 70
8
 71
3
 72
8
 73
4
 74
0
 40
0
 40
0
 40
0
 40
0
 40
1
 40
1
 40
1
 40
1
 10
11.9933
 20
9.33937
 30
0
 10
11.9621
 20
9.27699
 30
0
 10
11.6035
 20
8.68439
 30
0
 10
11.5411
 20
8.57523
 30
0
  0
SPLINE
  5
A76
330
A02
100
AcDbEntity
  8
Shape2DView027
100
AcDbSpline
210
0
220
0
230
1
 70
8
 71
3
 72
8
 73
4
 74
0
 40
0
 40
0
 40
0
 40
0
 40
1
 40
1
 40
1
 40
1
 10
11.5411
 20
8.57523
 30
0
 10
11.4787
 20
8.46606
 30
0
 10
11.3072
 20
8.29452
 30
0
 10
11.0109
 20
8.46606
 30
0
  0
SPLINE
  5
A77
330
A02
100
AcDbEntity
  8
Shape2DView027
100
AcDbSpline
210
0
220
0
230
1
 70
8
 71
3
 72
8
 73
4
 74
0
 40
0
 40
0
 40
0
 40
0
 40
1
 40
1
 40
1
 40
1
 10
11.0109
 20
8.46606
 30
0
 10
10.7146
 20
8.63761
 30
0
 10
10.8705
 20
8.98069
 30
0
 10
10.8705
 20
8.98069
 30
0
  0
SPLINE
  5
A78
330
A02
100
AcDbEntity
  8
Shape2DView027
100
AcDbSpline
210
0
220
0
230
1
 70
8
 71
1
 72
4
 73
2
 74
0
 40
0
 40
0
 40
7.20902
 40
7.20902
 10
10.8705
 20
8.98069
 30
0
 10
11.3228
 20
10.01
 30
0
  0
SPLINE
  5
A79
330
A02
100
AcDbEntity
  8
Shape2DView027
100
AcDbSpline
210
0
220
0
230
1
 70
8
 71
3
 72
8
 73
4
 74
0
 40
0
 40
0
 40
0
 40
0
 40
1
 40
1
 40
1
 40
1
 10
11.3228
 20
10.01
 30
0
 10
10.8861
 20
10.431
 30
0
 10
10.4027
 20
10.8365
 30
0
 10
9.91922
 20
11.2108
 30
0
  0
SPLINE
  5
A7A
330
A02
100
AcDbEntity
  8
Shape2DView027
100
AcDbSpline
210
0
220
0
230
1
 70
8
 71
3
 72
8
 73
4
 74
0
 40
0
 40
0
 40
0
 40
0
 40
1
 40
1
 40
1
 40
1
 10
9.91922
 20
11.2108
 30
0
 10
9.90362
 20
11.1484
 30
0
 10
9.65411
 20
10.4934
 30
0
 10
9.60732
 20
10.3842
 30
0
  0
SPLINE
  5
A7B
330
A02
100
AcDbEntity
  8
Shape2DView027
100
AcDbSpline
210
0
220
0
230
1
 70
8
 71
3
 72
8
 73
4
 74
0
 40
0
 40
0
 40
0
 40
0
 40
1
 40
1
 40
1
 40
1
 10
9.60732
 20
10.3842
 30
0
 10
9.56054
 20
10.2595
 30
0
 10
9.42018
 20
10.0723
 30
0
 10
9.09269
 20
10.1815
 30
0
  0
SPLINE
  5
A7C
330
A02
100
AcDbEntity
  8
Shape2DView027
100
AcDbSpline
210
0
220
0
230
1
 70
8
 71
3
 72
8
 73
4
 74
0
 40
0
 40
0
 40
0
 40
0
 40
1
 40
1
 40
1
 40
1
 10
9.09269
 20
10.1815
 30
0
 10
8.7652
 20
10.3063
 30
0
 10
8.87436
 20
10.6649
 30
0
 10
8.87436
 20
10.6649
 30
0
  0
SPLINE
  5
A7D
330
A02
100
AcDbEntity
  8
Shape2DView027
100
AcDbSpline
210
0
220
0
230
1
 70
8
 71
1
 72
4
 73
2
 74
0
 40
0
 40
0
 40
7.20347
 40
7.20347
 10
8.87436
 20
10.6649
 30
0
 10
9.13948
 20
11.7566
 30
0
  0
SPLINE
  5
A7E
330
A02
100
AcDbEntity
  8
Shape2DView027
100
AcDbSpline
210
0
220
0
230
1
 70
8
 71
2
 72
6
 73
3
 74
0
 40
0
 40
0
 40
0
 40
1
 40
1
 40
1
 10
9.13948
 20
11.7566
 30
0
 10
8.36753
 20
12.2712
 30
0
 10
7.5488
 20
12.6923
 30
0
  0
SPLINE
  5
A7F
330
A02
100
AcDbEntity
  8
Shape2DView027
100
AcDbSpline
210
0
220
0
230
1
 70
8
 71
3
 72
8
 73
4
 74
0
 40
0
 40
0
 40
0
 40
0
 40
1
 40
1
 40
1
 40
1
 10
7.5488
 20
12.6923
 30
0
 10
7.5488
 20
12.6611
 30
0
 10
7.40845
 20
11.9437
 30
0
 10
7.39286
 20
11.8189
 30
0
  0
SPLINE
  5
A80
330
A02
100
AcDbEntity
  8
Shape2DView027
100
AcDbSpline
210
0
220
0
230
1
 70
8
 71
3
 72
8
 73
4
 74
0
 40
0
 40
0
 40
0
 40
0
 40
1
 40
1
 40
1
 40
1
 10
7.39286
 20
11.8189
 30
0
 10
7.36167
 20
11.6942
 30
0
 10
7.2681
 20
11.4759
 30
0
 10
6.92501
 20
11.5382
 30
0
  0
SPLINE
  5
A81
330
A02
100
AcDbEntity
  8
Shape2DView027
100
AcDbSpline
210
0
220
0
230
1
 70
8
 71
3
 72
8
 73
4
 74
0
 40
0
 40
0
 40
0
 40
0
 40
1
 40
1
 40
1
 40
1
 10
6.92501
 20
11.5382
 30
0
 10
6.58193
 20
11.6006
 30
0
 10
6.62871
 20
11.9749
 30
0
 10
6.62871
 20
11.9749
 30
0
  0
SPLINE
  5
A82
330
A02
100
AcDbEntity
  8
Shape2DView027
100
AcDbSpline
210
0
220
0
230
1
 70
8
 71
1
 72
4
 73
2
 74
0
 40
0
 40
0
 40
7.21734
 40
7.21734
 10
6.62871
 20
11.9749
 30
0
 10
6.70668
 20
13.0977
 30
0
  0
SPLINE
  5
A83
330
A02
100
AcDbEntity
  8
Shape2DView027
100
AcDbSpline
210
0
220
0
230
1
 70
8
 71
2
 72
6
 73
3
 74
0
 40
0
 40
0
 40
0
 40
1
 40
1
 40
1
 10
6.70668
 20
13.0977
 30
0
 10
5.81778
 20
13.4915
 30
0
 10
4.88209
 20
13.7683
 30
0
  0
SPLINE
  5
A84
330
A02
100
AcDbEntity
  8
Shape2DView027
100
AcDbSpline
210
0
220
0
230
1
 70
8
 71
1
 72
4
 73
2
 74
0
 40
0
 40
0
 40
5.7
 40
5.7
 10
4.88209
 20
13.7683
 30
0
 10
4.88209
 20
12.8794
 30
0
  0
SPLINE
  5
A85
330
A02
100
AcDbEntity
  8
Shape2DView027
100
AcDbSpline
210
0
220
0
230
1
 70
8
 71
3
 72
8
 73
4
 74
0
 40
0
 40
0
 40
0
 40
0
 40
1
 40
1
 40
1
 40
1
 10
4.88209
 20
12.8794
 30
0
 10
4.88209
 20
12.8638
 30
0
 10
4.88209
 20
12.5519
 30
0
 10
4.88209
 20
12.5363
 30
0
  0
SPLINE
  5
A86
330
A02
100
AcDbEntity
  8
Shape2DView027
100
AcDbSpline
210
0
220
0
230
1
 70
8
 71
1
 72
4
 73
2
 74
0
 40
0
 40
0
 40
24.0217
 40
24.0217
 10
4.88209
 20
12.5363
 30
0
 10
2.85476
 20
15.6865
 30
0
  0
SPLINE
  5
A87
330
A02
100
AcDbEntity
  8
Shape2DView027
100
AcDbSpline
210
0
220
0
230
1
 70
8
 71
3
 72
8
 73
4
 74
0
 40
0
 40
0
 40
0
 40
0
 40
1
 40
1
 40
1
 40
1
 10
2.85476
 20
15.6865
 30
0
 10
1.15493
 20
18.3532
 30
0
 10
-1.29346
 20
18.3532
 30
0
 10
-2.9933
 20
15.6865
 30
0
  0
SPLINE
  5
A88
330
A02
100
AcDbEntity
  8
Shape2DView027
100
AcDbSpline
210
0
220
0
230
1
 70
8
 71
1
 72
4
 73
2
 74
0
 40
0
 40
0
 40
14.4803
 40
14.4803
 10
-2.9933
 20
15.6865
 30
0
 10
-4.20969
 20
13.7839
 30
0
  0
SPLINE
  5
A89
330
A02
100
AcDbEntity
  8
Shape2DView027
100
AcDbSpline
210
0
220
0
230
1
 70
8
 71
1
 72
4
 73
2
 74
0
 40
0
 40
0
 40
0.707107
 40
0.707107
 10
-4.20969
 20
13.7839
 30
0
 10
-4.31886
 20
13.7995
 30
0
  0
SPLINE
  5
A8A
330
A02
100
AcDbEntity
  8
Shape2DView027
100
AcDbSpline
210
0
220
0
230
1
 70
8
 71
3
 72
8
 73
4
 74
0
 40
0
 40
0
 40
0
 40
0
 40
1
 40
1
 40
1
 40
1
 10
-4.31886
 20
13.7995
 30
0
 10
-4.91146
 20
13.6279
 30
0
 10
-5.48847
 20
13.4096
 30
0
 10
-6.04988
 20
13.1757
 30
0
  0
SPLINE
  5
A8B
330
A02
100
AcDbEntity
  8
Shape2DView027
100
AcDbSpline
210
0
220
0
230
1
 70
8
 71
3
 72
8
 73
4
 74
0
 40
0
 40
0
 40
0
 40
0
 40
1
 40
1
 40
1
 40
1
 10
-6.04988
 20
13.1757
 30
0
 10
-6.04988
 20
13.1757
 30
0
 10
-5.56644
 20
12.5987
 30
0
 10
-5.47287
 20
12.4895
 30
0
  0
SPLINE
  5
A8C
330
A02
100
AcDbEntity
  8
Shape2DView027
100
AcDbSpline
210
0
220
0
230
1
 70
8
 71
3
 72
8
 73
4
 74
0
 40
0
 40
0
 40
0
 40
0
 40
1
 40
1
 40
1
 40
1
 10
-5.47287
 20
12.4895
 30
0
 10
-5.3949
 20
12.396
 30
0
 10
-5.28574
 20
12.1776
 30
0
 10
-5.55085
 20
11.9437
 30
0
  0
SPLINE
  5
A8D
330
A02
100
AcDbEntity
  8
Shape2DView027
100
AcDbSpline
210
0
220
0
230
1
 70
8
 71
3
 72
8
 73
4
 74
0
 40
0
 40
0
 40
0
 40
0
 40
1
 40
1
 40
1
 40
1
 10
-5.55085
 20
11.9437
 30
0
 10
-5.81596
 20
11.7254
 30
0
 10
-6.08107
 20
11.9905
 30
0
 10
-6.08107
 20
11.9905
 30
0
  0
SPLINE
  5
A8E
330
A02
100
AcDbEntity
  8
Shape2DView027
100
AcDbSpline
210
0
220
0
230
1
 70
8
 71
1
 72
4
 73
2
 74
0
 40
0
 40
0
 40
7.21388
 40
7.21388
 10
-6.08107
 20
11.9905
 30
0
 10
-6.892
 20
12.7702
 30
0
  0
SPLINE
  5
A8F
330
A02
100
AcDbEntity
  8
Shape2DView027
100
AcDbSpline
210
0
220
0
230
1
 70
8
 71
3
 72
8
 73
4
 74
0
 40
0
 40
0
 40
0
 40
0
 40
1
 40
1
 40
1
 40
1
 10
-6.892
 20
12.7702
 30
0
 10
-7.43782
 20
12.4895
 30
0
 10
-7.98364
 20
12.1932
 30
0
 10
-8.49827
 20
11.8501
 30
0
  0
SPLINE
  5
A90
330
A02
100
AcDbEntity
  8
Shape2DView027
100
AcDbSpline
210
0
220
0
230
1
 70
8
 71
3
 72
8
 73
4
 74
0
 40
0
 40
0
 40
0
 40
0
 40
1
 40
1
 40
1
 40
1
 10
-8.49827
 20
11.8501
 30
0
 10
-8.46708
 20
11.8345
 30
0
 10
-7.92126
 20
11.3667
 30
0
 10
-7.82769
 20
11.2731
 30
0
  0
SPLINE
  5
A91
330
A02
100
AcDbEntity
  8
Shape2DView027
100
AcDbSpline
210
0
220
0
230
1
 70
8
 71
3
 72
8
 73
4
 74
0
 40
0
 40
0
 40
0
 40
0
 40
1
 40
1
 40
1
 40
1
 10
-7.82769
 20
11.2731
 30
0
 10
-7.73412
 20
11.1952
 30
0
 10
-7.59377
 20
10.9924
 30
0
 10
-7.8121
 20
10.7273
 30
0
  0
SPLINE
  5
A92
330
A02
100
AcDbEntity
  8
Shape2DView027
100
AcDbSpline
210
0
220
0
230
1
 70
8
 71
3
 72
8
 73
4
 74
0
 40
0
 40
0
 40
0
 40
0
 40
1
 40
1
 40
1
 40
1
 10
-7.8121
 20
10.7273
 30
0
 10
-8.03043
 20
10.4622
 30
0
 10
-8.34232
 20
10.6805
 30
0
 10
-8.34232
 20
10.6805
 30
0
  0
SPLINE
  5
A93
330
A02
100
AcDbEntity
  8
Shape2DView027
100
AcDbSpline
210
0
220
0
230
1
 70
8
 71
1
 72
4
 73
2
 74
0
 40
0
 40
0
 40
7.2111
 40
7.2111
 10
-8.34232
 20
10.6805
 30
0
 10
-9.27801
 20
11.3043
 30
0
  0
SPLINE
  5
A94
330
A02
100
AcDbEntity
  8
Shape2DView027
100
AcDbSpline
210
0
220
0
230
1
 70
8
 71
3
 72
8
 73
4
 74
0
 40
0
 40
0
 40
0
 40
0
 40
1
 40
1
 40
1
 40
1
 10
-9.27801
 20
11.3043
 30
0
 10
-9.77705
 20
10.9456
 30
0
 10
-10.2449
 20
10.5402
 30
0
 10
-10.6971
 20
10.1347
 30
0
  0
SPLINE
  5
A95
330
A02
100
AcDbEntity
  8
Shape2DView027
100
AcDbSpline
210
0
220
0
230
1
 70
8
 71
3
 72
8
 73
4
 74
0
 40
0
 40
0
 40
0
 40
0
 40
1
 40
1
 40
1
 40
1
 10
-10.6971
 20
10.1347
 30
0
 10
-10.6348
 20
10.1035
 30
0
 10
-10.0422
 20
9.74484
 30
0
 10
-9.93299
 20
9.68246
 30
0
  0
SPLINE
  5
A96
330
A02
100
AcDbEntity
  8
Shape2DView027
100
AcDbSpline
210
0
220
0
230
1
 70
8
 71
3
 72
8
 73
4
 74
0
 40
0
 40
0
 40
0
 40
0
 40
1
 40
1
 40
1
 40
1
 10
-9.93299
 20
9.68246
 30
0
 10
-9.82383
 20
9.62008
 30
0
 10
-9.65229
 20
9.44854
 30
0
 10
-9.82383
 20
9.15223
 30
0
  0
SPLINE
  5
A97
330
A02
100
AcDbEntity
  8
Shape2DView027
100
AcDbSpline
210
0
220
0
230
1
 70
8
 71
3
 72
8
 73
4
 74
0
 40
0
 40
0
 40
0
 40
0
 40
1
 40
1
 40
1
 40
1
 10
-9.82383
 20
9.15223
 30
0
 10
-9.99537
 20
8.85593
 30
0
 10
-10.3385
 20
9.01188
 30
0
 10
-10.3385
 20
9.01188
 30
0
  0
SPLINE
  5
A98
330
A02
100
AcDbEntity
  8
Shape2DView027
100
AcDbSpline
210
0
220
0
230
1
 70
8
 71
1
 72
4
 73
2
 74
0
 40
0
 40
0
 40
7.20902
 40
7.20902
 10
-10.3385
 20
9.01188
 30
0
 10
-11.3677
 20
9.46413
 30
0
  0
SPLINE
  5
A99
330
A02
100
AcDbEntity
  8
Shape2DView027
100
AcDbSpline
210
0
220
0
230
1
 70
8
 71
3
 72
8
 73
4
 74
0
 40
0
 40
0
 40
0
 40
0
 40
1
 40
1
 40
1
 40
1
 10
-11.3677
 20
9.46413
 30
0
 10
-11.7888
 20
9.02748
 30
0
 10
-12.1942
 20
8.54404
 30
0
 10
-12.5685
 20
8.0606
 30
0
  0
SPLINE
  5
A9A
330
A02
100
AcDbEntity
  8
Shape2DView027
100
AcDbSpline
210
0
220
0
230
1
 70
8
 71
3
 72
8
 73
4
 74
0
 40
0
 40
0
 40
0
 40
0
 40
1
 40
1
 40
1
 40
1
 10
-12.5685
 20
8.0606
 30
0
 10
-12.5061
 20
8.045
 30
0
 10
-11.8512
 20
7.79549
 30
0
 10
-11.742
 20
7.7487
 30
0
  0
SPLINE
  5
A9B
330
A02
100
AcDbEntity
  8
Shape2DView027
100
AcDbSpline
210
0
220
0
230
1
 70
8
 71
3
 72
8
 73
4
 74
0
 40
0
 40
0
 40
0
 40
0
 40
1
 40
1
 40
1
 40
1
 10
-11.742
 20
7.7487
 30
0
 10
-11.6172
 20
7.70192
 30
0
 10
-11.4301
 20
7.56156
 30
0
 10
-11.5393
 20
7.23407
 30
0
  0
SPLINE
  5
A9C
330
A02
100
AcDbEntity
  8
Shape2DView027
100
AcDbSpline
210
0
220
0
230
1
 70
8
 71
3
 72
8
 73
4
 74
0
 40
0
 40
0
 40
0
 40
0
 40
1
 40
1
 40
1
 40
1
 10
-11.5393
 20
7.23407
 30
0
 10
-11.664
 20
6.90658
 30
0
 10
-12.0227
 20
7.01574
 30
0
 10
-12.0227
 20
7.01574
 30
0
  0
SPLINE
  5
A9D
330
A02
100
AcDbEntity
  8
Shape2DView027
100
AcDbSpline
210
0
220
0
230
1
 70
8
 71
1
 72
4
 73
2
 74
0
 40
0
 40
0
 40
7.20347
 40
7.20347
 10
-12.0227
 20
7.01574
 30
0
 10
-13.1143
 20
7.28086
 30
0
  0
SPLINE
  5
A9E
330
A02
100
AcDbEntity
  8
Shape2DView027
100
AcDbSpline
210
0
220
0
230
1
 70
8
 71
2
 72
6
 73
3
 74
0
 40
0
 40
0
 40
0
 40
1
 40
1
 40
1
 10
-13.1143
 20
7.28086
 30
0
 10
-13.629
 20
6.50891
 30
0
 10
-14.05
 20
5.69018
 30
0
  0
SPLINE
  5
A9F
330
A02
100
AcDbEntity
  8
Shape2DView027
100
AcDbSpline
210
0
220
0
230
1
 70
8
 71
3
 72
8
 73
4
 74
0
 40
0
 40
0
 40
0
 40
0
 40
1
 40
1
 40
1
 40
1
 10
-14.05
 20
5.69018
 30
0
 10
-14.0344
 20
5.69018
 30
0
 10
-13.3015
 20
5.54983
 30
0
 10
-13.1767
 20
5.53424
 30
0
  0
SPLINE
  5
AA0
330
A02
100
AcDbEntity
  8
Shape2DView027
100
AcDbSpline
210
0
220
0
230
1
 70
8
 71
3
 72
8
 73
4
 74
0
 40
0
 40
0
 40
0
 40
0
 40
1
 40
1
 40
1
 40
1
 10
-13.1767
 20
5.53424
 30
0
 10
-13.052
 20
5.50305
 30
0
 10
-12.8336
 20
5.40948
 30
0
 10
-12.896
 20
5.06639
 30
0
  0
SPLINE
  5
AA1
330
A02
100
AcDbEntity
  8
Shape2DView027
100
AcDbSpline
210
0
220
0
230
1
 70
8
 71
3
 72
8
 73
4
 74
0
 40
0
 40
0
 40
0
 40
0
 40
1
 40
1
 40
1
 40
1
 10
-12.896
 20
5.06639
 30
0
 10
-12.9584
 20
4.7233
 30
0
 10
-13.3327
 20
4.77009
 30
0
 10
-13.3327
 20
4.77009
 30
0
  0
SPLINE
  5
AA2
330
A02
100
AcDbEntity
  8
Shape2DView027
100
AcDbSpline
210
0
220
0
230
1
 70
8
 71
1
 72
4
 73
2
 74
0
 40
0
 40
0
 40
7.21734
 40
7.21734
 10
-13.3327
 20
4.77009
 30
0
 10
-14.4555
 20
4.84806
 30
0
  0
SPLINE
  5
AA3
330
A02
100
AcDbEntity
  8
Shape2DView027
100
AcDbSpline
210
0
220
0
230
1
 70
8
 71
2
 72
6
 73
3
 74
0
 40
0
 40
0
 40
0
 40
1
 40
1
 40
1
 10
-14.4555
 20
4.84806
 30
0
 10
-14.8493
 20
3.95916
 30
0
 10
-15.1261
 20
3.02347
 30
0
  0
SPLINE
  5
AA4
330
A02
100
AcDbEntity
  8
Shape2DView027
100
AcDbSpline
210
0
220
0
230
1
 70
8
 71
1
 72
4
 73
2
 74
0
 40
0
 40
0
 40
5.7
 40
5.7
 10
-15.1261
 20
3.02347
 30
0
 10
-14.2372
 20
3.02347
 30
0
  0
SPLINE
  5
AA5
330
A02
100
AcDbEntity
  8
Shape2DView027
100
AcDbSpline
210
0
220
0
230
1
 70
8
 71
3
 72
8
 73
4
 74
0
 40
0
 40
0
 40
0
 40
0
 40
1
 40
1
 40
1
 40
1
 10
-14.2372
 20
3.02347
 30
0
 10
-14.1124
 20
3.02347
 30
0
 10
-13.8785
 20
2.96109
 30
0
 10
-13.8785
 20
2.618
 30
0
  0
SPLINE
  5
AA6
330
A02
100
AcDbEntity
  8
Shape2DView027
100
AcDbSpline
210
0
220
0
230
1
 70
8
 71
3
 72
8
 73
4
 74
0
 40
0
 40
0
 40
0
 40
0
 40
1
 40
1
 40
1
 40
1
 10
-13.8785
 20
2.618
 30
0
 10
-13.8785
 20
2.27492
 30
0
 10
-14.2528
 20
2.24373
 30
0
 10
-14.2528
 20
2.24373
 30
0
  0
SPLINE
  5
AA7
330
A02
100
AcDbEntity
  8
Shape2DView027
100
AcDbSpline
210
0
220
0
230
1
 70
8
 71
1
 72
4
 73
2
 74
0
 40
0
 40
0
 40
7.24431
 40
7.24431
 10
-14.2528
 20
2.24373
 30
0
 10
-15.3756
 20
2.11897
 30
0
  0
SPLINE
  5
AA8
330
A02
100
AcDbEntity
  8
Shape2DView027
100
AcDbSpline
210
0
220
0
230
1
 70
8
 71
2
 72
6
 73
3
 74
0
 40
0
 40
0
 40
0
 40
1
 40
1
 40
1
 10
-15.3756
 20
2.11897
 30
0
 10
-15.5861
 20
1.22617
 30
0
 10
-15.7031
 20
0.309969
 30
0
  0
SPLINE
  5
AA9
330
A02
100
AcDbEntity
  8
Shape2DView027
100
AcDbSpline
210
0
220
0
230
1
 70
8
 71
3
 72
8
 73
4
 74
0
 40
0
 40
0
 40
0
 40
0
 40
1
 40
1
 40
1
 40
1
 10
-15.7031
 20
0.309969
 30
0
 10
-15.6563
 20
0.325564
 30
0
 10
-14.9545
 20
0.434728
 30
0
 10
-14.8298
 20
0.465917
 30
0
  0
SPLINE
  5
AAA
330
A02
100
AcDbEntity
  8
Shape2DView027
100
AcDbSpline
210
0
220
0
230
1
 70
8
 71
3
 72
8
 73
4
 74
0
 40
0
 40
0
 40
0
 40
0
 40
1
 40
1
 40
1
 40
1
 10
-14.8298
 20
0.465917
 30
0
 10
-14.705
 20
0.481512
 30
0
 10
-14.5023
 20
0.465917
 30
0
 10
-14.4243
 20
0.200805
 30
0
  0
SPLINE
  5
AAB
330
A02
100
AcDbEntity
  8
Shape2DView027
100
AcDbSpline
210
0
220
0
230
1
 70
8
 71
1
 72
4
 73
2
 74
0
 40
0
 40
0
 40
8.956
 40
8.956
 10
-14.4243
 20
0.200805
 30
0
 10
-13.0364
 20
0.044857
 30
0
  0
SPLINE
  5
AAC
330
A02
100
AcDbEntity
  8
Shape2DView027
100
AcDbSpline
210
0
220
0
230
1
 70
8
 71
1
 72
4
 73
2
 74
0
 40
0
 40
0
 40
2.83019
 40
2.83019
 10
-13.0364
 20
0.044857
 30
0
 10
-13.2703
 20
-0.329419
 30
0
  0
SPLINE
  5
AAD
330
A02
100
AcDbEntity
  8
Shape2DView027
100
AcDbSpline
210
0
220
0
230
1
 70
8
 71
1
 72
4
 73
2
 74
0
 40
0
 40
0
 40
8.05047
 40
8.05047
 10
-13.2703
 20
-0.329419
 30
0
 10
-14.5179
 20
-0.189065
 30
0
  0
SPLINE
  5
AAE
330
A02
100
AcDbEntity
  8
Shape2DView027
100
AcDbSpline
210
0
220
0
230
1
 70
8
 71
3
 72
8
 73
4
 74
0
 40
0
 40
0
 40
0
 40
0
 40
1
 40
1
 40
1
 40
1
 10
-14.5179
 20
-0.189065
 30
0
 10
-14.6114
 20
-0.282634
 30
0
 10
-14.7206
 20
-0.313824
 30
0
 10
-14.7206
 20
-0.313824
 30
0
  0
SPLINE
  5
AAF
330
A02
100
AcDbEntity
  8
Shape2DView027
100
AcDbSpline
210
0
220
0
230
1
 70
8
 71
1
 72
4
 73
2
 74
0
 40
0
 40
0
 40
7.21249
 40
7.21249
 10
-14.7206
 20
-0.313824
 30
0
 10
-15.7966
 20
-0.641315
 30
0
  0
SPLINE
  5
AB0
330
A02
100
AcDbEntity
  8
Shape2DView027
100
AcDbSpline
210
0
220
0
230
1
 70
8
 71
3
 72
8
 73
4
 74
0
 40
0
 40
0
 40
0
 40
0
 40
1
 40
1
 40
1
 40
1
 10
-15.7966
 20
-0.641315
 30
0
 10
-15.8122
 20
-0.968807
 30
0
 10
-15.8278
 20
-1.2807
 30
0
 10
-15.8278
 20
-1.60819
 30
0
  0
SPLINE
  5
AB1
330
A02
100
AcDbEntity
  8
Shape2DView027
100
AcDbSpline
210
0
220
0
230
1
 70
8
 71
3
 72
8
 73
4
 74
0
 40
0
 40
0
 40
0
 40
0
 40
1
 40
1
 40
1
 40
1
 10
-15.8278
 20
-1.60819
 30
0
 10
-15.8278
 20
-1.9045
 30
0
 10
-15.8122
 20
-2.1852
 30
0
 10
-15.7966
 20
-2.4815
 30
0
  0
SPLINE
  5
AB2
330
A02
100
AcDbEntity
  8
Shape2DView027
100
AcDbSpline
210
0
220
0
230
1
 70
8
 71
3
 72
8
 73
4
 74
0
 40
0
 40
0
 40
0
 40
0
 40
1
 40
1
 40
1
 40
1
 10
-15.7966
 20
-2.4815
 30
0
 10
-15.7343
 20
-2.46591
 30
0
 10
-15.0793
 20
-2.21639
 30
0
 10
-14.9701
 20
-2.1852
 30
0
  0
SPLINE
  5
AB3
330
A02
100
AcDbEntity
  8
Shape2DView027
100
AcDbSpline
210
0
220
0
230
1
 70
8
 71
3
 72
8
 73
4
 74
0
 40
0
 40
0
 40
0
 40
0
 40
1
 40
1
 40
1
 40
1
 10
-14.9701
 20
-2.1852
 30
0
 10
-14.861
 20
-2.15401
 30
0
 10
-14.6738
 20
-2.12282
 30
0
 10
-14.5491
 20
-2.34115
 30
0
  0
SPLINE
  5
AB4
330
A02
100
AcDbEntity
  8
Shape2DView027
100
AcDbSpline
210
0
220
0
230
1
 70
8
 71
1
 72
4
 73
2
 74
0
 40
0
 40
0
 40
5.57584
 40
5.57584
 10
-14.5491
 20
-2.34115
 30
0
 10
-15.0169
 20
-3.07411
 30
0
  0
SPLINE
  5
AB5
330
A02
100
AcDbEntity
  8
Shape2DView027
100
AcDbSpline
210
0
220
0
230
1
 70
8
 71
1
 72
4
 73
2
 74
0
 40
0
 40
0
 40
5.14296
 40
5.14296
 10
-15.0169
 20
-3.07411
 30
0
 10
-15.7343
 20
-3.43279
 30
0
  0
SPLINE
  5
AB6
330
A02
100
AcDbEntity
  8
Shape2DView027
100
AcDbSpline
210
0
220
0
230
1
 70
8
 71
3
 72
8
 73
4
 74
0
 40
0
 40
0
 40
0
 40
0
 40
1
 40
1
 40
1
 40
1
 10
-15.7343
 20
-3.43279
 30
0
 10
-15.7031
 20
-3.65112
 30
0
 10
-15.6875
 20
-3.85385
 30
0
 10
-15.6407
 20
-4.07218
 30
0
  0
SPLINE
  5
AB7
330
A02
100
AcDbEntity
  8
Shape2DView027
100
AcDbSpline
210
0
220
0
230
1
 70
8
 71
1
 72
4
 73
2
 74
0
 40
0
 40
0
 40
42.9731
 40
42.9731
 10
-15.6407
 20
-4.07218
 30
0
 10
-19.2275
 20
-9.7331
 30
0
  0
SPLINE
  5
AB8
330
A02
100
AcDbEntity
  8
Shape2DView027
100
AcDbSpline
210
0
220
0
230
1
 70
8
 71
3
 72
8
 73
4
 74
0
 40
0
 40
0
 40
0
 40
0
 40
1
 40
1
 40
1
 40
1
 10
-19.2275
 20
-9.7331
 30
0
 10
-20.9273
 20
-12.3998
 30
0
 10
-19.7265
 20
-14.5831
 30
0
 10
-16.5608
 20
-14.5831
 30
0
  0
SPLINE
  5
AB9
330
A02
100
AcDbEntity
  8
Shape2DView027
100
AcDbSpline
210
0
220
0
230
1
 70
8
 71
1
 72
4
 73
2
 74
0
 40
0
 40
0
 40
51.2
 40
51.2
 10
-16.5608
 20
-14.5831
 30
0
 10
-8.57624
 20
-14.5831
 30
0
  0
SPLINE
  5
ABA
330
A02
100
AcDbEntity
  8
Shape2DView027
100
AcDbSpline
210
0
220
0
230
1
 70
8
 71
1
 72
4
 73
2
 74
0
 40
0
 40
0
 40
2.66833
 40
2.66833
 10
-8.57624
 20
-14.5831
 30
0
 10
-8.66981
 20
-14.9886
 30
0
  0
SPLINE
  5
ABB
330
A02
100
AcDbEntity
  8
Shape2DView027
100
AcDbSpline
210
0
220
0
230
1
 70
8
 71
2
 72
6
 73
3
 74
0
 40
0
 40
0
 40
0
 40
1
 40
1
 40
1
 10
-8.66981
 20
-14.9886
 30
0
 10
-7.89787
 20
-15.5032
 30
0
 10
-7.07914
 20
-15.9242
 30
0
  0
SPLINE
  5
ABC
330
A02
100
AcDbEntity
  8
Shape2DView027
100
AcDbSpline
210
0
220
0
230
1
 70
8
 71
3
 72
8
 73
4
 74
0
 40
0
 40
0
 40
0
 40
0
 40
1
 40
1
 40
1
 40
1
 10
-7.07914
 20
-15.9242
 30
0
 10
-7.07914
 20
-15.9086
 30
0
 10
-6.93879
 20
-15.1757
 30
0
 10
-6.92319
 20
-15.0509
 30
0
  0
SPLINE
  5
ABD
330
A02
100
AcDbEntity
  8
Shape2DView027
100
AcDbSpline
210
0
220
0
230
1
 70
8
 71
3
 72
8
 73
4
 74
0
 40
0
 40
0
 40
0
 40
0
 40
1
 40
1
 40
1
 40
1
 10
-6.92319
 20
-15.0509
 30
0
 10
-6.9076
 20
-14.9262
 30
0
 10
-6.79843
 20
-14.7078
 30
0
 10
-6.45535
 20
-14.7702
 30
0
  0
SPLINE
  5
ABE
330
A02
100
AcDbEntity
  8
Shape2DView027
100
AcDbSpline
210
0
220
0
230
1
 70
8
 71
3
 72
8
 73
4
 74
0
 40
0
 40
0
 40
0
 40
0
 40
1
 40
1
 40
1
 40
1
 10
-6.45535
 20
-14.7702
 30
0
 10
-6.11226
 20
-14.8326
 30
0
 10
-6.15905
 20
-15.2069
 30
0
 10
-6.15905
 20
-15.2069
 30
0
  0
SPLINE
  5
ABF
330
A02
100
AcDbEntity
  8
Shape2DView027
100
AcDbSpline
210
0
220
0
230
1
 70
8
 71
1
 72
4
 73
2
 74
0
 40
0
 40
0
 40
7.21734
 40
7.21734
 10
-6.15905
 20
-15.2069
 30
0
 10
-6.23702
 20
-16.3297
 30
0
  0
SPLINE
  5
AC0
330
A02
100
AcDbEntity
  8
Shape2DView027
100
AcDbSpline
210
0
220
0
230
1
 70
8
 71
2
 72
6
 73
3
 74
0
 40
0
 40
0
 40
0
 40
1
 40
1
 40
1
 10
-6.23702
 20
-16.3297
 30
0
 10
-5.34812
 20
-16.7235
 30
0
 10
-4.41243
 20
-17.0003
 30
0
  0
SPLINE
  5
AC1
330
A02
100
AcDbEntity
  8
Shape2DView027
100
AcDbSpline
210
0
220
0
230
1
 70
8
 71
1
 72
4
 73
2
 74
0
 40
0
 40
0
 40
5.7
 40
5.7
 10
-4.41243
 20
-17.0003
 30
0
 10
-4.41243
 20
-16.1114
 30
0
  0
SPLINE
  5
AC2
330
A02
100
AcDbEntity
  8
Shape2DView027
100
AcDbSpline
210
0
220
0
230
1
 70
8
 71
3
 72
8
 73
4
 74
0
 40
0
 40
0
 40
0
 40
0
 40
1
 40
1
 40
1
 40
1
 10
-4.41243
 20
-16.1114
 30
0
 10
-4.41243
 20
-15.9866
 30
0
 10
-4.35005
 20
-15.7527
 30
0
 10
-4.00696
 20
-15.7527
 30
0
  0
SPLINE
  5
AC3
330
A02
100
AcDbEntity
  8
Shape2DView027
100
AcDbSpline
210
0
220
0
230
1
 70
8
 71
3
 72
8
 73
4
 74
0
 40
0
 40
0
 40
0
 40
0
 40
1
 40
1
 40
1
 40
1
 10
-4.00696
 20
-15.7527
 30
0
 10
-3.66387
 20
-15.7527
 30
0
 10
-3.63268
 20
-16.127
 30
0
 10
-3.63268
 20
-16.127
 30
0
  0
SPLINE
  5
AC4
330
A02
100
AcDbEntity
  8
Shape2DView027
100
AcDbSpline
210
0
220
0
230
1
 70
8
 71
1
 72
4
 73
2
 74
0
 40
0
 40
0
 40
7.24431
 40
7.24431
 10
-3.63268
 20
-16.127
 30
0
 10
-3.50793
 20
-17.2498
 30
0
  0
SPLINE
  5
AC5
330
A02
100
AcDbEntity
  8
Shape2DView027
100
AcDbSpline
210
0
220
0
230
1
 70
8
 71
2
 72
6
 73
3
 74
0
 40
0
 40
0
 40
0
 40
1
 40
1
 40
1
 10
-3.50793
 20
-17.2498
 30
0
 10
-2.61512
 20
-17.4603
 30
0
 10
-1.69893
 20
-17.5773
 30
0
  0
SPLINE
  5
AC6
330
A02
100
AcDbEntity
  8
Shape2DView027
100
AcDbSpline
210
0
220
0
230
1
 70
8
 71
3
 72
8
 73
4
 74
0
 40
0
 40
0
 40
0
 40
0
 40
1
 40
1
 40
1
 40
1
 10
-1.69893
 20
-17.5773
 30
0
 10
-1.71452
 20
-17.5305
 30
0
 10
-1.82369
 20
-16.8287
 30
0
 10
-1.85487
 20
-16.704
 30
0
  0
SPLINE
  5
AC7
330
A02
100
AcDbEntity
  8
Shape2DView027
100
AcDbSpline
210
0
220
0
230
1
 70
8
 71
3
 72
8
 73
4
 74
0
 40
0
 40
0
 40
0
 40
0
 40
1
 40
1
 40
1
 40
1
 10
-1.85487
 20
-16.704
 30
0
 10
-1.87047
 20
-16.5792
 30
0
 10
-1.85487
 20
-16.3765
 30
0
 10
-1.58976
 20
-16.2985
 30
0
  0
SPLINE
  5
AC8
330
A02
100
AcDbEntity
  8
Shape2DView027
100
AcDbSpline
210
0
220
0
230
1
 70
8
 71
1
 72
4
 73
2
 74
0
 40
0
 40
0
 40
11.0653
 40
11.0653
 10
-1.58976
 20
-16.2985
 30
0
 10
-1.40262
 20
-14.5831
 30
0
  0
SPLINE
  5
AC9
330
A02
100
AcDbEntity
  8
Shape2DView027
100
AcDbSpline
210
0
220
0
230
1
 70
8
 71
1
 72
4
 73
2
 74
0
 40
0
 40
0
 40
2.5
 40
2.5
 10
-1.40262
 20
-14.5831
 30
0
 10
-1.01275
 20
-14.5831
 30
0
  0
SPLINE
  5
ACA
330
A02
100
AcDbEntity
  8
Shape2DView027
100
AcDbSpline
210
0
220
0
230
1
 70
8
 71
1
 72
4
 73
2
 74
0
 40
0
 40
0
 40
11.5732
 40
11.5732
 10
-1.01275
 20
-14.5831
 30
0
 10
-1.21549
 20
-16.3765
 30
0
  0
SPLINE
  5
ACB
330
A02
100
AcDbEntity
  8
Shape2DView027
100
AcDbSpline
210
0
220
0
230
1
 70
8
 71
3
 72
8
 73
4
 74
0
 40
0
 40
0
 40
0
 40
0
 40
1
 40
1
 40
1
 40
1
 10
-1.21549
 20
-16.3765
 30
0
 10
-1.12192
 20
-16.4701
 30
0
 10
-1.09073
 20
-16.5792
 30
0
 10
-1.09073
 20
-16.5792
 30
0
  0
SPLINE
  5
ACC
330
A02
100
AcDbEntity
  8
Shape2DView027
100
AcDbSpline
210
0
220
0
230
1
 70
8
 71
1
 72
4
 73
2
 74
0
 40
0
 40
0
 40
7.18401
 40
7.18401
 10
-1.09073
 20
-16.5792
 30
0
 10
-0.778832
 20
-17.6553
 30
0
  0
SPLINE
  5
ACD
330
A02
100
AcDbEntity
  8
Shape2DView027
100
AcDbSpline
210
0
220
0
230
1
 70
8
 71
3
 72
8
 73
4
 74
0
 40
0
 40
0
 40
0
 40
0
 40
1
 40
1
 40
1
 40
1
 10
-0.778832
 20
-17.6553
 30
0
 10
-0.451341
 20
-17.6709
 30
0
 10
-0.139444
 20
-17.6865
 30
0
 10
0.188047
 20
-17.6865
 30
0
  0
SPLINE
  5
ACE
330
A02
100
AcDbEntity
  8
Shape2DView027
100
AcDbSpline
210
0
220
0
230
1
 70
8
 71
3
 72
8
 73
4
 74
0
 40
0
 40
0
 40
0
 40
0
 40
1
 40
1
 40
1
 40
1
 10
0.188047
 20
-17.6865
 30
0
 10
0.484349
 20
-17.6865
 30
0
 10
0.765056
 20
-17.6709
 30
0
 10
1.06136
 20
-17.6553
 30
0
  0
SPLINE
  5
ACF
330
A02
100
AcDbEntity
  8
Shape2DView027
100
AcDbSpline
210
0
220
0
230
1
 70
8
 71
3
 72
8
 73
4
 74
0
 40
0
 40
0
 40
0
 40
0
 40
1
 40
1
 40
1
 40
1
 10
1.06136
 20
-17.6553
 30
0
 10
1.04576
 20
-17.5929
 30
0
 10
0.796245
 20
-16.9379
 30
0
 10
0.765056
 20
-16.8287
 30
0
  0
SPLINE
  5
AD0
330
A02
100
AcDbEntity
  8
Shape2DView027
100
AcDbSpline
210
0
220
0
230
1
 70
8
 71
3
 72
8
 73
4
 74
0
 40
0
 40
0
 40
0
 40
0
 40
1
 40
1
 40
1
 40
1
 10
0.765056
 20
-16.8287
 30
0
 10
0.718271
 20
-16.704
 30
0
 10
0.702676
 20
-16.4701
 30
0
 10
1.03017
 20
-16.3453
 30
0
  0
SPLINE
  5
AD1
330
A02
100
AcDbEntity
  8
Shape2DView027
100
AcDbSpline
210
0
220
0
230
1
 70
8
 71
3
 72
8
 73
4
 74
0
 40
0
 40
0
 40
0
 40
0
 40
1
 40
1
 40
1
 40
1
 10
1.03017
 20
-16.3453
 30
0
 10
1.35766
 20
-16.2205
 30
0
 10
1.51361
 20
-16.5636
 30
0
 10
1.51361
 20
-16.5636
 30
0
  0
SPLINE
  5
AD2
330
A02
100
AcDbEntity
  8
Shape2DView027
100
AcDbSpline
210
0
220
0
230
1
 70
8
 71
1
 72
4
 73
2
 74
0
 40
0
 40
0
 40
7.15542
 40
7.15542
 10
1.51361
 20
-16.5636
 30
0
 10
2.01264
 20
-17.5617
 30
0
  0
SPLINE
  5
AD3
330
A02
100
AcDbEntity
  8
Shape2DView027
100
AcDbSpline
210
0
220
0
230
1
 70
8
 71
3
 72
8
 73
4
 74
0
 40
0
 40
0
 40
0
 40
0
 40
1
 40
1
 40
1
 40
1
 10
2.01264
 20
-17.5617
 30
0
 10
2.63643
 20
-17.4993
 30
0
 10
3.22904
 20
-17.3902
 30
0
 10
3.83724
 20
-17.2498
 30
0
  0
SPLINE
  5
AD4
330
A02
100
AcDbEntity
  8
Shape2DView027
100
AcDbSpline
210
0
220
0
230
1
 70
8
 71
3
 72
8
 73
4
 74
0
 40
0
 40
0
 40
0
 40
0
 40
1
 40
1
 40
1
 40
1
 10
3.83724
 20
-17.2498
 30
0
 10
3.83724
 20
-17.2342
 30
0
 10
3.46296
 20
-16.5948
 30
0
 10
3.40058
 20
-16.4857
 30
0
  0
SPLINE
  5
AD5
330
A02
100
AcDbEntity
  8
Shape2DView027
100
AcDbSpline
210
0
220
0
230
1
 70
8
 71
3
 72
8
 73
4
 74
0
 40
0
 40
0
 40
0
 40
0
 40
1
 40
1
 40
1
 40
1
 10
3.40058
 20
-16.4857
 30
0
 10
3.3382
 20
-16.3765
 30
0
 10
3.27582
 20
-16.1426
 30
0
 10
3.57212
 20
-15.971
 30
0
  0
SPLINE
  5
AD6
330
A02
100
AcDbEntity
  8
Shape2DView027
100
AcDbSpline
210
0
220
0
230
1
 70
8
 71
3
 72
8
 73
4
 74
0
 40
0
 40
0
 40
0
 40
0
 40
1
 40
1
 40
1
 40
1
 10
3.57212
 20
-15.971
 30
0
 10
3.86843
 20
-15.7995
 30
0
 10
4.08675
 20
-16.1114
 30
0
 10
4.08675
 20
-16.1114
 30
0
  0
SPLINE
  5
AD7
330
A02
100
AcDbEntity
  8
Shape2DView027
100
AcDbSpline
210
0
220
0
230
1
 70
8
 71
1
 72
4
 73
2
 74
0
 40
0
 40
0
 40
7.22011
 40
7.22011
 10
4.08675
 20
-16.1114
 30
0
 10
4.75733
 20
-17.0159
 30
0
  0
SPLINE
  5
AD8
330
A02
100
AcDbEntity
  8
Shape2DView027
100
AcDbSpline
210
0
220
0
230
1
 70
8
 71
3
 72
8
 73
4
 74
0
 40
0
 40
0
 40
0
 40
0
 40
1
 40
1
 40
1
 40
1
 10
4.75733
 20
-17.0159
 30
0
 10
5.34993
 20
-16.8443
 30
0
 10
5.92694
 20
-16.626
 30
0
 10
6.48836
 20
-16.3921
 30
0
  0
SPLINE
  5
AD9
330
A02
100
AcDbEntity
  8
Shape2DView027
100
AcDbSpline
210
0
220
0
230
1
 70
8
 71
3
 72
8
 73
4
 74
0
 40
0
 40
0
 40
0
 40
0
 40
1
 40
1
 40
1
 40
1
 10
6.48836
 20
-16.3921
 30
0
 10
6.48836
 20
-16.3921
 30
0
 10
6.00492
 20
-15.8151
 30
0
 10
5.92694
 20
-15.7059
 30
0
  0
SPLINE
  5
ADA
330
A02
100
AcDbEntity
  8
Shape2DView027
100
AcDbSpline
210
0
220
0
230
1
 70
8
 71
3
 72
8
 73
4
 74
0
 40
0
 40
0
 40
0
 40
0
 40
1
 40
1
 40
1
 40
1
 10
5.92694
 20
-15.7059
 30
0
 10
5.84897
 20
-15.6123
 30
0
 10
5.7398
 20
-15.394
 30
0
 10
6.00492
 20
-15.1601
 30
0
  0
SPLINE
  5
ADB
330
A02
100
AcDbEntity
  8
Shape2DView027
100
AcDbSpline
210
0
220
0
230
1
 70
8
 71
3
 72
8
 73
4
 74
0
 40
0
 40
0
 40
0
 40
0
 40
1
 40
1
 40
1
 40
1
 10
6.00492
 20
-15.1601
 30
0
 10
6.27003
 20
-14.9418
 30
0
 10
6.53514
 20
-15.2069
 30
0
 10
6.53514
 20
-15.2069
 30
0
  0
SPLINE
  5
ADC
330
A02
100
AcDbEntity
  8
Shape2DView027
100
AcDbSpline
210
0
220
0
230
1
 70
8
 71
1
 72
4
 73
2
 74
0
 40
0
 40
0
 40
7.21388
 40
7.21388
 10
6.53514
 20
-15.2069
 30
0
 10
7.34607
 20
-15.9866
 30
0
  0
SPLINE
  5
ADD
330
A02
100
AcDbEntity
  8
Shape2DView027
100
AcDbSpline
210
0
220
0
230
1
 70
8
 71
3
 72
8
 73
4
 74
0
 40
0
 40
0
 40
0
 40
0
 40
1
 40
1
 40
1
 40
1
 10
7.34607
 20
-15.9866
 30
0
 10
7.89189
 20
-15.7059
 30
0
 10
8.43771
 20
-15.4096
 30
0
 10
8.95234
 20
-15.0665
 30
0
  0
SPLINE
  5
ADE
330
A02
100
AcDbEntity
  8
Shape2DView027
100
AcDbSpline
210
0
220
0
230
1
 70
8
 71
3
 72
8
 73
4
 74
0
 40
0
 40
0
 40
0
 40
0
 40
1
 40
1
 40
1
 40
1
 10
8.95234
 20
-15.0665
 30
0
 10
8.93674
 20
-15.0509
 30
0
 10
8.51568
 20
-14.6923
 30
0
 10
8.34414
 20
-14.5519
 30
0
  0
SPLINE
  5
ADF
330
A02
100
AcDbEntity
  8
Shape2DView027
100
AcDbSpline
210
0
220
0
230
1
 70
8
 71
1
 72
4
 73
2
 74
0
 40
0
 40
0
 40
52.3
 40
52.3
 10
8.34414
 20
-14.5519
 30
0
 10
16.5002
 20
-14.5519
 30
0
  0
SPLINE
  5
AE0
330
A02
100
AcDbEntity
  8
Shape2DView027
100
AcDbSpline
210
0
220
0
230
1
 70
8
 71
3
 72
8
 73
4
 74
0
 40
0
 40
0
 40
0
 40
0
 40
1
 40
1
 40
1
 40
1
 10
16.5002
 20
-14.5519
 30
0
 10
19.7284
 20
-14.5987
 30
0
 10
20.9292
 20
-12.4154
 30
0
 10
19.2293
 20
-9.74869
 30
0
  0
ARC
  5
AE1
330
A02
100
AcDbEntity
  8
Shape2DView027
100
AcDbCircle
 10
41.6624
 20
10.1
 30
0
 40
0.2
100
AcDbArc
 50
-90
 51
90
  0
LINE
  5
AE2
330
A02
100
AcDbEntity
  8
Shape2DView027
100
AcDbLine
 10
29.9624
 20
9.9
 30
0
 11
41.6624
 21
9.9
 31
0
  0
LINE
  5
AE3
330
A02
100
AcDbEntity
  8
Shape2DView027
100
AcDbLine
 10
41.6624
 20
10.3
 30
0
 11
29.9624
 21
10.3
 31
0
  0
ARC
  5
AE4
330
A02
100
AcDbEntity
  8
Shape2DView027
100
AcDbCircle
 10
29.9624
 20
10.1
 30
0
 40
0.2
100
AcDbArc
 50
90
 51
-90
  0
ARC
  5
AE5
330
A02
100
AcDbEntity
  8
Shape2DView027
100
AcDbCircle
 10
10.1
 20
41.6624
 30
0
 40
0.2
100
AcDbArc
 50
2.03555e-12
 51
180
  0
LINE
  5
AE6
330
A02
100
AcDbEntity
  8
Shape2DView027
100
AcDbLine
 10
10.3
 20
29.9624
 30
0
 11
10.3
 21
41.6624
 31
0
  0
LINE
  5
AE7
330
A02
100
AcDbEntity
  8
Shape2DView027
100
AcDbLine
 10
9.9
 20
41.6624
 30
0
 11
9.9
 21
29.9624
 31
0
  0
ARC
  5
AE8
330
A02
100
AcDbEntity
  8
Shape2DView027
100
AcDbCircle
 10
10.1
 20
29.9624
 30
0
 40
0.2
100
AcDbArc
 50
180
 51
0
  0
SPLINE
  5
AE9
330
A02
100
AcDbEntity
  8
Shape2DView027
100
AcDbSpline
210
0
220
0
230
1
 70
8
 71
1
 72
4
 73
2
 74
0
 40
0
 40
0
 40
212.9
 40
212.9
 10
16.625
 20
-12.7741
 30
0
 10
-16.5764
 20
-12.7741
 30
0
  0
SPLINE
  5
AEA
330
A02
100
AcDbEntity
  8
Shape2DView027
100
AcDbSpline
210
0
220
0
230
1
 70
8
 71
3
 72
8
 73
4
 74
0
 40
0
 40
0
 40
0
 40
0
 40
1
 40
1
 40
1
 40
1
 10
-16.5764
 20
-12.7741
 30
0
 10
-17.9331
 20
-12.7741
 30
0
 10
-18.4478
 20
-11.8384
 30
0
 10
-17.7148
 20
-10.7
 30
0
  0
SPLINE
  5
AEB
330
A02
100
AcDbEntity
  8
Shape2DView027
100
AcDbSpline
210
0
220
0
230
1
 70
8
 71
1
 72
4
 73
2
 74
0
 40
0
 40
0
 40
194.787
 40
194.787
 10
-17.7148
 20
-10.7
 30
0
 10
-1.32465
 20
14.8755
 30
0
  0
SPLINE
  5
AEC
330
A02
100
AcDbEntity
  8
Shape2DView027
100
AcDbSpline
210
0
220
0
230
1
 70
8
 71
3
 72
8
 73
4
 74
0
 40
0
 40
0
 40
0
 40
0
 40
1
 40
1
 40
1
 40
1
 10
-1.32465
 20
14.8755
 30
0
 10
-0.591694
 20
16.014
 30
0
 10
0.609107
 20
16.014
 30
0
 10
1.34206
 20
14.8755
 30
0
  0
SPLINE
  5
AED
330
A02
100
AcDbEntity
  8
Shape2DView027
100
AcDbSpline
210
0
220
0
230
1
 70
8
 71
1
 72
4
 73
2
 74
0
 40
0
 40
0
 40
194.811
 40
194.811
 10
1.34206
 20
14.8755
 30
0
 10
17.7634
 20
-10.6844
 30
0
  0
SPLINE
  5
AEE
330
A02
100
AcDbEntity
  8
Shape2DView027
100
AcDbSpline
210
0
220
0
230
1
 70
8
 71
3
 72
8
 73
4
 74
0
 40
0
 40
0
 40
0
 40
0
 40
1
 40
1
 40
1
 40
1
 10
17.7634
 20
-10.6844
 30
0
 10
18.4964
 20
-11.8384
 30
0
 10
17.9817
 20
-12.7741
 30
0
 10
16.625
 20
-12.7741
 30
0
  0
SPLINE
  5
AEF
330
A02
100
AcDbEntity
  8
Shape2DView027
100
AcDbSpline
210
0
220
0
230
1
 70
8
 71
3
 72
8
 73
4
 74
0
 40
0
 40
0
 40
0
 40
0
 40
1
 40
1
 40
1
 40
1
 10
-3.47674
 20
-5.05465
 30
0
 10
-3.47674
 20
-4.97668
 30
0
 10
-3.63268
 20
-4.92989
 30
0
 10
-3.86661
 20
-4.8987
 30
0
  0
SPLINE
  5
AF0
330
A02
100
AcDbEntity
  8
Shape2DView027
100
AcDbSpline
210
0
220
0
230
1
 70
8
 71
3
 72
8
 73
4
 74
0
 40
0
 40
0
 40
0
 40
0
 40
1
 40
1
 40
1
 40
1
 10
-3.86661
 20
-4.8987
 30
0
 10
-3.8978
 20
-4.8987
 30
0
 10
-4.02256
 20
-4.88311
 30
0
 10
-4.06934
 20
-4.88311
 30
0
  0
SPLINE
  5
AF1
330
A02
100
AcDbEntity
  8
Shape2DView027
100
AcDbSpline
210
0
220
0
230
1
 70
8
 71
1
 72
4
 73
2
 74
0
 40
0
 40
0
 40
46.9
 40
46.9
 10
-4.06934
 20
-4.88311
 30
0
 10
-4.06934
 20
2.43087
 30
0
  0
SPLINE
  5
AF2
330
A02
100
AcDbEntity
  8
Shape2DView027
100
AcDbSpline
210
0
220
0
230
1
 70
8
 71
3
 72
8
 73
4
 74
0
 40
0
 40
0
 40
0
 40
0
 40
1
 40
1
 40
1
 40
1
 10
-4.06934
 20
2.43087
 30
0
 10
-4.06934
 20
2.43087
 30
0
 10
-3.97577
 20
2.66479
 30
0
 10
-3.97577
 20
2.66479
 30
0
  0
SPLINE
  5
AF3
330
A02
100
AcDbEntity
  8
Shape2DView027
100
AcDbSpline
210
0
220
0
230
1
 70
8
 71
1
 72
4
 73
2
 74
0
 40
0
 40
0
 40
4.85077
 40
4.85077
 10
-3.97577
 20
2.66479
 30
0
 10
-4.08493
 20
3.41334
 30
0
  0
SPLINE
  5
AF4
330
A02
100
AcDbEntity
  8
Shape2DView027
100
AcDbSpline
210
0
220
0
230
1
 70
8
 71
1
 72
4
 73
2
 74
0
 40
0
 40
0
 40
1.8
 40
1.8
 10
-4.08493
 20
3.41334
 30
0
 10
-4.36564
 20
3.41334
 30
0
  0
SPLINE
  5
AF5
330
A02
100
AcDbEntity
  8
Shape2DView027
100
AcDbSpline
210
0
220
0
230
1
 70
8
 71
1
 72
4
 73
2
 74
0
 40
0
 40
0
 40
4.85077
 40
4.85077
 10
-4.36564
 20
3.41334
 30
0
 10
-4.47481
 20
2.66479
 30
0
  0
SPLINE
  5
AF6
330
A02
100
AcDbEntity
  8
Shape2DView027
100
AcDbSpline
210
0
220
0
230
1
 70
8
 71
3
 72
8
 73
4
 74
0
 40
0
 40
0
 40
0
 40
0
 40
1
 40
1
 40
1
 40
1
 10
-4.47481
 20
2.66479
 30
0
 10
-4.47481
 20
2.66479
 30
0
 10
-4.35005
 20
2.44646
 30
0
 10
-4.35005
 20
2.44646
 30
0
  0
SPLINE
  5
AF7
330
A02
100
AcDbEntity
  8
Shape2DView027
100
AcDbSpline
210
0
220
0
230
1
 70
8
 71
1
 72
4
 73
2
 74
0
 40
0
 40
0
 40
46.9
 40
46.9
 10
-4.35005
 20
2.44646
 30
0
 10
-4.35005
 20
-4.86751
 30
0
  0
SPLINE
  5
AF8
330
A02
100
AcDbEntity
  8
Shape2DView027
100
AcDbSpline
210
0
220
0
230
1
 70
8
 71
3
 72
8
 73
4
 74
0
 40
0
 40
0
 40
0
 40
0
 40
1
 40
1
 40
1
 40
1
 10
-4.35005
 20
-4.86751
 30
0
 10
-4.38124
 20
-4.86751
 30
0
 10
-4.35005
 20
-4.86751
 30
0
 10
-4.39683
 20
-4.86751
 30
0
  0
SPLINE
  5
AF9
330
A02
100
AcDbEntity
  8
Shape2DView027
100
AcDbSpline
210
0
220
0
230
1
 70
8
 71
3
 72
8
 73
4
 74
0
 40
0
 40
0
 40
0
 40
0
 40
1
 40
1
 40
1
 40
1
 10
-4.39683
 20
-4.86751
 30
0
 10
-4.63075
 20
-4.88311
 30
0
 10
-4.7867
 20
-4.92989
 30
0
 10
-4.7867
 20
-4.99227
 30
0
  0
SPLINE
  5
AFA
330
A02
100
AcDbEntity
  8
Shape2DView027
100
AcDbSpline
210
0
220
0
230
1
 70
8
 71
3
 72
8
 73
4
 74
0
 40
0
 40
0
 40
0
 40
0
 40
1
 40
1
 40
1
 40
1
 10
-4.7867
 20
-4.99227
 30
0
 10
-4.7867
 20
-4.99227
 30
0
 10
-4.7867
 20
-5.00787
 30
0
 10
-4.7867
 20
-5.00787
 30
0
  0
SPLINE
  5
AFB
330
A02
100
AcDbEntity
  8
Shape2DView027
100
AcDbSpline
210
0
220
0
230
1
 70
8
 71
3
 72
8
 73
4
 74
0
 40
0
 40
0
 40
0
 40
0
 40
1
 40
1
 40
1
 40
1
 10
-4.7867
 20
-5.00787
 30
0
 10
-4.7867
 20
-5.03906
 30
0
 10
-4.77111
 20
-5.05465
 30
0
 10
-4.72432
 20
-5.08584
 30
0
  0
SPLINE
  5
AFC
330
A02
100
AcDbEntity
  8
Shape2DView027
100
AcDbSpline
210
0
220
0
230
1
 70
8
 71
3
 72
8
 73
4
 74
0
 40
0
 40
0
 40
0
 40
0
 40
1
 40
1
 40
1
 40
1
 10
-4.72432
 20
-5.08584
 30
0
 10
-4.66194
 20
-5.16381
 30
0
 10
-4.58397
 20
-5.28857
 30
0
 10
-4.58397
 20
-5.42893
 30
0
  0
SPLINE
  5
AFD
330
A02
100
AcDbEntity
  8
Shape2DView027
100
AcDbSpline
210
0
220
0
230
1
 70
8
 71
3
 72
8
 73
4
 74
0
 40
0
 40
0
 40
0
 40
0
 40
1
 40
1
 40
1
 40
1
 10
-4.58397
 20
-5.42893
 30
0
 10
-4.61516
 20
-5.49131
 30
0
 10
-4.64635
 20
-5.58487
 30
0
 10
-4.66194
 20
-5.66285
 30
0
  0
SPLINE
  5
AFE
330
A02
100
AcDbEntity
  8
Shape2DView027
100
AcDbSpline
210
0
220
0
230
1
 70
8
 71
3
 72
8
 73
4
 74
0
 40
0
 40
0
 40
0
 40
0
 40
1
 40
1
 40
1
 40
1
 10
-4.66194
 20
-5.66285
 30
0
 10
-4.73992
 20
-6.64532
 30
0
 10
-4.83349
 20
-8.67265
 30
0
 10
-4.91146
 20
-9.63953
 30
0
  0
SPLINE
  5
AFF
330
A02
100
AcDbEntity
  8
Shape2DView027
100
AcDbSpline
210
0
220
0
230
1
 70
8
 71
3
 72
8
 73
4
 74
0
 40
0
 40
0
 40
0
 40
0
 40
1
 40
1
 40
1
 40
1
 10
-4.91146
 20
-9.63953
 30
0
 10
-4.94265
 20
-9.88905
 30
0
 10
-4.7867
 20
-10.4505
 30
0
 10
-4.39683
 20
-10.5284
 30
0
  0
SPLINE
  5
B00
330
A02
100
AcDbEntity
  8
Shape2DView027
100
AcDbSpline
210
0
220
0
230
1
 70
8
 71
3
 72
8
 73
4
 74
0
 40
0
 40
0
 40
0
 40
0
 40
1
 40
1
 40
1
 40
1
 10
-4.39683
 20
-10.5284
 30
0
 10
-4.33445
 20
-10.544
 30
0
 10
-4.27207
 20
-10.544
 30
0
 10
-4.1941
 20
-10.544
 30
0
  0
SPLINE
  5
B01
330
A02
100
AcDbEntity
  8
Shape2DView027
100
AcDbSpline
210
0
220
0
230
1
 70
8
 71
3
 72
8
 73
4
 74
0
 40
0
 40
0
 40
0
 40
0
 40
1
 40
1
 40
1
 40
1
 10
-4.1941
 20
-10.544
 30
0
 10
-4.13172
 20
-10.544
 30
0
 10
-4.08493
 20
-10.544
 30
0
 10
-4.03815
 20
-10.5284
 30
0
  0
SPLINE
  5
B02
330
A02
100
AcDbEntity
  8
Shape2DView027
100
AcDbSpline
210
0
220
0
230
1
 70
8
 71
3
 72
8
 73
4
 74
0
 40
0
 40
0
 40
0
 40
0
 40
1
 40
1
 40
1
 40
1
 10
-4.03815
 20
-10.5284
 30
0
 10
-3.64828
 20
-10.4505
 30
0
 10
-3.47674
 20
-9.92024
 30
0
 10
-3.49233
 20
-9.65512
 30
0
  0
SPLINE
  5
B03
330
A02
100
AcDbEntity
  8
Shape2DView027
100
AcDbSpline
210
0
220
0
230
1
 70
8
 71
3
 72
8
 73
4
 74
0
 40
0
 40
0
 40
0
 40
0
 40
1
 40
1
 40
1
 40
1
 10
-3.49233
 20
-9.65512
 30
0
 10
-3.53912
 20
-8.67265
 30
0
 10
-3.5859
 20
-6.64532
 30
0
 10
-3.63268
 20
-5.66285
 30
0
  0
SPLINE
  5
B04
330
A02
100
AcDbEntity
  8
Shape2DView027
100
AcDbSpline
210
0
220
0
230
1
 70
8
 71
3
 72
8
 73
4
 74
0
 40
0
 40
0
 40
0
 40
0
 40
1
 40
1
 40
1
 40
1
 10
-3.63268
 20
-5.66285
 30
0
 10
-3.63268
 20
-5.58487
 30
0
 10
-3.66387
 20
-5.49131
 30
0
 10
-3.69506
 20
-5.42893
 30
0
  0
SPLINE
  5
B05
330
A02
100
AcDbEntity
  8
Shape2DView027
100
AcDbSpline
210
0
220
0
230
1
 70
8
 71
3
 72
8
 73
4
 74
0
 40
0
 40
0
 40
0
 40
0
 40
1
 40
1
 40
1
 40
1
 10
-3.69506
 20
-5.42893
 30
0
 10
-3.69506
 20
-5.28857
 30
0
 10
-3.6015
 20
-5.16381
 30
0
 10
-3.53912
 20
-5.10144
 30
0
  0
SPLINE
  5
B06
330
A02
100
AcDbEntity
  8
Shape2DView027
100
AcDbSpline
210
0
220
0
230
1
 70
8
 71
2
 72
6
 73
3
 74
0
 40
0
 40
0
 40
0
 40
1
 40
1
 40
1
 10
-3.53912
 20
-5.10144
 30
0
 10
-3.47284
 20
-5.10144
 30
0
 10
-3.47674
 20
-5.05465
 30
0
  0
SPLINE
  5
B07
330
A02
100
AcDbEntity
  8
Shape2DView027
100
AcDbSpline
210
0
220
0
230
1
 70
8
 71
1
 72
4
 73
2
 74
0
 40
0
 40
0
 40
0.282843
 40
0.282843
 10
-0.841211
 20
-3.80706
 30
0
 10
-0.872401
 20
-3.83825
 30
0
  0
SPLINE
  5
B08
330
A02
100
AcDbEntity
  8
Shape2DView027
100
AcDbSpline
210
0
220
0
230
1
 70
8
 71
1
 72
4
 73
2
 74
0
 40
0
 40
0
 40
0.141421
 40
0.141421
 10
-0.872401
 20
-3.83825
 30
0
 10
-0.887996
 20
-3.85385
 30
0
  0
SPLINE
  5
B09
330
A02
100
AcDbEntity
  8
Shape2DView027
100
AcDbSpline
210
0
220
0
230
1
 70
8
 71
1
 72
4
 73
2
 74
0
 40
0
 40
0
 40
0.141421
 40
0.141421
 10
-0.887996
 20
-3.85385
 30
0
 10
-0.903591
 20
-3.86944
 30
0
  0
SPLINE
  5
B0A
330
A02
100
AcDbEntity
  8
Shape2DView027
100
AcDbSpline
210
0
220
0
230
1
 70
8
 71
1
 72
4
 73
2
 74
0
 40
0
 40
0
 40
0.1
 40
0.1
 10
-0.903591
 20
-3.86944
 30
0
 10
-0.919185
 20
-3.86944
 30
0
  0
SPLINE
  5
B0B
330
A02
100
AcDbEntity
  8
Shape2DView027
100
AcDbSpline
210
0
220
0
230
1
 70
8
 71
1
 72
4
 73
2
 74
0
 40
0
 40
0
 40
0.141421
 40
0.141421
 10
-0.919185
 20
-3.86944
 30
0
 10
-0.93478
 20
-3.88504
 30
0
  0
SPLINE
  5
B0C
330
A02
100
AcDbEntity
  8
Shape2DView027
100
AcDbSpline
210
0
220
0
230
1
 70
8
 71
1
 72
4
 73
2
 74
0
 40
0
 40
0
 40
0.1
 40
0.1
 10
-0.93478
 20
-3.88504
 30
0
 10
-0.950375
 20
-3.88504
 30
0
  0
SPLINE
  5
B0D
330
A02
100
AcDbEntity
  8
Shape2DView027
100
AcDbSpline
210
0
220
0
230
1
 70
8
 71
1
 72
4
 73
2
 74
0
 40
0
 40
0
 40
0.141421
 40
0.141421
 10
-0.950375
 20
-3.88504
 30
0
 10
-0.96597
 20
-3.90063
 30
0
  0
SPLINE
  5
B0E
330
A02
100
AcDbEntity
  8
Shape2DView027
100
AcDbSpline
210
0
220
0
230
1
 70
8
 71
1
 72
4
 73
2
 74
0
 40
0
 40
0
 40
0.141421
 40
0.141421
 10
-0.96597
 20
-3.90063
 30
0
 10
-0.981565
 20
-3.91623
 30
0
  0
SPLINE
  5
B0F
330
A02
100
AcDbEntity
  8
Shape2DView027
100
AcDbSpline
210
0
220
0
230
1
 70
8
 71
1
 72
4
 73
2
 74
0
 40
0
 40
0
 40
0.223607
 40
0.223607
 10
-0.981565
 20
-3.91623
 30
0
 10
-1.01275
 20
-3.93182
 30
0
  0
SPLINE
  5
B10
330
A02
100
AcDbEntity
  8
Shape2DView027
100
AcDbSpline
210
0
220
0
230
1
 70
8
 71
1
 72
4
 73
2
 74
0
 40
0
 40
0
 40
0.223607
 40
0.223607
 10
-1.01275
 20
-3.93182
 30
0
 10
-1.04394
 20
-3.94742
 30
0
  0
SPLINE
  5
B11
330
A02
100
AcDbEntity
  8
Shape2DView027
100
AcDbSpline
210
0
220
0
230
1
 70
8
 71
1
 72
4
 73
2
 74
0
 40
0
 40
0
 40
0.141421
 40
0.141421
 10
-1.04394
 20
-3.94742
 30
0
 10
-1.05954
 20
-3.96301
 30
0
  0
SPLINE
  5
B12
330
A02
100
AcDbEntity
  8
Shape2DView027
100
AcDbSpline
210
0
220
0
230
1
 70
8
 71
1
 72
4
 73
2
 74
0
 40
0
 40
0
 40
0.141421
 40
0.141421
 10
-1.05954
 20
-3.96301
 30
0
 10
-1.07513
 20
-3.97861
 30
0
  0
SPLINE
  5
B13
330
A02
100
AcDbEntity
  8
Shape2DView027
100
AcDbSpline
210
0
220
0
230
1
 70
8
 71
1
 72
4
 73
2
 74
0
 40
0
 40
0
 40
0.223607
 40
0.223607
 10
-1.07513
 20
-3.97861
 30
0
 10
-1.10632
 20
-3.9942
 30
0
  0
SPLINE
  5
B14
330
A02
100
AcDbEntity
  8
Shape2DView027
100
AcDbSpline
210
0
220
0
230
1
 70
8
 71
1
 72
4
 73
2
 74
0
 40
0
 40
0
 40
0.141421
 40
0.141421
 10
-1.10632
 20
-3.9942
 30
0
 10
-1.12192
 20
-4.0098
 30
0
  0
SPLINE
  5
B15
330
A02
100
AcDbEntity
  8
Shape2DView027
100
AcDbSpline
210
0
220
0
230
1
 70
8
 71
1
 72
4
 73
2
 74
0
 40
0
 40
0
 40
0.223607
 40
0.223607
 10
-1.12192
 20
-4.0098
 30
0
 10
-1.15311
 20
-4.02539
 30
0
  0
SPLINE
  5
B16
330
A02
100
AcDbEntity
  8
Shape2DView027
100
AcDbSpline
210
0
220
0
230
1
 70
8
 71
1
 72
4
 73
2
 74
0
 40
0
 40
0
 40
0.223607
 40
0.223607
 10
-1.15311
 20
-4.02539
 30
0
 10
-1.1843
 20
-4.04099
 30
0
  0
SPLINE
  5
B17
330
A02
100
AcDbEntity
  8
Shape2DView027
100
AcDbSpline
210
0
220
0
230
1
 70
8
 71
1
 72
4
 73
2
 74
0
 40
0
 40
0
 40
0.141421
 40
0.141421
 10
-1.1843
 20
-4.04099
 30
0
 10
-1.19989
 20
-4.05658
 30
0
  0
SPLINE
  5
B18
330
A02
100
AcDbEntity
  8
Shape2DView027
100
AcDbSpline
210
0
220
0
230
1
 70
8
 71
1
 72
4
 73
2
 74
0
 40
0
 40
0
 40
0.1
 40
0.1
 10
-1.19989
 20
-4.05658
 30
0
 10
-1.21549
 20
-4.05658
 30
0
  0
SPLINE
  5
B19
330
A02
100
AcDbEntity
  8
Shape2DView027
100
AcDbSpline
210
0
220
0
230
1
 70
8
 71
1
 72
4
 73
2
 74
0
 40
0
 40
0
 40
0.1
 40
0.1
 10
-1.21549
 20
-4.05658
 30
0
 10
-1.23108
 20
-4.05658
 30
0
  0
SPLINE
  5
B1A
330
A02
100
AcDbEntity
  8
Shape2DView027
100
AcDbSpline
210
0
220
0
230
1
 70
8
 71
1
 72
4
 73
2
 74
0
 40
0
 40
0
 40
2.30868
 40
2.30868
 10
-1.23108
 20
-4.05658
 30
0
 10
-1.57417
 20
-4.16575
 30
0
  0
SPLINE
  5
B1B
330
A02
100
AcDbEntity
  8
Shape2DView027
100
AcDbSpline
210
0
220
0
230
1
 70
8
 71
1
 72
4
 73
2
 74
0
 40
0
 40
0
 40
0.2
 40
0.2
 10
-1.57417
 20
-4.16575
 30
0
 10
-1.60536
 20
-4.16575
 30
0
  0
SPLINE
  5
B1C
330
A02
100
AcDbEntity
  8
Shape2DView027
100
AcDbSpline
210
0
220
0
230
1
 70
8
 71
1
 72
4
 73
2
 74
0
 40
0
 40
0
 40
0.223607
 40
0.223607
 10
-1.60536
 20
-4.16575
 30
0
 10
-1.63655
 20
-4.18134
 30
0
  0
SPLINE
  5
B1D
330
A02
100
AcDbEntity
  8
Shape2DView027
100
AcDbSpline
210
0
220
0
230
1
 70
8
 71
1
 72
4
 73
2
 74
0
 40
0
 40
0
 40
0.141421
 40
0.141421
 10
-1.63655
 20
-4.18134
 30
0
 10
-1.65214
 20
-4.19694
 30
0
  0
SPLINE
  5
B1E
330
A02
100
AcDbEntity
  8
Shape2DView027
100
AcDbSpline
210
0
220
0
230
1
 70
8
 71
1
 72
4
 73
2
 74
0
 40
0
 40
0
 40
0.1
 40
0.1
 10
-1.65214
 20
-4.19694
 30
0
 10
-1.66774
 20
-4.19694
 30
0
  0
SPLINE
  5
B1F
330
A02
100
AcDbEntity
  8
Shape2DView027
100
AcDbSpline
210
0
220
0
230
1
 70
8
 71
1
 72
4
 73
2
 74
0
 40
0
 40
0
 40
0.1
 40
0.1
 10
-1.66774
 20
-4.19694
 30
0
 10
-1.68333
 20
-4.19694
 30
0
  0
SPLINE
  5
B20
330
A02
100
AcDbEntity
  8
Shape2DView027
100
AcDbSpline
210
0
220
0
230
1
 70
8
 71
1
 72
4
 73
2
 74
0
 40
0
 40
0
 40
0.1
 40
0.1
 10
-1.68333
 20
-4.19694
 30
0
 10
-1.69893
 20
-4.19694
 30
0
  0
SPLINE
  5
B21
330
A02
100
AcDbEntity
  8
Shape2DView027
100
AcDbSpline
210
0
220
0
230
1
 70
8
 71
1
 72
4
 73
2
 74
0
 40
0
 40
0
 40
0.1
 40
0.1
 10
-1.69893
 20
-4.19694
 30
0
 10
-1.71452
 20
-4.19694
 30
0
  0
SPLINE
  5
B22
330
A02
100
AcDbEntity
  8
Shape2DView027
100
AcDbSpline
210
0
220
0
230
1
 70
8
 71
1
 72
4
 73
2
 74
0
 40
0
 40
0
 40
0.1
 40
0.1
 10
-1.71452
 20
-4.19694
 30
0
 10
-1.71452
 20
-4.21253
 30
0
  0
SPLINE
  5
B23
330
A02
100
AcDbEntity
  8
Shape2DView027
100
AcDbSpline
210
0
220
0
230
1
 70
8
 71
1
 72
4
 73
2
 74
0
 40
0
 40
0
 40
0.1
 40
0.1
 10
-1.71452
 20
-4.21253
 30
0
 10
-1.71452
 20
-4.22813
 30
0
  0
SPLINE
  5
B24
330
A02
100
AcDbEntity
  8
Shape2DView027
100
AcDbSpline
210
0
220
0
230
1
 70
8
 71
1
 72
4
 73
2
 74
0
 40
0
 40
0
 40
0.141421
 40
0.141421
 10
-1.71452
 20
-4.22813
 30
0
 10
-1.73012
 20
-4.24372
 30
0
  0
SPLINE
  5
B25
330
A02
100
AcDbEntity
  8
Shape2DView027
100
AcDbSpline
210
0
220
0
230
1
 70
8
 71
1
 72
4
 73
2
 74
0
 40
0
 40
0
 40
0.1
 40
0.1
 10
-1.73012
 20
-4.24372
 30
0
 10
-1.73012
 20
-4.25931
 30
0
  0
SPLINE
  5
B26
330
A02
100
AcDbEntity
  8
Shape2DView027
100
AcDbSpline
210
0
220
0
230
1
 70
8
 71
1
 72
4
 73
2
 74
0
 40
0
 40
0
 40
0.1
 40
0.1
 10
-1.73012
 20
-4.25931
 30
0
 10
-1.73012
 20
-4.27491
 30
0
  0
SPLINE
  5
B27
330
A02
100
AcDbEntity
  8
Shape2DView027
100
AcDbSpline
210
0
220
0
230
1
 70
8
 71
1
 72
4
 73
2
 74
0
 40
0
 40
0
 40
0.1
 40
0.1
 10
-1.73012
 20
-4.27491
 30
0
 10
-1.73012
 20
-4.2905
 30
0
  0
SPLINE
  5
B28
330
A02
100
AcDbEntity
  8
Shape2DView027
100
AcDbSpline
210
0
220
0
230
1
 70
8
 71
1
 72
4
 73
2
 74
0
 40
0
 40
0
 40
0.1
 40
0.1
 10
-1.73012
 20
-4.2905
 30
0
 10
-1.73012
 20
-4.3061
 30
0
  0
SPLINE
  5
B29
330
A02
100
AcDbEntity
  8
Shape2DView027
100
AcDbSpline
210
0
220
0
230
1
 70
8
 71
1
 72
4
 73
2
 74
0
 40
0
 40
0
 40
0.1
 40
0.1
 10
-1.73012
 20
-4.3061
 30
0
 10
-1.73012
 20
-4.32169
 30
0
  0
SPLINE
  5
B2A
330
A02
100
AcDbEntity
  8
Shape2DView027
100
AcDbSpline
210
0
220
0
230
1
 70
8
 71
1
 72
4
 73
2
 74
0
 40
0
 40
0
 40
0.2
 40
0.2
 10
-1.73012
 20
-4.32169
 30
0
 10
-1.73012
 20
-4.35288
 30
0
  0
SPLINE
  5
B2B
330
A02
100
AcDbEntity
  8
Shape2DView027
100
AcDbSpline
210
0
220
0
230
1
 70
8
 71
1
 72
4
 73
2
 74
0
 40
0
 40
0
 40
0.223607
 40
0.223607
 10
-1.73012
 20
-4.35288
 30
0
 10
-1.71452
 20
-4.38407
 30
0
  0
SPLINE
  5
B2C
330
A02
100
AcDbEntity
  8
Shape2DView027
100
AcDbSpline
210
0
220
0
230
1
 70
8
 71
1
 72
4
 73
2
 74
0
 40
0
 40
0
 40
0.223607
 40
0.223607
 10
-1.71452
 20
-4.38407
 30
0
 10
-1.69893
 20
-4.41526
 30
0
  0
SPLINE
  5
B2D
330
A02
100
AcDbEntity
  8
Shape2DView027
100
AcDbSpline
210
0
220
0
230
1
 70
8
 71
1
 72
4
 73
2
 74
0
 40
0
 40
0
 40
0.223607
 40
0.223607
 10
-1.69893
 20
-4.41526
 30
0
 10
-1.68333
 20
-4.44645
 30
0
  0
SPLINE
  5
B2E
330
A02
100
AcDbEntity
  8
Shape2DView027
100
AcDbSpline
210
0
220
0
230
1
 70
8
 71
1
 72
4
 73
2
 74
0
 40
0
 40
0
 40
0.141421
 40
0.141421
 10
-1.68333
 20
-4.44645
 30
0
 10
-1.66774
 20
-4.46205
 30
0
  0
SPLINE
  5
B2F
330
A02
100
AcDbEntity
  8
Shape2DView027
100
AcDbSpline
210
0
220
0
230
1
 70
8
 71
1
 72
4
 73
2
 74
0
 40
0
 40
0
 40
0.141421
 40
0.141421
 10
-1.66774
 20
-4.46205
 30
0
 10
-1.65214
 20
-4.47764
 30
0
  0
SPLINE
  5
B30
330
A02
100
AcDbEntity
  8
Shape2DView027
100
AcDbSpline
210
0
220
0
230
1
 70
8
 71
1
 72
4
 73
2
 74
0
 40
0
 40
0
 40
0.848528
 40
0.848528
 10
-1.65214
 20
-4.47764
 30
0
 10
-1.55857
 20
-4.57121
 30
0
  0
SPLINE
  5
B31
330
A02
100
AcDbEntity
  8
Shape2DView027
100
AcDbSpline
210
0
220
0
230
1
 70
8
 71
1
 72
4
 73
2
 74
0
 40
0
 40
0
 40
0.848528
 40
0.848528
 10
-1.55857
 20
-4.57121
 30
0
 10
-1.465
 20
-4.66478
 30
0
  0
SPLINE
  5
B32
330
A02
100
AcDbEntity
  8
Shape2DView027
100
AcDbSpline
210
0
220
0
230
1
 70
8
 71
1
 72
4
 73
2
 74
0
 40
0
 40
0
 40
0.848528
 40
0.848528
 10
-1.465
 20
-4.66478
 30
0
 10
-1.37144
 20
-4.75835
 30
0
  0
SPLINE
  5
B33
330
A02
100
AcDbEntity
  8
Shape2DView027
100
AcDbSpline
210
0
220
0
230
1
 70
8
 71
1
 72
4
 73
2
 74
0
 40
0
 40
0
 40
0.848528
 40
0.848528
 10
-1.37144
 20
-4.75835
 30
0
 10
-1.27787
 20
-4.85192
 30
0
  0
SPLINE
  5
B34
330
A02
100
AcDbEntity
  8
Shape2DView027
100
AcDbSpline
210
0
220
0
230
1
 70
8
 71
1
 72
4
 73
2
 74
0
 40
0
 40
0
 40
0.848528
 40
0.848528
 10
-1.27787
 20
-4.85192
 30
0
 10
-1.1843
 20
-4.94549
 30
0
  0
SPLINE
  5
B35
330
A02
100
AcDbEntity
  8
Shape2DView027
100
AcDbSpline
210
0
220
0
230
1
 70
8
 71
1
 72
4
 73
2
 74
0
 40
0
 40
0
 40
0.424264
 40
0.424264
 10
-1.1843
 20
-4.94549
 30
0
 10
-1.13751
 20
-4.99227
 30
0
  0
SPLINE
  5
B36
330
A02
100
AcDbEntity
  8
Shape2DView027
100
AcDbSpline
210
0
220
0
230
1
 70
8
 71
1
 72
4
 73
2
 74
0
 40
0
 40
0
 40
0.424264
 40
0.424264
 10
-1.13751
 20
-4.99227
 30
0
 10
-1.09073
 20
-5.03906
 30
0
  0
SPLINE
  5
B37
330
A02
100
AcDbEntity
  8
Shape2DView027
100
AcDbSpline
210
0
220
0
230
1
 70
8
 71
1
 72
4
 73
2
 74
0
 40
0
 40
0
 40
0.921954
 40
0.921954
 10
-1.09073
 20
-5.03906
 30
0
 10
-0.981565
 20
-5.13262
 30
0
  0
SPLINE
  5
B38
330
A02
100
AcDbEntity
  8
Shape2DView027
100
AcDbSpline
210
0
220
0
230
1
 70
8
 71
1
 72
4
 73
2
 74
0
 40
0
 40
0
 40
0.921954
 40
0.921954
 10
-0.981565
 20
-5.13262
 30
0
 10
-0.872401
 20
-5.22619
 30
0
  0
SPLINE
  5
B39
330
A02
100
AcDbEntity
  8
Shape2DView027
100
AcDbSpline
210
0
220
0
230
1
 70
8
 71
1
 72
4
 73
2
 74
0
 40
0
 40
0
 40
0.948683
 40
0.948683
 10
-0.872401
 20
-5.22619
 30
0
 10
-0.732048
 20
-5.17941
 30
0
  0
SPLINE
  5
B3A
330
A02
100
AcDbEntity
  8
Shape2DView027
100
AcDbSpline
210
0
220
0
230
1
 70
8
 71
1
 72
4
 73
2
 74
0
 40
0
 40
0
 40
0.583095
 40
0.583095
 10
-0.732048
 20
-5.17941
 30
0
 10
-0.685263
 20
-5.10144
 30
0
  0
SPLINE
  5
B3B
330
A02
100
AcDbEntity
  8
Shape2DView027
100
AcDbSpline
210
0
220
0
230
1
 70
8
 71
1
 72
4
 73
2
 74
0
 40
0
 40
0
 40
0.583095
 40
0.583095
 10
-0.685263
 20
-5.10144
 30
0
 10
-0.638479
 20
-5.02346
 30
0
  0
SPLINE
  5
B3C
330
A02
100
AcDbEntity
  8
Shape2DView027
100
AcDbSpline
210
0
220
0
230
1
 70
8
 71
1
 72
4
 73
2
 74
0
 40
0
 40
0
 40
0.5
 40
0.5
 10
-0.638479
 20
-5.02346
 30
0
 10
-0.591694
 20
-4.96108
 30
0
  0
SPLINE
  5
B3D
330
A02
100
AcDbEntity
  8
Shape2DView027
100
AcDbSpline
210
0
220
0
230
1
 70
8
 71
1
 72
4
 73
2
 74
0
 40
0
 40
0
 40
0.5
 40
0.5
 10
-0.591694
 20
-4.96108
 30
0
 10
-0.54491
 20
-4.8987
 30
0
  0
SPLINE
  5
B3E
330
A02
100
AcDbEntity
  8
Shape2DView027
100
AcDbSpline
210
0
220
0
230
1
 70
8
 71
1
 72
4
 73
2
 74
0
 40
0
 40
0
 40
0.360555
 40
0.360555
 10
-0.54491
 20
-4.8987
 30
0
 10
-0.51372
 20
-4.85192
 30
0
  0
SPLINE
  5
B3F
330
A02
100
AcDbEntity
  8
Shape2DView027
100
AcDbSpline
210
0
220
0
230
1
 70
8
 71
1
 72
4
 73
2
 74
0
 40
0
 40
0
 40
0.282843
 40
0.282843
 10
-0.51372
 20
-4.85192
 30
0
 10
-0.48253
 20
-4.82073
 30
0
  0
SPLINE
  5
B40
330
A02
100
AcDbEntity
  8
Shape2DView027
100
AcDbSpline
210
0
220
0
230
1
 70
8
 71
1
 72
4
 73
2
 74
0
 40
0
 40
0
 40
0.282843
 40
0.282843
 10
-0.48253
 20
-4.82073
 30
0
 10
-0.451341
 20
-4.78954
 30
0
  0
SPLINE
  5
B41
330
A02
100
AcDbEntity
  8
Shape2DView027
100
AcDbSpline
210
0
220
0
230
1
 70
8
 71
1
 72
4
 73
2
 74
0
 40
0
 40
0
 40
0.282843
 40
0.282843
 10
-0.451341
 20
-4.78954
 30
0
 10
-0.420151
 20
-4.75835
 30
0
  0
SPLINE
  5
B42
330
A02
100
AcDbEntity
  8
Shape2DView027
100
AcDbSpline
210
0
220
0
230
1
 70
8
 71
1
 72
4
 73
2
 74
0
 40
0
 40
0
 40
1.48661
 40
1.48661
 10
-0.420151
 20
-4.75835
 30
0
 10
-0.248608
 20
-4.6024
 30
0
  0
SPLINE
  5
B43
330
A02
100
AcDbEntity
  8
Shape2DView027
100
AcDbSpline
210
0
220
0
230
1
 70
8
 71
1
 72
4
 73
2
 74
0
 40
0
 40
0
 40
0.5
 40
0.5
 10
-0.248608
 20
-4.6024
 30
0
 10
-0.186229
 20
-4.55562
 30
0
  0
SPLINE
  5
B44
330
A02
100
AcDbEntity
  8
Shape2DView027
100
AcDbSpline
210
0
220
0
230
1
 70
8
 71
1
 72
4
 73
2
 74
0
 40
0
 40
0
 40
0.781025
 40
0.781025
 10
-0.186229
 20
-4.55562
 30
0
 10
-0.0926597
 20
-4.47764
 30
0
  0
SPLINE
  5
B45
330
A02
100
AcDbEntity
  8
Shape2DView027
100
AcDbSpline
210
0
220
0
230
1
 70
8
 71
3
 72
8
 73
4
 74
0
 40
0
 40
0
 40
0
 40
0
 40
1
 40
1
 40
1
 40
1
 10
-0.0926597
 20
-4.47764
 30
0
 10
-0.0926597
 20
-4.46205
 30
0
 10
-0.0926597
 20
-4.43086
 30
0
 10
-0.0926597
 20
-4.41526
 30
0
  0
SPLINE
  5
B46
330
A02
100
AcDbEntity
  8
Shape2DView027
100
AcDbSpline
210
0
220
0
230
1
 70
8
 71
3
 72
8
 73
4
 74
0
 40
0
 40
0
 40
0
 40
0
 40
1
 40
1
 40
1
 40
1
 10
-0.0926597
 20
-4.41526
 30
0
 10
-0.279798
 20
-4.32169
 30
0
 10
-0.51372
 20
-4.10337
 30
0
 10
-0.841211
 20
-3.80706
 30
0
  0
SPLINE
  5
B47
330
A02
100
AcDbEntity
  8
Shape2DView027
100
AcDbSpline
210
0
220
0
230
1
 70
8
 71
3
 72
8
 73
4
 74
0
 40
0
 40
0
 40
0
 40
0
 40
1
 40
1
 40
1
 40
1
 10
1.8411
 20
-3.79147
 30
0
 10
1.45123
 20
-3.44838
 30
0
 10
1.09255
 20
-3.51076
 30
0
 10
0.874219
 20
-3.49517
 30
0
  0
SPLINE
  5
B48
330
A02
100
AcDbEntity
  8
Shape2DView027
100
AcDbSpline
210
0
220
0
230
1
 70
8
 71
3
 72
8
 73
4
 74
0
 40
0
 40
0
 40
0
 40
0
 40
1
 40
1
 40
1
 40
1
 10
0.874219
 20
-3.49517
 30
0
 10
0.499944
 20
-3.37041
 30
0
 10
-2.11999
 20
-1.06238
 30
0
 10
-3.72625
 20
0.419133
 30
0
  0
SPLINE
  5
B49
330
A02
100
AcDbEntity
  8
Shape2DView027
100
AcDbSpline
210
0
220
0
230
1
 70
8
 71
1
 72
4
 73
2
 74
0
 40
0
 40
0
 40
8
 40
8
 10
-3.72625
 20
0.419133
 30
0
 10
-3.72625
 20
-0.828453
 30
0
  0
SPLINE
  5
B4A
330
A02
100
AcDbEntity
  8
Shape2DView027
100
AcDbSpline
210
0
220
0
230
1
 70
8
 71
3
 72
8
 73
4
 74
0
 40
0
 40
0
 40
0
 40
0
 40
1
 40
1
 40
1
 40
1
 10
-3.72625
 20
-0.828453
 30
0
 10
-2.02642
 20
-2.30996
 30
0
 10
0.125668
 20
-4.19694
 30
0
 10
0.141263
 20
-4.25931
 30
0
  0
SPLINE
  5
B4B
330
A02
100
AcDbEntity
  8
Shape2DView027
100
AcDbSpline
210
0
220
0
230
1
 70
8
 71
3
 72
8
 73
4
 74
0
 40
0
 40
0
 40
0
 40
0
 40
1
 40
1
 40
1
 40
1
 10
0.141263
 20
-4.25931
 30
0
 10
0.156858
 20
-4.36848
 30
0
 10
0.188047
 20
-4.94549
 30
0
 10
0.484349
 20
-5.24179
 30
0
  0
SPLINE
  5
B4C
330
A02
100
AcDbEntity
  8
Shape2DView027
100
AcDbSpline
210
0
220
0
230
1
 70
8
 71
3
 72
8
 73
4
 74
0
 40
0
 40
0
 40
0
 40
0
 40
1
 40
1
 40
1
 40
1
 10
0.484349
 20
-5.24179
 30
0
 10
0.702676
 20
-5.46012
 30
0
 10
0.905409
 20
-5.5225
 30
0
 10
1.06136
 20
-5.5225
 30
0
  0
SPLINE
  5
B4D
330
A02
100
AcDbEntity
  8
Shape2DView027
100
AcDbSpline
210
0
220
0
230
1
 70
8
 71
2
 72
6
 73
3
 74
0
 40
0
 40
0
 40
0
 40
1
 40
1
 40
1
 10
1.06136
 20
-5.5225
 30
0
 10
1.15493
 20
-5.5186
 30
0
 10
1.2485
 20
-5.49131
 30
0
  0
SPLINE
  5
B4E
330
A02
100
AcDbEntity
  8
Shape2DView027
100
AcDbSpline
210
0
220
0
230
1
 70
8
 71
3
 72
8
 73
4
 74
0
 40
0
 40
0
 40
0
 40
0
 40
1
 40
1
 40
1
 40
1
 10
1.2485
 20
-5.49131
 30
0
 10
1.43563
 20
-5.47571
 30
0
 10
1.56039
 20
-5.39774
 30
0
 10
1.56039
 20
-5.39774
 30
0
  0
SPLINE
  5
B4F
330
A02
100
AcDbEntity
  8
Shape2DView027
100
AcDbSpline
210
0
220
0
230
1
 70
8
 71
1
 72
4
 73
2
 74
0
 40
0
 40
0
 40
4.59674
 40
4.59674
 10
1.56039
 20
-5.39774
 30
0
 10
1.04576
 20
-4.8987
 30
0
  0
SPLINE
  5
B50
330
A02
100
AcDbEntity
  8
Shape2DView027
100
AcDbSpline
210
0
220
0
230
1
 70
8
 71
3
 72
8
 73
4
 74
0
 40
0
 40
0
 40
0
 40
0
 40
1
 40
1
 40
1
 40
1
 10
1.04576
 20
-4.8987
 30
0
 10
1.04576
 20
-4.85192
 30
0
 10
1.06136
 20
-4.41526
 30
0
 10
1.46682
 20
-4.27491
 30
0
  0
SPLINE
  5
B51
330
A02
100
AcDbEntity
  8
Shape2DView027
100
AcDbSpline
210
0
220
0
230
1
 70
8
 71
1
 72
4
 73
2
 74
0
 40
0
 40
0
 40
4.60109
 40
4.60109
 10
1.46682
 20
-4.27491
 30
0
 10
1.99705
 20
-4.75835
 30
0
  0
SPLINE
  5
B52
330
A02
100
AcDbEntity
  8
Shape2DView027
100
AcDbSpline
210
0
220
0
230
1
 70
8
 71
1
 72
4
 73
2
 74
0
 40
0
 40
0
 40
1.20416
 40
1.20416
 10
1.99705
 20
-4.75835
 30
0
 10
2.18418
 20
-4.74275
 30
0
  0
SPLINE
  5
B53
330
A02
100
AcDbEntity
  8
Shape2DView027
100
AcDbSpline
210
0
220
0
230
1
 70
8
 71
3
 72
8
 73
4
 74
0
 40
0
 40
0
 40
0
 40
0
 40
1
 40
1
 40
1
 40
1
 10
2.18418
 20
-4.74275
 30
0
 10
2.16859
 20
-4.75835
 30
0
 10
2.30894
 20
-4.22813
 30
0
 10
1.8411
 20
-3.79147
 30
0
  0
SPLINE
  5
B54
330
A02
100
AcDbEntity
  8
Shape2DView027
100
AcDbSpline
210
0
220
0
230
1
 70
8
 71
1
 72
4
 73
2
 74
0
 40
0
 40
0
 40
43.6
 40
43.6
 10
5.11601
 20
-7.6278
 30
0
 10
5.11601
 20
-0.828453
 30
0
  0
SPLINE
  5
B55
330
A02
100
AcDbEntity
  8
Shape2DView027
100
AcDbSpline
210
0
220
0
230
1
 70
8
 71
3
 72
8
 73
4
 74
0
 40
0
 40
0
 40
0
 40
0
 40
1
 40
1
 40
1
 40
1
 10
5.11601
 20
-0.828453
 30
0
 10
5.47469
 20
-0.610126
 30
0
 10
5.70862
 20
-0.20466
 30
0
 10
5.70862
 20
0.24759
 30
0
  0
SPLINE
  5
B56
330
A02
100
AcDbEntity
  8
Shape2DView027
100
AcDbSpline
210
0
220
0
230
1
 70
8
 71
2
 72
6
 73
3
 74
0
 40
0
 40
0
 40
0
 40
1
 40
1
 40
1
 10
5.70862
 20
0.24759
 30
0
 10
5.70862
 20
0.411335
 30
0
 10
5.66183
 20
0.575081
 30
0
  0
SPLINE
  5
B57
330
A02
100
AcDbEntity
  8
Shape2DView027
100
AcDbSpline
210
0
220
0
230
1
 70
8
 71
1
 72
4
 73
2
 74
0
 40
0
 40
0
 40
0.424264
 40
0.424264
 10
5.66183
 20
0.575081
 30
0
 10
5.61505
 20
0.528297
 30
0
  0
SPLINE
  5
B58
330
A02
100
AcDbEntity
  8
Shape2DView027
100
AcDbSpline
210
0
220
0
230
1
 70
8
 71
1
 72
4
 73
2
 74
0
 40
0
 40
0
 40
1.28062
 40
1.28062
 10
5.61505
 20
0.528297
 30
0
 10
5.4591
 20
0.403538
 30
0
  0
SPLINE
  5
B59
330
A02
100
AcDbEntity
  8
Shape2DView027
100
AcDbSpline
210
0
220
0
230
1
 70
8
 71
1
 72
4
 73
2
 74
0
 40
0
 40
0
 40
1.28062
 40
1.28062
 10
5.4591
 20
0.403538
 30
0
 10
5.30315
 20
0.278779
 30
0
  0
SPLINE
  5
B5A
330
A02
100
AcDbEntity
  8
Shape2DView027
100
AcDbSpline
210
0
220
0
230
1
 70
8
 71
1
 72
4
 73
2
 74
0
 40
0
 40
0
 40
1.28062
 40
1.28062
 10
5.30315
 20
0.278779
 30
0
 10
5.1472
 20
0.154021
 30
0
  0
SPLINE
  5
B5B
330
A02
100
AcDbEntity
  8
Shape2DView027
100
AcDbSpline
210
0
220
0
230
1
 70
8
 71
1
 72
4
 73
2
 74
0
 40
0
 40
0
 40
0.640312
 40
0.640312
 10
5.1472
 20
0.154021
 30
0
 10
5.06923
 20
0.0916415
 30
0
  0
SPLINE
  5
B5C
330
A02
100
AcDbEntity
  8
Shape2DView027
100
AcDbSpline
210
0
220
0
230
1
 70
8
 71
1
 72
4
 73
2
 74
0
 40
0
 40
0
 40
0.7
 40
0.7
 10
5.06923
 20
0.0916415
 30
0
 10
5.06923
 20
-0.0175223
 30
0
  0
SPLINE
  5
B5D
330
A02
100
AcDbEntity
  8
Shape2DView027
100
AcDbSpline
210
0
220
0
230
1
 70
8
 71
1
 72
4
 73
2
 74
0
 40
0
 40
0
 40
3.11127
 40
3.11127
 10
5.06923
 20
-0.0175223
 30
0
 10
4.72614
 20
-0.360608
 30
0
  0
SPLINE
  5
B5E
330
A02
100
AcDbEntity
  8
Shape2DView027
100
AcDbSpline
210
0
220
0
230
1
 70
8
 71
1
 72
4
 73
2
 74
0
 40
0
 40
0
 40
1.1
 40
1.1
 10
4.72614
 20
-0.360608
 30
0
 10
4.5546
 20
-0.360608
 30
0
  0
SPLINE
  5
B5F
330
A02
100
AcDbEntity
  8
Shape2DView027
100
AcDbSpline
210
0
220
0
230
1
 70
8
 71
1
 72
4
 73
2
 74
0
 40
0
 40
0
 40
2
 40
2
 10
4.5546
 20
-0.360608
 30
0
 10
4.2427
 20
-0.360608
 30
0
  0
SPLINE
  5
B60
330
A02
100
AcDbEntity
  8
Shape2DView027
100
AcDbSpline
210
0
220
0
230
1
 70
8
 71
1
 72
4
 73
2
 74
0
 40
0
 40
0
 40
0.2
 40
0.2
 10
4.2427
 20
-0.360608
 30
0
 10
4.21151
 20
-0.360608
 30
0
  0
SPLINE
  5
B61
330
A02
100
AcDbEntity
  8
Shape2DView027
100
AcDbSpline
210
0
220
0
230
1
 70
8
 71
1
 72
4
 73
2
 74
0
 40
0
 40
0
 40
3.33017
 40
3.33017
 10
4.21151
 20
-0.360608
 30
0
 10
3.82164
 20
-0.0175223
 30
0
  0
SPLINE
  5
B62
330
A02
100
AcDbEntity
  8
Shape2DView027
100
AcDbSpline
210
0
220
0
230
1
 70
8
 71
1
 72
4
 73
2
 74
0
 40
0
 40
0
 40
1.5
 40
1.5
 10
3.82164
 20
-0.0175223
 30
0
 10
3.82164
 20
0.2164
 30
0
  0
SPLINE
  5
B63
330
A02
100
AcDbEntity
  8
Shape2DView027
100
AcDbSpline
210
0
220
0
230
1
 70
8
 71
1
 72
4
 73
2
 74
0
 40
0
 40
0
 40
1.8
 40
1.8
 10
3.82164
 20
0.2164
 30
0
 10
3.82164
 20
0.497107
 30
0
  0
SPLINE
  5
B64
330
A02
100
AcDbEntity
  8
Shape2DView027
100
AcDbSpline
210
0
220
0
230
1
 70
8
 71
1
 72
4
 73
2
 74
0
 40
0
 40
0
 40
0.1
 40
0.1
 10
3.82164
 20
0.497107
 30
0
 10
3.82164
 20
0.512702
 30
0
  0
SPLINE
  5
B65
330
A02
100
AcDbEntity
  8
Shape2DView027
100
AcDbSpline
210
0
220
0
230
1
 70
8
 71
1
 72
4
 73
2
 74
0
 40
0
 40
0
 40
3.60694
 40
3.60694
 10
3.82164
 20
0.512702
 30
0
 10
4.21151
 20
0.918167
 30
0
  0
SPLINE
  5
B66
330
A02
100
AcDbEntity
  8
Shape2DView027
100
AcDbSpline
210
0
220
0
230
1
 70
8
 71
1
 72
4
 73
2
 74
0
 40
0
 40
0
 40
0.5
 40
0.5
 10
4.21151
 20
0.918167
 30
0
 10
4.28949
 20
0.918167
 30
0
  0
SPLINE
  5
B67
330
A02
100
AcDbEntity
  8
Shape2DView027
100
AcDbSpline
210
0
220
0
230
1
 70
8
 71
1
 72
4
 73
2
 74
0
 40
0
 40
0
 40
1.34536
 40
1.34536
 10
4.28949
 20
0.918167
 30
0
 10
4.44543
 20
1.05852
 30
0
  0
SPLINE
  5
B68
330
A02
100
AcDbEntity
  8
Shape2DView027
100
AcDbSpline
210
0
220
0
230
1
 70
8
 71
1
 72
4
 73
2
 74
0
 40
0
 40
0
 40
0.640312
 40
0.640312
 10
4.44543
 20
1.05852
 30
0
 10
4.52341
 20
1.1209
 30
0
  0
SPLINE
  5
B69
330
A02
100
AcDbEntity
  8
Shape2DView027
100
AcDbSpline
210
0
220
0
230
1
 70
8
 71
1
 72
4
 73
2
 74
0
 40
0
 40
0
 40
0.640312
 40
0.640312
 10
4.52341
 20
1.1209
 30
0
 10
4.60138
 20
1.18328
 30
0
  0
SPLINE
  5
B6A
330
A02
100
AcDbEntity
  8
Shape2DView027
100
AcDbSpline
210
0
220
0
230
1
 70
8
 71
1
 72
4
 73
2
 74
0
 40
0
 40
0
 40
0.282843
 40
0.282843
 10
4.60138
 20
1.18328
 30
0
 10
4.63257
 20
1.21447
 30
0
  0
SPLINE
  5
B6B
330
A02
100
AcDbEntity
  8
Shape2DView027
100
AcDbSpline
210
0
220
0
230
1
 70
8
 71
1
 72
4
 73
2
 74
0
 40
0
 40
0
 40
0.282843
 40
0.282843
 10
4.63257
 20
1.21447
 30
0
 10
4.66376
 20
1.24566
 30
0
  0
SPLINE
  5
B6C
330
A02
100
AcDbEntity
  8
Shape2DView027
100
AcDbSpline
210
0
220
0
230
1
 70
8
 71
1
 72
4
 73
2
 74
0
 40
0
 40
0
 40
0.640312
 40
0.640312
 10
4.66376
 20
1.24566
 30
0
 10
4.74174
 20
1.30804
 30
0
  0
SPLINE
  5
B6D
330
A02
100
AcDbEntity
  8
Shape2DView027
100
AcDbSpline
210
0
220
0
230
1
 70
8
 71
1
 72
4
 73
2
 74
0
 40
0
 40
0
 40
0.707107
 40
0.707107
 10
4.74174
 20
1.30804
 30
0
 10
4.81971
 20
1.38601
 30
0
  0
SPLINE
  5
B6E
330
A02
100
AcDbEntity
  8
Shape2DView027
100
AcDbSpline
210
0
220
0
230
1
 70
8
 71
1
 72
4
 73
2
 74
0
 40
0
 40
0
 40
0.565685
 40
0.565685
 10
4.81971
 20
1.38601
 30
0
 10
4.88209
 20
1.44839
 30
0
  0
SPLINE
  5
B6F
330
A02
100
AcDbEntity
  8
Shape2DView027
100
AcDbSpline
210
0
220
0
230
1
 70
8
 71
3
 72
8
 73
4
 74
0
 40
0
 40
0
 40
0
 40
0
 40
1
 40
1
 40
1
 40
1
 10
4.88209
 20
1.44839
 30
0
 10
4.75733
 20
1.49518
 30
0
 10
4.61698
 20
1.51077
 30
0
 10
4.47662
 20
1.51077
 30
0
  0
SPLINE
  5
B70
330
A02
100
AcDbEntity
  8
Shape2DView027
100
AcDbSpline
210
0
220
0
230
1
 70
8
 71
3
 72
8
 73
4
 74
0
 40
0
 40
0
 40
0
 40
0
 40
1
 40
1
 40
1
 40
1
 10
4.47662
 20
1.51077
 30
0
 10
3.77486
 20
1.51077
 30
0
 10
3.21344
 20
0.949357
 30
0
 10
3.21344
 20
0.24759
 30
0
  0
SPLINE
  5
B71
330
A02
100
AcDbEntity
  8
Shape2DView027
100
AcDbSpline
210
0
220
0
230
1
 70
8
 71
2
 72
6
 73
3
 74
0
 40
0
 40
0
 40
0
 40
1
 40
1
 40
1
 10
3.21344
 20
0.24759
 30
0
 10
3.20954
 20
-0.0331171
 30
0
 10
3.32261
 20
-0.267039
 30
0
  0
SPLINE
  5
B72
330
A02
100
AcDbEntity
  8
Shape2DView027
100
AcDbSpline
210
0
220
0
230
1
 70
8
 71
3
 72
8
 73
4
 74
0
 40
0
 40
0
 40
0
 40
0
 40
1
 40
1
 40
1
 40
1
 10
3.32261
 20
-0.267039
 30
0
 10
3.41618
 20
-0.485367
 30
0
 10
3.57212
 20
-0.672505
 30
0
 10
3.77486
 20
-0.812858
 30
0
  0
SPLINE
  5
B73
330
A02
100
AcDbEntity
  8
Shape2DView027
100
AcDbSpline
210
0
220
0
230
1
 70
8
 71
3
 72
8
 73
4
 74
0
 40
0
 40
0
 40
0
 40
0
 40
1
 40
1
 40
1
 40
1
 10
3.77486
 20
-0.812858
 30
0
 10
3.80605
 20
-0.828453
 30
0
 10
3.82164
 20
-0.844048
 30
0
 10
3.85283
 20
-0.859643
 30
0
  0
SPLINE
  5
B74
330
A02
100
AcDbEntity
  8
Shape2DView027
100
AcDbSpline
210
0
220
0
230
1
 70
8
 71
1
 72
4
 73
2
 74
0
 40
0
 40
0
 40
43.4
 40
43.4
 10
3.85283
 20
-0.859643
 30
0
 10
3.85283
 20
-7.6278
 30
0
  0
SPLINE
  5
B75
330
A02
100
AcDbEntity
  8
Shape2DView027
100
AcDbSpline
210
0
220
0
230
1
 70
8
 71
3
 72
8
 73
4
 74
0
 40
0
 40
0
 40
0
 40
0
 40
1
 40
1
 40
1
 40
1
 10
3.85283
 20
-7.6278
 30
0
 10
3.32261
 20
-7.86172
 30
0
 10
2.93274
 20
-8.40754
 30
0
 10
2.93274
 20
-9.03133
 30
0
  0
SPLINE
  5
B76
330
A02
100
AcDbEntity
  8
Shape2DView027
100
AcDbSpline
210
0
220
0
230
1
 70
8
 71
3
 72
8
 73
4
 74
0
 40
0
 40
0
 40
0
 40
0
 40
1
 40
1
 40
1
 40
1
 10
2.93274
 20
-9.03133
 30
0
 10
2.93274
 20
-9.51477
 30
0
 10
3.15106
 20
-9.95143
 30
0
 10
3.50974
 20
-10.2321
 30
0
  0
SPLINE
  5
B77
330
A02
100
AcDbEntity
  8
Shape2DView027
100
AcDbSpline
210
0
220
0
230
1
 70
8
 71
1
 72
4
 73
2
 74
0
 40
0
 40
0
 40
0.9
 40
0.9
 10
3.50974
 20
-10.2321
 30
0
 10
3.6501
 20
-10.2321
 30
0
  0
SPLINE
  5
B78
330
A02
100
AcDbEntity
  8
Shape2DView027
100
AcDbSpline
210
0
220
0
230
1
 70
8
 71
1
 72
4
 73
2
 74
0
 40
0
 40
0
 40
6.2
 40
6.2
 10
3.6501
 20
-10.2321
 30
0
 10
3.6501
 20
-9.26525
 30
0
  0
SPLINE
  5
B79
330
A02
100
AcDbEntity
  8
Shape2DView027
100
AcDbSpline
210
0
220
0
230
1
 70
8
 71
1
 72
4
 73
2
 74
0
 40
0
 40
0
 40
6.7624
 40
6.7624
 10
3.6501
 20
-9.26525
 30
0
 10
4.47662
 20
-8.61027
 30
0
  0
SPLINE
  5
B7A
330
A02
100
AcDbEntity
  8
Shape2DView027
100
AcDbSpline
210
0
220
0
230
1
 70
8
 71
1
 72
4
 73
2
 74
0
 40
0
 40
0
 40
6.84105
 40
6.84105
 10
4.47662
 20
-8.61027
 30
0
 10
5.31874
 20
-9.26525
 30
0
  0
SPLINE
  5
B7B
330
A02
100
AcDbEntity
  8
Shape2DView027
100
AcDbSpline
210
0
220
0
230
1
 70
8
 71
1
 72
4
 73
2
 74
0
 40
0
 40
0
 40
6.2
 40
6.2
 10
5.31874
 20
-9.26525
 30
0
 10
5.31874
 20
-10.2321
 30
0
  0
SPLINE
  5
B7C
330
A02
100
AcDbEntity
  8
Shape2DView027
100
AcDbSpline
210
0
220
0
230
1
 70
8
 71
1
 72
4
 73
2
 74
0
 40
0
 40
0
 40
0.8
 40
0.8
 10
5.31874
 20
-10.2321
 30
0
 10
5.4435
 20
-10.2321
 30
0
  0
SPLINE
  5
B7D
330
A02
100
AcDbEntity
  8
Shape2DView027
100
AcDbSpline
210
0
220
0
230
1
 70
8
 71
1
 72
4
 73
2
 74
0
 40
0
 40
0
 40
0.1
 40
0.1
 10
5.4435
 20
-10.2321
 30
0
 10
5.4591
 20
-10.2321
 30
0
  0
SPLINE
  5
B7E
330
A02
100
AcDbEntity
  8
Shape2DView027
100
AcDbSpline
210
0
220
0
230
1
 70
8
 71
3
 72
8
 73
4
 74
0
 40
0
 40
0
 40
0
 40
0
 40
1
 40
1
 40
1
 40
1
 10
5.4591
 20
-10.2321
 30
0
 10
5.81778
 20
-9.95143
 30
0
 10
6.03611
 20
-9.51477
 30
0
 10
6.03611
 20
-9.03133
 30
0
  0
SPLINE
  5
B7F
330
A02
100
AcDbEntity
  8
Shape2DView027
100
AcDbSpline
210
0
220
0
230
1
 70
8
 71
3
 72
8
 73
4
 74
0
 40
0
 40
0
 40
0
 40
0
 40
1
 40
1
 40
1
 40
1
 10
6.03611
 20
-9.03133
 30
0
 10
6.02051
 20
-8.40754
 30
0
 10
5.64624
 20
-7.86172
 30
0
 10
5.11601
 20
-7.6278
 30
0
  0
SPLINE
  5
B80
330
A02
100
AcDbEntity
  8
Shape2DView027
100
AcDbSpline
210
0
220
0
230
1
 70
8
 71
1
 72
4
 73
2
 74
0
 40
0
 40
0
 40
1.20416
 40
1.20416
 10
3.15106
 20
-1.34308
 30
0
 10
3.29142
 20
-1.21832
 30
0
  0
SPLINE
  5
B81
330
A02
100
AcDbEntity
  8
Shape2DView027
100
AcDbSpline
210
0
220
0
230
1
 70
8
 71
1
 72
4
 73
2
 74
0
 40
0
 40
0
 40
1.20416
 40
1.20416
 10
3.29142
 20
-1.21832
 30
0
 10
3.43177
 20
-1.09357
 30
0
  0
SPLINE
  5
B82
330
A02
100
AcDbEntity
  8
Shape2DView027
100
AcDbSpline
210
0
220
0
230
1
 70
8
 71
1
 72
4
 73
2
 74
0
 40
0
 40
0
 40
1.20416
 40
1.20416
 10
3.43177
 20
-1.09357
 30
0
 10
3.57212
 20
-0.968807
 30
0
  0
SPLINE
  5
B83
330
A02
100
AcDbEntity
  8
Shape2DView027
100
AcDbSpline
210
0
220
0
230
1
 70
8
 71
1
 72
4
 73
2
 74
0
 40
0
 40
0
 40
0.5
 40
0.5
 10
3.57212
 20
-0.968807
 30
0
 10
3.6345
 20
-0.922022
 30
0
  0
SPLINE
  5
B84
330
A02
100
AcDbEntity
  8
Shape2DView027
100
AcDbSpline
210
0
220
0
230
1
 70
8
 71
3
 72
8
 73
4
 74
0
 40
0
 40
0
 40
0
 40
0
 40
1
 40
1
 40
1
 40
1
 10
3.6345
 20
-0.922022
 30
0
 10
3.43177
 20
-0.781669
 30
0
 10
3.27582
 20
-0.610126
 30
0
 10
3.18225
 20
-0.376203
 30
0
  0
SPLINE
  5
B85
330
A02
100
AcDbEntity
  8
Shape2DView027
100
AcDbSpline
210
0
220
0
230
1
 70
8
 71
1
 72
4
 73
2
 74
0
 40
0
 40
0
 40
0.223607
 40
0.223607
 10
3.18225
 20
-0.376203
 30
0
 10
3.15106
 20
-0.391798
 30
0
  0
SPLINE
  5
B86
330
A02
100
AcDbEntity
  8
Shape2DView027
100
AcDbSpline
210
0
220
0
230
1
 70
8
 71
1
 72
4
 73
2
 74
0
 40
0
 40
0
 40
0.282843
 40
0.282843
 10
3.15106
 20
-0.391798
 30
0
 10
3.11987
 20
-0.422988
 30
0
  0
SPLINE
  5
B87
330
A02
100
AcDbEntity
  8
Shape2DView027
100
AcDbSpline
210
0
220
0
230
1
 70
8
 71
1
 72
4
 73
2
 74
0
 40
0
 40
0
 40
1.28062
 40
1.28062
 10
3.11987
 20
-0.422988
 30
0
 10
2.96393
 20
-0.547746
 30
0
  0
SPLINE
  5
B88
330
A02
100
AcDbEntity
  8
Shape2DView027
100
AcDbSpline
210
0
220
0
230
1
 70
8
 71
1
 72
4
 73
2
 74
0
 40
0
 40
0
 40
1.28062
 40
1.28062
 10
2.96393
 20
-0.547746
 30
0
 10
2.80798
 20
-0.672505
 30
0
  0
SPLINE
  5
B89
330
A02
100
AcDbEntity
  8
Shape2DView027
100
AcDbSpline
210
0
220
0
230
1
 70
8
 71
1
 72
4
 73
2
 74
0
 40
0
 40
0
 40
1.28062
 40
1.28062
 10
2.80798
 20
-0.672505
 30
0
 10
2.65203
 20
-0.797264
 30
0
  0
SPLINE
  5
B8A
330
A02
100
AcDbEntity
  8
Shape2DView027
100
AcDbSpline
210
0
220
0
230
1
 70
8
 71
1
 72
4
 73
2
 74
0
 40
0
 40
0
 40
0.640312
 40
0.640312
 10
2.65203
 20
-0.797264
 30
0
 10
2.57406
 20
-0.859643
 30
0
  0
SPLINE
  5
B8B
330
A02
100
AcDbEntity
  8
Shape2DView027
100
AcDbSpline
210
0
220
0
230
1
 70
8
 71
1
 72
4
 73
2
 74
0
 40
0
 40
0
 40
0.640312
 40
0.640312
 10
2.57406
 20
-0.859643
 30
0
 10
2.49608
 20
-0.922022
 30
0
  0
SPLINE
  5
B8C
330
A02
100
AcDbEntity
  8
Shape2DView027
100
AcDbSpline
210
0
220
0
230
1
 70
8
 71
1
 72
4
 73
2
 74
0
 40
0
 40
0
 40
0.640312
 40
0.640312
 10
2.49608
 20
-0.922022
 30
0
 10
2.41811
 20
-0.984401
 30
0
  0
SPLINE
  5
B8D
330
A02
100
AcDbEntity
  8
Shape2DView027
100
AcDbSpline
210
0
220
0
230
1
 70
8
 71
1
 72
4
 73
2
 74
0
 40
0
 40
0
 40
0.640312
 40
0.640312
 10
2.41811
 20
-0.984401
 30
0
 10
2.34013
 20
-1.04678
 30
0
  0
SPLINE
  5
B8E
330
A02
100
AcDbEntity
  8
Shape2DView027
100
AcDbSpline
210
0
220
0
230
1
 70
8
 71
1
 72
4
 73
2
 74
0
 40
0
 40
0
 40
0.640312
 40
0.640312
 10
2.34013
 20
-1.04678
 30
0
 10
2.26216
 20
-1.10916
 30
0
  0
SPLINE
  5
B8F
330
A02
100
AcDbEntity
  8
Shape2DView027
100
AcDbSpline
210
0
220
0
230
1
 70
8
 71
1
 72
4
 73
2
 74
0
 40
0
 40
0
 40
0.282843
 40
0.282843
 10
2.26216
 20
-1.10916
 30
0
 10
2.23097
 20
-1.14035
 30
0
  0
SPLINE
  5
B90
330
A02
100
AcDbEntity
  8
Shape2DView027
100
AcDbSpline
210
0
220
0
230
1
 70
8
 71
1
 72
4
 73
2
 74
0
 40
0
 40
0
 40
0.141421
 40
0.141421
 10
2.23097
 20
-1.14035
 30
0
 10
2.21537
 20
-1.15594
 30
0
  0
SPLINE
  5
B91
330
A02
100
AcDbEntity
  8
Shape2DView027
100
AcDbSpline
210
0
220
0
230
1
 70
8
 71
1
 72
4
 73
2
 74
0
 40
0
 40
0
 40
0.141421
 40
0.141421
 10
2.21537
 20
-1.15594
 30
0
 10
2.19978
 20
-1.17154
 30
0
  0
SPLINE
  5
B92
330
A02
100
AcDbEntity
  8
Shape2DView027
100
AcDbSpline
210
0
220
0
230
1
 70
8
 71
1
 72
4
 73
2
 74
0
 40
0
 40
0
 40
1.14018
 40
1.14018
 10
2.19978
 20
-1.17154
 30
0
 10
2.05943
 20
-1.2807
 30
0
  0
SPLINE
  5
B93
330
A02
100
AcDbEntity
  8
Shape2DView027
100
AcDbSpline
210
0
220
0
230
1
 70
8
 71
1
 72
4
 73
2
 74
0
 40
0
 40
0
 40
5.56058
 40
5.56058
 10
2.05943
 20
-1.2807
 30
0
 10
1.37325
 20
-1.81093
 30
0
  0
SPLINE
  5
B94
330
A02
100
AcDbEntity
  8
Shape2DView027
100
AcDbSpline
210
0
220
0
230
1
 70
8
 71
1
 72
4
 73
2
 74
0
 40
0
 40
0
 40
1
 40
1
 10
1.37325
 20
-1.81093
 30
0
 10
1.2485
 20
-1.9045
 30
0
  0
SPLINE
  5
B95
330
A02
100
AcDbEntity
  8
Shape2DView027
100
AcDbSpline
210
0
220
0
230
1
 70
8
 71
1
 72
4
 73
2
 74
0
 40
0
 40
0
 40
0.640312
 40
0.640312
 10
1.2485
 20
-1.9045
 30
0
 10
1.17052
 20
-1.96688
 30
0
  0
SPLINE
  5
B96
330
A02
100
AcDbEntity
  8
Shape2DView027
100
AcDbSpline
210
0
220
0
230
1
 70
8
 71
1
 72
4
 73
2
 74
0
 40
0
 40
0
 40
0.640312
 40
0.640312
 10
1.17052
 20
-1.96688
 30
0
 10
1.09255
 20
-2.02925
 30
0
  0
SPLINE
  5
B97
330
A02
100
AcDbEntity
  8
Shape2DView027
100
AcDbSpline
210
0
220
0
230
1
 70
8
 71
1
 72
4
 73
2
 74
0
 40
0
 40
0
 40
0.424264
 40
0.424264
 10
1.09255
 20
-2.02925
 30
0
 10
1.04576
 20
-2.07604
 30
0
  0
SPLINE
  5
B98
330
A02
100
AcDbEntity
  8
Shape2DView027
100
AcDbSpline
210
0
220
0
230
1
 70
8
 71
1
 72
4
 73
2
 74
0
 40
0
 40
0
 40
0.781025
 40
0.781025
 10
1.04576
 20
-2.07604
 30
0
 10
0.952194
 20
-2.15401
 30
0
  0
SPLINE
  5
B99
330
A02
100
AcDbEntity
  8
Shape2DView027
100
AcDbSpline
210
0
220
0
230
1
 70
8
 71
1
 72
4
 73
2
 74
0
 40
0
 40
0
 40
0.781025
 40
0.781025
 10
0.952194
 20
-2.15401
 30
0
 10
0.858625
 20
-2.23199
 30
0
  0
SPLINE
  5
B9A
330
A02
100
AcDbEntity
  8
Shape2DView027
100
AcDbSpline
210
0
220
0
230
1
 70
8
 71
1
 72
4
 73
2
 74
0
 40
0
 40
0
 40
0.223607
 40
0.223607
 10
0.858625
 20
-2.23199
 30
0
 10
0.827435
 20
-2.24758
 30
0
  0
SPLINE
  5
B9B
330
A02
100
AcDbEntity
  8
Shape2DView027
100
AcDbSpline
210
0
220
0
230
1
 70
8
 71
1
 72
4
 73
2
 74
0
 40
0
 40
0
 40
0.223607
 40
0.223607
 10
0.827435
 20
-2.24758
 30
0
 10
0.796245
 20
-2.26318
 30
0
  0
SPLINE
  5
B9C
330
A02
100
AcDbEntity
  8
Shape2DView027
100
AcDbSpline
210
0
220
0
230
1
 70
8
 71
1
 72
4
 73
2
 74
0
 40
0
 40
0
 40
0.640312
 40
0.640312
 10
0.796245
 20
-2.26318
 30
0
 10
0.718271
 20
-2.32556
 30
0
  0
SPLINE
  5
B9D
330
A02
100
AcDbEntity
  8
Shape2DView027
100
AcDbSpline
210
0
220
0
230
1
 70
8
 71
1
 72
4
 73
2
 74
0
 40
0
 40
0
 40
0.640312
 40
0.640312
 10
0.718271
 20
-2.32556
 30
0
 10
0.640297
 20
-2.38794
 30
0
  0
SPLINE
  5
B9E
330
A02
100
AcDbEntity
  8
Shape2DView027
100
AcDbSpline
210
0
220
0
230
1
 70
8
 71
1
 72
4
 73
2
 74
0
 40
0
 40
0
 40
0.565685
 40
0.565685
 10
0.640297
 20
-2.38794
 30
0
 10
0.577918
 20
-2.45031
 30
0
  0
SPLINE
  5
B9F
330
A02
100
AcDbEntity
  8
Shape2DView027
100
AcDbSpline
210
0
220
0
230
1
 70
8
 71
1
 72
4
 73
2
 74
0
 40
0
 40
0
 40
0.707107
 40
0.707107
 10
0.577918
 20
-2.45031
 30
0
 10
0.499944
 20
-2.52829
 30
0
  0
SPLINE
  5
BA0
330
A02
100
AcDbEntity
  8
Shape2DView027
100
AcDbSpline
210
0
220
0
230
1
 70
8
 71
1
 72
4
 73
2
 74
0
 40
0
 40
0
 40
0.707107
 40
0.707107
 10
0.499944
 20
-2.52829
 30
0
 10
0.42197
 20
-2.60626
 30
0
  0
SPLINE
  5
BA1
330
A02
100
AcDbEntity
  8
Shape2DView027
100
AcDbSpline
210
0
220
0
230
1
 70
8
 71
1
 72
4
 73
2
 74
0
 40
0
 40
0
 40
0.565685
 40
0.565685
 10
0.42197
 20
-2.60626
 30
0
 10
0.35959
 20
-2.66864
 30
0
  0
SPLINE
  5
BA2
330
A02
100
AcDbEntity
  8
Shape2DView027
100
AcDbSpline
210
0
220
0
230
1
 70
8
 71
1
 72
4
 73
2
 74
0
 40
0
 40
0
 40
0.5
 40
0.5
 10
0.35959
 20
-2.66864
 30
0
 10
0.297211
 20
-2.71543
 30
0
  0
SPLINE
  5
BA3
330
A02
100
AcDbEntity
  8
Shape2DView027
100
AcDbSpline
210
0
220
0
230
1
 70
8
 71
1
 72
4
 73
2
 74
0
 40
0
 40
0
 40
0.223607
 40
0.223607
 10
0.297211
 20
-2.71543
 30
0
 10
0.266021
 20
-2.73102
 30
0
  0
SPLINE
  5
BA4
330
A02
100
AcDbEntity
  8
Shape2DView027
100
AcDbSpline
210
0
220
0
230
1
 70
8
 71
3
 72
8
 73
4
 74
0
 40
0
 40
0
 40
0
 40
0
 40
1
 40
1
 40
1
 40
1
 10
0.266021
 20
-2.73102
 30
0
 10
0.593513
 20
-2.99613
 30
0
 10
0.796245
 20
-3.15208
 30
0
 10
0.905409
 20
-3.19887
 30
0
  0
SPLINE
  5
BA5
330
A02
100
AcDbEntity
  8
Shape2DView027
100
AcDbSpline
210
0
220
0
230
1
 70
8
 71
1
 72
4
 73
2
 74
0
 40
0
 40
0
 40
1
 40
1
 10
0.905409
 20
-3.19887
 30
0
 10
0.952194
 20
-3.19887
 30
0
  0
SPLINE
  5
BA6
330
A02
100
AcDbEntity
  8
Shape2DView027
100
AcDbSpline
210
0
220
0
230
1
 70
8
 71
3
 72
8
 73
4
 74
0
 40
0
 40
0
 40
0
 40
0
 40
1
 40
1
 40
1
 40
1
 10
0.952194
 20
-3.19887
 30
0
 10
1.03017
 20
-3.19887
 30
0
 10
1.10814
 20
-3.19887
 30
0
 10
1.21731
 20
-3.21446
 30
0
  0
SPLINE
  5
BA7
330
A02
100
AcDbEntity
  8
Shape2DView027
100
AcDbSpline
210
0
220
0
230
1
 70
8
 71
1
 72
4
 73
2
 74
0
 40
0
 40
0
 40
0.848528
 40
0.848528
 10
1.21731
 20
-3.21446
 30
0
 10
1.31087
 20
-3.12089
 30
0
  0
SPLINE
  5
BA8
330
A02
100
AcDbEntity
  8
Shape2DView027
100
AcDbSpline
210
0
220
0
230
1
 70
8
 71
1
 72
4
 73
2
 74
0
 40
0
 40
0
 40
0.5
 40
0.5
 10
1.31087
 20
-3.12089
 30
0
 10
1.37325
 20
-3.07411
 30
0
  0
SPLINE
  5
BA9
330
A02
100
AcDbEntity
  8
Shape2DView027
100
AcDbSpline
210
0
220
0
230
1
 70
8
 71
1
 72
4
 73
2
 74
0
 40
0
 40
0
 40
1.06301
 40
1.06301
 10
1.37325
 20
-3.07411
 30
0
 10
1.49801
 20
-2.96494
 30
0
  0
SPLINE
  5
BAA
330
A02
100
AcDbEntity
  8
Shape2DView027
100
AcDbSpline
210
0
220
0
230
1
 70
8
 71
1
 72
4
 73
2
 74
0
 40
0
 40
0
 40
0.424264
 40
0.424264
 10
1.49801
 20
-2.96494
 30
0
 10
1.5448
 20
-2.91816
 30
0
  0
SPLINE
  5
BAB
330
A02
100
AcDbEntity
  8
Shape2DView027
100
AcDbSpline
210
0
220
0
230
1
 70
8
 71
1
 72
4
 73
2
 74
0
 40
0
 40
0
 40
1.13137
 40
1.13137
 10
1.5448
 20
-2.91816
 30
0
 10
1.66956
 20
-2.7934
 30
0
  0
SPLINE
  5
BAC
330
A02
100
AcDbEntity
  8
Shape2DView027
100
AcDbSpline
210
0
220
0
230
1
 70
8
 71
1
 72
4
 73
2
 74
0
 40
0
 40
0
 40
0.424264
 40
0.424264
 10
1.66956
 20
-2.7934
 30
0
 10
1.71634
 20
-2.74662
 30
0
  0
SPLINE
  5
BAD
330
A02
100
AcDbEntity
  8
Shape2DView027
100
AcDbSpline
210
0
220
0
230
1
 70
8
 71
1
 72
4
 73
2
 74
0
 40
0
 40
0
 40
0.640312
 40
0.640312
 10
1.71634
 20
-2.74662
 30
0
 10
1.79431
 20
-2.68424
 30
0
  0
SPLINE
  5
BAE
330
A02
100
AcDbEntity
  8
Shape2DView027
100
AcDbSpline
210
0
220
0
230
1
 70
8
 71
1
 72
4
 73
2
 74
0
 40
0
 40
0
 40
0.565685
 40
0.565685
 10
1.79431
 20
-2.68424
 30
0
 10
1.85669
 20
-2.62186
 30
0
  0
SPLINE
  5
BAF
330
A02
100
AcDbEntity
  8
Shape2DView027
100
AcDbSpline
210
0
220
0
230
1
 70
8
 71
1
 72
4
 73
2
 74
0
 40
0
 40
0
 40
1.06301
 40
1.06301
 10
1.85669
 20
-2.62186
 30
0
 10
1.98145
 20
-2.51269
 30
0
  0
SPLINE
  5
BB0
330
A02
100
AcDbEntity
  8
Shape2DView027
100
AcDbSpline
210
0
220
0
230
1
 70
8
 71
1
 72
4
 73
2
 74
0
 40
0
 40
0
 40
1.06301
 40
1.06301
 10
1.98145
 20
-2.51269
 30
0
 10
2.10621
 20
-2.40353
 30
0
  0
SPLINE
  5
BB1
330
A02
100
AcDbEntity
  8
Shape2DView027
100
AcDbSpline
210
0
220
0
230
1
 70
8
 71
1
 72
4
 73
2
 74
0
 40
0
 40
0
 40
1.06301
 40
1.06301
 10
2.10621
 20
-2.40353
 30
0
 10
2.23097
 20
-2.29437
 30
0
  0
SPLINE
  5
BB2
330
A02
100
AcDbEntity
  8
Shape2DView027
100
AcDbSpline
210
0
220
0
230
1
 70
8
 71
1
 72
4
 73
2
 74
0
 40
0
 40
0
 40
0.989949
 40
0.989949
 10
2.23097
 20
-2.29437
 30
0
 10
2.34013
 20
-2.1852
 30
0
  0
SPLINE
  5
BB3
330
A02
100
AcDbEntity
  8
Shape2DView027
100
AcDbSpline
210
0
220
0
230
1
 70
8
 71
1
 72
4
 73
2
 74
0
 40
0
 40
0
 40
2.70185
 40
2.70185
 10
2.34013
 20
-2.1852
 30
0
 10
2.60525
 20
-1.85771
 30
0
  0
SPLINE
  5
BB4
330
A02
100
AcDbEntity
  8
Shape2DView027
100
AcDbSpline
210
0
220
0
230
1
 70
8
 71
1
 72
4
 73
2
 74
0
 40
0
 40
0
 40
1.13137
 40
1.13137
 10
2.60525
 20
-1.85771
 30
0
 10
2.73
 20
-1.73295
 30
0
  0
SPLINE
  5
BB5
330
A02
100
AcDbEntity
  8
Shape2DView027
100
AcDbSpline
210
0
220
0
230
1
 70
8
 71
1
 72
4
 73
2
 74
0
 40
0
 40
0
 40
1.13137
 40
1.13137
 10
2.73
 20
-1.73295
 30
0
 10
2.85476
 20
-1.60819
 30
0
  0
SPLINE
  5
BB6
330
A02
100
AcDbEntity
  8
Shape2DView027
100
AcDbSpline
210
0
220
0
230
1
 70
8
 71
1
 72
4
 73
2
 74
0
 40
0
 40
0
 40
1.13137
 40
1.13137
 10
2.85476
 20
-1.60819
 30
0
 10
2.97952
 20
-1.48344
 30
0
  0
SPLINE
  5
BB7
330
A02
100
AcDbEntity
  8
Shape2DView027
100
AcDbSpline
210
0
220
0
230
1
 70
8
 71
1
 72
4
 73
2
 74
0
 40
0
 40
0
 40
1.42127
 40
1.42127
 10
2.97952
 20
-1.48344
 30
0
 10
3.15106
 20
-1.34308
 30
0
  0
SPLINE
  5
BB8
330
A02
100
AcDbEntity
  8
Shape2DView027
100
AcDbSpline
210
0
220
0
230
1
 70
8
 71
3
 72
8
 73
4
 74
0
 40
0
 40
0
 40
0
 40
0
 40
1
 40
1
 40
1
 40
1
 10
-4.66194
 20
1.27685
 30
0
 10
-4.86468
 20
1.46399
 30
0
 10
-4.98943
 20
1.58874
 30
0
 10
-4.98943
 20
1.61993
 30
0
  0
SPLINE
  5
BB9
330
A02
100
AcDbEntity
  8
Shape2DView027
100
AcDbSpline
210
0
220
0
230
1
 70
8
 71
3
 72
8
 73
4
 74
0
 40
0
 40
0
 40
0
 40
0
 40
1
 40
1
 40
1
 40
1
 10
-4.98943
 20
1.61993
 30
0
 10
-5.03622
 20
1.79148
 30
0
 10
-5.00503
 20
2.19694
 30
0
 10
-5.31693
 20
2.47765
 30
0
  0
SPLINE
  5
BBA
330
A02
100
AcDbEntity
  8
Shape2DView027
100
AcDbSpline
210
0
220
0
230
1
 70
8
 71
3
 72
8
 73
4
 74
0
 40
0
 40
0
 40
0
 40
0
 40
1
 40
1
 40
1
 40
1
 10
-5.31693
 20
2.47765
 30
0
 10
-5.59763
 20
2.72717
 30
0
 10
-5.84715
 20
2.78955
 30
0
 10
-6.0031
 20
2.78955
 30
0
  0
SPLINE
  5
BBB
330
A02
100
AcDbEntity
  8
Shape2DView027
100
AcDbSpline
210
0
220
0
230
1
 70
8
 71
3
 72
8
 73
4
 74
0
 40
0
 40
0
 40
0
 40
0
 40
1
 40
1
 40
1
 40
1
 10
-6.0031
 20
2.78955
 30
0
 10
-6.01869
 20
2.78955
 30
0
 10
-6.04988
 20
2.78955
 30
0
 10
-6.06548
 20
2.78955
 30
0
  0
SPLINE
  5
BBC
330
A02
100
AcDbEntity
  8
Shape2DView027
100
AcDbSpline
210
0
220
0
230
1
 70
8
 71
2
 72
6
 73
3
 74
0
 40
0
 40
0
 40
0
 40
1
 40
1
 40
1
 10
-6.06548
 20
2.78955
 30
0
 10
-6.25262
 20
2.78565
 30
0
 10
-6.34618
 20
2.75836
 30
0
  0
SPLINE
  5
BBD
330
A02
100
AcDbEntity
  8
Shape2DView027
100
AcDbSpline
210
0
220
0
230
1
 70
8
 71
1
 72
4
 73
2
 74
0
 40
0
 40
0
 40
1
 40
1
 10
-6.34618
 20
2.75836
 30
0
 10
-6.48654
 20
2.71157
 30
0
  0
SPLINE
  5
BBE
330
A02
100
AcDbEntity
  8
Shape2DView027
100
AcDbSpline
210
0
220
0
230
1
 70
8
 71
2
 72
6
 73
3
 74
0
 40
0
 40
0
 40
0
 40
1
 40
1
 40
1
 10
-6.48654
 20
2.71157
 30
0
 10
-6.53332
 20
2.68428
 30
0
 10
-6.53332
 20
2.68038
 30
0
  0
SPLINE
  5
BBF
330
A02
100
AcDbEntity
  8
Shape2DView027
100
AcDbSpline
210
0
220
0
230
1
 70
8
 71
1
 72
4
 73
2
 74
0
 40
0
 40
0
 40
4.74236
 40
4.74236
 10
-6.53332
 20
2.68038
 30
0
 10
-5.9875
 20
2.18135
 30
0
  0
SPLINE
  5
BC0
330
A02
100
AcDbEntity
  8
Shape2DView027
100
AcDbSpline
210
0
220
0
230
1
 70
8
 71
3
 72
8
 73
4
 74
0
 40
0
 40
0
 40
0
 40
0
 40
1
 40
1
 40
1
 40
1
 10
-5.9875
 20
2.18135
 30
0
 10
-5.95631
 20
2.04099
 30
0
 10
-5.97191
 20
1.93183
 30
0
 10
-6.0031
 20
1.83826
 30
0
  0
SPLINE
  5
BC1
330
A02
100
AcDbEntity
  8
Shape2DView027
100
AcDbSpline
210
0
220
0
230
1
 70
8
 71
3
 72
8
 73
4
 74
0
 40
0
 40
0
 40
0
 40
0
 40
1
 40
1
 40
1
 40
1
 10
-6.0031
 20
1.83826
 30
0
 10
-6.03429
 20
1.79148
 30
0
 10
-6.06548
 20
1.7135
 30
0
 10
-6.11226
 20
1.68231
 30
0
  0
SPLINE
  5
BC2
330
A02
100
AcDbEntity
  8
Shape2DView027
100
AcDbSpline
210
0
220
0
230
1
 70
8
 71
3
 72
8
 73
4
 74
0
 40
0
 40
0
 40
0
 40
0
 40
1
 40
1
 40
1
 40
1
 10
-6.11226
 20
1.68231
 30
0
 10
-6.15905
 20
1.65112
 30
0
 10
-6.19024
 20
1.61993
 30
0
 10
-6.23702
 20
1.58874
 30
0
  0
SPLINE
  5
BC3
330
A02
100
AcDbEntity
  8
Shape2DView027
100
AcDbSpline
210
0
220
0
230
1
 70
8
 71
3
 72
8
 73
4
 74
0
 40
0
 40
0
 40
0
 40
0
 40
1
 40
1
 40
1
 40
1
 10
-6.23702
 20
1.58874
 30
0
 10
-6.26821
 20
1.57315
 30
0
 10
-6.31499
 20
1.55756
 30
0
 10
-6.34618
 20
1.54196
 30
0
  0
SPLINE
  5
BC4
330
A02
100
AcDbEntity
  8
Shape2DView027
100
AcDbSpline
210
0
220
0
230
1
 70
8
 71
1
 72
4
 73
2
 74
0
 40
0
 40
0
 40
4.39318
 40
4.39318
 10
-6.34618
 20
1.54196
 30
0
 10
-6.86081
 20
1.99421
 30
0
  0
SPLINE
  5
BC5
330
A02
100
AcDbEntity
  8
Shape2DView027
100
AcDbSpline
210
0
220
0
230
1
 70
8
 71
1
 72
4
 73
2
 74
0
 40
0
 40
0
 40
1.60312
 40
1.60312
 10
-6.86081
 20
1.99421
 30
0
 10
-7.11033
 20
1.97862
 30
0
  0
SPLINE
  5
BC6
330
A02
100
AcDbEntity
  8
Shape2DView027
100
AcDbSpline
210
0
220
0
230
1
 70
8
 71
3
 72
8
 73
4
 74
0
 40
0
 40
0
 40
0
 40
0
 40
1
 40
1
 40
1
 40
1
 10
-7.11033
 20
1.97862
 30
0
 10
-7.11033
 20
1.97862
 30
0
 10
-7.23509
 20
1.47958
 30
0
 10
-6.73606
 20
1.04293
 30
0
  0
SPLINE
  5
BC7
330
A02
100
AcDbEntity
  8
Shape2DView027
100
AcDbSpline
210
0
220
0
230
1
 70
8
 71
3
 72
8
 73
4
 74
0
 40
0
 40
0
 40
0
 40
0
 40
1
 40
1
 40
1
 40
1
 10
-6.73606
 20
1.04293
 30
0
 10
-6.54892
 20
0.886978
 30
0
 10
-6.34618
 20
0.855788
 30
0
 10
-6.17464
 20
0.855788
 30
0
  0
SPLINE
  5
BC8
330
A02
100
AcDbEntity
  8
Shape2DView027
100
AcDbSpline
210
0
220
0
230
1
 70
8
 71
3
 72
8
 73
4
 74
0
 40
0
 40
0
 40
0
 40
0
 40
1
 40
1
 40
1
 40
1
 10
-6.17464
 20
0.855788
 30
0
 10
-6.0031
 20
0.855788
 30
0
 10
-5.86274
 20
0.886978
 30
0
 10
-5.80037
 20
0.886978
 30
0
  0
SPLINE
  5
BC9
330
A02
100
AcDbEntity
  8
Shape2DView027
100
AcDbSpline
210
0
220
0
230
1
 70
8
 71
1
 72
4
 73
2
 74
0
 40
0
 40
0
 40
0.1
 40
0.1
 10
-5.80037
 20
0.886978
 30
0
 10
-5.78477
 20
0.886978
 30
0
  0
SPLINE
  5
BCA
330
A02
100
AcDbEntity
  8
Shape2DView027
100
AcDbSpline
210
0
220
0
230
1
 70
8
 71
3
 72
8
 73
4
 74
0
 40
0
 40
0
 40
0
 40
0
 40
1
 40
1
 40
1
 40
1
 10
-5.78477
 20
0.886978
 30
0
 10
-5.75358
 20
0.886978
 30
0
 10
-5.30133
 20
0.497107
 30
0
 10
-4.64635
 20
-0.0487119
 30
0
  0
SPLINE
  5
BCB
330
A02
100
AcDbEntity
  8
Shape2DView027
100
AcDbSpline
210
0
220
0
230
1
 70
8
 71
1
 72
4
 73
2
 74
0
 40
0
 40
0
 40
8.5
 40
8.5
 10
-4.64635
 20
-0.0487119
 30
0
 10
-4.64635
 20
1.27685
 30
0
  0
SPLINE
  5
BCC
330
A02
100
AcDbEntity
  8
Shape2DView027
100
AcDbSpline
210
0
220
0
230
1
 70
8
 71
1
 72
4
 73
2
 74
0
 40
0
 40
0
 40
0.1
 40
0.1
 10
-4.64635
 20
1.27685
 30
0
 10
-4.66194
 20
1.27685
 30
0
  0
SPLINE
  5
BCD
330
A02
100
AcDbEntity
  8
Shape2DView027
100
AcDbSpline
210
0
220
0
230
1
 70
8
 71
1
 72
4
 73
2
 74
0
 40
0
 40
0
 40
0.447214
 40
0.447214
 10
7.42405
 20
0.980547
 30
0
 10
7.39286
 20
1.04293
 30
0
  0
SPLINE
  5
BCE
330
A02
100
AcDbEntity
  8
Shape2DView027
100
AcDbSpline
210
0
220
0
230
1
 70
8
 71
1
 72
4
 73
2
 74
0
 40
0
 40
0
 40
0.538516
 40
0.538516
 10
7.39286
 20
1.04293
 30
0
 10
7.36167
 20
1.1209
 30
0
  0
SPLINE
  5
BCF
330
A02
100
AcDbEntity
  8
Shape2DView027
100
AcDbSpline
210
0
220
0
230
1
 70
8
 71
1
 72
4
 73
2
 74
0
 40
0
 40
0
 40
0.894427
 40
0.894427
 10
7.36167
 20
1.1209
 30
0
 10
7.29929
 20
1.24566
 30
0
  0
SPLINE
  5
BD0
330
A02
100
AcDbEntity
  8
Shape2DView027
100
AcDbSpline
210
0
220
0
230
1
 70
8
 71
1
 72
4
 73
2
 74
0
 40
0
 40
0
 40
0.984886
 40
0.984886
 10
7.29929
 20
1.24566
 30
0
 10
7.23691
 20
1.38601
 30
0
  0
SPLINE
  5
BD1
330
A02
100
AcDbEntity
  8
Shape2DView027
100
AcDbSpline
210
0
220
0
230
1
 70
8
 71
1
 72
4
 73
2
 74
0
 40
0
 40
0
 40
0.894427
 40
0.894427
 10
7.23691
 20
1.38601
 30
0
 10
7.17453
 20
1.51077
 30
0
  0
SPLINE
  5
BD2
330
A02
100
AcDbEntity
  8
Shape2DView027
100
AcDbSpline
210
0
220
0
230
1
 70
8
 71
1
 72
4
 73
2
 74
0
 40
0
 40
0
 40
0.984886
 40
0.984886
 10
7.17453
 20
1.51077
 30
0
 10
7.11215
 20
1.65112
 30
0
  0
SPLINE
  5
BD3
330
A02
100
AcDbEntity
  8
Shape2DView027
100
AcDbSpline
210
0
220
0
230
1
 70
8
 71
1
 72
4
 73
2
 74
0
 40
0
 40
0
 40
0.447214
 40
0.447214
 10
7.11215
 20
1.65112
 30
0
 10
7.08096
 20
1.7135
 30
0
  0
SPLINE
  5
BD4
330
A02
100
AcDbEntity
  8
Shape2DView027
100
AcDbSpline
210
0
220
0
230
1
 70
8
 71
1
 72
4
 73
2
 74
0
 40
0
 40
0
 40
0.583095
 40
0.583095
 10
7.08096
 20
1.7135
 30
0
 10
7.03418
 20
1.79148
 30
0
  0
SPLINE
  5
BD5
330
A02
100
AcDbEntity
  8
Shape2DView027
100
AcDbSpline
210
0
220
0
230
1
 70
8
 71
1
 72
4
 73
2
 74
0
 40
0
 40
0
 40
0.894427
 40
0.894427
 10
7.03418
 20
1.79148
 30
0
 10
6.9718
 20
1.91624
 30
0
  0
SPLINE
  5
BD6
330
A02
100
AcDbEntity
  8
Shape2DView027
100
AcDbSpline
210
0
220
0
230
1
 70
8
 71
1
 72
4
 73
2
 74
0
 40
0
 40
0
 40
1.02956
 40
1.02956
 10
6.9718
 20
1.91624
 30
0
 10
6.89382
 20
2.05659
 30
0
  0
SPLINE
  5
BD7
330
A02
100
AcDbEntity
  8
Shape2DView027
100
AcDbSpline
210
0
220
0
230
1
 70
8
 71
1
 72
4
 73
2
 74
0
 40
0
 40
0
 40
0.5
 40
0.5
 10
6.89382
 20
2.05659
 30
0
 10
6.84704
 20
2.11897
 30
0
  0
SPLINE
  5
BD8
330
A02
100
AcDbEntity
  8
Shape2DView027
100
AcDbSpline
210
0
220
0
230
1
 70
8
 71
1
 72
4
 73
2
 74
0
 40
0
 40
0
 40
0.538516
 40
0.538516
 10
6.84704
 20
2.11897
 30
0
 10
6.81585
 20
2.19694
 30
0
  0
SPLINE
  5
BD9
330
A02
100
AcDbEntity
  8
Shape2DView027
100
AcDbSpline
210
0
220
0
230
1
 70
8
 71
1
 72
4
 73
2
 74
0
 40
0
 40
0
 40
0.5
 40
0.5
 10
6.81585
 20
2.19694
 30
0
 10
6.76906
 20
2.25932
 30
0
  0
SPLINE
  5
BDA
330
A02
100
AcDbEntity
  8
Shape2DView027
100
AcDbSpline
210
0
220
0
230
1
 70
8
 71
1
 72
4
 73
2
 74
0
 40
0
 40
0
 40
0.424264
 40
0.424264
 10
6.76906
 20
2.25932
 30
0
 10
6.72228
 20
2.30611
 30
0
  0
SPLINE
  5
BDB
330
A02
100
AcDbEntity
  8
Shape2DView027
100
AcDbSpline
210
0
220
0
230
1
 70
8
 71
1
 72
4
 73
2
 74
0
 40
0
 40
0
 40
0.447214
 40
0.447214
 10
6.72228
 20
2.30611
 30
0
 10
6.69109
 20
2.36849
 30
0
  0
SPLINE
  5
BDC
330
A02
100
AcDbEntity
  8
Shape2DView027
100
AcDbSpline
210
0
220
0
230
1
 70
8
 71
1
 72
4
 73
2
 74
0
 40
0
 40
0
 40
0.5
 40
0.5
 10
6.69109
 20
2.36849
 30
0
 10
6.6443
 20
2.43087
 30
0
  0
SPLINE
  5
BDD
330
A02
100
AcDbEntity
  8
Shape2DView027
100
AcDbSpline
210
0
220
0
230
1
 70
8
 71
1
 72
4
 73
2
 74
0
 40
0
 40
0
 40
0.424264
 40
0.424264
 10
6.6443
 20
2.43087
 30
0
 10
6.59752
 20
2.47765
 30
0
  0
SPLINE
  5
BDE
330
A02
100
AcDbEntity
  8
Shape2DView027
100
AcDbSpline
210
0
220
0
230
1
 70
8
 71
1
 72
4
 73
2
 74
0
 40
0
 40
0
 40
0.424264
 40
0.424264
 10
6.59752
 20
2.47765
 30
0
 10
6.55074
 20
2.52443
 30
0
  0
SPLINE
  5
BDF
330
A02
100
AcDbEntity
  8
Shape2DView027
100
AcDbSpline
210
0
220
0
230
1
 70
8
 71
1
 72
4
 73
2
 74
0
 40
0
 40
0
 40
0.424264
 40
0.424264
 10
6.55074
 20
2.52443
 30
0
 10
6.50395
 20
2.57122
 30
0
  0
SPLINE
  5
BE0
330
A02
100
AcDbEntity
  8
Shape2DView027
100
AcDbSpline
210
0
220
0
230
1
 70
8
 71
1
 72
4
 73
2
 74
0
 40
0
 40
0
 40
0.360555
 40
0.360555
 10
6.50395
 20
2.57122
 30
0
 10
6.45717
 20
2.60241
 30
0
  0
SPLINE
  5
BE1
330
A02
100
AcDbEntity
  8
Shape2DView027
100
AcDbSpline
210
0
220
0
230
1
 70
8
 71
1
 72
4
 73
2
 74
0
 40
0
 40
0
 40
0.282843
 40
0.282843
 10
6.45717
 20
2.60241
 30
0
 10
6.42598
 20
2.6336
 30
0
  0
SPLINE
  5
BE2
330
A02
100
AcDbEntity
  8
Shape2DView027
100
AcDbSpline
210
0
220
0
230
1
 70
8
 71
1
 72
4
 73
2
 74
0
 40
0
 40
0
 40
0.5
 40
0.5
 10
6.42598
 20
2.6336
 30
0
 10
6.3636
 20
2.68038
 30
0
  0
SPLINE
  5
BE3
330
A02
100
AcDbEntity
  8
Shape2DView027
100
AcDbSpline
210
0
220
0
230
1
 70
8
 71
1
 72
4
 73
2
 74
0
 40
0
 40
0
 40
0.360555
 40
0.360555
 10
6.3636
 20
2.68038
 30
0
 10
6.31681
 20
2.71157
 30
0
  0
SPLINE
  5
BE4
330
A02
100
AcDbEntity
  8
Shape2DView027
100
AcDbSpline
210
0
220
0
230
1
 70
8
 71
1
 72
4
 73
2
 74
0
 40
0
 40
0
 40
0.316228
 40
0.316228
 10
6.31681
 20
2.71157
 30
0
 10
6.27003
 20
2.72717
 30
0
  0
SPLINE
  5
BE5
330
A02
100
AcDbEntity
  8
Shape2DView027
100
AcDbSpline
210
0
220
0
230
1
 70
8
 71
1
 72
4
 73
2
 74
0
 40
0
 40
0
 40
0.360555
 40
0.360555
 10
6.27003
 20
2.72717
 30
0
 10
6.22324
 20
2.75836
 30
0
  0
SPLINE
  5
BE6
330
A02
100
AcDbEntity
  8
Shape2DView027
100
AcDbSpline
210
0
220
0
230
1
 70
8
 71
1
 72
4
 73
2
 74
0
 40
0
 40
0
 40
0.316228
 40
0.316228
 10
6.22324
 20
2.75836
 30
0
 10
6.17646
 20
2.77395
 30
0
  0
SPLINE
  5
BE7
330
A02
100
AcDbEntity
  8
Shape2DView027
100
AcDbSpline
210
0
220
0
230
1
 70
8
 71
1
 72
4
 73
2
 74
0
 40
0
 40
0
 40
0.1
 40
0.1
 10
6.17646
 20
2.77395
 30
0
 10
6.16087
 20
2.77395
 30
0
  0
SPLINE
  5
BE8
330
A02
100
AcDbEntity
  8
Shape2DView027
100
AcDbSpline
210
0
220
0
230
1
 70
8
 71
1
 72
4
 73
2
 74
0
 40
0
 40
0
 40
0.141421
 40
0.141421
 10
6.16087
 20
2.77395
 30
0
 10
6.14527
 20
2.75836
 30
0
  0
SPLINE
  5
BE9
330
A02
100
AcDbEntity
  8
Shape2DView027
100
AcDbSpline
210
0
220
0
230
1
 70
8
 71
1
 72
4
 73
2
 74
0
 40
0
 40
0
 40
0.2
 40
0.2
 10
6.14527
 20
2.75836
 30
0
 10
6.11408
 20
2.75836
 30
0
  0
SPLINE
  5
BEA
330
A02
100
AcDbEntity
  8
Shape2DView027
100
AcDbSpline
210
0
220
0
230
1
 70
8
 71
1
 72
4
 73
2
 74
0
 40
0
 40
0
 40
0.1
 40
0.1
 10
6.11408
 20
2.75836
 30
0
 10
6.09849
 20
2.75836
 30
0
  0
SPLINE
  5
BEB
330
A02
100
AcDbEntity
  8
Shape2DView027
100
AcDbSpline
210
0
220
0
230
1
 70
8
 71
1
 72
4
 73
2
 74
0
 40
0
 40
0
 40
0.1
 40
0.1
 10
6.09849
 20
2.75836
 30
0
 10
6.08289
 20
2.75836
 30
0
  0
SPLINE
  5
BEC
330
A02
100
AcDbEntity
  8
Shape2DView027
100
AcDbSpline
210
0
220
0
230
1
 70
8
 71
1
 72
4
 73
2
 74
0
 40
0
 40
0
 40
0.1
 40
0.1
 10
6.08289
 20
2.75836
 30
0
 10
6.0673
 20
2.75836
 30
0
  0
SPLINE
  5
BED
330
A02
100
AcDbEntity
  8
Shape2DView027
100
AcDbSpline
210
0
220
0
230
1
 70
8
 71
1
 72
4
 73
2
 74
0
 40
0
 40
0
 40
0.2
 40
0.2
 10
6.0673
 20
2.75836
 30
0
 10
6.03611
 20
2.75836
 30
0
  0
SPLINE
  5
BEE
330
A02
100
AcDbEntity
  8
Shape2DView027
100
AcDbSpline
210
0
220
0
230
1
 70
8
 71
1
 72
4
 73
2
 74
0
 40
0
 40
0
 40
0.1
 40
0.1
 10
6.03611
 20
2.75836
 30
0
 10
6.02051
 20
2.75836
 30
0
  0
SPLINE
  5
BEF
330
A02
100
AcDbEntity
  8
Shape2DView027
100
AcDbSpline
210
0
220
0
230
1
 70
8
 71
1
 72
4
 73
2
 74
0
 40
0
 40
0
 40
0.1
 40
0.1
 10
6.02051
 20
2.75836
 30
0
 10
6.00492
 20
2.75836
 30
0
  0
SPLINE
  5
BF0
330
A02
100
AcDbEntity
  8
Shape2DView027
100
AcDbSpline
210
0
220
0
230
1
 70
8
 71
1
 72
4
 73
2
 74
0
 40
0
 40
0
 40
0.141421
 40
0.141421
 10
6.00492
 20
2.75836
 30
0
 10
5.98932
 20
2.77395
 30
0
  0
SPLINE
  5
BF1
330
A02
100
AcDbEntity
  8
Shape2DView027
100
AcDbSpline
210
0
220
0
230
1
 70
8
 71
1
 72
4
 73
2
 74
0
 40
0
 40
0
 40
0.1
 40
0.1
 10
5.98932
 20
2.77395
 30
0
 10
5.97373
 20
2.77395
 30
0
  0
SPLINE
  5
BF2
330
A02
100
AcDbEntity
  8
Shape2DView027
100
AcDbSpline
210
0
220
0
230
1
 70
8
 71
1
 72
4
 73
2
 74
0
 40
0
 40
0
 40
0.1
 40
0.1
 10
5.97373
 20
2.77395
 30
0
 10
5.95813
 20
2.77395
 30
0
  0
SPLINE
  5
BF3
330
A02
100
AcDbEntity
  8
Shape2DView027
100
AcDbSpline
210
0
220
0
230
1
 70
8
 71
1
 72
4
 73
2
 74
0
 40
0
 40
0
 40
0.1
 40
0.1
 10
5.95813
 20
2.77395
 30
0
 10
5.95813
 20
2.78955
 30
0
  0
SPLINE
  5
BF4
330
A02
100
AcDbEntity
  8
Shape2DView027
100
AcDbSpline
210
0
220
0
230
1
 70
8
 71
1
 72
4
 73
2
 74
0
 40
0
 40
0
 40
0.1
 40
0.1
 10
5.95813
 20
2.78955
 30
0
 10
5.94254
 20
2.78955
 30
0
  0
SPLINE
  5
BF5
330
A02
100
AcDbEntity
  8
Shape2DView027
100
AcDbSpline
210
0
220
0
230
1
 70
8
 71
1
 72
4
 73
2
 74
0
 40
0
 40
0
 40
0.141421
 40
0.141421
 10
5.94254
 20
2.78955
 30
0
 10
5.92694
 20
2.80514
 30
0
  0
SPLINE
  5
BF6
330
A02
100
AcDbEntity
  8
Shape2DView027
100
AcDbSpline
210
0
220
0
230
1
 70
8
 71
1
 72
4
 73
2
 74
0
 40
0
 40
0
 40
0.141421
 40
0.141421
 10
5.92694
 20
2.80514
 30
0
 10
5.91135
 20
2.82074
 30
0
  0
SPLINE
  5
BF7
330
A02
100
AcDbEntity
  8
Shape2DView027
100
AcDbSpline
210
0
220
0
230
1
 70
8
 71
1
 72
4
 73
2
 74
0
 40
0
 40
0
 40
0.1
 40
0.1
 10
5.91135
 20
2.82074
 30
0
 10
5.89575
 20
2.82074
 30
0
  0
SPLINE
  5
BF8
330
A02
100
AcDbEntity
  8
Shape2DView027
100
AcDbSpline
210
0
220
0
230
1
 70
8
 71
1
 72
4
 73
2
 74
0
 40
0
 40
0
 40
0.141421
 40
0.141421
 10
5.89575
 20
2.82074
 30
0
 10
5.88016
 20
2.83633
 30
0
  0
SPLINE
  5
BF9
330
A02
100
AcDbEntity
  8
Shape2DView027
100
AcDbSpline
210
0
220
0
230
1
 70
8
 71
1
 72
4
 73
2
 74
0
 40
0
 40
0
 40
0.223607
 40
0.223607
 10
5.88016
 20
2.83633
 30
0
 10
5.86456
 20
2.86752
 30
0
  0
SPLINE
  5
BFA
330
A02
100
AcDbEntity
  8
Shape2DView027
100
AcDbSpline
210
0
220
0
230
1
 70
8
 71
1
 72
4
 73
2
 74
0
 40
0
 40
0
 40
0.141421
 40
0.141421
 10
5.86456
 20
2.86752
 30
0
 10
5.84897
 20
2.88312
 30
0
  0
SPLINE
  5
BFB
330
A02
100
AcDbEntity
  8
Shape2DView027
100
AcDbSpline
210
0
220
0
230
1
 70
8
 71
1
 72
4
 73
2
 74
0
 40
0
 40
0
 40
0.1
 40
0.1
 10
5.84897
 20
2.88312
 30
0
 10
5.83337
 20
2.88312
 30
0
  0
SPLINE
  5
BFC
330
A02
100
AcDbEntity
  8
Shape2DView027
100
AcDbSpline
210
0
220
0
230
1
 70
8
 71
1
 72
4
 73
2
 74
0
 40
0
 40
0
 40
0.1
 40
0.1
 10
5.83337
 20
2.88312
 30
0
 10
5.83337
 20
2.89871
 30
0
  0
SPLINE
  5
BFD
330
A02
100
AcDbEntity
  8
Shape2DView027
100
AcDbSpline
210
0
220
0
230
1
 70
8
 71
1
 72
4
 73
2
 74
0
 40
0
 40
0
 40
0.141421
 40
0.141421
 10
5.83337
 20
2.89871
 30
0
 10
5.81778
 20
2.9143
 30
0
  0
SPLINE
  5
BFE
330
A02
100
AcDbEntity
  8
Shape2DView027
100
AcDbSpline
210
0
220
0
230
1
 70
8
 71
1
 72
4
 73
2
 74
0
 40
0
 40
0
 40
0.223607
 40
0.223607
 10
5.81778
 20
2.9143
 30
0
 10
5.80218
 20
2.94549
 30
0
  0
SPLINE
  5
BFF
330
A02
100
AcDbEntity
  8
Shape2DView027
100
AcDbSpline
210
0
220
0
230
1
 70
8
 71
1
 72
4
 73
2
 74
0
 40
0
 40
0
 40
0.141421
 40
0.141421
 10
5.80218
 20
2.94549
 30
0
 10
5.78659
 20
2.96109
 30
0
  0
SPLINE
  5
C00
330
A02
100
AcDbEntity
  8
Shape2DView027
100
AcDbSpline
210
0
220
0
230
1
 70
8
 71
1
 72
4
 73
2
 74
0
 40
0
 40
0
 40
0.223607
 40
0.223607
 10
5.78659
 20
2.96109
 30
0
 10
5.77099
 20
2.99228
 30
0
  0
SPLINE
  5
C01
330
A02
100
AcDbEntity
  8
Shape2DView027
100
AcDbSpline
210
0
220
0
230
1
 70
8
 71
1
 72
4
 73
2
 74
0
 40
0
 40
0
 40
0.1
 40
0.1
 10
5.77099
 20
2.99228
 30
0
 10
5.77099
 20
3.00787
 30
0
  0
SPLINE
  5
C02
330
A02
100
AcDbEntity
  8
Shape2DView027
100
AcDbSpline
210
0
220
0
230
1
 70
8
 71
1
 72
4
 73
2
 74
0
 40
0
 40
0
 40
0.223607
 40
0.223607
 10
5.77099
 20
3.00787
 30
0
 10
5.7554
 20
3.03906
 30
0
  0
SPLINE
  5
C03
330
A02
100
AcDbEntity
  8
Shape2DView027
100
AcDbSpline
210
0
220
0
230
1
 70
8
 71
1
 72
4
 73
2
 74
0
 40
0
 40
0
 40
0.223607
 40
0.223607
 10
5.7554
 20
3.03906
 30
0
 10
5.7398
 20
3.07025
 30
0
  0
SPLINE
  5
C04
330
A02
100
AcDbEntity
  8
Shape2DView027
100
AcDbSpline
210
0
220
0
230
1
 70
8
 71
1
 72
4
 73
2
 74
0
 40
0
 40
0
 40
0.223607
 40
0.223607
 10
5.7398
 20
3.07025
 30
0
 10
5.72421
 20
3.10144
 30
0
  0
SPLINE
  5
C05
330
A02
100
AcDbEntity
  8
Shape2DView027
100
AcDbSpline
210
0
220
0
230
1
 70
8
 71
1
 72
4
 73
2
 74
0
 40
0
 40
0
 40
0.1
 40
0.1
 10
5.72421
 20
3.10144
 30
0
 10
5.72421
 20
3.11704
 30
0
  0
SPLINE
  5
C06
330
A02
100
AcDbEntity
  8
Shape2DView027
100
AcDbSpline
210
0
220
0
230
1
 70
8
 71
1
 72
4
 73
2
 74
0
 40
0
 40
0
 40
0.1
 40
0.1
 10
5.72421
 20
3.11704
 30
0
 10
5.72421
 20
3.13263
 30
0
  0
SPLINE
  5
C07
330
A02
100
AcDbEntity
  8
Shape2DView027
100
AcDbSpline
210
0
220
0
230
1
 70
8
 71
1
 72
4
 73
2
 74
0
 40
0
 40
0
 40
0.223607
 40
0.223607
 10
5.72421
 20
3.13263
 30
0
 10
5.70862
 20
3.16382
 30
0
  0
SPLINE
  5
C08
330
A02
100
AcDbEntity
  8
Shape2DView027
100
AcDbSpline
210
0
220
0
230
1
 70
8
 71
1
 72
4
 73
2
 74
0
 40
0
 40
0
 40
0.223607
 40
0.223607
 10
5.70862
 20
3.16382
 30
0
 10
5.69302
 20
3.19501
 30
0
  0
SPLINE
  5
C09
330
A02
100
AcDbEntity
  8
Shape2DView027
100
AcDbSpline
210
0
220
0
230
1
 70
8
 71
1
 72
4
 73
2
 74
0
 40
0
 40
0
 40
0.3
 40
0.3
 10
5.69302
 20
3.19501
 30
0
 10
5.69302
 20
3.2418
 30
0
  0
SPLINE
  5
C0A
330
A02
100
AcDbEntity
  8
Shape2DView027
100
AcDbSpline
210
0
220
0
230
1
 70
8
 71
1
 72
4
 73
2
 74
0
 40
0
 40
0
 40
0.223607
 40
0.223607
 10
5.69302
 20
3.2418
 30
0
 10
5.67743
 20
3.27299
 30
0
  0
SPLINE
  5
C0B
330
A02
100
AcDbEntity
  8
Shape2DView027
100
AcDbSpline
210
0
220
0
230
1
 70
8
 71
1
 72
4
 73
2
 74
0
 40
0
 40
0
 40
3.32415
 40
3.32415
 10
5.67743
 20
3.27299
 30
0
 10
5.31874
 20
3.64726
 30
0
  0
SPLINE
  5
C0C
330
A02
100
AcDbEntity
  8
Shape2DView027
100
AcDbSpline
210
0
220
0
230
1
 70
8
 71
1
 72
4
 73
2
 74
0
 40
0
 40
0
 40
0.223607
 40
0.223607
 10
5.31874
 20
3.64726
 30
0
 10
5.28755
 20
3.63167
 30
0
  0
SPLINE
  5
C0D
330
A02
100
AcDbEntity
  8
Shape2DView027
100
AcDbSpline
210
0
220
0
230
1
 70
8
 71
1
 72
4
 73
2
 74
0
 40
0
 40
0
 40
0.316228
 40
0.316228
 10
5.28755
 20
3.63167
 30
0
 10
5.24077
 20
3.61607
 30
0
  0
SPLINE
  5
C0E
330
A02
100
AcDbEntity
  8
Shape2DView027
100
AcDbSpline
210
0
220
0
230
1
 70
8
 71
1
 72
4
 73
2
 74
0
 40
0
 40
0
 40
0.223607
 40
0.223607
 10
5.24077
 20
3.61607
 30
0
 10
5.20958
 20
3.60048
 30
0
  0
SPLINE
  5
C0F
330
A02
100
AcDbEntity
  8
Shape2DView027
100
AcDbSpline
210
0
220
0
230
1
 70
8
 71
1
 72
4
 73
2
 74
0
 40
0
 40
0
 40
0.3
 40
0.3
 10
5.20958
 20
3.60048
 30
0
 10
5.1628
 20
3.60048
 30
0
  0
SPLINE
  5
C10
330
A02
100
AcDbEntity
  8
Shape2DView027
100
AcDbSpline
210
0
220
0
230
1
 70
8
 71
1
 72
4
 73
2
 74
0
 40
0
 40
0
 40
0.223607
 40
0.223607
 10
5.1628
 20
3.60048
 30
0
 10
5.13161
 20
3.58488
 30
0
  0
SPLINE
  5
C11
330
A02
100
AcDbEntity
  8
Shape2DView027
100
AcDbSpline
210
0
220
0
230
1
 70
8
 71
1
 72
4
 73
2
 74
0
 40
0
 40
0
 40
0.223607
 40
0.223607
 10
5.13161
 20
3.58488
 30
0
 10
5.10042
 20
3.56929
 30
0
  0
SPLINE
  5
C12
330
A02
100
AcDbEntity
  8
Shape2DView027
100
AcDbSpline
210
0
220
0
230
1
 70
8
 71
1
 72
4
 73
2
 74
0
 40
0
 40
0
 40
0.223607
 40
0.223607
 10
5.10042
 20
3.56929
 30
0
 10
5.06923
 20
3.55369
 30
0
  0
SPLINE
  5
C13
330
A02
100
AcDbEntity
  8
Shape2DView027
100
AcDbSpline
210
0
220
0
230
1
 70
8
 71
1
 72
4
 73
2
 74
0
 40
0
 40
0
 40
0.223607
 40
0.223607
 10
5.06923
 20
3.55369
 30
0
 10
5.03804
 20
3.5381
 30
0
  0
SPLINE
  5
C14
330
A02
100
AcDbEntity
  8
Shape2DView027
100
AcDbSpline
210
0
220
0
230
1
 70
8
 71
1
 72
4
 73
2
 74
0
 40
0
 40
0
 40
0.223607
 40
0.223607
 10
5.03804
 20
3.5381
 30
0
 10
5.00685
 20
3.5225
 30
0
  0
SPLINE
  5
C15
330
A02
100
AcDbEntity
  8
Shape2DView027
100
AcDbSpline
210
0
220
0
230
1
 70
8
 71
1
 72
4
 73
2
 74
0
 40
0
 40
0
 40
0.223607
 40
0.223607
 10
5.00685
 20
3.5225
 30
0
 10
4.97566
 20
3.50691
 30
0
  0
SPLINE
  5
C16
330
A02
100
AcDbEntity
  8
Shape2DView027
100
AcDbSpline
210
0
220
0
230
1
 70
8
 71
1
 72
4
 73
2
 74
0
 40
0
 40
0
 40
0.141421
 40
0.141421
 10
4.97566
 20
3.50691
 30
0
 10
4.96006
 20
3.49131
 30
0
  0
SPLINE
  5
C17
330
A02
100
AcDbEntity
  8
Shape2DView027
100
AcDbSpline
210
0
220
0
230
1
 70
8
 71
1
 72
4
 73
2
 74
0
 40
0
 40
0
 40
0.223607
 40
0.223607
 10
4.96006
 20
3.49131
 30
0
 10
4.92887
 20
3.47572
 30
0
  0
SPLINE
  5
C18
330
A02
100
AcDbEntity
  8
Shape2DView027
100
AcDbSpline
210
0
220
0
230
1
 70
8
 71
1
 72
4
 73
2
 74
0
 40
0
 40
0
 40
0.141421
 40
0.141421
 10
4.92887
 20
3.47572
 30
0
 10
4.91328
 20
3.46012
 30
0
  0
SPLINE
  5
C19
330
A02
100
AcDbEntity
  8
Shape2DView027
100
AcDbSpline
210
0
220
0
230
1
 70
8
 71
1
 72
4
 73
2
 74
0
 40
0
 40
0
 40
0.223607
 40
0.223607
 10
4.91328
 20
3.46012
 30
0
 10
4.89768
 20
3.42893
 30
0
  0
SPLINE
  5
C1A
330
A02
100
AcDbEntity
  8
Shape2DView027
100
AcDbSpline
210
0
220
0
230
1
 70
8
 71
1
 72
4
 73
2
 74
0
 40
0
 40
0
 40
0.223607
 40
0.223607
 10
4.89768
 20
3.42893
 30
0
 10
4.86649
 20
3.41334
 30
0
  0
SPLINE
  5
C1B
330
A02
100
AcDbEntity
  8
Shape2DView027
100
AcDbSpline
210
0
220
0
230
1
 70
8
 71
1
 72
4
 73
2
 74
0
 40
0
 40
0
 40
0.141421
 40
0.141421
 10
4.86649
 20
3.41334
 30
0
 10
4.8509
 20
3.39774
 30
0
  0
SPLINE
  5
C1C
330
A02
100
AcDbEntity
  8
Shape2DView027
100
AcDbSpline
210
0
220
0
230
1
 70
8
 71
1
 72
4
 73
2
 74
0
 40
0
 40
0
 40
0.223607
 40
0.223607
 10
4.8509
 20
3.39774
 30
0
 10
4.8353
 20
3.36655
 30
0
  0
SPLINE
  5
C1D
330
A02
100
AcDbEntity
  8
Shape2DView027
100
AcDbSpline
210
0
220
0
230
1
 70
8
 71
1
 72
4
 73
2
 74
0
 40
0
 40
0
 40
0.223607
 40
0.223607
 10
4.8353
 20
3.36655
 30
0
 10
4.81971
 20
3.33537
 30
0
  0
SPLINE
  5
C1E
330
A02
100
AcDbEntity
  8
Shape2DView027
100
AcDbSpline
210
0
220
0
230
1
 70
8
 71
1
 72
4
 73
2
 74
0
 40
0
 40
0
 40
0.141421
 40
0.141421
 10
4.81971
 20
3.33537
 30
0
 10
4.80412
 20
3.31977
 30
0
  0
SPLINE
  5
C1F
330
A02
100
AcDbEntity
  8
Shape2DView027
100
AcDbSpline
210
0
220
0
230
1
 70
8
 71
1
 72
4
 73
2
 74
0
 40
0
 40
0
 40
0.223607
 40
0.223607
 10
4.80412
 20
3.31977
 30
0
 10
4.78852
 20
3.28858
 30
0
  0
SPLINE
  5
C20
330
A02
100
AcDbEntity
  8
Shape2DView027
100
AcDbSpline
210
0
220
0
230
1
 70
8
 71
1
 72
4
 73
2
 74
0
 40
0
 40
0
 40
0.223607
 40
0.223607
 10
4.78852
 20
3.28858
 30
0
 10
4.77293
 20
3.25739
 30
0
  0
SPLINE
  5
C21
330
A02
100
AcDbEntity
  8
Shape2DView027
100
AcDbSpline
210
0
220
0
230
1
 70
8
 71
1
 72
4
 73
2
 74
0
 40
0
 40
0
 40
0.2
 40
0.2
 10
4.77293
 20
3.25739
 30
0
 10
4.77293
 20
3.2262
 30
0
  0
SPLINE
  5
C22
330
A02
100
AcDbEntity
  8
Shape2DView027
100
AcDbSpline
210
0
220
0
230
1
 70
8
 71
1
 72
4
 73
2
 74
0
 40
0
 40
0
 40
0.223607
 40
0.223607
 10
4.77293
 20
3.2262
 30
0
 10
4.75733
 20
3.19501
 30
0
  0
SPLINE
  5
C23
330
A02
100
AcDbEntity
  8
Shape2DView027
100
AcDbSpline
210
0
220
0
230
1
 70
8
 71
1
 72
4
 73
2
 74
0
 40
0
 40
0
 40
0.3
 40
0.3
 10
4.75733
 20
3.19501
 30
0
 10
4.75733
 20
3.14823
 30
0
  0
SPLINE
  5
C24
330
A02
100
AcDbEntity
  8
Shape2DView027
100
AcDbSpline
210
0
220
0
230
1
 70
8
 71
1
 72
4
 73
2
 74
0
 40
0
 40
0
 40
3.22025
 40
3.22025
 10
4.75733
 20
3.14823
 30
0
 10
5.05363
 20
2.74276
 30
0
  0
SPLINE
  5
C25
330
A02
100
AcDbEntity
  8
Shape2DView027
100
AcDbSpline
210
0
220
0
230
1
 70
8
 71
1
 72
4
 73
2
 74
0
 40
0
 40
0
 40
0.223607
 40
0.223607
 10
5.05363
 20
2.74276
 30
0
 10
5.08482
 20
2.72717
 30
0
  0
SPLINE
  5
C26
330
A02
100
AcDbEntity
  8
Shape2DView027
100
AcDbSpline
210
0
220
0
230
1
 70
8
 71
1
 72
4
 73
2
 74
0
 40
0
 40
0
 40
0.3
 40
0.3
 10
5.08482
 20
2.72717
 30
0
 10
5.13161
 20
2.72717
 30
0
  0
SPLINE
  5
C27
330
A02
100
AcDbEntity
  8
Shape2DView027
100
AcDbSpline
210
0
220
0
230
1
 70
8
 71
1
 72
4
 73
2
 74
0
 40
0
 40
0
 40
0.223607
 40
0.223607
 10
5.13161
 20
2.72717
 30
0
 10
5.1628
 20
2.71157
 30
0
  0
SPLINE
  5
C28
330
A02
100
AcDbEntity
  8
Shape2DView027
100
AcDbSpline
210
0
220
0
230
1
 70
8
 71
1
 72
4
 73
2
 74
0
 40
0
 40
0
 40
0.2
 40
0.2
 10
5.1628
 20
2.71157
 30
0
 10
5.19399
 20
2.71157
 30
0
  0
SPLINE
  5
C29
330
A02
100
AcDbEntity
  8
Shape2DView027
100
AcDbSpline
210
0
220
0
230
1
 70
8
 71
1
 72
4
 73
2
 74
0
 40
0
 40
0
 40
0.447214
 40
0.447214
 10
5.19399
 20
2.71157
 30
0
 10
5.25637
 20
2.68038
 30
0
  0
SPLINE
  5
C2A
330
A02
100
AcDbEntity
  8
Shape2DView027
100
AcDbSpline
210
0
220
0
230
1
 70
8
 71
1
 72
4
 73
2
 74
0
 40
0
 40
0
 40
0.447214
 40
0.447214
 10
5.25637
 20
2.68038
 30
0
 10
5.31874
 20
2.64919
 30
0
  0
SPLINE
  5
C2B
330
A02
100
AcDbEntity
  8
Shape2DView027
100
AcDbSpline
210
0
220
0
230
1
 70
8
 71
1
 72
4
 73
2
 74
0
 40
0
 40
0
 40
0.447214
 40
0.447214
 10
5.31874
 20
2.64919
 30
0
 10
5.38112
 20
2.618
 30
0
  0
SPLINE
  5
C2C
330
A02
100
AcDbEntity
  8
Shape2DView027
100
AcDbSpline
210
0
220
0
230
1
 70
8
 71
1
 72
4
 73
2
 74
0
 40
0
 40
0
 40
0.360555
 40
0.360555
 10
5.38112
 20
2.618
 30
0
 10
5.42791
 20
2.58681
 30
0
  0
SPLINE
  5
C2D
330
A02
100
AcDbEntity
  8
Shape2DView027
100
AcDbSpline
210
0
220
0
230
1
 70
8
 71
1
 72
4
 73
2
 74
0
 40
0
 40
0
 40
0.223607
 40
0.223607
 10
5.42791
 20
2.58681
 30
0
 10
5.4435
 20
2.55562
 30
0
  0
SPLINE
  5
C2E
330
A02
100
AcDbEntity
  8
Shape2DView027
100
AcDbSpline
210
0
220
0
230
1
 70
8
 71
1
 72
4
 73
2
 74
0
 40
0
 40
0
 40
0.141421
 40
0.141421
 10
5.4435
 20
2.55562
 30
0
 10
5.4591
 20
2.54003
 30
0
  0
SPLINE
  5
C2F
330
A02
100
AcDbEntity
  8
Shape2DView027
100
AcDbSpline
210
0
220
0
230
1
 70
8
 71
1
 72
4
 73
2
 74
0
 40
0
 40
0
 40
0.282843
 40
0.282843
 10
5.4591
 20
2.54003
 30
0
 10
5.49029
 20
2.50884
 30
0
  0
SPLINE
  5
C30
330
A02
100
AcDbEntity
  8
Shape2DView027
100
AcDbSpline
210
0
220
0
230
1
 70
8
 71
1
 72
4
 73
2
 74
0
 40
0
 40
0
 40
0.141421
 40
0.141421
 10
5.49029
 20
2.50884
 30
0
 10
5.50588
 20
2.49324
 30
0
  0
SPLINE
  5
C31
330
A02
100
AcDbEntity
  8
Shape2DView027
100
AcDbSpline
210
0
220
0
230
1
 70
8
 71
1
 72
4
 73
2
 74
0
 40
0
 40
0
 40
0.223607
 40
0.223607
 10
5.50588
 20
2.49324
 30
0
 10
5.52148
 20
2.46205
 30
0
  0
SPLINE
  5
C32
330
A02
100
AcDbEntity
  8
Shape2DView027
100
AcDbSpline
210
0
220
0
230
1
 70
8
 71
1
 72
4
 73
2
 74
0
 40
0
 40
0
 40
0.223607
 40
0.223607
 10
5.52148
 20
2.46205
 30
0
 10
5.53707
 20
2.43087
 30
0
  0
SPLINE
  5
C33
330
A02
100
AcDbEntity
  8
Shape2DView027
100
AcDbSpline
210
0
220
0
230
1
 70
8
 71
1
 72
4
 73
2
 74
0
 40
0
 40
0
 40
0.2
 40
0.2
 10
5.53707
 20
2.43087
 30
0
 10
5.53707
 20
2.39968
 30
0
  0
SPLINE
  5
C34
330
A02
100
AcDbEntity
  8
Shape2DView027
100
AcDbSpline
210
0
220
0
230
1
 70
8
 71
1
 72
4
 73
2
 74
0
 40
0
 40
0
 40
0.223607
 40
0.223607
 10
5.53707
 20
2.39968
 30
0
 10
5.55267
 20
2.36849
 30
0
  0
SPLINE
  5
C35
330
A02
100
AcDbEntity
  8
Shape2DView027
100
AcDbSpline
210
0
220
0
230
1
 70
8
 71
1
 72
4
 73
2
 74
0
 40
0
 40
0
 40
0.141421
 40
0.141421
 10
5.55267
 20
2.36849
 30
0
 10
5.56826
 20
2.35289
 30
0
  0
SPLINE
  5
C36
330
A02
100
AcDbEntity
  8
Shape2DView027
100
AcDbSpline
210
0
220
0
230
1
 70
8
 71
1
 72
4
 73
2
 74
0
 40
0
 40
0
 40
0.3
 40
0.3
 10
5.56826
 20
2.35289
 30
0
 10
5.56826
 20
2.30611
 30
0
  0
SPLINE
  5
C37
330
A02
100
AcDbEntity
  8
Shape2DView027
100
AcDbSpline
210
0
220
0
230
1
 70
8
 71
1
 72
4
 73
2
 74
0
 40
0
 40
0
 40
0.223607
 40
0.223607
 10
5.56826
 20
2.30611
 30
0
 10
5.58386
 20
2.27492
 30
0
  0
SPLINE
  5
C38
330
A02
100
AcDbEntity
  8
Shape2DView027
100
AcDbSpline
210
0
220
0
230
1
 70
8
 71
1
 72
4
 73
2
 74
0
 40
0
 40
0
 40
0.2
 40
0.2
 10
5.58386
 20
2.27492
 30
0
 10
5.58386
 20
2.24373
 30
0
  0
SPLINE
  5
C39
330
A02
100
AcDbEntity
  8
Shape2DView027
100
AcDbSpline
210
0
220
0
230
1
 70
8
 71
1
 72
4
 73
2
 74
0
 40
0
 40
0
 40
0.223607
 40
0.223607
 10
5.58386
 20
2.24373
 30
0
 10
5.59945
 20
2.21254
 30
0
  0
SPLINE
  5
C3A
330
A02
100
AcDbEntity
  8
Shape2DView027
100
AcDbSpline
210
0
220
0
230
1
 70
8
 71
1
 72
4
 73
2
 74
0
 40
0
 40
0
 40
0.3
 40
0.3
 10
5.59945
 20
2.21254
 30
0
 10
5.59945
 20
2.16575
 30
0
  0
SPLINE
  5
C3B
330
A02
100
AcDbEntity
  8
Shape2DView027
100
AcDbSpline
210
0
220
0
230
1
 70
8
 71
1
 72
4
 73
2
 74
0
 40
0
 40
0
 40
0.2
 40
0.2
 10
5.59945
 20
2.16575
 30
0
 10
5.59945
 20
2.13456
 30
0
  0
SPLINE
  5
C3C
330
A02
100
AcDbEntity
  8
Shape2DView027
100
AcDbSpline
210
0
220
0
230
1
 70
8
 71
1
 72
4
 73
2
 74
0
 40
0
 40
0
 40
0.3
 40
0.3
 10
5.59945
 20
2.13456
 30
0
 10
5.59945
 20
2.08778
 30
0
  0
SPLINE
  5
C3D
330
A02
100
AcDbEntity
  8
Shape2DView027
100
AcDbSpline
210
0
220
0
230
1
 70
8
 71
1
 72
4
 73
2
 74
0
 40
0
 40
0
 40
0.5
 40
0.5
 10
5.59945
 20
2.08778
 30
0
 10
5.59945
 20
2.0098
 30
0
  0
SPLINE
  5
C3E
330
A02
100
AcDbEntity
  8
Shape2DView027
100
AcDbSpline
210
0
220
0
230
1
 70
8
 71
1
 72
4
 73
2
 74
0
 40
0
 40
0
 40
0.608276
 40
0.608276
 10
5.59945
 20
2.0098
 30
0
 10
5.58386
 20
1.91624
 30
0
  0
SPLINE
  5
C3F
330
A02
100
AcDbEntity
  8
Shape2DView027
100
AcDbSpline
210
0
220
0
230
1
 70
8
 71
1
 72
4
 73
2
 74
0
 40
0
 40
0
 40
0.223607
 40
0.223607
 10
5.58386
 20
1.91624
 30
0
 10
5.55267
 20
1.90064
 30
0
  0
SPLINE
  5
C40
330
A02
100
AcDbEntity
  8
Shape2DView027
100
AcDbSpline
210
0
220
0
230
1
 70
8
 71
1
 72
4
 73
2
 74
0
 40
0
 40
0
 40
0.141421
 40
0.141421
 10
5.55267
 20
1.90064
 30
0
 10
5.53707
 20
1.88505
 30
0
  0
SPLINE
  5
C41
330
A02
100
AcDbEntity
  8
Shape2DView027
100
AcDbSpline
210
0
220
0
230
1
 70
8
 71
1
 72
4
 73
2
 74
0
 40
0
 40
0
 40
0.360555
 40
0.360555
 10
5.53707
 20
1.88505
 30
0
 10
5.49029
 20
1.85386
 30
0
  0
SPLINE
  5
C42
330
A02
100
AcDbEntity
  8
Shape2DView027
100
AcDbSpline
210
0
220
0
230
1
 70
8
 71
1
 72
4
 73
2
 74
0
 40
0
 40
0
 40
0.223607
 40
0.223607
 10
5.49029
 20
1.85386
 30
0
 10
5.47469
 20
1.82267
 30
0
  0
SPLINE
  5
C43
330
A02
100
AcDbEntity
  8
Shape2DView027
100
AcDbSpline
210
0
220
0
230
1
 70
8
 71
1
 72
4
 73
2
 74
0
 40
0
 40
0
 40
0.223607
 40
0.223607
 10
5.47469
 20
1.82267
 30
0
 10
5.4435
 20
1.80707
 30
0
  0
SPLINE
  5
C44
330
A02
100
AcDbEntity
  8
Shape2DView027
100
AcDbSpline
210
0
220
0
230
1
 70
8
 71
1
 72
4
 73
2
 74
0
 40
0
 40
0
 40
0.282843
 40
0.282843
 10
5.4435
 20
1.80707
 30
0
 10
5.41231
 20
1.77588
 30
0
  0
SPLINE
  5
C45
330
A02
100
AcDbEntity
  8
Shape2DView027
100
AcDbSpline
210
0
220
0
230
1
 70
8
 71
1
 72
4
 73
2
 74
0
 40
0
 40
0
 40
0.141421
 40
0.141421
 10
5.41231
 20
1.77588
 30
0
 10
5.39672
 20
1.76029
 30
0
  0
SPLINE
  5
C46
330
A02
100
AcDbEntity
  8
Shape2DView027
100
AcDbSpline
210
0
220
0
230
1
 70
8
 71
1
 72
4
 73
2
 74
0
 40
0
 40
0
 40
0.141421
 40
0.141421
 10
5.39672
 20
1.76029
 30
0
 10
5.38112
 20
1.74469
 30
0
  0
SPLINE
  5
C47
330
A02
100
AcDbEntity
  8
Shape2DView027
100
AcDbSpline
210
0
220
0
230
1
 70
8
 71
1
 72
4
 73
2
 74
0
 40
0
 40
0
 40
0.2
 40
0.2
 10
5.38112
 20
1.74469
 30
0
 10
5.38112
 20
1.7135
 30
0
  0
SPLINE
  5
C48
330
A02
100
AcDbEntity
  8
Shape2DView027
100
AcDbSpline
210
0
220
0
230
1
 70
8
 71
1
 72
4
 73
2
 74
0
 40
0
 40
0
 40
0.141421
 40
0.141421
 10
5.38112
 20
1.7135
 30
0
 10
5.36553
 20
1.69791
 30
0
  0
SPLINE
  5
C49
330
A02
100
AcDbEntity
  8
Shape2DView027
100
AcDbSpline
210
0
220
0
230
1
 70
8
 71
1
 72
4
 73
2
 74
0
 40
0
 40
0
 40
0.223607
 40
0.223607
 10
5.36553
 20
1.69791
 30
0
 10
5.34993
 20
1.66672
 30
0
  0
SPLINE
  5
C4A
330
A02
100
AcDbEntity
  8
Shape2DView027
100
AcDbSpline
210
0
220
0
230
1
 70
8
 71
1
 72
4
 73
2
 74
0
 40
0
 40
0
 40
0.2
 40
0.2
 10
5.34993
 20
1.66672
 30
0
 10
5.34993
 20
1.63553
 30
0
  0
SPLINE
  5
C4B
330
A02
100
AcDbEntity
  8
Shape2DView027
100
AcDbSpline
210
0
220
0
230
1
 70
8
 71
1
 72
4
 73
2
 74
0
 40
0
 40
0
 40
0.141421
 40
0.141421
 10
5.34993
 20
1.63553
 30
0
 10
5.33434
 20
1.61993
 30
0
  0
SPLINE
  5
C4C
330
A02
100
AcDbEntity
  8
Shape2DView027
100
AcDbSpline
210
0
220
0
230
1
 70
8
 71
1
 72
4
 73
2
 74
0
 40
0
 40
0
 40
1.34536
 40
1.34536
 10
5.33434
 20
1.61993
 30
0
 10
5.19399
 20
1.46399
 30
0
  0
SPLINE
  5
C4D
330
A02
100
AcDbEntity
  8
Shape2DView027
100
AcDbSpline
210
0
220
0
230
1
 70
8
 71
1
 72
4
 73
2
 74
0
 40
0
 40
0
 40
0.360555
 40
0.360555
 10
5.19399
 20
1.46399
 30
0
 10
5.1472
 20
1.4328
 30
0
  0
SPLINE
  5
C4E
330
A02
100
AcDbEntity
  8
Shape2DView027
100
AcDbSpline
210
0
220
0
230
1
 70
8
 71
1
 72
4
 73
2
 74
0
 40
0
 40
0
 40
0.141421
 40
0.141421
 10
5.1472
 20
1.4328
 30
0
 10
5.13161
 20
1.4172
 30
0
  0
SPLINE
  5
C4F
330
A02
100
AcDbEntity
  8
Shape2DView027
100
AcDbSpline
210
0
220
0
230
1
 70
8
 71
1
 72
4
 73
2
 74
0
 40
0
 40
0
 40
0.223607
 40
0.223607
 10
5.13161
 20
1.4172
 30
0
 10
5.11601
 20
1.38601
 30
0
  0
SPLINE
  5
C50
330
A02
100
AcDbEntity
  8
Shape2DView027
100
AcDbSpline
210
0
220
0
230
1
 70
8
 71
1
 72
4
 73
2
 74
0
 40
0
 40
0
 40
0.707107
 40
0.707107
 10
5.11601
 20
1.38601
 30
0
 10
5.03804
 20
1.30804
 30
0
  0
SPLINE
  5
C51
330
A02
100
AcDbEntity
  8
Shape2DView027
100
AcDbSpline
210
0
220
0
230
1
 70
8
 71
1
 72
4
 73
2
 74
0
 40
0
 40
0
 40
0.640312
 40
0.640312
 10
5.03804
 20
1.30804
 30
0
 10
4.96006
 20
1.24566
 30
0
  0
SPLINE
  5
C52
330
A02
100
AcDbEntity
  8
Shape2DView027
100
AcDbSpline
210
0
220
0
230
1
 70
8
 71
1
 72
4
 73
2
 74
0
 40
0
 40
0
 40
0.707107
 40
0.707107
 10
4.96006
 20
1.24566
 30
0
 10
4.88209
 20
1.16768
 30
0
  0
SPLINE
  5
C53
330
A02
100
AcDbEntity
  8
Shape2DView027
100
AcDbSpline
210
0
220
0
230
1
 70
8
 71
1
 72
4
 73
2
 74
0
 40
0
 40
0
 40
0.707107
 40
0.707107
 10
4.88209
 20
1.16768
 30
0
 10
4.80412
 20
1.08971
 30
0
  0
SPLINE
  5
C54
330
A02
100
AcDbEntity
  8
Shape2DView027
100
AcDbSpline
210
0
220
0
230
1
 70
8
 71
1
 72
4
 73
2
 74
0
 40
0
 40
0
 40
0.282843
 40
0.282843
 10
4.80412
 20
1.08971
 30
0
 10
4.77293
 20
1.05852
 30
0
  0
SPLINE
  5
C55
330
A02
100
AcDbEntity
  8
Shape2DView027
100
AcDbSpline
210
0
220
0
230
1
 70
8
 71
1
 72
4
 73
2
 74
0
 40
0
 40
0
 40
0.424264
 40
0.424264
 10
4.77293
 20
1.05852
 30
0
 10
4.72614
 20
1.01174
 30
0
  0
SPLINE
  5
C56
330
A02
100
AcDbEntity
  8
Shape2DView027
100
AcDbSpline
210
0
220
0
230
1
 70
8
 71
1
 72
4
 73
2
 74
0
 40
0
 40
0
 40
0.565685
 40
0.565685
 10
4.72614
 20
1.01174
 30
0
 10
4.66376
 20
0.949357
 30
0
  0
SPLINE
  5
C57
330
A02
100
AcDbEntity
  8
Shape2DView027
100
AcDbSpline
210
0
220
0
230
1
 70
8
 71
1
 72
4
 73
2
 74
0
 40
0
 40
0
 40
0.707107
 40
0.707107
 10
4.66376
 20
0.949357
 30
0
 10
4.58579
 20
0.871383
 30
0
  0
SPLINE
  5
C58
330
A02
100
AcDbEntity
  8
Shape2DView027
100
AcDbSpline
210
0
220
0
230
1
 70
8
 71
1
 72
4
 73
2
 74
0
 40
0
 40
0
 40
4.25206
 40
4.25206
 10
4.58579
 20
0.871383
 30
0
 10
4.08675
 20
0.434728
 30
0
  0
SPLINE
  5
C59
330
A02
100
AcDbEntity
  8
Shape2DView027
100
AcDbSpline
210
0
220
0
230
1
 70
8
 71
1
 72
4
 73
2
 74
0
 40
0
 40
0
 40
1.5
 40
1.5
 10
4.08675
 20
0.434728
 30
0
 10
4.08675
 20
0.200805
 30
0
  0
SPLINE
  5
C5A
330
A02
100
AcDbEntity
  8
Shape2DView027
100
AcDbSpline
210
0
220
0
230
1
 70
8
 71
1
 72
4
 73
2
 74
0
 40
0
 40
0
 40
3.33017
 40
3.33017
 10
4.08675
 20
0.200805
 30
0
 10
4.47662
 20
-0.142281
 30
0
  0
SPLINE
  5
C5B
330
A02
100
AcDbEntity
  8
Shape2DView027
100
AcDbSpline
210
0
220
0
230
1
 70
8
 71
1
 72
4
 73
2
 74
0
 40
0
 40
0
 40
0.1
 40
0.1
 10
4.47662
 20
-0.142281
 30
0
 10
4.49222
 20
-0.142281
 30
0
  0
SPLINE
  5
C5C
330
A02
100
AcDbEntity
  8
Shape2DView027
100
AcDbSpline
210
0
220
0
230
1
 70
8
 71
1
 72
4
 73
2
 74
0
 40
0
 40
0
 40
4.46878
 40
4.46878
 10
4.49222
 20
-0.142281
 30
0
 10
5.02244
 20
0.309969
 30
0
  0
SPLINE
  5
C5D
330
A02
100
AcDbEntity
  8
Shape2DView027
100
AcDbSpline
210
0
220
0
230
1
 70
8
 71
1
 72
4
 73
2
 74
0
 40
0
 40
0
 40
1.28062
 40
1.28062
 10
5.02244
 20
0.309969
 30
0
 10
5.17839
 20
0.434728
 30
0
  0
SPLINE
  5
C5E
330
A02
100
AcDbEntity
  8
Shape2DView027
100
AcDbSpline
210
0
220
0
230
1
 70
8
 71
1
 72
4
 73
2
 74
0
 40
0
 40
0
 40
1.28062
 40
1.28062
 10
5.17839
 20
0.434728
 30
0
 10
5.33434
 20
0.559486
 30
0
  0
SPLINE
  5
C5F
330
A02
100
AcDbEntity
  8
Shape2DView027
100
AcDbSpline
210
0
220
0
230
1
 70
8
 71
1
 72
4
 73
2
 74
0
 40
0
 40
0
 40
1.34536
 40
1.34536
 10
5.33434
 20
0.559486
 30
0
 10
5.49029
 20
0.69984
 30
0
  0
SPLINE
  5
C60
330
A02
100
AcDbEntity
  8
Shape2DView027
100
AcDbSpline
210
0
220
0
230
1
 70
8
 71
1
 72
4
 73
2
 74
0
 40
0
 40
0
 40
1.36015
 40
1.36015
 10
5.49029
 20
0.69984
 30
0
 10
5.66183
 20
0.824598
 30
0
  0
SPLINE
  5
C61
330
A02
100
AcDbEntity
  8
Shape2DView027
100
AcDbSpline
210
0
220
0
230
1
 70
8
 71
1
 72
4
 73
2
 74
0
 40
0
 40
0
 40
1.42127
 40
1.42127
 10
5.66183
 20
0.824598
 30
0
 10
5.83337
 20
0.964952
 30
0
  0
SPLINE
  5
C62
330
A02
100
AcDbEntity
  8
Shape2DView027
100
AcDbSpline
210
0
220
0
230
1
 70
8
 71
1
 72
4
 73
2
 74
0
 40
0
 40
0
 40
0.1
 40
0.1
 10
5.83337
 20
0.964952
 30
0
 10
5.84897
 20
0.964952
 30
0
  0
SPLINE
  5
C63
330
A02
100
AcDbEntity
  8
Shape2DView027
100
AcDbSpline
210
0
220
0
230
1
 70
8
 71
1
 72
4
 73
2
 74
0
 40
0
 40
0
 40
0.2
 40
0.2
 10
5.84897
 20
0.964952
 30
0
 10
5.88016
 20
0.964952
 30
0
  0
SPLINE
  5
C64
330
A02
100
AcDbEntity
  8
Shape2DView027
100
AcDbSpline
210
0
220
0
230
1
 70
8
 71
1
 72
4
 73
2
 74
0
 40
0
 40
0
 40
0.1
 40
0.1
 10
5.88016
 20
0.964952
 30
0
 10
5.89575
 20
0.964952
 30
0
  0
SPLINE
  5
C65
330
A02
100
AcDbEntity
  8
Shape2DView027
100
AcDbSpline
210
0
220
0
230
1
 70
8
 71
1
 72
4
 73
2
 74
0
 40
0
 40
0
 40
0.1
 40
0.1
 10
5.89575
 20
0.964952
 30
0
 10
5.91135
 20
0.964952
 30
0
  0
SPLINE
  5
C66
330
A02
100
AcDbEntity
  8
Shape2DView027
100
AcDbSpline
210
0
220
0
230
1
 70
8
 71
1
 72
4
 73
2
 74
0
 40
0
 40
0
 40
0.2
 40
0.2
 10
5.91135
 20
0.964952
 30
0
 10
5.94254
 20
0.964952
 30
0
  0
SPLINE
  5
C67
330
A02
100
AcDbEntity
  8
Shape2DView027
100
AcDbSpline
210
0
220
0
230
1
 70
8
 71
1
 72
4
 73
2
 74
0
 40
0
 40
0
 40
0.316228
 40
0.316228
 10
5.94254
 20
0.964952
 30
0
 10
5.98932
 20
0.980547
 30
0
  0
SPLINE
  5
C68
330
A02
100
AcDbEntity
  8
Shape2DView027
100
AcDbSpline
210
0
220
0
230
1
 70
8
 71
1
 72
4
 73
2
 74
0
 40
0
 40
0
 40
0.2
 40
0.2
 10
5.98932
 20
0.980547
 30
0
 10
6.02051
 20
0.980547
 30
0
  0
SPLINE
  5
C69
330
A02
100
AcDbEntity
  8
Shape2DView027
100
AcDbSpline
210
0
220
0
230
1
 70
8
 71
1
 72
4
 73
2
 74
0
 40
0
 40
0
 40
0.223607
 40
0.223607
 10
6.02051
 20
0.980547
 30
0
 10
6.0517
 20
0.996141
 30
0
  0
SPLINE
  5
C6A
330
A02
100
AcDbEntity
  8
Shape2DView027
100
AcDbSpline
210
0
220
0
230
1
 70
8
 71
1
 72
4
 73
2
 74
0
 40
0
 40
0
 40
0.2
 40
0.2
 10
6.0517
 20
0.996141
 30
0
 10
6.08289
 20
0.996141
 30
0
  0
SPLINE
  5
C6B
330
A02
100
AcDbEntity
  8
Shape2DView027
100
AcDbSpline
210
0
220
0
230
1
 70
8
 71
1
 72
4
 73
2
 74
0
 40
0
 40
0
 40
0.141421
 40
0.141421
 10
6.08289
 20
0.996141
 30
0
 10
6.09849
 20
1.01174
 30
0
  0
SPLINE
  5
C6C
330
A02
100
AcDbEntity
  8
Shape2DView027
100
AcDbSpline
210
0
220
0
230
1
 70
8
 71
1
 72
4
 73
2
 74
0
 40
0
 40
0
 40
0.1
 40
0.1
 10
6.09849
 20
1.01174
 30
0
 10
6.11408
 20
1.01174
 30
0
  0
SPLINE
  5
C6D
330
A02
100
AcDbEntity
  8
Shape2DView027
100
AcDbSpline
210
0
220
0
230
1
 70
8
 71
1
 72
4
 73
2
 74
0
 40
0
 40
0
 40
0.141421
 40
0.141421
 10
6.11408
 20
1.01174
 30
0
 10
6.12968
 20
1.02733
 30
0
  0
SPLINE
  5
C6E
330
A02
100
AcDbEntity
  8
Shape2DView027
100
AcDbSpline
210
0
220
0
230
1
 70
8
 71
1
 72
4
 73
2
 74
0
 40
0
 40
0
 40
0.316228
 40
0.316228
 10
6.12968
 20
1.02733
 30
0
 10
6.17646
 20
1.04293
 30
0
  0
SPLINE
  5
C6F
330
A02
100
AcDbEntity
  8
Shape2DView027
100
AcDbSpline
210
0
220
0
230
1
 70
8
 71
1
 72
4
 73
2
 74
0
 40
0
 40
0
 40
0.316228
 40
0.316228
 10
6.17646
 20
1.04293
 30
0
 10
6.22324
 20
1.05852
 30
0
  0
SPLINE
  5
C70
330
A02
100
AcDbEntity
  8
Shape2DView027
100
AcDbSpline
210
0
220
0
230
1
 70
8
 71
1
 72
4
 73
2
 74
0
 40
0
 40
0
 40
0.316228
 40
0.316228
 10
6.22324
 20
1.05852
 30
0
 10
6.27003
 20
1.07412
 30
0
  0
SPLINE
  5
C71
330
A02
100
AcDbEntity
  8
Shape2DView027
100
AcDbSpline
210
0
220
0
230
1
 70
8
 71
1
 72
4
 73
2
 74
0
 40
0
 40
0
 40
0.360555
 40
0.360555
 10
6.27003
 20
1.07412
 30
0
 10
6.31681
 20
1.10531
 30
0
  0
SPLINE
  5
C72
330
A02
100
AcDbEntity
  8
Shape2DView027
100
AcDbSpline
210
0
220
0
230
1
 70
8
 71
1
 72
4
 73
2
 74
0
 40
0
 40
0
 40
0.2
 40
0.2
 10
6.31681
 20
1.10531
 30
0
 10
6.348
 20
1.10531
 30
0
  0
SPLINE
  5
C73
330
A02
100
AcDbEntity
  8
Shape2DView027
100
AcDbSpline
210
0
220
0
230
1
 70
8
 71
1
 72
4
 73
2
 74
0
 40
0
 40
0
 40
0.223607
 40
0.223607
 10
6.348
 20
1.10531
 30
0
 10
6.37919
 20
1.1209
 30
0
  0
SPLINE
  5
C74
330
A02
100
AcDbEntity
  8
Shape2DView027
100
AcDbSpline
210
0
220
0
230
1
 70
8
 71
1
 72
4
 73
2
 74
0
 40
0
 40
0
 40
0.360555
 40
0.360555
 10
6.37919
 20
1.1209
 30
0
 10
6.42598
 20
1.15209
 30
0
  0
SPLINE
  5
C75
330
A02
100
AcDbEntity
  8
Shape2DView027
100
AcDbSpline
210
0
220
0
230
1
 70
8
 71
1
 72
4
 73
2
 74
0
 40
0
 40
0
 40
0.1
 40
0.1
 10
6.42598
 20
1.15209
 30
0
 10
6.44157
 20
1.15209
 30
0
  0
SPLINE
  5
C76
330
A02
100
AcDbEntity
  8
Shape2DView027
100
AcDbSpline
210
0
220
0
230
1
 70
8
 71
1
 72
4
 73
2
 74
0
 40
0
 40
0
 40
0.141421
 40
0.141421
 10
6.44157
 20
1.15209
 30
0
 10
6.45717
 20
1.16768
 30
0
  0
SPLINE
  5
C77
330
A02
100
AcDbEntity
  8
Shape2DView027
100
AcDbSpline
210
0
220
0
230
1
 70
8
 71
1
 72
4
 73
2
 74
0
 40
0
 40
0
 40
0.141421
 40
0.141421
 10
6.45717
 20
1.16768
 30
0
 10
6.47276
 20
1.18328
 30
0
  0
SPLINE
  5
C78
330
A02
100
AcDbEntity
  8
Shape2DView027
100
AcDbSpline
210
0
220
0
230
1
 70
8
 71
1
 72
4
 73
2
 74
0
 40
0
 40
0
 40
0.2
 40
0.2
 10
6.47276
 20
1.18328
 30
0
 10
6.50395
 20
1.18328
 30
0
  0
SPLINE
  5
C79
330
A02
100
AcDbEntity
  8
Shape2DView027
100
AcDbSpline
210
0
220
0
230
1
 70
8
 71
1
 72
4
 73
2
 74
0
 40
0
 40
0
 40
0.2
 40
0.2
 10
6.50395
 20
1.18328
 30
0
 10
6.53514
 20
1.18328
 30
0
  0
SPLINE
  5
C7A
330
A02
100
AcDbEntity
  8
Shape2DView027
100
AcDbSpline
210
0
220
0
230
1
 70
8
 71
1
 72
4
 73
2
 74
0
 40
0
 40
0
 40
0.1
 40
0.1
 10
6.53514
 20
1.18328
 30
0
 10
6.55074
 20
1.18328
 30
0
  0
SPLINE
  5
C7B
330
A02
100
AcDbEntity
  8
Shape2DView027
100
AcDbSpline
210
0
220
0
230
1
 70
8
 71
1
 72
4
 73
2
 74
0
 40
0
 40
0
 40
0.2
 40
0.2
 10
6.55074
 20
1.18328
 30
0
 10
6.58193
 20
1.18328
 30
0
  0
SPLINE
  5
C7C
330
A02
100
AcDbEntity
  8
Shape2DView027
100
AcDbSpline
210
0
220
0
230
1
 70
8
 71
1
 72
4
 73
2
 74
0
 40
0
 40
0
 40
0.1
 40
0.1
 10
6.58193
 20
1.18328
 30
0
 10
6.59752
 20
1.18328
 30
0
  0
SPLINE
  5
C7D
330
A02
100
AcDbEntity
  8
Shape2DView027
100
AcDbSpline
210
0
220
0
230
1
 70
8
 71
1
 72
4
 73
2
 74
0
 40
0
 40
0
 40
0.141421
 40
0.141421
 10
6.59752
 20
1.18328
 30
0
 10
6.61312
 20
1.16768
 30
0
  0
SPLINE
  5
C7E
330
A02
100
AcDbEntity
  8
Shape2DView027
100
AcDbSpline
210
0
220
0
230
1
 70
8
 71
1
 72
4
 73
2
 74
0
 40
0
 40
0
 40
0.223607
 40
0.223607
 10
6.61312
 20
1.16768
 30
0
 10
6.6443
 20
1.15209
 30
0
  0
SPLINE
  5
C7F
330
A02
100
AcDbEntity
  8
Shape2DView027
100
AcDbSpline
210
0
220
0
230
1
 70
8
 71
1
 72
4
 73
2
 74
0
 40
0
 40
0
 40
0.141421
 40
0.141421
 10
6.6443
 20
1.15209
 30
0
 10
6.6599
 20
1.13649
 30
0
  0
SPLINE
  5
C80
330
A02
100
AcDbEntity
  8
Shape2DView027
100
AcDbSpline
210
0
220
0
230
1
 70
8
 71
1
 72
4
 73
2
 74
0
 40
0
 40
0
 40
0.141421
 40
0.141421
 10
6.6599
 20
1.13649
 30
0
 10
6.67549
 20
1.1209
 30
0
  0
SPLINE
  5
C81
330
A02
100
AcDbEntity
  8
Shape2DView027
100
AcDbSpline
210
0
220
0
230
1
 70
8
 71
1
 72
4
 73
2
 74
0
 40
0
 40
0
 40
0.141421
 40
0.141421
 10
6.67549
 20
1.1209
 30
0
 10
6.69109
 20
1.10531
 30
0
  0
SPLINE
  5
C82
330
A02
100
AcDbEntity
  8
Shape2DView027
100
AcDbSpline
210
0
220
0
230
1
 70
8
 71
1
 72
4
 73
2
 74
0
 40
0
 40
0
 40
0.223607
 40
0.223607
 10
6.69109
 20
1.10531
 30
0
 10
6.70668
 20
1.07412
 30
0
  0
SPLINE
  5
C83
330
A02
100
AcDbEntity
  8
Shape2DView027
100
AcDbSpline
210
0
220
0
230
1
 70
8
 71
1
 72
4
 73
2
 74
0
 40
0
 40
0
 40
0.141421
 40
0.141421
 10
6.70668
 20
1.07412
 30
0
 10
6.72228
 20
1.05852
 30
0
  0
SPLINE
  5
C84
330
A02
100
AcDbEntity
  8
Shape2DView027
100
AcDbSpline
210
0
220
0
230
1
 70
8
 71
1
 72
4
 73
2
 74
0
 40
0
 40
0
 40
0.223607
 40
0.223607
 10
6.72228
 20
1.05852
 30
0
 10
6.73787
 20
1.02733
 30
0
  0
SPLINE
  5
C85
330
A02
100
AcDbEntity
  8
Shape2DView027
100
AcDbSpline
210
0
220
0
230
1
 70
8
 71
1
 72
4
 73
2
 74
0
 40
0
 40
0
 40
0.2
 40
0.2
 10
6.73787
 20
1.02733
 30
0
 10
6.73787
 20
0.996141
 30
0
  0
SPLINE
  5
C86
330
A02
100
AcDbEntity
  8
Shape2DView027
100
AcDbSpline
210
0
220
0
230
1
 70
8
 71
1
 72
4
 73
2
 74
0
 40
0
 40
0
 40
0.316228
 40
0.316228
 10
6.73787
 20
0.996141
 30
0
 10
6.75347
 20
0.949357
 30
0
  0
SPLINE
  5
C87
330
A02
100
AcDbEntity
  8
Shape2DView027
100
AcDbSpline
210
0
220
0
230
1
 70
8
 71
1
 72
4
 73
2
 74
0
 40
0
 40
0
 40
0.223607
 40
0.223607
 10
6.75347
 20
0.949357
 30
0
 10
6.76906
 20
0.918167
 30
0
  0
SPLINE
  5
C88
330
A02
100
AcDbEntity
  8
Shape2DView027
100
AcDbSpline
210
0
220
0
230
1
 70
8
 71
1
 72
4
 73
2
 74
0
 40
0
 40
0
 40
0.5
 40
0.5
 10
6.76906
 20
0.918167
 30
0
 10
6.83144
 20
0.871383
 30
0
  0
SPLINE
  5
C89
330
A02
100
AcDbEntity
  8
Shape2DView027
100
AcDbSpline
210
0
220
0
230
1
 70
8
 71
1
 72
4
 73
2
 74
0
 40
0
 40
0
 40
0.223607
 40
0.223607
 10
6.83144
 20
0.871383
 30
0
 10
6.84704
 20
0.840193
 30
0
  0
SPLINE
  5
C8A
330
A02
100
AcDbEntity
  8
Shape2DView027
100
AcDbSpline
210
0
220
0
230
1
 70
8
 71
1
 72
4
 73
2
 74
0
 40
0
 40
0
 40
0.282843
 40
0.282843
 10
6.84704
 20
0.840193
 30
0
 10
6.87823
 20
0.809003
 30
0
  0
SPLINE
  5
C8B
330
A02
100
AcDbEntity
  8
Shape2DView027
100
AcDbSpline
210
0
220
0
230
1
 70
8
 71
1
 72
4
 73
2
 74
0
 40
0
 40
0
 40
0.565685
 40
0.565685
 10
6.87823
 20
0.809003
 30
0
 10
6.94061
 20
0.746624
 30
0
  0
SPLINE
  5
C8C
330
A02
100
AcDbEntity
  8
Shape2DView027
100
AcDbSpline
210
0
220
0
230
1
 70
8
 71
1
 72
4
 73
2
 74
0
 40
0
 40
0
 40
0.5
 40
0.5
 10
6.94061
 20
0.746624
 30
0
 10
6.98739
 20
0.684245
 30
0
  0
SPLINE
  5
C8D
330
A02
100
AcDbEntity
  8
Shape2DView027
100
AcDbSpline
210
0
220
0
230
1
 70
8
 71
1
 72
4
 73
2
 74
0
 40
0
 40
0
 40
0.565685
 40
0.565685
 10
6.98739
 20
0.684245
 30
0
 10
7.04977
 20
0.621866
 30
0
  0
SPLINE
  5
C8E
330
A02
100
AcDbEntity
  8
Shape2DView027
100
AcDbSpline
210
0
220
0
230
1
 70
8
 71
1
 72
4
 73
2
 74
0
 40
0
 40
0
 40
0.5
 40
0.5
 10
7.04977
 20
0.621866
 30
0
 10
7.09655
 20
0.559486
 30
0
  0
SPLINE
  5
C8F
330
A02
100
AcDbEntity
  8
Shape2DView027
100
AcDbSpline
210
0
220
0
230
1
 70
8
 71
1
 72
4
 73
2
 74
0
 40
0
 40
0
 40
0.583095
 40
0.583095
 10
7.09655
 20
0.559486
 30
0
 10
7.14334
 20
0.481512
 30
0
  0
SPLINE
  5
C90
330
A02
100
AcDbEntity
  8
Shape2DView027
100
AcDbSpline
210
0
220
0
230
1
 70
8
 71
1
 72
4
 73
2
 74
0
 40
0
 40
0
 40
0.282843
 40
0.282843
 10
7.14334
 20
0.481512
 30
0
 10
7.17453
 20
0.450322
 30
0
  0
SPLINE
  5
C91
330
A02
100
AcDbEntity
  8
Shape2DView027
100
AcDbSpline
210
0
220
0
230
1
 70
8
 71
1
 72
4
 73
2
 74
0
 40
0
 40
0
 40
0.316228
 40
0.316228
 10
7.17453
 20
0.450322
 30
0
 10
7.19012
 20
0.403538
 30
0
  0
SPLINE
  5
C92
330
A02
100
AcDbEntity
  8
Shape2DView027
100
AcDbSpline
210
0
220
0
230
1
 70
8
 71
1
 72
4
 73
2
 74
0
 40
0
 40
0
 40
0.583095
 40
0.583095
 10
7.19012
 20
0.403538
 30
0
 10
7.23691
 20
0.325564
 30
0
  0
SPLINE
  5
C93
330
A02
100
AcDbEntity
  8
Shape2DView027
100
AcDbSpline
210
0
220
0
230
1
 70
8
 71
1
 72
4
 73
2
 74
0
 40
0
 40
0
 40
0.583095
 40
0.583095
 10
7.23691
 20
0.325564
 30
0
 10
7.28369
 20
0.24759
 30
0
  0
SPLINE
  5
C94
330
A02
100
AcDbEntity
  8
Shape2DView027
100
AcDbSpline
210
0
220
0
230
1
 70
8
 71
1
 72
4
 73
2
 74
0
 40
0
 40
0
 40
0.583095
 40
0.583095
 10
7.28369
 20
0.24759
 30
0
 10
7.33048
 20
0.169616
 30
0
  0
SPLINE
  5
C95
330
A02
100
AcDbEntity
  8
Shape2DView027
100
AcDbSpline
210
0
220
0
230
1
 70
8
 71
1
 72
4
 73
2
 74
0
 40
0
 40
0
 40
0.360555
 40
0.360555
 10
7.33048
 20
0.169616
 30
0
 10
7.36167
 20
0.122831
 30
0
  0
SPLINE
  5
C96
330
A02
100
AcDbEntity
  8
Shape2DView027
100
AcDbSpline
210
0
220
0
230
1
 70
8
 71
1
 72
4
 73
2
 74
0
 40
0
 40
0
 40
0.316228
 40
0.316228
 10
7.36167
 20
0.122831
 30
0
 10
7.37726
 20
0.0760467
 30
0
  0
SPLINE
  5
C97
330
A02
100
AcDbEntity
  8
Shape2DView027
100
AcDbSpline
210
0
220
0
230
1
 70
8
 71
1
 72
4
 73
2
 74
0
 40
0
 40
0
 40
0.632456
 40
0.632456
 10
7.37726
 20
0.0760467
 30
0
 10
7.40845
 20
-0.0175223
 30
0
  0
SPLINE
  5
C98
330
A02
100
AcDbEntity
  8
Shape2DView027
100
AcDbSpline
210
0
220
0
230
1
 70
8
 71
1
 72
4
 73
2
 74
0
 40
0
 40
0
 40
0.67082
 40
0.67082
 10
7.40845
 20
-0.0175223
 30
0
 10
7.45524
 20
-0.111091
 30
0
  0
SPLINE
  5
C99
330
A02
100
AcDbEntity
  8
Shape2DView027
100
AcDbSpline
210
0
220
0
230
1
 70
8
 71
1
 72
4
 73
2
 74
0
 40
0
 40
0
 40
0.632456
 40
0.632456
 10
7.45524
 20
-0.111091
 30
0
 10
7.48643
 20
-0.20466
 30
0
  0
SPLINE
  5
C9A
330
A02
100
AcDbEntity
  8
Shape2DView027
100
AcDbSpline
210
0
220
0
230
1
 70
8
 71
1
 72
4
 73
2
 74
0
 40
0
 40
0
 40
0.67082
 40
0.67082
 10
7.48643
 20
-0.20466
 30
0
 10
7.53321
 20
-0.298229
 30
0
  0
SPLINE
  5
C9B
330
A02
100
AcDbEntity
  8
Shape2DView027
100
AcDbSpline
210
0
220
0
230
1
 70
8
 71
1
 72
4
 73
2
 74
0
 40
0
 40
0
 40
0.223607
 40
0.223607
 10
7.53321
 20
-0.298229
 30
0
 10
7.5644
 20
-0.313824
 30
0
  0
SPLINE
  5
C9C
330
A02
100
AcDbEntity
  8
Shape2DView027
100
AcDbSpline
210
0
220
0
230
1
 70
8
 71
1
 72
4
 73
2
 74
0
 40
0
 40
0
 40
0.3
 40
0.3
 10
7.5644
 20
-0.313824
 30
0
 10
7.61118
 20
-0.313824
 30
0
  0
SPLINE
  5
C9D
330
A02
100
AcDbEntity
  8
Shape2DView027
100
AcDbSpline
210
0
220
0
230
1
 70
8
 71
1
 72
4
 73
2
 74
0
 40
0
 40
0
 40
0.2
 40
0.2
 10
7.61118
 20
-0.313824
 30
0
 10
7.64237
 20
-0.313824
 30
0
  0
SPLINE
  5
C9E
330
A02
100
AcDbEntity
  8
Shape2DView027
100
AcDbSpline
210
0
220
0
230
1
 70
8
 71
1
 72
4
 73
2
 74
0
 40
0
 40
0
 40
0.3
 40
0.3
 10
7.64237
 20
-0.313824
 30
0
 10
7.68916
 20
-0.313824
 30
0
  0
SPLINE
  5
C9F
330
A02
100
AcDbEntity
  8
Shape2DView027
100
AcDbSpline
210
0
220
0
230
1
 70
8
 71
1
 72
4
 73
2
 74
0
 40
0
 40
0
 40
0.223607
 40
0.223607
 10
7.68916
 20
-0.313824
 30
0
 10
7.72035
 20
-0.298229
 30
0
  0
SPLINE
  5
CA0
330
A02
100
AcDbEntity
  8
Shape2DView027
100
AcDbSpline
210
0
220
0
230
1
 70
8
 71
1
 72
4
 73
2
 74
0
 40
0
 40
0
 40
0.2
 40
0.2
 10
7.72035
 20
-0.298229
 30
0
 10
7.75154
 20
-0.298229
 30
0
  0
SPLINE
  5
CA1
330
A02
100
AcDbEntity
  8
Shape2DView027
100
AcDbSpline
210
0
220
0
230
1
 70
8
 71
1
 72
4
 73
2
 74
0
 40
0
 40
0
 40
0.141421
 40
0.141421
 10
7.75154
 20
-0.298229
 30
0
 10
7.76713
 20
-0.282634
 30
0
  0
SPLINE
  5
CA2
330
A02
100
AcDbEntity
  8
Shape2DView027
100
AcDbSpline
210
0
220
0
230
1
 70
8
 71
1
 72
4
 73
2
 74
0
 40
0
 40
0
 40
0.223607
 40
0.223607
 10
7.76713
 20
-0.282634
 30
0
 10
7.79832
 20
-0.267039
 30
0
  0
SPLINE
  5
CA3
330
A02
100
AcDbEntity
  8
Shape2DView027
100
AcDbSpline
210
0
220
0
230
1
 70
8
 71
1
 72
4
 73
2
 74
0
 40
0
 40
0
 40
1.17047
 40
1.17047
 10
7.79832
 20
-0.267039
 30
0
 10
7.73594
 20
-0.0954964
 30
0
  0
SPLINE
  5
CA4
330
A02
100
AcDbEntity
  8
Shape2DView027
100
AcDbSpline
210
0
220
0
230
1
 70
8
 71
1
 72
4
 73
2
 74
0
 40
0
 40
0
 40
0.824621
 40
0.824621
 10
7.73594
 20
-0.0954964
 30
0
 10
7.70475
 20
0.0292622
 30
0
  0
SPLINE
  5
CA5
330
A02
100
AcDbEntity
  8
Shape2DView027
100
AcDbSpline
210
0
220
0
230
1
 70
8
 71
1
 72
4
 73
2
 74
0
 40
0
 40
0
 40
0.509902
 40
0.509902
 10
7.70475
 20
0.0292622
 30
0
 10
7.68916
 20
0.107236
 30
0
  0
SPLINE
  5
CA6
330
A02
100
AcDbEntity
  8
Shape2DView027
100
AcDbSpline
210
0
220
0
230
1
 70
8
 71
1
 72
4
 73
2
 74
0
 40
0
 40
0
 40
0.412311
 40
0.412311
 10
7.68916
 20
0.107236
 30
0
 10
7.67356
 20
0.169616
 30
0
  0
SPLINE
  5
CA7
330
A02
100
AcDbEntity
  8
Shape2DView027
100
AcDbSpline
210
0
220
0
230
1
 70
8
 71
1
 72
4
 73
2
 74
0
 40
0
 40
0
 40
0.412311
 40
0.412311
 10
7.67356
 20
0.169616
 30
0
 10
7.65797
 20
0.231995
 30
0
  0
SPLINE
  5
CA8
330
A02
100
AcDbEntity
  8
Shape2DView027
100
AcDbSpline
210
0
220
0
230
1
 70
8
 71
1
 72
4
 73
2
 74
0
 40
0
 40
0
 40
0.509902
 40
0.509902
 10
7.65797
 20
0.231995
 30
0
 10
7.64237
 20
0.309969
 30
0
  0
SPLINE
  5
CA9
330
A02
100
AcDbEntity
  8
Shape2DView027
100
AcDbSpline
210
0
220
0
230
1
 70
8
 71
1
 72
4
 73
2
 74
0
 40
0
 40
0
 40
0.412311
 40
0.412311
 10
7.64237
 20
0.309969
 30
0
 10
7.62678
 20
0.372348
 30
0
  0
SPLINE
  5
CAA
330
A02
100
AcDbEntity
  8
Shape2DView027
100
AcDbSpline
210
0
220
0
230
1
 70
8
 71
1
 72
4
 73
2
 74
0
 40
0
 40
0
 40
0.412311
 40
0.412311
 10
7.62678
 20
0.372348
 30
0
 10
7.61118
 20
0.434728
 30
0
  0
SPLINE
  5
CAB
330
A02
100
AcDbEntity
  8
Shape2DView027
100
AcDbSpline
210
0
220
0
230
1
 70
8
 71
1
 72
4
 73
2
 74
0
 40
0
 40
0
 40
0.538516
 40
0.538516
 10
7.61118
 20
0.434728
 30
0
 10
7.57999
 20
0.512702
 30
0
  0
SPLINE
  5
CAC
330
A02
100
AcDbEntity
  8
Shape2DView027
100
AcDbSpline
210
0
220
0
230
1
 70
8
 71
1
 72
4
 73
2
 74
0
 40
0
 40
0
 40
0.412311
 40
0.412311
 10
7.57999
 20
0.512702
 30
0
 10
7.5644
 20
0.575081
 30
0
  0
SPLINE
  5
CAD
330
A02
100
AcDbEntity
  8
Shape2DView027
100
AcDbSpline
210
0
220
0
230
1
 70
8
 71
1
 72
4
 73
2
 74
0
 40
0
 40
0
 40
0.412311
 40
0.412311
 10
7.5644
 20
0.575081
 30
0
 10
7.5488
 20
0.63746
 30
0
  0
SPLINE
  5
CAE
330
A02
100
AcDbEntity
  8
Shape2DView027
100
AcDbSpline
210
0
220
0
230
1
 70
8
 71
1
 72
4
 73
2
 74
0
 40
0
 40
0
 40
0.538516
 40
0.538516
 10
7.5488
 20
0.63746
 30
0
 10
7.51761
 20
0.715435
 30
0
  0
SPLINE
  5
CAF
330
A02
100
AcDbEntity
  8
Shape2DView027
100
AcDbSpline
210
0
220
0
230
1
 70
8
 71
1
 72
4
 73
2
 74
0
 40
0
 40
0
 40
0.412311
 40
0.412311
 10
7.51761
 20
0.715435
 30
0
 10
7.50202
 20
0.777814
 30
0
  0
SPLINE
  5
CB0
330
A02
100
AcDbEntity
  8
Shape2DView027
100
AcDbSpline
210
0
220
0
230
1
 70
8
 71
1
 72
4
 73
2
 74
0
 40
0
 40
0
 40
0.447214
 40
0.447214
 10
7.50202
 20
0.777814
 30
0
 10
7.47083
 20
0.840193
 30
0
  0
SPLINE
  5
CB1
330
A02
100
AcDbEntity
  8
Shape2DView027
100
AcDbSpline
210
0
220
0
230
1
 70
8
 71
1
 72
4
 73
2
 74
0
 40
0
 40
0
 40
0.948683
 40
0.948683
 10
7.47083
 20
0.840193
 30
0
 10
7.42405
 20
0.980547
 30
0
  0
SPLINE
  5
CB2
330
A02
100
AcDbEntity
  8
Shape2DView027
100
AcDbSpline
210
0
220
0
230
1
 70
8
 71
3
 72
8
 73
4
 74
0
 40
0
 40
0
 40
0
 40
0
 40
1
 40
1
 40
1
 40
1
 10
4.60138
 20
-7.40947
 30
0
 10
4.60138
 20
-7.44066
 30
0
 10
4.58579
 20
-7.45625
 30
0
 10
4.58579
 20
-7.48744
 30
0
  0
SPLINE
  5
CB3
330
A02
100
AcDbEntity
  8
Shape2DView027
100
AcDbSpline
210
0
220
0
230
1
 70
8
 71
2
 72
6
 73
3
 74
0
 40
0
 40
0
 40
0
 40
1
 40
1
 40
1
 10
4.58579
 20
-7.48744
 30
0
 10
4.539
 20
-7.56152
 30
0
 10
4.44543
 20
-7.56542
 30
0
  0
SPLINE
  5
CB4
330
A02
100
AcDbEntity
  8
Shape2DView027
100
AcDbSpline
210
0
220
0
230
1
 70
8
 71
2
 72
6
 73
3
 74
0
 40
0
 40
0
 40
0
 40
1
 40
1
 40
1
 10
4.44543
 20
-7.56542
 30
0
 10
4.35187
 20
-7.56152
 30
0
 10
4.30508
 20
-7.48744
 30
0
  0
SPLINE
  5
CB5
330
A02
100
AcDbEntity
  8
Shape2DView027
100
AcDbSpline
210
0
220
0
230
1
 70
8
 71
3
 72
8
 73
4
 74
0
 40
0
 40
0
 40
0
 40
0
 40
1
 40
1
 40
1
 40
1
 10
4.30508
 20
-7.48744
 30
0
 10
4.28949
 20
-7.47185
 30
0
 10
4.28949
 20
-7.44066
 30
0
 10
4.28949
 20
-7.40947
 30
0
  0
SPLINE
  5
CB6
330
A02
100
AcDbEntity
  8
Shape2DView027
100
AcDbSpline
210
0
220
0
230
1
 70
8
 71
1
 72
4
 73
2
 74
0
 40
0
 40
0
 40
37.2
 40
37.2
 10
4.28949
 20
-7.40947
 30
0
 10
4.28949
 20
-1.60819
 30
0
  0
SPLINE
  5
CB7
330
A02
100
AcDbEntity
  8
Shape2DView027
100
AcDbSpline
210
0
220
0
230
1
 70
8
 71
3
 72
8
 73
4
 74
0
 40
0
 40
0
 40
0
 40
0
 40
1
 40
1
 40
1
 40
1
 10
4.28949
 20
-1.60819
 30
0
 10
4.28949
 20
-1.51463
 30
0
 10
4.36746
 20
-1.45225
 30
0
 10
4.44543
 20
-1.45225
 30
0
  0
SPLINE
  5
CB8
330
A02
100
AcDbEntity
  8
Shape2DView027
100
AcDbSpline
210
0
220
0
230
1
 70
8
 71
3
 72
8
 73
4
 74
0
 40
0
 40
0
 40
0
 40
0
 40
1
 40
1
 40
1
 40
1
 10
4.44543
 20
-1.45225
 30
0
 10
4.539
 20
-1.45225
 30
0
 10
4.60138
 20
-1.53022
 30
0
 10
4.60138
 20
-1.60819
 30
0
  0
SPLINE
  5
CB9
330
A02
100
AcDbEntity
  8
Shape2DView027
100
AcDbSpline
210
0
220
0
230
1
 70
8
 71
1
 72
4
 73
2
 74
0
 40
0
 40
0
 40
37.2
 40
37.2
 10
4.60138
 20
-1.60819
 30
0
 10
4.60138
 20
-7.40947
 30
0
  0
ENDSEC
  0
SECTION
  2
OBJECTS
  0
DICTIONARY
  5
F000
330
0
100
AcDbDictionary
  3
ACAD_GROUP
350
F001
  0
DICTIONARY
  5
F001
330
F000
100
AcDbDictionary
  0
ENDSEC
  0
EOF