<?xml version="1.0" encoding="UTF-8" standalone="no"?>
<!-- Created with Inkscape (http://www.inkscape.org/) -->

<svg
   width="210mm"
   height="297mm"
   viewBox="0 0 210 297"
   version="1.1"
   id="svg5"
   xml:space="preserve"
   inkscape:version="1.2.2 (b0a8486, 2022-12-01)"
   sodipodi:docname="MA Standard - Black_NoName.svg"
   xmlns:inkscape="http://www.inkscape.org/namespaces/inkscape"
   xmlns:sodipodi="http://sodipodi.sourceforge.net/DTD/sodipodi-0.dtd"
   xmlns="http://www.w3.org/2000/svg"
   xmlns:svg="http://www.w3.org/2000/svg"><sodipodi:namedview
     id="namedview7"
     pagecolor="#ffffff"
     bordercolor="#666666"
     borderopacity="1.0"
     inkscape:showpageshadow="2"
     inkscape:pageopacity="0.0"
     inkscape:pagecheckerboard="0"
     inkscape:deskcolor="#d1d1d1"
     inkscape:document-units="mm"
     showgrid="false"
     inkscape:zoom="2.8222222"
     inkscape:cx="133.75984"
     inkscape:cy="57.933071"
     inkscape:window-width="1920"
     inkscape:window-height="975"
     inkscape:window-x="0"
     inkscape:window-y="34"
     inkscape:window-maximized="1"
     inkscape:current-layer="layer1" /><defs
     id="defs2" /><g
     inkscape:label="Layer 1"
     inkscape:groupmode="layer"
     id="layer1"><g
       id="g297"
       transform="matrix(0.54253824,0,0,0.54253824,63.008349,-279.56971)"><g
         id="g432"
         style="vector-effect:non-scaling-stroke;fill:none;stroke:#000000;stroke-width:1;stroke-dasharray:none;stroke-opacity:1;-inkscape-stroke:hairline"
         transform="matrix(0.28744195,0,0,0.28744195,-111.13307,343.58528)">
	<g
   id="g430"
   style="vector-effect:non-scaling-stroke;fill:none;stroke:#000000;stroke-width:1;stroke-dasharray:none;stroke-opacity:1;-inkscape-stroke:hairline">
		<path
   class="st1"
   d="M 105.9,659.9 85.5,627.7 c 0.5,-2.5 0.9,-5 1.2,-7.5 -0.3,0.1 -4.2,0.7 -5.4,0.9 l -2.7,-4.2 h 0.3 c 0.6,-0.6 1.3,-0.8 1.3,-0.8 l 6.9,-2.1 c 0.1,-2.1 0.2,-4.1 0.2,-6.2 0,-1.9 -0.1,-3.7 -0.2,-5.6 -0.4,0.1 -4.6,1.7 -5.3,1.9 -0.8,0.3 -2.3,0.4 -3.1,-1.7 -0.8,-2.1 1.4,-3.1 1.4,-3.1 l 6.4,-3.2 c -0.4,-4 -1.1,-7.9 -2,-11.7 -0.1,0.1 -4.2,2.4 -4.9,2.8 -0.7,0.4 -2.2,0.8 -3.3,-1.1 -1.1,-1.9 0.9,-3.3 0.9,-3.3 l 5.8,-4.3 c -1.1,-3.8 -2.5,-7.5 -4,-11.1 0,0 -3.7,3.1 -4.4,3.6 -0.6,0.5 -2,1.2 -3.5,-0.5 -1.4,-1.7 0.3,-3.4 0.3,-3.4 l 5,-5.2 c -1.8,-3.5 -3.7,-7 -5.9,-10.3 -0.1,0.2 -3.1,3.7 -3.7,4.3 -0.5,0.6 -1.8,1.5 -3.5,0.1 -1.7,-1.4 -0.3,-3.4 -0.3,-3.4 l 4,-6 c -2.3,-3.2 -4.9,-6.2 -7.5,-9.1 -0.2,0.4 -2.5,4.2 -2.9,4.9 -0.4,0.7 -1.5,1.8 -3.4,0.7 -1.9,-1.1 -0.9,-3.3 -0.9,-3.3 l 2.9,-6.6 c -2.8,-2.7 -5.9,-5.3 -9,-7.7 -0.1,0.4 -1.7,4.6 -2,5.3 -0.3,0.8 -1.2,2 -3.3,1.3 -2.1,-0.8 -1.4,-3.1 -1.4,-3.1 l 1.7,-7 c -3.3,-2.2 -6.7,-4.2 -10.2,-6 0,0.2 -0.9,4.8 -1,5.6 -0.2,0.8 -0.8,2.2 -3,1.8 -2.2,-0.4 -1.9,-2.8 -1.9,-2.8 l 0.5,-7.2 c -3.8,-1.7 -7.7,-3.1 -11.7,-4.3 v 5.7 c 0,0.1 0,2.1 0,2.2 l -13,-20.2 c -10.9,-17.1 -26.6,-17.1 -37.5,0 l -7.8,12.2 -0.7,-0.1 c -3.8,1.1 -7.5,2.5 -11.1,4 0,0 3.1,3.7 3.7,4.4 0.5,0.6 1.2,2 -0.5,3.5 -1.7,1.4 -3.4,-0.3 -3.4,-0.3 l -5.2,-5 c -3.5,1.8 -7,3.7 -10.3,5.9 0.2,0.1 3.7,3.1 4.3,3.7 0.6,0.5 1.5,1.8 0.1,3.5 -1.4,1.7 -3.4,0.3 -3.4,0.3 l -6,-4 c -3.2,2.3 -6.2,4.9 -9.1,7.5 0.4,0.2 4.2,2.5 4.9,2.9 0.7,0.4 1.8,1.5 0.7,3.4 -1.1,1.9 -3.3,0.9 -3.3,0.9 l -6.6,-2.9 c -2.7,2.8 -5.3,5.9 -7.7,9 0.4,0.1 4.6,1.7 5.3,2 0.8,0.3 2,1.2 1.3,3.3 -0.8,2.1 -3.1,1.4 -3.1,1.4 l -7,-1.7 c -2.2,3.3 -4.2,6.7 -6,10.2 0.1,0 4.8,0.9 5.6,1 0.8,0.2 2.2,0.8 1.8,3 -0.4,2.2 -2.8,1.9 -2.8,1.9 l -7.2,-0.5 c -1.7,3.8 -3.1,7.7 -4.3,11.7 h 5.7 c 0.8,0 2.3,0.4 2.3,2.6 0,2.2 -2.4,2.4 -2.4,2.4 l -7.2,0.8 c -0.9,3.8 -1.6,7.7 -2.1,11.6 0.3,-0.1 4.8,-0.8 5.6,-1 0.8,-0.1 2.1,0 2.6,1.7 l 8.9,1 -1.5,2.4 -8,-0.9 c -0.6,0.6 -1.3,0.8 -1.3,0.8 l -6.9,2.1 c -0.1,2.1 -0.2,4.1 -0.2,6.2 0,1.9 0.1,3.7 0.2,5.6 0.4,-0.1 4.6,-1.7 5.3,-1.9 0.7,-0.2 1.9,-0.4 2.7,1 l -3,4.7 -4.6,2.3 c 0.2,1.4 0.3,2.7 0.6,4.1 l -23,36.3 c -10.9,17.1 -3.2,31.1 17.1,31.1 h 51.2 l -0.6,2.6 c 3.3,2.2 6.7,4.2 10.2,6 0,-0.1 0.9,-4.8 1,-5.6 0.1,-0.8 0.8,-2.2 3,-1.8 2.2,0.4 1.9,2.8 1.9,2.8 l -0.5,7.2 c 3.8,1.7 7.7,3.1 11.7,4.3 v -5.7 c 0,-0.8 0.4,-2.3 2.6,-2.3 2.2,0 2.4,2.4 2.4,2.4 l 0.8,7.2 c 3.8,0.9 7.7,1.6 11.6,2.1 -0.1,-0.3 -0.8,-4.8 -1,-5.6 -0.1,-0.8 0,-2.1 1.7,-2.6 l 1.2,-11 h 2.5 l -1.3,11.5 c 0.6,0.6 0.8,1.3 0.8,1.3 l 2,6.9 c 2.1,0.1 4.1,0.2 6.2,0.2 1.9,0 3.7,-0.1 5.6,-0.2 -0.1,-0.4 -1.7,-4.6 -1.9,-5.3 -0.3,-0.8 -0.4,-2.3 1.7,-3.1 2.1,-0.8 3.1,1.4 3.1,1.4 l 3.2,6.4 c 4,-0.4 7.8,-1.1 11.7,-2 0,-0.1 -2.4,-4.2 -2.8,-4.9 -0.4,-0.7 -0.8,-2.2 1.1,-3.3 1.9,-1.1 3.3,0.9 3.3,0.9 l 4.3,5.8 c 3.8,-1.1 7.5,-2.5 11.1,-4 0,0 -3.1,-3.7 -3.6,-4.4 -0.5,-0.6 -1.2,-2 0.5,-3.5 1.7,-1.4 3.4,0.3 3.4,0.3 l 5.2,5 c 3.5,-1.8 7,-3.7 10.3,-5.9 -0.1,-0.1 -2.8,-2.4 -3.9,-3.3 h 52.3 c 20.7,0.3 28.4,-13.7 17.5,-30.8 z m -16.7,19.4 h -212.9 c -8.7,0 -12,-6 -7.3,-13.3 L -25.9,502 c 4.7,-7.3 12.4,-7.3 17.1,0 L 96.5,665.9 c 4.7,7.4 1.4,13.4 -7.3,13.4 z"
   id="path414"
   style="vector-effect:non-scaling-stroke;fill:none;stroke:#000000;stroke-width:1;stroke-dasharray:none;stroke-opacity:1;-inkscape-stroke:hairline" />
		<path
   class="st1"
   d="m -22.8,621.8 -0.2,0.2 -0.1,0.1 -0.1,0.1 h -0.1 v 0 0 0 0 l -0.1,0.1 h -0.1 v 0 0 0 0 l -0.1,0.1 -0.1,0.1 v 0 0 0 l -0.2,0.1 -0.2,0.1 -0.1,0.1 -0.1,0.1 -0.2,0.1 v 0 0 0 l -0.1,0.1 -0.2,0.1 -0.2,0.1 -0.1,0.1 h -0.1 -0.1 l -2.2,0.7 h -0.2 l -0.2,0.1 -0.1,0.1 h -0.1 -0.1 -0.1 -0.1 v 0 0.1 0 0.1 l -0.1,0.1 v 0 0.1 0.1 0.1 0.1 0.1 0.2 l 0.1,0.2 0.1,0.2 0.1,0.2 0.1,0.1 0.1,0.1 0.6,0.6 0.6,0.6 0.6,0.6 0.6,0.6 0.6,0.6 0.3,0.3 0.3,0.3 0.7,0.6 0.7,0.6 0.9,-0.3 0.3,-0.5 0.3,-0.5 0.3,-0.4 0.3,-0.4 0.2,-0.3 0.2,-0.2 0.2,-0.2 0.2,-0.2 1.1,-1 0.4,-0.3 0.6,-0.5 c 0,-0.1 0,-0.3 0,-0.4 -1.2,-0.6 -2.7,-2 -4.8,-3.9 z"
   id="path416"
   style="vector-effect:non-scaling-stroke;fill:none;stroke:#000000;stroke-width:1;stroke-dasharray:none;stroke-opacity:1;-inkscape-stroke:hairline" />
		<path
   class="st1"
   d="m 2.8,606 0.9,-0.8 0.9,-0.8 0.9,-0.8 0.4,-0.3 c -1.3,-0.9 -2.3,-2 -2.9,-3.5 l -0.2,0.1 -0.2,0.2 -1,0.8 -1,0.8 -1,0.8 -0.5,0.4 -0.5,0.4 -0.5,0.4 -0.5,0.4 -0.5,0.4 -0.2,0.2 -0.1,0.1 -0.1,0.1 -0.9,0.7 -4.4,3.4 -0.8,0.6 -0.5,0.4 -0.5,0.4 -0.3,0.3 -0.6,0.5 -0.6,0.5 -0.2,0.1 -0.2,0.1 -0.5,0.4 -0.5,0.4 -0.4,0.4 -0.5,0.5 -0.5,0.5 -0.4,0.4 -0.4,0.3 -0.2,0.1 c 2.1,1.7 3.4,2.7 4.1,3 0.1,0 0.2,0 0.3,0 0.5,0 1,0 1.7,0.1 l 0.6,-0.6 0.4,-0.3 0.8,-0.7 0.3,-0.3 0.8,-0.8 0.3,-0.3 0.5,-0.4 0.4,-0.4 0.8,-0.7 0.8,-0.7 0.8,-0.7 0.7,-0.7 1.7,-2.1 0.8,-0.8 0.8,-0.8 0.8,-0.8 z"
   id="path418"
   style="vector-effect:non-scaling-stroke;fill:none;stroke:#000000;stroke-width:1;stroke-dasharray:none;stroke-opacity:1;-inkscape-stroke:hairline" />
		<path
   class="st1"
   d="m 15.4,646.3 v -43.6 c 2.3,-1.4 3.8,-4 3.8,-6.9 0,-0.7 -0.1,-1.4 -0.3,-2.1 l -0.3,0.3 -1,0.8 -1,0.8 -1,0.8 -0.5,0.4 v 0.7 l -2.2,2.2 h -1.1 -2 -0.2 l -2.5,-2.2 v -1.5 -1.8 -0.1 l 2.5,-2.6 h 0.5 l 1,-0.9 0.5,-0.4 0.5,-0.4 0.2,-0.2 0.2,-0.2 0.5,-0.4 0.5,-0.5 0.4,-0.4 c -0.8,-0.3 -1.7,-0.4 -2.6,-0.4 -4.5,0 -8.1,3.6 -8.1,8.1 0,1.2 0.2,2.3 0.7,3.3 0.6,1.4 1.6,2.6 2.9,3.5 0.2,0.1 0.3,0.2 0.5,0.3 v 43.4 c -3.4,1.5 -5.9,5 -5.9,9 0,3.1 1.4,5.9 3.7,7.7 H 6 v -6.2 l 5.3,-4.2 5.4,4.2 v 6.2 h 0.8 0.1 c 2.3,-1.8 3.7,-4.6 3.7,-7.7 -0.1,-4 -2.5,-7.5 -5.9,-9 z m -3.3,-1.4 c 0,0.2 -0.1,0.3 -0.1,0.5 -0.2,0.3 -0.5,0.5 -0.9,0.5 -0.4,0 -0.7,-0.2 -0.9,-0.5 -0.1,-0.1 -0.1,-0.3 -0.1,-0.5 v -37.2 c 0,-0.6 0.5,-1 1,-1 0.6,0 1,0.5 1,1 z"
   id="path420"
   style="vector-effect:non-scaling-stroke;fill:none;stroke:#000000;stroke-width:1;stroke-dasharray:none;stroke-opacity:1;-inkscape-stroke:hairline" />
		<path
   class="st1"
   d="m -47.3,589.2 c -1.3,-1.2 -2.1,-2 -2.1,-2.2 -0.3,-1.1 -0.1,-3.7 -2.1,-5.5 -1.8,-1.6 -3.4,-2 -4.4,-2 -0.1,0 -0.3,0 -0.4,0 -0.8,0 -1.4,0.1 -1.8,0.2 -0.3,0.1 -0.6,0.2 -0.9,0.3 -0.2,0.1 -0.3,0.2 -0.3,0.2 l 3.5,3.2 c 0.2,0.9 0.1,1.6 -0.1,2.2 -0.2,0.3 -0.4,0.8 -0.7,1 -0.3,0.2 -0.5,0.4 -0.8,0.6 -0.2,0.1 -0.5,0.2 -0.7,0.3 l -3.3,-2.9 -1.6,0.1 c 0,0 -0.8,3.2 2.4,6 1.2,1 2.5,1.2 3.6,1.2 1.1,0 2,-0.2 2.4,-0.2 0,0 0,0 0.1,0 0.2,0 3.1,2.5 7.3,6 v -8.5 z"
   id="path422"
   style="vector-effect:non-scaling-stroke;fill:none;stroke:#000000;stroke-width:1;stroke-dasharray:none;stroke-opacity:1;-inkscape-stroke:hairline" />
		<path
   class="st1"
   d="m -5.6,621.7 c -2.5,-2.2 -4.8,-1.8 -6.2,-1.9 -2.4,-0.8 -19.2,-15.6 -29.5,-25.1 v 8 c 10.9,9.5 24.7,21.6 24.8,22 0.1,0.7 0.3,4.4 2.2,6.3 1.4,1.4 2.7,1.8 3.7,1.8 0.4,0 0.8,-0.1 1.2,-0.2 1.2,-0.1 2,-0.6 2,-0.6 l -3.3,-3.2 c 0,0 0,0 0,0 0,0 0,0 0,0 0,-0.3 0.1,-3.1 2.7,-4 0,0 0,0 0,0 l 3.4,3.1 1.2,-0.1 c -0.1,0.1 0.8,-3.3 -2.2,-6.1 z"
   id="path424"
   style="vector-effect:non-scaling-stroke;fill:none;stroke:#000000;stroke-width:1;stroke-dasharray:none;stroke-opacity:1;-inkscape-stroke:hairline" />
		<polygon
   class="st1"
   points="30.2,591.1 30,590.7 29.8,590.2 29.4,589.4 29,588.5 28.6,587.7 28.2,586.8 28,586.4 27.7,585.9 27.3,585.1 26.8,584.2 26.5,583.8 26.3,583.3 26,582.9 25.7,582.6 25.5,582.2 25.2,581.8 24.9,581.5 24.6,581.2 24.3,580.9 24,580.7 23.8,580.5 23.4,580.2 23.1,580 22.8,579.9 22.5,579.7 22.2,579.6 22.1,579.6 22,579.7 21.8,579.7 21.7,579.7 21.6,579.7 21.5,579.7 21.3,579.7 21.3,579.7 21.2,579.7 21.2,579.7 21.1,579.7 21,579.6 20.9,579.6 20.8,579.6 20.8,579.5 20.7,579.5 20.6,579.4 20.5,579.3 20.4,579.3 20.3,579.2 20.3,579.2 20.2,579 20.1,578.9 20,578.9 20,578.8 19.9,578.7 19.8,578.5 19.8,578.5 19.7,578.4 19.7,578.4 19.6,578.2 19.6,578.1 19.5,577.9 19.4,577.7 19.3,577.5 19.3,577.4 19.3,577.3 19.2,577.1 19.1,576.9 19.1,576.6 19,576.4 16.7,574 16.5,574.1 16.2,574.2 16,574.3 15.7,574.3 15.5,574.4 15.3,574.5 15.1,574.6 14.9,574.7 14.7,574.8 14.5,574.9 14.4,575 14.2,575.1 14.1,575.2 14,575.4 13.8,575.5 13.7,575.6 13.6,575.8 13.5,576 13.4,576.1 13.3,576.3 13.2,576.5 13.2,576.7 13.1,576.9 13.1,577.2 15,579.8 15.2,579.9 15.5,579.9 15.7,580 15.9,580 16.3,580.2 16.7,580.4 17.1,580.6 17.4,580.8 17.5,581 17.6,581.1 17.8,581.3 17.9,581.4 18,581.6 18.1,581.8 18.1,582 18.2,582.2 18.3,582.3 18.3,582.6 18.4,582.8 18.4,583 18.5,583.2 18.5,583.5 18.5,583.7 18.5,584 18.5,584.5 18.4,585.1 18.2,585.2 18.1,585.3 17.8,585.5 17.7,585.7 17.5,585.8 17.3,586 17.2,586.1 17.1,586.2 17.1,586.4 17,586.5 16.9,586.7 16.9,586.9 16.8,587 15.9,588 15.6,588.2 15.5,588.3 15.4,588.5 14.9,589 14.4,589.4 13.9,589.9 13.4,590.4 13.2,590.6 12.9,590.9 12.5,591.3 12,591.8 8.8,594.6 8.8,596.1 11.3,598.3 11.4,598.3 14.8,595.4 15.8,594.6 16.8,593.8 17.8,592.9 18.9,592.1 20,591.2 20.1,591.2 20.1,591.2 20.1,591.2 20.3,591.2 20.4,591.2 20.5,591.2 20.7,591.2 21,591.1 21.2,591.1 21.4,591 21.6,591 21.7,590.9 21.7,590.9 21.8,590.9 21.9,590.8 22.2,590.7 22.5,590.6 22.8,590.5 23.1,590.3 23.3,590.3 23.5,590.2 23.8,590 23.9,590 24,589.9 24.1,589.8 24.3,589.8 24.5,589.8 24.6,589.8 24.8,589.8 24.9,589.8 25,589.9 25.2,590 25.3,590.1 25.4,590.2 25.5,590.3 25.6,590.5 25.7,590.6 25.8,590.8 25.8,591 25.9,591.3 26,591.5 26.4,591.8 26.5,592 26.7,592.2 27.1,592.6 27.4,593 27.8,593.4 28.1,593.8 28.4,594.3 28.6,594.5 28.7,594.8 29,595.3 29.3,595.8 29.6,596.3 29.8,596.6 29.9,596.9 30.1,597.5 30.4,598.1 30.6,598.7 30.9,599.3 31.1,599.4 31.4,599.4 31.6,599.4 31.9,599.4 32.1,599.3 32.3,599.3 32.4,599.2 32.6,599.1 32.2,598 32,597.2 31.9,596.7 31.8,596.3 31.7,595.9 31.6,595.4 31.5,595 31.4,594.6 31.2,594.1 31.1,593.7 31,593.3 30.8,592.8 30.7,592.4 30.5,592 "
   id="polygon426"
   style="vector-effect:non-scaling-stroke;fill:none;stroke:#000000;stroke-width:1;stroke-dasharray:none;stroke-opacity:1;-inkscape-stroke:hairline" />
		<path
   class="st1"
   d="m -39.7,629.8 c 0,0 0,0 0,0 0,-0.1 0,-0.1 0,0 0,-0.5 -1,-0.8 -2.5,-1 -0.2,0 -1,-0.1 -1.3,-0.1 v -46.9 c 0,0 0.6,-1.5 0.6,-1.5 l -0.7,-4.8 h -1.8 l -0.7,4.8 c 0,0 0.8,1.4 0.8,1.4 v 46.9 c -0.2,0 0,0 -0.3,0 -1.5,0.1 -2.5,0.4 -2.5,0.8 0,0 0,0 0,0 0,0 0,0.1 0,0.1 0,0.2 0.1,0.3 0.4,0.5 0.4,0.5 0.9,1.3 0.9,2.2 -0.2,0.4 -0.4,1 -0.5,1.5 -0.5,6.3 -1.1,19.3 -1.6,25.5 -0.2,1.6 0.8,5.2 3.3,5.7 0.4,0.1 0.8,0.1 1.3,0.1 0.4,0 0.7,0 1,-0.1 2.5,-0.5 3.6,-3.9 3.5,-5.6 -0.3,-6.3 -0.6,-19.3 -0.9,-25.6 0,-0.5 -0.2,-1.1 -0.4,-1.5 0,-0.9 0.6,-1.7 1,-2.1 0.3,0 0.4,-0.1 0.4,-0.3 z"
   id="path428"
   style="vector-effect:non-scaling-stroke;fill:none;stroke:#000000;stroke-width:1;stroke-dasharray:none;stroke-opacity:1;-inkscape-stroke:hairline" />
	</g>
</g></g></g><style
     type="text/css"
     id="style384">
	.st0{fill:#080504;}
	.st1{fill:#231F20;}
</style></svg>
