999
dxfrw 0.6.3
  0
SECTION
  2
HEADER
  9
$ACADVER
  1
AC1021
  9
$DWGCODEPAGE
  3
ANSI_1252
  9
$INSBASE
 10
0
 20
0
 30
0
  9
$EXTMIN
 10
-44.5
 20
-44.5
 30
0
  9
$EXTMAX
 10
44.5
 20
44.5
 30
0
  9
$LIMMIN
 10
0
 20
0
  9
$LIMMAX
 10
420
 20
297
  9
$ORTHOMODE
 70
    0
  9
$REGENMODE
 70
    1
  9
$FILLMODE
 70
    1
  9
$QTEXTMODE
 70
    0
  9
$MIRRTEXT
 70
    0
  9
$LTSCALE
 40
1
  9
$ATTMODE
 70
    0
  9
$TEXTSIZE
 40
2.5
  9
$TRACEWID
 40
15.68
  9
$TEXTSTYLE
  7
STANDARD
  9
$CLAYER
  8
0
  9
$CELTYPE
  6
BYLAYER
  9
$CECOLOR
 62
  256
  9
$CELTSCALE
 40
1
  9
$DISPSILH
 70
    0
  9
$DIMSCALE
 40
2.5
  9
$DIMASZ
 40
2.5
  9
$DIMEXO
 40
0.625
  9
$DIMDLI
 40
3.75
  9
$DIMRND
 40
0
  9
$DIMDLE
 40
0
  9
$DIMEXE
 40
1.25
  9
$DIMTP
 40
0
  9
$DIMTM
 40
0
  9
$DIMTXT
 40
2.5
  9
$DIMCEN
 40
2.5
  9
$DIMTSZ
 40
0
  9
$DIMTOL
 70
    0
  9
$DIMLIM
 70
    0
  9
$DIMTIH
 70
    0
  9
$DIMTOH
 70
    0
  9
$DIMSE1
 70
    0
  9
$DIMSE2
 70
    0
  9
$DIMTAD
 70
    1
  9
$DIMZIN
 70
    8
  9
$DIMBLK
  1

  9
$DIMASO
 70
    1
  9
$DIMSHO
 70
    1
  9
$DIMPOST
  1

  9
$DIMAPOST
  1

  9
$DIMALT
 70
    0
  9
$DIMALTD
 70
    3
  9
$DIMALTF
 40
0.03937
  9
$DIMLFAC
 40
1
  9
$DIMTOFL
 70
    1
  9
$DIMTVP
 40
0
  9
$DIMTIX
 70
    0
  9
$DIMSOXD
 70
    0
  9
$DIMSAH
 70
    0
  9
$DIMBLK1
  1

  9
$DIMBLK2
  1

  9
$DIMSTYLE
  2
STANDARD
  9
$DIMCLRD
 70
    0
  9
$DIMCLRE
 70
    0
  9
$DIMCLRT
 70
    0
  9
$DIMTFAC
 40
1
  9
$DIMGAP
 40
0.625
  9
$DIMJUST
 70
    0
  9
$DIMSD1
 70
    0
  9
$DIMSD2
 70
    0
  9
$DIMTOLJ
 70
    0
  9
$DIMTZIN
 70
    8
  9
$DIMALTZ
 70
    0
  9
$DIMALTTZ
 70
    0
  9
$DIMUPT
 70
    0
  9
$DIMDEC
 70
    2
  9
$DIMTDEC
 70
    2
  9
$DIMALTU
 70
    2
  9
$DIMALTTD
 70
    3
  9
$DIMTXSTY
  7
STANDARD
  9
$DIMAUNIT
 70
    0
  9
$DIMADEC
 70
    0
  9
$DIMALTRND
 40
0
  9
$DIMAZIN
 70
    0
  9
$DIMDSEP
 70
   44
  9
$DIMATFIT
 70
    3
  9
$DIMFRAC
 70
    0
  9
$DIMLDRBLK
  1
STANDARD
  9
$DIMLUNIT
 70
    2
  9
$DIMLWD
 70
   -2
  9
$DIMLWE
 70
   -2
  9
$DIMTMOVE
 70
    0
  9
$DIMFXL
 40
1
  9
$DIMFXLON
 70
    0
  9
$DIMJOGANG
 40
0.7854
  9
$DIMTFILL
 70
    0
  9
$DIMTFILLCLR
 70
    0
  9
$DIMARCSYM
 70
    0
  9
$DIMLTYPE
  6

  9
$DIMLTEX1
  6

  9
$DIMLTEX2
  6

  9
$LUNITS
 70
    2
  9
$LUPREC
 70
    4
  9
$SKETCHINC
 40
1
  9
$FILLETRAD
 40
0
  9
$AUNITS
 70
    0
  9
$AUPREC
 70
    2
  9
$MENU
  1
.
  9
$ELEVATION
 40
0
  9
$PELEVATION
 40
0
  9
$THICKNESS
 40
0
  9
$LIMCHECK
 70
    0
  9
$CHAMFERA
 40
0
  9
$CHAMFERB
 40
0
  9
$CHAMFERC
 40
0
  9
$CHAMFERD
 40
0
  9
$SKPOLY
 70
    0
  9
$USRTIMER
 70
    1
  9
$ANGBASE
 50
0
  9
$ANGDIR
 70
    0
  9
$PDMODE
 70
   34
  9
$PDSIZE
 40
0
  9
$PLINEWID
 40
0
  9
$SPLFRAME
 70
    0
  9
$SPLINETYPE
 70
    2
  9
$SPLINESEGS
 70
    8
  9
$HANDSEED
  5
20000
  9
$SURFTAB1
 70
    6
  9
$SURFTAB2
 70
    6
  9
$SURFTYPE
 70
    6
  9
$SURFU
 70
    6
  9
$SURFV
 70
    6
  9
$UCSBASE
  2

  9
$UCSNAME
  2

  9
$UCSORG
 10
0
 20
0
 30
0
  9
$UCSXDIR
 10
1
 20
0
 30
0
  9
$UCSYDIR
 10
0
 20
1
 30
0
  9
$UCSORTHOREF
  2

  9
$UCSORTHOVIEW
 70
    0
  9
$UCSORGTOP
 10
0
 20
0
 30
0
  9
$UCSORGBOTTOM
 10
0
 20
0
 30
0
  9
$UCSORGLEFT
 10
0
 20
0
 30
0
  9
$UCSORGRIGHT
 10
0
 20
0
 30
0
  9
$UCSORGFRONT
 10
0
 20
0
 30
0
  9
$UCSORGBACK
 10
0
 20
0
 30
0
  9
$PUCSBASE
  2

  9
$PUCSNAME
  2

  9
$PUCSORG
 10
0
 20
0
 30
0
  9
$PUCSXDIR
 10
1
 20
0
 30
0
  9
$PUCSYDIR
 10
0
 20
1
 30
0
  9
$PUCSORTHOREF
  2

  9
$PUCSORTHOVIEW
 70
    0
  9
$PUCSORGTOP
 10
0
 20
0
 30
0
  9
$PUCSORGBOTTOM
 10
0
 20
0
 30
0
  9
$PUCSORGLEFT
 10
0
 20
0
 30
0
  9
$PUCSORGRIGHT
 10
0
 20
0
 30
0
  9
$PUCSORGFRONT
 10
0
 20
0
 30
0
  9
$PUCSORGBACK
 10
0
 20
0
 30
0
  9
$USERI1
 70
    0
  9
$USERI2
 70
    0
  9
$USERI3
 70
    0
  9
$USERI4
 70
    0
  9
$USERI5
 70
    0
  9
$USERR1
 40
0
  9
$USERR2
 40
0
  9
$USERR3
 40
0
  9
$USERR4
 40
0
  9
$USERR5
 40
0
  9
$WORLDVIEW
 70
    1
  9
$SHADEDGE
 70
    3
  9
$SHADEDIF
 70
   70
  9
$TILEMODE
 70
    1
  9
$MAXACTVP
 70
   64
  9
$PINSBASE
 10
0
 20
0
 30
0
  9
$PLIMCHECK
 70
    0
  9
$PEXTMIN
 10
0
 20
0
 30
0
  9
$PEXTMAX
 10
50
 20
50
 30
50
  9
$GRIDMODE
 70
    0
  9
$SNAPSTYLE
 70
    0
  9
$PLIMMIN
 10
0
 20
0
  9
$PLIMMAX
 10
12
 20
9
  9
$UNITMODE
 70
    0
  9
$VISRETAIN
 70
    1
  9
$PLINEGEN
 70
    0
  9
$PSLTSCALE
 70
    1
  9
$TREEDEPTH
 70
 3020
  9
$CMLSTYLE
  2
STANDARD
  9
$CMLJUST
 70
    0
  9
$CMLSCALE
 40
20
  9
$PROXYGRAPHICS
 70
    1
  9
$MEASUREMENT
 70
    1
  9
$CELWEIGHT
370
   -1
  9
$ENDCAPS
280
    0
  9
$JOINSTYLE
280
    0
  9
$LWDISPLAY
290
    0
  9
$INSUNITS
 70
    4
  9
$HYPERLINKBASE
  1

  9
$STYLESHEET
  1

  9
$XEDIT
290
    1
  9
$CEPSNTYPE
380
    0
  9
$PSTYLEMODE
290
    1
  9
$EXTNAMES
290
    1
  9
$PSVPSCALE
 40
1
  9
$OLESTARTUP
290
    0
  9
$SORTENTS
280
  127
  9
$INDEXCTL
280
    0
  9
$HIDETEXT
280
    1
  9
$XCLIPFRAME
290
    0
  9
$HALOGAP
280
    0
  9
$OBSCOLOR
 70
  257
  9
$OBSLTYPE
280
    0
  9
$INTERSECTIONDISPLAY
280
    0
  9
$INTERSECTIONCOLOR
 70
  257
  9
$DIMASSOC
280
    1
  9
$PROJECTNAME
  1

  9
$CAMERADISPLAY
290
    0
  9
$LENSLENGTH
 40
50
  9
$CAMERAHEIGHT
 40
0
  9
$STEPSPERSEC
 40
2
  9
$STEPSIZE
 40
50
  9
$3DDWFPREC
 40
2
  9
$PSOLWIDTH
 40
5
  9
$PSOLHEIGHT
 40
80
  9
$LOFTANG1
 40
1.570796326794897
  9
$LOFTANG2
 40
1.570796326794897
  9
$LOFTMAG1
 40
0
  9
$LOFTMAG2
 40
0
  9
$LOFTPARAM
 70
    7
  9
$LOFTNORMALS
280
    1
  9
$LATITUDE
 40
1
  9
$LONGITUDE
 40
1
  9
$NORTHDIRECTION
 40
0
  9
$TIMEZONE
 70
-8000
  9
$LIGHTGLYPHDISPLAY
280
    1
  9
$TILEMODELIGHTSYNCH
280
    1
  9
$SOLIDHIST
280
    1
  9
$SHOWHIST
280
    1
  9
$DWFFRAME
280
    2
  9
$DGNFRAME
280
    0
  9
$REALWORLDSCALE
290
    1
  9
$INTERFERECOLOR
 62
    1
  9
$CSHADOW
280
    0
  9
$SHADOWPLANELOCATION
 40
0
  0
ENDSEC
  0
SECTION
  2
CLASSES
  0
ENDSEC
  0
SECTION
  2
TABLES
  0
TABLE
  2
VPORT
  5
8
330
0
100
AcDbSymbolTable
 70
    1
  0
VPORT
  5
31
330
2
100
AcDbSymbolTableRecord
100
AcDbViewportTableRecord
  2
*ACTIVE
 70
    0
 10
0
 20
0
 11
1
 21
1
 12
45.01744186046511
 22
22.89680232558139
 13
0
 23
0
 14
10
 24
10
 15
10
 25
10
 16
0
 26
0
 36
1
 17
0
 27
0
 37
0
 40
91.58720930232558
 41
1.964689265536723
 42
50
 43
0
 44
0
 50
0
 51
0
 71
    0
 72
  100
 73
    1
 74
    3
 75
    0
 76
    0
 77
    0
 78
    0
281
    0
 65
    1
110
0
120
0
130
0
111
1
121
0
131
0
112
0
122
1
132
0
 79
    0
146
0
348
10020
 60
    7
 61
    5
292
1
282
    1
141
0
142
0
 63
  250
421
3358443
  0
ENDTAB
  0
TABLE
  2
LTYPE
  5
5
330
0
100
AcDbSymbolTable
 70
    4
  0
LTYPE
  5
14
330
5
100
AcDbSymbolTableRecord
100
AcDbLinetypeTableRecord
  2
ByBlock
 70
    0
  3

 72
   65
 73
    0
 40
0
  0
LTYPE
  5
15
330
5
100
AcDbSymbolTableRecord
100
AcDbLinetypeTableRecord
  2
ByLayer
 70
    0
  3

 72
   65
 73
    0
 40
0
  0
LTYPE
  5
16
330
5
100
AcDbSymbolTableRecord
100
AcDbLinetypeTableRecord
  2
Continuous
 70
    0
  3
Solid line
 72
   65
 73
    0
 40
0
  0
LTYPE
  5
32
330
5
100
AcDbSymbolTableRecord
100
AcDbLinetypeTableRecord
  2
DOT
 70
    0
  3
Dot . . . . . . . . . . . . . . . . . . . . . .
 72
   65
 73
    2
 40
6.35
 49
0
 74
    0
 49
-6.35
 74
    0
  0
LTYPE
  5
33
330
5
100
AcDbSymbolTableRecord
100
AcDbLinetypeTableRecord
  2
DOTTINY
 70
    0
  3
Dot (.15x) .....................................
 72
   65
 73
    2
 40
0.9525
 49
0
 74
    0
 49
-0.9525
 74
    0
  0
LTYPE
  5
34
330
5
100
AcDbSymbolTableRecord
100
AcDbLinetypeTableRecord
  2
DOT2
 70
    0
  3
Dot (.5x) .....................................
 72
   65
 73
    2
 40
3.175
 49
0
 74
    0
 49
-3.175
 74
    0
  0
LTYPE
  5
35
330
5
100
AcDbSymbolTableRecord
100
AcDbLinetypeTableRecord
  2
DOTX2
 70
    0
  3
Dot (2x) .  .  .  .  .  .  .  .  .  .  .  .  .
 72
   65
 73
    2
 40
12.7
 49
0
 74
    0
 49
-12.7
 74
    0
  0
LTYPE
  5
36
330
5
100
AcDbSymbolTableRecord
100
AcDbLinetypeTableRecord
  2
DASHED
 70
    0
  3
Dashed _ _ _ _ _ _ _ _ _ _ _ _ _ _ _ _ _
 72
   65
 73
    2
 40
19.05
 49
12.7
 74
    0
 49
-6.35
 74
    0
  0
LTYPE
  5
37
330
5
100
AcDbSymbolTableRecord
100
AcDbLinetypeTableRecord
  2
DASHEDTINY
 70
    0
  3
Dashed (.15x) _ _ _ _ _ _ _ _ _ _ _ _ _ _ _ _ _
 72
   65
 73
    2
 40
2.8575
 49
1.905
 74
    0
 49
-0.9525
 74
    0
  0
LTYPE
  5
38
330
5
100
AcDbSymbolTableRecord
100
AcDbLinetypeTableRecord
  2
DASHED2
 70
    0
  3
Dashed (.5x) _ _ _ _ _ _ _ _ _ _ _ _ _ _ _ _ _
 72
   65
 73
    2
 40
9.524999999999999
 49
6.35
 74
    0
 49
-3.175
 74
    0
  0
LTYPE
  5
39
330
5
100
AcDbSymbolTableRecord
100
AcDbLinetypeTableRecord
  2
DASHEDX2
 70
    0
  3
Dashed (2x) ____  ____  ____  ____  ____  ___
 72
   65
 73
    2
 40
38.09999999999999
 49
25.4
 74
    0
 49
-12.7
 74
    0
  0
LTYPE
  5
3A
330
5
100
AcDbSymbolTableRecord
100
AcDbLinetypeTableRecord
  2
DASHDOT
 70
    0
  3
Dash dot __ . __ . __ . __ . __ . __ . __ . __
 72
   65
 73
    4
 40
25.4
 49
12.7
 74
    0
 49
-6.35
 74
    0
 49
0
 74
    0
 49
-6.35
 74
    0
  0
LTYPE
  5
3B
330
5
100
AcDbSymbolTableRecord
100
AcDbLinetypeTableRecord
  2
DASHDOTTINY
 70
    0
  3
Dash dot (.15x) _._._._._._._._._._._._._._._.
 72
   65
 73
    4
 40
3.81
 49
1.905
 74
    0
 49
-0.9525
 74
    0
 49
0
 74
    0
 49
-0.9525
 74
    0
  0
LTYPE
  5
3C
330
5
100
AcDbSymbolTableRecord
100
AcDbLinetypeTableRecord
  2
DASHDOT2
 70
    0
  3
Dash dot (.5x) _._._._._._._._._._._._._._._.
 72
   65
 73
    4
 40
12.7
 49
6.35
 74
    0
 49
-3.175
 74
    0
 49
0
 74
    0
 49
-3.175
 74
    0
  0
LTYPE
  5
3D
330
5
100
AcDbSymbolTableRecord
100
AcDbLinetypeTableRecord
  2
DASHDOTX2
 70
    0
  3
Dash dot (2x) ____  .  ____  .  ____  .  ___
 72
   65
 73
    4
 40
50.8
 49
25.4
 74
    0
 49
-12.7
 74
    0
 49
0
 74
    0
 49
-12.7
 74
    0
  0
LTYPE
  5
3E
330
5
100
AcDbSymbolTableRecord
100
AcDbLinetypeTableRecord
  2
DIVIDE
 70
    0
  3
Divide ____ . . ____ . . ____ . . ____ . . ____
 72
   65
 73
    6
 40
31.75
 49
12.7
 74
    0
 49
-6.35
 74
    0
 49
0
 74
    0
 49
-6.35
 74
    0
 49
0
 74
    0
 49
-6.35
 74
    0
  0
LTYPE
  5
3F
330
5
100
AcDbSymbolTableRecord
100
AcDbLinetypeTableRecord
  2
DIVIDETINY
 70
    0
  3
Divide (.15x) __..__..__..__..__..__..__..__.._
 72
   65
 73
    6
 40
4.7625
 49
1.905
 74
    0
 49
-0.9525
 74
    0
 49
0
 74
    0
 49
-0.9525
 74
    0
 49
0
 74
    0
 49
-0.9525
 74
    0
  0
LTYPE
  5
40
330
5
100
AcDbSymbolTableRecord
100
AcDbLinetypeTableRecord
  2
DIVIDE2
 70
    0
  3
Divide (.5x) __..__..__..__..__..__..__..__.._
 72
   65
 73
    6
 40
15.875
 49
6.35
 74
    0
 49
-3.175
 74
    0
 49
0
 74
    0
 49
-3.175
 74
    0
 49
0
 74
    0
 49
-3.175
 74
    0
  0
LTYPE
  5
41
330
5
100
AcDbSymbolTableRecord
100
AcDbLinetypeTableRecord
  2
DIVIDEX2
 70
    0
  3
Divide (2x) ________  .  .  ________  .  .  _
 72
   65
 73
    6
 40
63.5
 49
25.4
 74
    0
 49
-12.7
 74
    0
 49
0
 74
    0
 49
-12.7
 74
    0
 49
0
 74
    0
 49
-12.7
 74
    0
  0
LTYPE
  5
42
330
5
100
AcDbSymbolTableRecord
100
AcDbLinetypeTableRecord
  2
BORDER
 70
    0
  3
Border __ __ . __ __ . __ __ . __ __ . __ __ .
 72
   65
 73
    6
 40
44.45
 49
12.7
 74
    0
 49
-6.35
 74
    0
 49
12.7
 74
    0
 49
-6.35
 74
    0
 49
0
 74
    0
 49
-6.35
 74
    0
  0
LTYPE
  5
43
330
5
100
AcDbSymbolTableRecord
100
AcDbLinetypeTableRecord
  2
BORDERTINY
 70
    0
  3
Border (.15x) __.__.__.__.__.__.__.__.__.__.__.
 72
   65
 73
    6
 40
6.6675
 49
1.905
 74
    0
 49
-0.9525
 74
    0
 49
1.905
 74
    0
 49
-0.9525
 74
    0
 49
0
 74
    0
 49
-0.9525
 74
    0
  0
LTYPE
  5
44
330
5
100
AcDbSymbolTableRecord
100
AcDbLinetypeTableRecord
  2
BORDER2
 70
    0
  3
Border (.5x) __.__.__.__.__.__.__.__.__.__.__.
 72
   65
 73
    6
 40
22.225
 49
6.35
 74
    0
 49
-3.175
 74
    0
 49
6.35
 74
    0
 49
-3.175
 74
    0
 49
0
 74
    0
 49
-3.175
 74
    0
  0
LTYPE
  5
45
330
5
100
AcDbSymbolTableRecord
100
AcDbLinetypeTableRecord
  2
BORDERX2
 70
    0
  3
Border (2x) ____  ____  .  ____  ____  .  ___
 72
   65
 73
    6
 40
88.89999999999999
 49
25.4
 74
    0
 49
-12.7
 74
    0
 49
25.4
 74
    0
 49
-12.7
 74
    0
 49
0
 74
    0
 49
-12.7
 74
    0
  0
LTYPE
  5
46
330
5
100
AcDbSymbolTableRecord
100
AcDbLinetypeTableRecord
  2
CENTER
 70
    0
  3
Center ____ _ ____ _ ____ _ ____ _ ____ _ ____
 72
   65
 73
    4
 40
50.8
 49
31.75
 74
    0
 49
-6.35
 74
    0
 49
6.35
 74
    0
 49
-6.35
 74
    0
  0
LTYPE
  5
47
330
5
100
AcDbSymbolTableRecord
100
AcDbLinetypeTableRecord
  2
CENTERTINY
 70
    0
  3
Center (.15x) ___ _ ___ _ ___ _ ___ _ ___ _ ___
 72
   65
 73
    4
 40
7.619999999999999
 49
4.7625
 74
    0
 49
-0.9525
 74
    0
 49
0.9525
 74
    0
 49
-0.9525
 74
    0
  0
LTYPE
  5
48
330
5
100
AcDbSymbolTableRecord
100
AcDbLinetypeTableRecord
  2
CENTER2
 70
    0
  3
Center (.5x) ___ _ ___ _ ___ _ ___ _ ___ _ ___
 72
   65
 73
    4
 40
28.575
 49
19.05
 74
    0
 49
-3.175
 74
    0
 49
3.175
 74
    0
 49
-3.175
 74
    0
  0
LTYPE
  5
49
330
5
100
AcDbSymbolTableRecord
100
AcDbLinetypeTableRecord
  2
CENTERX2
 70
    0
  3
Center (2x) ________  __  ________  __  _____
 72
   65
 73
    4
 40
101.6
 49
63.5
 74
    0
 49
-12.7
 74
    0
 49
12.7
 74
    0
 49
-12.7
 74
    0
  0
ENDTAB
  0
TABLE
  2
LAYER
  5
2
330
0
100
AcDbSymbolTable
 70
    1
  0
LAYER
  5
10
330
2
100
AcDbSymbolTableRecord
100
AcDbLayerTableRecord
  2
0
 70
    0
 62
    7
  6
CONTINUOUS
370
   -3
390
F
  0
LAYER
  5
4A
330
2
100
AcDbSymbolTableRecord
100
AcDbLayerTableRecord
  2
Shape2DView
 70
    0
 62
    7
  6
CONTINUOUS
370
   -3
390
F
  0
LAYER
  5
4B
330
2
100
AcDbSymbolTableRecord
100
AcDbLayerTableRecord
  2
none
 70
    0
 62
    7
  6
CONTINUOUS
370
   -3
390
F
  0
ENDTAB
  0
TABLE
  2
STYLE
  5
3
330
0
100
AcDbSymbolTable
 70
    3
  0
STYLE
  5
4C
330
2
100
AcDbSymbolTableRecord
100
AcDbTextStyleTableRecord
  2
Standard
 70
    0
 40
0
 41
1
 50
0
 71
    0
 42
1
  3
txt
  4

  0
ENDTAB
  0
TABLE
  2
VIEW
  5
6
330
0
100
AcDbSymbolTable
 70
    0
  0
ENDTAB
  0
TABLE
  2
UCS
  5
7
330
0
100
AcDbSymbolTable
 70
    0
  0
ENDTAB
  0
TABLE
  2
APPID
  5
9
330
0
100
AcDbSymbolTable
 70
    1
  0
APPID
  5
12
330
9
100
AcDbSymbolTableRecord
100
AcDbRegAppTableRecord
  2
ACAD
 70
    0
  0
APPID
  5
4D
330
9
100
AcDbSymbolTableRecord
100
AcDbRegAppTableRecord
  2
LibreCad
 70
    0
  0
ENDTAB
  0
TABLE
  2
DIMSTYLE
  5
A
330
0
100
AcDbSymbolTable
 70
    1
100
AcDbDimStyleTable
 71
    1
  0
DIMSTYLE
105
4E
330
A
100
AcDbSymbolTableRecord
100
AcDbDimStyleTableRecord
  2
Standard
 70
    0
 40
1
 41
2.5
 42
0.625
 43
0.38
 44
1.25
 45
0
 46
0
 47
0
 48
0
 49
1
140
2.5
141
0.09
142
2.5
143
25.4
144
1
145
0
146
1
147
0.625
148
0
 71
    0
 72
    0
 73
    0
 74
    1
 75
    0
 76
    0
 77
    0
 78
    1
 79
    0
170
    0
171
    2
172
    0
173
    0
174
    0
175
    0
176
    0
177
    0
178
    0
179
    0
271
    2
272
    4
273
    2
274
    2
275
    0
276
    0
277
    2
278
    0
279
    0
280
    0
281
    0
282
    0
283
    1
284
    0
285
    0
286
    0
288
    0
289
    3
340
STANDARD
341

371
   -2
372
   -2
  0
ENDTAB
  0
TABLE
  2
BLOCK_RECORD
  5
1
330
0
100
AcDbSymbolTable
 70
    2
  0
BLOCK_RECORD
  5
1F
330
1
100
AcDbSymbolTableRecord
100
AcDbBlockTableRecord
  2
*Model_Space
 70
    0
280
    1
281
    0
  0
BLOCK_RECORD
  5
1E
330
1
100
AcDbSymbolTableRecord
100
AcDbBlockTableRecord
  2
*Paper_Space
 70
    0
280
    1
281
    0
  0
ENDTAB
  0
ENDSEC
  0
SECTION
  2
BLOCKS
  0
BLOCK
  5
20
330
1F
100
AcDbEntity
  8
0
100
AcDbBlockBegin
  2
*Model_Space
 70
    0
 10
0
 20
0
 30
0
  3
*Model_Space
  1

  0
ENDBLK
  5
21
330
1F
100
AcDbEntity
  8
0
100
AcDbBlockEnd
  0
BLOCK
  5
1C
330
1B
100
AcDbEntity
  8
0
100
AcDbBlockBegin
  2
*Paper_Space
 70
    0
 10
0
 20
0
 30
0
  3
*Paper_Space
  1

  0
ENDBLK
  5
1D
330
1F
100
AcDbEntity
  8
0
100
AcDbBlockEnd
  0
ENDSEC
  0
SECTION
  2
ENTITIES
  0
ARC
  5
4F
100
AcDbEntity
  8
Shape2DView
  6
ByLayer
 62
  256
370
   -1
100
AcDbCircle
 10
0
 20
0
 40
44.5
100
AcDbArc
 50
0
 51
36.7961
  0
LINE
  5
50
100
AcDbEntity
  8
Shape2DView
  6
ByLayer
 62
  256
370
   -1
100
AcDbLine
 10
22.1678
 20
13.1875
 11
35.6344
 21
26.6541
  0
ARC
  5
51
100
AcDbEntity
  8
Shape2DView
  6
ByLayer
 62
  256
370
   -1
100
AcDbCircle
 10
0
 20
0
 40
44.5
100
AcDbArc
 50
53.2039
 51
-1.40334e-14
  0
LINE
  5
52
100
AcDbEntity
  8
Shape2DView
  6
ByLayer
 62
  256
370
   -1
100
AcDbLine
 10
26.6541
 20
35.6344
 11
13.1875
 21
22.1678
  0
ARC
  5
53
100
AcDbEntity
  8
Shape2DView
  6
ByLayer
 62
  256
370
   -1
100
AcDbCircle
 10
17.6777
 20
17.6777
 40
6.35
100
AcDbArc
 50
135
 51
-45
  0
ARC
  5
54
100
AcDbEntity
  8
Shape2DView
  6
ByLayer
 62
  256
370
   -1
100
AcDbCircle
 10
-8.6
 20
-40.6611
 40
0.2
100
AcDbArc
 50
180
 51
0
  0
LINE
  5
55
100
AcDbEntity
  8
Shape2DView
  6
ByLayer
 62
  256
370
   -1
100
AcDbLine
 10
-8.800000000000001
 20
-29.5298
 11
-8.800000000000001
 21
-40.6611
  0
LINE
  5
56
100
AcDbEntity
  8
Shape2DView
  6
ByLayer
 62
  256
370
   -1
100
AcDbLine
 10
-8.4
 20
-40.6611
 11
-8.4
 21
-29.5298
  0
ARC
  5
57
100
AcDbEntity
  8
Shape2DView
  6
ByLayer
 62
  256
370
   -1
100
AcDbCircle
 10
-8.6
 20
-29.5298
 40
0.2
100
AcDbArc
 50
0
 51
180
  0
ARC
  5
58
100
AcDbEntity
  8
Shape2DView
  6
ByLayer
 62
  256
370
   -1
100
AcDbCircle
 10
-40.6611
 20
-8.6
 40
0.2
100
AcDbArc
 50
90
 51
-90
  0
LINE
  5
59
100
AcDbEntity
  8
Shape2DView
  6
ByLayer
 62
  256
370
   -1
100
AcDbLine
 10
-29.5298
 20
-8.4
 11
-40.6611
 21
-8.4
  0
LINE
  5
5A
100
AcDbEntity
  8
Shape2DView
  6
ByLayer
 62
  256
370
   -1
100
AcDbLine
 10
-40.6611
 20
-8.800000000000001
 11
-29.5298
 21
-8.800000000000001
  0
ARC
  5
5B
100
AcDbEntity
  8
Shape2DView
  6
ByLayer
 62
  256
370
   -1
100
AcDbCircle
 10
-29.5298
 20
-8.6
 40
0.2
100
AcDbArc
 50
-90
 51
90
  0
LINE
  5
5C
100
AcDbEntity
  8
Shape2DView
  6
ByLayer
 62
  256
370
   -1
100
AcDbLine
 10
-38.0296
 20
-5.8
 11
-41.0937
 21
-5.8
  0
LINE
  5
5D
100
AcDbEntity
  8
Shape2DView
  6
ByLayer
 62
  256
370
   -1
100
AcDbLine
 10
-38.0296
 20
-5.8
 11
-38.0296
 21
5.8
  0
ARC
  5
5E
100
AcDbEntity
  8
Shape2DView
  6
ByLayer
 62
  256
370
   -1
100
AcDbCircle
 10
-41.0937
 20
-6
 40
0.2
100
AcDbArc
 50
90
 51
-90
  0
LINE
  5
5F
100
AcDbEntity
  8
Shape2DView
  6
ByLayer
 62
  256
370
   -1
100
AcDbLine
 10
-41.0937
 20
5.8
 11
-38.0296
 21
5.8
  0
LINE
  5
60
100
AcDbEntity
  8
Shape2DView
  6
ByLayer
 62
  256
370
   -1
100
AcDbLine
 10
-41.0937
 20
-6.2
 11
-29.9624
 21
-6.2
  0
ARC
  5
61
100
AcDbEntity
  8
Shape2DView
  6
ByLayer
 62
  256
370
   -1
100
AcDbCircle
 10
-41.0937
 20
6
 40
0.2
100
AcDbArc
 50
90
 51
-90
  0
ARC
  5
62
100
AcDbEntity
  8
Shape2DView
  6
ByLayer
 62
  256
370
   -1
100
AcDbCircle
 10
-29.9624
 20
-6
 40
0.2
100
AcDbArc
 50
-90
 51
90
  0
LINE
  5
63
100
AcDbEntity
  8
Shape2DView
  6
ByLayer
 62
  256
370
   -1
100
AcDbLine
 10
-29.9624
 20
6.2
 11
-41.0937
 21
6.2
  0
LINE
  5
64
100
AcDbEntity
  8
Shape2DView
  6
ByLayer
 62
  256
370
   -1
100
AcDbLine
 10
-29.9624
 20
-5.8
 11
-35.1624
 21
-5.8
  0
ARC
  5
65
100
AcDbEntity
  8
Shape2DView
  6
ByLayer
 62
  256
370
   -1
100
AcDbCircle
 10
-29.9624
 20
6
 40
0.2
100
AcDbArc
 50
-90
 51
90
  0
LINE
  5
66
100
AcDbEntity
  8
Shape2DView
  6
ByLayer
 62
  256
370
   -1
100
AcDbLine
 10
-35.1624
 20
5.8
 11
-35.1624
 21
-5.8
  0
LINE
  5
67
100
AcDbEntity
  8
Shape2DView
  6
ByLayer
 62
  256
370
   -1
100
AcDbLine
 10
-35.1624
 20
5.8
 11
-29.9624
 21
5.8
  0
LINE
  5
68
100
AcDbEntity
  8
Shape2DView
  6
ByLayer
 62
  256
370
   -1
100
AcDbLine
 10
-14.9291
 20
-19.3556
 11
-19.6102
 21
-14.6746
  0
ARC
  5
69
100
AcDbEntity
  8
Shape2DView
  6
ByLayer
 62
  256
370
   -1
100
AcDbCircle
 10
-14.222
 20
-18.6485
 40
1
100
AcDbArc
 50
-135
 51
-45
  0
LINE
  5
6A
100
AcDbEntity
  8
Shape2DView
  6
ByLayer
 62
  256
370
   -1
100
AcDbLine
 10
-10.6865
 20
-16.5272
 11
-13.5149
 21
-19.3556
  0
ARC
  5
6B
100
AcDbEntity
  8
Shape2DView
  6
ByLayer
 62
  256
370
   -1
100
AcDbCircle
 10
-11.3936
 20
-15.8201
 40
1
100
AcDbArc
 50
-45
 51
45
  0
LINE
  5
6C
100
AcDbEntity
  8
Shape2DView
  6
ByLayer
 62
  256
370
   -1
100
AcDbLine
 10
-15.3676
 20
-10.4319
 11
-10.6865
 21
-15.113
  0
ARC
  5
6D
100
AcDbEntity
  8
Shape2DView
  6
ByLayer
 62
  256
370
   -1
100
AcDbCircle
 10
-16.0747
 20
-11.1391
 40
1
100
AcDbArc
 50
45
 51
135
  0
LINE
  5
6E
100
AcDbEntity
  8
Shape2DView
  6
ByLayer
 62
  256
370
   -1
100
AcDbLine
 10
-19.6102
 20
-13.2604
 11
-16.7818
 21
-10.4319
  0
ARC
  5
6F
100
AcDbEntity
  8
Shape2DView
  6
ByLayer
 62
  256
370
   -1
100
AcDbCircle
 10
-18.9031
 20
-13.9675
 40
1
100
AcDbArc
 50
135
 51
-135
  0
LINE
  5
70
100
AcDbEntity
  8
Shape2DView
  6
ByLayer
 62
  256
370
   -1
100
AcDbLine
 10
-3.67696
 20
-6.01041
 11
-5.65685
 21
-4.03051
  0
ARC
  5
71
100
AcDbEntity
  8
Shape2DView
  6
ByLayer
 62
  256
370
   -1
100
AcDbCircle
 10
-3.18198
 20
-5.51543
 40
0.7
100
AcDbArc
 50
-135
 51
-45
  0
LINE
  5
72
100
AcDbEntity
  8
Shape2DView
  6
ByLayer
 62
  256
370
   -1
100
AcDbLine
 10
-0.8485279999999999
 20
-4.17193
 11
-2.68701
 21
-6.01041
  0
ARC
  5
73
100
AcDbEntity
  8
Shape2DView
  6
ByLayer
 62
  256
370
   -1
100
AcDbCircle
 10
-1.3435
 20
-3.67696
 40
0.7
100
AcDbArc
 50
-45
 51
45
  0
LINE
  5
74
100
AcDbEntity
  8
Shape2DView
  6
ByLayer
 62
  256
370
   -1
100
AcDbLine
 10
-2.82843
 20
-1.20208
 11
-0.8485279999999999
 21
-3.18198
  0
ARC
  5
75
100
AcDbEntity
  8
Shape2DView
  6
ByLayer
 62
  256
370
   -1
100
AcDbCircle
 10
-3.3234
 20
-1.69706
 40
0.7
100
AcDbArc
 50
45
 51
135
  0
LINE
  5
76
100
AcDbEntity
  8
Shape2DView
  6
ByLayer
 62
  256
370
   -1
100
AcDbLine
 10
-5.65685
 20
-3.04056
 11
-3.81838
 21
-1.20208
  0
ARC
  5
77
100
AcDbEntity
  8
Shape2DView
  6
ByLayer
 62
  256
370
   -1
100
AcDbCircle
 10
-5.16188
 20
-3.53553
 40
0.7
100
AcDbArc
 50
135
 51
-135
  0
LINE
  5
78
100
AcDbEntity
  8
Shape2DView
  6
ByLayer
 62
  256
370
   -1
100
AcDbLine
 10
5.8
 20
-38.0296
 11
5.8
 21
-41.0937
  0
LINE
  5
79
100
AcDbEntity
  8
Shape2DView
  6
ByLayer
 62
  256
370
   -1
100
AcDbLine
 10
5.8
 20
-38.0296
 11
-5.8
 21
-38.0296
  0
ARC
  5
7A
100
AcDbEntity
  8
Shape2DView
  6
ByLayer
 62
  256
370
   -1
100
AcDbCircle
 10
6
 20
-41.0937
 40
0.2
100
AcDbArc
 50
180
 51
0
  0
LINE
  5
7B
100
AcDbEntity
  8
Shape2DView
  6
ByLayer
 62
  256
370
   -1
100
AcDbLine
 10
-5.8
 20
-41.0937
 11
-5.8
 21
-38.0296
  0
LINE
  5
7C
100
AcDbEntity
  8
Shape2DView
  6
ByLayer
 62
  256
370
   -1
100
AcDbLine
 10
6.2
 20
-41.0937
 11
6.2
 21
-29.9624
  0
ARC
  5
7D
100
AcDbEntity
  8
Shape2DView
  6
ByLayer
 62
  256
370
   -1
100
AcDbCircle
 10
-6
 20
-41.0937
 40
0.2
100
AcDbArc
 50
180
 51
0
  0
ARC
  5
7E
100
AcDbEntity
  8
Shape2DView
  6
ByLayer
 62
  256
370
   -1
100
AcDbCircle
 10
6
 20
-29.9624
 40
0.2
100
AcDbArc
 50
0
 51
180
  0
LINE
  5
7F
100
AcDbEntity
  8
Shape2DView
  6
ByLayer
 62
  256
370
   -1
100
AcDbLine
 10
-6.2
 20
-29.9624
 11
-6.2
 21
-41.0937
  0
LINE
  5
80
100
AcDbEntity
  8
Shape2DView
  6
ByLayer
 62
  256
370
   -1
100
AcDbLine
 10
5.8
 20
-29.9624
 11
5.8
 21
-35.1624
  0
ARC
  5
81
100
AcDbEntity
  8
Shape2DView
  6
ByLayer
 62
  256
370
   -1
100
AcDbCircle
 10
-6
 20
-29.9624
 40
0.2
100
AcDbArc
 50
0
 51
180
  0
LINE
  5
82
100
AcDbEntity
  8
Shape2DView
  6
ByLayer
 62
  256
370
   -1
100
AcDbLine
 10
-5.8
 20
-35.1624
 11
5.8
 21
-35.1624
  0
LINE
  5
83
100
AcDbEntity
  8
Shape2DView
  6
ByLayer
 62
  256
370
   -1
100
AcDbLine
 10
-5.8
 20
-35.1624
 11
-5.8
 21
-29.9624
  0
ARC
  5
84
100
AcDbEntity
  8
Shape2DView
  6
ByLayer
 62
  256
370
   -1
100
AcDbCircle
 10
8.6
 20
-40.6611
 40
0.2
100
AcDbArc
 50
180
 51
0
  0
LINE
  5
85
100
AcDbEntity
  8
Shape2DView
  6
ByLayer
 62
  256
370
   -1
100
AcDbLine
 10
8.4
 20
-29.5298
 11
8.4
 21
-40.6611
  0
LINE
  5
86
100
AcDbEntity
  8
Shape2DView
  6
ByLayer
 62
  256
370
   -1
100
AcDbLine
 10
8.800000000000001
 20
-40.6611
 11
8.800000000000001
 21
-29.5298
  0
ARC
  5
87
100
AcDbEntity
  8
Shape2DView
  6
ByLayer
 62
  256
370
   -1
100
AcDbCircle
 10
8.6
 20
-29.5298
 40
0.2
100
AcDbArc
 50
0
 51
180
  0
ARC
  5
88
100
AcDbEntity
  8
Shape2DView
  6
ByLayer
 62
  256
370
   -1
100
AcDbCircle
 10
40.6611
 20
-8.6
 40
0.2
100
AcDbArc
 50
-90
 51
90
  0
LINE
  5
89
100
AcDbEntity
  8
Shape2DView
  6
ByLayer
 62
  256
370
   -1
100
AcDbLine
 10
29.5298
 20
-8.800000000000001
 11
40.6611
 21
-8.800000000000001
  0
LINE
  5
8A
100
AcDbEntity
  8
Shape2DView
  6
ByLayer
 62
  256
370
   -1
100
AcDbLine
 10
40.6611
 20
-8.4
 11
29.5298
 21
-8.4
  0
ARC
  5
8B
100
AcDbEntity
  8
Shape2DView
  6
ByLayer
 62
  256
370
   -1
100
AcDbCircle
 10
29.5298
 20
-8.6
 40
0.2
100
AcDbArc
 50
90
 51
-90
  0
ARC
  5
8C
100
AcDbEntity
  8
Shape2DView
  6
ByLayer
 62
  256
370
   -1
100
AcDbCircle
 10
-40.6611
 20
8.6
 40
0.2
100
AcDbArc
 50
90
 51
-90
  0
LINE
  5
8D
100
AcDbEntity
  8
Shape2DView
  6
ByLayer
 62
  256
370
   -1
100
AcDbLine
 10
-29.5298
 20
8.800000000000001
 11
-40.6611
 21
8.800000000000001
  0
LINE
  5
8E
100
AcDbEntity
  8
Shape2DView
  6
ByLayer
 62
  256
370
   -1
100
AcDbLine
 10
-40.6611
 20
8.4
 11
-29.5298
 21
8.4
  0
ARC
  5
8F
100
AcDbEntity
  8
Shape2DView
  6
ByLayer
 62
  256
370
   -1
100
AcDbCircle
 10
-29.5298
 20
8.6
 40
0.2
100
AcDbArc
 50
-90
 51
90
  0
ARC
  5
90
100
AcDbEntity
  8
Shape2DView
  6
ByLayer
 62
  256
370
   -1
100
AcDbCircle
 10
-8.6
 20
40.6611
 40
0.2
100
AcDbArc
 50
0
 51
180
  0
LINE
  5
91
100
AcDbEntity
  8
Shape2DView
  6
ByLayer
 62
  256
370
   -1
100
AcDbLine
 10
-8.4
 20
29.5298
 11
-8.4
 21
40.6611
  0
LINE
  5
92
100
AcDbEntity
  8
Shape2DView
  6
ByLayer
 62
  256
370
   -1
100
AcDbLine
 10
-8.800000000000001
 20
40.6611
 11
-8.800000000000001
 21
29.5298
  0
ARC
  5
93
100
AcDbEntity
  8
Shape2DView
  6
ByLayer
 62
  256
370
   -1
100
AcDbCircle
 10
-8.6
 20
29.5298
 40
0.2
100
AcDbArc
 50
180
 51
0
  0
LINE
  5
94
100
AcDbEntity
  8
Shape2DView
  6
ByLayer
 62
  256
370
   -1
100
AcDbLine
 10
-5.8
 20
38.0296
 11
-5.8
 21
41.0937
  0
LINE
  5
95
100
AcDbEntity
  8
Shape2DView
  6
ByLayer
 62
  256
370
   -1
100
AcDbLine
 10
-5.8
 20
38.0296
 11
5.8
 21
38.0296
  0
ARC
  5
96
100
AcDbEntity
  8
Shape2DView
  6
ByLayer
 62
  256
370
   -1
100
AcDbCircle
 10
-6
 20
41.0937
 40
0.2
100
AcDbArc
 50
0
 51
180
  0
LINE
  5
97
100
AcDbEntity
  8
Shape2DView
  6
ByLayer
 62
  256
370
   -1
100
AcDbLine
 10
5.8
 20
41.0937
 11
5.8
 21
38.0296
  0
LINE
  5
98
100
AcDbEntity
  8
Shape2DView
  6
ByLayer
 62
  256
370
   -1
100
AcDbLine
 10
-6.2
 20
41.0937
 11
-6.2
 21
29.9624
  0
ARC
  5
99
100
AcDbEntity
  8
Shape2DView
  6
ByLayer
 62
  256
370
   -1
100
AcDbCircle
 10
6
 20
41.0937
 40
0.2
100
AcDbArc
 50
0
 51
180
  0
ARC
  5
9A
100
AcDbEntity
  8
Shape2DView
  6
ByLayer
 62
  256
370
   -1
100
AcDbCircle
 10
-6
 20
29.9624
 40
0.2
100
AcDbArc
 50
180
 51
0
  0
LINE
  5
9B
100
AcDbEntity
  8
Shape2DView
  6
ByLayer
 62
  256
370
   -1
100
AcDbLine
 10
6.2
 20
29.9624
 11
6.2
 21
41.0937
  0
LINE
  5
9C
100
AcDbEntity
  8
Shape2DView
  6
ByLayer
 62
  256
370
   -1
100
AcDbLine
 10
-5.8
 20
29.9624
 11
-5.8
 21
35.1624
  0
ARC
  5
9D
100
AcDbEntity
  8
Shape2DView
  6
ByLayer
 62
  256
370
   -1
100
AcDbCircle
 10
6
 20
29.9624
 40
0.2
100
AcDbArc
 50
180
 51
0
  0
LINE
  5
9E
100
AcDbEntity
  8
Shape2DView
  6
ByLayer
 62
  256
370
   -1
100
AcDbLine
 10
5.8
 20
35.1624
 11
-5.8
 21
35.1624
  0
LINE
  5
9F
100
AcDbEntity
  8
Shape2DView
  6
ByLayer
 62
  256
370
   -1
100
AcDbLine
 10
5.8
 20
35.1624
 11
5.8
 21
29.9624
  0
LINE
  5
A0
100
AcDbEntity
  8
Shape2DView
  6
ByLayer
 62
  256
370
   -1
100
AcDbLine
 10
38.0296
 20
5.8
 11
41.0937
 21
5.8
  0
LINE
  5
A1
100
AcDbEntity
  8
Shape2DView
  6
ByLayer
 62
  256
370
   -1
100
AcDbLine
 10
38.0296
 20
5.8
 11
38.0296
 21
-5.8
  0
ARC
  5
A2
100
AcDbEntity
  8
Shape2DView
  6
ByLayer
 62
  256
370
   -1
100
AcDbCircle
 10
41.0937
 20
6
 40
0.2
100
AcDbArc
 50
-90
 51
90
  0
LINE
  5
A3
100
AcDbEntity
  8
Shape2DView
  6
ByLayer
 62
  256
370
   -1
100
AcDbLine
 10
41.0937
 20
-5.8
 11
38.0296
 21
-5.8
  0
LINE
  5
A4
100
AcDbEntity
  8
Shape2DView
  6
ByLayer
 62
  256
370
   -1
100
AcDbLine
 10
41.0937
 20
6.2
 11
29.9624
 21
6.2
  0
ARC
  5
A5
100
AcDbEntity
  8
Shape2DView
  6
ByLayer
 62
  256
370
   -1
100
AcDbCircle
 10
41.0937
 20
-6
 40
0.2
100
AcDbArc
 50
-90
 51
90
  0
ARC
  5
A6
100
AcDbEntity
  8
Shape2DView
  6
ByLayer
 62
  256
370
   -1
100
AcDbCircle
 10
29.9624
 20
6
 40
0.2
100
AcDbArc
 50
90
 51
-90
  0
LINE
  5
A7
100
AcDbEntity
  8
Shape2DView
  6
ByLayer
 62
  256
370
   -1
100
AcDbLine
 10
29.9624
 20
-6.2
 11
41.0937
 21
-6.2
  0
LINE
  5
A8
100
AcDbEntity
  8
Shape2DView
  6
ByLayer
 62
  256
370
   -1
100
AcDbLine
 10
29.9624
 20
5.8
 11
35.1624
 21
5.8
  0
ARC
  5
A9
100
AcDbEntity
  8
Shape2DView
  6
ByLayer
 62
  256
370
   -1
100
AcDbCircle
 10
29.9624
 20
-6
 40
0.2
100
AcDbArc
 50
90
 51
-90
  0
LINE
  5
AA
100
AcDbEntity
  8
Shape2DView
  6
ByLayer
 62
  256
370
   -1
100
AcDbLine
 10
35.1624
 20
-5.8
 11
35.1624
 21
5.8
  0
LINE
  5
AB
100
AcDbEntity
  8
Shape2DView
  6
ByLayer
 62
  256
370
   -1
100
AcDbLine
 10
35.1624
 20
-5.8
 11
29.9624
 21
-5.8
  0
ARC
  5
AC
100
AcDbEntity
  8
Shape2DView
  6
ByLayer
 62
  256
370
   -1
100
AcDbCircle
 10
40.6611
 20
8.6
 40
0.2
100
AcDbArc
 50
-90
 51
90
  0
LINE
  5
AD
100
AcDbEntity
  8
Shape2DView
  6
ByLayer
 62
  256
370
   -1
100
AcDbLine
 10
29.5298
 20
8.4
 11
40.6611
 21
8.4
  0
LINE
  5
AE
100
AcDbEntity
  8
Shape2DView
  6
ByLayer
 62
  256
370
   -1
100
AcDbLine
 10
40.6611
 20
8.800000000000001
 11
29.5298
 21
8.800000000000001
  0
ARC
  5
AF
100
AcDbEntity
  8
Shape2DView
  6
ByLayer
 62
  256
370
   -1
100
AcDbCircle
 10
29.5298
 20
8.6
 40
0.2
100
AcDbArc
 50
90
 51
-90
  0
ARC
  5
B0
100
AcDbEntity
  8
Shape2DView
  6
ByLayer
 62
  256
370
   -1
100
AcDbCircle
 10
8.6
 20
40.6611
 40
0.2
100
AcDbArc
 50
0
 51
180
  0
LINE
  5
B1
100
AcDbEntity
  8
Shape2DView
  6
ByLayer
 62
  256
370
   -1
100
AcDbLine
 10
8.800000000000001
 20
29.5298
 11
8.800000000000001
 21
40.6611
  0
LINE
  5
B2
100
AcDbEntity
  8
Shape2DView
  6
ByLayer
 62
  256
370
   -1
100
AcDbLine
 10
8.4
 20
40.6611
 11
8.4
 21
29.5298
  0
ARC
  5
B3
100
AcDbEntity
  8
Shape2DView
  6
ByLayer
 62
  256
370
   -1
100
AcDbCircle
 10
8.6
 20
29.5298
 40
0.2
100
AcDbArc
 50
180
 51
0
  0
SPLINE
  5
B4
100
AcDbEntity
  8
Shape2DView
  6
ByLayer
 62
    1
370
   -1
100
AcDbSpline
210
0
220
0
230
0
 70
    8
 71
    3
 72
    8
 73
    4
 74
    0
 42
1e-07
 43
1e-07
 40
0
 40
0
 40
0
 40
0
 40
1
 40
1
 40
1
 40
1
 10
9.20734
 20
7.61985
 30
0
 10
9.20734
 20
7.61985
 30
0
 10
8.93581
 20
8.07239
 30
0
 10
8.61007
 20
8.39813
 30
0
  0
LINE
  5
B5
100
AcDbEntity
  8
Shape2DView
  6
ByLayer
 62
    1
370
   -1
100
AcDbLine
 10
8.79462
 20
7.2505
 11
9.20734
 21
7.61985
  0
SPLINE
  5
B6
100
AcDbEntity
  8
Shape2DView
  6
ByLayer
 62
    1
370
   -1
100
AcDbSpline
210
0
220
0
230
0
 70
    8
 71
    3
 72
    8
 73
    4
 74
    0
 42
1e-07
 43
1e-07
 40
0
 40
0
 40
0
 40
0
 40
1
 40
1
 40
1
 40
1
 10
8.61007
 20
8.39813
 30
0
 10
8.04167
 20
8.966530000000001
 30
0
 10
7.54917
 20
9.00271
 30
0
 10
7.01684
 20
8.47038
 30
0
  0
SPLINE
  5
B7
100
AcDbEntity
  8
Shape2DView
  6
ByLayer
 62
    1
370
   -1
100
AcDbSpline
210
0
220
0
230
0
 70
    8
 71
    3
 72
    8
 73
    4
 74
    0
 42
1e-07
 43
1e-07
 40
0
 40
0
 40
0
 40
0
 40
1
 40
1
 40
1
 40
1
 10
8.211729999999999
 20
7.92744
 30
0
 10
8.428929999999999
 20
7.71024
 30
0
 10
8.79462
 20
7.2505
 30
0
 10
8.79462
 20
7.2505
 30
0
  0
SPLINE
  5
B8
100
AcDbEntity
  8
Shape2DView
  6
ByLayer
 62
    1
370
   -1
100
AcDbSpline
210
0
220
0
230
0
 70
    8
 71
    3
 72
    8
 73
    4
 74
    0
 42
1e-07
 43
1e-07
 40
0
 40
0
 40
0
 40
0
 40
1
 40
1
 40
1
 40
1
 10
7.01684
 20
8.47038
 30
0
 10
6.64749
 20
8.10103
 30
0
 10
6.67637
 20
7.71719
 30
0
 10
6.99857
 20
7.08362
 30
0
  0
SPLINE
  5
B9
100
AcDbEntity
  8
Shape2DView
  6
ByLayer
 62
    1
370
   -1
100
AcDbSpline
210
0
220
0
230
0
 70
    8
 71
    3
 72
    8
 73
    4
 74
    0
 42
1e-07
 43
1e-07
 40
0
 40
0
 40
0
 40
0
 40
1
 40
1
 40
1
 40
1
 10
7.59619
 20
8.03598
 30
0
 10
7.78817
 20
8.227959999999999
 30
0
 10
7.94739
 20
8.19178
 30
0
 10
8.211729999999999
 20
7.92744
 30
0
  0
SPLINE
  5
BA
100
AcDbEntity
  8
Shape2DView
  6
ByLayer
 62
    1
370
   -1
100
AcDbSpline
210
0
220
0
230
0
 70
    8
 71
    3
 72
    8
 73
    4
 74
    0
 42
1e-07
 43
1e-07
 40
0
 40
0
 40
0
 40
0
 40
1
 40
1
 40
1
 40
1
 10
6.99857
 20
7.08362
 30
0
 10
7.21565
 20
6.65629
 30
0
 10
7.26998
 20
6.5223
 30
0
 10
7.04913
 20
6.30144
 30
0
  0
SPLINE
  5
BB
100
AcDbEntity
  8
Shape2DView
  6
ByLayer
 62
    1
370
   -1
100
AcDbSpline
210
0
220
0
230
0
 70
    8
 71
    3
 72
    8
 73
    4
 74
    0
 42
1e-07
 43
1e-07
 40
0
 40
0
 40
0
 40
0
 40
1
 40
1
 40
1
 40
1
 10
7.69377
 20
7.25745
 30
0
 10
7.46573
 20
7.73911
 30
0
 10
7.42236
 20
7.86215
 30
0
 10
7.59619
 20
8.03598
 30
0
  0
SPLINE
  5
BC
100
AcDbEntity
  8
Shape2DView
  6
ByLayer
 62
    1
370
   -1
100
AcDbSpline
210
0
220
0
230
0
 70
    8
 71
    3
 72
    8
 73
    4
 74
    0
 42
1e-07
 43
1e-07
 40
0
 40
0
 40
0
 40
0
 40
1
 40
1
 40
1
 40
1
 10
7.04913
 20
6.30144
 30
0
 10
6.83181
 20
6.08413
 30
0
 10
6.65798
 20
6.12031
 30
0
 10
6.44078
 20
6.33751
 30
0
  0
SPLINE
  5
BD
100
AcDbEntity
  8
Shape2DView
  6
ByLayer
 62
    1
370
   -1
100
AcDbSpline
210
0
220
0
230
0
 70
    8
 71
    3
 72
    8
 73
    4
 74
    0
 42
1e-07
 43
1e-07
 40
0
 40
0
 40
0
 40
0
 40
1
 40
1
 40
1
 40
1
 10
7.59938
 20
5.83794
 30
0
 10
8.070309999999999
 20
6.30887
 30
0
 10
8.005140000000001
 20
6.60574
 30
0
 10
7.69377
 20
7.25745
 30
0
  0
SPLINE
  5
BE
100
AcDbEntity
  8
Shape2DView
  6
ByLayer
 62
    1
370
   -1
100
AcDbSpline
210
0
220
0
230
0
 70
    8
 71
    3
 72
    8
 73
    4
 74
    0
 42
1e-07
 43
1e-07
 40
0
 40
0
 40
0
 40
0
 40
1
 40
1
 40
1
 40
1
 10
6.44078
 20
6.33751
 30
0
 10
6.22358
 20
6.55471
 30
0
 10
5.79637
 20
7.08327
 30
0
 10
5.79637
 20
7.08327
 30
0
  0
SPLINE
  5
BF
100
AcDbEntity
  8
Shape2DView
  6
ByLayer
 62
    1
370
   -1
100
AcDbSpline
210
0
220
0
230
0
 70
    8
 71
    3
 72
    8
 73
    4
 74
    0
 42
1e-07
 43
1e-07
 40
0
 40
0
 40
0
 40
0
 40
1
 40
1
 40
1
 40
1
 10
6.00638
 20
5.90311
 30
0
 10
6.57478
 20
5.33471
 30
0
 10
7.06716
 20
5.30572
 30
0
 10
7.59938
 20
5.83794
 30
0
  0
LINE
  5
C0
100
AcDbEntity
  8
Shape2DView
  6
ByLayer
 62
    1
370
   -1
100
AcDbLine
 10
5.79637
 20
7.08327
 11
5.36916
 21
6.70673
  0
SPLINE
  5
C1
100
AcDbEntity
  8
Shape2DView
  6
ByLayer
 62
    1
370
   -1
100
AcDbSpline
210
0
220
0
230
0
 70
    8
 71
    3
 72
    8
 73
    4
 74
    0
 42
1e-07
 43
1e-07
 40
0
 40
0
 40
0
 40
0
 40
1
 40
1
 40
1
 40
1
 10
5.36916
 20
6.70673
 30
0
 10
5.36916
 20
6.70673
 30
0
 10
5.68052
 20
6.22897
 30
0
 10
6.00638
 20
5.90311
 30
0
  0
LINE
  5
C2
100
AcDbEntity
  8
Shape2DView
  6
ByLayer
 62
    1
370
   -1
100
AcDbLine
 10
9.677680000000001
 20
7.24944
 11
7.21412
 21
4.78588
  0
LINE
  5
C3
100
AcDbEntity
  8
Shape2DView
  6
ByLayer
 62
    1
370
   -1
100
AcDbLine
 10
10.5248
 20
6.40233
 11
9.677680000000001
 21
7.24944
  0
LINE
  5
C4
100
AcDbEntity
  8
Shape2DView
  6
ByLayer
 62
    1
370
   -1
100
AcDbLine
 10
7.21412
 20
4.78588
 11
8.07573
 21
3.92427
  0
SPLINE
  5
C5
100
AcDbEntity
  8
Shape2DView
  6
ByLayer
 62
    1
370
   -1
100
AcDbSpline
210
0
220
0
230
0
 70
    8
 71
    3
 72
    8
 73
    4
 74
    0
 42
1e-07
 43
1e-07
 40
0
 40
0
 40
0
 40
0
 40
1
 40
1
 40
1
 40
1
 10
10.6692
 20
4.98281
 30
0
 10
11.1222
 20
5.43583
 30
0
 10
10.9773
 20
5.94978
 30
0
 10
10.5248
 20
6.40233
 30
0
  0
SPLINE
  5
C6
100
AcDbEntity
  8
Shape2DView
  6
ByLayer
 62
    1
370
   -1
100
AcDbSpline
210
0
220
0
230
0
 70
    8
 71
    3
 72
    8
 73
    4
 74
    0
 42
1e-07
 43
1e-07
 40
0
 40
0
 40
0
 40
0
 40
1
 40
1
 40
1
 40
1
 10
8.07573
 20
3.92427
 30
0
 10
8.582610000000001
 20
3.41739
 30
0
 10
9.089370000000001
 20
3.31604
 30
0
 10
9.59648
 20
3.82315
 30
0
  0
SPLINE
  5
C7
100
AcDbEntity
  8
Shape2DView
  6
ByLayer
 62
    1
370
   -1
100
AcDbSpline
210
0
220
0
230
0
 70
    8
 71
    3
 72
    8
 73
    4
 74
    0
 42
1e-07
 43
1e-07
 40
0
 40
0
 40
0
 40
0
 40
1
 40
1
 40
1
 40
1
 10
9.85033
 20
4.71411
 30
0
 10
10.1544
 20
4.65613
 30
0
 10
10.3644
 20
4.67805
 30
0
 10
10.6692
 20
4.98281
 30
0
  0
SPLINE
  5
C8
100
AcDbEntity
  8
Shape2DView
  6
ByLayer
 62
    1
370
   -1
100
AcDbSpline
210
0
220
0
230
0
 70
    8
 71
    3
 72
    8
 73
    4
 74
    0
 42
1e-07
 43
1e-07
 40
0
 40
0
 40
0
 40
0
 40
1
 40
1
 40
1
 40
1
 10
9.59648
 20
3.82315
 30
0
 10
9.90089
 20
4.12756
 30
0
 10
9.96241
 20
4.37741
 30
0
 10
9.85033
 20
4.71411
 30
0
  0
LINE
  5
C9
100
AcDbEntity
  8
Shape2DView
  6
ByLayer
 62
    1
370
   -1
100
AcDbLine
 10
6.1768
 20
10.7433
 11
5.67722
 21
11.2428
  0
LINE
  5
CA
100
AcDbEntity
  8
Shape2DView
  6
ByLayer
 62
    1
370
   -1
100
AcDbLine
 10
4.50779
 20
9.074249999999999
 11
6.1768
 21
10.7433
  0
LINE
  5
CB
100
AcDbEntity
  8
Shape2DView
  6
ByLayer
 62
    1
370
   -1
100
AcDbLine
 10
5.67722
 20
11.2428
 11
4.05159
 21
9.617190000000001
  0
SPLINE
  5
CC
100
AcDbEntity
  8
Shape2DView
  6
ByLayer
 62
    1
370
   -1
100
AcDbSpline
210
0
220
0
230
0
 70
    8
 71
    3
 72
    8
 73
    4
 74
    0
 42
1e-07
 43
1e-07
 40
0
 40
0
 40
0
 40
0
 40
1
 40
1
 40
1
 40
1
 10
4.47161
 20
8.30668
 30
0
 10
4.19277
 20
8.585520000000001
 30
0
 10
4.22176
 20
8.788220000000001
 30
0
 10
4.50779
 20
9.074249999999999
 30
0
  0
SPLINE
  5
CD
100
AcDbEntity
  8
Shape2DView
  6
ByLayer
 62
    1
370
   -1
100
AcDbSpline
210
0
220
0
230
0
 70
    8
 71
    3
 72
    8
 73
    4
 74
    0
 42
1e-07
 43
1e-07
 40
0
 40
0
 40
0
 40
0
 40
1
 40
1
 40
1
 40
1
 10
4.05159
 20
9.617190000000001
 30
0
 10
3.43617
 20
9.00177
 30
0
 10
3.42167
 20
8.487819999999999
 30
0
 10
4.03721
 20
7.87228
 30
0
  0
SPLINE
  5
CE
100
AcDbEntity
  8
Shape2DView
  6
ByLayer
 62
    1
370
   -1
100
AcDbSpline
210
0
220
0
230
0
 70
    8
 71
    3
 72
    8
 73
    4
 74
    0
 42
1e-07
 43
1e-07
 40
0
 40
0
 40
0
 40
0
 40
1
 40
1
 40
1
 40
1
 10
5.23905
 20
8.342980000000001
 30
0
 10
4.95303
 20
8.05696
 30
0
 10
4.75032
 20
8.02796
 30
0
 10
4.47161
 20
8.30668
 30
0
  0
SPLINE
  5
CF
100
AcDbEntity
  8
Shape2DView
  6
ByLayer
 62
    1
370
   -1
100
AcDbSpline
210
0
220
0
230
0
 70
    8
 71
    3
 72
    8
 73
    4
 74
    0
 42
1e-07
 43
1e-07
 40
0
 40
0
 40
0
 40
0
 40
1
 40
1
 40
1
 40
1
 10
4.03721
 20
7.87228
 30
0
 10
4.65263
 20
7.25686
 30
0
 10
5.16669
 20
7.27124
 30
0
 10
5.78211
 20
7.88666
 30
0
  0
LINE
  5
D0
100
AcDbEntity
  8
Shape2DView
  6
ByLayer
 62
    1
370
   -1
100
AcDbLine
 10
6.90806
 20
10.012
 11
5.23905
 21
8.342980000000001
  0
LINE
  5
D1
100
AcDbEntity
  8
Shape2DView
  6
ByLayer
 62
    1
370
   -1
100
AcDbLine
 10
5.78211
 20
7.88666
 11
7.40775
 21
9.5123
  0
LINE
  5
D2
100
AcDbEntity
  8
Shape2DView
  6
ByLayer
 62
    1
370
   -1
100
AcDbLine
 10
7.40775
 20
9.5123
 11
6.90806
 21
10.012
  0
LINE
  5
D3
100
AcDbEntity
  8
Shape2DView
  6
ByLayer
 62
    1
370
   -1
100
AcDbLine
 10
11.7935
 20
12.0997
 11
8.76629
 21
11.2885
  0
ARC
  5
D4
100
AcDbEntity
  8
Shape2DView
  6
ByLayer
 62
    1
370
   -1
100
AcDbCircle
 10
11.8582
 20
11.8582
 40
0.25
100
AcDbArc
 50
-15
 51
105
  0
ARC
  5
D5
100
AcDbEntity
  8
Shape2DView
  6
ByLayer
 62
    1
370
   -1
100
AcDbCircle
 10
8.83099
 20
11.047
 40
0.25
100
AcDbArc
 50
105
 51
-135
  0
LINE
  5
D6
100
AcDbEntity
  8
Shape2DView
  6
ByLayer
 62
    1
370
   -1
100
AcDbLine
 10
11.2885
 20
8.76629
 11
12.0997
 21
11.7935
  0
LINE
  5
D7
100
AcDbEntity
  8
Shape2DView
  6
ByLayer
 62
    1
370
   -1
100
AcDbLine
 10
8.65422
 20
10.8703
 11
10.8703
 21
8.65422
  0
ARC
  5
D8
100
AcDbEntity
  8
Shape2DView
  6
ByLayer
 62
    1
370
   -1
100
AcDbCircle
 10
11.047
 20
8.83099
 40
0.25
100
AcDbArc
 50
-135
 51
-15
  0
SPLINE
  5
D9
100
AcDbEntity
  8
Shape2DView
  6
ByLayer
 62
    1
370
   -1
100
AcDbSpline
210
0
220
0
230
0
 70
    8
 71
    3
 72
    8
 73
    4
 74
    0
 42
1e-07
 43
1e-07
 40
0
 40
0
 40
0
 40
0
 40
1
 40
1
 40
1
 40
1
 10
9.1153
 20
4.97845
 30
0
 10
9.32531
 20
4.76844
 30
0
 10
9.32884
 20
4.58365
 30
0
 10
9.118589999999999
 20
4.3734
 30
0
  0
LINE
  5
DA
100
AcDbEntity
  8
Shape2DView
  6
ByLayer
 62
    1
370
   -1
100
AcDbLine
 10
8.76056
 20
5.33318
 11
9.1153
 21
4.97845
  0
LINE
  5
DB
100
AcDbEntity
  8
Shape2DView
  6
ByLayer
 62
    1
370
   -1
100
AcDbLine
 10
8.140779999999999
 20
4.7134
 11
8.76056
 21
5.33318
  0
LINE
  5
DC
100
AcDbEntity
  8
Shape2DView
  6
ByLayer
 62
    1
370
   -1
100
AcDbLine
 10
8.495520000000001
 20
4.35867
 11
8.140779999999999
 21
4.7134
  0
SPLINE
  5
DD
100
AcDbEntity
  8
Shape2DView
  6
ByLayer
 62
    1
370
   -1
100
AcDbSpline
210
0
220
0
230
0
 70
    8
 71
    3
 72
    8
 73
    4
 74
    0
 42
1e-07
 43
1e-07
 40
0
 40
0
 40
0
 40
0
 40
1
 40
1
 40
1
 40
1
 10
9.118589999999999
 20
4.3734
 30
0
 10
8.908469999999999
 20
4.16327
 30
0
 10
8.70553
 20
4.14866
 30
0
 10
8.495520000000001
 20
4.35867
 30
0
  0
SPLINE
  5
DE
100
AcDbEntity
  8
Shape2DView
  6
ByLayer
 62
    1
370
   -1
100
AcDbSpline
210
0
220
0
230
0
 70
    8
 71
    2
 72
    6
 73
    3
 74
    0
 42
1e-07
 43
1e-07
 40
0
 40
0
 40
0
 40
1
 40
1
 40
1
 10
10.0977
 20
5.97523
 30
0
 10
10.3729
 20
5.70185
 30
0
 10
10.0935
 20
5.42793
 30
0
  0
LINE
  5
DF
100
AcDbEntity
  8
Shape2DView
  6
ByLayer
 62
    1
370
   -1
100
AcDbLine
 10
9.750159999999999
 20
6.32278
 11
10.0977
 21
5.97523
  0
LINE
  5
E0
100
AcDbEntity
  8
Shape2DView
  6
ByLayer
 62
    1
370
   -1
100
AcDbLine
 10
9.17693
 20
5.74955
 11
9.750159999999999
 21
6.32278
  0
LINE
  5
E1
100
AcDbEntity
  8
Shape2DView
  6
ByLayer
 62
    1
370
   -1
100
AcDbLine
 10
9.524470000000001
 20
5.402
 11
9.17693
 21
5.74955
  0
SPLINE
  5
E2
100
AcDbEntity
  8
Shape2DView
  6
ByLayer
 62
    1
370
   -1
100
AcDbSpline
210
0
220
0
230
0
 70
    8
 71
    3
 72
    8
 73
    4
 74
    0
 42
1e-07
 43
1e-07
 40
0
 40
0
 40
0
 40
0
 40
1
 40
1
 40
1
 40
1
 10
10.0935
 20
5.42793
 30
0
 10
9.908429999999999
 20
5.24291
 30
0
 10
9.709149999999999
 20
5.21733
 30
0
 10
9.524470000000001
 20
5.402
 30
0
  0
ENDSEC
  0
SECTION
  2
OBJECTS
  0
DICTIONARY
  5
C
330
0
100
AcDbDictionary
281
    1
  3
ACAD_GROUP
350
D
  0
DICTIONARY
  5
D
330
C
100
AcDbDictionary
281
    1
  0
ENDSEC
  0
EOF
