<?xml version="1.0"?>
<!DOCTYPE svg PUBLIC "-//W3C//DTD SVG 1.1//EN" "http://www.w3.org/Graphics/SVG/1.1/DTD/svg11.dtd">
<svg width="72.44685061624463mm" height="90.42053326321583mm" viewBox="0 0 72.44685061624463 90.42053326321583" xmlns="http://www.w3.org/2000/svg" version="1.1">
<g id="Shape2DView009" transform="translate(49.202666,45.210271) scale(1,-1)">
<path id="Shape2DView009_nwe0000"  d="M -26.55603386330992 26.725332488858808 L -25.709145453136365 26.654100926258558 " stroke="#ff0000" stroke-width="0.35 px" style="stroke-width:0.35;stroke-miterlimit:4;stroke-dasharray:none;stroke-linecap:square;fill:none;fill-opacity:1;fill-rule: evenodd"/>
<path id="Shape2DView009_nwe0001"  d="M -25.709145453136358 26.654100926258558 L -21.967532369574606 26.654099752702045 " stroke="#ff0000" stroke-width="0.35 px" style="stroke-width:0.35;stroke-miterlimit:4;stroke-dasharray:none;stroke-linecap:square;fill:none;fill-opacity:1;fill-rule: evenodd"/>
<path id="Shape2DView009_nwe0002"  d="M -2.170149545885699 -44.499999319335025 M -2.170149545885699 -44.49999931933503 L 4.795090626104006 -42.69743882982686 L 11.196049593984574 -37.43578572262907 L 16.514159730147068 -29.141307840230926 L 20.318579379378424 -18.485974451504937 L 22.30109708745274 -6.333017297898042 L 22.30110106014865 6.333003308423704 L 20.31859097562195 18.48596170566112 L 16.51417801047953 29.1412974808966 L 11.196073077442147 37.43577869934237 L 4.795117410196634 42.6974358218592 L -2.1701216310459204 44.50000068066059 " stroke="#ff0000" stroke-width="0.35 px" style="stroke-width:0.35;stroke-miterlimit:4;stroke-dasharray:none;stroke-linecap:square;fill:none;fill-opacity:1;fill-rule: evenodd"/>
<path id="Shape2DView009_nwe0003"  d="M -2.1701216310459266 44.500000680660584 M -2.1701216310459266 44.50000068066059 L -2.170135588465811 44.50000068065788 " stroke="#ff0000" stroke-width="0.35 px" style="stroke-width:0.35;stroke-miterlimit:4;stroke-dasharray:none;stroke-linecap:square;fill:none;fill-opacity:1;fill-rule: evenodd"/>
<path id="Shape2DView009_nwe0004"  d="M -2.1701355884658113 44.50000068065788 L -23.788344515711444 44.50000746120662 " stroke="#ff0000" stroke-width="0.35 px" style="stroke-width:0.35;stroke-miterlimit:4;stroke-dasharray:none;stroke-linecap:square;fill:none;fill-opacity:1;fill-rule: evenodd"/>
<path id="Shape2DView009_nwe0005"  d="M -23.788344515711447 44.500007461206614 M -23.788344515711447 44.50000746120662 L -30.753582904869926 42.697440537263404 L -37.1545393050329 37.43578275166945 L -42.4726464817207 29.141302173768945 L -46.27706317327264 18.48596805094147 L -48.259578275095606 6.3330118759668945 L -48.25958026144321 -6.333006469720717 L -46.277068971393426 -18.48596187375152 L -42.472655621885586 -29.141294517148683 L -37.15455104676033 -37.43577302698697 L -30.75359629691533 -42.697428323428824 L -23.788358473131336 -44.49999253878629 " stroke="#ff0000" stroke-width="0.35 px" style="stroke-width:0.35;stroke-miterlimit:4;stroke-dasharray:none;stroke-linecap:square;fill:none;fill-opacity:1;fill-rule: evenodd"/>
<path id="Shape2DView009_nwe0006"  d="M -23.788358473131336 -44.49999253878628 M -23.788358473131336 -44.49999253878629 L -16.82311830114163 -42.69743204927811 L -10.422159333261062 -37.435778942080326 L -5.104049197098568 -29.14130105968218 L -1.2996295478672124 -18.485967670956192 L 0.6828881602071029 -6.3330105173492965 L 0.6828921329030138 6.33301008897245 L -1.2996179516236843 18.485968486209863 L -5.104030916766106 29.141304261445345 L -10.422135849803489 37.435785479891116 L -16.823091517049 42.697442602407946 L -23.788330558291555 44.500007461209336 " stroke="#ff0000" stroke-width="0.35 px" style="stroke-width:0.35;stroke-miterlimit:4;stroke-dasharray:none;stroke-linecap:square;fill:none;fill-opacity:1;fill-rule: evenodd"/>
<path id="Shape2DView009_nwe0007"  d="M -23.788330558291563 44.50000746120933 M -23.788330558291563 44.500007461209336 L -23.788344515711447 44.50000746120662 " stroke="#ff0000" stroke-width="0.35 px" style="stroke-width:0.35;stroke-miterlimit:4;stroke-dasharray:none;stroke-linecap:square;fill:none;fill-opacity:1;fill-rule: evenodd"/>
<path id="Shape2DView009_nwe0008"  d="M -19.582206387384574 22.360628533202295 L -21.967532369574773 26.654099752702336 " stroke="#ff0000" stroke-width="0.35 px" style="stroke-width:0.35;stroke-miterlimit:4;stroke-dasharray:none;stroke-linecap:square;fill:none;fill-opacity:1;fill-rule: evenodd"/>
<path id="Shape2DView009_nwe0009"  d="M -19.582206387384904 22.36062853320186 M -19.582206387384904 22.36062853320186 L -22.68129855700242 10.919189965975335 L -23.53833992970635 -1.715812178135591 L -22.0596483337151 -14.163260862049018 L -18.40685778638141 -25.06254029405593 L -12.979250472248944 -33.22226321962565 " stroke="#ff0000" stroke-width="0.35 px" style="stroke-width:0.35;stroke-miterlimit:4;stroke-dasharray:none;stroke-linecap:square;fill:none;fill-opacity:1;fill-rule: evenodd"/>
<path id="Shape2DView009_nwe0010"  d="M -12.979229631928316 33.22227136149995 M -12.979229631928316 33.22227136149995 L -14.59304288852149 31.340888159267397 " stroke="#ff0000" stroke-width="0.35 px" style="stroke-width:0.35;stroke-miterlimit:4;stroke-dasharray:none;stroke-linecap:square;fill:none;fill-opacity:1;fill-rule: evenodd"/>
<path id="Shape2DView009_nwe0011"  d="M -18.334655972083585 31.340889332823462 L -14.593042888521836 31.34088815926695 " stroke="#ff0000" stroke-width="0.35 px" style="stroke-width:0.35;stroke-miterlimit:4;stroke-dasharray:none;stroke-linecap:square;fill:none;fill-opacity:1;fill-rule: evenodd"/>
<path id="Shape2DView009_nwe0012"  d="M -18.33465597208359 31.340889332823455 C -20.089185077373198 31.391315704759702 -22.03151606966346 30.77101997721109 -24.161648948954294 29.48000215017759 C -26.44849357922976 28.08462264715977 -27.451299339509674 25.260648784407564 -26.489885610670207 23.964470152624838 " stroke="#ff0000" stroke-width="0.35 px" style="stroke-width:0.35;stroke-miterlimit:4;stroke-dasharray:none;stroke-linecap:square;fill:none;fill-opacity:1;fill-rule: evenodd"/>
<path id="Shape2DView009_nwe0013"  d="M -26.489885610670207 23.964470152624838 Q -25.459367705162126 22.34861487079236 -23.323819470946425 22.36062970675899 " stroke="#ff0000" stroke-width="0.35 px" style="stroke-width:0.35;stroke-miterlimit:4;stroke-dasharray:none;stroke-linecap:square;fill:none;fill-opacity:1;fill-rule: evenodd"/>
<path id="Shape2DView009_nwe0014"  d="M -23.323819470946415 22.36062970675898 L -19.582206387384662 22.36062853320247 " stroke="#ff0000" stroke-width="0.35 px" style="stroke-width:0.35;stroke-miterlimit:4;stroke-dasharray:none;stroke-linecap:square;fill:none;fill-opacity:1;fill-rule: evenodd"/>
<path id="Shape2DView009_nwe0015"  d="M -23.788344515711447 38.50000746120728 M -23.788344515711447 38.50000746120729 L -31.10396812017608 36.178169048071936 L -37.53721986474052 29.492711967119156 L -42.31215492036884 19.250000722285847 L -44.85284585370238 6.685457016515883 L -44.852847950594146 -6.685450285487043 L -42.312160958128146 -19.249993003254318 L -37.53722911512474 -29.49270239124994 L -31.103979467452753 -36.17815697049195 L -23.788356591232024 -38.499992538786586 " stroke="#ff0000" stroke-width="0.35 px" style="stroke-width:0.35;stroke-miterlimit:4;stroke-dasharray:none;stroke-linecap:square;fill:none;fill-opacity:1;fill-rule: evenodd"/>
<path id="Shape2DView009_nwe0016"  d="M -23.788356591232024 -38.49999253878658 M -23.788356591232024 -38.499992538786586 L -16.472730997716923 -36.178160733589074 L -10.039476361428685 -29.4927079112015 L -5.264538136230204 -19.249998348779183 L -2.7238443426632912 -6.685453985843681 L -2.723840148879006 6.685455694509283 L -5.264526060709617 19.25000165121892 L -10.03945786065781 29.4927142089569 L -16.472708303161774 36.178171066922324 L -23.788332440190867 38.500007461209634 " stroke="#ff0000" stroke-width="0.35 px" style="stroke-width:0.35;stroke-miterlimit:4;stroke-dasharray:none;stroke-linecap:square;fill:none;fill-opacity:1;fill-rule: evenodd"/>
<path id="Shape2DView009_nwe0017"  d="M -23.788332440190874 38.50000746120963 M -23.788332440190874 38.500007461209634 L -23.788344515711447 38.50000746120729 " stroke="#ff0000" stroke-width="0.35 px" style="stroke-width:0.35;stroke-miterlimit:4;stroke-dasharray:none;stroke-linecap:square;fill:none;fill-opacity:1;fill-rule: evenodd"/>
<path id="Shape2DView009_nwe0018"  d="M -23.78832036003131 38.50000746119971 L -23.788344515711444 38.50000746120728 " stroke="#ff0000" stroke-width="0.35 px" style="stroke-width:0.35;stroke-miterlimit:4;stroke-dasharray:none;stroke-linecap:square;fill:none;fill-opacity:1;fill-rule: evenodd"/>
<path id="Shape2DView009_nwe0019"  d="M -23.323819470946415 22.360629706758978 L -25.70914545313635 26.65410092625855 " stroke="#ff0000" stroke-width="0.35 px" style="stroke-width:0.35;stroke-miterlimit:4;stroke-dasharray:none;stroke-linecap:square;fill:none;fill-opacity:1;fill-rule: evenodd"/>
<path id="Shape2DView009_nwe0020"  d="M -23.78835847313133 -44.49999253878629 L -2.170149545885696 -44.49999931933503 " stroke="#ff0000" stroke-width="0.35 px" style="stroke-width:0.35;stroke-miterlimit:4;stroke-dasharray:none;stroke-linecap:square;fill:none;fill-opacity:1;fill-rule: evenodd"/>
<path id="Shape2DView009_nwe0021"  d="M -23.78833055829156 44.500007461209336 L -2.1701216310459266 44.50000068066059 " stroke="#ff0000" stroke-width="0.35 px" style="stroke-width:0.35;stroke-miterlimit:4;stroke-dasharray:none;stroke-linecap:square;fill:none;fill-opacity:1;fill-rule: evenodd"/>
<title>b'PVC_pipe_01'</title>
</g>
</svg>