  0
SECTION
  2
HEADER
  9
$ACADVER
  1
AC1014
  9
$HANDSEED
  5
FFFF
  9
$INSUNITS
 70
     4
  9
$MEASUREMENT
 70
     1
  0
ENDSEC
  0
SECTION
  2
TABLES
  0
TABLE
  2
VPORT
  5
8
330
0
100
AcDbSymbolTable
 70
     4
  0
VPORT
  5
2E
330
8
100
AcDbSymbolTableRecord
100
AcDbViewportTableRecord
  2
*ACTIVE
 70
     0
 10
0.0
 20
0.0
 11
1.0
 21
1.0
 12
210.0
 22
148.5
 13
0.0
 23
0.0
 14
10.0
 24
10.0
 15
10.0
 25
10.0
 16
0.0
 26
0.0
 36
1.0
 17
0.0
 27
0.0
 37
0.0
 40
341.0
 41
1.24
 42
50.0
 43
0.0
 44
0.0
 50
0.0
 51
0.0
 71
     0
 72
   100
 73
     1
 74
     3
 75
     0
 76
     0
 77
     0
 78
     0
  0
ENDTAB
  0
TABLE
  2
LTYPE
  5
5
330
0
100
AcDbSymbolTable
 70
     1
  0
LTYPE
  5
14
330
5
100
AcDbSymbolTableRecord
100
AcDbLinetypeTableRecord
  2
BYBLOCK
 70
     0
  3

 72
    65
 73
     0
 40
0.0
  0
LTYPE
  5
15
330
5
100
AcDbSymbolTableRecord
100
AcDbLinetypeTableRecord
  2
BYLAYER
 70
     0
  3

 72
    65
 73
     0
 40
0.0
  0
LTYPE
  5
16
330
5
100
AcDbSymbolTableRecord
100
AcDbLinetypeTableRecord
  2
CONTINUOUS
 70
     0
  3
Solid line
 72
    65
 73
     0
 40
0.0
  0
ENDTAB
  0
TABLE
  2
LAYER
  5
2
100
AcDbSymbolTable
 70
2
  0
LAYER
  5
50
100
AcDbSymbolTableRecord
100
AcDbLayerTableRecord
  2
0
 70
0
  6
CONTINUOUS
  0
LAYER
  5
51
100
AcDbSymbolTableRecord
100
AcDbLayerTableRecord
  2
Layer_1
 70
0
  6
CONTINUOUS
  0
ENDTAB
  0
TABLE
  2
STYLE
  5
3
330
0
100
AcDbSymbolTable
 70
     1
  0
STYLE
  5
11
330
3
100
AcDbSymbolTableRecord
100
AcDbTextStyleTableRecord
  2
STANDARD
 70
     0
 40
0.0
 41
1.0
 50
0.0
 71
     0
 42
2.5
  3
txt
  4

  0
ENDTAB
  0
TABLE
  2
VIEW
  5
6
330
0
100
AcDbSymbolTable
 70
     0
  0
ENDTAB
  0
TABLE
  2
UCS
  5
7
330
0
100
AcDbSymbolTable
 70
     0
  0
ENDTAB
  0
TABLE
  2
APPID
  5
9
330
0
100
AcDbSymbolTable
 70
     2
  0
APPID
  5
12
330
9
100
AcDbSymbolTableRecord
100
AcDbRegAppTableRecord
  2
ACAD
 70
     0
  0
ENDTAB
  0
TABLE
  2
DIMSTYLE
  5
A
330
0
100
AcDbSymbolTable
 70
     1
  0
DIMSTYLE
105
27
330
A
100
AcDbSymbolTableRecord
100
AcDbDimStyleTableRecord
  2
ISO-25
 70
     0
  3

  4

  5

  6

  7

 40
1.0
 41
2.5
 42
0.625
 43
3.75
 44
1.25
 45
0.0
 46
0.0
 47
0.0
 48
0.0
140
2.5
141
2.5
142
0.0
143
0.03937007874016
144
1.0
145
0.0
146
1.0
147
0.625
 71
     0
 72
     0
 73
     0
 74
     0
 75
     0
 76
     0
 77
     1
 78
     8
170
     0
171
     3
172
     1
173
     0
174
     0
175
     0
176
     0
177
     0
178
     0
270
     2
271
     2
272
     2
273
     2
274
     3
340
11
275
     0
280
     0
281
     0
282
     0
283
     0
284
     8
285
     0
286
     0
287
     3
288
     0
  0
ENDTAB
  0
TABLE
  2
BLOCK_RECORD
  5
1
330
0
100
AcDbSymbolTable
 70
     1
  0
BLOCK_RECORD
  5
1F
330
1
100
AcDbSymbolTableRecord
100
AcDbBlockTableRecord
  2
*MODEL_SPACE
  0
BLOCK_RECORD
  5
1B
330
1
100
AcDbSymbolTableRecord
100
AcDbBlockTableRecord
  2
*PAPER_SPACE
  0
ENDTAB
  0
ENDSEC
  0
SECTION
  2
BLOCKS
  0
BLOCK
  5
20
330
1F
100
AcDbEntity
  8
0
100
AcDbBlockBegin
  2
*MODEL_SPACE
 70
     0
 10
0.0
 20
0.0
 30
0.0
  3
*MODEL_SPACE
  1

  0
ENDBLK
  5
21
330
1F
100
AcDbEntity
  8
0
100
AcDbBlockEnd
  0
BLOCK
  5
1C
330
1B
100
AcDbEntity
 67
     1
  8
0
100
AcDbBlockBegin
  2
*PAPER_SPACE
  1

  0
ENDBLK
  5
1D
330
1B
100
AcDbEntity
 67
     1
  8
0
100
AcDbBlockEnd
  0
ENDSEC
  0
SECTION
  2
ENTITIES
  0
SPLINE
  5
100
100
AcDbEntity
  8
Layer_1
 62
5
100
AcDbSpline
 70
8
 71
3
 72
8
 73
4
 74
0
 40
0
 40
0
 40
0
 40
0
 40
1
 40
1
 40
1
 40
1
 10
90.009493
 20
170.843880
 30
0.0
 10
90.147976
 20
170.702800
 30
0.0
 10
89.938504
 20
170.493560
 30
0.0
 10
89.797103
 20
170.632000
 30
0.0
  0
LWPOLYLINE
  5
101
100
AcDbEntity
  8
Layer_1
 62
5
100
AcDbPolyline
 90
3
 70
0
 10
90.295264
 20
183.999660
 30
0.0
 10
83.574744
 20
177.278110
 30
0.0
 10
90.009493
 20
170.843880
 30
0.0
  0
SPLINE
  5
102
100
AcDbEntity
  8
Layer_1
 62
5
100
AcDbSpline
 70
8
 71
3
 72
8
 73
4
 74
0
 40
0
 40
0
 40
0
 40
0
 40
1
 40
1
 40
1
 40
1
 10
80.816772
 20
179.753930
 30
0.0
 10
81.049445
 20
179.986080
 30
0.0
 10
80.917570
 20
180.384520
 30
0.0
 10
80.591980
 20
180.431920
 30
0.0
  0
LWPOLYLINE
  5
103
100
AcDbEntity
  8
Layer_1
 62
5
100
AcDbPolyline
 90
3
 70
0
 10
89.797103
 20
170.632000
 30
0.0
 10
80.745976
 20
179.683130
 30
0.0
 10
80.816772
 20
179.753930
 30
0.0
  0
SPLINE
  5
104
100
AcDbEntity
  8
Layer_1
 62
5
100
AcDbSpline
 70
8
 71
3
 72
8
 73
4
 74
0
 40
0
 40
0
 40
0
 40
0
 40
1
 40
1
 40
1
 40
1
 10
86.317729
 20
169.273950
 30
0.0
 10
86.457983
 20
169.132150
 30
0.0
 10
86.246755
 20
168.921220
 30
0.0
 10
86.105339
 20
169.062070
 30
0.0
  0
LWPOLYLINE
  5
105
100
AcDbEntity
  8
Layer_1
 62
5
100
AcDbPolyline
 90
4
 70
0
 10
80.591980
 20
180.431920
 30
0.0
 10
79.529513
 20
180.587980
 30
0.0
 10
77.266602
 20
178.326110
 30
0.0
 10
86.317729
 20
169.273950
 30
0.0
  0
SPLINE
  5
106
100
AcDbEntity
  8
Layer_1
 62
5
100
AcDbSpline
 70
8
 71
3
 72
8
 73
4
 74
0
 40
0
 40
0
 40
0
 40
0
 40
1
 40
1
 40
1
 40
1
 10
84.437740
 20
167.393440
 30
0.0
 10
84.582052
 20
167.252350
 30
0.0
 10
84.367267
 20
167.037320
 30
0.0
 10
84.225867
 20
167.181570
 30
0.0
  0
LWPOLYLINE
  5
107
100
AcDbEntity
  8
Layer_1
 62
5
100
AcDbPolyline
 90
4
 70
0
 10
86.105339
 20
169.062070
 30
0.0
 10
77.054728
 20
178.111650
 30
0.0
 10
75.386613
 20
176.444570
 30
0.0
 10
84.437740
 20
167.393440
 30
0.0
  0
SPLINE
  5
108
100
AcDbEntity
  8
Layer_1
 62
5
100
AcDbSpline
 70
8
 71
3
 72
8
 73
4
 74
0
 40
0
 40
0
 40
0
 40
0
 40
1
 40
1
 40
1
 40
1
 10
73.067375
 20
172.907320
 30
0.0
 10
73.114966
 20
172.581920
 30
0.0
 10
73.513243
 20
172.449950
 30
0.0
 10
73.745886
 20
172.682520
 30
0.0
  0
LWPOLYLINE
  5
109
100
AcDbEntity
  8
Layer_1
 62
5
100
AcDbPolyline
 90
4
 70
0
 10
84.225867
 20
167.181570
 30
0.0
 10
75.174740
 20
176.233210
 30
0.0
 10
72.912345
 20
173.970820
 30
0.0
 10
73.067375
 20
172.907320
 30
0.0
  0
SPLINE
  5
10a
100
AcDbEntity
  8
Layer_1
 62
5
100
AcDbSpline
 70
8
 71
3
 72
8
 73
4
 74
0
 40
0
 40
0
 40
0
 40
0
 40
1
 40
1
 40
1
 40
1
 10
78.831364
 20
167.737610
 30
0.0
 10
79.322098
 20
167.590790
 30
0.0
 10
79.706177
 20
167.206860
 30
0.0
 10
79.853524
 20
166.715960
 30
0.0
  0
LWPOLYLINE
  5
10b
100
AcDbEntity
  8
Layer_1
 62
5
100
AcDbPolyline
 90
3
 70
0
 10
73.745886
 20
172.682520
 30
0.0
 10
73.816683
 20
172.753840
 30
0.0
 10
78.831364
 20
167.737610
 30
0.0
  0
SPLINE
  5
10c
100
AcDbEntity
  8
Layer_1
 62
5
100
AcDbSpline
 70
8
 71
3
 72
8
 73
4
 74
0
 40
0
 40
0
 40
0
 40
0
 40
1
 40
1
 40
1
 40
1
 10
82.867810
 20
163.702190
 30
0.0
 10
83.008181
 20
163.560780
 30
0.0
 10
82.796842
 20
163.349690
 30
0.0
 10
82.655420
 20
163.490320
 30
0.0
  0
LWPOLYLINE
  5
10d
100
AcDbEntity
  8
Layer_1
 62
5
100
AcDbPolyline
 90
2
 70
0
 10
79.853524
 20
166.715960
 30
0.0
 10
82.867810
 20
163.702190
 30
0.0
  0
SPLINE
  5
10e
100
AcDbEntity
  8
Layer_1
 62
5
100
AcDbSpline
 70
8
 71
3
 72
8
 73
4
 74
0
 40
0
 40
0
 40
0
 40
0
 40
1
 40
1
 40
1
 40
1
 10
79.917086
 20
166.228650
 30
0.0
 10
79.873881
 20
164.894020
 30
0.0
 10
78.258570
 20
164.255340
 30
0.0
 10
77.314661
 20
165.199260
 30
0.0
  0
SPLINE
  5
10f
100
AcDbEntity
  8
Layer_1
 62
5
100
AcDbSpline
 70
8
 71
3
 72
8
 73
4
 74
0
 40
0
 40
0
 40
0
 40
0
 40
1
 40
1
 40
1
 40
1
 10
77.314661
 20
165.199260
 30
0.0
 10
76.370751
 20
166.143190
 30
0.0
 10
77.009152
 20
167.758570
 30
0.0
 10
78.343538
 20
167.801170
 30
0.0
  0
LWPOLYLINE
  5
110
100
AcDbEntity
  8
Layer_1
 62
5
100
AcDbPolyline
 90
2
 70
0
 10
82.655420
 20
163.490320
 30
0.0
 10
79.917086
 20
166.228650
 30
0.0
  0
SPLINE
  5
111
100
AcDbEntity
  8
Layer_1
 62
5
100
AcDbSpline
 70
8
 71
3
 72
8
 73
4
 74
0
 40
0
 40
0
 40
0
 40
0
 40
1
 40
1
 40
1
 40
1
 10
78.343538
 20
129.197840
 30
0.0
 10
77.009146
 20
129.240530
 30
0.0
 10
76.370742
 20
130.855830
 30
0.0
 10
77.314661
 20
131.799750
 30
0.0
  0
SPLINE
  5
112
100
AcDbEntity
  8
Layer_1
 62
5
100
AcDbSpline
 70
8
 71
3
 72
8
 73
4
 74
0
 40
0
 40
0
 40
0
 40
0
 40
1
 40
1
 40
1
 40
1
 10
77.314661
 20
131.799750
 30
0.0
 10
78.258579
 20
132.743680
 30
0.0
 10
79.873896
 20
132.105150
 30
0.0
 10
79.917086
 20
130.770350
 30
0.0
  0
LWPOLYLINE
  5
113
100
AcDbEntity
  8
Layer_1
 62
5
100
AcDbPolyline
 90
6
 70
0
 10
78.343538
 20
167.801170
 30
0.0
 10
76.220671
 20
169.925590
 30
0.0
 10
69.500151
 20
163.205070
 30
0.0
 10
69.500151
 20
133.793940
 30
0.0
 10
76.220671
 20
127.073420
 30
0.0
 10
78.343538
 20
129.197840
 30
0.0
  0
SPLINE
  5
114
100
AcDbEntity
  8
Layer_1
 62
5
100
AcDbSpline
 70
8
 71
3
 72
8
 73
4
 74
0
 40
0
 40
0
 40
0
 40
0
 40
1
 40
1
 40
1
 40
1
 10
82.655420
 20
133.508690
 30
0.0
 10
82.796845
 20
133.649400
 30
0.0
 10
83.008181
 20
133.438350
 30
0.0
 10
82.867810
 20
133.296810
 30
0.0
  0
LWPOLYLINE
  5
115
100
AcDbEntity
  8
Layer_1
 62
5
100
AcDbPolyline
 90
2
 70
0
 10
79.917086
 20
130.770350
 30
0.0
 10
82.655420
 20
133.508690
 30
0.0
  0
SPLINE
  5
116
100
AcDbEntity
  8
Layer_1
 62
5
100
AcDbSpline
 70
8
 71
3
 72
8
 73
4
 74
0
 40
0
 40
0
 40
0
 40
0
 40
1
 40
1
 40
1
 40
1
 10
79.853524
 20
130.283040
 30
0.0
 10
79.706177
 20
129.792220
 30
0.0
 10
79.322097
 20
129.408300
 30
0.0
 10
78.831364
 20
129.261400
 30
0.0
  0
LWPOLYLINE
  5
117
100
AcDbEntity
  8
Layer_1
 62
5
100
AcDbPolyline
 90
2
 70
0
 10
82.867810
 20
133.296810
 30
0.0
 10
79.853524
 20
130.283040
 30
0.0
  0
SPLINE
  5
118
100
AcDbEntity
  8
Layer_1
 62
5
100
AcDbSpline
 70
8
 71
3
 72
8
 73
4
 74
0
 40
0
 40
0
 40
0
 40
0
 40
1
 40
1
 40
1
 40
1
 10
73.745886
 20
124.316480
 30
0.0
 10
73.513245
 20
124.549120
 30
0.0
 10
73.114965
 20
124.417180
 30
0.0
 10
73.067375
 20
124.091690
 30
0.0
  0
LWPOLYLINE
  5
119
100
AcDbEntity
  8
Layer_1
 62
5
100
AcDbPolyline
 90
3
 70
0
 10
78.831364
 20
129.261400
 30
0.0
 10
73.816683
 20
124.245170
 30
0.0
 10
73.745886
 20
124.316480
 30
0.0
  0
SPLINE
  5
11a
100
AcDbEntity
  8
Layer_1
 62
5
100
AcDbSpline
 70
8
 71
3
 72
8
 73
4
 74
0
 40
0
 40
0
 40
0
 40
0
 40
1
 40
1
 40
1
 40
1
 10
84.225867
 20
129.817440
 30
0.0
 10
84.367295
 20
129.957810
 30
0.0
 10
84.578103
 20
129.746770
 30
0.0
 10
84.437740
 20
129.605570
 30
0.0
  0
LWPOLYLINE
  5
11b
100
AcDbEntity
  8
Layer_1
 62
5
100
AcDbPolyline
 90
4
 70
0
 10
73.067375
 20
124.091690
 30
0.0
 10
72.912345
 20
123.028190
 30
0.0
 10
75.174740
 20
120.765800
 30
0.0
 10
84.225867
 20
129.817440
 30
0.0
  0
SPLINE
  5
11c
100
AcDbEntity
  8
Layer_1
 62
5
100
AcDbSpline
 70
8
 71
3
 72
8
 73
4
 74
0
 40
0
 40
0
 40
0
 40
0
 40
1
 40
1
 40
1
 40
1
 10
86.105339
 20
127.937970
 30
0.0
 10
86.246755
 20
128.079820
 30
0.0
 10
86.460226
 20
127.866930
 30
0.0
 10
86.317729
 20
127.725060
 30
0.0
  0
LWPOLYLINE
  5
11d
100
AcDbEntity
  8
Layer_1
 62
5
100
AcDbPolyline
 90
4
 70
0
 10
84.437740
 20
129.605570
 30
0.0
 10
75.386613
 20
120.553920
 30
0.0
 10
77.054728
 20
118.887360
 30
0.0
 10
86.105339
 20
127.937970
 30
0.0
  0
SPLINE
  5
11e
100
AcDbEntity
  8
Layer_1
 62
5
100
AcDbSpline
 70
8
 71
3
 72
8
 73
4
 74
0
 40
0
 40
0
 40
0
 40
0
 40
1
 40
1
 40
1
 40
1
 10
80.591980
 20
116.567090
 30
0.0
 10
80.917548
 20
116.614610
 30
0.0
 10
81.049419
 20
117.012990
 30
0.0
 10
80.816772
 20
117.245080
 30
0.0
  0
LWPOLYLINE
  5
11f
100
AcDbEntity
  8
Layer_1
 62
5
100
AcDbPolyline
 90
4
 70
0
 10
86.317729
 20
127.725060
 30
0.0
 10
77.266602
 20
118.675480
 30
0.0
 10
79.529513
 20
116.411020
 30
0.0
 10
80.591980
 20
116.567090
 30
0.0
  0
SPLINE
  5
120
100
AcDbEntity
  8
Layer_1
 62
5
100
AcDbSpline
 70
8
 71
3
 72
8
 73
4
 74
0
 40
0
 40
0
 40
0
 40
0
 40
1
 40
1
 40
1
 40
1
 10
89.797103
 20
126.367000
 30
0.0
 10
89.938511
 20
126.506320
 30
0.0
 10
90.148776
 20
126.296330
 30
0.0
 10
90.009493
 20
126.155130
 30
0.0
  0
LWPOLYLINE
  5
121
100
AcDbEntity
  8
Layer_1
 62
5
100
AcDbPolyline
 90
3
 70
0
 10
80.816772
 20
117.245080
 30
0.0
 10
80.745976
 20
117.315880
 30
0.0
 10
89.797103
 20
126.367000
 30
0.0
  0
SPLINE
  5
122
100
AcDbEntity
  8
Layer_1
 62
5
100
AcDbSpline
 70
8
 71
3
 72
8
 73
4
 74
0
 40
0
 40
0
 40
0
 40
0
 40
1
 40
1
 40
1
 40
1
 10
119.990610
 20
126.155130
 30
0.0
 10
119.850410
 20
126.296310
 30
0.0
 10
120.061590
 20
126.507230
 30
0.0
 10
120.203000
 20
126.367000
 30
0.0
  0
LWPOLYLINE
  5
123
100
AcDbEntity
  8
Layer_1
 62
5
100
AcDbPolyline
 90
6
 70
0
 10
90.009493
 20
126.155130
 30
0.0
 10
83.574744
 20
119.720900
 30
0.0
 10
90.295264
 20
113.000380
 30
0.0
 10
119.704840
 20
113.000380
 30
0.0
 10
126.425360
 20
119.720900
 30
0.0
 10
119.990610
 20
126.155130
 30
0.0
  0
SPLINE
  5
124
100
AcDbEntity
  8
Layer_1
 62
5
100
AcDbSpline
 70
8
 71
3
 72
8
 73
4
 74
0
 40
0
 40
0
 40
0
 40
0
 40
1
 40
1
 40
1
 40
1
 10
129.182810
 20
117.245080
 30
0.0
 10
128.950160
 20
117.013010
 30
0.0
 10
129.082550
 20
116.614590
 30
0.0
 10
129.408120
 20
116.567090
 30
0.0
  0
LWPOLYLINE
  5
125
100
AcDbEntity
  8
Layer_1
 62
5
100
AcDbPolyline
 90
3
 70
0
 10
120.203000
 20
126.367000
 30
0.0
 10
129.253610
 20
117.315880
 30
0.0
 10
129.182810
 20
117.245080
 30
0.0
  0
SPLINE
  5
126
100
AcDbEntity
  8
Layer_1
 62
5
100
AcDbSpline
 70
8
 71
3
 72
8
 73
4
 74
0
 40
0
 40
0
 40
0
 40
0
 40
1
 40
1
 40
1
 40
1
 10
123.682370
 20
127.725060
 30
0.0
 10
123.542260
 20
127.866890
 30
0.0
 10
123.752830
 20
128.077420
 30
0.0
 10
123.894250
 20
127.937970
 30
0.0
  0
LWPOLYLINE
  5
127
100
AcDbEntity
  8
Layer_1
 62
5
100
AcDbPolyline
 90
4
 70
0
 10
129.408120
 20
116.567090
 30
0.0
 10
130.470590
 20
116.411020
 30
0.0
 10
132.733500
 20
118.675480
 30
0.0
 10
123.682370
 20
127.725060
 30
0.0
  0
SPLINE
  5
128
100
AcDbEntity
  8
Layer_1
 62
5
100
AcDbSpline
 70
8
 71
3
 72
8
 73
4
 74
0
 40
0
 40
0
 40
0
 40
0
 40
1
 40
1
 40
1
 40
1
 10
125.562360
 20
129.605570
 30
0.0
 10
125.419560
 20
129.746780
 30
0.0
 10
125.632820
 20
129.960250
 30
0.0
 10
125.774240
 20
129.817440
 30
0.0
  0
LWPOLYLINE
  5
129
100
AcDbEntity
  8
Layer_1
 62
5
100
AcDbPolyline
 90
4
 70
0
 10
123.894250
 20
127.937970
 30
0.0
 10
132.945370
 20
118.887360
 30
0.0
 10
134.612970
 20
120.554440
 30
0.0
 10
125.562360
 20
129.605570
 30
0.0
  0
SPLINE
  5
12a
100
AcDbEntity
  8
Layer_1
 62
5
100
AcDbSpline
 70
8
 71
3
 72
8
 73
4
 74
0
 40
0
 40
0
 40
0
 40
0
 40
1
 40
1
 40
1
 40
1
 10
136.932730
 20
124.091690
 30
0.0
 10
136.885140
 20
124.417180
 30
0.0
 10
136.486890
 20
124.549130
 30
0.0
 10
136.254220
 20
124.316480
 30
0.0
  0
LWPOLYLINE
  5
12b
100
AcDbEntity
  8
Layer_1
 62
5
100
AcDbPolyline
 90
4
 70
0
 10
125.774240
 20
129.817440
 30
0.0
 10
134.825360
 20
120.765800
 30
0.0
 10
137.087760
 20
123.028190
 30
0.0
 10
136.932730
 20
124.091690
 30
0.0
  0
SPLINE
  5
12c
100
AcDbEntity
  8
Layer_1
 62
5
100
AcDbSpline
 70
8
 71
3
 72
8
 73
4
 74
0
 40
0
 40
0
 40
0
 40
0
 40
1
 40
1
 40
1
 40
1
 10
131.168220
 20
129.261400
 30
0.0
 10
130.677480
 20
129.408300
 30
0.0
 10
130.293930
 20
129.792220
 30
0.0
 10
130.146580
 20
130.283040
 30
0.0
  0
LWPOLYLINE
  5
12d
100
AcDbEntity
  8
Layer_1
 62
5
100
AcDbPolyline
 90
3
 70
0
 10
136.254220
 20
124.316480
 30
0.0
 10
136.183420
 20
124.245170
 30
0.0
 10
131.168220
 20
129.261400
 30
0.0
  0
SPLINE
  5
12e
100
AcDbEntity
  8
Layer_1
 62
5
100
AcDbSpline
 70
8
 71
3
 72
8
 73
4
 74
0
 40
0
 40
0
 40
0
 40
0
 40
1
 40
1
 40
1
 40
1
 10
127.132290
 20
133.296810
 30
0.0
 10
126.992230
 20
133.438320
 30
0.0
 10
127.203260
 20
133.649090
 30
0.0
 10
127.344680
 20
133.508690
 30
0.0
  0
LWPOLYLINE
  5
12f
100
AcDbEntity
  8
Layer_1
 62
5
100
AcDbPolyline
 90
2
 70
0
 10
130.146580
 20
130.283040
 30
0.0
 10
127.132290
 20
133.296810
 30
0.0
  0
SPLINE
  5
130
100
AcDbEntity
  8
Layer_1
 62
5
100
AcDbSpline
 70
8
 71
3
 72
8
 73
4
 74
0
 40
0
 40
0
 40
0
 40
0
 40
1
 40
1
 40
1
 40
1
 10
130.083020
 20
130.770350
 30
0.0
 10
130.147830
 20
132.770300
 30
0.0
 10
133.131800
 20
132.721860
 30
0.0
 10
133.131930
 20
130.721260
 30
0.0
  0
SPLINE
  5
131
100
AcDbEntity
  8
Layer_1
 62
5
100
AcDbSpline
 70
8
 71
3
 72
8
 73
4
 74
0
 40
0
 40
0
 40
0
 40
0
 40
1
 40
1
 40
1
 40
1
 10
133.131930
 20
130.721260
 30
0.0
 10
133.131920
 20
129.898230
 30
0.0
 10
132.478700
 20
129.223940
 30
0.0
 10
131.656050
 20
129.197840
 30
0.0
  0
LWPOLYLINE
  5
132
100
AcDbEntity
  8
Layer_1
 62
5
100
AcDbPolyline
 90
2
 70
0
 10
127.344680
 20
133.508690
 30
0.0
 10
130.083020
 20
130.770350
 30
0.0
  0
SPLINE
  5
133
100
AcDbEntity
  8
Layer_1
 62
5
100
AcDbSpline
 70
8
 71
3
 72
8
 73
4
 74
0
 40
0
 40
0
 40
0
 40
0
 40
1
 40
1
 40
1
 40
1
 10
131.656050
 20
167.801680
 30
0.0
 10
132.478710
 20
167.775650
 30
0.0
 10
133.131930
 20
167.100800
 30
0.0
 10
133.131930
 20
166.277750
 30
0.0
  0
SPLINE
  5
134
100
AcDbEntity
  8
Layer_1
 62
5
100
AcDbSpline
 70
8
 71
3
 72
8
 73
4
 74
0
 40
0
 40
0
 40
0
 40
0
 40
1
 40
1
 40
1
 40
1
 10
133.131930
 20
166.277750
 30
0.0
 10
133.131800
 20
164.277080
 30
0.0
 10
130.147820
 20
164.228810
 30
0.0
 10
130.083020
 20
166.228650
 30
0.0
  0
LWPOLYLINE
  5
135
100
AcDbEntity
  8
Layer_1
 62
5
100
AcDbPolyline
 90
6
 70
0
 10
131.656050
 20
129.197840
 30
0.0
 10
133.779430
 20
127.073420
 30
0.0
 10
140.499950
 20
133.793940
 30
0.0
 10
140.499950
 20
163.205070
 30
0.0
 10
133.779430
 20
169.925590
 30
0.0
 10
131.656050
 20
167.801680
 30
0.0
  0
SPLINE
  5
136
100
AcDbEntity
  8
Layer_1
 62
5
100
AcDbSpline
 70
8
 71
3
 72
8
 73
4
 74
0
 40
0
 40
0
 40
0
 40
0
 40
1
 40
1
 40
1
 40
1
 10
127.344680
 20
163.490320
 30
0.0
 10
127.203250
 20
163.350000
 30
0.0
 10
126.992230
 20
163.560730
 30
0.0
 10
127.132290
 20
163.702190
 30
0.0
  0
LWPOLYLINE
  5
137
100
AcDbEntity
  8
Layer_1
 62
5
100
AcDbPolyline
 90
2
 70
0
 10
130.083020
 20
166.228650
 30
0.0
 10
127.344680
 20
163.490320
 30
0.0
  0
SPLINE
  5
138
100
AcDbEntity
  8
Layer_1
 62
5
100
AcDbSpline
 70
8
 71
3
 72
8
 73
4
 74
0
 40
0
 40
0
 40
0
 40
0
 40
1
 40
1
 40
1
 40
1
 10
130.146580
 20
166.715960
 30
0.0
 10
130.293930
 20
167.206860
 30
0.0
 10
130.677480
 20
167.590790
 30
0.0
 10
131.168220
 20
167.737610
 30
0.0
  0
LWPOLYLINE
  5
139
100
AcDbEntity
  8
Layer_1
 62
5
100
AcDbPolyline
 90
2
 70
0
 10
127.132290
 20
163.702190
 30
0.0
 10
130.146580
 20
166.715960
 30
0.0
  0
SPLINE
  5
13a
100
AcDbEntity
  8
Layer_1
 62
5
100
AcDbSpline
 70
8
 71
3
 72
8
 73
4
 74
0
 40
0
 40
0
 40
0
 40
0
 40
1
 40
1
 40
1
 40
1
 10
136.254220
 20
172.682520
 30
0.0
 10
136.486870
 20
172.449970
 30
0.0
 10
136.885130
 20
172.581920
 30
0.0
 10
136.932730
 20
172.907320
 30
0.0
  0
LWPOLYLINE
  5
13b
100
AcDbEntity
  8
Layer_1
 62
5
100
AcDbPolyline
 90
3
 70
0
 10
131.168220
 20
167.737610
 30
0.0
 10
136.183420
 20
172.753840
 30
0.0
 10
136.254220
 20
172.682520
 30
0.0
  0
SPLINE
  5
13c
100
AcDbEntity
  8
Layer_1
 62
5
100
AcDbSpline
 70
8
 71
3
 72
8
 73
4
 74
0
 40
0
 40
0
 40
0
 40
0
 40
1
 40
1
 40
1
 40
1
 10
125.774240
 20
167.181570
 30
0.0
 10
125.632810
 20
167.043210
 30
0.0
 10
125.423940
 20
167.252330
 30
0.0
 10
125.562360
 20
167.393440
 30
0.0
  0
LWPOLYLINE
  5
13d
100
AcDbEntity
  8
Layer_1
 62
5
100
AcDbPolyline
 90
4
 70
0
 10
136.932730
 20
172.907320
 30
0.0
 10
137.087760
 20
173.970820
 30
0.0
 10
134.825360
 20
176.233210
 30
0.0
 10
125.774240
 20
167.181570
 30
0.0
  0
SPLINE
  5
13e
100
AcDbEntity
  8
Layer_1
 62
5
100
AcDbSpline
 70
8
 71
3
 72
8
 73
4
 74
0
 40
0
 40
0
 40
0
 40
0
 40
1
 40
1
 40
1
 40
1
 10
123.894250
 20
169.062070
 30
0.0
 10
123.752840
 20
168.918660
 30
0.0
 10
123.539560
 20
169.132160
 30
0.0
 10
123.682370
 20
169.273950
 30
0.0
  0
LWPOLYLINE
  5
13f
100
AcDbEntity
  8
Layer_1
 62
5
100
AcDbPolyline
 90
4
 70
0
 10
125.562360
 20
167.393440
 30
0.0
 10
134.612970
 20
176.444570
 30
0.0
 10
132.945370
 20
178.111650
 30
0.0
 10
123.894250
 20
169.062070
 30
0.0
  0
SPLINE
  5
140
100
AcDbEntity
  8
Layer_1
 62
5
100
AcDbSpline
 70
8
 71
3
 72
8
 73
4
 74
0
 40
0
 40
0
 40
0
 40
0
 40
1
 40
1
 40
1
 40
1
 10
129.408120
 20
180.431920
 30
0.0
 10
129.082530
 20
180.384510
 30
0.0
 10
128.950130
 20
179.986100
 30
0.0
 10
129.182810
 20
179.753930
 30
0.0
  0
LWPOLYLINE
  5
141
100
AcDbEntity
  8
Layer_1
 62
5
100
AcDbPolyline
 90
4
 70
0
 10
123.682370
 20
169.273950
 30
0.0
 10
132.733500
 20
178.326110
 30
0.0
 10
130.470590
 20
180.587980
 30
0.0
 10
129.408120
 20
180.431920
 30
0.0
  0
SPLINE
  5
142
100
AcDbEntity
  8
Layer_1
 62
5
100
AcDbSpline
 70
8
 71
3
 72
8
 73
4
 74
0
 40
0
 40
0
 40
0
 40
0
 40
1
 40
1
 40
1
 40
1
 10
120.203000
 20
170.632000
 30
0.0
 10
120.061560
 20
170.492930
 30
0.0
 10
119.851500
 20
170.702750
 30
0.0
 10
119.990610
 20
170.843880
 30
0.0
  0
LWPOLYLINE
  5
143
100
AcDbEntity
  8
Layer_1
 62
5
100
AcDbPolyline
 90
3
 70
0
 10
129.182810
 20
179.753930
 30
0.0
 10
129.253610
 20
179.683130
 30
0.0
 10
120.203000
 20
170.632000
 30
0.0
  0
SPLINE
  5
144
100
AcDbEntity
  8
Layer_1
 62
5
100
AcDbSpline
 70
8
 71
3
 72
8
 73
4
 74
0
 40
0
 40
0
 40
0
 40
0
 40
1
 40
1
 40
1
 40
1
 10
104.999790
 20
181.499560
 30
0.0
 10
107.871470
 20
181.499560
 30
0.0
 10
110.743250
 20
181.124710
 30
0.0
 10
113.540870
 20
180.375080
 30
0.0
  0
SPLINE
  5
145
100
AcDbEntity
  8
Layer_1
 62
5
100
AcDbSpline
 70
8
 71
3
 72
8
 73
4
 74
0
 40
0
 40
0
 40
0
 40
0
 40
1
 40
1
 40
1
 40
1
 10
113.540870
 20
180.375080
 30
0.0
 10
116.767730
 20
179.516460
 30
0.0
 10
115.470700
 20
174.675550
 30
0.0
 10
112.246900
 20
175.545400
 30
0.0
  0
SPLINE
  5
146
100
AcDbEntity
  8
Layer_1
 62
5
100
AcDbSpline
 70
8
 71
3
 72
8
 73
4
 74
0
 40
0
 40
0
 40
0
 40
0
 40
1
 40
1
 40
1
 40
1
 10
112.246900
 20
175.545400
 30
0.0
 10
107.499350
 20
176.817500
 30
0.0
 10
102.500750
 20
176.817500
 30
0.0
 10
97.753206
 20
175.545400
 30
0.0
  0
SPLINE
  5
147
100
AcDbEntity
  8
Layer_1
 62
5
100
AcDbSpline
 70
8
 71
3
 72
8
 73
4
 74
0
 40
0
 40
0
 40
0
 40
0
 40
1
 40
1
 40
1
 40
1
 10
97.753206
 20
175.545400
 30
0.0
 10
94.537920
 20
174.690350
 30
0.0
 10
93.247184
 20
179.507920
 30
0.0
 10
96.459229
 20
180.375080
 30
0.0
  0
SPLINE
  5
148
100
AcDbEntity
  8
Layer_1
 62
5
100
AcDbSpline
 70
8
 71
3
 72
8
 73
4
 74
0
 40
0
 40
0
 40
0
 40
0
 40
1
 40
1
 40
1
 40
1
 10
96.459229
 20
180.375080
 30
0.0
 10
99.256878
 20
181.124710
 30
0.0
 10
102.128150
 20
181.499560
 30
0.0
 10
104.999790
 20
181.499560
 30
0.0
  0
LWPOLYLINE
  5
149
100
AcDbEntity
  8
Layer_1
 62
5
100
AcDbPolyline
 90
5
 70
0
 10
119.990610
 20
170.843880
 30
0.0
 10
126.425360
 20
177.278110
 30
0.0
 10
119.704840
 20
183.999660
 30
0.0
 10
90.295264
 20
183.999660
 30
0.0
 10
90.295264
 20
183.999660
 30
0.0
  0
SPLINE
  5
14a
100
AcDbEntity
  8
Layer_1
 62
5
100
AcDbSpline
 70
8
 71
3
 72
8
 73
4
 74
0
 40
0
 40
0
 40
0
 40
0
 40
1
 40
1
 40
1
 40
1
 10
94.803516
 20
171.688790
 30
0.0
 10
95.234061
 20
171.698639
 30
0.0
 10
95.650397
 20
171.534510
 30
0.0
 10
95.958398
 20
171.233510
 30
0.0
  0
SPLINE
  5
14b
100
AcDbEntity
  8
Layer_1
 62
5
100
AcDbSpline
 70
8
 71
3
 72
8
 73
4
 74
0
 40
0
 40
0
 40
0
 40
0
 40
1
 40
1
 40
1
 40
1
 10
95.958398
 20
171.233510
 30
0.0
 10
96.266400
 20
170.932510
 30
0.0
 10
96.440056
 20
170.520057
 30
0.0
 10
96.440108
 20
170.089400
 30
0.0
  0
SPLINE
  5
14c
100
AcDbEntity
  8
Layer_1
 62
5
100
AcDbSpline
 70
8
 71
3
 72
8
 73
4
 74
0
 40
0
 40
0
 40
0
 40
0
 40
1
 40
1
 40
1
 40
1
 10
96.440108
 20
170.089400
 30
0.0
 10
96.439666
 20
169.205968
 30
0.0
 10
95.723379
 20
168.490039
 30
0.0
 10
94.839947
 20
168.490039
 30
0.0
  0
SPLINE
  5
14d
100
AcDbEntity
  8
Layer_1
 62
5
100
AcDbSpline
 70
8
 71
3
 72
8
 73
4
 74
0
 40
0
 40
0
 40
0
 40
0
 40
1
 40
1
 40
1
 40
1
 10
94.839947
 20
168.490039
 30
0.0
 10
93.956516
 20
168.490039
 30
0.0
 10
93.240229
 20
169.205968
 30
0.0
 10
93.239787
 20
170.089400
 30
0.0
  0
SPLINE
  5
14e
100
AcDbEntity
  8
Layer_1
 62
5
100
AcDbSpline
 70
8
 71
3
 72
8
 73
4
 74
0
 40
0
 40
0
 40
0
 40
0
 40
1
 40
1
 40
1
 40
1
 10
93.239787
 20
170.089400
 30
0.0
 10
93.239847
 20
170.865914
 30
0.0
 10
93.797450
 20
171.530285
 30
0.0
 10
94.562187
 20
171.665010
 30
0.0
  0
SPLINE
  5
14f
100
AcDbEntity
  8
Layer_1
 62
5
100
AcDbSpline
 70
8
 71
3
 72
8
 73
4
 74
0
 40
0
 40
0
 40
0
 40
0
 40
1
 40
1
 40
1
 40
1
 10
94.562187
 20
171.665010
 30
0.0
 10
94.641913
 20
171.679030
 30
0.0
 10
94.722587
 20
171.686980
 30
0.0
 10
94.803516
 20
171.688790
 30
0.0
  0
LWPOLYLINE
  5
150
100
AcDbEntity
  8
Layer_1
 62
5
100
AcDbPolyline
 90
1
 70
1
 10
104.999790
 20
181.499560
 30
0.0
  0
SPLINE
  5
151
100
AcDbEntity
  8
Layer_1
 62
5
100
AcDbSpline
 70
8
 71
3
 72
8
 73
4
 74
0
 40
0
 40
0
 40
0
 40
0
 40
1
 40
1
 40
1
 40
1
 10
114.882390
 20
171.665010
 30
0.0
 10
115.348074
 20
171.746992
 30
0.0
 10
115.826172
 20
171.618795
 30
0.0
 10
116.188366
 20
171.314825
 30
0.0
  0
SPLINE
  5
152
100
AcDbEntity
  8
Layer_1
 62
5
100
AcDbSpline
 70
8
 71
3
 72
8
 73
4
 74
0
 40
0
 40
0
 40
0
 40
0
 40
1
 40
1
 40
1
 40
1
 10
116.188366
 20
171.314825
 30
0.0
 10
116.550560
 20
171.010854
 30
0.0
 10
116.759753
 20
170.562245
 30
0.0
 10
116.759800
 20
170.089400
 30
0.0
  0
SPLINE
  5
153
100
AcDbEntity
  8
Layer_1
 62
5
100
AcDbSpline
 70
8
 71
3
 72
8
 73
4
 74
0
 40
0
 40
0
 40
0
 40
0
 40
1
 40
1
 40
1
 40
1
 10
116.759800
 20
170.089400
 30
0.0
 10
116.750245
 20
169.212598
 30
0.0
 10
116.036749
 20
168.506835
 30
0.0
 10
115.159895
 20
168.506835
 30
0.0
  0
SPLINE
  5
154
100
AcDbEntity
  8
Layer_1
 62
5
100
AcDbSpline
 70
8
 71
3
 72
8
 73
4
 74
0
 40
0
 40
0
 40
0
 40
0
 40
1
 40
1
 40
1
 40
1
 10
115.159895
 20
168.506835
 30
0.0
 10
114.283041
 20
168.506835
 30
0.0
 10
113.569545
 20
169.212598
 30
0.0
 10
113.559990
 20
170.089400
 30
0.0
  0
SPLINE
  5
155
100
AcDbEntity
  8
Layer_1
 62
5
100
AcDbSpline
 70
8
 71
3
 72
8
 73
4
 74
0
 40
0
 40
0
 40
0
 40
0
 40
1
 40
1
 40
1
 40
1
 10
113.559990
 20
170.089400
 30
0.0
 10
113.560050
 20
170.865914
 30
0.0
 10
114.117653
 20
171.530285
 30
0.0
 10
114.882390
 20
171.665010
 30
0.0
  0
LWPOLYLINE
  5
156
100
AcDbEntity
  8
Layer_1
 62
5
100
AcDbPolyline
 90
1
 70
1
 10
94.803516
 20
171.688790
 30
0.0
  0
SPLINE
  5
157
100
AcDbEntity
  8
Layer_1
 62
5
100
AcDbSpline
 70
8
 71
3
 72
8
 73
4
 74
0
 40
0
 40
0
 40
0
 40
0
 40
1
 40
1
 40
1
 40
1
 10
75.446558
 20
158.904550
 30
0.0
 10
75.462371
 20
158.904700
 30
0.0
 10
75.478281
 20
158.904680
 30
0.0
 10
75.494100
 20
158.904550
 30
0.0
  0
SPLINE
  5
158
100
AcDbEntity
  8
Layer_1
 62
5
100
AcDbSpline
 70
8
 71
3
 72
8
 73
4
 74
0
 40
0
 40
0
 40
0
 40
0
 40
1
 40
1
 40
1
 40
1
 10
75.494100
 20
158.904550
 30
0.0
 10
76.973797
 20
158.892480
 30
0.0
 10
78.467621
 20
157.659110
 30
0.0
 10
77.953898
 20
155.746610
 30
0.0
  0
SPLINE
  5
159
100
AcDbEntity
  8
Layer_1
 62
5
100
AcDbSpline
 70
8
 71
3
 72
8
 73
4
 74
0
 40
0
 40
0
 40
0
 40
0
 40
1
 40
1
 40
1
 40
1
 10
77.953898
 20
155.746610
 30
0.0
 10
76.681801
 20
150.999050
 30
0.0
 10
76.681801
 20
145.999960
 30
0.0
 10
77.953898
 20
141.252400
 30
0.0
  0
SPLINE
  5
15a
100
AcDbEntity
  8
Layer_1
 62
5
100
AcDbSpline
 70
8
 71
3
 72
8
 73
4
 74
0
 40
0
 40
0
 40
0
 40
0
 40
1
 40
1
 40
1
 40
1
 10
77.953898
 20
141.252400
 30
0.0
 10
78.810452
 20
138.036200
 30
0.0
 10
73.990473
 20
136.744900
 30
0.0
 10
73.124219
 20
139.958420
 30
0.0
  0
SPLINE
  5
15b
100
AcDbEntity
  8
Layer_1
 62
5
100
AcDbSpline
 70
8
 71
3
 72
8
 73
4
 74
0
 40
0
 40
0
 40
0
 40
0
 40
1
 40
1
 40
1
 40
1
 10
73.124219
 20
139.958420
 30
0.0
 10
71.624965
 20
145.553750
 30
0.0
 10
71.624965
 20
151.445330
 30
0.0
 10
73.124219
 20
157.040580
 30
0.0
  0
SPLINE
  5
15c
100
AcDbEntity
  8
Layer_1
 62
5
100
AcDbSpline
 70
8
 71
3
 72
8
 73
4
 74
0
 40
0
 40
0
 40
0
 40
0
 40
1
 40
1
 40
1
 40
1
 10
73.124219
 20
157.040580
 30
0.0
 10
73.470214
 20
158.328750
 30
0.0
 10
74.450305
 20
158.895050
 30
0.0
 10
75.446558
 20
158.904550
 30
0.0
  0
LWPOLYLINE
  5
15d
100
AcDbEntity
  8
Layer_1
 62
5
100
AcDbPolyline
 90
1
 70
1
 10
114.882390
 20
171.665010
 30
0.0
  0
SPLINE
  5
15e
100
AcDbEntity
  8
Layer_1
 62
5
100
AcDbSpline
 70
8
 71
3
 72
8
 73
4
 74
0
 40
0
 40
0
 40
0
 40
0
 40
1
 40
1
 40
1
 40
1
 10
134.506520
 20
158.901450
 30
0.0
 10
135.518870
 20
158.910010
 30
0.0
 10
136.524300
 20
158.347600
 30
0.0
 10
136.875370
 20
157.040580
 30
0.0
  0
SPLINE
  5
15f
100
AcDbEntity
  8
Layer_1
 62
5
100
AcDbSpline
 70
8
 71
3
 72
8
 73
4
 74
0
 40
0
 40
0
 40
0
 40
0
 40
1
 40
1
 40
1
 40
1
 10
136.875370
 20
157.040580
 30
0.0
 10
138.374570
 20
151.445310
 30
0.0
 10
138.374570
 20
145.553750
 30
0.0
 10
136.875370
 20
139.958420
 30
0.0
  0
SPLINE
  5
160
100
AcDbEntity
  8
Layer_1
 62
5
100
AcDbSpline
 70
8
 71
3
 72
8
 73
4
 74
0
 40
0
 40
0
 40
0
 40
0
 40
1
 40
1
 40
1
 40
1
 10
136.875370
 20
139.958420
 30
0.0
 10
136.016220
 20
136.732560
 30
0.0
 10
131.176810
 20
138.029090
 30
0.0
 10
132.045690
 20
141.252400
 30
0.0
  0
SPLINE
  5
161
100
AcDbEntity
  8
Layer_1
 62
5
100
AcDbSpline
 70
8
 71
3
 72
8
 73
4
 74
0
 40
0
 40
0
 40
0
 40
0
 40
1
 40
1
 40
1
 40
1
 10
132.045690
 20
141.252400
 30
0.0
 10
133.317790
 20
145.999960
 30
0.0
 10
133.317790
 20
150.999050
 30
0.0
 10
132.045690
 20
155.746610
 30
0.0
  0
SPLINE
  5
162
100
AcDbEntity
  8
Layer_1
 62
5
100
AcDbSpline
 70
8
 71
3
 72
8
 73
4
 74
0
 40
0
 40
0
 40
0
 40
0
 40
1
 40
1
 40
1
 40
1
 10
132.045690
 20
155.746610
 30
0.0
 10
131.532590
 20
157.656810
 30
0.0
 10
133.026920
 20
158.888950
 30
0.0
 10
134.506520
 20
158.901450
 30
0.0
  0
LWPOLYLINE
  5
163
100
AcDbEntity
  8
Layer_1
 62
5
100
AcDbPolyline
 90
1
 70
1
 10
75.446558
 20
158.904550
 30
0.0
  0
SPLINE
  5
164
100
AcDbEntity
  8
Layer_1
 62
5
100
AcDbSpline
 70
8
 71
3
 72
8
 73
4
 74
0
 40
0
 40
0
 40
0
 40
0
 40
1
 40
1
 40
1
 40
1
 10
94.803516
 20
128.508990
 30
0.0
 10
95.234059
 20
128.518839
 30
0.0
 10
95.650394
 20
128.354712
 30
0.0
 10
95.958395
 20
128.053714
 30
0.0
  0
SPLINE
  5
165
100
AcDbEntity
  8
Layer_1
 62
5
100
AcDbSpline
 70
8
 71
3
 72
8
 73
4
 74
0
 40
0
 40
0
 40
0
 40
0
 40
1
 40
1
 40
1
 40
1
 10
95.958395
 20
128.053714
 30
0.0
 10
96.266396
 20
127.752716
 30
0.0
 10
96.440054
 20
127.340266
 30
0.0
 10
96.440108
 20
126.909610
 30
0.0
  0
SPLINE
  5
166
100
AcDbEntity
  8
Layer_1
 62
5
100
AcDbSpline
 70
8
 71
3
 72
8
 73
4
 74
0
 40
0
 40
0
 40
0
 40
0
 40
1
 40
1
 40
1
 40
1
 10
96.440108
 20
126.909610
 30
0.0
 10
96.439666
 20
126.026178
 30
0.0
 10
95.723379
 20
125.310249
 30
0.0
 10
94.839947
 20
125.310249
 30
0.0
  0
SPLINE
  5
167
100
AcDbEntity
  8
Layer_1
 62
5
100
AcDbSpline
 70
8
 71
3
 72
8
 73
4
 74
0
 40
0
 40
0
 40
0
 40
0
 40
1
 40
1
 40
1
 40
1
 10
94.839947
 20
125.310249
 30
0.0
 10
93.956516
 20
125.310249
 30
0.0
 10
93.240229
 20
126.026178
 30
0.0
 10
93.239787
 20
126.909610
 30
0.0
  0
SPLINE
  5
168
100
AcDbEntity
  8
Layer_1
 62
5
100
AcDbSpline
 70
8
 71
3
 72
8
 73
4
 74
0
 40
0
 40
0
 40
0
 40
0
 40
1
 40
1
 40
1
 40
1
 10
93.239787
 20
126.909610
 30
0.0
 10
93.239847
 20
127.686124
 30
0.0
 10
93.797450
 20
128.350495
 30
0.0
 10
94.562187
 20
128.485220
 30
0.0
  0
SPLINE
  5
169
100
AcDbEntity
  8
Layer_1
 62
5
100
AcDbSpline
 70
8
 71
3
 72
8
 73
4
 74
0
 40
0
 40
0
 40
0
 40
0
 40
1
 40
1
 40
1
 40
1
 10
94.562187
 20
128.485220
 30
0.0
 10
94.641913
 20
128.499237
 30
0.0
 10
94.722588
 20
128.507183
 30
0.0
 10
94.803516
 20
128.508990
 30
0.0
  0
LWPOLYLINE
  5
16a
100
AcDbEntity
  8
Layer_1
 62
5
100
AcDbPolyline
 90
1
 70
1
 10
134.506520
 20
158.901450
 30
0.0
  0
SPLINE
  5
16b
100
AcDbEntity
  8
Layer_1
 62
5
100
AcDbSpline
 70
8
 71
3
 72
8
 73
4
 74
0
 40
0
 40
0
 40
0
 40
0
 40
1
 40
1
 40
1
 40
1
 10
115.123720
 20
128.508990
 30
0.0
 10
115.554175
 20
128.518699
 30
0.0
 10
115.970377
 20
128.354510
 30
0.0
 10
116.278266
 20
128.053527
 30
0.0
  0
SPLINE
  5
16c
100
AcDbEntity
  8
Layer_1
 62
5
100
AcDbSpline
 70
8
 71
3
 72
8
 73
4
 74
0
 40
0
 40
0
 40
0
 40
0
 40
1
 40
1
 40
1
 40
1
 10
116.278266
 20
128.053527
 30
0.0
 10
116.586155
 20
127.752545
 30
0.0
 10
116.759743
 20
127.340175
 30
0.0
 10
116.759800
 20
126.909610
 30
0.0
  0
SPLINE
  5
16d
100
AcDbEntity
  8
Layer_1
 62
5
100
AcDbSpline
 70
8
 71
3
 72
8
 73
4
 74
0
 40
0
 40
0
 40
0
 40
0
 40
1
 40
1
 40
1
 40
1
 10
116.759800
 20
126.909610
 30
0.0
 10
116.750245
 20
126.032808
 30
0.0
 10
116.036749
 20
125.327045
 30
0.0
 10
115.159895
 20
125.327045
 30
0.0
  0
SPLINE
  5
16e
100
AcDbEntity
  8
Layer_1
 62
5
100
AcDbSpline
 70
8
 71
3
 72
8
 73
4
 74
0
 40
0
 40
0
 40
0
 40
0
 40
1
 40
1
 40
1
 40
1
 10
115.159895
 20
125.327045
 30
0.0
 10
114.283041
 20
125.327045
 30
0.0
 10
113.569545
 20
126.032808
 30
0.0
 10
113.559990
 20
126.909610
 30
0.0
  0
SPLINE
  5
16f
100
AcDbEntity
  8
Layer_1
 62
5
100
AcDbSpline
 70
8
 71
3
 72
8
 73
4
 74
0
 40
0
 40
0
 40
0
 40
0
 40
1
 40
1
 40
1
 40
1
 10
113.559990
 20
126.909610
 30
0.0
 10
113.560050
 20
127.686124
 30
0.0
 10
114.117653
 20
128.350495
 30
0.0
 10
114.882390
 20
128.485220
 30
0.0
  0
SPLINE
  5
170
100
AcDbEntity
  8
Layer_1
 62
5
100
AcDbSpline
 70
8
 71
3
 72
8
 73
4
 74
0
 40
0
 40
0
 40
0
 40
0
 40
1
 40
1
 40
1
 40
1
 10
114.882390
 20
128.485220
 30
0.0
 10
114.962116
 20
128.499237
 30
0.0
 10
115.042791
 20
128.507183
 30
0.0
 10
115.123720
 20
128.508990
 30
0.0
  0
LWPOLYLINE
  5
171
100
AcDbEntity
  8
Layer_1
 62
5
100
AcDbPolyline
 90
1
 70
1
 10
94.803516
 20
128.508990
 30
0.0
  0
SPLINE
  5
172
100
AcDbEntity
  8
Layer_1
 62
5
100
AcDbSpline
 70
8
 71
3
 72
8
 73
4
 74
0
 40
0
 40
0
 40
0
 40
0
 40
1
 40
1
 40
1
 40
1
 10
96.999764
 20
121.558000
 30
0.0
 10
97.236950
 20
121.558090
 30
0.0
 10
97.488728
 20
121.525010
 30
0.0
 10
97.753206
 20
121.453610
 30
0.0
  0
SPLINE
  5
173
100
AcDbEntity
  8
Layer_1
 62
5
100
AcDbSpline
 70
8
 71
3
 72
8
 73
4
 74
0
 40
0
 40
0
 40
0
 40
0
 40
1
 40
1
 40
1
 40
1
 10
97.753206
 20
121.453610
 30
0.0
 10
102.500760
 20
120.181510
 30
0.0
 10
107.499350
 20
120.181510
 30
0.0
 10
112.246900
 20
121.453610
 30
0.0
  0
SPLINE
  5
174
100
AcDbEntity
  8
Layer_1
 62
5
100
AcDbSpline
 70
8
 71
3
 72
8
 73
4
 74
0
 40
0
 40
0
 40
0
 40
0
 40
1
 40
1
 40
1
 40
1
 10
112.246900
 20
121.453610
 30
0.0
 10
115.462470
 20
122.309240
 30
0.0
 10
116.753510
 20
117.490760
 30
0.0
 10
113.540870
 20
116.623930
 30
0.0
  0
SPLINE
  5
175
100
AcDbEntity
  8
Layer_1
 62
5
100
AcDbSpline
 70
8
 71
3
 72
8
 73
4
 74
0
 40
0
 40
0
 40
0
 40
0
 40
1
 40
1
 40
1
 40
1
 10
113.540870
 20
116.623930
 30
0.0
 10
107.945610
 20
115.124670
 30
0.0
 10
102.054490
 20
115.124670
 30
0.0
 10
96.459229
 20
116.623930
 30
0.0
  0
SPLINE
  5
176
100
AcDbEntity
  8
Layer_1
 62
5
100
AcDbSpline
 70
8
 71
3
 72
8
 73
4
 74
0
 40
0
 40
0
 40
0
 40
0
 40
1
 40
1
 40
1
 40
1
 10
96.459229
 20
116.623930
 30
0.0
 10
93.534369
 20
117.401750
 30
0.0
 10
94.325198
 20
121.451360
 30
0.0
 10
96.898995
 20
121.555930
 30
0.0
  0
SPLINE
  5
177
100
AcDbEntity
  8
Layer_1
 62
5
100
AcDbSpline
 70
8
 71
3
 72
8
 73
4
 74
0
 40
0
 40
0
 40
0
 40
0
 40
1
 40
1
 40
1
 40
1
 10
96.898995
 20
121.555930
 30
0.0
 10
96.932277
 20
121.557280
 30
0.0
 10
96.965880
 20
121.557980
 30
0.0
 10
96.999764
 20
121.558000
 30
0.0
  0
LWPOLYLINE
  5
178
100
AcDbEntity
  8
Layer_1
 62
5
100
AcDbPolyline
 90
1
 70
1
 10
115.123720
 20
128.508990
 30
0.0
  0
LWPOLYLINE
  5
179
100
AcDbEntity
  8
Layer_1
 62
5
100
AcDbPolyline
 90
1
 70
1
 10
96.999764
 20
121.558000
 30
0.0
  0
ENDSEC
  0
SECTION
  2
OBJECTS
  0
DICTIONARY
  5
C
330
0
100
AcDbDictionary
  3
ACAD_GROUP
350
D
  3
ACAD_MLINESTYLE
350
17
  0
DICTIONARY
  5
D
330
C
100
AcDbDictionary
  0
DICTIONARY
  5
1A
330
C
100
AcDbDictionary
  0
DICTIONARY
  5
17
330
C
100
AcDbDictionary
  3
STANDARD
350
18
  0
DICTIONARY
  5
19
330
C
100
AcDbDictionary
  0
ENDSEC
  0
EOF
