999
FreeCAD v2023.810 14555 (Git shallow)
  0
SECTION
  2
HEADER
  9
$ACADVER
  1
AC1014
  9
$ACADMAINTVER
 70
     9
  9
$DWGCODEPAGE
  3
ANSI_1252
  9
$TEXTSTYLE
  7
STANDARD
  9
$DIMSTYLE
  2
STANDARD
  9
$DIMTXSTY
  7
STANDARD
  9
$CMLSTYLE
  2
STANDARD
  9
$LUNITS
 70
2
  9
$INSUNITS
 70
4
  9
$PEXTMAX
 10
50
 20
50
 30
50
  9
$PEXTMIN
 10
0
 20
0
 30
0
  9
$HANDSEED
  5
FFFF
  0
ENDSEC
  0
SECTION
  2
CLASSES
  0
CLASS
  1
ACDBDICTIONARYWDFLT
  2
AcDbDictionaryWithDefault
  3
ObjectDBX Classes
 90
        0
280
     0
281
     0
  0
CLASS
  1
XRECORD
  2
AcDbXrecord
  3
ObjectDBX Classes
 90
        0
280
     0
281
     0
  0
CLASS
  1
LWPOLYLINE
  2
AcDbPolyline
  3
ObjectDBX Classes
 90
        0
280
     0
281
     1
  0
ENDSEC
  0
SECTION
  2
TABLES
  0
TABLE
  2
VPORT
  5
20
330
0
100
AcDbSymbolTable
 70
     1
  0
VPORT
  5
21
330
20
100
AcDbSymbolTableRecord
100
AcDbViewportTableRecord
  2
*ACTIVE
 70
     0
  0
ENDTAB
  0
TABLE
  2
LTYPE
  5
22
330
0
100
AcDbSymbolTable
 70
     1
  0
LTYPE
  5
23
330
21
100
AcDbSymbolTableRecord
100
AcDbLinetypeTableRecord
  2
BYBLOCK
 70
     0
  3

 72
    65
 73
     0
 40
0.0
  0
LTYPE
  5
24
330
21
100
AcDbSymbolTableRecord
100
AcDbLinetypeTableRecord
  2
BYLAYER
 70
     0
  3

 72
    65
 73
     0
 40
0.0
  0
LTYPE
  5
25
330
21
100
AcDbSymbolTableRecord
100
AcDbLinetypeTableRecord
  2
CONTINUOUS
 70
     0
  3
Solid line
 72
    65
 73
     0
 40
0.0
  0
ENDTAB
  0
TABLE
  2
LAYER
  5
A40
330
0
100
AcDbSymbolTable
 70
3
  0
LAYER
  5
A41
330
A40
100
AcDbSymbolTableRecord
100
AcDbLayerTableRecord
  2
0
 70
   0
 62
   7
  6
CONTINUOUS
  0
LAYER
  5
A42
330
A40
100
AcDbSymbolTableRecord
100
AcDbLayerTableRecord
  2
none
 70
    0
 62
    7
  6
CONTINUOUS
  0
LAYER
  5
A43
330
A40
100
AcDbSymbolTableRecord
100
AcDbLayerTableRecord
  2
Shape2DView026
 70
    0
 62
    7
  6
CONTINUOUS
  0
ENDTAB
  0
TABLE
  2
STYLE
  5
70
330
0
100
AcDbSymbolTable
 70
     2
  0
STYLE
  5
71
330
70
100
AcDbSymbolTableRecord
100
AcDbTextStyleTableRecord
  2
STANDARD
 70
     0
 40
0.0
 41
1.0
 50
0.0
 71
     0
 42
2.5
  3
arial.ttf
  4

  0
STYLE
  5
72
330
70
100
AcDbSymbolTableRecord
100
AcDbTextStyleTableRecord
  2
ANNOTATIVE
 70
     0
 40
0.0
 41
1.0
 50
0.0
 71
     0
 42
2.5
  3
arial.ttf
  4

  0
ENDTAB
  0
TABLE
  2
VIEW
  5
73
330
0
100
AcDbSymbolTable
 70
     0
  0
ENDTAB
  0
TABLE
  2
UCS
  5
74
330
0
100
AcDbSymbolTable
 70
     0
  0
ENDTAB
  0
TABLE
  2
APPID
  5
75
330
0
100
AcDbSymbolTable
 70
     2
  0
APPID
  5
76
330
75
100
AcDbSymbolTableRecord
100
AcDbRegAppTableRecord
  2
ACAD
 70
     0
  0
APPID
  5
77
330
75
100
AcDbSymbolTableRecord
100
AcDbRegAppTableRecord
  2
ACADANNOTATIVE
 70
     0
  0
ENDTAB
  0
TABLE
  2
DIMSTYLE
  5
78
330
0
100
AcDbSymbolTable
 70
     2
  0
DIMSTYLE
105
79
330
78
100
AcDbSymbolTableRecord
100
AcDbDimStyleTableRecord
  2
STANDARD
 70
     0
  3

  4

  5

  6

  7

 40
0.0
 41
2.5
 42
0.625
 43
3.75
 44
1.25
 45
0.0
 46
0.0
 47
0.0
 48
0.0
140
2.5
141
2.5
142
0.0
143
0.03937007874016
144
1.0
145
0.0
146
1.0
147
0.625
 71
     0
 72
     0
 73
     0
 74
     0
 75
     0
 76
     0
 77
     1
 78
     8
170
     0
171
     3
172
     1
173
     0
174
     0
175
     0
176
     0
177
     0
178
     0
270
     2
271
     2
272
     2
273
     2
274
     3
340
71
275
     0
280
     0
281
     0
282
     0
283
     0
284
     8
285
     0
286
     0
287
     3
288
     0
  0
ENDTAB
  0
TABLE
  2
BLOCK_RECORD
  5
A01
330
0
100
AcDbSymbolTable
  70
5
  0
BLOCK_RECORD
  5
A02
330
A01
100
AcDbSymbolTableRecord
100
AcDbBlockTableRecord
  2
*MODEL_SPACE
  0
BLOCK_RECORD
  5
A03
330
A01
100
AcDbSymbolTableRecord
100
AcDbBlockTableRecord
  2
*PAPER_SPACE
  0
ENDTAB
  0
ENDSEC
  0
SECTION
  2
BLOCKS
  0
BLOCK
  5
A04
330
A02
100
AcDbEntity
  8
0
100
AcDbBlockBegin
  2
*MODEL_SPACE
 70
   0
 10
0
 20
0
 30
0
  3
*MODEL_SPACE
  1
 
  0
ENDBLK
  5
A05
330
A02
100
AcDbEntity
  8
0
100
AcDbBlockEnd
  0
BLOCK
  5
A06
330
A03
100
AcDbEntity
 67
1
  8
0
100
AcDbBlockBegin
  2
*PAPER_SPACE
 70
   0
 10
0
 20
0
 30
0
  3
*PAPER_SPACE
  1
 
  0
ENDBLK
  5
A07
330
A03
100
AcDbEntity
 67
    1
  8
0
100
AcDbBlockEnd
  0
ENDSEC
  0
SECTION
  2
ENTITIES
  0
ARC
  5
A08
330
A02
100
AcDbEntity
  8
Shape2DView026
100
AcDbCircle
 10
0
 20
0
 30
0
 40
38.5
100
AcDbArc
 50
8.96576
 51
24.6456
  0
ARC
  5
A09
330
A02
100
AcDbEntity
  8
Shape2DView026
100
AcDbCircle
 10
0
 20
0
 30
0
 40
38.5
100
AcDbArc
 50
65.3544
 51
81.0342
  0
ARC
  5
A0A
330
A02
100
AcDbEntity
  8
Shape2DView026
100
AcDbCircle
 10
14.3866
 20
31.3572
 30
0
 40
4
100
AcDbArc
 50
-45
 51
65.3544
  0
LINE
  5
A0B
330
A02
100
AcDbEntity
  8
Shape2DView026
100
AcDbLine
 10
6
 20
38.0296
 30
0
 11
6
 21
35.1624
 31
0
  0
LINE
  5
A0C
330
A02
100
AcDbEntity
  8
Shape2DView026
100
AcDbLine
 10
15.5563
 20
26.8701
 30
0
 11
17.2151
 21
28.5288
 31
0
  0
LINE
  5
A0D
330
A02
100
AcDbEntity
  8
Shape2DView026
100
AcDbLine
 10
6
 20
35.1624
 30
0
 11
-6
 21
35.1624
 31
0
  0
ARC
  5
A0E
330
A02
100
AcDbEntity
  8
Shape2DView026
100
AcDbCircle
 10
21.2132
 20
21.2132
 30
0
 40
8
100
AcDbArc
 50
135
 51
-45
  0
LINE
  5
A0F
330
A02
100
AcDbEntity
  8
Shape2DView026
100
AcDbLine
 10
-6
 20
35.1624
 30
0
 11
-6
 21
38.0296
 31
0
  0
LINE
  5
A10
330
A02
100
AcDbEntity
  8
Shape2DView026
100
AcDbLine
 10
28.5288
 20
17.2151
 30
0
 11
26.8701
 21
15.5563
 31
0
  0
ARC
  5
A11
330
A02
100
AcDbEntity
  8
Shape2DView026
100
AcDbCircle
 10
0
 20
0
 30
0
 40
38.5
100
AcDbArc
 50
98.9658
 51
171.034
  0
ARC
  5
A12
330
A02
100
AcDbEntity
  8
Shape2DView026
100
AcDbCircle
 10
31.3572
 20
14.3866
 30
0
 40
4
100
AcDbArc
 50
24.6456
 51
135
  0
LINE
  5
A13
330
A02
100
AcDbEntity
  8
Shape2DView026
100
AcDbLine
 10
-38.0296
 20
6
 30
0
 11
-35.1624
 21
6
 31
0
  0
LINE
  5
A14
330
A02
100
AcDbEntity
  8
Shape2DView026
100
AcDbLine
 10
-35.1624
 20
6
 30
0
 11
-35.1624
 21
-6
 31
0
  0
LINE
  5
A15
330
A02
100
AcDbEntity
  8
Shape2DView026
100
AcDbLine
 10
35.1624
 20
6
 30
0
 11
38.0296
 21
6
 31
0
  0
LINE
  5
A16
330
A02
100
AcDbEntity
  8
Shape2DView026
100
AcDbLine
 10
-35.1624
 20
-6
 30
0
 11
-38.0296
 21
-6
 31
0
  0
LINE
  5
A17
330
A02
100
AcDbEntity
  8
Shape2DView026
100
AcDbLine
 10
35.1624
 20
-6
 30
0
 11
35.1624
 21
6
 31
0
  0
ARC
  5
A18
330
A02
100
AcDbEntity
  8
Shape2DView026
100
AcDbCircle
 10
0
 20
0
 30
0
 40
38.5
100
AcDbArc
 50
-171.034
 51
-98.9658
  0
LINE
  5
A19
330
A02
100
AcDbEntity
  8
Shape2DView026
100
AcDbLine
 10
38.0296
 20
-6
 30
0
 11
35.1624
 21
-6
 31
0
  0
LINE
  5
A1A
330
A02
100
AcDbEntity
  8
Shape2DView026
100
AcDbLine
 10
-6
 20
-38.0296
 30
0
 11
-6
 21
-35.1624
 31
0
  0
ARC
  5
A1B
330
A02
100
AcDbEntity
  8
Shape2DView026
100
AcDbCircle
 10
0
 20
0
 30
0
 40
38.5
100
AcDbArc
 50
-81.0342
 51
-8.96576
  0
LINE
  5
A1C
330
A02
100
AcDbEntity
  8
Shape2DView026
100
AcDbLine
 10
-6
 20
-35.1624
 30
0
 11
6
 21
-35.1624
 31
0
  0
LINE
  5
A1D
330
A02
100
AcDbEntity
  8
Shape2DView026
100
AcDbLine
 10
6
 20
-35.1624
 30
0
 11
6
 21
-38.0296
 31
0
  0
LINE
  5
A1E
330
A02
100
AcDbEntity
  8
Shape2DView026
100
AcDbLine
 10
-18.208
 20
-19.9758
 30
0
 11
-23.1577
 21
-24.9255
 31
0
  0
LINE
  5
A1F
330
A02
100
AcDbEntity
  8
Shape2DView026
100
AcDbLine
 10
-19.9758
 20
-18.208
 30
0
 11
-18.208
 21
-19.9758
 31
0
  0
LINE
  5
A20
330
A02
100
AcDbEntity
  8
Shape2DView026
100
AcDbLine
 10
-23.1577
 20
-24.9255
 30
0
 11
-24.9255
 21
-23.1577
 31
0
  0
LINE
  5
A21
330
A02
100
AcDbEntity
  8
Shape2DView026
100
AcDbLine
 10
-24.9255
 20
-23.1577
 30
0
 11
-19.9758
 21
-18.208
 31
0
  0
CIRCLE
  5
A22
330
A02
100
AcDbEntity
  8
Shape2DView026
100
AcDbCircle
 10
-29.5641
 20
-12.2459
 40
1.525
  0
CIRCLE
  5
A23
330
A02
100
AcDbEntity
  8
Shape2DView026
100
AcDbCircle
 10
-10.748
 20
-21.2698
 40
0.9
  0
CIRCLE
  5
A24
330
A02
100
AcDbEntity
  8
Shape2DView026
100
AcDbCircle
 10
-21.5243
 20
-10.4935
 40
0.9
  0
CIRCLE
  5
A25
330
A02
100
AcDbEntity
  8
Shape2DView026
100
AcDbCircle
 10
22.6274
 20
-22.6274
 40
1.525
  0
LINE
  5
A26
330
A02
100
AcDbEntity
  8
Shape2DView026
100
AcDbLine
 10
25.4231
 20
-9.1776
 30
0
 11
31.8903
 21
-11.8564
 31
0
  0
LINE
  5
A27
330
A02
100
AcDbEntity
  8
Shape2DView026
100
AcDbLine
 10
24.4664
 20
-11.4873
 30
0
 11
25.4231
 21
-9.1776
 31
0
  0
LINE
  5
A28
330
A02
100
AcDbEntity
  8
Shape2DView026
100
AcDbLine
 10
31.8903
 20
-11.8564
 30
0
 11
30.9335
 21
-14.1661
 31
0
  0
LINE
  5
A29
330
A02
100
AcDbEntity
  8
Shape2DView026
100
AcDbLine
 10
30.9335
 20
-14.1661
 30
0
 11
24.4664
 21
-11.4873
 31
0
  0
LINE
  5
A2A
330
A02
100
AcDbEntity
  8
Shape2DView026
100
AcDbLine
 10
16.1927
 20
7.58018
 30
0
 11
18.1019
 21
5.671
 31
0
  0
LINE
  5
A2B
330
A02
100
AcDbEntity
  8
Shape2DView026
100
AcDbLine
 10
-10.8612
 20
-19.4737
 30
0
 11
16.1927
 21
7.58018
 31
0
  0
LINE
  5
A2C
330
A02
100
AcDbEntity
  8
Shape2DView026
100
AcDbLine
 10
18.1019
 20
5.671
 30
0
 11
-8.95197
 21
-21.3829
 31
0
  0
LINE
  5
A2D
330
A02
100
AcDbEntity
  8
Shape2DView026
100
AcDbLine
 10
-8.95197
 20
-21.3829
 30
0
 11
-10.8612
 21
-19.4737
 31
0
  0
LINE
  5
A2E
330
A02
100
AcDbEntity
  8
Shape2DView026
100
AcDbLine
 10
5.41644
 20
18.3565
 30
0
 11
7.32563
 21
16.4473
 31
0
  0
LINE
  5
A2F
330
A02
100
AcDbEntity
  8
Shape2DView026
100
AcDbLine
 10
-21.6375
 20
-8.69741
 30
0
 11
5.41644
 21
18.3565
 31
0
  0
LINE
  5
A30
330
A02
100
AcDbEntity
  8
Shape2DView026
100
AcDbLine
 10
7.32563
 20
16.4473
 30
0
 11
-19.7283
 21
-10.6066
 31
0
  0
LINE
  5
A31
330
A02
100
AcDbEntity
  8
Shape2DView026
100
AcDbLine
 10
-19.7283
 20
-10.6066
 30
0
 11
-21.6375
 21
-8.69741
 31
0
  0
CIRCLE
  5
A32
330
A02
100
AcDbEntity
  8
Shape2DView026
100
AcDbCircle
 10
-22.6274
 20
22.6274
 40
1.525
  0
LINE
  5
A33
330
A02
100
AcDbEntity
  8
Shape2DView026
100
AcDbLine
 10
-11.4873
 20
24.4664
 30
0
 11
-14.1661
 21
30.9335
 31
0
  0
LINE
  5
A34
330
A02
100
AcDbEntity
  8
Shape2DView026
100
AcDbLine
 10
-9.1776
 20
25.4231
 30
0
 11
-11.4873
 21
24.4664
 31
0
  0
LINE
  5
A35
330
A02
100
AcDbEntity
  8
Shape2DView026
100
AcDbLine
 10
-14.1661
 20
30.9335
 30
0
 11
-11.8564
 21
31.8903
 31
0
  0
LINE
  5
A36
330
A02
100
AcDbEntity
  8
Shape2DView026
100
AcDbLine
 10
-11.8564
 20
31.8903
 30
0
 11
-9.1776
 21
25.4231
 31
0
  0
LINE
  5
A37
330
A02
100
AcDbEntity
  8
Shape2DView026
100
AcDbLine
 10
9.96885
 20
11.1936
 30
0
 11
6.10514
 21
10.1583
 31
0
  0
ARC
  5
A38
330
A02
100
AcDbEntity
  8
Shape2DView026
100
AcDbCircle
 10
6.36396
 20
9.19239
 30
0
 40
1
100
AcDbArc
 50
105
 51
-135
  0
LINE
  5
A39
330
A02
100
AcDbEntity
  8
Shape2DView026
100
AcDbLine
 10
5.65685
 20
8.48528
 30
0
 11
8.48528
 21
5.65685
 31
0
  0
ARC
  5
A3A
330
A02
100
AcDbEntity
  8
Shape2DView026
100
AcDbCircle
 10
9.19239
 20
6.36396
 30
0
 40
1
100
AcDbArc
 50
-135
 51
-15
  0
LINE
  5
A3B
330
A02
100
AcDbEntity
  8
Shape2DView026
100
AcDbLine
 10
10.1583
 20
6.10514
 30
0
 11
11.1936
 21
9.96885
 31
0
  0
ARC
  5
A3C
330
A02
100
AcDbEntity
  8
Shape2DView026
100
AcDbCircle
 10
10.2277
 20
10.2277
 30
0
 40
1
100
AcDbArc
 50
-15
 51
105
  0
CIRCLE
  5
A3D
330
A02
100
AcDbEntity
  8
Shape2DView026
100
AcDbCircle
 10
17.9888
 20
7.46705
 40
0.9
  0
CIRCLE
  5
A3E
330
A02
100
AcDbEntity
  8
Shape2DView026
100
AcDbCircle
 10
29.5641
 20
12.2459
 40
1.525
  0
CIRCLE
  5
A3F
330
A02
100
AcDbEntity
  8
Shape2DView026
100
AcDbCircle
 10
7.21249
 20
18.2434
 40
0.9
  0
ENDSEC
  0
SECTION
  2
OBJECTS
  0
DICTIONARY
  5
F000
330
0
100
AcDbDictionary
  3
ACAD_GROUP
350
F001
  0
DICTIONARY
  5
F001
330
F000
100
AcDbDictionary
  0
ENDSEC
  0
EOF