999
FreeCAD v0.21 33771 (Git)
  0
SECTION
  2
HEADER
  9
$ACADVER
  1
AC1014
  9
$ACADMAINTVER
 70
     9
  9
$DWGCODEPAGE
  3
ANSI_1252
  9
$TEXTSTYLE
  7
STANDARD
  9
$DIMSTYLE
  2
STANDARD
  9
$DIMTXSTY
  7
STANDARD
  9
$CMLSTYLE
  2
STANDARD
  9
$LUNITS
 70
2
  9
$INSUNITS
 70
4
  9
$PEXTMAX
 10
50
 20
50
 30
50
  9
$PEXTMIN
 10
0
 20
0
 30
0
  9
$HANDSEED
  5
FFFF
  0
ENDSEC
  0
SECTION
  2
CLASSES
  0
CLASS
  1
ACDBDICTIONARYWDFLT
  2
AcDbDictionaryWithDefault
  3
ObjectDBX Classes
 90
        0
280
     0
281
     0
  0
CLASS
  1
XRECORD
  2
AcDbXrecord
  3
ObjectDBX Classes
 90
        0
280
     0
281
     0
  0
CLASS
  1
LWPOLYLINE
  2
AcDbPolyline
  3
ObjectDBX Classes
 90
        0
280
     0
281
     1
  0
ENDSEC
  0
SECTION
  2
TABLES
  0
TABLE
  2
VPORT
  5
20
330
0
100
AcDbSymbolTable
 70
     1
  0
VPORT
  5
21
330
20
100
AcDbSymbolTableRecord
100
AcDbViewportTableRecord
  2
*ACTIVE
 70
     0
  0
ENDTAB
  0
TABLE
  2
LTYPE
  5
22
330
0
100
AcDbSymbolTable
 70
     1
  0
LTYPE
  5
23
330
21
100
AcDbSymbolTableRecord
100
AcDbLinetypeTableRecord
  2
BYBLOCK
 70
     0
  3

 72
    65
 73
     0
 40
0.0
  0
LTYPE
  5
24
330
21
100
AcDbSymbolTableRecord
100
AcDbLinetypeTableRecord
  2
BYLAYER
 70
     0
  3

 72
    65
 73
     0
 40
0.0
  0
LTYPE
  5
25
330
21
100
AcDbSymbolTableRecord
100
AcDbLinetypeTableRecord
  2
CONTINUOUS
 70
     0
  3
Solid line
 72
    65
 73
     0
 40
0.0
  0
ENDTAB
  0
TABLE
  2
LAYER
  5
A54
330
0
100
AcDbSymbolTable
 70
3
  0
LAYER
  5
A55
330
A54
100
AcDbSymbolTableRecord
100
AcDbLayerTableRecord
  2
0
 70
   0
 62
   7
  6
CONTINUOUS
  0
LAYER
  5
A56
330
A54
100
AcDbSymbolTableRecord
100
AcDbLayerTableRecord
  2
none
 70
    0
 62
    7
  6
CONTINUOUS
  0
LAYER
  5
A57
330
A54
100
AcDbSymbolTableRecord
100
AcDbLayerTableRecord
  2
Shape2DView026
 70
    0
 62
    7
  6
CONTINUOUS
  0
ENDTAB
  0
TABLE
  2
STYLE
  5
70
330
0
100
AcDbSymbolTable
 70
     2
  0
STYLE
  5
71
330
70
100
AcDbSymbolTableRecord
100
AcDbTextStyleTableRecord
  2
STANDARD
 70
     0
 40
0.0
 41
1.0
 50
0.0
 71
     0
 42
2.5
  3
arial.ttf
  4

  0
STYLE
  5
72
330
70
100
AcDbSymbolTableRecord
100
AcDbTextStyleTableRecord
  2
ANNOTATIVE
 70
     0
 40
0.0
 41
1.0
 50
0.0
 71
     0
 42
2.5
  3
arial.ttf
  4

  0
ENDTAB
  0
TABLE
  2
VIEW
  5
73
330
0
100
AcDbSymbolTable
 70
     0
  0
ENDTAB
  0
TABLE
  2
UCS
  5
74
330
0
100
AcDbSymbolTable
 70
     0
  0
ENDTAB
  0
TABLE
  2
APPID
  5
75
330
0
100
AcDbSymbolTable
 70
     2
  0
APPID
  5
76
330
75
100
AcDbSymbolTableRecord
100
AcDbRegAppTableRecord
  2
ACAD
 70
     0
  0
APPID
  5
77
330
75
100
AcDbSymbolTableRecord
100
AcDbRegAppTableRecord
  2
ACADANNOTATIVE
 70
     0
  0
ENDTAB
  0
TABLE
  2
DIMSTYLE
  5
78
330
0
100
AcDbSymbolTable
 70
     2
  0
DIMSTYLE
105
79
330
78
100
AcDbSymbolTableRecord
100
AcDbDimStyleTableRecord
  2
STANDARD
 70
     0
  3

  4

  5

  6

  7

 40
0.0
 41
2.5
 42
0.625
 43
3.75
 44
1.25
 45
0.0
 46
0.0
 47
0.0
 48
0.0
140
2.5
141
2.5
142
0.0
143
0.03937007874016
144
1.0
145
0.0
146
1.0
147
0.625
 71
     0
 72
     0
 73
     0
 74
     0
 75
     0
 76
     0
 77
     1
 78
     8
170
     0
171
     3
172
     1
173
     0
174
     0
175
     0
176
     0
177
     0
178
     0
270
     2
271
     2
272
     2
273
     2
274
     3
340
71
275
     0
280
     0
281
     0
282
     0
283
     0
284
     8
285
     0
286
     0
287
     3
288
     0
  0
ENDTAB
  0
TABLE
  2
BLOCK_RECORD
  5
A01
330
0
100
AcDbSymbolTable
  70
5
  0
BLOCK_RECORD
  5
A02
330
A01
100
AcDbSymbolTableRecord
100
AcDbBlockTableRecord
  2
*MODEL_SPACE
  0
BLOCK_RECORD
  5
A03
330
A01
100
AcDbSymbolTableRecord
100
AcDbBlockTableRecord
  2
*PAPER_SPACE
  0
ENDTAB
  0
ENDSEC
  0
SECTION
  2
BLOCKS
  0
BLOCK
  5
A04
330
A02
100
AcDbEntity
  8
0
100
AcDbBlockBegin
  2
*MODEL_SPACE
 70
   0
 10
0
 20
0
 30
0
  3
*MODEL_SPACE
  1
 
  0
ENDBLK
  5
A05
330
A02
100
AcDbEntity
  8
0
100
AcDbBlockEnd
  0
BLOCK
  5
A06
330
A03
100
AcDbEntity
 67
1
  8
0
100
AcDbBlockBegin
  2
*PAPER_SPACE
 70
   0
 10
0
 20
0
 30
0
  3
*PAPER_SPACE
  1
 
  0
ENDBLK
  5
A07
330
A03
100
AcDbEntity
 67
    1
  8
0
100
AcDbBlockEnd
  0
ENDSEC
  0
SECTION
  2
ENTITIES
  0
ARC
  5
A08
330
A02
100
AcDbEntity
  8
Shape2DView026
100
AcDbCircle
 10
0
 20
0
 30
0
 40
38.5
100
AcDbArc
 50
10.2095
 51
24.6456
  0
ARC
  5
A09
330
A02
100
AcDbEntity
  8
Shape2DView026
100
AcDbCircle
 10
0
 20
0
 30
0
 40
38.5
100
AcDbArc
 50
65.3544
 51
79.7905
  0
ARC
  5
A0A
330
A02
100
AcDbEntity
  8
Shape2DView026
100
AcDbCircle
 10
6.7
 20
37.2015
 30
0
 40
0.7
100
AcDbArc
 50
79.7905
 51
180
  0
ARC
  5
A0B
330
A02
100
AcDbEntity
  8
Shape2DView026
100
AcDbCircle
 10
14.3866
 20
31.3572
 30
0
 40
4
100
AcDbArc
 50
-45
 51
65.3544
  0
LINE
  5
A0C
330
A02
100
AcDbEntity
  8
Shape2DView026
100
AcDbLine
 10
6
 20
37.2015
 30
0
 11
6
 21
35.1624
 31
0
  0
LINE
  5
A0D
330
A02
100
AcDbEntity
  8
Shape2DView026
100
AcDbLine
 10
15.5563
 20
26.8701
 30
0
 11
17.2151
 21
28.5288
 31
0
  0
LINE
  5
A0E
330
A02
100
AcDbEntity
  8
Shape2DView026
100
AcDbLine
 10
6
 20
35.1624
 30
0
 11
-6
 21
35.1624
 31
0
  0
ARC
  5
A0F
330
A02
100
AcDbEntity
  8
Shape2DView026
100
AcDbCircle
 10
21.2132
 20
21.2132
 30
0
 40
8
100
AcDbArc
 50
135
 51
-45
  0
LINE
  5
A10
330
A02
100
AcDbEntity
  8
Shape2DView026
100
AcDbLine
 10
-6
 20
35.1624
 30
0
 11
-6
 21
37.2015
 31
0
  0
LINE
  5
A11
330
A02
100
AcDbEntity
  8
Shape2DView026
100
AcDbLine
 10
28.5288
 20
17.2151
 30
0
 11
26.8701
 21
15.5563
 31
0
  0
ARC
  5
A12
330
A02
100
AcDbEntity
  8
Shape2DView026
100
AcDbCircle
 10
-6.7
 20
37.2015
 30
0
 40
0.7
100
AcDbArc
 50
0
 51
100.21
  0
ARC
  5
A13
330
A02
100
AcDbEntity
  8
Shape2DView026
100
AcDbCircle
 10
31.3572
 20
14.3866
 30
0
 40
4
100
AcDbArc
 50
24.6456
 51
135
  0
ARC
  5
A14
330
A02
100
AcDbEntity
  8
Shape2DView026
100
AcDbCircle
 10
0
 20
0
 30
0
 40
38.5
100
AcDbArc
 50
100.21
 51
169.79
  0
ARC
  5
A15
330
A02
100
AcDbEntity
  8
Shape2DView026
100
AcDbCircle
 10
-37.2015
 20
6.7
 30
0
 40
0.7
100
AcDbArc
 50
169.79
 51
-90
  0
ARC
  5
A16
330
A02
100
AcDbEntity
  8
Shape2DView026
100
AcDbCircle
 10
37.2015
 20
6.7
 30
0
 40
0.7
100
AcDbArc
 50
-90
 51
10.2095
  0
LINE
  5
A17
330
A02
100
AcDbEntity
  8
Shape2DView026
100
AcDbLine
 10
-37.2015
 20
6
 30
0
 11
-35.1624
 21
6
 31
0
  0
LINE
  5
A18
330
A02
100
AcDbEntity
  8
Shape2DView026
100
AcDbLine
 10
35.1624
 20
6
 30
0
 11
37.2015
 21
6
 31
0
  0
LINE
  5
A19
330
A02
100
AcDbEntity
  8
Shape2DView026
100
AcDbLine
 10
-35.1624
 20
6
 30
0
 11
-35.1624
 21
-6
 31
0
  0
LINE
  5
A1A
330
A02
100
AcDbEntity
  8
Shape2DView026
100
AcDbLine
 10
35.1624
 20
-6
 30
0
 11
35.1624
 21
6
 31
0
  0
LINE
  5
A1B
330
A02
100
AcDbEntity
  8
Shape2DView026
100
AcDbLine
 10
-35.1624
 20
-6
 30
0
 11
-37.2015
 21
-6
 31
0
  0
LINE
  5
A1C
330
A02
100
AcDbEntity
  8
Shape2DView026
100
AcDbLine
 10
37.2015
 20
-6
 30
0
 11
35.1624
 21
-6
 31
0
  0
ARC
  5
A1D
330
A02
100
AcDbEntity
  8
Shape2DView026
100
AcDbCircle
 10
-37.2015
 20
-6.7
 30
0
 40
0.7
100
AcDbArc
 50
90
 51
-169.79
  0
ARC
  5
A1E
330
A02
100
AcDbEntity
  8
Shape2DView026
100
AcDbCircle
 10
37.2015
 20
-6.7
 30
0
 40
0.7
100
AcDbArc
 50
-10.2095
 51
90
  0
ARC
  5
A1F
330
A02
100
AcDbEntity
  8
Shape2DView026
100
AcDbCircle
 10
0
 20
0
 30
0
 40
38.5
100
AcDbArc
 50
-169.79
 51
-100.21
  0
ARC
  5
A20
330
A02
100
AcDbEntity
  8
Shape2DView026
100
AcDbCircle
 10
0
 20
0
 30
0
 40
38.5
100
AcDbArc
 50
-79.7905
 51
-10.2095
  0
ARC
  5
A21
330
A02
100
AcDbEntity
  8
Shape2DView026
100
AcDbCircle
 10
-6.7
 20
-37.2015
 30
0
 40
0.7
100
AcDbArc
 50
-100.21
 51
0
  0
ARC
  5
A22
330
A02
100
AcDbEntity
  8
Shape2DView026
100
AcDbCircle
 10
6.7
 20
-37.2015
 30
0
 40
0.7
100
AcDbArc
 50
180
 51
-79.7905
  0
LINE
  5
A23
330
A02
100
AcDbEntity
  8
Shape2DView026
100
AcDbLine
 10
-6
 20
-37.2015
 30
0
 11
-6
 21
-35.1624
 31
0
  0
LINE
  5
A24
330
A02
100
AcDbEntity
  8
Shape2DView026
100
AcDbLine
 10
6
 20
-35.1624
 30
0
 11
6
 21
-37.2015
 31
0
  0
LINE
  5
A25
330
A02
100
AcDbEntity
  8
Shape2DView026
100
AcDbLine
 10
-6
 20
-35.1624
 30
0
 11
6
 21
-35.1624
 31
0
  0
LINE
  5
A26
330
A02
100
AcDbEntity
  8
Shape2DView026
100
AcDbLine
 10
25.4208
 20
-8.98722
 30
0
 11
32.0265
 21
-11.7234
 31
0
  0
LINE
  5
A27
330
A02
100
AcDbEntity
  8
Shape2DView026
100
AcDbLine
 10
24.3301
 20
-11.6203
 30
0
 11
25.4208
 21
-8.98722
 31
0
  0
LINE
  5
A28
330
A02
100
AcDbEntity
  8
Shape2DView026
100
AcDbLine
 10
32.0265
 20
-11.7234
 30
0
 11
30.9359
 21
-14.3565
 31
0
  0
LINE
  5
A29
330
A02
100
AcDbEntity
  8
Shape2DView026
100
AcDbLine
 10
30.9359
 20
-14.3565
 30
0
 11
24.3301
 21
-11.6203
 31
0
  0
LINE
  5
A2A
330
A02
100
AcDbEntity
  8
Shape2DView026
100
AcDbLine
 10
15.9948
 20
7.38219
 30
0
 11
13.4138
 21
9.96313
 31
0
  0
ARC
  5
A2B
330
A02
100
AcDbEntity
  8
Shape2DView026
100
AcDbCircle
 10
13.2017
 20
9.751
 30
0
 40
0.3
100
AcDbArc
 50
45
 51
-135
  0
LINE
  5
A2C
330
A02
100
AcDbEntity
  8
Shape2DView026
100
AcDbLine
 10
12.9896
 20
9.53887
 30
0
 11
15.5705
 21
6.95793
 31
0
  0
LINE
  5
A2D
330
A02
100
AcDbEntity
  8
Shape2DView026
100
AcDbLine
 10
-10.8046
 20
-19.4172
 30
0
 11
15.5705
 21
6.95793
 31
0
  0
LINE
  5
A2E
330
A02
100
AcDbEntity
  8
Shape2DView026
100
AcDbLine
 10
-8.8954
 20
-21.3263
 30
0
 11
-10.8046
 21
-19.4172
 31
0
  0
LINE
  5
A2F
330
A02
100
AcDbEntity
  8
Shape2DView026
100
AcDbLine
 10
17.4797
 20
5.04874
 30
0
 11
-8.8954
 21
-21.3263
 31
0
  0
LINE
  5
A30
330
A02
100
AcDbEntity
  8
Shape2DView026
100
AcDbLine
 10
17.4797
 20
5.04874
 30
0
 11
20.0606
 21
2.4678
 31
0
  0
ARC
  5
A31
330
A02
100
AcDbEntity
  8
Shape2DView026
100
AcDbCircle
 10
20.2728
 20
2.67993
 30
0
 40
0.3
100
AcDbArc
 50
-135
 51
45
  0
LINE
  5
A32
330
A02
100
AcDbEntity
  8
Shape2DView026
100
AcDbLine
 10
20.4849
 20
2.89207
 30
0
 11
17.9039
 21
5.47301
 31
0
  0
LINE
  5
A33
330
A02
100
AcDbEntity
  8
Shape2DView026
100
AcDbLine
 10
15.9948
 20
7.38219
 30
0
 11
17.9039
 21
5.47301
 31
0
  0
ARC
  5
A34
330
A02
100
AcDbEntity
  8
Shape2DView026
100
AcDbCircle
 10
15.0402
 20
11.5895
 30
0
 40
0.3
100
AcDbArc
 50
45
 51
-135
  0
LINE
  5
A35
330
A02
100
AcDbEntity
  8
Shape2DView026
100
AcDbLine
 10
14.828
 20
11.3773
 30
0
 11
21.8991
 21
4.30628
 31
0
  0
ARC
  5
A36
330
A02
100
AcDbEntity
  8
Shape2DView026
100
AcDbCircle
 10
22.1112
 20
4.51841
 30
0
 40
0.3
100
AcDbArc
 50
-135
 51
45
  0
LINE
  5
A37
330
A02
100
AcDbEntity
  8
Shape2DView026
100
AcDbLine
 10
22.3234
 20
4.73054
 30
0
 11
15.2523
 21
11.8016
 31
0
  0
LINE
  5
A38
330
A02
100
AcDbEntity
  8
Shape2DView026
100
AcDbLine
 10
9.96885
 20
11.1936
 30
0
 11
6.10514
 21
10.1583
 31
0
  0
ARC
  5
A39
330
A02
100
AcDbEntity
  8
Shape2DView026
100
AcDbCircle
 10
10.2277
 20
10.2277
 30
0
 40
1
100
AcDbArc
 50
-15
 51
105
  0
ARC
  5
A3A
330
A02
100
AcDbEntity
  8
Shape2DView026
100
AcDbCircle
 10
6.36396
 20
9.19239
 30
0
 40
1
100
AcDbArc
 50
105
 51
-135
  0
LINE
  5
A3B
330
A02
100
AcDbEntity
  8
Shape2DView026
100
AcDbLine
 10
10.1583
 20
6.10514
 30
0
 11
11.1936
 21
9.96885
 31
0
  0
LINE
  5
A3C
330
A02
100
AcDbEntity
  8
Shape2DView026
100
AcDbLine
 10
5.65685
 20
8.48528
 30
0
 11
8.48528
 21
5.65685
 31
0
  0
ARC
  5
A3D
330
A02
100
AcDbEntity
  8
Shape2DView026
100
AcDbCircle
 10
9.19239
 20
6.36396
 30
0
 40
1
100
AcDbArc
 50
-135
 51
-15
  0
ARC
  5
A3E
330
A02
100
AcDbEntity
  8
Shape2DView026
100
AcDbCircle
 10
4.26385
 20
22.3658
 30
0
 40
0.3
100
AcDbArc
 50
45
 51
-135
  0
LINE
  5
A3F
330
A02
100
AcDbEntity
  8
Shape2DView026
100
AcDbLine
 10
4.05172
 20
22.1537
 30
0
 11
11.1228
 21
15.0826
 31
0
  0
ARC
  5
A40
330
A02
100
AcDbEntity
  8
Shape2DView026
100
AcDbCircle
 10
11.3349
 20
15.2947
 30
0
 40
0.3
100
AcDbArc
 50
-135
 51
45
  0
LINE
  5
A41
330
A02
100
AcDbEntity
  8
Shape2DView026
100
AcDbLine
 10
11.5471
 20
15.5069
 30
0
 11
4.47599
 21
22.5779
 31
0
  0
LINE
  5
A42
330
A02
100
AcDbEntity
  8
Shape2DView026
100
AcDbLine
 10
-18.0312
 20
-20.0465
 30
0
 11
-23.087
 21
-25.1023
 31
0
  0
LINE
  5
A43
330
A02
100
AcDbEntity
  8
Shape2DView026
100
AcDbLine
 10
-20.0465
 20
-18.0312
 30
0
 11
-18.0312
 21
-20.0465
 31
0
  0
LINE
  5
A44
330
A02
100
AcDbEntity
  8
Shape2DView026
100
AcDbLine
 10
-23.087
 20
-25.1023
 30
0
 11
-25.1023
 21
-23.087
 31
0
  0
LINE
  5
A45
330
A02
100
AcDbEntity
  8
Shape2DView026
100
AcDbLine
 10
-25.1023
 20
-23.087
 30
0
 11
-20.0465
 21
-18.0312
 31
0
  0
LINE
  5
A46
330
A02
100
AcDbEntity
  8
Shape2DView026
100
AcDbLine
 10
5.21845
 20
18.1585
 30
0
 11
2.63751
 21
20.7394
 31
0
  0
ARC
  5
A47
330
A02
100
AcDbEntity
  8
Shape2DView026
100
AcDbCircle
 10
2.42538
 20
20.5273
 30
0
 40
0.3
100
AcDbArc
 50
45
 51
-135
  0
LINE
  5
A48
330
A02
100
AcDbEntity
  8
Shape2DView026
100
AcDbLine
 10
2.21324
 20
20.3152
 30
0
 11
4.79418
 21
17.7342
 31
0
  0
LINE
  5
A49
330
A02
100
AcDbEntity
  8
Shape2DView026
100
AcDbLine
 10
-21.5809
 20
-8.64084
 30
0
 11
4.79418
 21
17.7342
 31
0
  0
LINE
  5
A4A
330
A02
100
AcDbEntity
  8
Shape2DView026
100
AcDbLine
 10
-19.6717
 20
-10.55
 30
0
 11
-21.5809
 21
-8.64084
 31
0
  0
LINE
  5
A4B
330
A02
100
AcDbEntity
  8
Shape2DView026
100
AcDbLine
 10
6.70337
 20
15.825
 30
0
 11
-19.6717
 21
-10.55
 31
0
  0
LINE
  5
A4C
330
A02
100
AcDbEntity
  8
Shape2DView026
100
AcDbLine
 10
6.70337
 20
15.825
 30
0
 11
9.28431
 21
13.2441
 31
0
  0
ARC
  5
A4D
330
A02
100
AcDbEntity
  8
Shape2DView026
100
AcDbCircle
 10
9.49644
 20
13.4562
 30
0
 40
0.3
100
AcDbArc
 50
-135
 51
45
  0
LINE
  5
A4E
330
A02
100
AcDbEntity
  8
Shape2DView026
100
AcDbLine
 10
9.70858
 20
13.6684
 30
0
 11
7.12764
 21
16.2493
 31
0
  0
LINE
  5
A4F
330
A02
100
AcDbEntity
  8
Shape2DView026
100
AcDbLine
 10
5.21845
 20
18.1585
 30
0
 11
7.12764
 21
16.2493
 31
0
  0
LINE
  5
A50
330
A02
100
AcDbEntity
  8
Shape2DView026
100
AcDbLine
 10
-11.6203
 20
24.3301
 30
0
 11
-14.3565
 21
30.9359
 31
0
  0
LINE
  5
A51
330
A02
100
AcDbEntity
  8
Shape2DView026
100
AcDbLine
 10
-8.98722
 20
25.4208
 30
0
 11
-11.6203
 21
24.3301
 31
0
  0
LINE
  5
A52
330
A02
100
AcDbEntity
  8
Shape2DView026
100
AcDbLine
 10
-14.3565
 20
30.9359
 30
0
 11
-11.7234
 21
32.0265
 31
0
  0
LINE
  5
A53
330
A02
100
AcDbEntity
  8
Shape2DView026
100
AcDbLine
 10
-11.7234
 20
32.0265
 30
0
 11
-8.98722
 21
25.4208
 31
0
  0
ENDSEC
  0
SECTION
  2
OBJECTS
  0
DICTIONARY
  5
F000
330
0
100
AcDbDictionary
  3
ACAD_GROUP
350
F001
  0
DICTIONARY
  5
F001
330
F000
100
AcDbDictionary
  0
ENDSEC
  0
EOF