  0
SECTION
  2
HEADER
  9
$ACADVER
  1
AC1009
  9
$INSBASE
 10
0.0
 20
0.0
 30
0.0
  9
$EXTMIN
 10
0.0
 20
0.0
 30
0.0
  9
$EXTMAX
 10
0.0
 20
0.0
 30
0.0
  0
ENDSEC
  0
SECTION
  2
TABLES
  0
TABLE
  2
VPORT
 70
0
  0
ENDTAB
  0
TABLE
  2
LTYPE
 70
1
  0
LTYPE
  2
CONTINUOUS
 70
0
  3
Solid line
 72
65
 73
0
 40
0.0
  0
ENDTAB
  0
TABLE
  2
LAYER
 70
1
  0
LAYER
  2
0
 70
64
 62
7
  6
continuous
  0
ENDTAB
  0
TABLE
  2
STYLE
 70
1
  0
STYLE
  2
STANDARD
 70
0
 40
0
 41
1.0
 50
0.0
 71
0
 42
1
 3
ARIAL.TTF
 4

  0
ENDTAB
  0
TABLE
  2
VIEW
 70
0
  0
ENDTAB
  0
ENDSEC
  0
SECTION
  2
BLOCKS
  0
BLOCK
  8
0
  2
SHAPE2DVIEW011
 70
0
 10
0.0
 20
0.0
 30
0.0
  3
SHAPE2DVIEW011
  0
LINE
  8
0
 62
0
 10
-28.77924594005134
 20
21.42533552424486
 30
0.0
 11
-35.500000000038
 21
14.704581464272703
 31
0.0
  0
LINE
  8
0
 62
0
 10
-26.656360281060977
 20
19.302449865254488
 30
0.0
 11
-28.779245940051343
 21
21.42533552424486
 31
0.0
  0
LINE
  8
0
 62
0
 10
-35.500000000038
 20
14.704581464272703
 30
0.0
 11
-35.500000000003695
 21
-14.704581464241176
 31
0.0
  0
ARC
  8
0
 62
0
 10
-26.607028
 20
17.778248000000005
 30
0.0
 40
1.525
 50
91.8537866926425
 51
-1.8537866926427866
  0
LINE
  8
0
 62
0
 10
-35.500000000003695
 20
-14.704581464241176
 30
0.0
 11
-28.77924604855929
 21
-21.42533541568558
 31
0.0
  0
LINE
  8
0
 62
0
 10
-22.3445742312281
 20
14.990663815421607
 30
0.0
 11
-25.08282613474551
 21
17.72891571893902
 31
0.0
  0
LINE
  8
0
 62
0
 10
-26.6563595540244
 20
-19.302448921150702
 30
0.0
 11
-28.77924604855929
 21
-21.425335415685584
 31
0.0
  0
ARC
  8
0
 62
0
 10
-22.23850821405012
 20
15.09672983259959
 30
0.0
 40
0.15
 50
-135.00000000000048
 51
44.999999999999524
  0
ARC
  8
0
 62
0
 10
-26.607028999999997
 20
-17.778246999999993
 30
0.0
 40
1.525
 50
1.853721772170023
 51
-91.85372177217002
  0
LINE
  8
0
 62
0
 10
-25.14644714037356
 20
18.216800793279
 30
0.0
 11
-22.132442196872137
 21
15.202795849777571
 31
0.0
  0
LINE
  8
0
 62
0
 10
-22.344574339761696
 20
-14.990663706888006
 30
0.0
 11
-25.082827078849288
 21
-17.728916445975592
 31
0.0
  0
ARC
  8
0
 62
0
 10
-26.607028
 20
17.778248000000005
 30
0.0
 40
1.525
 50
16.712866395776032
 51
73.2871336042237
  0
ARC
  8
0
 62
0
 10
-22.238508322583716
 20
-15.096729724065987
 30
0.0
 40
0.15
 50
-44.999999999999524
 51
134.99999999999906
  0
LINE
  8
0
 62
0
 10
-31.18340899605994
 20
24.253762648965388
 30
0.0
 11
-26.168475206721
 21
19.238828859626437
 31
0.0
  0
LINE
  8
0
 62
0
 10
-25.146448905434422
 20
-18.216802341272654
 30
0.0
 11
-22.132442305405732
 21
-15.20279574124397
 31
0.0
  0
LINE
  8
0
 62
0
 10
-31.18340899605994
 20
24.253762648965388
 30
0.0
 11
-31.254119728446042
 21
24.183051916579288
 31
0.0
  0
ARC
  8
0
 62
0
 10
-26.607028999999997
 20
-17.778246999999993
 30
0.0
 40
1.525
 50
-73.28703365130457
 51
-16.71296634869557
  0
ARC
  8
0
 62
0
 10
-31.536962332385343
 20
24.46589473758923
 30
0.0
 40
0.4
 50
-171.6886801627754
 51
-45.000021986126754
  0
LINE
  8
0
 62
0
 10
-31.18340910459355
 20
-24.25376254043177
 30
0.0
 11
-26.168473658727336
 21
-19.238827094565565
 31
0.0
  0
LINE
  8
0
 62
0
 10
-32.08797000233699
 20
25.470521986247984
 30
0.0
 11
-31.9327612321969
 21
24.40807405869351
 31
0.0
  0
LINE
  8
0
 62
0
 10
-31.254119728444756
 20
-24.183051916580563
 30
0.0
 11
-31.18340910459355
 21
-24.25376254043177
 31
0.0
  0
LINE
  8
0
 62
0
 10
-29.825228302540033
 20
27.733263686044936
 30
0.0
 11
-32.08797000233699
 21
25.470521986247984
 31
0.0
  0
ARC
  8
0
 62
0
 10
-31.536962440916174
 20
-24.465894629051995
 30
0.0
 40
0.4
 50
45.000000000001805
 51
171.68868016265662
  0
LINE
  8
0
 62
0
 10
-20.774261503352236
 20
18.682296886857117
 30
0.0
 11
-29.82522830254003
 21
27.733263686044932
 31
0.0
  0
LINE
  8
0
 62
0
 10
-31.93276134072761
 20
-24.408073950155455
 30
0.0
 11
-32.08797011087059
 21
-25.470521877714365
 31
0.0
  0
ARC
  8
0
 62
0
 10
-20.668195486172642
 20
18.78836290403671
 30
0.0
 40
0.15
 50
-135.0
 51
45.00000000000095
  0
LINE
  8
0
 62
0
 10
-32.08797011087059
 20
-25.470521877714365
 30
0.0
 11
-29.825228411073645
 21
-27.733263577511316
 31
0.0
  0
LINE
  8
0
 62
0
 10
-29.613096268182453
 20
27.945395720402505
 30
0.0
 11
-20.562129468994662
 21
18.894428921214693
 31
0.0
  0
LINE
  8
0
 62
0
 10
-29.825228411073642
 20
-27.733263577511316
 30
0.0
 11
-20.774261611885823
 21
-18.68229677832352
 31
0.0
  0
LINE
  8
0
 62
0
 10
-27.945395611867287
 20
29.613096376717678
 30
0.0
 11
-29.613096268182456
 21
27.94539572040251
 31
0.0
  0
ARC
  8
0
 62
0
 10
-20.66819559470784
 20
-18.788362795501502
 30
0.0
 40
0.15
 50
-45.00000000000095
 51
134.99999999999906
  0
LINE
  8
0
 62
0
 10
-18.894428812679482
 20
20.562129577529856
 30
0.0
 11
-27.945395611867276
 21
29.613096376717667
 31
0.0
  0
LINE
  8
0
 62
0
 10
-20.562129577529856
 20
-18.894428812679482
 30
0.0
 11
-29.613096376717667
 21
-27.945395611867276
 31
0.0
  0
ARC
  8
0
 62
0
 10
-18.788362795501502
 20
20.66819559470784
 30
0.0
 40
0.15
 50
-135.00000000000097
 51
44.999999999999034
  0
LINE
  8
0
 62
0
 10
-29.613096376717678
 20
-27.945395611867287
 30
0.0
 11
-27.94539572040251
 21
-29.613096268182456
 31
0.0
  0
LINE
  8
0
 62
0
 10
-27.733263577511316
 20
29.825228411073642
 30
0.0
 11
-18.68229677832352
 21
20.774261611885823
 31
0.0
  0
LINE
  8
0
 62
0
 10
-27.945395720402505
 20
-29.613096268182453
 30
0.0
 11
-18.894428921214693
 21
-20.562129468994662
 31
0.0
  0
LINE
  8
0
 62
0
 10
-25.470521877714365
 20
32.08797011087059
 30
0.0
 11
-27.733263577511316
 21
29.825228411073645
 31
0.0
  0
ARC
  8
0
 62
0
 10
-18.78836290403671
 20
-20.668195486172642
 30
0.0
 40
0.15
 50
-45.0
 51
135.00000000000097
  0
LINE
  8
0
 62
0
 10
-24.408073950155455
 20
31.93276134072761
 30
0.0
 11
-25.470521877714365
 21
32.08797011087059
 31
0.0
  0
LINE
  8
0
 62
0
 10
-18.682296886857117
 20
-20.774261503352236
 30
0.0
 11
-27.733263686044932
 21
-29.82522830254003
 31
0.0
  0
ARC
  8
0
 62
0
 10
-24.465894629051995
 20
31.536962440916174
 30
0.0
 40
0.4
 50
-44.99999999999821
 51
81.6886801626566
  0
LINE
  8
0
 62
0
 10
-27.733263686044936
 20
-29.825228302540033
 30
0.0
 11
-25.470521986247984
 21
-32.08797000233699
 31
0.0
  0
LINE
  8
0
 62
0
 10
-24.183051916580563
 20
31.254119728444756
 30
0.0
 11
-24.25376254043177
 21
31.18340910459355
 31
0.0
  0
LINE
  8
0
 62
0
 10
-25.470521986247984
 20
-32.08797000233699
 30
0.0
 11
-24.40807405869351
 21
-31.9327612321969
 31
0.0
  0
LINE
  8
0
 62
0
 10
-24.25376254043177
 20
31.18340910459355
 30
0.0
 11
-15.20279574124397
 21
22.132442305405732
 31
0.0
  0
ARC
  8
0
 62
0
 10
-24.46589473758923
 20
-31.536962332385343
 30
0.0
 40
0.4
 50
-81.68868016277541
 51
44.99997801387324
  0
ARC
  8
0
 62
0
 10
-15.096729724065987
 20
22.238508322583716
 30
0.0
 40
0.15
 50
-134.99999999999952
 51
44.999999999999034
  0
LINE
  8
0
 62
0
 10
-24.253762648965388
 20
-31.18340899605994
 30
0.0
 11
-24.183051916579288
 21
-31.254119728446042
 31
0.0
  0
LINE
  8
0
 62
0
 10
-14.990663706888006
 20
22.344574339761696
 30
0.0
 11
-21.425335415703316
 21
28.779246048577022
 31
0.0
  0
LINE
  8
0
 62
0
 10
-24.253762648965388
 20
-31.18340899605994
 30
0.0
 11
-15.202795849777571
 21
-22.132442196872137
 31
0.0
  0
LINE
  8
0
 62
0
 10
-14.704581464242656
 20
35.50000000002318
 30
0.0
 11
-21.425335415703312
 21
28.779246048577022
 31
0.0
  0
ARC
  8
0
 62
0
 10
-15.09672983259959
 20
-22.23850821405012
 30
0.0
 40
0.15
 50
-45.00000000000048
 51
134.99999999999952
  0
LINE
  8
0
 62
0
 10
14.704581464256501
 20
35.49999999999686
 30
0.0
 11
-14.704581464242656
 21
35.50000000002318
 31
0.0
  0
LINE
  8
0
 62
0
 10
-14.990663815421607
 20
-22.3445742312281
 30
0.0
 11
-21.425335524219197
 21
-28.779245940025678
 31
0.0
  0
LINE
  8
0
 62
0
 10
21.425335524218738
 20
28.779245940025213
 30
0.0
 11
14.7045814642565
 21
35.49999999999686
 31
0.0
  0
LINE
  8
0
 62
0
 10
-21.4253355242192
 20
-28.779245940025675
 30
0.0
 11
-14.704581464256428
 21
-35.49999999998845
 31
0.0
  0
LINE
  8
0
 62
0
 10
14.990663815421607
 20
22.3445742312281
 30
0.0
 11
21.425335524218735
 21
28.779245940025216
 31
0.0
  0
LINE
  8
0
 62
0
 10
-14.704581464256426
 20
-35.49999999998845
 30
0.0
 11
14.704581464226246
 21
-35.499999999991985
 31
0.0
  0
ARC
  8
0
 62
0
 10
15.09672983259959
 20
22.23850821405012
 30
0.0
 40
0.15
 50
134.99999999999952
 51
-45.00000000000048
  0
LINE
  8
0
 62
0
 10
14.704581464226248
 20
-35.499999999991985
 30
0.0
 11
21.425335415674397
 21
-28.779246048548103
 31
0.0
  0
LINE
  8
0
 62
0
 10
24.253762648965388
 20
31.18340899605994
 30
0.0
 11
15.202795849777571
 21
22.132442196872137
 31
0.0
  0
LINE
  8
0
 62
0
 10
14.990663706888006
 20
-22.344574339761696
 30
0.0
 11
21.4253354156744
 21
-28.779246048548103
 31
0.0
  0
LINE
  8
0
 62
0
 10
24.253762648965388
 20
31.18340899605994
 30
0.0
 11
24.183051916579288
 21
31.254119728446042
 31
0.0
  0
ARC
  8
0
 62
0
 10
15.096729724065987
 20
-22.238508322583716
 30
0.0
 40
0.15
 50
45.00000000000048
 51
-135.00000000000097
  0
ARC
  8
0
 62
0
 10
24.46589473758923
 20
31.536962332385343
 30
0.0
 40
0.4
 50
98.31131983722459
 51
-135.00002198612677
  0
LINE
  8
0
 62
0
 10
24.25376254043177
 20
-31.18340910459355
 30
0.0
 11
15.20279574124397
 21
-22.132442305405732
 31
0.0
  0
LINE
  8
0
 62
0
 10
25.470521986247984
 20
32.08797000233699
 30
0.0
 11
24.40807405869351
 21
31.9327612321969
 31
0.0
  0
LINE
  8
0
 62
0
 10
24.183051916580563
 20
-31.254119728444756
 30
0.0
 11
24.25376254043177
 21
-31.18340910459355
 31
0.0
  0
LINE
  8
0
 62
0
 10
27.733263686044936
 20
29.82522830254003
 30
0.0
 11
25.470521986247984
 21
32.08797000233699
 31
0.0
  0
ARC
  8
0
 62
0
 10
24.465894629051995
 20
-31.536962440916174
 30
0.0
 40
0.4
 50
135.00000000000182
 51
-98.31131983734342
  0
LINE
  8
0
 62
0
 10
18.682296886857117
 20
20.774261503352236
 30
0.0
 11
27.733263686044932
 21
29.82522830254003
 31
0.0
  0
LINE
  8
0
 62
0
 10
24.408073950155455
 20
-31.93276134072761
 30
0.0
 11
25.470521877714365
 21
-32.08797011087059
 31
0.0
  0
ARC
  8
0
 62
0
 10
18.78836290403671
 20
20.668195486172642
 30
0.0
 40
0.15
 50
135.0
 51
-44.999999999999034
  0
LINE
  8
0
 62
0
 10
25.470521877714365
 20
-32.08797011087059
 30
0.0
 11
27.733263577511316
 21
-29.825228411073645
 31
0.0
  0
LINE
  8
0
 62
0
 10
27.945395720402505
 20
29.613096268182453
 30
0.0
 11
18.894428921214693
 21
20.562129468994662
 31
0.0
  0
LINE
  8
0
 62
0
 10
27.733263577511316
 20
-29.825228411073642
 30
0.0
 11
18.68229677832352
 21
-20.774261611885823
 31
0.0
  0
LINE
  8
0
 62
0
 10
29.613096376717678
 20
27.945395611867283
 30
0.0
 11
27.945395720402512
 21
29.613096268182456
 31
0.0
  0
ARC
  8
0
 62
0
 10
18.788362795501502
 20
-20.66819559470784
 30
0.0
 40
0.15
 50
44.999999999999034
 51
-135.00000000000097
  0
LINE
  8
0
 62
0
 10
20.562129577529856
 20
18.894428812679482
 30
0.0
 11
29.613096376717667
 21
27.945395611867276
 31
0.0
  0
LINE
  8
0
 62
0
 10
18.894428812679482
 20
-20.562129577529856
 30
0.0
 11
27.945395611867276
 21
-29.613096376717667
 31
0.0
  0
ARC
  8
0
 62
0
 10
20.66819559470784
 20
18.788362795501502
 30
0.0
 40
0.15
 50
134.99999999999906
 51
-45.00000000000095
  0
LINE
  8
0
 62
0
 10
27.945395611867283
 20
-29.613096376717678
 30
0.0
 11
29.613096268182456
 21
-27.945395720402512
 31
0.0
  0
LINE
  8
0
 62
0
 10
29.825228411073642
 20
27.733263577511316
 30
0.0
 11
20.774261611885823
 21
18.68229677832352
 31
0.0
  0
LINE
  8
0
 62
0
 10
29.613096268182453
 20
-27.945395720402505
 30
0.0
 11
20.562129468994662
 21
-18.894428921214693
 31
0.0
  0
LINE
  8
0
 62
0
 10
32.08797011087059
 20
25.470521877714365
 30
0.0
 11
29.825228411073645
 21
27.733263577511316
 31
0.0
  0
ARC
  8
0
 62
0
 10
20.668195486172642
 20
-18.78836290403671
 30
0.0
 40
0.15
 50
45.0
 51
-134.99999999999906
  0
LINE
  8
0
 62
0
 10
31.93276134072761
 20
24.408073950155455
 30
0.0
 11
32.08797011087059
 21
25.470521877714365
 31
0.0
  0
LINE
  8
0
 62
0
 10
20.774261503352236
 20
-18.682296886857117
 30
0.0
 11
29.82522830254003
 21
-27.733263686044932
 31
0.0
  0
ARC
  8
0
 62
0
 10
31.536962440916174
 20
24.465894629051995
 30
0.0
 40
0.4
 50
-134.99999999999818
 51
-8.311319837343392
  0
LINE
  8
0
 62
0
 10
29.82522830254003
 20
-27.733263686044936
 30
0.0
 11
32.08797000233699
 21
-25.470521986247984
 31
0.0
  0
LINE
  8
0
 62
0
 10
31.254119728444756
 20
24.183051916580563
 30
0.0
 11
31.18340910459355
 21
24.25376254043177
 31
0.0
  0
LINE
  8
0
 62
0
 10
32.08797000233699
 20
-25.470521986247984
 30
0.0
 11
31.9327612321969
 21
-24.40807405869351
 31
0.0
  0
LINE
  8
0
 62
0
 10
31.18340910459355
 20
24.25376254043177
 30
0.0
 11
26.16847365872734
 21
19.23882709456557
 31
0.0
  0
ARC
  8
0
 62
0
 10
31.536962332385343
 20
-24.46589473758923
 30
0.0
 40
0.4
 50
8.311319837224618
 51
134.99997801387323
  0
ARC
  8
0
 62
0
 10
26.607028999999997
 20
17.778246999999993
 30
0.0
 40
1.525
 50
106.71296634869518
 51
163.28703365130906
  0
LINE
  8
0
 62
0
 10
31.18340899605994
 20
-24.253762648965388
 30
0.0
 11
31.254119728446042
 21
-24.183051916579288
 31
0.0
  0
LINE
  8
0
 62
0
 10
25.14644890543434
 20
18.216802341272572
 30
0.0
 11
22.132442305405732
 21
15.20279574124397
 31
0.0
  0
LINE
  8
0
 62
0
 10
31.18340899605994
 20
-24.253762648965388
 30
0.0
 11
26.168475206721002
 21
-19.23882885962644
 31
0.0
  0
ARC
  8
0
 62
0
 10
22.238508322583716
 20
15.096729724065987
 30
0.0
 40
0.15
 50
135.00000000000048
 51
-45.00000000000095
  0
ARC
  8
0
 62
0
 10
26.607028
 20
-17.778248000000005
 30
0.0
 40
1.525
 50
-163.28713360422398
 51
-106.71286639577617
  0
LINE
  8
0
 62
0
 10
22.344574339761696
 20
14.990663706888006
 30
0.0
 11
25.082827078849263
 21
17.728916445975564
 31
0.0
  0
LINE
  8
0
 62
0
 10
25.14644714037356
 20
-18.216800793279
 30
0.0
 11
22.132442196872137
 21
-15.202795849777571
 31
0.0
  0
ARC
  8
0
 62
0
 10
26.607028999999997
 20
17.778246999999993
 30
0.0
 40
1.525
 50
-178.14627822782862
 51
-0.0
  0
ARC
  8
0
 62
0
 10
22.23850821405012
 20
-15.09672983259959
 30
0.0
 40
0.15
 50
44.999999999999524
 51
-135.00000000000048
  0
ARC
  8
0
 62
0
 10
26.607028999999997
 20
17.778246999999993
 30
0.0
 40
1.525
 50
-0.0
 51
88.14627822782825
  0
LINE
  8
0
 62
0
 10
22.3445742312281
 20
-14.990663815421607
 30
0.0
 11
25.082826134745513
 21
-17.728915718939025
 31
0.0
  0
LINE
  8
0
 62
0
 10
26.65635955402443
 20
19.30244892115073
 30
0.0
 11
28.779246048553677
 21
21.425335415679974
 31
0.0
  0
ARC
  8
0
 62
0
 10
26.607028
 20
-17.778248000000005
 30
0.0
 40
1.525
 50
-0.0
 51
178.14621330735721
  0
LINE
  8
0
 62
0
 10
35.49999999999525
 20
14.704581464228989
 30
0.0
 11
28.77924604855368
 21
21.425335415679967
 31
0.0
  0
ARC
  8
0
 62
0
 10
26.607028
 20
-17.778248000000005
 30
0.0
 40
1.525
 50
-88.14621330735737
 51
-0.0
  0
LINE
  8
0
 62
0
 10
35.499999999980204
 20
-14.70458146425123
 30
0.0
 11
35.49999999999525
 21
14.70458146422899
 31
0.0
  0
LINE
  8
0
 62
0
 10
26.656360281060977
 20
-19.302449865254488
 30
0.0
 11
28.779245940016825
 21
-21.42533552421034
 31
0.0
  0
LINE
  8
0
 62
0
 10
28.77924594001682
 20
-21.425335524210347
 30
0.0
 11
35.499999999980204
 21
-14.70458146425123
 31
0.0
  0
ARC
  8
0
 62
0
 10
-7.893981473714378
 20
-29.460737541557336
 30
0.0
 40
2.4999999999978737
 50
74.99999883682722
 51
-105.00000116316329
  0
ARC
  8
0
 62
0
 10
0.0
 20
0.0
 30
0.0
 40
28.0
 50
-105.00000116317251
 51
-75.00000116317254
  0
ARC
  8
0
 62
0
 10
0.0
 20
0.0
 30
0.0
 40
33.0
 50
-105.0000011631722
 51
-75.00000116316858
  0
ARC
  8
0
 62
0
 10
7.893980277535425
 20
-29.460737862061023
 30
0.0
 40
2.499999999986776
 50
-75.00000116306612
 51
104.99999883682646
  0
CIRCLE
  8
0
 62
0
 10
-10.159999999999998
 20
-21.589999999999996
 30
0.0
 40
1.6000000000000014
  0
CIRCLE
  8
0
 62
0
 10
10.16
 20
-21.59
 30
0.0
 40
1.6
  0
ARC
  8
0
 62
0
 10
29.460737541557336
 20
-7.893981473714378
 30
0.0
 40
2.4999999999978737
 50
164.99999883682722
 51
-15.000001163163294
  0
ARC
  8
0
 62
0
 10
0.0
 20
0.0
 30
0.0
 40
28.0
 50
-15.000001163172486
 51
14.999998836827464
  0
ARC
  8
0
 62
0
 10
0.0
 20
0.0
 30
0.0
 40
33.0
 50
-15.00000116317219
 51
14.99999883683142
  0
ARC
  8
0
 62
0
 10
29.460737862061023
 20
7.893980277535425
 30
0.0
 40
2.499999999986776
 50
14.999998836933907
 51
-165.00000116317355
  0
ARC
  8
0
 62
0
 10
-29.460737541557336
 20
7.893981473714378
 30
0.0
 40
2.4999999999978737
 50
-15.000001163172781
 51
164.9999988368367
  0
ARC
  8
0
 62
0
 10
0.0
 20
0.0
 30
0.0
 40
28.0
 50
164.99999883682753
 51
-165.00000116317256
  0
ARC
  8
0
 62
0
 10
0.0
 20
0.0
 30
0.0
 40
33.0
 50
164.9999988368278
 51
-165.00000116316858
  0
ARC
  8
0
 62
0
 10
-29.460737862061023
 20
-7.893980277535425
 30
0.0
 40
2.499999999986776
 50
-165.0000011630661
 51
14.999998836826455
  0
CIRCLE
  8
0
 62
0
 10
-10.16
 20
21.59
 30
0.0
 40
1.6
  0
CIRCLE
  8
0
 62
0
 10
10.16
 20
21.59
 30
0.0
 40
1.6
  0
ARC
  8
0
 62
0
 10
7.893981473714378
 20
29.460737541557336
 30
0.0
 40
2.4999999999978737
 50
-105.00000116317278
 51
74.99999883683672
  0
ARC
  8
0
 62
0
 10
0.0
 20
0.0
 30
0.0
 40
28.0
 50
74.9999988368275
 51
104.99999883682746
  0
ARC
  8
0
 62
0
 10
0.0
 20
0.0
 30
0.0
 40
33.0
 50
74.9999988368278
 51
104.99999883683142
  0
ARC
  8
0
 62
0
 10
-7.893980277535425
 20
29.460737862061023
 30
0.0
 40
2.499999999986776
 50
104.99999883693388
 51
-75.00000116317355
  0
ENDBLK
  0
ENDSEC
  0
SECTION
  2
ENTITIES
  0
INSERT
  2
SHAPE2DVIEW011
  8
0
 62
0
 10
0.0
 20
0.0
 30
0.0
  0
ENDSEC
  0
EOF
