<?xml version="1.0" encoding="UTF-8" standalone="no"?>
<svg
   viewBox="0 0 793.7007874015749 1122.5196850393702"
   width="793.7007874015749"
   height="1122.5196850393702"
   version="1.1"
   id="svg27539"
   sodipodi:docname="led_ring.svg"
   inkscape:version="1.2.2 (b0a8486, 2022-12-01)"
   xmlns:inkscape="http://www.inkscape.org/namespaces/inkscape"
   xmlns:sodipodi="http://sodipodi.sourceforge.net/DTD/sodipodi-0.dtd"
   xmlns="http://www.w3.org/2000/svg"
   xmlns:svg="http://www.w3.org/2000/svg">
  <sodipodi:namedview
     id="namedview27541"
     pagecolor="#ffffff"
     bordercolor="#666666"
     borderopacity="1.0"
     inkscape:showpageshadow="2"
     inkscape:pageopacity="0.0"
     inkscape:pagecheckerboard="0"
     inkscape:deskcolor="#d1d1d1"
     showgrid="false"
     inkscape:zoom="2"
     inkscape:cx="295.5"
     inkscape:cy="565.75"
     inkscape:window-width="1920"
     inkscape:window-height="975"
     inkscape:window-x="0"
     inkscape:window-y="0"
     inkscape:window-maximized="1"
     inkscape:current-layer="g27537" />
  <desc
     id="desc27249">IoT_lamp_octagon-Body_led_ring.dxf - scale = 1.000000, origin = (0.000000, 0.000000), method = manual</desc>
  <defs
     id="defs27263">
    <marker
       id="DistanceX"
       orient="auto"
       refX="0.0"
       refY="0.0"
       style="overflow:visible">
      <path
         d="M 3,-3 L -3,3 M 0,-5 L  0,5"
         style="stroke:#000000; stroke-width:0.5"
         id="path27251" />
    </marker>
    <pattern
       id="Hatch"
       patternUnits="userSpaceOnUse"
       width="8"
       height="8"
       x="0"
       y="0">
      <path
         d="M8 4 l-4,4"
         stroke="#000000"
         stroke-width="0.25"
         linecap="square"
         id="path27254" />
      <path
         d="M6 2 l-4,4"
         stroke="#000000"
         stroke-width="0.25"
         linecap="square"
         id="path27256" />
      <path
         d="M4 0 l-4,4"
         stroke="#000000"
         stroke-width="0.25"
         linecap="square"
         id="path27258" />
    </pattern>
    <symbol
       id="*MODEL_SPACE" />
    <symbol
       id="*PAPER_SPACE" />
  </defs>
  <g
     inkscape:groupmode="layer"
     inkscape:label="0"
     id="g27265" />
  <g
     inkscape:groupmode="layer"
     inkscape:label="none"
     id="g27267" />
  <g
     inkscape:groupmode="layer"
     inkscape:label="Shape2DView010"
     id="g27537">
    <path
       id="path27493"
       style="fill:none;stroke:#0000ff;stroke-opacity:1;fill-opacity:1;stroke-width:0.75590551;stroke-dasharray:none"
       d="M 341.27344 427.08789 L 315.87305 452.49219 L 323.89648 460.51172 C 324.05972 455.46922 330.1649 453.05742 333.73242 456.625 C 337.30001 460.19258 334.88695 466.297 329.84375 466.46094 L 340.19336 476.81055 C 340.73773 477.34393 339.92512 478.15535 339.39062 477.61133 L 328 466.2207 C 326.14536 465.66286 324.69371 464.21173 324.13672 462.35938 L 305.18164 443.40234 L 305.44922 443.13281 C 306.32841 442.2553 305.83015 440.7495 304.59961 440.57031 L 300.58398 439.98242 L 292.03125 448.53125 L 326.24023 482.74414 C 326.78441 483.28002 325.97182 484.09144 325.4375 483.54492 L 291.23047 449.3418 L 284.92578 455.64258 L 319.13477 489.84961 C 319.67161 490.38286 318.86856 491.18888 318.33398 490.65234 L 284.125 456.44141 L 275.57422 464.99219 L 276.16016 469.01172 C 276.33997 470.24162 277.84528 470.74029 278.72461 469.86133 L 278.99219 469.5918 L 313.20117 503.80273 C 313.73801 504.33743 312.93302 505.14151 312.39844 504.60352 L 288.07812 480.28125 L 262.67773 505.68164 L 262.67773 616.8418 L 288.07812 642.24219 L 312.39844 617.91992 C 312.93302 617.38401 313.73563 618.18569 313.20117 618.7207 L 278.99219 652.93164 L 278.72461 652.66211 C 277.84527 651.78287 276.33997 652.28154 276.16016 653.51172 L 275.57422 657.53125 L 284.125 666.08203 L 318.33398 631.87109 C 318.86848 631.34543 319.66037 632.13829 319.13477 632.67188 L 284.92578 666.88086 L 291.23047 673.18164 L 325.4375 638.97461 C 325.97191 638.44588 326.77134 639.2431 326.24023 639.7793 L 292.03125 673.98242 L 300.58398 682.54102 L 304.59961 681.95117 C 305.83026 681.77174 306.32855 680.26582 305.44922 679.38867 L 305.18164 679.12109 L 324.13672 660.16406 C 324.69367 658.31135 326.14533 656.8603 328 656.30273 L 339.39062 644.91211 C 339.92521 644.3775 340.72804 645.17918 340.19336 645.71289 L 329.84375 656.0625 C 332.98986 656.16362 335.4727 658.76877 335.42188 661.91602 C 335.37099 665.06319 332.80586 667.58889 329.6582 667.58789 C 326.54757 667.58792 323.99709 665.1198 323.89648 662.01172 L 315.87305 670.03125 L 341.27344 695.43164 L 452.42773 695.43164 L 477.82812 670.03125 L 469.80469 662.01172 C 469.70412 665.11977 467.15559 667.58787 464.04492 667.58789 C 456.4806 667.59089 456.29707 656.30495 463.85742 656.0625 L 453.50781 645.71289 C 452.97552 645.17919 453.77596 644.37989 454.31055 644.91211 L 465.70117 656.30273 C 467.55599 656.86027 469.00765 658.31133 469.56445 660.16406 L 488.51758 679.12109 L 488.25195 679.38867 C 487.37243 680.26583 487.87092 681.77174 489.10156 681.95117 L 493.11719 682.54102 L 501.66992 673.98242 L 467.46094 639.7793 C 466.92884 639.2431 467.72732 638.44489 468.26172 638.97461 L 502.4707 673.18164 L 508.77344 666.88086 L 474.56641 632.67188 C 474.0409 632.13829 474.8327 631.34551 475.36719 631.87109 L 509.57617 666.08203 L 518.12695 657.53125 L 517.54102 653.51172 C 517.36122 652.28152 515.8559 651.78285 514.97656 652.66211 L 514.70898 652.93164 L 480.5 618.7207 C 479.96793 618.1857 480.76815 617.3864 481.30273 617.91992 L 505.62305 642.24219 L 531.02344 616.8418 L 531.02344 505.68164 L 505.62305 480.28125 L 481.30273 504.60352 C 480.76815 505.13913 479.96554 504.33744 480.5 503.80273 L 514.70898 469.5918 L 514.97656 469.86133 C 515.8559 470.74029 517.36122 470.24162 517.54102 469.01172 L 518.12695 464.99219 L 509.57617 456.44141 L 475.36719 490.65234 C 474.83262 491.1865 474.03196 490.38287 474.56641 489.84961 L 508.77344 455.64258 L 502.4707 449.3418 L 468.26172 483.54492 C 467.7274 484.09059 466.91761 483.28003 467.46094 482.74414 L 501.66992 448.53125 L 493.11719 439.98242 L 489.10156 440.57031 C 487.87103 440.7495 487.37257 442.2553 488.25195 443.13281 L 488.51758 443.40234 L 469.56445 462.35938 C 469.00769 464.21171 467.55603 465.66284 465.70117 466.2207 L 454.31055 477.61133 C 453.77604 478.15458 452.9642 477.34394 453.50781 476.81055 L 463.85742 466.46094 C 458.81444 466.29703 456.4012 460.19261 459.96875 456.625 C 463.53629 453.05739 469.64141 455.46919 469.80469 460.51172 L 477.82812 452.49219 L 452.42773 427.08789 L 341.27344 427.08789 z M 396.85156 436.53711 C 407.70514 436.53713 418.55716 437.95376 429.13086 440.78711 C 434.16174 442.14567 437.14371 447.32169 435.79492 452.35547 C 434.44612 457.38921 429.27651 460.38015 424.24023 459.04102 C 406.29688 454.23297 387.40442 454.23298 369.46094 459.04102 C 364.41735 460.3997 359.22692 457.40864 357.875 452.36328 C 356.52308 447.31796 359.52302 442.13251 364.57031 440.78711 C 375.14424 437.95377 385.99798 436.53709 396.85156 436.53711 z M 311.24609 518.33008 C 314.58593 518.33009 317.29317 521.03899 317.29297 524.37695 C 317.29277 527.71477 314.58539 530.41602 311.24609 530.41602 C 307.90683 530.41602 305.19942 527.71477 305.19922 524.37695 C 305.19902 521.03899 307.90629 518.33009 311.24609 518.33008 z M 474.44531 518.33008 C 477.78515 518.33009 480.49239 521.03896 480.49219 524.37695 C 480.49199 527.71477 477.78461 530.41602 474.44531 530.41602 C 471.10602 530.41602 468.39864 527.71477 468.39844 524.37695 C 468.39824 521.03896 471.10548 518.33009 474.44531 518.33008 z M 285.64844 521.98438 C 285.78487 521.98662 285.92159 521.99176 286.05859 522 C 286.6849 522.03768 287.31567 522.13989 287.94531 522.30859 C 292.98244 523.65827 295.97365 528.83262 294.62891 533.87109 C 289.82086 551.81466 289.82085 570.70912 294.62891 588.65234 C 295.97954 593.69282 292.98977 598.87394 287.94922 600.22461 C 282.9086 601.57528 277.72579 598.58352 276.375 593.54297 C 270.70843 572.39537 270.70843 550.12802 276.375 528.98047 C 277.48631 524.84959 281.17156 522.09693 285.24023 521.98633 C 285.37586 521.98264 285.512 521.9821 285.64844 521.98438 z M 508.05273 521.98633 C 508.18918 521.98405 508.32533 521.9846 508.46094 521.98828 C 512.52904 522.09869 516.21237 524.85034 517.32422 528.98047 C 522.99088 550.12799 522.99086 572.39528 517.32422 593.54297 C 515.97749 598.58833 510.79409 601.58397 505.75 600.23242 C 500.70592 598.88086 497.71365 593.69525 499.07031 588.65234 C 503.87841 570.70871 503.87844 551.81435 499.07031 533.87109 C 497.72646 528.83335 500.71929 523.65814 505.75586 522.30859 C 506.38543 522.1399 507.01634 522.03964 507.64258 522.00195 C 507.77957 521.99371 507.91629 521.9886 508.05273 521.98633 z M 311.24609 595.13086 C 314.58593 595.13087 317.29317 597.83778 317.29297 601.17578 C 317.29277 604.5136 314.58539 607.2168 311.24609 607.2168 C 307.90682 607.2168 305.19942 604.5136 305.19922 601.17578 C 305.19902 597.83778 307.90628 595.13087 311.24609 595.13086 z M 474.44531 595.13086 C 477.78515 595.13087 480.49239 597.83778 480.49219 601.17578 C 480.49199 604.5136 477.78461 607.2168 474.44531 607.2168 C 471.10603 607.2168 468.39864 604.5136 468.39844 601.17578 C 468.39824 597.83778 471.10549 595.13087 474.44531 595.13086 z M 367.1582 663.1543 C 367.29499 663.15696 367.43305 663.1634 367.57031 663.17188 C 368.1978 663.21058 368.83028 663.31208 369.46094 663.48242 C 387.40462 668.29044 406.29717 668.29054 424.24023 663.48242 C 429.28015 662.13287 434.46009 665.12416 435.81055 670.16406 C 437.16102 675.20403 434.17026 680.38485 429.13086 681.73633 C 407.98348 687.40292 385.71811 687.40289 364.57031 681.73633 C 359.51983 680.3937 356.51661 675.20592 357.86914 670.1582 C 358.97863 666.01754 362.67322 663.26094 366.75 663.15625 C 366.88589 663.15276 367.02141 663.15164 367.1582 663.1543 z " />
  </g>
</svg>
