<?xml version="1.0" encoding="UTF-8" standalone="no"?>
<!-- Created with Inkscape (http://www.inkscape.org/) -->

<svg
   width="210mm"
   height="297mm"
   viewBox="0 0 210 297"
   version="1.1"
   id="svg5"
   xml:space="preserve"
   inkscape:version="1.2.2 (b0a8486, 2022-12-01)"
   sodipodi:docname="side1-2-5-6-7.svg"
   xmlns:inkscape="http://www.inkscape.org/namespaces/inkscape"
   xmlns:sodipodi="http://sodipodi.sourceforge.net/DTD/sodipodi-0.dtd"
   xmlns="http://www.w3.org/2000/svg"
   xmlns:svg="http://www.w3.org/2000/svg"><sodipodi:namedview
     id="namedview7"
     pagecolor="#ffffff"
     bordercolor="#666666"
     borderopacity="1.0"
     inkscape:showpageshadow="2"
     inkscape:pageopacity="0.0"
     inkscape:pagecheckerboard="0"
     inkscape:deskcolor="#d1d1d1"
     inkscape:document-units="mm"
     showgrid="false"
     inkscape:zoom="1.4142136"
     inkscape:cx="224.85995"
     inkscape:cy="557.55368"
     inkscape:window-width="1920"
     inkscape:window-height="975"
     inkscape:window-x="0"
     inkscape:window-y="0"
     inkscape:window-maximized="1"
     inkscape:current-layer="g203" /><defs
     id="defs2"><marker
       id="DistanceX"
       orient="auto"
       refX="0.0"
       refY="0.0"
       style="overflow:visible"><path
         d="M 3,-3 L -3,3 M 0,-5 L  0,5"
         style="stroke:#000000; stroke-width:0.5"
         id="path27" /></marker><pattern
       id="Hatch"
       patternUnits="userSpaceOnUse"
       width="8"
       height="8"
       x="0"
       y="0"><path
         d="M8 4 l-4,4"
         stroke="#000000"
         stroke-width="0.25"
         linecap="square"
         id="path30" /><path
         d="M6 2 l-4,4"
         stroke="#000000"
         stroke-width="0.25"
         linecap="square"
         id="path32" /><path
         d="M4 0 l-4,4"
         stroke="#000000"
         stroke-width="0.25"
         linecap="square"
         id="path34" /></pattern><symbol
       id="*Model_Space" /><symbol
       id="*Paper_Space" /></defs><g
     inkscape:label="Layer 1"
     inkscape:groupmode="layer"
     id="layer1"><g
       id="g203"
       transform="matrix(0.26458333,0,0,0.26458333,103.40006,-96.150019)"
       style="fill:#000000;fill-opacity:1;stroke:#e40000;stroke-opacity:1"><g
         inkscape:label="0"
         id="g41"
         style="fill:#000000;fill-opacity:1;stroke:#e40000;stroke-opacity:1" /><path
         id="path47"
         style="fill:none;fill-opacity:1;stroke:#0000ff;stroke-linecap:round;stroke-opacity:1;stroke-width:0.75590552;stroke-dasharray:none"
         d="M -43.051424 726.80205 L -45.477205 730.05791 C -46.220317 731.0553 -45.507908 732.47219 -44.264314 732.47197 L -44.264314 933.54228 L -73.463534 933.54228 L -73.463534 744.56767 L -136.06314 744.56767 L -136.06314 1122.5208 L 148.15756 1122.5208 L 148.15756 744.56767 L 73.464203 744.56767 L 73.464203 933.54228 L 44.264984 933.54228 L 44.264984 732.47197 C 45.508581 732.47219 46.220985 731.0553 45.477874 730.05791 L 43.052093 726.80205 L 32.091155 726.80205 L 32.091155 775.18095 C 32.090154 775.9359 30.959343 775.9359 30.958343 775.18095 L 30.958343 726.80205 L -30.957674 726.80205 L -30.957674 775.18095 C -30.9587 775.9359 -32.091439 775.9359 -32.092439 775.18095 L -32.092439 726.80205 L -43.051424 726.80205 z M 18.329436 1022.1712 C 18.613379 1022.1712 18.898296 1022.3612 18.897796 1022.7396 L 18.897796 1083.2122 C 18.896811 1083.9684 17.764023 1083.9684 17.76303 1083.2122 L 17.76303 1059.0208 L -17.764314 1059.0208 L -17.764314 1083.2122 C -17.765307 1083.9684 -18.896142 1083.9684 -18.897127 1083.2122 L -18.897127 1022.7396 C -18.897638 1022.3612 -18.61443 1022.1731 -18.33072 1022.1731 C -18.047013 1022.1731 -17.763814 1022.3612 -17.764314 1022.7396 L -17.764314 1046.931 L 17.76303 1046.931 L 17.76303 1022.7396 C 17.762523 1022.3612 18.045494 1022.1712 18.329436 1022.1712 z M -30.424471 1022.1731 C -30.14101 1022.1731 -29.858056 1022.3617 -29.858064 1022.7396 L -29.858064 1083.2122 C -29.858048 1083.9694 -30.992843 1083.9694 -30.99283 1083.2122 L -30.99283 1022.7396 C -30.992836 1022.3617 -30.70793 1022.1731 -30.424471 1022.1731 z M 30.42514 1022.1731 C 30.7086 1022.1731 30.991552 1022.3617 30.991546 1022.7396 L 30.991546 1083.2122 C 30.991559 1083.9694 29.858717 1083.9694 29.858733 1083.2122 L 29.858733 1022.7396 C 29.858725 1022.3617 30.141679 1022.1731 30.42514 1022.1731 z " /><g
         inkscape:label="none"
         id="g139"
         style="fill:#000000;fill-opacity:1;stroke:#e40000;stroke-opacity:1" /></g></g></svg>
