<?xml version="1.0" encoding="UTF-8" standalone="no"?>
<!-- Created with Inkscape (http://www.inkscape.org/) -->

<svg
   width="210mm"
   height="297mm"
   viewBox="0 0 210 297"
   version="1.1"
   id="svg8835"
   xml:space="preserve"
   inkscape:version="1.2.2 (b0a8486, 2022-12-01)"
   sodipodi:docname="side3.svg"
   xmlns:inkscape="http://www.inkscape.org/namespaces/inkscape"
   xmlns:sodipodi="http://sodipodi.sourceforge.net/DTD/sodipodi-0.dtd"
   xmlns="http://www.w3.org/2000/svg"
   xmlns:svg="http://www.w3.org/2000/svg"><sodipodi:namedview
     id="namedview8837"
     pagecolor="#ffffff"
     bordercolor="#666666"
     borderopacity="1.0"
     inkscape:showpageshadow="2"
     inkscape:pageopacity="0.0"
     inkscape:pagecheckerboard="0"
     inkscape:deskcolor="#d1d1d1"
     inkscape:document-units="mm"
     showgrid="false"
     showguides="true"
     inkscape:zoom="1.345188"
     inkscape:cx="530.03744"
     inkscape:cy="537.84304"
     inkscape:window-width="1920"
     inkscape:window-height="975"
     inkscape:window-x="0"
     inkscape:window-y="0"
     inkscape:window-maximized="1"
     inkscape:current-layer="g10780" /><defs
     id="defs8832"><marker
       id="DistanceX"
       orient="auto"
       refX="0.0"
       refY="0.0"
       style="overflow:visible"><path
         d="M 3,-3 L -3,3 M 0,-5 L  0,5"
         style="stroke:#000000; stroke-width:0.5"
         id="path10672" /></marker><pattern
       id="Hatch"
       patternUnits="userSpaceOnUse"
       width="8"
       height="8"
       x="0"
       y="0"><path
         d="M8 4 l-4,4"
         stroke="#000000"
         stroke-width="0.25"
         linecap="square"
         id="path10675" /><path
         d="M6 2 l-4,4"
         stroke="#000000"
         stroke-width="0.25"
         linecap="square"
         id="path10677" /><path
         d="M4 0 l-4,4"
         stroke="#000000"
         stroke-width="0.25"
         linecap="square"
         id="path10679" /></pattern><symbol
       id="*Model_Space" /><symbol
       id="*Paper_Space" /></defs><g
     inkscape:label="Layer 1"
     inkscape:groupmode="layer"
     id="layer1"><g
       id="g10845"
       transform="matrix(0.26458333,0,0,0.26458333,67.400063,-96.149887)"><g
         inkscape:label="0"
         id="g10686" /><g
         inkscape:label="Shape2DView002"
         id="g10780"><path
           id="path10704"
           style="fill:none;stroke:#0000ff;stroke-linecap:round;fill-opacity:1;stroke-width:0.75590552;stroke-dasharray:none;stroke-opacity:1"
           d="M 93.011559 726.80155 L 90.585777 730.05545 C 89.842647 731.05274 90.555061 732.47155 91.798668 732.47147 L 91.798668 933.54374 L 62.599449 933.54374 L 62.599449 744.56522 L -0.00016121555 744.56522 L -0.00016121555 1122.5203 L 236.9764 1122.5203 L 236.9764 1084.7195 L 284.22055 1084.7195 L 284.22055 744.56522 L 209.52523 744.56522 L 209.52523 933.54374 L 180.32797 933.54374 L 180.32797 732.47147 C 181.57132 732.47155 182.2838 731.05273 181.54086 730.05545 L 179.11508 726.80155 L 168.15414 726.80155 L 168.15414 775.18045 C 168.15405 775.93634 167.02132 775.93634 167.02133 775.18045 L 167.02133 726.80155 L 105.10531 726.80155 L 105.10531 775.18045 C 105.10538 775.93634 103.97067 775.93634 103.97054 775.18045 L 103.97054 726.80155 L 93.011559 726.80155 z M 105.63851 1022.1726 C 105.92199 1022.1726 106.20482 1022.3611 106.20492 1022.7391 L 106.20492 1083.2117 C 106.20472 1083.9688 105.07002 1083.9688 105.07015 1083.2117 L 105.07015 1022.7391 C 105.07009 1022.3611 105.35504 1022.1726 105.63851 1022.1726 z M 117.73226 1022.1726 C 118.01573 1022.1726 118.29869 1022.3611 118.29867 1022.7391 L 118.29867 1046.9305 L 153.82797 1046.9305 L 153.82601 1022.7391 C 153.82583 1021.9832 154.96053 1021.9832 154.96078 1022.7391 L 154.96078 1083.2117 C 154.96053 1083.9688 153.82583 1083.9688 153.82601 1083.2117 L 153.82797 1059.0203 L 118.29867 1059.0203 L 118.29867 1083.2117 C 118.29872 1083.9688 117.16598 1083.9688 117.16586 1083.2117 L 117.16586 1022.7391 C 117.16591 1022.3611 117.44879 1022.1726 117.73226 1022.1726 z M 166.48812 1022.1726 C 166.7716 1022.1726 167.05452 1022.3611 167.05453 1022.7391 L 167.05453 1083.2117 C 167.05452 1083.9688 165.92179 1083.9688 165.92172 1083.2117 L 165.92172 1022.7391 C 165.92175 1022.3611 166.20465 1022.1726 166.48812 1022.1726 z " /></g><g
         inkscape:label="none"
         id="g10782" /></g></g></svg>
