<?xml version="1.0" encoding="UTF-8" standalone="no"?>
<svg
   viewBox="0 0 1152.1522 436.40001"
   width="1152.1522"
   height="436.39999"
   version="1.1"
   id="svg1500"
   sodipodi:docname="acrylic_clear_3,2mm_wall_hinges.svg"
   inkscape:version="1.1.2 (0a00cf5, 2022-02-04)"
   xmlns:inkscape="http://www.inkscape.org/namespaces/inkscape"
   xmlns:sodipodi="http://sodipodi.sourceforge.net/DTD/sodipodi-0.dtd"
   xmlns="http://www.w3.org/2000/svg"
   xmlns:svg="http://www.w3.org/2000/svg">
  <sodipodi:namedview
     id="namedview1502"
     pagecolor="#ffffff"
     bordercolor="#666666"
     borderopacity="1.0"
     inkscape:pageshadow="2"
     inkscape:pageopacity="0.0"
     inkscape:pagecheckerboard="0"
     showgrid="false"
     fit-margin-top="0"
     fit-margin-left="0"
     fit-margin-right="0"
     fit-margin-bottom="0"
     showguides="true"
     inkscape:guide-bbox="true"
     inkscape:zoom="0.94363244"
     inkscape:cx="626.30318"
     inkscape:cy="255.92592"
     inkscape:window-width="1920"
     inkscape:window-height="975"
     inkscape:window-x="0"
     inkscape:window-y="0"
     inkscape:window-maximized="1"
     inkscape:current-layer="g1496">
    <sodipodi:guide
       position="24.780565,-1393.7894"
       orientation="1,0"
       id="guide4235" />
    <sodipodi:guide
       position="96.394903,426.07001"
       orientation="0,-1"
       id="guide4237" />
    <sodipodi:guide
       position="39.315724,-1382.2758"
       orientation="0,-1"
       id="guide10004" />
  </sodipodi:namedview>
  <desc
     id="desc1294">acrylic_clear_3,2mm_wall_no_hinges.dxf - scale = 1.0, origin = (0.0, 0.0), method = manual</desc>
  <defs
     id="defs1308">
    <marker
       id="DistanceX"
       orient="auto"
       refX="0"
       refY="0"
       style="overflow:visible">
      <path
         d="M 3,-3 -3,3 M 0,-5 V 5"
         style="stroke:#000000;stroke-width:0.5"
         id="path1296" />
    </marker>
    <pattern
       id="Hatch"
       patternUnits="userSpaceOnUse"
       width="8"
       height="8"
       x="0"
       y="0">
      <path
         d="M8 4 l-4,4"
         stroke="#000000"
         stroke-width="0.25"
         linecap="square"
         id="path1299" />
      <path
         d="M6 2 l-4,4"
         stroke="#000000"
         stroke-width="0.25"
         linecap="square"
         id="path1301" />
      <path
         d="M4 0 l-4,4"
         stroke="#000000"
         stroke-width="0.25"
         linecap="square"
         id="path1303" />
    </pattern>
    <symbol
       id="*Model_Space" />
    <symbol
       id="*Paper_Space" />
    <pattern
       id="Voronoi881"
       width="356.72946"
       height="164.9379899999999"
       patternUnits="userSpaceOnUse"
       patternTransform="translate(87.7325, 2755.41)">
      <path
         d="M 37.815,0.000 43.859,3.394 M 43.859,3.394 46.420,0.000 M 186.743,1.257 186.758,0.000 M 107.463,7.073 108.058,6.690 M 108.058,6.690 108.146,0.000 M 85.555,0.000 88.591,2.550 M 88.591,2.550 106.911,0.000 M 199.310,0.000 202.855,9.714 M 346.764,0.000 348.470,5.853 M 348.470,5.853 352.158,5.518 M 108.437,0.000 124.656,7.389 M 124.656,7.389 126.638,0.000 M 347.009,6.825 348.470,5.853 M 236.243,4.095 237.032,0.000 M 213.763,8.923 215.008,0.000 M 169.220,0.000 173.009,12.099 M 202.855,9.714 211.002,10.392 M 211.002,10.392 213.763,8.923 M 93.578,10.088 107.463,7.073 M 327.024,4.053 347.009,6.825 M 88.591,2.550 91.649,9.017 M 91.649,9.017 93.578,10.088 M 247.381,0.000 258.544,9.060 M 258.544,9.060 266.641,0.000 M 277.480,0.000 283.319,9.629 M 283.319,9.629 285.331,10.195 M 173.009,12.099 180.537,13.507 M 180.537,13.507 186.743,1.257 M 321.742,0.000 327.024,4.053 M 285.331,10.195 304.118,0.000 M 335.150,16.897 345.601,15.110 M 345.601,15.110 347.009,6.825 M 327.024,4.053 331.196,14.660 M 331.196,14.660 335.150,16.897 M 93.578,10.088 100.241,16.109 M 100.241,16.109 107.463,7.073 M 303.281,14.270 311.060,0.000 M 43.859,3.394 43.904,13.253 M 150.862,7.297 151.990,0.000 M 186.743,1.257 196.228,16.231 M 196.228,16.231 202.855,9.714 M 43.904,13.253 58.296,12.599 M 58.296,12.599 63.049,0.000 M 314.751,0.000 316.528,16.648 M 196.109,16.982 196.228,16.231 M 13.374,11.663 13.438,0.000 M 9.605,13.011 13.374,11.663 M 236.243,4.095 245.942,19.587 M 245.942,19.587 259.725,16.021 M 258.544,9.060 259.725,16.021 M 27.466,14.738 31.126,0.000 M 189.095,21.532 196.109,16.982 M 213.763,8.923 225.499,18.181 M 225.499,18.181 236.243,4.095 M 13.374,11.663 23.826,15.241 M 23.826,15.241 27.466,14.738 M 207.492,23.107 211.002,10.392 M 207.492,23.107 225.131,19.878 M 225.131,19.878 225.508,19.569 M 225.499,18.181 225.508,19.569 M 271.325,21.072 283.319,9.629 M 221.031,26.595 225.131,19.878 M 27.466,14.738 35.748,18.505 M 35.748,18.505 43.904,13.253 M 108.058,6.690 117.070,19.784 M 180.537,13.507 183.867,22.781 M 183.867,22.781 189.095,21.532 M 86.532,24.051 91.649,9.017 M 196.109,16.982 205.588,24.970 M 205.588,24.970 207.492,23.107 M 225.508,19.569 231.771,25.436 M 259.725,16.021 264.924,21.046 M 264.924,21.046 275.547,0.000 M 100.241,16.109 104.347,23.939 M 117.070,19.784 125.606,18.783 M 124.656,7.389 125.606,18.783 M 125.606,18.783 125.696,18.836 M 125.696,18.836 150.862,7.297 M 335.150,16.897 340.229,27.057 M 264.924,21.046 265.282,21.521 M 265.282,21.521 271.325,21.072 M 90.692,26.944 104.347,23.939 M 74.966,23.860 79.926,0.000 M 74.966,23.860 86.532,24.051 M 285.331,10.195 293.376,24.625 M 293.376,24.625 303.281,14.270 M 86.532,24.051 90.221,26.962 M 90.221,26.962 90.692,26.944 M 303.281,14.270 310.174,28.477 M 310.174,28.477 316.528,16.648 M 340.229,27.057 348.095,25.702 M 345.601,15.110 348.095,25.702 M 241.982,26.757 245.942,19.587 M 90.692,26.944 97.198,34.773 M 58.296,12.599 63.402,23.573 M 231.771,25.436 241.473,27.119 M 241.473,27.119 241.982,26.757 M 104.347,23.939 107.908,25.344 M 107.908,25.344 117.070,19.784 M 335.736,29.889 340.229,27.057 M 271.325,21.072 283.808,29.280 M 316.528,16.648 326.908,28.841 M 326.908,28.841 331.196,14.660 M 335.736,29.889 339.500,36.303 M 283.808,29.280 285.363,29.572 M 331.301,30.645 335.736,29.889 M 326.908,28.841 327.063,29.561 M 327.063,29.561 331.301,30.645 M 285.363,29.572 293.020,27.522 M 293.020,27.522 293.376,24.625 M 97.198,34.773 107.827,30.181 M 107.827,30.181 107.908,25.344 M 63.402,23.573 70.459,26.533 M 70.459,26.533 74.966,23.860 M 309.606,31.120 310.174,28.477 M 309.606,31.120 323.519,32.484 M 323.519,32.484 327.063,29.561 M 150.862,7.297 158.723,25.010 M 158.723,25.010 173.009,12.099 M 283.731,38.116 285.363,29.572 M 348.095,25.702 354.465,29.122 M 257.137,34.548 258.844,32.844 M 241.982,26.757 258.844,32.844 M 349.901,35.461 354.465,29.122 M 0.042,29.108 9.605,13.011 M 339.500,36.303 345.089,38.569 M 345.089,38.569 349.901,35.461 M 125.696,18.836 131.089,29.801 M 258.844,32.844 262.544,31.527 M 262.544,31.527 265.282,21.521 M 0.042,29.108 2.831,32.175 M 178.217,31.257 183.867,22.781 M 168.705,30.947 178.217,31.257 M 243.302,38.538 257.137,34.548 M 241.473,27.119 241.995,37.924 M 241.995,37.924 243.302,38.538 M 2.831,32.175 17.865,36.635 M 17.865,36.635 23.826,15.241 M 158.723,25.010 159.163,29.146 M 159.163,29.146 168.705,30.947 M 283.731,38.116 287.076,43.684 M 47.194,35.001 63.402,23.573 M 293.020,27.522 300.858,35.448 M 168.705,30.947 171.818,46.490 M 300.858,35.448 302.858,35.947 M 302.858,35.947 309.606,31.120 M 131.089,29.801 152.007,33.908 M 302.858,35.947 304.406,38.621 M 35.748,18.505 41.507,34.903 M 41.507,34.903 47.194,35.001 M 2.326,44.763 2.831,32.175 M 178.217,31.257 184.738,39.376 M 184.738,39.376 193.150,40.560 M 152.007,33.908 155.407,33.485 M 155.407,33.485 159.163,29.146 M 2.326,44.763 2.702,45.260 M 252.177,45.794 257.137,34.548 M 287.076,43.684 292.137,45.110 M 292.137,45.110 300.858,35.448 M 205.588,24.970 205.746,37.469 M 205.746,37.469 221.031,26.595 M 193.150,40.560 196.615,40.551 M 243.302,38.538 249.763,46.061 M 249.763,46.061 252.177,45.794 M 262.544,31.527 268.937,41.542 M 268.937,41.542 283.808,29.280 M 196.615,40.551 202.963,38.544 M 189.095,21.532 202.963,38.544 M 47.194,35.001 57.118,44.506 M 202.963,38.544 205.511,38.279 M 205.511,38.279 205.746,37.469 M 221.031,26.595 224.406,42.681 M 349.901,35.461 350.163,47.780 M 332.948,46.479 334.754,46.156 M 331.301,30.645 334.754,46.156 M 125.735,42.427 131.089,29.801 M 322.113,45.409 323.519,32.484 M 322.113,45.409 332.948,46.479 M 205.511,38.279 207.273,40.154 M 207.273,40.154 224.406,42.681 M 107.827,30.181 109.477,42.359 M 334.754,46.156 336.313,46.642 M 336.313,46.642 339.500,36.303 M 224.406,42.681 226.415,43.471 M 226.415,43.471 226.868,43.488 M 226.868,43.488 231.771,25.436 M 232.688,44.871 241.995,37.924 M 125.735,42.427 138.049,48.809 M 138.049,48.809 152.007,33.908 M 340.704,47.718 345.089,38.569 M 304.406,38.621 320.411,46.878 M 320.411,46.878 322.113,45.409 M 336.313,46.642 338.161,47.736 M 338.161,47.736 340.704,47.718 M 109.477,42.359 122.902,44.482 M 122.902,44.482 125.735,42.427 M 226.868,43.488 230.112,45.216 M 230.112,45.216 232.688,44.871 M 17.865,36.635 22.699,43.403 M 171.818,46.490 180.582,49.263 M 180.582,49.263 184.738,39.376 M 207.273,40.154 207.912,48.663 M 304.406,38.621 304.758,51.327 M 340.704,47.718 347.197,50.854 M 347.197,50.854 350.163,47.780 M 2.702,45.260 14.196,50.207 M 14.196,50.207 22.699,43.403 M 189.490,55.252 193.150,40.560 M 189.490,55.252 190.134,55.453 M 263.034,50.370 270.200,46.847 M 268.937,41.542 270.200,46.847 M 270.200,46.847 270.995,47.348 M 270.995,47.348 283.731,38.116 M 252.177,45.794 260.891,51.253 M 260.891,51.253 263.034,50.370 M 232.688,44.871 244.645,53.091 M 244.645,53.091 249.763,46.061 M 207.912,48.663 218.839,55.508 M 218.839,55.508 226.415,43.471 M 190.134,55.453 195.224,55.715 M 195.224,55.715 196.615,40.551 M 163.335,52.088 171.818,46.490 M 270.995,47.348 273.854,50.244 M 273.854,50.244 287.076,43.684 M 122.902,44.482 123.371,53.522 M 155.407,33.485 157.680,49.837 M 157.680,49.837 163.335,52.088 M 22.699,43.403 32.546,45.818 M 32.546,45.818 32.859,45.766 M 32.859,45.766 41.507,34.903 M 335.660,57.814 338.161,47.736 M 218.839,55.508 219.061,57.768 M 205.704,57.227 207.912,48.663 M 195.224,55.715 198.299,58.860 M 154.027,54.943 157.680,49.837 M 296.576,57.182 304.758,51.327 M 180.009,55.758 180.582,49.263 M 180.009,55.758 189.490,55.252 M 93.690,50.512 97.198,34.773 M 121.491,58.272 123.371,53.522 M 291.409,56.451 292.137,45.110 M 291.409,56.451 296.576,57.182 M 93.690,50.512 98.982,51.528 M 98.982,51.528 109.477,42.359 M 57.118,44.506 74.079,49.039 M 70.459,26.533 74.079,49.039 M 86.806,50.050 90.221,26.962 M 86.806,50.050 93.690,50.512 M 11.050,58.268 14.196,50.207 M 198.299,58.860 202.597,59.637 M 202.597,59.637 205.704,57.227 M 288.960,57.626 289.544,57.530 M 289.544,57.530 291.409,56.451 M 273.854,50.244 277.333,56.334 M 277.333,56.334 288.960,57.626 M 205.704,57.227 215.209,62.553 M 215.209,62.553 219.061,57.768 M 138.049,48.809 141.223,58.624 M 141.223,58.624 154.027,54.943 M 48.301,59.496 54.507,59.073 M 46.976,58.839 57.118,44.506 M 46.976,58.839 48.301,59.496 M 219.061,57.768 230.892,60.798 M 230.112,45.216 230.892,60.798 M 244.645,53.091 245.665,60.076 M 123.371,53.522 140.514,59.655 M 140.514,59.655 141.223,58.624 M 32.859,45.766 43.495,58.559 M 43.495,58.559 46.976,58.839 M 190.134,55.453 191.080,65.171 M 191.080,65.171 198.299,58.860 M 255.217,61.346 260.891,51.253 M 79.986,52.103 86.806,50.050 M 304.758,51.327 317.623,58.911 M 317.623,58.911 320.411,46.878 M 0.636,61.204 2.702,45.260 M 0.636,61.204 11.050,58.268 M 79.986,52.103 92.494,69.215 M 230.892,60.798 231.843,62.621 M 231.843,62.621 245.665,60.076 M 74.079,49.039 76.739,52.672 M 76.739,52.672 79.986,52.103 M 296.576,57.182 303.895,66.128 M 354.465,29.122 356.729,29.108 M 352.158,5.518 356.729,7.934 M 245.665,60.076 250.069,63.344 M 250.069,63.344 255.217,61.346 M 54.507,59.073 75.458,55.337 M 75.458,55.337 76.739,52.672 M 163.335,52.088 176.285,61.967 M 176.285,61.967 180.009,55.758 M 230.739,65.985 231.843,62.621 M 255.217,61.346 267.477,67.812 M 263.034,50.370 267.477,67.812 M 335.660,57.814 351.985,63.324 M 347.197,50.854 351.985,63.324 M 188.657,68.292 191.080,65.171 M 176.285,61.967 176.390,63.852 M 334.020,68.875 352.509,64.073 M 351.985,63.324 352.509,64.073 M 267.477,67.812 268.894,68.688 M 352.509,64.073 353.872,64.954 M 303.895,66.128 319.041,64.418 M 317.623,58.911 319.041,64.418 M 92.494,69.215 102.455,69.798 M 0.000,61.614 0.636,61.204 M 11.050,58.268 21.255,68.715 M 21.255,68.715 22.129,68.718 M 22.129,68.718 32.546,45.818 M 299.201,72.827 303.895,66.128 M 102.455,69.798 107.532,66.248 M 98.982,51.528 107.532,66.248 M 176.390,63.852 179.695,68.026 M 179.695,68.026 188.657,68.292 M 268.894,68.688 271.997,69.194 M 271.997,69.194 277.333,56.334 M 350.163,47.780 356.729,45.552 M 107.532,66.248 110.582,67.647 M 110.582,67.647 121.491,58.272 M 289.544,57.530 294.495,73.970 M 294.495,73.970 299.201,72.827 M 319.041,64.418 321.172,66.560 M 299.201,72.827 303.715,77.582 M 303.715,77.582 321.172,66.560 M 324.001,67.251 332.948,46.479 M 324.001,67.251 335.660,57.814 M 154.027,54.943 158.962,71.658 M 158.962,71.658 176.390,63.852 M 37.273,72.131 43.495,58.559 M 158.653,72.227 158.962,71.658 M 121.491,58.272 137.615,70.499 M 137.615,70.499 140.514,59.655 M 215.209,62.553 217.100,72.683 M 217.100,72.683 230.739,65.985 M 321.172,66.560 322.787,67.862 M 322.787,67.862 323.333,67.957 M 323.333,67.957 324.001,67.251 M 323.333,67.957 323.560,68.122 M 323.560,68.122 334.020,68.875 M 73.466,68.951 75.458,55.337 M 22.129,68.718 30.083,74.185 M 30.083,74.185 37.273,72.131 M 179.095,77.540 179.695,68.026 M 73.466,68.951 83.628,77.835 M 83.628,77.835 92.494,69.215 M 137.615,70.499 137.707,73.810 M 0.000,69.723 9.130,78.367 M 9.130,78.367 21.255,68.715 M 334.020,68.875 345.748,80.407 M 345.748,80.407 353.872,64.954 M 9.121,78.615 9.130,78.367 M 177.728,80.462 179.095,77.540 M 54.507,59.073 64.291,76.717 M 64.291,76.717 73.466,68.951 M 128.606,78.317 137.707,73.810 M 28.861,82.647 30.083,74.185 M 158.653,72.227 169.735,83.798 M 169.735,83.798 177.728,80.462 M 169.672,83.927 169.735,83.798 M 128.606,78.317 131.936,87.851 M 188.657,68.292 203.417,78.295 M 202.597,59.637 203.417,78.295 M 177.728,80.462 180.806,86.334 M 131.936,87.851 134.173,90.432 M 83.628,77.835 86.657,82.016 M 137.707,73.810 147.521,79.407 M 147.521,79.407 158.653,72.227 M 9.121,78.615 10.526,84.112 M 110.582,67.647 118.318,79.936 M 118.318,79.936 128.606,78.317 M 91.523,84.176 102.455,69.798 M 91.523,84.176 100.195,86.944 M 24.484,87.787 28.861,82.647 M 10.526,84.112 11.275,86.035 M 11.275,86.035 24.484,87.787 M 248.257,81.376 250.069,63.344 M 248.257,81.376 268.894,68.688 M 86.657,82.016 89.767,84.603 M 89.767,84.603 91.523,84.176 M 48.301,59.496 59.562,81.146 M 59.562,81.146 64.291,76.717 M 100.195,86.944 117.008,82.926 M 117.008,82.926 118.318,79.936 M 248.007,82.056 248.257,81.376 M 117.008,82.926 117.048,84.077 M 89.308,86.680 89.767,84.603 M 155.238,89.337 169.672,83.927 M 283.923,82.941 294.495,73.970 M 243.966,83.618 248.007,82.056 M 58.762,82.623 59.562,81.146 M 344.465,86.869 345.748,80.407 M 230.739,65.985 241.068,83.999 M 241.068,83.999 243.966,83.618 M 84.883,92.554 89.308,86.680 M 281.389,83.261 288.960,57.626 M 281.389,83.261 283.923,82.941 M 37.273,72.131 53.827,84.488 M 53.827,84.488 58.762,82.623 M 283.923,82.941 301.270,90.811 M 323.560,68.122 334.661,88.486 M 147.521,79.407 149.506,88.178 M 149.506,88.178 155.238,89.337 M 271.997,69.194 279.464,83.836 M 279.464,83.836 281.389,83.261 M 334.661,88.486 336.544,89.005 M 58.762,82.623 66.544,91.314 M 89.308,86.680 94.356,97.529 M 336.544,89.005 343.586,88.718 M 343.586,88.718 344.465,86.869 M 60.456,100.947 66.544,91.314 M 66.544,91.314 67.682,92.205 M 67.682,92.205 86.657,82.016 M 343.586,88.718 344.475,89.712 M 20.629,96.611 25.970,95.254 M 24.484,87.787 25.970,95.254 M 301.270,90.811 303.818,91.558 M 210.760,84.490 217.100,72.683 M 134.173,90.432 147.887,92.304 M 147.887,92.304 149.506,88.178 M 84.722,99.508 84.883,92.554 M 133.776,98.352 134.173,90.432 M 203.417,78.295 207.292,84.738 M 207.292,84.738 210.760,84.490 M 179.095,77.540 205.784,85.996 M 205.784,85.996 207.292,84.738 M 303.715,77.582 309.666,91.009 M 309.666,91.009 322.787,67.862 M 303.818,91.558 309.658,91.058 M 309.658,91.058 309.666,91.009 M 67.682,92.205 70.437,95.900 M 70.437,95.900 84.883,92.554 M 84.722,99.508 86.179,101.688 M 86.179,101.688 94.356,97.529 M 7.703,96.148 11.275,86.035 M 7.703,96.148 20.629,96.611 M 155.238,89.337 167.556,98.055 M 230.421,90.997 241.068,83.999 M 133.776,98.352 147.175,95.583 M 147.175,95.583 147.887,92.304 M 25.970,95.254 28.431,98.664 M 7.432,96.551 7.703,96.148 M 70.437,95.900 71.013,98.729 M 28.861,82.647 46.148,94.219 M 46.148,94.219 53.827,84.488 M 100.195,86.944 103.664,100.171 M 103.664,100.171 117.048,84.077 M 59.944,104.662 60.456,100.947 M 71.013,98.729 75.071,102.420 M 75.071,102.420 84.722,99.508 M 45.794,95.318 46.148,94.219 M 45.794,95.318 60.456,100.947 M 59.944,104.662 67.381,103.829 M 67.381,103.829 71.013,98.729 M 167.556,98.055 169.773,99.090 M 169.672,83.927 169.773,99.090 M 210.760,84.490 224.954,92.501 M 224.954,92.501 230.421,90.997 M 147.175,95.583 148.216,99.684 M 148.216,99.684 148.778,100.360 M 148.778,100.360 167.556,98.055 M 169.773,99.090 170.095,99.568 M 170.095,99.568 180.806,86.334 M 344.465,86.869 356.729,82.135 M 353.872,64.954 356.729,65.020 M 117.048,84.077 122.059,100.567 M 127.442,101.863 131.936,87.851 M 127.442,101.863 133.776,98.352 M 127.276,101.994 127.442,101.863 M 309.658,91.058 315.840,98.020 M 315.840,98.020 334.661,88.486 M 122.059,100.567 125.720,102.175 M 125.720,102.175 127.276,101.994 M 28.431,98.664 44.120,99.618 M 44.120,99.618 45.794,95.318 M 127.276,101.994 137.574,109.427 M 137.574,109.427 148.216,99.684 M 248.007,82.056 271.774,95.488 M 271.774,95.488 279.464,83.836 M 333.832,108.121 336.544,89.005 M 7.432,96.551 14.742,107.367 M 14.742,107.367 20.629,96.611 M 180.806,86.334 194.750,99.495 M 194.750,99.495 205.784,85.996 M 0.000,45.552 2.326,44.763 M 94.356,97.529 102.505,105.905 M 102.505,105.905 103.664,100.171 M 315.840,98.020 316.342,103.988 M 304.086,110.390 314.548,105.636 M 314.548,105.636 316.342,103.988 M 53.360,109.572 59.944,104.662 M 148.778,100.360 154.278,109.545 M 316.342,103.988 320.703,107.565 M 320.703,107.565 333.832,108.121 M 137.574,109.427 138.372,113.804 M 291.864,110.030 303.818,91.558 M 291.864,110.030 304.086,110.390 M 44.120,99.618 45.873,107.853 M 45.873,107.853 53.360,109.572 M 290.550,110.499 291.864,110.030 M 21.182,111.599 28.431,98.664 M 14.742,107.367 17.095,111.914 M 280.544,107.846 301.270,90.811 M 280.544,107.846 290.550,110.499 M 223.785,110.754 224.954,92.501 M 138.372,113.804 149.694,116.102 M 149.694,116.102 154.278,109.545 M 17.095,111.914 17.602,112.569 M 17.602,112.569 21.182,111.599 M 320.703,107.565 323.409,118.337 M 304.086,110.390 304.584,121.237 M 221.534,113.294 223.785,110.754 M 102.505,105.905 103.669,111.356 M 103.669,111.356 122.059,100.567 M 290.550,110.499 294.686,120.828 M 294.686,120.828 295.444,121.370 M 295.444,121.370 304.584,121.237 M 0.000,82.135 9.121,78.615 M 0.000,86.700 10.526,84.112 M 271.774,95.488 272.135,106.393 M 272.135,106.393 280.544,107.846 M 154.278,109.545 174.018,111.023 M 174.018,111.023 174.783,110.652 M 170.095,99.568 174.783,110.652 M 14.946,117.818 17.602,112.569 M 295.444,121.370 297.017,125.631 M 53.360,109.572 66.040,118.543 M 66.040,118.543 67.381,103.829 M 191.265,109.335 194.750,99.495 M 323.409,118.337 331.629,123.035 M 174.783,110.652 181.893,111.759 M 181.893,111.759 191.265,109.335 M 66.040,118.543 66.491,119.201 M 0.000,98.435 7.432,96.551 M 0.000,108.370 17.095,111.914 M 57.988,125.100 66.491,119.201 M 132.059,122.195 138.372,113.804 M 214.912,118.442 221.534,113.294 M 21.182,111.599 39.814,118.675 M 39.814,118.675 45.873,107.853 M 243.966,83.618 251.922,115.666 M 230.421,90.997 251.580,115.786 M 251.580,115.786 251.922,115.666 M 304.584,121.237 310.153,125.923 M 310.153,125.923 314.548,105.636 M 223.785,110.754 248.351,118.069 M 248.351,118.069 251.580,115.786 M 191.265,109.335 200.766,117.857 M 200.766,117.857 214.912,118.442 M 57.988,125.100 59.156,132.639 M 251.922,115.666 267.138,113.645 M 267.138,113.645 272.135,106.393 M 46.325,126.658 57.988,125.100 M 180.610,129.801 181.893,111.759 M 39.814,118.675 40.258,123.379 M 40.258,123.379 46.325,126.658 M 66.491,119.201 75.005,122.631 M 125.709,124.777 125.720,102.175 M 125.709,124.777 125.714,124.780 M 132.059,122.195 150.401,127.594 M 149.694,116.102 150.401,127.594 M 125.714,124.780 125.958,124.929 M 125.958,124.929 132.059,122.195 M 150.401,127.594 150.489,127.749 M 100.884,118.884 103.669,111.356 M 100.884,118.884 125.709,124.777 M 344.475,89.712 356.729,106.284 M 0.947,125.370 14.946,117.818 M 244.436,126.409 248.351,118.069 M 65.762,134.759 75.005,122.631 M 59.156,132.639 62.560,135.705 M 62.560,135.705 65.762,134.759 M 333.832,108.121 351.835,119.333 M 351.835,119.333 356.729,116.473 M 331.629,123.035 350.239,121.350 M 350.239,121.350 351.835,119.333 M 46.325,126.658 50.938,135.756 M 50.938,135.756 59.156,132.639 M 75.005,122.631 83.758,122.734 M 75.071,102.420 83.758,122.734 M 221.534,113.294 236.494,131.585 M 236.494,131.585 244.436,126.409 M 267.138,113.645 271.199,125.909 M 83.758,122.734 85.514,123.299 M 86.179,101.688 91.126,122.437 M 328.710,135.311 348.840,126.119 M 348.840,126.119 350.239,121.350 M 85.514,123.299 88.891,123.006 M 88.891,123.006 91.126,122.437 M 125.958,124.929 128.037,132.433 M 91.126,122.437 96.237,122.301 M 96.237,122.301 100.884,118.884 M 348.602,127.980 348.840,126.119 M 310.153,125.923 312.522,131.594 M 312.522,131.594 323.409,118.337 M 271.199,125.909 283.538,133.340 M 283.538,133.340 294.686,120.828 M 328.710,135.311 337.661,139.931 M 337.661,139.931 348.602,127.980 M 322.908,135.744 331.629,123.035 M 322.908,135.744 328.710,135.311 M 159.524,132.689 174.018,111.023 M 150.489,127.749 159.161,132.745 M 159.161,132.745 159.524,132.689 M 180.610,129.801 186.431,138.546 M 348.602,127.980 350.571,137.632 M 244.436,126.409 251.473,139.935 M 110.437,140.187 125.714,124.780 M 159.524,132.689 167.897,138.048 M 167.897,138.048 180.610,129.801 M 110.437,140.187 118.361,141.946 M 118.361,141.946 128.037,132.433 M 31.193,134.689 40.258,123.379 M 31.193,134.689 33.723,137.161 M 77.926,140.634 85.514,123.299 M 77.926,140.634 79.024,142.319 M 0.947,125.370 13.634,139.090 M 297.017,125.631 306.420,136.410 M 167.897,138.048 169.139,140.237 M 169.139,140.237 179.470,143.357 M 179.470,143.357 186.431,138.546 M 79.024,142.319 88.589,145.784 M 88.589,145.784 88.891,123.006 M 306.420,136.410 312.422,134.938 M 312.422,134.938 312.522,131.594 M 154.785,141.237 159.161,132.745 M 14.946,117.818 26.999,136.023 M 26.999,136.023 31.193,134.689 M 283.538,133.340 287.708,138.457 M 287.708,138.457 297.017,125.631 M 168.664,144.425 169.139,140.237 M 128.037,132.433 135.354,140.128 M 135.354,140.128 150.489,127.749 M 33.723,137.161 38.320,147.133 M 67.054,145.110 70.700,144.516 M 65.762,134.759 70.700,144.516 M 150.367,144.632 154.785,141.237 M 70.700,144.516 71.326,144.722 M 71.326,144.722 77.926,140.634 M 154.785,141.237 158.956,148.617 M 158.956,148.617 168.664,144.425 M 13.634,139.090 24.160,138.981 M 24.160,138.981 26.999,136.023 M 96.237,122.301 103.981,139.964 M 103.981,139.964 110.437,140.187 M 135.354,140.128 135.654,141.403 M 135.654,141.403 150.367,144.632 M 251.473,139.935 264.082,141.686 M 264.082,141.686 264.397,141.574 M 264.397,141.574 271.199,125.909 M 312.422,134.938 317.660,138.872 M 317.660,138.872 322.908,135.744 M 118.361,141.946 120.358,147.884 M 56.838,144.817 62.560,135.705 M 56.838,144.817 67.054,145.110 M 120.272,148.206 120.358,147.884 M 33.723,137.161 51.987,144.265 M 50.938,135.756 51.987,144.265 M 120.358,147.884 134.798,144.657 M 134.798,144.657 135.654,141.403 M 55.921,145.283 56.838,144.817 M 51.987,144.265 52.379,144.958 M 52.379,144.958 55.921,145.283 M 186.431,138.546 198.534,141.148 M 198.534,141.148 200.766,117.857 M 334.520,147.572 337.661,139.931 M 79.024,142.319 82.937,150.672 M 334.520,147.572 335.839,149.146 M 335.839,149.146 350.571,137.632 M 317.660,138.872 319.679,144.189 M 319.679,144.189 334.520,147.572 M 24.160,138.981 24.469,148.698 M 264.397,141.574 271.228,149.556 M 198.534,141.148 199.798,143.396 M 335.839,149.146 336.627,150.325 M 287.708,138.457 291.117,143.876 M 291.117,143.876 292.908,144.136 M 292.908,144.136 306.420,136.410 M 271.228,149.556 289.814,145.075 M 289.814,145.075 291.117,143.876 M 336.627,150.325 353.693,148.056 M 350.571,137.632 353.693,148.056 M 344.475,89.712 356.729,86.700 M 38.320,147.133 47.793,150.975 M 47.793,150.975 52.379,144.958 M 102.783,148.237 103.981,139.964 M 158.956,148.617 160.355,154.022 M 353.693,148.056 354.890,149.387 M 286.487,153.603 289.814,145.075 M 214.912,118.442 225.409,143.169 M 225.409,143.169 236.494,131.585 M 82.937,150.672 90.070,152.791 M 88.589,145.784 90.070,152.791 M 90.070,152.791 91.121,153.692 M 91.121,153.692 102.783,148.237 M 71.326,144.722 73.088,155.437 M 73.088,155.437 82.937,150.672 M 255.143,155.770 264.082,141.686 M 24.469,148.698 32.232,155.972 M 32.232,155.972 38.320,147.133 M 336.627,150.325 336.629,156.287 M 149.119,156.033 150.367,144.632 M 149.119,156.033 160.355,154.022 M 46.726,155.969 47.793,150.975 M 354.890,149.387 356.729,150.266 M 2.448,152.220 13.634,139.090 M 102.783,148.237 108.461,155.095 M 336.629,156.287 345.212,159.613 M 345.212,159.613 354.890,149.387 M 55.921,145.283 63.190,157.639 M 63.190,157.639 67.054,145.110 M 115.153,156.308 120.272,148.206 M 285.615,159.912 286.487,153.603 M 199.798,143.396 224.541,147.004 M 224.541,147.004 225.409,143.169 M 270.857,158.187 271.228,149.556 M 270.857,158.187 286.487,153.603 M 108.461,155.095 110.330,157.133 M 110.330,157.133 115.153,156.308 M 32.232,155.972 33.647,158.984 M 33.647,158.984 46.726,155.969 M 46.726,155.969 49.596,160.728 M 13.982,159.147 24.469,148.698 M 120.272,148.206 134.437,158.167 M 134.437,158.167 135.730,157.627 M 134.798,144.657 135.730,157.627 M 160.355,154.022 169.025,158.189 M 168.664,144.425 169.025,158.189 M 2.448,152.220 13.468,159.389 M 13.468,159.389 13.982,159.147 M 32.729,162.082 33.647,158.984 M 13.982,159.147 31.406,163.808 M 31.406,163.808 32.729,162.082 M 115.153,156.308 127.276,162.558 M 127.276,162.558 134.437,158.167 M 255.143,155.770 269.890,162.284 M 269.890,162.284 270.857,158.187 M 32.729,162.082 37.815,164.938 M 46.420,164.938 49.596,160.728 M 135.730,157.627 144.360,161.695 M 144.360,161.695 149.119,156.033 M 89.059,164.938 91.121,153.692 M 90.099,164.938 108.461,155.095 M 191.412,161.778 199.798,143.396 M 235.756,161.459 251.473,139.935 M 235.756,161.459 255.143,155.770 M 63.190,157.639 66.332,164.938 M 69.428,164.938 73.088,155.437 M 49.596,160.728 58.717,164.938 M 269.890,162.284 270.632,164.938 M 280.519,164.938 285.615,159.912 M 224.541,147.004 232.391,163.641 M 232.391,163.641 235.756,161.459 M 345.212,159.613 346.764,164.938 M 354.766,164.938 356.729,160.784 M 191.412,161.778 229.083,164.938 M 232.234,164.938 232.391,163.641 M 179.470,143.357 181.325,164.938 M 188.107,164.938 191.412,161.778 M 292.908,144.136 306.580,164.938 M 314.748,164.938 319.679,144.189 M 285.615,159.912 294.994,164.938 M 169.025,158.189 173.531,164.938 M 330.111,164.938 336.629,156.287 M 0.000,125.334 0.947,125.370 M 144.360,161.695 145.825,164.938 M 13.438,164.938 13.468,159.389 M 31.126,164.938 31.406,163.808 M 108.085,164.938 110.330,157.133 M 126.638,164.938 127.276,162.558 M 0.000,152.246 2.448,152.220 M 0.000,7.934 9.605,13.011 M 0.000,29.108 0.042,29.108 M 352.158,5.518 354.766,0.000 "
         style="stroke:#000000;stroke-width:1.0"
         id="path5306" />
    </pattern>
  </defs>
  <g
     inkscape:groupmode="layer"
     inkscape:label="0"
     id="g1310"
     transform="translate(0.462205,-1112.19)"
     style="display:none">
    <path
       style="fill:none;stroke:#0000ff;stroke-width:0.755906;stroke-linecap:round;stroke-miterlimit:4;stroke-dasharray:none;stroke-opacity:1"
       d="M 95.9327,1538.27 V 1122.52"
       id="path1494" />
    <rect
       style="fill:none;stroke:#000000;stroke-width:0.755906;stroke-miterlimit:4;stroke-dasharray:none;paint-order:markers fill stroke;stop-color:#000000"
       id="rect682"
       width="52.913387"
       height="415.75"
       x="69.476006"
       y="1122.52" />
    <path
       style="fill:none;stroke:#0000ff;stroke-width:0.755906;stroke-linecap:round;stroke-miterlimit:4;stroke-dasharray:none;stroke-opacity:1"
       d="M 1055.26,1538.27 V 1122.52"
       id="path1484" />
    <path
       style="fill:none;stroke:#0000ff;stroke-width:0.755906;stroke-linecap:round;stroke-miterlimit:4;stroke-dasharray:none;stroke-opacity:1"
       d="M 863.395,1538.27 V 1122.52"
       id="path1486" />
    <path
       style="fill:none;stroke:#0000ff;stroke-width:0.755906;stroke-linecap:round;stroke-miterlimit:4;stroke-dasharray:none;stroke-opacity:1"
       d="M 671.528,1538.27 V 1122.52"
       id="path1488" />
    <path
       style="fill:none;stroke:#0000ff;stroke-width:0.755906;stroke-linecap:round;stroke-miterlimit:4;stroke-dasharray:none;stroke-opacity:1"
       d="M 479.664,1538.27 V 1122.52"
       id="path1490" />
    <path
       style="fill:none;stroke:#0000ff;stroke-width:0.755906;stroke-linecap:round;stroke-miterlimit:4;stroke-dasharray:none;stroke-opacity:1"
       d="M 287.798,1538.27 V 1122.52"
       id="path1492" />
    <rect
       style="display:inline;fill:none;stroke:#000000;stroke-width:0.755906;stroke-miterlimit:4;stroke-dasharray:none;paint-order:markers fill stroke;stop-color:#000000"
       id="rect682-3"
       width="52.913387"
       height="415.75"
       x="261.34131"
       y="1122.52" />
    <rect
       style="display:inline;fill:none;stroke:#000000;stroke-width:0.755906;stroke-miterlimit:4;stroke-dasharray:none;paint-order:markers fill stroke;stop-color:#000000"
       id="rect682-6"
       width="52.913387"
       height="415.75"
       x="453.20731"
       y="1122.52" />
    <rect
       style="display:inline;fill:none;stroke:#000000;stroke-width:0.755906;stroke-miterlimit:4;stroke-dasharray:none;paint-order:markers fill stroke;stop-color:#000000"
       id="rect682-7"
       width="52.913387"
       height="415.75"
       x="645.07129"
       y="1122.52" />
    <rect
       style="display:inline;fill:none;stroke:#000000;stroke-width:0.755906;stroke-miterlimit:4;stroke-dasharray:none;paint-order:markers fill stroke;stop-color:#000000"
       id="rect682-5"
       width="52.913387"
       height="415.75"
       x="836.93829"
       y="1122.52" />
    <rect
       style="display:inline;fill:none;stroke:#000000;stroke-width:0.755906;stroke-miterlimit:4;stroke-dasharray:none;paint-order:markers fill stroke;stop-color:#000000"
       id="rect682-35"
       width="52.913387"
       height="415.75"
       x="1028.8033"
       y="1122.52" />
  </g>
  <g
     inkscape:groupmode="layer"
     inkscape:label="Sketch050"
     id="g1496"
     transform="translate(0.462205, -1112.19)"
     style="display:inline">
    <path
       style="fill:none;stroke:#0000ff;stroke-width:0.755906;stroke-linecap:round;stroke-miterlimit:4;stroke-dasharray:none;stroke-opacity:1"
       d="m 1120.95,1122.52 v 15.12"
       id="path1312" />
    <path
       d="m 1120.955,1137.6378 a 15.11811,15.11811 0 0 0 15.1181,15.1181"
       style="fill:none;stroke:#0000ff;stroke-width:0.755906;stroke-linecap:round;stroke-miterlimit:4;stroke-dasharray:none;stroke-opacity:1"
       id="path1314" />
    <path
       style="fill:none;stroke:#0000ff;stroke-width:0.755906;stroke-linecap:round;stroke-miterlimit:4;stroke-dasharray:none;stroke-opacity:1"
       d="m 1151.19,1152.76 h -15.12"
       id="path1316" />
    <path
       style="fill:none;stroke:#0000ff;stroke-width:0.755906;stroke-linecap:round;stroke-miterlimit:4;stroke-dasharray:none;stroke-opacity:1"
       d="m 1151.19,1152.76 v 64.25"
       id="path1318" />
    <path
       style="fill:none;stroke:#0000ff;stroke-width:0.755906;stroke-linecap:round;stroke-miterlimit:4;stroke-dasharray:none;stroke-opacity:1"
       d="m 1151.19,1217.01 h -18.9"
       id="path1320" />
    <path
       style="fill:none;stroke:#0000ff;stroke-width:0.755906;stroke-linecap:round;stroke-miterlimit:4;stroke-dasharray:none;stroke-opacity:1"
       d="m 1132.29,1217.01 v 9.82"
       id="path1322" />
    <path
       style="fill:none;stroke:#0000ff;stroke-width:0.755906;stroke-linecap:round;stroke-miterlimit:4;stroke-dasharray:none;stroke-opacity:1"
       d="m 1132.29,1226.83 h 18.9"
       id="path1324" />
    <path
       style="fill:none;stroke:#0000ff;stroke-width:0.755906;stroke-linecap:round;stroke-miterlimit:4;stroke-dasharray:none;stroke-opacity:1"
       d="m 1151.19,1226.83 v 311.44"
       id="path1326" />
    <path
       style="fill:none;stroke:#0000ff;stroke-width:0.755906;stroke-linecap:round;stroke-miterlimit:4;stroke-dasharray:none;stroke-opacity:1"
       d="m 1151.19,1538.27 h -1.51"
       id="path1328" />
    <path
       style="fill:none;stroke:#0000ff;stroke-width:0.755906;stroke-linecap:round;stroke-miterlimit:4;stroke-dasharray:none;stroke-opacity:1"
       d="m 1149.68,1538.27 v 9.82"
       id="path1330" />
    <path
       style="fill:none;stroke:#0000ff;stroke-width:0.755906;stroke-linecap:round;stroke-miterlimit:4;stroke-dasharray:none;stroke-opacity:1"
       d="m 1149.68,1548.09 h -17.39"
       id="path1332" />
    <path
       style="fill:none;stroke:#0000ff;stroke-width:0.755906;stroke-linecap:round;stroke-miterlimit:4;stroke-dasharray:none;stroke-opacity:1"
       d="m 1132.29,1538.27 v 9.82"
       id="path1334" />
    <path
       style="fill:none;stroke:#0000ff;stroke-width:0.755906;stroke-linecap:round;stroke-miterlimit:4;stroke-dasharray:none;stroke-opacity:1"
       d="M 1132.29,1538.27 H 978.225"
       id="path1336" />
    <path
       style="fill:none;stroke:#0000ff;stroke-width:0.755906;stroke-linecap:round;stroke-miterlimit:4;stroke-dasharray:none;stroke-opacity:1"
       d="m 978.225,1538.27 v 9.82"
       id="path1338" />
    <path
       style="fill:none;stroke:#0000ff;stroke-width:0.755906;stroke-linecap:round;stroke-miterlimit:4;stroke-dasharray:none;stroke-opacity:1"
       d="M 978.225,1548.09 H 940.43"
       id="path1340" />
    <path
       style="fill:none;stroke:#0000ff;stroke-width:0.755906;stroke-linecap:round;stroke-miterlimit:4;stroke-dasharray:none;stroke-opacity:1"
       d="m 940.43,1538.27 v 9.82"
       id="path1342" />
    <path
       style="fill:none;stroke:#0000ff;stroke-width:0.755906;stroke-linecap:round;stroke-miterlimit:4;stroke-dasharray:none;stroke-opacity:1"
       d="M 940.43,1538.27 H 786.357"
       id="path1344" />
    <path
       style="fill:none;stroke:#0000ff;stroke-width:0.755906;stroke-linecap:round;stroke-miterlimit:4;stroke-dasharray:none;stroke-opacity:1"
       d="m 786.357,1538.27 v 9.82"
       id="path1346" />
    <path
       style="fill:none;stroke:#0000ff;stroke-width:0.755906;stroke-linecap:round;stroke-miterlimit:4;stroke-dasharray:none;stroke-opacity:1"
       d="m 748.562,1548.09 h 37.795"
       id="path1348" />
    <path
       style="fill:none;stroke:#0000ff;stroke-width:0.755906;stroke-linecap:round;stroke-miterlimit:4;stroke-dasharray:none;stroke-opacity:1"
       d="m 748.562,1538.27 v 9.82"
       id="path1350" />
    <path
       style="fill:none;stroke:#0000ff;stroke-width:0.755906;stroke-linecap:round;stroke-miterlimit:4;stroke-dasharray:none;stroke-opacity:1"
       d="M 748.562,1538.27 H 594.493"
       id="path1352" />
    <path
       style="fill:none;stroke:#0000ff;stroke-width:0.755906;stroke-linecap:round;stroke-miterlimit:4;stroke-dasharray:none;stroke-opacity:1"
       d="m 594.493,1538.27 v 9.82"
       id="path1354" />
    <path
       style="fill:none;stroke:#0000ff;stroke-width:0.755906;stroke-linecap:round;stroke-miterlimit:4;stroke-dasharray:none;stroke-opacity:1"
       d="m 556.698,1548.09 h 37.795"
       id="path1356" />
    <path
       style="fill:none;stroke:#0000ff;stroke-width:0.755906;stroke-linecap:round;stroke-miterlimit:4;stroke-dasharray:none;stroke-opacity:1"
       d="m 556.698,1538.27 v 9.82"
       id="path1358" />
    <path
       style="fill:none;stroke:#0000ff;stroke-width:0.755906;stroke-linecap:round;stroke-miterlimit:4;stroke-dasharray:none;stroke-opacity:1"
       d="M 556.698,1538.27 H 402.629"
       id="path1360" />
    <path
       style="fill:none;stroke:#0000ff;stroke-width:0.755906;stroke-linecap:round;stroke-miterlimit:4;stroke-dasharray:none;stroke-opacity:1"
       d="m 402.629,1538.27 v 9.82"
       id="path1362" />
    <path
       style="fill:none;stroke:#0000ff;stroke-width:0.755906;stroke-linecap:round;stroke-miterlimit:4;stroke-dasharray:none;stroke-opacity:1"
       d="M 402.629,1548.09 H 364.833"
       id="path1364" />
    <path
       style="fill:none;stroke:#0000ff;stroke-width:0.755906;stroke-linecap:round;stroke-miterlimit:4;stroke-dasharray:none;stroke-opacity:1"
       d="m 364.833,1538.27 v 9.82"
       id="path1366" />
    <path
       style="fill:none;stroke:#0000ff;stroke-width:0.755906;stroke-linecap:round;stroke-miterlimit:4;stroke-dasharray:none;stroke-opacity:1"
       d="M 364.833,1538.27 H 210.763"
       id="path1368" />
    <path
       style="fill:none;stroke:#0000ff;stroke-width:0.755906;stroke-linecap:round;stroke-miterlimit:4;stroke-dasharray:none;stroke-opacity:1"
       d="m 210.763,1538.27 v 9.82"
       id="path1370" />
    <path
       style="fill:none;stroke:#0000ff;stroke-width:0.755906;stroke-linecap:round;stroke-miterlimit:4;stroke-dasharray:none;stroke-opacity:1"
       d="m 172.967,1548.09 h 37.796"
       id="path1372" />
    <path
       style="fill:none;stroke:#0000ff;stroke-width:0.755906;stroke-linecap:round;stroke-miterlimit:4;stroke-dasharray:none;stroke-opacity:1"
       d="m 172.967,1538.27 v 9.82"
       id="path1374" />
    <path
       style="fill:none;stroke:#0000ff;stroke-width:0.755906;stroke-linecap:round;stroke-miterlimit:4;stroke-dasharray:none;stroke-opacity:1"
       d="M 172.967,1538.27 H 18.8976"
       id="path1376" />
    <path
       style="fill:none;stroke:#0000ff;stroke-width:0.755906;stroke-linecap:round;stroke-miterlimit:4;stroke-dasharray:none;stroke-opacity:1"
       d="m 18.8976,1538.27 v 9.82"
       id="path1378" />
    <path
       style="fill:none;stroke:#0000ff;stroke-width:0.755906;stroke-linecap:round;stroke-miterlimit:4;stroke-dasharray:none;stroke-opacity:1"
       d="M 1.51181,1548.09 H 18.8976"
       id="path1380" />
    <path
       style="fill:none;stroke:#0000ff;stroke-width:0.755906;stroke-linecap:round;stroke-miterlimit:4;stroke-dasharray:none;stroke-opacity:1"
       d="m 1.51181,1538.27 v 9.82"
       id="path1382" />
    <path
       style="fill:none;stroke:#0000ff;stroke-width:0.755906;stroke-linecap:round;stroke-miterlimit:4;stroke-dasharray:none;stroke-opacity:1"
       d="M 1.51181,1538.27 H 0.037795"
       id="path1384" />
    <path
       style="fill:none;stroke:#0000ff;stroke-width:0.755906;stroke-linecap:round;stroke-miterlimit:4;stroke-dasharray:none;stroke-opacity:1"
       d="M 0.037795,1538.27 V 1226.83"
       id="path1386" />
    <path
       style="fill:none;stroke:#0000ff;stroke-width:0.755906;stroke-linecap:round;stroke-miterlimit:4;stroke-dasharray:none;stroke-opacity:1"
       d="M 18.8976,1226.83 H 0.037795"
       id="path1388" />
    <path
       style="fill:none;stroke:#0000ff;stroke-width:0.755906;stroke-linecap:round;stroke-miterlimit:4;stroke-dasharray:none;stroke-opacity:1"
       d="m 18.8976,1217.01 v 9.82"
       id="path1390" />
    <path
       style="fill:none;stroke:#0000ff;stroke-width:0.755906;stroke-linecap:round;stroke-miterlimit:4;stroke-dasharray:none;stroke-opacity:1"
       d="M 0.037795,1217.01 H 18.8976"
       id="path1392" />
    <path
       style="fill:none;stroke:#0000ff;stroke-width:0.755906;stroke-linecap:round;stroke-miterlimit:4;stroke-dasharray:none;stroke-opacity:1"
       d="m 0.037795,1217.01 v -64.25"
       id="path1394" />
    <path
       style="fill:none;stroke:#0000ff;stroke-width:0.755906;stroke-linecap:round;stroke-miterlimit:4;stroke-dasharray:none;stroke-opacity:1"
       d="M 15.1181,1152.76 H 0.037795"
       id="path1396" />
    <path
       d="m 15.11811,1152.7559 a 15.11811,15.11811 0 0 0 15.11811,-15.1181"
       style="fill:none;stroke:#0000ff;stroke-width:0.755906;stroke-linecap:round;stroke-miterlimit:4;stroke-dasharray:none;stroke-opacity:1"
       id="path1398" />
    <path
       style="fill:none;stroke:#0000ff;stroke-width:0.755906;stroke-linecap:round;stroke-miterlimit:4;stroke-dasharray:none;stroke-opacity:1"
       d="m 30.2362,1137.64 v -15.12"
       id="path1400" />
    <path
       style="fill:none;stroke:#0000ff;stroke-width:0.755906;stroke-linecap:round;stroke-miterlimit:4;stroke-dasharray:none;stroke-opacity:1"
       d="M 30.2362,1122.52 H 172.967"
       id="path1402" />
    <path
       style="fill:none;stroke:#0000ff;stroke-width:0.755906;stroke-linecap:round;stroke-miterlimit:4;stroke-dasharray:none;stroke-opacity:1"
       d="m 172.967,1112.69 v 9.83"
       id="path1404" />
    <path
       style="fill:none;stroke:#0000ff;stroke-width:0.755906;stroke-linecap:round;stroke-miterlimit:4;stroke-dasharray:none;stroke-opacity:1"
       d="m 172.967,1112.69 h 37.796"
       id="path1406" />
    <path
       style="fill:none;stroke:#0000ff;stroke-width:0.755906;stroke-linecap:round;stroke-miterlimit:4;stroke-dasharray:none;stroke-opacity:1"
       d="m 210.763,1112.69 v 9.83"
       id="path1408" />
    <path
       style="fill:none;stroke:#0000ff;stroke-width:0.755906;stroke-linecap:round;stroke-miterlimit:4;stroke-dasharray:none;stroke-opacity:1"
       d="m 210.763,1122.52 h 154.07"
       id="path1410" />
    <path
       style="fill:none;stroke:#0000ff;stroke-width:0.755906;stroke-linecap:round;stroke-miterlimit:4;stroke-dasharray:none;stroke-opacity:1"
       d="m 364.833,1112.69 v 9.83"
       id="path1412" />
    <path
       style="fill:none;stroke:#0000ff;stroke-width:0.755906;stroke-linecap:round;stroke-miterlimit:4;stroke-dasharray:none;stroke-opacity:1"
       d="M 402.629,1112.69 H 364.833"
       id="path1414" />
    <path
       style="fill:none;stroke:#0000ff;stroke-width:0.755906;stroke-linecap:round;stroke-miterlimit:4;stroke-dasharray:none;stroke-opacity:1"
       d="m 402.629,1112.69 v 9.83"
       id="path1416" />
    <path
       style="fill:none;stroke:#0000ff;stroke-width:0.755906;stroke-linecap:round;stroke-miterlimit:4;stroke-dasharray:none;stroke-opacity:1"
       d="M 402.629,1122.52 H 556.698"
       id="path1418" />
    <path
       style="fill:none;stroke:#0000ff;stroke-width:0.755906;stroke-linecap:round;stroke-miterlimit:4;stroke-dasharray:none;stroke-opacity:1"
       d="m 556.698,1112.69 v 9.83"
       id="path1420" />
    <path
       style="fill:none;stroke:#0000ff;stroke-width:0.755906;stroke-linecap:round;stroke-miterlimit:4;stroke-dasharray:none;stroke-opacity:1"
       d="M 594.493,1112.69 H 556.698"
       id="path1422" />
    <path
       style="fill:none;stroke:#0000ff;stroke-width:0.755906;stroke-linecap:round;stroke-miterlimit:4;stroke-dasharray:none;stroke-opacity:1"
       d="m 594.493,1112.69 v 9.83"
       id="path1424" />
    <path
       style="fill:none;stroke:#0000ff;stroke-width:0.755906;stroke-linecap:round;stroke-miterlimit:4;stroke-dasharray:none;stroke-opacity:1"
       d="M 594.493,1122.52 H 748.562"
       id="path1426" />
    <path
       style="fill:none;stroke:#0000ff;stroke-width:0.755906;stroke-linecap:round;stroke-miterlimit:4;stroke-dasharray:none;stroke-opacity:1"
       d="m 748.562,1112.69 v 9.83"
       id="path1428" />
    <path
       style="fill:none;stroke:#0000ff;stroke-width:0.755906;stroke-linecap:round;stroke-miterlimit:4;stroke-dasharray:none;stroke-opacity:1"
       d="m 748.562,1112.69 h 37.795"
       id="path1430" />
    <path
       style="fill:none;stroke:#0000ff;stroke-width:0.755906;stroke-linecap:round;stroke-miterlimit:4;stroke-dasharray:none;stroke-opacity:1"
       d="m 786.357,1112.69 v 9.83"
       id="path1432" />
    <path
       style="fill:none;stroke:#0000ff;stroke-width:0.755906;stroke-linecap:round;stroke-miterlimit:4;stroke-dasharray:none;stroke-opacity:1"
       d="M 786.357,1122.52 H 940.43"
       id="path1434" />
    <path
       style="fill:none;stroke:#0000ff;stroke-width:0.755906;stroke-linecap:round;stroke-miterlimit:4;stroke-dasharray:none;stroke-opacity:1"
       d="m 940.43,1112.69 v 9.83"
       id="path1436" />
    <path
       style="fill:none;stroke:#0000ff;stroke-width:0.755906;stroke-linecap:round;stroke-miterlimit:4;stroke-dasharray:none;stroke-opacity:1"
       d="M 978.225,1112.69 H 940.43"
       id="path1438" />
    <path
       style="fill:none;stroke:#0000ff;stroke-width:0.755906;stroke-linecap:round;stroke-miterlimit:4;stroke-dasharray:none;stroke-opacity:1"
       d="m 978.225,1112.69 v 9.83"
       id="path1440" />
    <path
       style="fill:none;stroke:#0000ff;stroke-width:0.755906;stroke-linecap:round;stroke-miterlimit:4;stroke-dasharray:none;stroke-opacity:1"
       d="M 1120.95,1122.52 H 978.225"
       id="path1442" />
    <path
       style="fill:none;stroke:#0000ff;stroke-width:0.755906;stroke-linecap:round;stroke-miterlimit:4;stroke-dasharray:none;stroke-opacity:1"
       d="m 172.967,1217.01 v 9.82"
       id="path1444" />
    <path
       style="fill:none;stroke:#0000ff;stroke-width:0.755906;stroke-linecap:round;stroke-miterlimit:4;stroke-dasharray:none;stroke-opacity:1"
       d="m 172.967,1226.83 h 37.796"
       id="path1446" />
    <path
       style="fill:none;stroke:#0000ff;stroke-width:0.755906;stroke-linecap:round;stroke-miterlimit:4;stroke-dasharray:none;stroke-opacity:1"
       d="m 210.763,1226.83 v -9.82"
       id="path1448" />
    <path
       style="fill:none;stroke:#0000ff;stroke-width:0.755906;stroke-linecap:round;stroke-miterlimit:4;stroke-dasharray:none;stroke-opacity:1"
       d="M 210.763,1217.01 H 172.967"
       id="path1450" />
    <path
       style="fill:none;stroke:#0000ff;stroke-width:0.755906;stroke-linecap:round;stroke-miterlimit:4;stroke-dasharray:none;stroke-opacity:1"
       d="M 402.629,1226.83 H 364.833"
       id="path1452" />
    <path
       style="fill:none;stroke:#0000ff;stroke-width:0.755906;stroke-linecap:round;stroke-miterlimit:4;stroke-dasharray:none;stroke-opacity:1"
       d="m 364.833,1226.83 v -9.82"
       id="path1454" />
    <path
       style="fill:none;stroke:#0000ff;stroke-width:0.755906;stroke-linecap:round;stroke-miterlimit:4;stroke-dasharray:none;stroke-opacity:1"
       d="m 364.833,1217.01 h 37.796"
       id="path1456" />
    <path
       style="fill:none;stroke:#0000ff;stroke-width:0.755906;stroke-linecap:round;stroke-miterlimit:4;stroke-dasharray:none;stroke-opacity:1"
       d="m 402.629,1217.01 v 9.82"
       id="path1458" />
    <path
       style="fill:none;stroke:#0000ff;stroke-width:0.755906;stroke-linecap:round;stroke-miterlimit:4;stroke-dasharray:none;stroke-opacity:1"
       d="m 940.43,1217.01 v 9.82"
       id="path1460" />
    <path
       style="fill:none;stroke:#0000ff;stroke-width:0.755906;stroke-linecap:round;stroke-miterlimit:4;stroke-dasharray:none;stroke-opacity:1"
       d="m 940.43,1226.83 h 37.795"
       id="path1462" />
    <path
       style="fill:none;stroke:#0000ff;stroke-width:0.755906;stroke-linecap:round;stroke-miterlimit:4;stroke-dasharray:none;stroke-opacity:1"
       d="m 978.225,1226.83 v -9.82"
       id="path1464" />
    <path
       style="fill:none;stroke:#0000ff;stroke-width:0.755906;stroke-linecap:round;stroke-miterlimit:4;stroke-dasharray:none;stroke-opacity:1"
       d="M 978.225,1217.01 H 940.43"
       id="path1466" />
    <path
       style="fill:none;stroke:#0000ff;stroke-width:0.755906;stroke-linecap:round;stroke-miterlimit:4;stroke-dasharray:none;stroke-opacity:1"
       d="M 786.357,1226.83 H 748.562"
       id="path1468" />
    <path
       style="fill:none;stroke:#0000ff;stroke-width:0.755906;stroke-linecap:round;stroke-miterlimit:4;stroke-dasharray:none;stroke-opacity:1"
       d="m 748.562,1226.83 v -9.82"
       id="path1470" />
    <path
       style="fill:none;stroke:#0000ff;stroke-width:0.755906;stroke-linecap:round;stroke-miterlimit:4;stroke-dasharray:none;stroke-opacity:1"
       d="m 748.562,1217.01 h 37.795"
       id="path1472" />
    <path
       style="fill:none;stroke:#0000ff;stroke-width:0.755906;stroke-linecap:round;stroke-miterlimit:4;stroke-dasharray:none;stroke-opacity:1"
       d="m 786.357,1217.01 v 9.82"
       id="path1474" />
    <path
       style="fill:none;stroke:#0000ff;stroke-width:0.755906;stroke-linecap:round;stroke-miterlimit:4;stroke-dasharray:none;stroke-opacity:1"
       d="m 594.493,1226.83 v -9.82"
       id="path1476" />
    <path
       style="fill:none;stroke:#0000ff;stroke-width:0.755906;stroke-linecap:round;stroke-miterlimit:4;stroke-dasharray:none;stroke-opacity:1"
       d="M 594.493,1217.01 H 556.698"
       id="path1478" />
    <path
       style="fill:none;stroke:#0000ff;stroke-width:0.755906;stroke-linecap:round;stroke-miterlimit:4;stroke-dasharray:none;stroke-opacity:1"
       d="m 556.698,1217.01 v 9.82"
       id="path1480" />
    <path
       style="fill:none;stroke:#0000ff;stroke-width:0.755906;stroke-linecap:round;stroke-miterlimit:4;stroke-dasharray:none;stroke-opacity:1"
       d="m 556.698,1226.83 h 37.795"
       id="path1482" />
    <path
       style="display:inline;fill:none;stroke:#0000ff;stroke-width:0.755906;stroke-miterlimit:4;stroke-dasharray:none;stroke-opacity:1"
       d="m 69.476006,1122.52 v 68.0318 m 0,7.5591 v 128.5046 m 0,7.559 v 128.5046 m 0,7.5591 v 68.0318 m 13.228347,-415.75 v 68.0318 m 0,7.5591 v 128.5046 m 0,7.559 v 128.5046 m 0,7.5591 v 68.0318 m 13.228346,-415.75 v 68.0318 m 0,7.5591 v 128.5046 m 0,7.559 v 128.5046 m 0,7.5591 v 68.0318 m 13.228351,-415.75 v 68.0318 m 0,7.5591 v 128.5046 m 0,7.559 v 128.5046 m 0,7.5591 v 68.0318 m 13.22834,-415.75 v 68.0318 m 0,7.5591 v 128.5046 m 0,7.559 v 128.5046 m 0,7.5591 V 1538.27 M 76.090179,1130.0791 v 128.5045 m 0,7.5591 v 128.5046 m 0,7.5591 v 128.5045 m 13.228347,-400.6318 v 128.5045 m 0,7.5591 v 128.5046 m 0,7.5591 v 128.5045 m 13.228344,-400.6318 v 128.5045 m 0,7.5591 v 128.5046 m 0,7.5591 v 128.5045 m 13.22835,-400.6318 v 128.5045 m 0,7.5591 v 128.5046 m 0,7.5591 v 128.5045"
       id="path4467">
      <desc
         id="desc4465">Hinge cut parameters: actual(requested)
cut length: 34.00 mm (37.00 mm)
gap length: 2.00 mm (2.00 mm)
separation distance: 1.75 mm (2.00 mm)</desc>
    </path>
    <path
       style="display:inline;fill:none;stroke:#0000ff;stroke-width:0.755906;stroke-miterlimit:4;stroke-dasharray:none;stroke-opacity:1"
       d="m 261.34131,1122.52 v 68.0318 m 0,7.5591 v 128.5046 m 0,7.559 v 128.5046 m 0,7.5591 v 68.0318 m 13.22835,-415.75 v 68.0318 m 0,7.5591 v 128.5046 m 0,7.559 v 128.5046 m 0,7.5591 V 1538.27 M 287.798,1122.52 v 68.0318 m 0,7.5591 v 128.5046 m 0,7.559 v 128.5046 m 0,7.5591 v 68.0318 m 13.22835,-415.75 v 68.0318 m 0,7.5591 v 128.5046 m 0,7.559 v 128.5046 m 0,7.5591 v 68.0318 m 13.22835,-415.75 v 68.0318 m 0,7.5591 v 128.5046 m 0,7.559 v 128.5046 m 0,7.5591 v 68.0318 m -46.29922,-408.1909 v 128.5045 m 0,7.5591 v 128.5046 m 0,7.5591 v 128.5045 m 13.22835,-400.6318 v 128.5045 m 0,7.5591 v 128.5046 m 0,7.5591 v 128.5045 m 13.22835,-400.6318 v 128.5045 m 0,7.5591 v 128.5046 m 0,7.5591 v 128.5045 m 13.22834,-400.6318 v 128.5045 m 0,7.5591 v 128.5046 m 0,7.5591 v 128.5045"
       id="path4727">
      <desc
         id="desc4725">Hinge cut parameters: actual(requested)
cut length: 34.00 mm (37.00 mm)
gap length: 2.00 mm (2.00 mm)
separation distance: 1.75 mm (2.00 mm)</desc>
    </path>
    <path
       style="display:inline;fill:none;stroke:#0000ff;stroke-width:0.755906;stroke-miterlimit:4;stroke-dasharray:none;stroke-opacity:1"
       d="m 453.20731,1122.52 v 68.0318 m 0,7.5591 v 128.5046 m 0,7.559 v 128.5046 m 0,7.5591 v 68.0318 m 13.22835,-415.75 v 68.0318 m 0,7.5591 v 128.5046 m 0,7.559 v 128.5046 m 0,7.5591 V 1538.27 M 479.664,1122.52 v 68.0318 m 0,7.5591 v 128.5046 m 0,7.559 v 128.5046 m 0,7.5591 v 68.0318 m 13.22835,-415.75 v 68.0318 m 0,7.5591 v 128.5046 m 0,7.559 v 128.5046 m 0,7.5591 v 68.0318 m 13.22835,-415.75 v 68.0318 m 0,7.5591 v 128.5046 m 0,7.559 v 128.5046 m 0,7.5591 v 68.0318 m -46.29922,-408.1909 v 128.5045 m 0,7.5591 v 128.5046 m 0,7.5591 v 128.5045 m 13.22835,-400.6318 v 128.5045 m 0,7.5591 v 128.5046 m 0,7.5591 v 128.5045 m 13.22835,-400.6318 v 128.5045 m 0,7.5591 v 128.5046 m 0,7.5591 v 128.5045 m 13.22834,-400.6318 v 128.5045 m 0,7.5591 v 128.5046 m 0,7.5591 v 128.5045"
       id="path4991">
      <desc
         id="desc4989">Hinge cut parameters: actual(requested)
cut length: 34.00 mm (37.00 mm)
gap length: 2.00 mm (2.00 mm)
separation distance: 1.75 mm (2.00 mm)</desc>
    </path>
    <path
       style="display:inline;fill:none;stroke:#0000ff;stroke-width:0.755906;stroke-miterlimit:4;stroke-dasharray:none;stroke-opacity:1"
       d="m 645.07129,1122.52 v 68.0318 m 0,7.5591 v 128.5046 m 0,7.559 v 128.5046 m 0,7.5591 v 68.0318 m 13.22835,-415.75 v 68.0318 m 0,7.5591 v 128.5046 m 0,7.559 v 128.5046 m 0,7.5591 v 68.0318 m 13.22834,-415.75 v 68.0318 m 0,7.5591 v 128.5046 m 0,7.559 v 128.5046 m 0,7.5591 v 68.0318 m 13.22835,-415.75 v 68.0318 m 0,7.5591 v 128.5046 m 0,7.559 v 128.5046 m 0,7.5591 v 68.0318 m 13.22835,-415.75 v 68.0318 m 0,7.5591 v 128.5046 m 0,7.559 v 128.5046 m 0,7.5591 v 68.0318 m -46.29922,-408.1909 v 128.5045 m 0,7.5591 v 128.5046 m 0,7.5591 v 128.5045 m 13.22835,-400.6318 v 128.5045 m 0,7.5591 v 128.5046 m 0,7.5591 v 128.5045 m 13.22835,-400.6318 v 128.5045 m 0,7.5591 v 128.5046 m 0,7.5591 v 128.5045 m 13.22834,-400.6318 v 128.5045 m 0,7.5591 v 128.5046 m 0,7.5591 v 128.5045"
       id="path5259">
      <desc
         id="desc5257">Hinge cut parameters: actual(requested)
cut length: 34.00 mm (37.00 mm)
gap length: 2.00 mm (2.00 mm)
separation distance: 1.75 mm (2.00 mm)</desc>
    </path>
    <path
       style="display:inline;fill:none;stroke:#0000ff;stroke-width:0.755906;stroke-miterlimit:4;stroke-dasharray:none;stroke-opacity:1"
       d="m 836.93829,1122.52 v 68.0318 m 0,7.5591 v 128.5046 m 0,7.559 v 128.5046 m 0,7.5591 v 68.0318 m 13.22835,-415.75 v 68.0318 m 0,7.5591 v 128.5046 m 0,7.559 v 128.5046 m 0,7.5591 v 68.0318 m 13.22834,-415.75 v 68.0318 m 0,7.5591 v 128.5046 m 0,7.559 v 128.5046 m 0,7.5591 v 68.0318 m 13.22835,-415.75 v 68.0318 m 0,7.5591 v 128.5046 m 0,7.559 v 128.5046 m 0,7.5591 v 68.0318 m 13.22835,-415.75 v 68.0318 m 0,7.5591 v 128.5046 m 0,7.559 v 128.5046 m 0,7.5591 v 68.0318 m -46.29922,-408.1909 v 128.5045 m 0,7.5591 v 128.5046 m 0,7.5591 v 128.5045 m 13.22835,-400.6318 v 128.5045 m 0,7.5591 v 128.5046 m 0,7.5591 v 128.5045 m 13.22835,-400.6318 v 128.5045 m 0,7.5591 v 128.5046 m 0,7.5591 v 128.5045 m 13.22834,-400.6318 v 128.5045 m 0,7.5591 v 128.5046 m 0,7.5591 v 128.5045"
       id="path5531">
      <desc
         id="desc5529">Hinge cut parameters: actual(requested)
cut length: 34.00 mm (37.00 mm)
gap length: 2.00 mm (2.00 mm)
separation distance: 1.75 mm (2.00 mm)</desc>
    </path>
    <path
       style="display:inline;fill:none;stroke:#0000ff;stroke-width:0.755906;stroke-miterlimit:4;stroke-dasharray:none;stroke-opacity:1"
       d="m 1028.8033,1122.52 v 68.0318 m 0,7.5591 v 128.5046 m 0,7.559 v 128.5046 m 0,7.5591 v 68.0318 m 13.2283,-415.75 v 68.0318 m 0,7.5591 v 128.5046 m 0,7.559 v 128.5046 m 0,7.5591 v 68.0318 m 13.2284,-415.75 v 68.0318 m 0,7.5591 v 128.5046 m 0,7.559 v 128.5046 m 0,7.5591 v 68.0318 m 13.2283,-415.75 v 68.0318 m 0,7.5591 v 128.5046 m 0,7.559 v 128.5046 m 0,7.5591 v 68.0318 m 13.2284,-415.75 v 68.0318 m 0,7.5591 v 128.5046 m 0,7.559 v 128.5046 m 0,7.5591 v 68.0318 m -46.2992,-408.1909 v 128.5045 m 0,7.5591 v 128.5046 m 0,7.5591 v 128.5045 m 13.2283,-400.6318 v 128.5045 m 0,7.5591 v 128.5046 m 0,7.5591 v 128.5045 m 13.2284,-400.6318 v 128.5045 m 0,7.5591 v 128.5046 m 0,7.5591 v 128.5045 m 13.2283,-400.6318 v 128.5045 m 0,7.5591 v 128.5046 m 0,7.5591 v 128.5045"
       id="path5807">
      <desc
         id="desc5805">Hinge cut parameters: actual(requested)
cut length: 34.00 mm (37.00 mm)
gap length: 2.00 mm (2.00 mm)
separation distance: 1.75 mm (2.00 mm)</desc>
    </path>
  </g>
  <g
     inkscape:groupmode="layer"
     inkscape:label="none"
     id="g1498"
     transform="translate(0.462205,-1112.19)" />
</svg>
