999
FreeCAD v0.21 33771 (Git)
  0
SECTION
  2
HEADER
  9
$ACADVER
  1
AC1014
  9
$ACADMAINTVER
 70
     9
  9
$DWGCODEPAGE
  3
ANSI_1252
  9
$TEXTSTYLE
  7
STANDARD
  9
$DIMSTYLE
  2
STANDARD
  9
$DIMTXSTY
  7
STANDARD
  9
$CMLSTYLE
  2
STANDARD
  9
$LUNITS
 70
2
  9
$INSUNITS
 70
4
  9
$PEXTMAX
 10
50
 20
50
 30
50
  9
$PEXTMIN
 10
0
 20
0
 30
0
  9
$HANDSEED
  5
FFFF
  0
ENDSEC
  0
SECTION
  2
CLASSES
  0
CLASS
  1
ACDBDICTIONARYWDFLT
  2
AcDbDictionaryWithDefault
  3
ObjectDBX Classes
 90
        0
280
     0
281
     0
  0
CLASS
  1
XRECORD
  2
AcDbXrecord
  3
ObjectDBX Classes
 90
        0
280
     0
281
     0
  0
CLASS
  1
LWPOLYLINE
  2
AcDbPolyline
  3
ObjectDBX Classes
 90
        0
280
     0
281
     1
  0
ENDSEC
  0
SECTION
  2
TABLES
  0
TABLE
  2
VPORT
  5
20
330
0
100
AcDbSymbolTable
 70
     1
  0
VPORT
  5
21
330
20
100
AcDbSymbolTableRecord
100
AcDbViewportTableRecord
  2
*ACTIVE
 70
     0
  0
ENDTAB
  0
TABLE
  2
LTYPE
  5
22
330
0
100
AcDbSymbolTable
 70
     1
  0
LTYPE
  5
23
330
21
100
AcDbSymbolTableRecord
100
AcDbLinetypeTableRecord
  2
BYBLOCK
 70
     0
  3

 72
    65
 73
     0
 40
0.0
  0
LTYPE
  5
24
330
21
100
AcDbSymbolTableRecord
100
AcDbLinetypeTableRecord
  2
BYLAYER
 70
     0
  3

 72
    65
 73
     0
 40
0.0
  0
LTYPE
  5
25
330
21
100
AcDbSymbolTableRecord
100
AcDbLinetypeTableRecord
  2
CONTINUOUS
 70
     0
  3
Solid line
 72
    65
 73
     0
 40
0.0
  0
ENDTAB
  0
TABLE
  2
LAYER
  5
D77
330
0
100
AcDbSymbolTable
 70
3
  0
LAYER
  5
D78
330
D77
100
AcDbSymbolTableRecord
100
AcDbLayerTableRecord
  2
0
 70
   0
 62
   7
  6
CONTINUOUS
  0
LAYER
  5
D79
330
D77
100
AcDbSymbolTableRecord
100
AcDbLayerTableRecord
  2
none
 70
    0
 62
    7
  6
CONTINUOUS
  0
LAYER
  5
D7A
330
D77
100
AcDbSymbolTableRecord
100
AcDbLayerTableRecord
  2
Shape2DView
 70
    0
 62
    7
  6
CONTINUOUS
  0
ENDTAB
  0
TABLE
  2
STYLE
  5
70
330
0
100
AcDbSymbolTable
 70
     2
  0
STYLE
  5
71
330
70
100
AcDbSymbolTableRecord
100
AcDbTextStyleTableRecord
  2
STANDARD
 70
     0
 40
0.0
 41
1.0
 50
0.0
 71
     0
 42
2.5
  3
arial.ttf
  4

  0
STYLE
  5
72
330
70
100
AcDbSymbolTableRecord
100
AcDbTextStyleTableRecord
  2
ANNOTATIVE
 70
     0
 40
0.0
 41
1.0
 50
0.0
 71
     0
 42
2.5
  3
arial.ttf
  4

  0
ENDTAB
  0
TABLE
  2
VIEW
  5
73
330
0
100
AcDbSymbolTable
 70
     0
  0
ENDTAB
  0
TABLE
  2
UCS
  5
74
330
0
100
AcDbSymbolTable
 70
     0
  0
ENDTAB
  0
TABLE
  2
APPID
  5
75
330
0
100
AcDbSymbolTable
 70
     2
  0
APPID
  5
76
330
75
100
AcDbSymbolTableRecord
100
AcDbRegAppTableRecord
  2
ACAD
 70
     0
  0
APPID
  5
77
330
75
100
AcDbSymbolTableRecord
100
AcDbRegAppTableRecord
  2
ACADANNOTATIVE
 70
     0
  0
ENDTAB
  0
TABLE
  2
DIMSTYLE
  5
78
330
0
100
AcDbSymbolTable
 70
     2
  0
DIMSTYLE
105
79
330
78
100
AcDbSymbolTableRecord
100
AcDbDimStyleTableRecord
  2
STANDARD
 70
     0
  3

  4

  5

  6

  7

 40
0.0
 41
2.5
 42
0.625
 43
3.75
 44
1.25
 45
0.0
 46
0.0
 47
0.0
 48
0.0
140
2.5
141
2.5
142
0.0
143
0.03937007874016
144
1.0
145
0.0
146
1.0
147
0.625
 71
     0
 72
     0
 73
     0
 74
     0
 75
     0
 76
     0
 77
     1
 78
     8
170
     0
171
     3
172
     1
173
     0
174
     0
175
     0
176
     0
177
     0
178
     0
270
     2
271
     2
272
     2
273
     2
274
     3
340
71
275
     0
280
     0
281
     0
282
     0
283
     0
284
     8
285
     0
286
     0
287
     3
288
     0
  0
ENDTAB
  0
TABLE
  2
BLOCK_RECORD
  5
A01
330
0
100
AcDbSymbolTable
  70
5
  0
BLOCK_RECORD
  5
A02
330
A01
100
AcDbSymbolTableRecord
100
AcDbBlockTableRecord
  2
*MODEL_SPACE
  0
BLOCK_RECORD
  5
A03
330
A01
100
AcDbSymbolTableRecord
100
AcDbBlockTableRecord
  2
*PAPER_SPACE
  0
ENDTAB
  0
ENDSEC
  0
SECTION
  2
BLOCKS
  0
BLOCK
  5
A04
330
A02
100
AcDbEntity
  8
0
100
AcDbBlockBegin
  2
*MODEL_SPACE
 70
   0
 10
0
 20
0
 30
0
  3
*MODEL_SPACE
  1
 
  0
ENDBLK
  5
A05
330
A02
100
AcDbEntity
  8
0
100
AcDbBlockEnd
  0
BLOCK
  5
A06
330
A03
100
AcDbEntity
 67
1
  8
0
100
AcDbBlockBegin
  2
*PAPER_SPACE
 70
   0
 10
0
 20
0
 30
0
  3
*PAPER_SPACE
  1
 
  0
ENDBLK
  5
A07
330
A03
100
AcDbEntity
 67
    1
  8
0
100
AcDbBlockEnd
  0
ENDSEC
  0
SECTION
  2
ENTITIES
  0
LINE
  5
A08
330
A02
100
AcDbEntity
  8
Shape2DView
100
AcDbLine
 10
21.2132
 20
41.7193
 30
0
 11
22.981
 21
39.9515
 31
0
  0
ARC
  5
A09
330
A02
100
AcDbEntity
  8
Shape2DView
100
AcDbCircle
 10
20.1525
 20
37.1231
 30
0
 40
4
100
AcDbArc
 50
-45
 51
45
  0
ARC
  5
A0A
330
A02
100
AcDbEntity
  8
Shape2DView
100
AcDbCircle
 10
-1.4e-15
 20
20.5061
 30
0
 40
30
100
AcDbArc
 50
45
 51
135
  0
LINE
  5
A0B
330
A02
100
AcDbEntity
  8
Shape2DView
100
AcDbLine
 10
22.981
 20
34.2947
 30
0
 11
15.5563
 21
26.8701
 31
0
  0
LINE
  5
A0C
330
A02
100
AcDbEntity
  8
Shape2DView
100
AcDbLine
 10
-41.7193
 20
21.2132
 30
0
 11
-21.2132
 21
41.7193
 31
0
  0
ARC
  5
A0D
330
A02
100
AcDbEntity
  8
Shape2DView
100
AcDbCircle
 10
12.3226
 20
29.2244
 30
0
 40
4
100
AcDbArc
 50
-106.017
 51
-36.0561
  0
ARC
  5
A0E
330
A02
100
AcDbEntity
  8
Shape2DView
100
AcDbCircle
 10
-20.5061
 20
5e-16
 30
0
 40
30
100
AcDbArc
 50
135
 51
-135
  0
ARC
  5
A0F
330
A02
100
AcDbEntity
  8
Shape2DView
100
AcDbCircle
 10
10.1152
 20
21.5349
 30
0
 40
4
100
AcDbArc
 50
73.9827
 51
-135
  0
LINE
  5
A10
330
A02
100
AcDbEntity
  8
Shape2DView
100
AcDbLine
 10
-21.2132
 20
-41.7193
 30
0
 11
-41.7193
 21
-21.2132
 31
0
  0
LINE
  5
A11
330
A02
100
AcDbEntity
  8
Shape2DView
100
AcDbLine
 10
7.28674
 20
18.7065
 30
0
 11
18.7065
 21
7.28674
 31
0
  0
ARC
  5
A12
330
A02
100
AcDbEntity
  8
Shape2DView
100
AcDbCircle
 10
1.1e-15
 20
-20.5061
 30
0
 40
30
100
AcDbArc
 50
-135
 51
-45
  0
ARC
  5
A13
330
A02
100
AcDbEntity
  8
Shape2DView
100
AcDbCircle
 10
21.5349
 20
10.1152
 30
0
 40
4
100
AcDbArc
 50
-135
 51
16.0173
  0
LINE
  5
A14
330
A02
100
AcDbEntity
  8
Shape2DView
100
AcDbLine
 10
41.7193
 20
-21.2132
 30
0
 11
21.2132
 21
-41.7193
 31
0
  0
ARC
  5
A15
330
A02
100
AcDbEntity
  8
Shape2DView
100
AcDbCircle
 10
29.2244
 20
12.3226
 30
0
 40
4
100
AcDbArc
 50
126.056
 51
-163.983
  0
ARC
  5
A16
330
A02
100
AcDbEntity
  8
Shape2DView
100
AcDbCircle
 10
20.5061
 20
-2.1e-15
 30
0
 40
30
100
AcDbArc
 50
-45
 51
45
  0
LINE
  5
A17
330
A02
100
AcDbEntity
  8
Shape2DView
100
AcDbLine
 10
26.8701
 20
15.5563
 30
0
 11
34.2947
 21
22.981
 31
0
  0
LINE
  5
A18
330
A02
100
AcDbEntity
  8
Shape2DView
100
AcDbLine
 10
39.9515
 20
22.981
 30
0
 11
41.7193
 21
21.2132
 31
0
  0
ARC
  5
A19
330
A02
100
AcDbEntity
  8
Shape2DView
100
AcDbCircle
 10
37.1231
 20
20.1525
 30
0
 40
4
100
AcDbArc
 50
45
 51
135
  0
ARC
  5
A1A
330
A02
100
AcDbEntity
  8
Shape2DView
100
AcDbCircle
 10
-8.6
 20
-41.9296
 30
0
 40
0.2
100
AcDbArc
 50
180
 51
0
  0
LINE
  5
A1B
330
A02
100
AcDbEntity
  8
Shape2DView
100
AcDbLine
 10
-8.8
 20
-29.9624
 30
0
 11
-8.8
 21
-41.9296
 31
0
  0
LINE
  5
A1C
330
A02
100
AcDbEntity
  8
Shape2DView
100
AcDbLine
 10
-8.4
 20
-41.9296
 30
0
 11
-8.4
 21
-29.9624
 31
0
  0
ARC
  5
A1D
330
A02
100
AcDbEntity
  8
Shape2DView
100
AcDbCircle
 10
-8.6
 20
-29.9624
 30
0
 40
0.2
100
AcDbArc
 50
0
 51
180
  0
LINE
  5
A1E
330
A02
100
AcDbEntity
  8
Shape2DView
100
AcDbLine
 10
-5.8
 20
-29.9624
 30
0
 11
-5.8
 21
-35.1624
 31
0
  0
ARC
  5
A1F
330
A02
100
AcDbEntity
  8
Shape2DView
100
AcDbCircle
 10
-6
 20
-29.9624
 30
0
 40
0.2
100
AcDbArc
 50
0
 51
180
  0
LINE
  5
A20
330
A02
100
AcDbEntity
  8
Shape2DView
100
AcDbLine
 10
-5.8
 20
-35.1624
 30
0
 11
5.8
 21
-35.1624
 31
0
  0
LINE
  5
A21
330
A02
100
AcDbEntity
  8
Shape2DView
100
AcDbLine
 10
-6.2
 20
-41.9296
 30
0
 11
-6.2
 21
-29.9624
 31
0
  0
LINE
  5
A22
330
A02
100
AcDbEntity
  8
Shape2DView
100
AcDbLine
 10
5.8
 20
-35.1624
 30
0
 11
5.8
 21
-29.9624
 31
0
  0
ARC
  5
A23
330
A02
100
AcDbEntity
  8
Shape2DView
100
AcDbCircle
 10
-6
 20
-41.9296
 30
0
 40
0.2
100
AcDbArc
 50
180
 51
0
  0
ARC
  5
A24
330
A02
100
AcDbEntity
  8
Shape2DView
100
AcDbCircle
 10
6
 20
-29.9624
 30
0
 40
0.2
100
AcDbArc
 50
0
 51
180
  0
LINE
  5
A25
330
A02
100
AcDbEntity
  8
Shape2DView
100
AcDbLine
 10
-5.8
 20
-38.0296
 30
0
 11
-5.8
 21
-41.9296
 31
0
  0
LINE
  5
A26
330
A02
100
AcDbEntity
  8
Shape2DView
100
AcDbLine
 10
6.2
 20
-29.9624
 30
0
 11
6.2
 21
-41.9296
 31
0
  0
LINE
  5
A27
330
A02
100
AcDbEntity
  8
Shape2DView
100
AcDbLine
 10
5.8
 20
-38.0296
 30
0
 11
-5.8
 21
-38.0296
 31
0
  0
ARC
  5
A28
330
A02
100
AcDbEntity
  8
Shape2DView
100
AcDbCircle
 10
6
 20
-41.9296
 30
0
 40
0.2
100
AcDbArc
 50
180
 51
0
  0
LINE
  5
A29
330
A02
100
AcDbEntity
  8
Shape2DView
100
AcDbLine
 10
5.8
 20
-41.9296
 30
0
 11
5.8
 21
-38.0296
 31
0
  0
ARC
  5
A2A
330
A02
100
AcDbEntity
  8
Shape2DView
100
AcDbCircle
 10
-41.9296
 20
-8.6
 30
0
 40
0.2
100
AcDbArc
 50
90
 51
-90
  0
LINE
  5
A2B
330
A02
100
AcDbEntity
  8
Shape2DView
100
AcDbLine
 10
-29.9624
 20
-8.4
 30
0
 11
-41.9296
 21
-8.4
 31
0
  0
LINE
  5
A2C
330
A02
100
AcDbEntity
  8
Shape2DView
100
AcDbLine
 10
-41.9296
 20
-8.8
 30
0
 11
-29.9624
 21
-8.8
 31
0
  0
ARC
  5
A2D
330
A02
100
AcDbEntity
  8
Shape2DView
100
AcDbCircle
 10
-29.9624
 20
-8.6
 30
0
 40
0.2
100
AcDbArc
 50
-90
 51
90
  0
ARC
  5
A2E
330
A02
100
AcDbEntity
  8
Shape2DView
100
AcDbCircle
 10
8.6
 20
-41.9296
 30
0
 40
0.2
100
AcDbArc
 50
180
 51
0
  0
LINE
  5
A2F
330
A02
100
AcDbEntity
  8
Shape2DView
100
AcDbLine
 10
8.4
 20
-29.9624
 30
0
 11
8.4
 21
-41.9296
 31
0
  0
LINE
  5
A30
330
A02
100
AcDbEntity
  8
Shape2DView
100
AcDbLine
 10
8.8
 20
-41.9296
 30
0
 11
8.8
 21
-29.9624
 31
0
  0
ARC
  5
A31
330
A02
100
AcDbEntity
  8
Shape2DView
100
AcDbCircle
 10
8.6
 20
-29.9624
 30
0
 40
0.2
100
AcDbArc
 50
0
 51
180
  0
ARC
  5
A32
330
A02
100
AcDbEntity
  8
Shape2DView
100
AcDbCircle
 10
41.9296
 20
-8.6
 30
0
 40
0.2
100
AcDbArc
 50
-90
 51
90
  0
LINE
  5
A33
330
A02
100
AcDbEntity
  8
Shape2DView
100
AcDbLine
 10
29.9624
 20
-8.8
 30
0
 11
41.9296
 21
-8.8
 31
0
  0
LINE
  5
A34
330
A02
100
AcDbEntity
  8
Shape2DView
100
AcDbLine
 10
41.9296
 20
-8.4
 30
0
 11
29.9624
 21
-8.4
 31
0
  0
ARC
  5
A35
330
A02
100
AcDbEntity
  8
Shape2DView
100
AcDbCircle
 10
29.9624
 20
-8.6
 30
0
 40
0.2
100
AcDbArc
 50
90
 51
-90
  0
LINE
  5
A36
330
A02
100
AcDbEntity
  8
Shape2DView
100
AcDbLine
 10
29.9624
 20
-5.8
 30
0
 11
35.1624
 21
-5.8
 31
0
  0
ARC
  5
A37
330
A02
100
AcDbEntity
  8
Shape2DView
100
AcDbCircle
 10
29.9624
 20
-6
 30
0
 40
0.2
100
AcDbArc
 50
90
 51
-90
  0
LINE
  5
A38
330
A02
100
AcDbEntity
  8
Shape2DView
100
AcDbLine
 10
35.1624
 20
-5.8
 30
0
 11
35.1624
 21
5.8
 31
0
  0
LINE
  5
A39
330
A02
100
AcDbEntity
  8
Shape2DView
100
AcDbLine
 10
41.9296
 20
-6.2
 30
0
 11
29.9624
 21
-6.2
 31
0
  0
LINE
  5
A3A
330
A02
100
AcDbEntity
  8
Shape2DView
100
AcDbLine
 10
35.1624
 20
5.8
 30
0
 11
29.9624
 21
5.8
 31
0
  0
ARC
  5
A3B
330
A02
100
AcDbEntity
  8
Shape2DView
100
AcDbCircle
 10
41.9296
 20
-6
 30
0
 40
0.2
100
AcDbArc
 50
-90
 51
90
  0
ARC
  5
A3C
330
A02
100
AcDbEntity
  8
Shape2DView
100
AcDbCircle
 10
29.9624
 20
6
 30
0
 40
0.2
100
AcDbArc
 50
90
 51
-90
  0
LINE
  5
A3D
330
A02
100
AcDbEntity
  8
Shape2DView
100
AcDbLine
 10
38.0296
 20
-5.8
 30
0
 11
41.9296
 21
-5.8
 31
0
  0
LINE
  5
A3E
330
A02
100
AcDbEntity
  8
Shape2DView
100
AcDbLine
 10
29.9624
 20
6.2
 30
0
 11
41.9296
 21
6.2
 31
0
  0
LINE
  5
A3F
330
A02
100
AcDbEntity
  8
Shape2DView
100
AcDbLine
 10
38.0296
 20
5.8
 30
0
 11
38.0296
 21
-5.8
 31
0
  0
ARC
  5
A40
330
A02
100
AcDbEntity
  8
Shape2DView
100
AcDbCircle
 10
41.9296
 20
6
 30
0
 40
0.2
100
AcDbArc
 50
-90
 51
90
  0
LINE
  5
A41
330
A02
100
AcDbEntity
  8
Shape2DView
100
AcDbLine
 10
41.9296
 20
5.8
 30
0
 11
38.0296
 21
5.8
 31
0
  0
LINE
  5
A42
330
A02
100
AcDbEntity
  8
Shape2DView
100
AcDbLine
 10
-29.9624
 20
5.8
 30
0
 11
-35.1624
 21
5.8
 31
0
  0
ARC
  5
A43
330
A02
100
AcDbEntity
  8
Shape2DView
100
AcDbCircle
 10
-29.9624
 20
6
 30
0
 40
0.2
100
AcDbArc
 50
-90
 51
90
  0
LINE
  5
A44
330
A02
100
AcDbEntity
  8
Shape2DView
100
AcDbLine
 10
-35.1624
 20
5.8
 30
0
 11
-35.1624
 21
-5.8
 31
0
  0
LINE
  5
A45
330
A02
100
AcDbEntity
  8
Shape2DView
100
AcDbLine
 10
-41.9296
 20
6.2
 30
0
 11
-29.9624
 21
6.2
 31
0
  0
LINE
  5
A46
330
A02
100
AcDbEntity
  8
Shape2DView
100
AcDbLine
 10
-35.1624
 20
-5.8
 30
0
 11
-29.9624
 21
-5.8
 31
0
  0
ARC
  5
A47
330
A02
100
AcDbEntity
  8
Shape2DView
100
AcDbCircle
 10
-41.9296
 20
6
 30
0
 40
0.2
100
AcDbArc
 50
90
 51
-90
  0
ARC
  5
A48
330
A02
100
AcDbEntity
  8
Shape2DView
100
AcDbCircle
 10
-29.9624
 20
-6
 30
0
 40
0.2
100
AcDbArc
 50
-90
 51
90
  0
LINE
  5
A49
330
A02
100
AcDbEntity
  8
Shape2DView
100
AcDbLine
 10
-38.0296
 20
5.8
 30
0
 11
-41.9296
 21
5.8
 31
0
  0
LINE
  5
A4A
330
A02
100
AcDbEntity
  8
Shape2DView
100
AcDbLine
 10
-29.9624
 20
-6.2
 30
0
 11
-41.9296
 21
-6.2
 31
0
  0
LINE
  5
A4B
330
A02
100
AcDbEntity
  8
Shape2DView
100
AcDbLine
 10
-38.0296
 20
-5.8
 30
0
 11
-38.0296
 21
5.8
 31
0
  0
ARC
  5
A4C
330
A02
100
AcDbEntity
  8
Shape2DView
100
AcDbCircle
 10
-41.9296
 20
-6
 30
0
 40
0.2
100
AcDbArc
 50
90
 51
-90
  0
LINE
  5
A4D
330
A02
100
AcDbEntity
  8
Shape2DView
100
AcDbLine
 10
-41.9296
 20
-5.8
 30
0
 11
-38.0296
 21
-5.8
 31
0
  0
ARC
  5
A4E
330
A02
100
AcDbEntity
  8
Shape2DView
100
AcDbCircle
 10
-41.9296
 20
8.6
 30
0
 40
0.2
100
AcDbArc
 50
90
 51
-90
  0
LINE
  5
A4F
330
A02
100
AcDbEntity
  8
Shape2DView
100
AcDbLine
 10
-29.9624
 20
8.8
 30
0
 11
-41.9296
 21
8.8
 31
0
  0
LINE
  5
A50
330
A02
100
AcDbEntity
  8
Shape2DView
100
AcDbLine
 10
-41.9296
 20
8.4
 30
0
 11
-29.9624
 21
8.4
 31
0
  0
ARC
  5
A51
330
A02
100
AcDbEntity
  8
Shape2DView
100
AcDbCircle
 10
-29.9624
 20
8.6
 30
0
 40
0.2
100
AcDbArc
 50
-90
 51
90
  0
ARC
  5
A52
330
A02
100
AcDbEntity
  8
Shape2DView
100
AcDbCircle
 10
-8.6
 20
41.9296
 30
0
 40
0.2
100
AcDbArc
 50
0
 51
180
  0
LINE
  5
A53
330
A02
100
AcDbEntity
  8
Shape2DView
100
AcDbLine
 10
-8.4
 20
29.9624
 30
0
 11
-8.4
 21
41.9296
 31
0
  0
LINE
  5
A54
330
A02
100
AcDbEntity
  8
Shape2DView
100
AcDbLine
 10
-8.8
 20
41.9296
 30
0
 11
-8.8
 21
29.9624
 31
0
  0
ARC
  5
A55
330
A02
100
AcDbEntity
  8
Shape2DView
100
AcDbCircle
 10
-8.6
 20
29.9624
 30
0
 40
0.2
100
AcDbArc
 50
180
 51
0
  0
LINE
  5
A56
330
A02
100
AcDbEntity
  8
Shape2DView
100
AcDbLine
 10
9.96885
 20
11.1936
 30
0
 11
6.10514
 21
10.1583
 31
0
  0
ARC
  5
A57
330
A02
100
AcDbEntity
  8
Shape2DView
100
AcDbCircle
 10
6.36396
 20
9.19239
 30
0
 40
1
100
AcDbArc
 50
105
 51
-135
  0
LINE
  5
A58
330
A02
100
AcDbEntity
  8
Shape2DView
100
AcDbLine
 10
5.65685
 20
8.48528
 30
0
 11
8.48528
 21
5.65685
 31
0
  0
ARC
  5
A59
330
A02
100
AcDbEntity
  8
Shape2DView
100
AcDbCircle
 10
9.19239
 20
6.36396
 30
0
 40
1
100
AcDbArc
 50
-135
 51
-15
  0
LINE
  5
A5A
330
A02
100
AcDbEntity
  8
Shape2DView
100
AcDbLine
 10
10.1583
 20
6.10514
 30
0
 11
11.1936
 21
9.96885
 31
0
  0
ARC
  5
A5B
330
A02
100
AcDbEntity
  8
Shape2DView
100
AcDbCircle
 10
10.2277
 20
10.2277
 30
0
 40
1
100
AcDbArc
 50
-15
 51
105
  0
ARC
  5
A5C
330
A02
100
AcDbEntity
  8
Shape2DView
100
AcDbCircle
 10
41.9296
 20
8.6
 30
0
 40
0.2
100
AcDbArc
 50
-90
 51
90
  0
LINE
  5
A5D
330
A02
100
AcDbEntity
  8
Shape2DView
100
AcDbLine
 10
29.9624
 20
8.4
 30
0
 11
41.9296
 21
8.4
 31
0
  0
LINE
  5
A5E
330
A02
100
AcDbEntity
  8
Shape2DView
100
AcDbLine
 10
41.9296
 20
8.8
 30
0
 11
29.9624
 21
8.8
 31
0
  0
ARC
  5
A5F
330
A02
100
AcDbEntity
  8
Shape2DView
100
AcDbCircle
 10
29.9624
 20
8.6
 30
0
 40
0.2
100
AcDbArc
 50
90
 51
-90
  0
LINE
  5
A60
330
A02
100
AcDbEntity
  8
Shape2DView
100
AcDbLine
 10
5.8
 20
29.9624
 30
0
 11
5.8
 21
35.1624
 31
0
  0
ARC
  5
A61
330
A02
100
AcDbEntity
  8
Shape2DView
100
AcDbCircle
 10
6
 20
29.9624
 30
0
 40
0.2
100
AcDbArc
 50
180
 51
0
  0
LINE
  5
A62
330
A02
100
AcDbEntity
  8
Shape2DView
100
AcDbLine
 10
5.8
 20
35.1624
 30
0
 11
-5.8
 21
35.1624
 31
0
  0
LINE
  5
A63
330
A02
100
AcDbEntity
  8
Shape2DView
100
AcDbLine
 10
6.2
 20
41.9296
 30
0
 11
6.2
 21
29.9624
 31
0
  0
LINE
  5
A64
330
A02
100
AcDbEntity
  8
Shape2DView
100
AcDbLine
 10
-5.8
 20
35.1624
 30
0
 11
-5.8
 21
29.9624
 31
0
  0
ARC
  5
A65
330
A02
100
AcDbEntity
  8
Shape2DView
100
AcDbCircle
 10
6
 20
41.9296
 30
0
 40
0.2
100
AcDbArc
 50
0
 51
180
  0
ARC
  5
A66
330
A02
100
AcDbEntity
  8
Shape2DView
100
AcDbCircle
 10
-6
 20
29.9624
 30
0
 40
0.2
100
AcDbArc
 50
180
 51
0
  0
LINE
  5
A67
330
A02
100
AcDbEntity
  8
Shape2DView
100
AcDbLine
 10
5.8
 20
38.0296
 30
0
 11
5.8
 21
41.9296
 31
0
  0
LINE
  5
A68
330
A02
100
AcDbEntity
  8
Shape2DView
100
AcDbLine
 10
-6.2
 20
29.9624
 30
0
 11
-6.2
 21
41.9296
 31
0
  0
LINE
  5
A69
330
A02
100
AcDbEntity
  8
Shape2DView
100
AcDbLine
 10
-5.8
 20
38.0296
 30
0
 11
5.8
 21
38.0296
 31
0
  0
ARC
  5
A6A
330
A02
100
AcDbEntity
  8
Shape2DView
100
AcDbCircle
 10
-6
 20
41.9296
 30
0
 40
0.2
100
AcDbArc
 50
0
 51
180
  0
LINE
  5
A6B
330
A02
100
AcDbEntity
  8
Shape2DView
100
AcDbLine
 10
-5.8
 20
41.9296
 30
0
 11
-5.8
 21
38.0296
 31
0
  0
ARC
  5
A6C
330
A02
100
AcDbEntity
  8
Shape2DView
100
AcDbCircle
 10
8.6
 20
41.9296
 30
0
 40
0.2
100
AcDbArc
 50
0
 51
180
  0
LINE
  5
A6D
330
A02
100
AcDbEntity
  8
Shape2DView
100
AcDbLine
 10
8.8
 20
29.9624
 30
0
 11
8.8
 21
41.9296
 31
0
  0
LINE
  5
A6E
330
A02
100
AcDbEntity
  8
Shape2DView
100
AcDbLine
 10
8.4
 20
41.9296
 30
0
 11
8.4
 21
29.9624
 31
0
  0
ARC
  5
A6F
330
A02
100
AcDbEntity
  8
Shape2DView
100
AcDbCircle
 10
8.6
 20
29.9624
 30
0
 40
0.2
100
AcDbArc
 50
180
 51
0
  0
SPLINE
  5
A70
330
A02
100
AcDbEntity
  8
Shape2DView
100
AcDbSpline
210
0
220
0
230
1
 70
8
 71
3
 72
8
 73
4
 74
0
 40
0
 40
0
 40
0
 40
0
 40
1
 40
1
 40
1
 40
1
 10
10.5805
 20
-23.8146
 30
0
 10
9.45115
 20
-22.7176
 30
0
 10
9.78995
 20
-21.5506
 30
0
 10
11.2957
 20
-21.2172
 30
0
  0
SPLINE
  5
A71
330
A02
100
AcDbEntity
  8
Shape2DView
100
AcDbSpline
210
0
220
0
230
1
 70
8
 71
1
 72
4
 73
2
 74
0
 40
0
 40
0
 40
52.3
 40
52.3
 10
13.393
 20
-26.6272
 30
0
 10
10.5805
 20
-23.8146
 30
0
  0
SPLINE
  5
A72
330
A02
100
AcDbEntity
  8
Shape2DView
100
AcDbSpline
210
0
220
0
230
1
 70
8
 71
3
 72
8
 73
4
 74
0
 40
0
 40
0
 40
0
 40
0
 40
1
 40
1
 40
1
 40
1
 10
13.0058
 20
-26.5949
 30
0
 10
13.0166
 20
-26.5949
 30
0
 10
13.2855
 20
-26.6164
 30
0
 10
13.393
 20
-26.6272
 30
0
  0
SPLINE
  5
A73
330
A02
100
AcDbEntity
  8
Shape2DView
100
AcDbSpline
210
0
220
0
230
1
 70
8
 71
3
 72
8
 73
4
 74
0
 40
0
 40
0
 40
0
 40
0
 40
1
 40
1
 40
1
 40
1
 10
13.2424
 20
-27.4661
 30
0
 10
13.151
 20
-27.1811
 30
0
 10
13.065
 20
-26.8907
 30
0
 10
13.0058
 20
-26.5949
 30
0
  0
SPLINE
  5
A74
330
A02
100
AcDbEntity
  8
Shape2DView
100
AcDbSpline
210
0
220
0
230
1
 70
8
 71
1
 72
4
 73
2
 74
0
 40
0
 40
0
 40
7.21388
 40
7.21388
 10
13.791
 20
-27.4768
 30
0
 10
13.2424
 20
-27.4661
 30
0
  0
SPLINE
  5
A75
330
A02
100
AcDbEntity
  8
Shape2DView
100
AcDbSpline
210
0
220
0
230
1
 70
8
 71
3
 72
8
 73
4
 74
0
 40
0
 40
0
 40
0
 40
0
 40
1
 40
1
 40
1
 40
1
 10
13.9899
 20
-27.6436
 30
0
 10
13.9738
 20
-27.4768
 30
0
 10
13.791
 20
-27.4768
 30
0
 10
13.791
 20
-27.4768
 30
0
  0
SPLINE
  5
A76
330
A02
100
AcDbEntity
  8
Shape2DView
100
AcDbSpline
210
0
220
0
230
1
 70
8
 71
3
 72
8
 73
4
 74
0
 40
0
 40
0
 40
0
 40
0
 40
1
 40
1
 40
1
 40
1
 10
13.8286
 20
-27.8587
 30
0
 10
13.8878
 20
-27.8533
 30
0
 10
14.0007
 20
-27.8156
 30
0
 10
13.9899
 20
-27.6436
 30
0
  0
SPLINE
  5
A77
330
A02
100
AcDbEntity
  8
Shape2DView
100
AcDbSpline
210
0
220
0
230
1
 70
8
 71
3
 72
8
 73
4
 74
0
 40
0
 40
0
 40
0
 40
0
 40
1
 40
1
 40
1
 40
1
 10
13.3984
 20
-27.9017
 30
0
 10
13.3984
 20
-27.9017
 30
0
 10
13.7641
 20
-27.8694
 30
0
 10
13.8286
 20
-27.8587
 30
0
  0
SPLINE
  5
A78
330
A02
100
AcDbEntity
  8
Shape2DView
100
AcDbSpline
210
0
220
0
230
1
 70
8
 71
2
 72
6
 73
3
 74
0
 40
0
 40
0
 40
0
 40
1
 40
1
 40
1
 10
13.7802
 20
-28.7137
 30
0
 10
13.5651
 20
-28.3158
 30
0
 10
13.3984
 20
-27.9017
 30
0
  0
SPLINE
  5
A79
330
A02
100
AcDbEntity
  8
Shape2DView
100
AcDbSpline
210
0
220
0
230
1
 70
8
 71
1
 72
4
 73
2
 74
0
 40
0
 40
0
 40
7.22011
 40
7.22011
 10
14.3234
 20
-28.6331
 30
0
 10
13.7802
 20
-28.7137
 30
0
  0
SPLINE
  5
A7A
330
A02
100
AcDbEntity
  8
Shape2DView
100
AcDbSpline
210
0
220
0
230
1
 70
8
 71
3
 72
8
 73
4
 74
0
 40
0
 40
0
 40
0
 40
0
 40
1
 40
1
 40
1
 40
1
 10
14.5492
 20
-28.7621
 30
0
 10
14.5062
 20
-28.6008
 30
0
 10
14.3234
 20
-28.6331
 30
0
 10
14.3234
 20
-28.6331
 30
0
  0
SPLINE
  5
A7B
330
A02
100
AcDbEntity
  8
Shape2DView
100
AcDbSpline
210
0
220
0
230
1
 70
8
 71
3
 72
8
 73
4
 74
0
 40
0
 40
0
 40
0
 40
0
 40
1
 40
1
 40
1
 40
1
 10
14.4309
 20
-28.9987
 30
0
 10
14.4901
 20
-28.9826
 30
0
 10
14.5922
 20
-28.9234
 30
0
 10
14.5492
 20
-28.7621
 30
0
  0
SPLINE
  5
A7C
330
A02
100
AcDbEntity
  8
Shape2DView
100
AcDbSpline
210
0
220
0
230
1
 70
8
 71
3
 72
8
 73
4
 74
0
 40
0
 40
0
 40
0
 40
0
 40
1
 40
1
 40
1
 40
1
 10
14.0168
 20
-29.1117
 30
0
 10
14.0222
 20
-29.1063
 30
0
 10
14.3718
 20
-29.0149
 30
0
 10
14.4309
 20
-28.9987
 30
0
  0
SPLINE
  5
A7D
330
A02
100
AcDbEntity
  8
Shape2DView
100
AcDbSpline
210
0
220
0
230
1
 70
8
 71
3
 72
8
 73
4
 74
0
 40
0
 40
0
 40
0
 40
0
 40
1
 40
1
 40
1
 40
1
 10
14.5385
 20
-29.8484
 30
0
 10
14.3449
 20
-29.6118
 30
0
 10
14.1782
 20
-29.3698
 30
0
 10
14.0168
 20
-29.1117
 30
0
  0
SPLINE
  5
A7E
330
A02
100
AcDbEntity
  8
Shape2DView
100
AcDbSpline
210
0
220
0
230
1
 70
8
 71
1
 72
4
 73
2
 74
0
 40
0
 40
0
 40
7.15542
 40
7.15542
 10
15.0547
 20
-29.6763
 30
0
 10
14.5385
 20
-29.8484
 30
0
  0
SPLINE
  5
A7F
330
A02
100
AcDbEntity
  8
Shape2DView
100
AcDbSpline
210
0
220
0
230
1
 70
8
 71
3
 72
8
 73
4
 74
0
 40
0
 40
0
 40
0
 40
0
 40
1
 40
1
 40
1
 40
1
 10
15.2967
 20
-29.7677
 30
0
 10
15.2268
 20
-29.6118
 30
0
 10
15.0547
 20
-29.6763
 30
0
 10
15.0547
 20
-29.6763
 30
0
  0
SPLINE
  5
A80
330
A02
100
AcDbEntity
  8
Shape2DView
100
AcDbSpline
210
0
220
0
230
1
 70
8
 71
3
 72
8
 73
4
 74
0
 40
0
 40
0
 40
0
 40
0
 40
1
 40
1
 40
1
 40
1
 10
15.2214
 20
-30.0259
 30
0
 10
15.2806
 20
-29.999
 30
0
 10
15.3666
 20
-29.9237
 30
0
 10
15.2967
 20
-29.7677
 30
0
  0
SPLINE
  5
A81
330
A02
100
AcDbEntity
  8
Shape2DView
100
AcDbSpline
210
0
220
0
230
1
 70
8
 71
3
 72
8
 73
4
 74
0
 40
0
 40
0
 40
0
 40
0
 40
1
 40
1
 40
1
 40
1
 10
14.8342
 20
-30.2087
 30
0
 10
14.8611
 20
-30.1926
 30
0
 10
15.173
 20
-30.0528
 30
0
 10
15.2214
 20
-30.0259
 30
0
  0
SPLINE
  5
A82
330
A02
100
AcDbEntity
  8
Shape2DView
100
AcDbSpline
210
0
220
0
230
1
 70
8
 71
2
 72
6
 73
3
 74
0
 40
0
 40
0
 40
0
 40
1
 40
1
 40
1
 10
15.1246
 20
-30.5206
 30
0
 10
14.9754
 20
-30.3687
 30
0
 10
14.8342
 20
-30.2087
 30
0
  0
SPLINE
  5
A83
330
A02
100
AcDbEntity
  8
Shape2DView
100
AcDbSpline
210
0
220
0
230
1
 70
8
 71
2
 72
6
 73
3
 74
0
 40
0
 40
0
 40
0
 40
1
 40
1
 40
1
 10
15.4688
 20
-30.8433
 30
0
 10
15.2927
 20
-30.686
 30
0
 10
15.1246
 20
-30.5206
 30
0
  0
SPLINE
  5
A84
330
A02
100
AcDbEntity
  8
Shape2DView
100
AcDbSpline
210
0
220
0
230
1
 70
8
 71
1
 72
4
 73
2
 74
0
 40
0
 40
0
 40
7.18401
 40
7.18401
 10
15.9474
 20
-30.5798
 30
0
 10
15.4688
 20
-30.8433
 30
0
  0
SPLINE
  5
A85
330
A02
100
AcDbEntity
  8
Shape2DView
100
AcDbSpline
210
0
220
0
230
1
 70
8
 71
3
 72
8
 73
4
 74
0
 40
0
 40
0
 40
0
 40
0
 40
1
 40
1
 40
1
 40
1
 10
16.0604
 20
-30.5529
 30
0
 10
15.9958
 20
-30.5529
 30
0
 10
15.9474
 20
-30.5798
 30
0
 10
15.9474
 20
-30.5798
 30
0
  0
SPLINE
  5
A86
330
A02
100
AcDbEntity
  8
Shape2DView
100
AcDbSpline
210
0
220
0
230
1
 70
8
 71
1
 72
4
 73
2
 74
0
 40
0
 40
0
 40
11.5732
 40
11.5732
 10
16.6089
 20
-29.8645
 30
0
 10
16.0604
 20
-30.5529
 30
0
  0
SPLINE
  5
A87
330
A02
100
AcDbEntity
  8
Shape2DView
100
AcDbSpline
210
0
220
0
230
1
 70
8
 71
1
 72
4
 73
2
 74
0
 40
0
 40
0
 40
2.5
 40
2.5
 10
16.7433
 20
-29.999
 30
0
 10
16.6089
 20
-29.8645
 30
0
  0
SPLINE
  5
A88
330
A02
100
AcDbEntity
  8
Shape2DView
100
AcDbSpline
210
0
220
0
230
1
 70
8
 71
1
 72
4
 73
2
 74
0
 40
0
 40
0
 40
11.0653
 40
11.0653
 10
16.2163
 20
-30.6551
 30
0
 10
16.7433
 20
-29.999
 30
0
  0
SPLINE
  5
A89
330
A02
100
AcDbEntity
  8
Shape2DView
100
AcDbSpline
210
0
220
0
230
1
 70
8
 71
3
 72
8
 73
4
 74
0
 40
0
 40
0
 40
0
 40
0
 40
1
 40
1
 40
1
 40
1
 10
16.1679
 20
-30.8863
 30
0
 10
16.2163
 20
-30.8487
 30
0
 10
16.2808
 20
-30.7734
 30
0
 10
16.2163
 20
-30.6551
 30
0
  0
SPLINE
  5
A8A
330
A02
100
AcDbEntity
  8
Shape2DView
100
AcDbSpline
210
0
220
0
230
1
 70
8
 71
3
 72
8
 73
4
 74
0
 40
0
 40
0
 40
0
 40
0
 40
1
 40
1
 40
1
 40
1
 10
15.813
 20
-31.1337
 30
0
 10
15.8345
 20
-31.1229
 30
0
 10
16.1141
 20
-30.9186
 30
0
 10
16.1679
 20
-30.8863
 30
0
  0
SPLINE
  5
A8B
330
A02
100
AcDbEntity
  8
Shape2DView
100
AcDbSpline
210
0
220
0
230
1
 70
8
 71
2
 72
6
 73
3
 74
0
 40
0
 40
0
 40
0
 40
1
 40
1
 40
1
 10
16.5497
 20
-31.6446
 30
0
 10
16.1693
 20
-31.4093
 30
0
 10
15.813
 20
-31.1337
 30
0
  0
SPLINE
  5
A8C
330
A02
100
AcDbEntity
  8
Shape2DView
100
AcDbSpline
210
0
220
0
230
1
 70
8
 71
1
 72
4
 73
2
 74
0
 40
0
 40
0
 40
7.24431
 40
7.24431
 10
16.9799
 20
-31.3004
 30
0
 10
16.5497
 20
-31.6446
 30
0
  0
SPLINE
  5
A8D
330
A02
100
AcDbEntity
  8
Shape2DView
100
AcDbSpline
210
0
220
0
230
1
 70
8
 71
3
 72
8
 73
4
 74
0
 40
0
 40
0
 40
0
 40
0
 40
1
 40
1
 40
1
 40
1
 10
17.2381
 20
-31.3004
 30
0
 10
17.1198
 20
-31.1821
 30
0
 10
16.9799
 20
-31.3004
 30
0
 10
16.9799
 20
-31.3004
 30
0
  0
SPLINE
  5
A8E
330
A02
100
AcDbEntity
  8
Shape2DView
100
AcDbSpline
210
0
220
0
230
1
 70
8
 71
3
 72
8
 73
4
 74
0
 40
0
 40
0
 40
0
 40
0
 40
1
 40
1
 40
1
 40
1
 10
17.2542
 20
-31.5639
 30
0
 10
17.2972
 20
-31.5209
 30
0
 10
17.3564
 20
-31.4187
 30
0
 10
17.2381
 20
-31.3004
 30
0
  0
SPLINE
  5
A8F
330
A02
100
AcDbEntity
  8
Shape2DView
100
AcDbSpline
210
0
220
0
230
1
 70
8
 71
1
 72
4
 73
2
 74
0
 40
0
 40
0
 40
5.7
 40
5.7
 10
16.9477
 20
-31.8704
 30
0
 10
17.2542
 20
-31.5639
 30
0
  0
SPLINE
  5
A90
330
A02
100
AcDbEntity
  8
Shape2DView
100
AcDbSpline
210
0
220
0
230
1
 70
8
 71
2
 72
6
 73
3
 74
0
 40
0
 40
0
 40
0
 40
1
 40
1
 40
1
 10
17.8081
 20
-32.2684
 30
0
 10
17.3658
 20
-32.0976
 30
0
 10
16.9477
 20
-31.8704
 30
0
  0
SPLINE
  5
A91
330
A02
100
AcDbEntity
  8
Shape2DView
100
AcDbSpline
210
0
220
0
230
1
 70
8
 71
1
 72
4
 73
2
 74
0
 40
0
 40
0
 40
7.21734
 40
7.21734
 10
18.1684
 20
-31.8543
 30
0
 10
17.8081
 20
-32.2684
 30
0
  0
SPLINE
  5
A92
330
A02
100
AcDbEntity
  8
Shape2DView
100
AcDbSpline
210
0
220
0
230
1
 70
8
 71
3
 72
8
 73
4
 74
0
 40
0
 40
0
 40
0
 40
0
 40
1
 40
1
 40
1
 40
1
 10
18.4212
 20
-31.8059
 30
0
 10
18.2814
 20
-31.7091
 30
0
 10
18.1684
 20
-31.8543
 30
0
 10
18.1684
 20
-31.8543
 30
0
  0
SPLINE
  5
A93
330
A02
100
AcDbEntity
  8
Shape2DView
100
AcDbSpline
210
0
220
0
230
1
 70
8
 71
3
 72
8
 73
4
 74
0
 40
0
 40
0
 40
0
 40
0
 40
1
 40
1
 40
1
 40
1
 10
18.4857
 20
-32.064
 30
0
 10
18.5234
 20
-32.0156
 30
0
 10
18.561
 20
-31.9027
 30
0
 10
18.4212
 20
-31.8059
 30
0
  0
SPLINE
  5
A94
330
A02
100
AcDbEntity
  8
Shape2DView
100
AcDbSpline
210
0
220
0
230
1
 70
8
 71
3
 72
8
 73
4
 74
0
 40
0
 40
0
 40
0
 40
0
 40
1
 40
1
 40
1
 40
1
 10
18.2383
 20
-32.419
 30
0
 10
18.2437
 20
-32.4136
 30
0
 10
18.4481
 20
-32.1124
 30
0
 10
18.4857
 20
-32.064
 30
0
  0
SPLINE
  5
A95
330
A02
100
AcDbEntity
  8
Shape2DView
100
AcDbSpline
210
0
220
0
230
1
 70
8
 71
2
 72
6
 73
3
 74
0
 40
0
 40
0
 40
0
 40
1
 40
1
 40
1
 10
19.1095
 20
-32.6448
 30
0
 10
18.6659
 20
-32.5561
 30
0
 10
18.2383
 20
-32.419
 30
0
  0
SPLINE
  5
A96
330
A02
100
AcDbEntity
  8
Shape2DView
100
AcDbSpline
210
0
220
0
230
1
 70
8
 71
1
 72
4
 73
2
 74
0
 40
0
 40
0
 40
2.66833
 40
2.66833
 10
19.2171
 20
-32.4727
 30
0
 10
19.1095
 20
-32.6448
 30
0
  0
SPLINE
  5
A97
330
A02
100
AcDbEntity
  8
Shape2DView
100
AcDbSpline
210
0
220
0
230
1
 70
8
 71
1
 72
4
 73
2
 74
0
 40
0
 40
0
 40
51.2
 40
51.2
 10
21.9705
 20
-35.2261
 30
0
 10
19.2171
 20
-32.4727
 30
0
  0
SPLINE
  5
A98
330
A02
100
AcDbEntity
  8
Shape2DView
100
AcDbSpline
210
0
220
0
230
1
 70
8
 71
3
 72
8
 73
4
 74
0
 40
0
 40
0
 40
0
 40
0
 40
1
 40
1
 40
1
 40
1
 10
24.5625
 20
-34.4732
 30
0
 10
24.2291
 20
-35.979
 30
0
 10
23.0621
 20
-36.3178
 30
0
 10
21.9705
 20
-35.2261
 30
0
  0
SPLINE
  5
A99
330
A02
100
AcDbEntity
  8
Shape2DView
100
AcDbSpline
210
0
220
0
230
1
 70
8
 71
1
 72
4
 73
2
 74
0
 40
0
 40
0
 40
42.9731
 40
42.9731
 10
25.2778
 20
-31.2843
 30
0
 10
24.5625
 20
-34.4732
 30
0
  0
SPLINE
  5
A9A
330
A02
100
AcDbEntity
  8
Shape2DView
100
AcDbSpline
210
0
220
0
230
1
 70
8
 71
3
 72
8
 73
4
 74
0
 40
0
 40
0
 40
0
 40
0
 40
1
 40
1
 40
1
 40
1
 10
25.5305
 20
-31.096
 30
0
 10
25.4445
 20
-31.1606
 30
0
 10
25.3692
 20
-31.2251
 30
0
 10
25.2778
 20
-31.2843
 30
0
  0
SPLINE
  5
A9B
330
A02
100
AcDbEntity
  8
Shape2DView
100
AcDbSpline
210
0
220
0
230
1
 70
8
 71
1
 72
4
 73
2
 74
0
 40
0
 40
0
 40
5.14296
 40
5.14296
 10
25.4068
 20
-30.725
 30
0
 10
25.5305
 20
-31.096
 30
0
  0
SPLINE
  5
A9C
330
A02
100
AcDbEntity
  8
Shape2DView
100
AcDbSpline
210
0
220
0
230
1
 70
8
 71
1
 72
4
 73
2
 74
0
 40
0
 40
0
 40
5.57584
 40
5.57584
 10
25.4982
 20
-30.3109
 30
0
 10
25.4068
 20
-30.725
 30
0
  0
SPLINE
  5
A9D
330
A02
100
AcDbEntity
  8
Shape2DView
100
AcDbSpline
210
0
220
0
230
1
 70
8
 71
3
 72
8
 73
4
 74
0
 40
0
 40
0
 40
0
 40
0
 40
1
 40
1
 40
1
 40
1
 10
25.6972
 20
-30.4023
 30
0
 10
25.6703
 20
-30.3539
 30
0
 10
25.6166
 20
-30.2786
 30
0
 10
25.4982
 20
-30.3109
 30
0
  0
SPLINE
  5
A9E
330
A02
100
AcDbEntity
  8
Shape2DView
100
AcDbSpline
210
0
220
0
230
1
 70
8
 71
3
 72
8
 73
4
 74
0
 40
0
 40
0
 40
0
 40
0
 40
1
 40
1
 40
1
 40
1
 10
25.8801
 20
-30.7895
 30
0
 10
25.8639
 20
-30.7626
 30
0
 10
25.7241
 20
-30.4507
 30
0
 10
25.6972
 20
-30.4023
 30
0
  0
SPLINE
  5
A9F
330
A02
100
AcDbEntity
  8
Shape2DView
100
AcDbSpline
210
0
220
0
230
1
 70
8
 71
2
 72
6
 73
3
 74
0
 40
0
 40
0
 40
0
 40
1
 40
1
 40
1
 10
26.192
 20
-30.4991
 30
0
 10
26.0401
 20
-30.6483
 30
0
 10
25.8801
 20
-30.7895
 30
0
  0
SPLINE
  5
AA0
330
A02
100
AcDbEntity
  8
Shape2DView
100
AcDbSpline
210
0
220
0
230
1
 70
8
 71
2
 72
6
 73
3
 74
0
 40
0
 40
0
 40
0
 40
1
 40
1
 40
1
 10
26.5146
 20
-30.1549
 30
0
 10
26.3573
 20
-30.3311
 30
0
 10
26.192
 20
-30.4991
 30
0
  0
SPLINE
  5
AA1
330
A02
100
AcDbEntity
  8
Shape2DView
100
AcDbSpline
210
0
220
0
230
1
 70
8
 71
1
 72
4
 73
2
 74
0
 40
0
 40
0
 40
7.21249
 40
7.21249
 10
26.2565
 20
-29.671
 30
0
 10
26.5146
 20
-30.1549
 30
0
  0
SPLINE
  5
AA2
330
A02
100
AcDbEntity
  8
Shape2DView
100
AcDbSpline
210
0
220
0
230
1
 70
8
 71
3
 72
8
 73
4
 74
0
 40
0
 40
0
 40
0
 40
0
 40
1
 40
1
 40
1
 40
1
 10
26.2296
 20
-29.558
 30
0
 10
26.2296
 20
-29.6226
 30
0
 10
26.2565
 20
-29.671
 30
0
 10
26.2565
 20
-29.671
 30
0
  0
SPLINE
  5
AA3
330
A02
100
AcDbEntity
  8
Shape2DView
100
AcDbSpline
210
0
220
0
230
1
 70
8
 71
1
 72
4
 73
2
 74
0
 40
0
 40
0
 40
8.05047
 40
8.05047
 10
25.751
 20
-29.1762
 30
0
 10
26.2296
 20
-29.558
 30
0
  0
SPLINE
  5
AA4
330
A02
100
AcDbEntity
  8
Shape2DView
100
AcDbSpline
210
0
220
0
230
1
 70
8
 71
1
 72
4
 73
2
 74
0
 40
0
 40
0
 40
2.83019
 40
2.83019
 10
25.7994
 20
-28.9665
 30
0
 10
25.751
 20
-29.1762
 30
0
  0
SPLINE
  5
AA5
330
A02
100
AcDbEntity
  8
Shape2DView
100
AcDbSpline
210
0
220
0
230
1
 70
8
 71
1
 72
4
 73
2
 74
0
 40
0
 40
0
 40
8.956
 40
8.956
 10
26.3318
 20
-29.3913
 30
0
 10
25.7994
 20
-28.9665
 30
0
  0
SPLINE
  5
AA6
330
A02
100
AcDbEntity
  8
Shape2DView
100
AcDbSpline
210
0
220
0
230
1
 70
8
 71
3
 72
8
 73
4
 74
0
 40
0
 40
0
 40
0
 40
0
 40
1
 40
1
 40
1
 40
1
 10
26.563
 20
-29.4397
 30
0
 10
26.5254
 20
-29.3913
 30
0
 10
26.4501
 20
-29.3268
 30
0
 10
26.3318
 20
-29.3913
 30
0
  0
SPLINE
  5
AA7
330
A02
100
AcDbEntity
  8
Shape2DView
100
AcDbSpline
210
0
220
0
230
1
 70
8
 71
3
 72
8
 73
4
 74
0
 40
0
 40
0
 40
0
 40
0
 40
1
 40
1
 40
1
 40
1
 10
26.8104
 20
-29.7946
 30
0
 10
26.7997
 20
-29.7731
 30
0
 10
26.5953
 20
-29.4935
 30
0
 10
26.563
 20
-29.4397
 30
0
  0
SPLINE
  5
AA8
330
A02
100
AcDbEntity
  8
Shape2DView
100
AcDbSpline
210
0
220
0
230
1
 70
8
 71
2
 72
6
 73
3
 74
0
 40
0
 40
0
 40
0
 40
1
 40
1
 40
1
 10
27.3213
 20
-29.0579
 30
0
 10
27.086
 20
-29.4384
 30
0
 10
26.8104
 20
-29.7946
 30
0
  0
SPLINE
  5
AA9
330
A02
100
AcDbEntity
  8
Shape2DView
100
AcDbSpline
210
0
220
0
230
1
 70
8
 71
1
 72
4
 73
2
 74
0
 40
0
 40
0
 40
7.24431
 40
7.24431
 10
26.9771
 20
-28.6277
 30
0
 10
27.3213
 20
-29.0579
 30
0
  0
SPLINE
  5
AAA
330
A02
100
AcDbEntity
  8
Shape2DView
100
AcDbSpline
210
0
220
0
230
1
 70
8
 71
3
 72
8
 73
4
 74
0
 40
0
 40
0
 40
0
 40
0
 40
1
 40
1
 40
1
 40
1
 10
26.9771
 20
-28.3695
 30
0
 10
26.8588
 20
-28.4879
 30
0
 10
26.9771
 20
-28.6277
 30
0
 10
26.9771
 20
-28.6277
 30
0
  0
SPLINE
  5
AAB
330
A02
100
AcDbEntity
  8
Shape2DView
100
AcDbSpline
210
0
220
0
230
1
 70
8
 71
3
 72
8
 73
4
 74
0
 40
0
 40
0
 40
0
 40
0
 40
1
 40
1
 40
1
 40
1
 10
27.2406
 20
-28.3534
 30
0
 10
27.1976
 20
-28.3104
 30
0
 10
27.0954
 20
-28.2512
 30
0
 10
26.9771
 20
-28.3695
 30
0
  0
SPLINE
  5
AAC
330
A02
100
AcDbEntity
  8
Shape2DView
100
AcDbSpline
210
0
220
0
230
1
 70
8
 71
1
 72
4
 73
2
 74
0
 40
0
 40
0
 40
5.7
 40
5.7
 10
27.5472
 20
-28.6599
 30
0
 10
27.2406
 20
-28.3534
 30
0
  0
SPLINE
  5
AAD
330
A02
100
AcDbEntity
  8
Shape2DView
100
AcDbSpline
210
0
220
0
230
1
 70
8
 71
2
 72
6
 73
3
 74
0
 40
0
 40
0
 40
0
 40
1
 40
1
 40
1
 10
27.9451
 20
-27.7995
 30
0
 10
27.7744
 20
-28.2418
 30
0
 10
27.5472
 20
-28.6599
 30
0
  0
SPLINE
  5
AAE
330
A02
100
AcDbEntity
  8
Shape2DView
100
AcDbSpline
210
0
220
0
230
1
 70
8
 71
1
 72
4
 73
2
 74
0
 40
0
 40
0
 40
7.21734
 40
7.21734
 10
27.531
 20
-27.4392
 30
0
 10
27.9451
 20
-27.7995
 30
0
  0
SPLINE
  5
AAF
330
A02
100
AcDbEntity
  8
Shape2DView
100
AcDbSpline
210
0
220
0
230
1
 70
8
 71
3
 72
8
 73
4
 74
0
 40
0
 40
0
 40
0
 40
0
 40
1
 40
1
 40
1
 40
1
 10
27.4826
 20
-27.1864
 30
0
 10
27.3858
 20
-27.3263
 30
0
 10
27.531
 20
-27.4392
 30
0
 10
27.531
 20
-27.4392
 30
0
  0
SPLINE
  5
AB0
330
A02
100
AcDbEntity
  8
Shape2DView
100
AcDbSpline
210
0
220
0
230
1
 70
8
 71
3
 72
8
 73
4
 74
0
 40
0
 40
0
 40
0
 40
0
 40
1
 40
1
 40
1
 40
1
 10
27.7408
 20
-27.1219
 30
0
 10
27.687
 20
-27.0896
 30
0
 10
27.5794
 20
-27.0466
 30
0
 10
27.4826
 20
-27.1864
 30
0
  0
SPLINE
  5
AB1
330
A02
100
AcDbEntity
  8
Shape2DView
100
AcDbSpline
210
0
220
0
230
1
 70
8
 71
3
 72
8
 73
4
 74
0
 40
0
 40
0
 40
0
 40
0
 40
1
 40
1
 40
1
 40
1
 10
28.0957
 20
-27.3693
 30
0
 10
28.0903
 20
-27.3639
 30
0
 10
27.7892
 20
-27.1596
 30
0
 10
27.7408
 20
-27.1219
 30
0
  0
SPLINE
  5
AB2
330
A02
100
AcDbEntity
  8
Shape2DView
100
AcDbSpline
210
0
220
0
230
1
 70
8
 71
2
 72
6
 73
3
 74
0
 40
0
 40
0
 40
0
 40
1
 40
1
 40
1
 10
28.3215
 20
-26.4981
 30
0
 10
28.2328
 20
-26.9418
 30
0
 10
28.0957
 20
-27.3693
 30
0
  0
SPLINE
  5
AB3
330
A02
100
AcDbEntity
  8
Shape2DView
100
AcDbSpline
210
0
220
0
230
1
 70
8
 71
1
 72
4
 73
2
 74
0
 40
0
 40
0
 40
7.20347
 40
7.20347
 10
27.8537
 20
-26.2131
 30
0
 10
28.3215
 20
-26.4981
 30
0
  0
SPLINE
  5
AB4
330
A02
100
AcDbEntity
  8
Shape2DView
100
AcDbSpline
210
0
220
0
230
1
 70
8
 71
3
 72
8
 73
4
 74
0
 40
0
 40
0
 40
0
 40
0
 40
1
 40
1
 40
1
 40
1
 10
27.7623
 20
-25.9711
 30
0
 10
27.6924
 20
-26.127
 30
0
 10
27.8537
 20
-26.2131
 30
0
 10
27.8537
 20
-26.2131
 30
0
  0
SPLINE
  5
AB5
330
A02
100
AcDbEntity
  8
Shape2DView
100
AcDbSpline
210
0
220
0
230
1
 70
8
 71
3
 72
8
 73
4
 74
0
 40
0
 40
0
 40
0
 40
0
 40
1
 40
1
 40
1
 40
1
 10
28.0096
 20
-25.8635
 30
0
 10
27.9505
 20
-25.8366
 30
0
 10
27.8376
 20
-25.8205
 30
0
 10
27.7623
 20
-25.9711
 30
0
  0
SPLINE
  5
AB6
330
A02
100
AcDbEntity
  8
Shape2DView
100
AcDbSpline
210
0
220
0
230
1
 70
8
 71
3
 72
8
 73
4
 74
0
 40
0
 40
0
 40
0
 40
0
 40
1
 40
1
 40
1
 40
1
 10
28.4022
 20
-26.041
 30
0
 10
28.3753
 20
-26.0249
 30
0
 10
28.0634
 20
-25.885
 30
0
 10
28.0096
 20
-25.8635
 30
0
  0
SPLINE
  5
AB7
330
A02
100
AcDbEntity
  8
Shape2DView
100
AcDbSpline
210
0
220
0
230
1
 70
8
 71
3
 72
8
 73
4
 74
0
 40
0
 40
0
 40
0
 40
0
 40
1
 40
1
 40
1
 40
1
 10
28.4721
 20
-25.1429
 30
0
 10
28.4667
 20
-25.4387
 30
0
 10
28.4399
 20
-25.7452
 30
0
 10
28.4022
 20
-26.041
 30
0
  0
SPLINE
  5
AB8
330
A02
100
AcDbEntity
  8
Shape2DView
100
AcDbSpline
210
0
220
0
230
1
 70
8
 71
1
 72
4
 73
2
 74
0
 40
0
 40
0
 40
7.20902
 40
7.20902
 10
27.9612
 20
-24.9439
 30
0
 10
28.4721
 20
-25.1429
 30
0
  0
SPLINE
  5
AB9
330
A02
100
AcDbEntity
  8
Shape2DView
100
AcDbSpline
210
0
220
0
230
1
 70
8
 71
3
 72
8
 73
4
 74
0
 40
0
 40
0
 40
0
 40
0
 40
1
 40
1
 40
1
 40
1
 10
27.8322
 20
-24.7181
 30
0
 10
27.7892
 20
-24.8794
 30
0
 10
27.9612
 20
-24.9439
 30
0
 10
27.9612
 20
-24.9439
 30
0
  0
SPLINE
  5
ABA
330
A02
100
AcDbEntity
  8
Shape2DView
100
AcDbSpline
210
0
220
0
230
1
 70
8
 71
3
 72
8
 73
4
 74
0
 40
0
 40
0
 40
0
 40
0
 40
1
 40
1
 40
1
 40
1
 10
28.0527
 20
-24.5729
 30
0
 10
27.9935
 20
-24.5567
 30
0
 10
27.8752
 20
-24.5567
 30
0
 10
27.8322
 20
-24.7181
 30
0
  0
SPLINE
  5
ABB
330
A02
100
AcDbEntity
  8
Shape2DView
100
AcDbSpline
210
0
220
0
230
1
 70
8
 71
3
 72
8
 73
4
 74
0
 40
0
 40
0
 40
0
 40
0
 40
1
 40
1
 40
1
 40
1
 10
28.4721
 20
-24.6804
 30
0
 10
28.4399
 20
-24.6697
 30
0
 10
28.1118
 20
-24.589
 30
0
 10
28.0527
 20
-24.5729
 30
0
  0
SPLINE
  5
ABC
330
A02
100
AcDbEntity
  8
Shape2DView
100
AcDbSpline
210
0
220
0
230
1
 70
8
 71
3
 72
8
 73
4
 74
0
 40
0
 40
0
 40
0
 40
0
 40
1
 40
1
 40
1
 40
1
 10
28.3861
 20
-23.7877
 30
0
 10
28.4345
 20
-24.0835
 30
0
 10
28.456
 20
-24.3847
 30
0
 10
28.4721
 20
-24.6804
 30
0
  0
SPLINE
  5
ABD
330
A02
100
AcDbEntity
  8
Shape2DView
100
AcDbSpline
210
0
220
0
230
1
 70
8
 71
1
 72
4
 73
2
 74
0
 40
0
 40
0
 40
7.2111
 40
7.2111
 10
27.8483
 20
-23.6802
 30
0
 10
28.3861
 20
-23.7877
 30
0
  0
SPLINE
  5
ABE
330
A02
100
AcDbEntity
  8
Shape2DView
100
AcDbSpline
210
0
220
0
230
1
 70
8
 71
3
 72
8
 73
4
 74
0
 40
0
 40
0
 40
0
 40
0
 40
1
 40
1
 40
1
 40
1
 10
27.6816
 20
-23.4812
 30
0
 10
27.6655
 20
-23.6479
 30
0
 10
27.8483
 20
-23.6802
 30
0
 10
27.8483
 20
-23.6802
 30
0
  0
SPLINE
  5
ABF
330
A02
100
AcDbEntity
  8
Shape2DView
100
AcDbSpline
210
0
220
0
230
1
 70
8
 71
3
 72
8
 73
4
 74
0
 40
0
 40
0
 40
0
 40
0
 40
1
 40
1
 40
1
 40
1
 10
27.8752
 20
-23.2984
 30
0
 10
27.816
 20
-23.293
 30
0
 10
27.6977
 20
-23.3145
 30
0
 10
27.6816
 20
-23.4812
 30
0
  0
SPLINE
  5
AC0
330
A02
100
AcDbEntity
  8
Shape2DView
100
AcDbSpline
210
0
220
0
230
1
 70
8
 71
3
 72
8
 73
4
 74
0
 40
0
 40
0
 40
0
 40
0
 40
1
 40
1
 40
1
 40
1
 10
28.3054
 20
-23.3306
 30
0
 10
28.2893
 20
-23.3252
 30
0
 10
27.9397
 20
-23.2984
 30
0
 10
27.8752
 20
-23.2984
 30
0
  0
SPLINE
  5
AC1
330
A02
100
AcDbEntity
  8
Shape2DView
100
AcDbSpline
210
0
220
0
230
1
 70
8
 71
3
 72
8
 73
4
 74
0
 40
0
 40
0
 40
0
 40
0
 40
1
 40
1
 40
1
 40
1
 10
28.0688
 20
-22.4594
 30
0
 10
28.1602
 20
-22.7445
 30
0
 10
28.2463
 20
-23.0349
 30
0
 10
28.3054
 20
-23.3306
 30
0
  0
SPLINE
  5
AC2
330
A02
100
AcDbEntity
  8
Shape2DView
100
AcDbSpline
210
0
220
0
230
1
 70
8
 71
1
 72
4
 73
2
 74
0
 40
0
 40
0
 40
7.21388
 40
7.21388
 10
27.5203
 20
-22.4487
 30
0
 10
28.0688
 20
-22.4594
 30
0
  0
SPLINE
  5
AC3
330
A02
100
AcDbEntity
  8
Shape2DView
100
AcDbSpline
210
0
220
0
230
1
 70
8
 71
3
 72
8
 73
4
 74
0
 40
0
 40
0
 40
0
 40
0
 40
1
 40
1
 40
1
 40
1
 10
27.3213
 20
-22.282
 30
0
 10
27.3374
 20
-22.4487
 30
0
 10
27.5203
 20
-22.4487
 30
0
 10
27.5203
 20
-22.4487
 30
0
  0
SPLINE
  5
AC4
330
A02
100
AcDbEntity
  8
Shape2DView
100
AcDbSpline
210
0
220
0
230
1
 70
8
 71
3
 72
8
 73
4
 74
0
 40
0
 40
0
 40
0
 40
0
 40
1
 40
1
 40
1
 40
1
 10
27.4826
 20
-22.0669
 30
0
 10
27.4235
 20
-22.0722
 30
0
 10
27.3105
 20
-22.1099
 30
0
 10
27.3213
 20
-22.282
 30
0
  0
SPLINE
  5
AC5
330
A02
100
AcDbEntity
  8
Shape2DView
100
AcDbSpline
210
0
220
0
230
1
 70
8
 71
3
 72
8
 73
4
 74
0
 40
0
 40
0
 40
0
 40
0
 40
1
 40
1
 40
1
 40
1
 10
27.9182
 20
-22.0292
 30
0
 10
27.9182
 20
-22.0292
 30
0
 10
27.5525
 20
-22.0615
 30
0
 10
27.4826
 20
-22.0669
 30
0
  0
SPLINE
  5
AC6
330
A02
100
AcDbEntity
  8
Shape2DView
100
AcDbSpline
210
0
220
0
230
1
 70
8
 71
2
 72
6
 73
3
 74
0
 40
0
 40
0
 40
0
 40
1
 40
1
 40
1
 10
27.5364
 20
-21.2172
 30
0
 10
27.7515
 20
-21.6151
 30
0
 10
27.9182
 20
-22.0292
 30
0
  0
SPLINE
  5
AC7
330
A02
100
AcDbEntity
  8
Shape2DView
100
AcDbSpline
210
0
220
0
230
1
 70
8
 71
1
 72
4
 73
2
 74
0
 40
0
 40
0
 40
0.707107
 40
0.707107
 10
27.4934
 20
-21.1849
 30
0
 10
27.5364
 20
-21.2172
 30
0
  0
SPLINE
  5
AC8
330
A02
100
AcDbEntity
  8
Shape2DView
100
AcDbSpline
210
0
220
0
230
1
 70
8
 71
1
 72
4
 73
2
 74
0
 40
0
 40
0
 40
14.4803
 40
14.4803
 10
27.73
 20
-20.1094
 30
0
 10
27.4934
 20
-21.1849
 30
0
  0
SPLINE
  5
AC9
330
A02
100
AcDbEntity
  8
Shape2DView
100
AcDbSpline
210
0
220
0
230
1
 70
8
 71
3
 72
8
 73
4
 74
0
 40
0
 40
0
 40
0
 40
0
 40
1
 40
1
 40
1
 40
1
 10
25.7134
 20
-18.0927
 30
0
 10
27.2191
 20
-17.7593
 30
0
 10
28.0634
 20
-18.6036
 30
0
 10
27.73
 20
-20.1094
 30
0
  0
SPLINE
  5
ACA
330
A02
100
AcDbEntity
  8
Shape2DView
100
AcDbSpline
210
0
220
0
230
1
 70
8
 71
1
 72
4
 73
2
 74
0
 40
0
 40
0
 40
24.0217
 40
24.0217
 10
23.928
 20
-18.4799
 30
0
 10
25.7134
 20
-18.0927
 30
0
  0
SPLINE
  5
ACB
330
A02
100
AcDbEntity
  8
Shape2DView
100
AcDbSpline
210
0
220
0
230
1
 70
8
 71
3
 72
8
 73
4
 74
0
 40
0
 40
0
 40
0
 40
0
 40
1
 40
1
 40
1
 40
1
 10
24.0463
 20
-18.3616
 30
0
 10
24.0409
 20
-18.367
 30
0
 10
23.9333
 20
-18.4746
 30
0
 10
23.928
 20
-18.4799
 30
0
  0
SPLINE
  5
ACC
330
A02
100
AcDbEntity
  8
Shape2DView
100
AcDbSpline
210
0
220
0
230
1
 70
8
 71
1
 72
4
 73
2
 74
0
 40
0
 40
0
 40
5.7
 40
5.7
 10
24.3528
 20
-18.0551
 30
0
 10
24.0463
 20
-18.3616
 30
0
  0
SPLINE
  5
ACD
330
A02
100
AcDbEntity
  8
Shape2DView
100
AcDbSpline
210
0
220
0
230
1
 70
8
 71
2
 72
6
 73
3
 74
0
 40
0
 40
0
 40
0
 40
1
 40
1
 40
1
 10
23.4924
 20
-17.6571
 30
0
 10
23.9347
 20
-17.8279
 30
0
 10
24.3528
 20
-18.0551
 30
0
  0
SPLINE
  5
ACE
330
A02
100
AcDbEntity
  8
Shape2DView
100
AcDbSpline
210
0
220
0
230
1
 70
8
 71
1
 72
4
 73
2
 74
0
 40
0
 40
0
 40
7.21734
 40
7.21734
 10
23.1321
 20
-18.0712
 30
0
 10
23.4924
 20
-17.6571
 30
0
  0
SPLINE
  5
ACF
330
A02
100
AcDbEntity
  8
Shape2DView
100
AcDbSpline
210
0
220
0
230
1
 70
8
 71
3
 72
8
 73
4
 74
0
 40
0
 40
0
 40
0
 40
0
 40
1
 40
1
 40
1
 40
1
 10
22.8793
 20
-18.1196
 30
0
 10
23.0191
 20
-18.2164
 30
0
 10
23.1321
 20
-18.0712
 30
0
 10
23.1321
 20
-18.0712
 30
0
  0
SPLINE
  5
AD0
330
A02
100
AcDbEntity
  8
Shape2DView
100
AcDbSpline
210
0
220
0
230
1
 70
8
 71
3
 72
8
 73
4
 74
0
 40
0
 40
0
 40
0
 40
0
 40
1
 40
1
 40
1
 40
1
 10
22.8148
 20
-17.8615
 30
0
 10
22.7825
 20
-17.9153
 30
0
 10
22.7395
 20
-18.0228
 30
0
 10
22.8793
 20
-18.1196
 30
0
  0
SPLINE
  5
AD1
330
A02
100
AcDbEntity
  8
Shape2DView
100
AcDbSpline
210
0
220
0
230
1
 70
8
 71
3
 72
8
 73
4
 74
0
 40
0
 40
0
 40
0
 40
0
 40
1
 40
1
 40
1
 40
1
 10
23.0621
 20
-17.5066
 30
0
 10
23.0514
 20
-17.5173
 30
0
 10
22.8524
 20
-17.8131
 30
0
 10
22.8148
 20
-17.8615
 30
0
  0
SPLINE
  5
AD2
330
A02
100
AcDbEntity
  8
Shape2DView
100
AcDbSpline
210
0
220
0
230
1
 70
8
 71
2
 72
6
 73
3
 74
0
 40
0
 40
0
 40
0
 40
1
 40
1
 40
1
 10
22.191
 20
-17.2807
 30
0
 10
22.6346
 20
-17.3694
 30
0
 10
23.0621
 20
-17.5066
 30
0
  0
SPLINE
  5
AD3
330
A02
100
AcDbEntity
  8
Shape2DView
100
AcDbSpline
210
0
220
0
230
1
 70
8
 71
1
 72
4
 73
2
 74
0
 40
0
 40
0
 40
7.20347
 40
7.20347
 10
21.9059
 20
-17.7486
 30
0
 10
22.191
 20
-17.2807
 30
0
  0
SPLINE
  5
AD4
330
A02
100
AcDbEntity
  8
Shape2DView
100
AcDbSpline
210
0
220
0
230
1
 70
8
 71
3
 72
8
 73
4
 74
0
 40
0
 40
0
 40
0
 40
0
 40
1
 40
1
 40
1
 40
1
 10
21.6639
 20
-17.84
 30
0
 10
21.8199
 20
-17.9099
 30
0
 10
21.9059
 20
-17.7486
 30
0
 10
21.9059
 20
-17.7486
 30
0
  0
SPLINE
  5
AD5
330
A02
100
AcDbEntity
  8
Shape2DView
100
AcDbSpline
210
0
220
0
230
1
 70
8
 71
3
 72
8
 73
4
 74
0
 40
0
 40
0
 40
0
 40
0
 40
1
 40
1
 40
1
 40
1
 10
21.5564
 20
-17.5926
 30
0
 10
21.5295
 20
-17.6518
 30
0
 10
21.5134
 20
-17.7647
 30
0
 10
21.6639
 20
-17.84
 30
0
  0
SPLINE
  5
AD6
330
A02
100
AcDbEntity
  8
Shape2DView
100
AcDbSpline
210
0
220
0
230
1
 70
8
 71
3
 72
8
 73
4
 74
0
 40
0
 40
0
 40
0
 40
0
 40
1
 40
1
 40
1
 40
1
 10
21.7338
 20
-17.2
 30
0
 10
21.7177
 20
-17.2269
 30
0
 10
21.5779
 20
-17.5388
 30
0
 10
21.5564
 20
-17.5926
 30
0
  0
SPLINE
  5
AD7
330
A02
100
AcDbEntity
  8
Shape2DView
100
AcDbSpline
210
0
220
0
230
1
 70
8
 71
3
 72
8
 73
4
 74
0
 40
0
 40
0
 40
0
 40
0
 40
1
 40
1
 40
1
 40
1
 10
20.8358
 20
-17.1301
 30
0
 10
21.1315
 20
-17.1355
 30
0
 10
21.4381
 20
-17.1624
 30
0
 10
21.7338
 20
-17.2
 30
0
  0
SPLINE
  5
AD8
330
A02
100
AcDbEntity
  8
Shape2DView
100
AcDbSpline
210
0
220
0
230
1
 70
8
 71
1
 72
4
 73
2
 74
0
 40
0
 40
0
 40
7.20902
 40
7.20902
 10
20.6368
 20
-17.641
 30
0
 10
20.8358
 20
-17.1301
 30
0
  0
SPLINE
  5
AD9
330
A02
100
AcDbEntity
  8
Shape2DView
100
AcDbSpline
210
0
220
0
230
1
 70
8
 71
3
 72
8
 73
4
 74
0
 40
0
 40
0
 40
0
 40
0
 40
1
 40
1
 40
1
 40
1
 10
20.4109
 20
-17.7701
 30
0
 10
20.5723
 20
-17.8131
 30
0
 10
20.6368
 20
-17.641
 30
0
 10
20.6368
 20
-17.641
 30
0
  0
SPLINE
  5
ADA
330
A02
100
AcDbEntity
  8
Shape2DView
100
AcDbSpline
210
0
220
0
230
1
 70
8
 71
3
 72
8
 73
4
 74
0
 40
0
 40
0
 40
0
 40
0
 40
1
 40
1
 40
1
 40
1
 10
20.2657
 20
-17.5496
 30
0
 10
20.2496
 20
-17.6087
 30
0
 10
20.2496
 20
-17.727
 30
0
 10
20.4109
 20
-17.7701
 30
0
  0
SPLINE
  5
ADB
330
A02
100
AcDbEntity
  8
Shape2DView
100
AcDbSpline
210
0
220
0
230
1
 70
8
 71
3
 72
8
 73
4
 74
0
 40
0
 40
0
 40
0
 40
0
 40
1
 40
1
 40
1
 40
1
 10
20.3733
 20
-17.1301
 30
0
 10
20.3625
 20
-17.1624
 30
0
 10
20.2819
 20
-17.4904
 30
0
 10
20.2657
 20
-17.5496
 30
0
  0
SPLINE
  5
ADC
330
A02
100
AcDbEntity
  8
Shape2DView
100
AcDbSpline
210
0
220
0
230
1
 70
8
 71
3
 72
8
 73
4
 74
0
 40
0
 40
0
 40
0
 40
0
 40
1
 40
1
 40
1
 40
1
 10
19.4806
 20
-17.2162
 30
0
 10
19.7764
 20
-17.1678
 30
0
 10
20.0775
 20
-17.1463
 30
0
 10
20.3733
 20
-17.1301
 30
0
  0
SPLINE
  5
ADD
330
A02
100
AcDbEntity
  8
Shape2DView
100
AcDbSpline
210
0
220
0
230
1
 70
8
 71
1
 72
4
 73
2
 74
0
 40
0
 40
0
 40
7.2111
 40
7.2111
 10
19.373
 20
-17.7539
 30
0
 10
19.4806
 20
-17.2162
 30
0
  0
SPLINE
  5
ADE
330
A02
100
AcDbEntity
  8
Shape2DView
100
AcDbSpline
210
0
220
0
230
1
 70
8
 71
3
 72
8
 73
4
 74
0
 40
0
 40
0
 40
0
 40
0
 40
1
 40
1
 40
1
 40
1
 10
19.1741
 20
-17.9206
 30
0
 10
19.3408
 20
-17.9368
 30
0
 10
19.373
 20
-17.7539
 30
0
 10
19.373
 20
-17.7539
 30
0
  0
SPLINE
  5
ADF
330
A02
100
AcDbEntity
  8
Shape2DView
100
AcDbSpline
210
0
220
0
230
1
 70
8
 71
3
 72
8
 73
4
 74
0
 40
0
 40
0
 40
0
 40
0
 40
1
 40
1
 40
1
 40
1
 10
18.9912
 20
-17.727
 30
0
 10
18.9858
 20
-17.7862
 30
0
 10
19.0073
 20
-17.9045
 30
0
 10
19.1741
 20
-17.9206
 30
0
  0
SPLINE
  5
AE0
330
A02
100
AcDbEntity
  8
Shape2DView
100
AcDbSpline
210
0
220
0
230
1
 70
8
 71
3
 72
8
 73
4
 74
0
 40
0
 40
0
 40
0
 40
0
 40
1
 40
1
 40
1
 40
1
 10
19.0235
 20
-17.2968
 30
0
 10
19.0181
 20
-17.313
 30
0
 10
18.9912
 20
-17.6625
 30
0
 10
18.9912
 20
-17.727
 30
0
  0
SPLINE
  5
AE1
330
A02
100
AcDbEntity
  8
Shape2DView
100
AcDbSpline
210
0
220
0
230
1
 70
8
 71
3
 72
8
 73
4
 74
0
 40
0
 40
0
 40
0
 40
0
 40
1
 40
1
 40
1
 40
1
 10
18.1523
 20
-17.5335
 30
0
 10
18.4373
 20
-17.442
 30
0
 10
18.7277
 20
-17.356
 30
0
 10
19.0235
 20
-17.2968
 30
0
  0
SPLINE
  5
AE2
330
A02
100
AcDbEntity
  8
Shape2DView
100
AcDbSpline
210
0
220
0
230
1
 70
8
 71
1
 72
4
 73
2
 74
0
 40
0
 40
0
 40
7.21388
 40
7.21388
 10
18.1415
 20
-18.082
 30
0
 10
18.1523
 20
-17.5335
 30
0
  0
SPLINE
  5
AE3
330
A02
100
AcDbEntity
  8
Shape2DView
100
AcDbSpline
210
0
220
0
230
1
 70
8
 71
3
 72
8
 73
4
 74
0
 40
0
 40
0
 40
0
 40
0
 40
1
 40
1
 40
1
 40
1
 10
17.9748
 20
-18.281
 30
0
 10
18.1415
 20
-18.2648
 30
0
 10
18.1415
 20
-18.082
 30
0
 10
18.1415
 20
-18.082
 30
0
  0
SPLINE
  5
AE4
330
A02
100
AcDbEntity
  8
Shape2DView
100
AcDbSpline
210
0
220
0
230
1
 70
8
 71
3
 72
8
 73
4
 74
0
 40
0
 40
0
 40
0
 40
0
 40
1
 40
1
 40
1
 40
1
 10
17.7597
 20
-18.1196
 30
0
 10
17.7651
 20
-18.1788
 30
0
 10
17.8027
 20
-18.2917
 30
0
 10
17.9748
 20
-18.281
 30
0
  0
SPLINE
  5
AE5
330
A02
100
AcDbEntity
  8
Shape2DView
100
AcDbSpline
210
0
220
0
230
1
 70
8
 71
3
 72
8
 73
4
 74
0
 40
0
 40
0
 40
0
 40
0
 40
1
 40
1
 40
1
 40
1
 10
17.7167
 20
-17.6894
 30
0
 10
17.7167
 20
-17.6894
 30
0
 10
17.749
 20
-18.0551
 30
0
 10
17.7597
 20
-18.1196
 30
0
  0
SPLINE
  5
AE6
330
A02
100
AcDbEntity
  8
Shape2DView
100
AcDbSpline
210
0
220
0
230
1
 70
8
 71
2
 72
6
 73
3
 74
0
 40
0
 40
0
 40
0
 40
1
 40
1
 40
1
 10
16.9047
 20
-18.0712
 30
0
 10
17.3026
 20
-17.8561
 30
0
 10
17.7167
 20
-17.6894
 30
0
  0
SPLINE
  5
AE7
330
A02
100
AcDbEntity
  8
Shape2DView
100
AcDbSpline
210
0
220
0
230
1
 70
8
 71
1
 72
4
 73
2
 74
0
 40
0
 40
0
 40
7.22011
 40
7.22011
 10
16.9853
 20
-18.6144
 30
0
 10
16.9047
 20
-18.0712
 30
0
  0
SPLINE
  5
AE8
330
A02
100
AcDbEntity
  8
Shape2DView
100
AcDbSpline
210
0
220
0
230
1
 70
8
 71
3
 72
8
 73
4
 74
0
 40
0
 40
0
 40
0
 40
0
 40
1
 40
1
 40
1
 40
1
 10
16.8563
 20
-18.8402
 30
0
 10
17.0176
 20
-18.7972
 30
0
 10
16.9853
 20
-18.6144
 30
0
 10
16.9853
 20
-18.6144
 30
0
  0
SPLINE
  5
AE9
330
A02
100
AcDbEntity
  8
Shape2DView
100
AcDbSpline
210
0
220
0
230
1
 70
8
 71
3
 72
8
 73
4
 74
0
 40
0
 40
0
 40
0
 40
0
 40
1
 40
1
 40
1
 40
1
 10
16.6196
 20
-18.7219
 30
0
 10
16.6358
 20
-18.7811
 30
0
 10
16.6949
 20
-18.8833
 30
0
 10
16.8563
 20
-18.8402
 30
0
  0
SPLINE
  5
AEA
330
A02
100
AcDbEntity
  8
Shape2DView
100
AcDbSpline
210
0
220
0
230
1
 70
8
 71
3
 72
8
 73
4
 74
0
 40
0
 40
0
 40
0
 40
0
 40
1
 40
1
 40
1
 40
1
 10
16.5067
 20
-18.3078
 30
0
 10
16.5067
 20
-18.3186
 30
0
 10
16.6035
 20
-18.6628
 30
0
 10
16.6196
 20
-18.7219
 30
0
  0
SPLINE
  5
AEB
330
A02
100
AcDbEntity
  8
Shape2DView
100
AcDbSpline
210
0
220
0
230
1
 70
8
 71
2
 72
6
 73
3
 74
0
 40
0
 40
0
 40
0
 40
1
 40
1
 40
1
 10
15.77
 20
-18.8295
 30
0
 10
16.1262
 20
-18.5404
 30
0
 10
16.5067
 20
-18.3078
 30
0
  0
SPLINE
  5
AEC
330
A02
100
AcDbEntity
  8
Shape2DView
100
AcDbSpline
210
0
220
0
230
1
 70
8
 71
1
 72
4
 73
2
 74
0
 40
0
 40
0
 40
7.15542
 40
7.15542
 10
15.9421
 20
-19.3457
 30
0
 10
15.77
 20
-18.8295
 30
0
  0
SPLINE
  5
AED
330
A02
100
AcDbEntity
  8
Shape2DView
100
AcDbSpline
210
0
220
0
230
1
 70
8
 71
3
 72
8
 73
4
 74
0
 40
0
 40
0
 40
0
 40
0
 40
1
 40
1
 40
1
 40
1
 10
15.8506
 20
-19.5877
 30
0
 10
16.0066
 20
-19.5178
 30
0
 10
15.9421
 20
-19.3457
 30
0
 10
15.9421
 20
-19.3457
 30
0
  0
SPLINE
  5
AEE
330
A02
100
AcDbEntity
  8
Shape2DView
100
AcDbSpline
210
0
220
0
230
1
 70
8
 71
3
 72
8
 73
4
 74
0
 40
0
 40
0
 40
0
 40
0
 40
1
 40
1
 40
1
 40
1
 10
15.5925
 20
-19.5125
 30
0
 10
15.6194
 20
-19.5716
 30
0
 10
15.6947
 20
-19.6576
 30
0
 10
15.8506
 20
-19.5877
 30
0
  0
SPLINE
  5
AEF
330
A02
100
AcDbEntity
  8
Shape2DView
100
AcDbSpline
210
0
220
0
230
1
 70
8
 71
3
 72
8
 73
4
 74
0
 40
0
 40
0
 40
0
 40
0
 40
1
 40
1
 40
1
 40
1
 10
15.4097
 20
-19.1253
 30
0
 10
15.4258
 20
-19.1521
 30
0
 10
15.5656
 20
-19.4641
 30
0
 10
15.5925
 20
-19.5125
 30
0
  0
SPLINE
  5
AF0
330
A02
100
AcDbEntity
  8
Shape2DView
100
AcDbSpline
210
0
220
0
230
1
 70
8
 71
2
 72
6
 73
3
 74
0
 40
0
 40
0
 40
0
 40
1
 40
1
 40
1
 10
15.0977
 20
-19.4157
 30
0
 10
15.2497
 20
-19.2664
 30
0
 10
15.4097
 20
-19.1253
 30
0
  0
SPLINE
  5
AF1
330
A02
100
AcDbEntity
  8
Shape2DView
100
AcDbSpline
210
0
220
0
230
1
 70
8
 71
2
 72
6
 73
3
 74
0
 40
0
 40
0
 40
0
 40
1
 40
1
 40
1
 10
14.7751
 20
-19.7598
 30
0
 10
14.9324
 20
-19.5837
 30
0
 10
15.0977
 20
-19.4157
 30
0
  0
SPLINE
  5
AF2
330
A02
100
AcDbEntity
  8
Shape2DView
100
AcDbSpline
210
0
220
0
230
1
 70
8
 71
1
 72
4
 73
2
 74
0
 40
0
 40
0
 40
7.21249
 40
7.21249
 10
15.0332
 20
-20.2438
 30
0
 10
14.7751
 20
-19.7598
 30
0
  0
SPLINE
  5
AF3
330
A02
100
AcDbEntity
  8
Shape2DView
100
AcDbSpline
210
0
220
0
230
1
 70
8
 71
3
 72
8
 73
4
 74
0
 40
0
 40
0
 40
0
 40
0
 40
1
 40
1
 40
1
 40
1
 10
15.0601
 20
-20.3568
 30
0
 10
15.0601
 20
-20.2922
 30
0
 10
15.0332
 20
-20.2438
 30
0
 10
15.0332
 20
-20.2438
 30
0
  0
SPLINE
  5
AF4
330
A02
100
AcDbEntity
  8
Shape2DView
100
AcDbSpline
210
0
220
0
230
1
 70
8
 71
1
 72
4
 73
2
 74
0
 40
0
 40
0
 40
0.3
 40
0.3
 10
15.0762
 20
-20.3729
 30
0
 10
15.0601
 20
-20.3568
 30
0
  0
SPLINE
  5
AF5
330
A02
100
AcDbEntity
  8
Shape2DView
100
AcDbSpline
210
0
220
0
230
1
 70
8
 71
1
 72
4
 73
2
 74
0
 40
0
 40
0
 40
4.993
 40
4.993
 10
14.7052
 20
-20.4535
 30
0
 10
15.0762
 20
-20.3729
 30
0
  0
SPLINE
  5
AF6
330
A02
100
AcDbEntity
  8
Shape2DView
100
AcDbSpline
210
0
220
0
230
1
 70
8
 71
3
 72
8
 73
4
 74
0
 40
0
 40
0
 40
0
 40
0
 40
1
 40
1
 40
1
 40
1
 10
14.4632
 20
-20.1148
 30
0
 10
14.4739
 20
-20.1363
 30
0
 10
14.6514
 20
-20.3783
 30
0
 10
14.7052
 20
-20.4535
 30
0
  0
SPLINE
  5
AF7
330
A02
100
AcDbEntity
  8
Shape2DView
100
AcDbSpline
210
0
220
0
230
1
 70
8
 71
2
 72
6
 73
3
 74
0
 40
0
 40
0
 40
0
 40
1
 40
1
 40
1
 10
14.1244
 20
-20.5826
 30
0
 10
14.2857
 20
-20.3406
 30
0
 10
14.4632
 20
-20.1148
 30
0
  0
SPLINE
  5
AF8
330
A02
100
AcDbEntity
  8
Shape2DView
100
AcDbSpline
210
0
220
0
230
1
 70
8
 71
1
 72
4
 73
2
 74
0
 40
0
 40
0
 40
38.1182
 40
38.1182
 10
11.2957
 20
-21.2172
 30
0
 10
14.1244
 20
-20.5826
 30
0
  0
SPLINE
  5
AF9
330
A02
100
AcDbEntity
  8
Shape2DView
100
AcDbSpline
210
0
220
0
230
1
 70
8
 71
1
 72
4
 73
2
 74
0
 40
0
 40
0
 40
1.15121
 40
1.15121
 10
9.97816
 20
-13.0377
 30
0
 10
10.1825
 20
-12.8118
 30
0
  0
SPLINE
  5
AFA
330
A02
100
AcDbEntity
  8
Shape2DView
100
AcDbSpline
210
0
220
0
230
1
 70
8
 71
3
 72
8
 73
4
 74
0
 40
0
 40
0
 40
0
 40
0
 40
1
 40
1
 40
1
 40
1
 10
10.6342
 20
-13.597
 30
0
 10
10.403
 20
-13.3657
 30
0
 10
9.97816
 20
-13.0377
 30
0
 10
9.97816
 20
-13.0377
 30
0
  0
SPLINE
  5
AFB
330
A02
100
AcDbEntity
  8
Shape2DView
100
AcDbSpline
210
0
220
0
230
1
 70
8
 71
3
 72
8
 73
4
 74
0
 40
0
 40
0
 40
0
 40
0
 40
1
 40
1
 40
1
 40
1
 10
10.7095
 20
-14.4682
 30
0
 10
10.9946
 20
-14.1831
 30
0
 10
10.9515
 20
-13.9142
 30
0
 10
10.6342
 20
-13.597
 30
0
  0
SPLINE
  5
AFC
330
A02
100
AcDbEntity
  8
Shape2DView
100
AcDbSpline
210
0
220
0
230
1
 70
8
 71
3
 72
8
 73
4
 74
0
 40
0
 40
0
 40
0
 40
0
 40
1
 40
1
 40
1
 40
1
 10
9.75768
 20
-14.3875
 30
0
 10
10.2094
 20
-14.6564
 30
0
 10
10.4245
 20
-14.7532
 30
0
 10
10.7095
 20
-14.4682
 30
0
  0
SPLINE
  5
AFD
330
A02
100
AcDbEntity
  8
Shape2DView
100
AcDbSpline
210
0
220
0
230
1
 70
8
 71
3
 72
8
 73
4
 74
0
 40
0
 40
0
 40
0
 40
0
 40
1
 40
1
 40
1
 40
1
 10
8.46703
 20
-14.3982
 30
0
 10
8.89187
 20
-13.9734
 30
0
 10
9.22528
 20
-14.0702
 30
0
 10
9.75768
 20
-14.3875
 30
0
  0
SPLINE
  5
AFE
330
A02
100
AcDbEntity
  8
Shape2DView
100
AcDbSpline
210
0
220
0
230
1
 70
8
 71
3
 72
8
 73
4
 74
0
 40
0
 40
0
 40
0
 40
0
 40
1
 40
1
 40
1
 40
1
 10
8.45089
 20
-15.8448
 30
0
 10
7.96152
 20
-15.3555
 30
0
 10
7.98841
 20
-14.8769
 30
0
 10
8.46703
 20
-14.3982
 30
0
  0
SPLINE
  5
AFF
330
A02
100
AcDbEntity
  8
Shape2DView
100
AcDbSpline
210
0
220
0
230
1
 70
8
 71
3
 72
8
 73
4
 74
0
 40
0
 40
0
 40
0
 40
0
 40
1
 40
1
 40
1
 40
1
 10
9.1984
 20
-16.4633
 30
0
 10
9.1984
 20
-16.4633
 30
0
 10
8.71978
 20
-16.1137
 30
0
 10
8.45089
 20
-15.8448
 30
0
  0
SPLINE
  5
B00
330
A02
100
AcDbEntity
  8
Shape2DView
100
AcDbSpline
210
0
220
0
230
1
 70
8
 71
1
 72
4
 73
2
 74
0
 40
0
 40
0
 40
1.153
 40
1.153
 10
9.39737
 20
-16.232
 30
0
 10
9.1984
 20
-16.4633
 30
0
  0
SPLINE
  5
B01
330
A02
100
AcDbEntity
  8
Shape2DView
100
AcDbSpline
210
0
220
0
230
1
 70
8
 71
3
 72
8
 73
4
 74
0
 40
0
 40
0
 40
0
 40
0
 40
1
 40
1
 40
1
 40
1
 10
8.68214
 20
-15.6136
 30
0
 10
8.908
 20
-15.8395
 30
0
 10
9.39737
 20
-16.232
 30
0
 10
9.39737
 20
-16.232
 30
0
  0
SPLINE
  5
B02
330
A02
100
AcDbEntity
  8
Shape2DView
100
AcDbSpline
210
0
220
0
230
1
 70
8
 71
3
 72
8
 73
4
 74
0
 40
0
 40
0
 40
0
 40
0
 40
1
 40
1
 40
1
 40
1
 10
8.70903
 20
-14.694
 30
0
 10
8.39712
 20
-15.0059
 30
0
 10
8.37561
 20
-15.3071
 30
0
 10
8.68214
 20
-15.6136
 30
0
  0
SPLINE
  5
B03
330
A02
100
AcDbEntity
  8
Shape2DView
100
AcDbSpline
210
0
220
0
230
1
 70
8
 71
3
 72
8
 73
4
 74
0
 40
0
 40
0
 40
0
 40
0
 40
1
 40
1
 40
1
 40
1
 10
9.63399
 20
-14.737
 30
0
 10
9.24142
 20
-14.4843
 30
0
 10
8.99942
 20
-14.4036
 30
0
 10
8.70903
 20
-14.694
 30
0
  0
SPLINE
  5
B04
330
A02
100
AcDbEntity
  8
Shape2DView
100
AcDbSpline
210
0
220
0
230
1
 70
8
 71
3
 72
8
 73
4
 74
0
 40
0
 40
0
 40
0
 40
0
 40
1
 40
1
 40
1
 40
1
 10
10.9569
 20
-14.7693
 30
0
 10
10.5536
 20
-15.1726
 30
0
 10
10.1825
 20
-15.0705
 30
0
 10
9.63399
 20
-14.737
 30
0
  0
SPLINE
  5
B05
330
A02
100
AcDbEntity
  8
Shape2DView
100
AcDbSpline
210
0
220
0
230
1
 70
8
 71
3
 72
8
 73
4
 74
0
 40
0
 40
0
 40
0
 40
0
 40
1
 40
1
 40
1
 40
1
 10
10.887
 20
-13.3765
 30
0
 10
11.3602
 20
-13.8497
 30
0
 10
11.414
 20
-14.3122
 30
0
 10
10.9569
 20
-14.7693
 30
0
  0
SPLINE
  5
B06
330
A02
100
AcDbEntity
  8
Shape2DView
100
AcDbSpline
210
0
220
0
230
1
 70
8
 71
3
 72
8
 73
4
 74
0
 40
0
 40
0
 40
0
 40
0
 40
1
 40
1
 40
1
 40
1
 10
10.1825
 20
-12.8118
 30
0
 10
10.1825
 20
-12.8118
 30
0
 10
10.6181
 20
-13.1076
 30
0
 10
10.887
 20
-13.3765
 30
0
  0
SPLINE
  5
B07
330
A02
100
AcDbEntity
  8
Shape2DView
100
AcDbSpline
210
0
220
0
230
1
 70
8
 71
1
 72
4
 73
2
 74
0
 40
0
 40
0
 40
22.3
 40
22.3
 10
5.70288
 20
-13.0216
 30
0
 10
4.50365
 20
-11.8223
 30
0
  0
SPLINE
  5
B08
330
A02
100
AcDbEntity
  8
Shape2DView
100
AcDbSpline
210
0
220
0
230
1
 70
8
 71
1
 72
4
 73
2
 74
0
 40
0
 40
0
 40
44.3
 40
44.3
 10
8.08521
 20
-10.6392
 30
0
 10
5.70288
 20
-13.0216
 30
0
  0
SPLINE
  5
B09
330
A02
100
AcDbEntity
  8
Shape2DView
100
AcDbSpline
210
0
220
0
230
1
 70
8
 71
1
 72
4
 73
2
 74
0
 40
0
 40
0
 40
4.9
 40
4.9
 10
7.8217
 20
-10.3757
 30
0
 10
8.08521
 20
-10.6392
 30
0
  0
SPLINE
  5
B0A
330
A02
100
AcDbEntity
  8
Shape2DView
100
AcDbSpline
210
0
220
0
230
1
 70
8
 71
1
 72
4
 73
2
 74
0
 40
0
 40
0
 40
40
 40
40
 10
5.67062
 20
-12.5268
 30
0
 10
7.8217
 20
-10.3757
 30
0
  0
SPLINE
  5
B0B
330
A02
100
AcDbEntity
  8
Shape2DView
100
AcDbSpline
210
0
220
0
230
1
 70
8
 71
1
 72
4
 73
2
 74
0
 40
0
 40
0
 40
17.4
 40
17.4
 10
4.7349
 20
-11.5911
 30
0
 10
5.67062
 20
-12.5268
 30
0
  0
SPLINE
  5
B0C
330
A02
100
AcDbEntity
  8
Shape2DView
100
AcDbSpline
210
0
220
0
230
1
 70
8
 71
1
 72
4
 73
2
 74
0
 40
0
 40
0
 40
4.3
 40
4.3
 10
4.50365
 20
-11.8223
 30
0
 10
4.7349
 20
-11.5911
 30
0
  0
SPLINE
  5
B0D
330
A02
100
AcDbEntity
  8
Shape2DView
100
AcDbSpline
210
0
220
0
230
1
 70
8
 71
1
 72
4
 73
2
 74
0
 40
0
 40
0
 40
22.6753
 40
22.6753
 10
8.1121
 20
-12.8602
 30
0
 10
9.74155
 20
-12.2956
 30
0
  0
SPLINE
  5
B0E
330
A02
100
AcDbEntity
  8
Shape2DView
100
AcDbSpline
210
0
220
0
230
1
 70
8
 71
1
 72
4
 73
2
 74
0
 40
0
 40
0
 40
22.7192
 40
22.7192
 10
8.67138
 20
-11.2254
 30
0
 10
8.1121
 20
-12.8602
 30
0
  0
SPLINE
  5
B0F
330
A02
100
AcDbEntity
  8
Shape2DView
100
AcDbSpline
210
0
220
0
230
1
 70
8
 71
1
 72
4
 73
2
 74
0
 40
0
 40
0
 40
5.2
 40
5.2
 10
8.39174
 20
-10.9458
 30
0
 10
8.67138
 20
-11.2254
 30
0
  0
SPLINE
  5
B10
330
A02
100
AcDbEntity
  8
Shape2DView
100
AcDbSpline
210
0
220
0
230
1
 70
8
 71
1
 72
4
 73
2
 74
0
 40
0
 40
0
 40
28.7111
 40
28.7111
 10
7.69802
 20
-13.0162
 30
0
 10
8.39174
 20
-10.9458
 30
0
  0
SPLINE
  5
B11
330
A02
100
AcDbEntity
  8
Shape2DView
100
AcDbSpline
210
0
220
0
230
1
 70
8
 71
1
 72
4
 73
2
 74
0
 40
0
 40
0
 40
18.6
 40
18.6
 10
6.69776
 20
-14.0164
 30
0
 10
7.69802
 20
-13.0162
 30
0
  0
SPLINE
  5
B12
330
A02
100
AcDbEntity
  8
Shape2DView
100
AcDbSpline
210
0
220
0
230
1
 70
8
 71
1
 72
4
 73
2
 74
0
 40
0
 40
0
 40
4.7
 40
4.7
 10
6.95051
 20
-14.2692
 30
0
 10
6.69776
 20
-14.0164
 30
0
  0
SPLINE
  5
B13
330
A02
100
AcDbEntity
  8
Shape2DView
100
AcDbSpline
210
0
220
0
230
1
 70
8
 71
1
 72
4
 73
2
 74
0
 40
0
 40
0
 40
18.6
 40
18.6
 10
7.95077
 20
-13.2689
 30
0
 10
6.95051
 20
-14.2692
 30
0
  0
SPLINE
  5
B14
330
A02
100
AcDbEntity
  8
Shape2DView
100
AcDbSpline
210
0
220
0
230
1
 70
8
 71
1
 72
4
 73
2
 74
0
 40
0
 40
0
 40
28.7559
 40
28.7559
 10
10.0266
 20
-12.5806
 30
0
 10
7.95077
 20
-13.2689
 30
0
  0
SPLINE
  5
B15
330
A02
100
AcDbEntity
  8
Shape2DView
100
AcDbSpline
210
0
220
0
230
1
 70
8
 71
1
 72
4
 73
2
 74
0
 40
0
 40
0
 40
5.3
 40
5.3
 10
9.74155
 20
-12.2956
 30
0
 10
10.0266
 20
-12.5806
 30
0
  0
SPLINE
  5
B16
330
A02
100
AcDbEntity
  8
Shape2DView
100
AcDbSpline
210
0
220
0
230
1
 70
8
 71
1
 72
4
 73
2
 74
0
 40
0
 40
0
 40
13.1557
 40
13.1557
 10
12.9198
 20
-15.4738
 30
0
 10
11.1559
 20
-18.4746
 30
0
  0
SPLINE
  5
B17
330
A02
100
AcDbEntity
  8
Shape2DView
100
AcDbSpline
210
0
220
0
230
1
 70
8
 71
1
 72
4
 73
2
 74
0
 40
0
 40
0
 40
2.78819
 40
2.78819
 10
12.3981
 20
-14.9521
 30
0
 10
12.9198
 20
-15.4738
 30
0
  0
SPLINE
  5
B18
330
A02
100
AcDbEntity
  8
Shape2DView
100
AcDbSpline
210
0
220
0
230
1
 70
8
 71
1
 72
4
 73
2
 74
0
 40
0
 40
0
 40
13.1485
 40
13.1485
 10
9.40275
 20
-16.7214
 30
0
 10
12.3981
 20
-14.9521
 30
0
  0
SPLINE
  5
B19
330
A02
100
AcDbEntity
  8
Shape2DView
100
AcDbSpline
210
0
220
0
230
1
 70
8
 71
1
 72
4
 73
2
 74
0
 40
0
 40
0
 40
1.40847
 40
1.40847
 10
9.66626
 20
-16.9849
 30
0
 10
9.40275
 20
-16.7214
 30
0
  0
SPLINE
  5
B1A
330
A02
100
AcDbEntity
  8
Shape2DView
100
AcDbSpline
210
0
220
0
230
1
 70
8
 71
1
 72
4
 73
2
 74
0
 40
0
 40
0
 40
3.3681
 40
3.3681
 10
10.4406
 20
-16.544
 30
0
 10
9.66626
 20
-16.9849
 30
0
  0
SPLINE
  5
B1B
330
A02
100
AcDbEntity
  8
Shape2DView
100
AcDbSpline
210
0
220
0
230
1
 70
8
 71
1
 72
4
 73
2
 74
0
 40
0
 40
0
 40
4.77154
 40
4.77154
 10
11.3333
 20
-17.4367
 30
0
 10
10.4406
 20
-16.544
 30
0
  0
SPLINE
  5
B1C
330
A02
100
AcDbEntity
  8
Shape2DView
100
AcDbSpline
210
0
220
0
230
1
 70
8
 71
1
 72
4
 73
2
 74
0
 40
0
 40
0
 40
3.3681
 40
3.3681
 10
10.8924
 20
-18.211
 30
0
 10
11.3333
 20
-17.4367
 30
0
  0
SPLINE
  5
B1D
330
A02
100
AcDbEntity
  8
Shape2DView
100
AcDbSpline
210
0
220
0
230
1
 70
8
 71
1
 72
4
 73
2
 74
0
 40
0
 40
0
 40
1.40847
 40
1.40847
 10
11.1559
 20
-18.4746
 30
0
 10
10.8924
 20
-18.211
 30
0
  0
SPLINE
  5
B1E
330
A02
100
AcDbEntity
  8
Shape2DView
100
AcDbSpline
210
0
220
0
230
1
 70
8
 71
1
 72
4
 73
2
 74
0
 40
0
 40
0
 40
13.1557
 40
13.1557
 10
13.8555
 20
-9.30017
 30
0
 10
12.0916
 20
-12.3009
 30
0
  0
SPLINE
  5
B1F
330
A02
100
AcDbEntity
  8
Shape2DView
100
AcDbSpline
210
0
220
0
230
1
 70
8
 71
1
 72
4
 73
2
 74
0
 40
0
 40
0
 40
2.78819
 40
2.78819
 10
13.3339
 20
-8.77853
 30
0
 10
13.8555
 20
-9.30017
 30
0
  0
SPLINE
  5
B20
330
A02
100
AcDbEntity
  8
Shape2DView
100
AcDbSpline
210
0
220
0
230
1
 70
8
 71
1
 72
4
 73
2
 74
0
 40
0
 40
0
 40
13.1485
 40
13.1485
 10
10.3385
 20
-10.5478
 30
0
 10
13.3339
 20
-8.77853
 30
0
  0
SPLINE
  5
B21
330
A02
100
AcDbEntity
  8
Shape2DView
100
AcDbSpline
210
0
220
0
230
1
 70
8
 71
1
 72
4
 73
2
 74
0
 40
0
 40
0
 40
1.40847
 40
1.40847
 10
10.602
 20
-10.8113
 30
0
 10
10.3385
 20
-10.5478
 30
0
  0
SPLINE
  5
B22
330
A02
100
AcDbEntity
  8
Shape2DView
100
AcDbSpline
210
0
220
0
230
1
 70
8
 71
1
 72
4
 73
2
 74
0
 40
0
 40
0
 40
3.36811
 40
3.36811
 10
11.3764
 20
-10.3703
 30
0
 10
10.602
 20
-10.8113
 30
0
  0
SPLINE
  5
B23
330
A02
100
AcDbEntity
  8
Shape2DView
100
AcDbSpline
210
0
220
0
230
1
 70
8
 71
1
 72
4
 73
2
 74
0
 40
0
 40
0
 40
4.77154
 40
4.77154
 10
12.2691
 20
-11.263
 30
0
 10
11.3764
 20
-10.3703
 30
0
  0
SPLINE
  5
B24
330
A02
100
AcDbEntity
  8
Shape2DView
100
AcDbSpline
210
0
220
0
230
1
 70
8
 71
1
 72
4
 73
2
 74
0
 40
0
 40
0
 40
3.36811
 40
3.36811
 10
11.8281
 20
-12.0374
 30
0
 10
12.2691
 20
-11.263
 30
0
  0
SPLINE
  5
B25
330
A02
100
AcDbEntity
  8
Shape2DView
100
AcDbSpline
210
0
220
0
230
1
 70
8
 71
1
 72
4
 73
2
 74
0
 40
0
 40
0
 40
1.40847
 40
1.40847
 10
12.0916
 20
-12.3009
 30
0
 10
11.8281
 20
-12.0374
 30
0
  0
SPLINE
  5
B26
330
A02
100
AcDbEntity
  8
Shape2DView
100
AcDbSpline
210
0
220
0
230
1
 70
8
 71
1
 72
4
 73
2
 74
0
 40
0
 40
0
 40
39.6445
 40
39.6445
 10
15.2752
 20
-10.7199
 30
0
 10
13.8394
 20
-13.3711
 30
0
  0
SPLINE
  5
B27
330
A02
100
AcDbEntity
  8
Shape2DView
100
AcDbSpline
210
0
220
0
230
1
 70
8
 71
1
 72
4
 73
2
 74
0
 40
0
 40
0
 40
8.6
 40
8.6
 10
14.8127
 20
-10.2574
 30
0
 10
15.2752
 20
-10.7199
 30
0
  0
SPLINE
  5
B28
330
A02
100
AcDbEntity
  8
Shape2DView
100
AcDbSpline
210
0
220
0
230
1
 70
8
 71
1
 72
4
 73
2
 74
0
 40
0
 40
0
 40
44.3
 40
44.3
 10
12.4304
 20
-12.6397
 30
0
 10
14.8127
 20
-10.2574
 30
0
  0
SPLINE
  5
B29
330
A02
100
AcDbEntity
  8
Shape2DView
100
AcDbSpline
210
0
220
0
230
1
 70
8
 71
1
 72
4
 73
2
 74
0
 40
0
 40
0
 40
4.7
 40
4.7
 10
12.6832
 20
-12.8925
 30
0
 10
12.4304
 20
-12.6397
 30
0
  0
SPLINE
  5
B2A
330
A02
100
AcDbEntity
  8
Shape2DView
100
AcDbSpline
210
0
220
0
230
1
 70
8
 71
1
 72
4
 73
2
 74
0
 40
0
 40
0
 40
39.9
 40
39.9
 10
14.8289
 20
-10.7468
 30
0
 10
12.6832
 20
-12.8925
 30
0
  0
SPLINE
  5
B2B
330
A02
100
AcDbEntity
  8
Shape2DView
100
AcDbSpline
210
0
220
0
230
1
 70
8
 71
1
 72
4
 73
2
 74
0
 40
0
 40
0
 40
0.9
 40
0.9
 10
14.8773
 20
-10.7952
 30
0
 10
14.8289
 20
-10.7468
 30
0
  0
SPLINE
  5
B2C
330
A02
100
AcDbEntity
  8
Shape2DView
100
AcDbSpline
210
0
220
0
230
1
 70
8
 71
1
 72
4
 73
2
 74
0
 40
0
 40
0
 40
39.9322
 40
39.9322
 10
13.4253
 20
-13.4625
 30
0
 10
14.8773
 20
-10.7952
 30
0
  0
SPLINE
  5
B2D
330
A02
100
AcDbEntity
  8
Shape2DView
100
AcDbSpline
210
0
220
0
230
1
 70
8
 71
1
 72
4
 73
2
 74
0
 40
0
 40
0
 40
6.1
 40
6.1
 10
13.7533
 20
-13.7906
 30
0
 10
13.4253
 20
-13.4625
 30
0
  0
SPLINE
  5
B2E
330
A02
100
AcDbEntity
  8
Shape2DView
100
AcDbSpline
210
0
220
0
230
1
 70
8
 71
1
 72
4
 73
2
 74
0
 40
0
 40
0
 40
39.904
 40
39.904
 10
16.4153
 20
-12.3332
 30
0
 10
13.7533
 20
-13.7906
 30
0
  0
SPLINE
  5
B2F
330
A02
100
AcDbEntity
  8
Shape2DView
100
AcDbSpline
210
0
220
0
230
1
 70
8
 71
1
 72
4
 73
2
 74
0
 40
0
 40
0
 40
1
 40
1
 10
16.4691
 20
-12.387
 30
0
 10
16.4153
 20
-12.3332
 30
0
  0
SPLINE
  5
B30
330
A02
100
AcDbEntity
  8
Shape2DView
100
AcDbSpline
210
0
220
0
230
1
 70
8
 71
1
 72
4
 73
2
 74
0
 40
0
 40
0
 40
39.9
 40
39.9
 10
14.3234
 20
-14.5327
 30
0
 10
16.4691
 20
-12.387
 30
0
  0
SPLINE
  5
B31
330
A02
100
AcDbEntity
  8
Shape2DView
100
AcDbSpline
210
0
220
0
230
1
 70
8
 71
1
 72
4
 73
2
 74
0
 40
0
 40
0
 40
4.6
 40
4.6
 10
14.5707
 20
-14.7801
 30
0
 10
14.3234
 20
-14.5327
 30
0
  0
SPLINE
  5
B32
330
A02
100
AcDbEntity
  8
Shape2DView
100
AcDbSpline
210
0
220
0
230
1
 70
8
 71
1
 72
4
 73
2
 74
0
 40
0
 40
0
 40
44.3
 40
44.3
 10
16.9531
 20
-12.3977
 30
0
 10
14.5707
 20
-14.7801
 30
0
  0
SPLINE
  5
B33
330
A02
100
AcDbEntity
  8
Shape2DView
100
AcDbSpline
210
0
220
0
230
1
 70
8
 71
1
 72
4
 73
2
 74
0
 40
0
 40
0
 40
8.6
 40
8.6
 10
16.4906
 20
-11.9353
 30
0
 10
16.9531
 20
-12.3977
 30
0
  0
SPLINE
  5
B34
330
A02
100
AcDbEntity
  8
Shape2DView
100
AcDbSpline
210
0
220
0
230
1
 70
8
 71
1
 72
4
 73
2
 74
0
 40
0
 40
0
 40
39.6445
 40
39.6445
 10
13.8394
 20
-13.3711
 30
0
 10
16.4906
 20
-11.9353
 30
0
  0
SPLINE
  5
B35
330
A02
100
AcDbEntity
  8
Shape2DView
100
AcDbSpline
210
0
220
0
230
1
 70
8
 71
1
 72
4
 73
2
 74
0
 40
0
 40
0
 40
0.028745
 40
0.028745
 10
6.36972
 20
-8.92373
 30
0
 10
6.3751
 20
-8.92911
 30
0
  0
SPLINE
  5
B36
330
A02
100
AcDbEntity
  8
Shape2DView
100
AcDbSpline
210
0
220
0
230
1
 70
8
 71
1
 72
4
 73
2
 74
0
 40
0
 40
0
 40
8.93945
 40
8.93945
 10
4.69725
 20
-10.5962
 30
0
 10
6.36972
 20
-8.92373
 30
0
  0
SPLINE
  5
B37
330
A02
100
AcDbEntity
  8
Shape2DView
100
AcDbSpline
210
0
220
0
230
1
 70
8
 71
3
 72
8
 73
4
 74
0
 40
0
 40
0
 40
0
 40
0
 40
1
 40
1
 40
1
 40
1
 10
3.67548
 20
-10.5962
 30
0
 10
4.02504
 20
-10.9458
 30
0
 10
4.33157
 20
-10.9619
 30
0
 10
4.69725
 20
-10.5962
 30
0
  0
SPLINE
  5
B38
330
A02
100
AcDbEntity
  8
Shape2DView
100
AcDbSpline
210
0
220
0
230
1
 70
8
 71
3
 72
8
 73
4
 74
0
 40
0
 40
0
 40
0
 40
0
 40
1
 40
1
 40
1
 40
1
 10
3.67548
 20
-9.57444
 30
0
 10
3.3098
 20
-9.94012
 30
0
 10
3.32056
 20
-10.2413
 30
0
 10
3.67548
 20
-10.5962
 30
0
  0
SPLINE
  5
B39
330
A02
100
AcDbEntity
  8
Shape2DView
100
AcDbSpline
210
0
220
0
230
1
 70
8
 71
1
 72
4
 73
2
 74
0
 40
0
 40
0
 40
8.93945
 40
8.93945
 10
5.34795
 20
-7.90197
 30
0
 10
3.67548
 20
-9.57444
 30
0
  0
SPLINE
  5
B3A
330
A02
100
AcDbEntity
  8
Shape2DView
100
AcDbSpline
210
0
220
0
230
1
 70
8
 71
1
 72
4
 73
2
 74
0
 40
0
 40
0
 40
1.40847
 40
1.40847
 10
5.08445
 20
-7.63846
 30
0
 10
5.34795
 20
-7.90197
 30
0
  0
SPLINE
  5
B3B
330
A02
100
AcDbEntity
  8
Shape2DView
100
AcDbSpline
210
0
220
0
230
1
 70
8
 71
1
 72
4
 73
2
 74
0
 40
0
 40
0
 40
8.85321
 40
8.85321
 10
3.42811
 20
-9.29479
 30
0
 10
5.08445
 20
-7.63846
 30
0
  0
SPLINE
  5
B3C
330
A02
100
AcDbEntity
  8
Shape2DView
100
AcDbSpline
210
0
220
0
230
1
 70
8
 71
3
 72
8
 73
4
 74
0
 40
0
 40
0
 40
0
 40
0
 40
1
 40
1
 40
1
 40
1
 10
3.44962
 20
-10.8328
 30
0
 10
2.91723
 20
-10.3004
 30
0
 10
2.90647
 20
-9.81643
 30
0
 10
3.42811
 20
-9.29479
 30
0
  0
SPLINE
  5
B3D
330
A02
100
AcDbEntity
  8
Shape2DView
100
AcDbSpline
210
0
220
0
230
1
 70
8
 71
3
 72
8
 73
4
 74
0
 40
0
 40
0
 40
0
 40
0
 40
1
 40
1
 40
1
 40
1
 10
4.98227
 20
-10.849
 30
0
 10
4.46063
 20
-11.3706
 30
0
 10
3.97664
 20
-11.3598
 30
0
 10
3.44962
 20
-10.8328
 30
0
  0
SPLINE
  5
B3E
330
A02
100
AcDbEntity
  8
Shape2DView
100
AcDbSpline
210
0
220
0
230
1
 70
8
 71
1
 72
4
 73
2
 74
0
 40
0
 40
0
 40
8.85321
 40
8.85321
 10
6.63861
 20
-9.19262
 30
0
 10
4.98227
 20
-10.849
 30
0
  0
SPLINE
  5
B3F
330
A02
100
AcDbEntity
  8
Shape2DView
100
AcDbSpline
210
0
220
0
230
1
 70
8
 71
1
 72
4
 73
2
 74
0
 40
0
 40
0
 40
1.40847
 40
1.40847
 10
6.3751
 20
-8.92911
 30
0
 10
6.63861
 20
-9.19262
 30
0
  0
SPLINE
  5
B40
330
A02
100
AcDbEntity
  8
Shape2DView
100
AcDbSpline
210
0
220
0
230
1
 70
8
 71
1
 72
4
 73
2
 74
0
 40
0
 40
0
 40
39.6732
 40
39.6732
 10
2.88496
 20
-5.43897
 30
0
 10
1.45449
 20
-8.09557
 30
0
  0
SPLINE
  5
B41
330
A02
100
AcDbEntity
  8
Shape2DView
100
AcDbSpline
210
0
220
0
230
1
 70
8
 71
1
 72
4
 73
2
 74
0
 40
0
 40
0
 40
8.5
 40
8.5
 10
2.42786
 20
-4.98187
 30
0
 10
2.88496
 20
-5.43897
 30
0
  0
SPLINE
  5
B42
330
A02
100
AcDbEntity
  8
Shape2DView
100
AcDbSpline
210
0
220
0
230
1
 70
8
 71
1
 72
4
 73
2
 74
0
 40
0
 40
0
 40
44.3
 40
44.3
 10
0.0455306
 20
-7.3642
 30
0
 10
2.42786
 20
-4.98187
 30
0
  0
SPLINE
  5
B43
330
A02
100
AcDbEntity
  8
Shape2DView
100
AcDbSpline
210
0
220
0
230
1
 70
8
 71
1
 72
4
 73
2
 74
0
 40
0
 40
0
 40
4.6
 40
4.6
 10
0.292905
 20
-7.61157
 30
0
 10
0.0455306
 20
-7.3642
 30
0
  0
SPLINE
  5
B44
330
A02
100
AcDbEntity
  8
Shape2DView
100
AcDbSpline
210
0
220
0
230
1
 70
8
 71
1
 72
4
 73
2
 74
0
 40
0
 40
0
 40
39.9
 40
39.9
 10
2.43861
 20
-5.46586
 30
0
 10
0.292905
 20
-7.61157
 30
0
  0
SPLINE
  5
B45
330
A02
100
AcDbEntity
  8
Shape2DView
100
AcDbSpline
210
0
220
0
230
1
 70
8
 71
1
 72
4
 73
2
 74
0
 40
0
 40
0
 40
0.9
 40
0.9
 10
2.48701
 20
-5.51426
 30
0
 10
2.43861
 20
-5.46586
 30
0
  0
SPLINE
  5
B46
330
A02
100
AcDbEntity
  8
Shape2DView
100
AcDbSpline
210
0
220
0
230
1
 70
8
 71
1
 72
4
 73
2
 74
0
 40
0
 40
0
 40
39.9606
 40
39.9606
 10
1.04041
 20
-8.18699
 30
0
 10
2.48701
 20
-5.51426
 30
0
  0
SPLINE
  5
B47
330
A02
100
AcDbEntity
  8
Shape2DView
100
AcDbSpline
210
0
220
0
230
1
 70
8
 71
1
 72
4
 73
2
 74
0
 40
0
 40
0
 40
6
 40
6
 10
1.36307
 20
-8.50965
 30
0
 10
1.04041
 20
-8.18699
 30
0
  0
SPLINE
  5
B48
330
A02
100
AcDbEntity
  8
Shape2DView
100
AcDbSpline
210
0
220
0
230
1
 70
8
 71
1
 72
4
 73
2
 74
0
 40
0
 40
0
 40
39.9322
 40
39.9322
 10
4.03042
 20
-7.05767
 30
0
 10
1.36307
 20
-8.50965
 30
0
  0
SPLINE
  5
B49
330
A02
100
AcDbEntity
  8
Shape2DView
100
AcDbSpline
210
0
220
0
230
1
 70
8
 71
1
 72
4
 73
2
 74
0
 40
0
 40
0
 40
1
 40
1
 10
4.08419
 20
-7.11144
 30
0
 10
4.03042
 20
-7.05767
 30
0
  0
SPLINE
  5
B4A
330
A02
100
AcDbEntity
  8
Shape2DView
100
AcDbSpline
210
0
220
0
230
1
 70
8
 71
1
 72
4
 73
2
 74
0
 40
0
 40
0
 40
39.9
 40
39.9
 10
1.93849
 20
-9.25715
 30
0
 10
4.08419
 20
-7.11144
 30
0
  0
SPLINE
  5
B4B
330
A02
100
AcDbEntity
  8
Shape2DView
100
AcDbSpline
210
0
220
0
230
1
 70
8
 71
1
 72
4
 73
2
 74
0
 40
0
 40
0
 40
4.6
 40
4.6
 10
2.18586
 20
-9.50453
 30
0
 10
1.93849
 20
-9.25715
 30
0
  0
SPLINE
  5
B4C
330
A02
100
AcDbEntity
  8
Shape2DView
100
AcDbSpline
210
0
220
0
230
1
 70
8
 71
1
 72
4
 73
2
 74
0
 40
0
 40
0
 40
44.3
 40
44.3
 10
4.56819
 20
-7.1222
 30
0
 10
2.18586
 20
-9.50453
 30
0
  0
SPLINE
  5
B4D
330
A02
100
AcDbEntity
  8
Shape2DView
100
AcDbSpline
210
0
220
0
230
1
 70
8
 71
1
 72
4
 73
2
 74
0
 40
0
 40
0
 40
8.7
 40
8.7
 10
4.10033
 20
-6.65434
 30
0
 10
4.56819
 20
-7.1222
 30
0
  0
SPLINE
  5
B4E
330
A02
100
AcDbEntity
  8
Shape2DView
100
AcDbSpline
210
0
220
0
230
1
 70
8
 71
1
 72
4
 73
2
 74
0
 40
0
 40
0
 40
39.6162
 40
39.6162
 10
1.45449
 20
-8.09557
 30
0
 10
4.10033
 20
-6.65434
 30
0
  0
SPLINE
  5
B4F
330
A02
100
AcDbEntity
  8
Shape2DView
100
AcDbSpline
210
0
220
0
230
1
 70
8
 71
1
 72
4
 73
2
 74
0
 40
0
 40
0
 40
6.10328
 40
6.10328
 10
10.7848
 20
-8.89684
 30
0
 10
10.4675
 20
-8.55805
 30
0
  0
SPLINE
  5
B50
330
A02
100
AcDbEntity
  8
Shape2DView
100
AcDbSpline
210
0
220
0
230
1
 70
8
 71
1
 72
4
 73
2
 74
0
 40
0
 40
0
 40
19.5
 40
19.5
 10
9.73617
 20
-9.9455
 30
0
 10
10.7848
 20
-8.89684
 30
0
  0
SPLINE
  5
B51
330
A02
100
AcDbEntity
  8
Shape2DView
100
AcDbSpline
210
0
220
0
230
1
 70
8
 71
1
 72
4
 73
2
 74
0
 40
0
 40
0
 40
4.8
 40
4.8
 10
9.9943
 20
-10.2036
 30
0
 10
9.73617
 20
-9.9455
 30
0
  0
SPLINE
  5
B52
330
A02
100
AcDbEntity
  8
Shape2DView
100
AcDbSpline
210
0
220
0
230
1
 70
8
 71
1
 72
4
 73
2
 74
0
 40
0
 40
0
 40
44.3
 40
44.3
 10
12.3766
 20
-7.8213
 30
0
 10
9.9943
 20
-10.2036
 30
0
  0
SPLINE
  5
B53
330
A02
100
AcDbEntity
  8
Shape2DView
100
AcDbSpline
210
0
220
0
230
1
 70
8
 71
1
 72
4
 73
2
 74
0
 40
0
 40
0
 40
4.8
 40
4.8
 10
12.1185
 20
-7.56317
 30
0
 10
12.3766
 20
-7.8213
 30
0
  0
SPLINE
  5
B54
330
A02
100
AcDbEntity
  8
Shape2DView
100
AcDbSpline
210
0
220
0
230
1
 70
8
 71
1
 72
4
 73
2
 74
0
 40
0
 40
0
 40
20.5
 40
20.5
 10
11.0161
 20
-8.6656
 30
0
 10
12.1185
 20
-7.56317
 30
0
  0
SPLINE
  5
B55
330
A02
100
AcDbEntity
  8
Shape2DView
100
AcDbSpline
210
0
220
0
230
1
 70
8
 71
1
 72
4
 73
2
 74
0
 40
0
 40
0
 40
6.0075
 40
6.0075
 10
10.7095
 20
-8.32681
 30
0
 10
11.0161
 20
-8.6656
 30
0
  0
SPLINE
  5
B56
330
A02
100
AcDbEntity
  8
Shape2DView
100
AcDbSpline
210
0
220
0
230
1
 70
8
 71
1
 72
4
 73
2
 74
0
 40
0
 40
0
 40
22.8589
 40
22.8589
 10
11.2204
 20
-6.66509
 30
0
 10
10.7095
 20
-8.32681
 30
0
  0
SPLINE
  5
B57
330
A02
100
AcDbEntity
  8
Shape2DView
100
AcDbSpline
210
0
220
0
230
1
 70
8
 71
1
 72
4
 73
2
 74
0
 40
0
 40
0
 40
5.5
 40
5.5
 10
10.9246
 20
-6.36932
 30
0
 10
11.2204
 20
-6.66509
 30
0
  0
SPLINE
  5
B58
330
A02
100
AcDbEntity
  8
Shape2DView
100
AcDbSpline
210
0
220
0
230
1
 70
8
 71
1
 72
4
 73
2
 74
0
 40
0
 40
0
 40
24.9243
 40
24.9243
 10
10.3869
 20
-8.18699
 30
0
 10
10.9246
 20
-6.36932
 30
0
  0
SPLINE
  5
B59
330
A02
100
AcDbEntity
  8
Shape2DView
100
AcDbSpline
210
0
220
0
230
1
 70
8
 71
1
 72
4
 73
2
 74
0
 40
0
 40
0
 40
25.7006
 40
25.7006
 10
8.50467
 20
-8.714
 30
0
 10
10.3869
 20
-8.18699
 30
0
  0
SPLINE
  5
B5A
330
A02
100
AcDbEntity
  8
Shape2DView
100
AcDbSpline
210
0
220
0
230
1
 70
8
 71
1
 72
4
 73
2
 74
0
 40
0
 40
0
 40
5.5
 40
5.5
 10
8.80045
 20
-9.00978
 30
0
 10
8.50467
 20
-8.714
 30
0
  0
SPLINE
  5
B5B
330
A02
100
AcDbEntity
  8
Shape2DView
100
AcDbSpline
210
0
220
0
230
1
 70
8
 71
1
 72
4
 73
2
 74
0
 40
0
 40
0
 40
22.7108
 40
22.7108
 10
10.4675
 20
-8.55805
 30
0
 10
8.80045
 20
-9.00978
 30
0
  0
SPLINE
  5
B5C
330
A02
100
AcDbEntity
  8
Shape2DView
100
AcDbSpline
210
0
220
0
230
1
 70
8
 71
1
 72
4
 73
2
 74
0
 40
0
 40
0
 40
44.3
 40
44.3
 10
10.5697
 20
-6.01439
 30
0
 10
8.18739
 20
-8.39672
 30
0
  0
SPLINE
  5
B5D
330
A02
100
AcDbEntity
  8
Shape2DView
100
AcDbSpline
210
0
220
0
230
1
 70
8
 71
1
 72
4
 73
2
 74
0
 40
0
 40
0
 40
24.7
 40
24.7
 10
9.24142
 20
-4.6861
 30
0
 10
10.5697
 20
-6.01439
 30
0
  0
SPLINE
  5
B5E
330
A02
100
AcDbEntity
  8
Shape2DView
100
AcDbSpline
210
0
220
0
230
1
 70
8
 71
1
 72
4
 73
2
 74
0
 40
0
 40
0
 40
4.4
 40
4.4
 10
9.0048
 20
-4.92271
 30
0
 10
9.24142
 20
-4.6861
 30
0
  0
SPLINE
  5
B5F
330
A02
100
AcDbEntity
  8
Shape2DView
100
AcDbSpline
210
0
220
0
230
1
 70
8
 71
1
 72
4
 73
2
 74
0
 40
0
 40
0
 40
19.9
 40
19.9
 10
10.075
 20
-5.99288
 30
0
 10
9.0048
 20
-4.92271
 30
0
  0
SPLINE
  5
B60
330
A02
100
AcDbEntity
  8
Shape2DView
100
AcDbSpline
210
0
220
0
230
1
 70
8
 71
1
 72
4
 73
2
 74
0
 40
0
 40
0
 40
15.2
 40
15.2
 10
9.25755
 20
-6.81029
 30
0
 10
10.075
 20
-5.99288
 30
0
  0
SPLINE
  5
B61
330
A02
100
AcDbEntity
  8
Shape2DView
100
AcDbSpline
210
0
220
0
230
1
 70
8
 71
1
 72
4
 73
2
 74
0
 40
0
 40
0
 40
16.3
 40
16.3
 10
8.38099
 20
-5.93372
 30
0
 10
9.25755
 20
-6.81029
 30
0
  0
SPLINE
  5
B62
330
A02
100
AcDbEntity
  8
Shape2DView
100
AcDbSpline
210
0
220
0
230
1
 70
8
 71
1
 72
4
 73
2
 74
0
 40
0
 40
0
 40
4.3
 40
4.3
 10
8.14974
 20
-6.16497
 30
0
 10
8.38099
 20
-5.93372
 30
0
  0
SPLINE
  5
B63
330
A02
100
AcDbEntity
  8
Shape2DView
100
AcDbSpline
210
0
220
0
230
1
 70
8
 71
1
 72
4
 73
2
 74
0
 40
0
 40
0
 40
16.3
 40
16.3
 10
9.02631
 20
-7.04153
 30
0
 10
8.14974
 20
-6.16497
 30
0
  0
SPLINE
  5
B64
330
A02
100
AcDbEntity
  8
Shape2DView
100
AcDbSpline
210
0
220
0
230
1
 70
8
 71
1
 72
4
 73
2
 74
0
 40
0
 40
0
 40
16
 40
16
 10
8.16588
 20
-7.90197
 30
0
 10
9.02631
 20
-7.04153
 30
0
  0
SPLINE
  5
B65
330
A02
100
AcDbEntity
  8
Shape2DView
100
AcDbSpline
210
0
220
0
230
1
 70
8
 71
1
 72
4
 73
2
 74
0
 40
0
 40
0
 40
19.9
 40
19.9
 10
7.09571
 20
-6.8318
 30
0
 10
8.16588
 20
-7.90197
 30
0
  0
SPLINE
  5
B66
330
A02
100
AcDbEntity
  8
Shape2DView
100
AcDbSpline
210
0
220
0
230
1
 70
8
 71
1
 72
4
 73
2
 74
0
 40
0
 40
0
 40
4.4
 40
4.4
 10
6.85909
 20
-7.06842
 30
0
 10
7.09571
 20
-6.8318
 30
0
  0
SPLINE
  5
B67
330
A02
100
AcDbEntity
  8
Shape2DView
100
AcDbSpline
210
0
220
0
230
1
 70
8
 71
1
 72
4
 73
2
 74
0
 40
0
 40
0
 40
24.7
 40
24.7
 10
8.18739
 20
-8.39672
 30
0
 10
6.85909
 20
-7.06842
 30
0
  0
SPLINE
  5
B68
330
A02
100
AcDbEntity
  8
Shape2DView
100
AcDbSpline
210
0
220
0
230
1
 70
8
 71
1
 72
4
 73
2
 74
0
 40
0
 40
0
 40
1.15121
 40
1.15121
 10
4.71338
 20
-0.663566
 30
0
 10
4.91774
 20
-0.437701
 30
0
  0
SPLINE
  5
B69
330
A02
100
AcDbEntity
  8
Shape2DView
100
AcDbSpline
210
0
220
0
230
1
 70
8
 71
3
 72
8
 73
4
 74
0
 40
0
 40
0
 40
0
 40
0
 40
1
 40
1
 40
1
 40
1
 10
5.36946
 20
-1.22285
 30
0
 10
5.13822
 20
-0.991606
 30
0
 10
4.71338
 20
-0.663566
 30
0
 10
4.71338
 20
-0.663566
 30
0
  0
SPLINE
  5
B6A
330
A02
100
AcDbEntity
  8
Shape2DView
100
AcDbSpline
210
0
220
0
230
1
 70
8
 71
3
 72
8
 73
4
 74
0
 40
0
 40
0
 40
0
 40
0
 40
1
 40
1
 40
1
 40
1
 10
5.44475
 20
-2.09404
 30
0
 10
5.72977
 20
-1.80902
 30
0
 10
5.68675
 20
-1.54013
 30
0
 10
5.36946
 20
-1.22285
 30
0
  0
SPLINE
  5
B6B
330
A02
100
AcDbEntity
  8
Shape2DView
100
AcDbSpline
210
0
220
0
230
1
 70
8
 71
3
 72
8
 73
4
 74
0
 40
0
 40
0
 40
0
 40
0
 40
1
 40
1
 40
1
 40
1
 10
4.4929
 20
-2.01337
 30
0
 10
4.94463
 20
-2.28226
 30
0
 10
5.15973
 20
-2.37906
 30
0
 10
5.44475
 20
-2.09404
 30
0
  0
SPLINE
  5
B6C
330
A02
100
AcDbEntity
  8
Shape2DView
100
AcDbSpline
210
0
220
0
230
1
 70
8
 71
3
 72
8
 73
4
 74
0
 40
0
 40
0
 40
0
 40
0
 40
1
 40
1
 40
1
 40
1
 10
3.20225
 20
-2.02413
 30
0
 10
3.62709
 20
-1.59929
 30
0
 10
3.9605
 20
-1.69609
 30
0
 10
4.4929
 20
-2.01337
 30
0
  0
SPLINE
  5
B6D
330
A02
100
AcDbEntity
  8
Shape2DView
100
AcDbSpline
210
0
220
0
230
1
 70
8
 71
3
 72
8
 73
4
 74
0
 40
0
 40
0
 40
0
 40
0
 40
1
 40
1
 40
1
 40
1
 10
3.18611
 20
-3.47073
 30
0
 10
2.69674
 20
-2.98136
 30
0
 10
2.72363
 20
-2.50274
 30
0
 10
3.20225
 20
-2.02413
 30
0
  0
SPLINE
  5
B6E
330
A02
100
AcDbEntity
  8
Shape2DView
100
AcDbSpline
210
0
220
0
230
1
 70
8
 71
3
 72
8
 73
4
 74
0
 40
0
 40
0
 40
0
 40
0
 40
1
 40
1
 40
1
 40
1
 10
3.93362
 20
-4.08917
 30
0
 10
3.93362
 20
-4.08917
 30
0
 10
3.455
 20
-3.73962
 30
0
 10
3.18611
 20
-3.47073
 30
0
  0
SPLINE
  5
B6F
330
A02
100
AcDbEntity
  8
Shape2DView
100
AcDbSpline
210
0
220
0
230
1
 70
8
 71
1
 72
4
 73
2
 74
0
 40
0
 40
0
 40
1.153
 40
1.153
 10
4.13259
 20
-3.85793
 30
0
 10
3.93362
 20
-4.08917
 30
0
  0
SPLINE
  5
B70
330
A02
100
AcDbEntity
  8
Shape2DView
100
AcDbSpline
210
0
220
0
230
1
 70
8
 71
3
 72
8
 73
4
 74
0
 40
0
 40
0
 40
0
 40
0
 40
1
 40
1
 40
1
 40
1
 10
3.41735
 20
-3.23949
 30
0
 10
3.64322
 20
-3.46535
 30
0
 10
4.13259
 20
-3.85793
 30
0
 10
4.13259
 20
-3.85793
 30
0
  0
SPLINE
  5
B71
330
A02
100
AcDbEntity
  8
Shape2DView
100
AcDbSpline
210
0
220
0
230
1
 70
8
 71
3
 72
8
 73
4
 74
0
 40
0
 40
0
 40
0
 40
0
 40
1
 40
1
 40
1
 40
1
 10
3.44424
 20
-2.3199
 30
0
 10
3.13234
 20
-2.63181
 30
0
 10
3.11082
 20
-2.93296
 30
0
 10
3.41735
 20
-3.23949
 30
0
  0
SPLINE
  5
B72
330
A02
100
AcDbEntity
  8
Shape2DView
100
AcDbSpline
210
0
220
0
230
1
 70
8
 71
3
 72
8
 73
4
 74
0
 40
0
 40
0
 40
0
 40
0
 40
1
 40
1
 40
1
 40
1
 10
4.36921
 20
-2.36292
 30
0
 10
3.97664
 20
-2.11017
 30
0
 10
3.73464
 20
-2.0295
 30
0
 10
3.44424
 20
-2.3199
 30
0
  0
SPLINE
  5
B73
330
A02
100
AcDbEntity
  8
Shape2DView
100
AcDbSpline
210
0
220
0
230
1
 70
8
 71
3
 72
8
 73
4
 74
0
 40
0
 40
0
 40
0
 40
0
 40
1
 40
1
 40
1
 40
1
 10
5.69213
 20
-2.39519
 30
0
 10
5.2888
 20
-2.79852
 30
0
 10
4.91774
 20
-2.69634
 30
0
 10
4.36921
 20
-2.36292
 30
0
  0
SPLINE
  5
B74
330
A02
100
AcDbEntity
  8
Shape2DView
100
AcDbSpline
210
0
220
0
230
1
 70
8
 71
3
 72
8
 73
4
 74
0
 40
0
 40
0
 40
0
 40
0
 40
1
 40
1
 40
1
 40
1
 10
5.62222
 20
-1.00236
 30
0
 10
6.09546
 20
-1.4756
 30
0
 10
6.14923
 20
-1.93808
 30
0
 10
5.69213
 20
-2.39519
 30
0
  0
SPLINE
  5
B75
330
A02
100
AcDbEntity
  8
Shape2DView
100
AcDbSpline
210
0
220
0
230
1
 70
8
 71
3
 72
8
 73
4
 74
0
 40
0
 40
0
 40
0
 40
0
 40
1
 40
1
 40
1
 40
1
 10
4.91774
 20
-0.437701
 30
0
 10
4.91774
 20
-0.437701
 30
0
 10
5.35333
 20
-0.733475
 30
0
 10
5.62222
 20
-1.00236
 30
0
  0
SPLINE
  5
B76
330
A02
100
AcDbEntity
  8
Shape2DView
100
AcDbSpline
210
0
220
0
230
1
 70
8
 71
1
 72
4
 73
2
 74
0
 40
0
 40
0
 40
5.36232
 40
5.36232
 10
6.50416
 20
-4.89583
 30
0
 10
5.17049
 20
-5.37982
 30
0
  0
SPLINE
  5
B77
330
A02
100
AcDbEntity
  8
Shape2DView
100
AcDbSpline
210
0
220
0
230
1
 70
8
 71
1
 72
4
 73
2
 74
0
 40
0
 40
0
 40
3.13312
 40
3.13312
 10
7.09033
 20
-5.482
 30
0
 10
6.50416
 20
-4.89583
 30
0
  0
SPLINE
  5
B78
330
A02
100
AcDbEntity
  8
Shape2DView
100
AcDbSpline
210
0
220
0
230
1
 70
8
 71
1
 72
4
 73
2
 74
0
 40
0
 40
0
 40
4.88651
 40
4.88651
 10
6.17612
 20
-6.39621
 30
0
 10
7.09033
 20
-5.482
 30
0
  0
SPLINE
  5
B79
330
A02
100
AcDbEntity
  8
Shape2DView
100
AcDbSpline
210
0
220
0
230
1
 70
8
 71
1
 72
4
 73
2
 74
0
 40
0
 40
0
 40
1.40847
 40
1.40847
 10
6.43963
 20
-6.65972
 30
0
 10
6.17612
 20
-6.39621
 30
0
  0
SPLINE
  5
B7A
330
A02
100
AcDbEntity
  8
Shape2DView
100
AcDbSpline
210
0
220
0
230
1
 70
8
 71
1
 72
4
 73
2
 74
0
 40
0
 40
0
 40
12.7337
 40
12.7337
 10
8.82196
 20
-4.27739
 30
0
 10
6.43963
 20
-6.65972
 30
0
  0
SPLINE
  5
B7B
330
A02
100
AcDbEntity
  8
Shape2DView
100
AcDbSpline
210
0
220
0
230
1
 70
8
 71
1
 72
4
 73
2
 74
0
 40
0
 40
0
 40
4.19665
 40
4.19665
 10
8.03681
 20
-3.49224
 30
0
 10
8.82196
 20
-4.27739
 30
0
  0
SPLINE
  5
B7C
330
A02
100
AcDbEntity
  8
Shape2DView
100
AcDbSpline
210
0
220
0
230
1
 70
8
 71
3
 72
8
 73
4
 74
0
 40
0
 40
0
 40
0
 40
0
 40
1
 40
1
 40
1
 40
1
 10
6.60096
 20
-3.49762
 30
0
 10
7.10109
 20
-2.99749
 30
0
 10
7.56895
 20
-3.02438
 30
0
 10
8.03681
 20
-3.49224
 30
0
  0
SPLINE
  5
B7D
330
A02
100
AcDbEntity
  8
Shape2DView
100
AcDbSpline
210
0
220
0
230
1
 70
8
 71
3
 72
8
 73
4
 74
0
 40
0
 40
0
 40
0
 40
0
 40
1
 40
1
 40
1
 40
1
 10
6.30519
 20
-4.5893
 30
0
 10
6.15999
 20
-4.28277
 30
0
 10
6.16537
 20
-3.93321
 30
0
 10
6.60096
 20
-3.49762
 30
0
  0
SPLINE
  5
B7E
330
A02
100
AcDbEntity
  8
Shape2DView
100
AcDbSpline
210
0
220
0
230
1
 70
8
 71
1
 72
4
 73
2
 74
0
 40
0
 40
0
 40
5.69585
 40
5.69585
 10
4.88547
 20
-5.0948
 30
0
 10
6.30519
 20
-4.5893
 30
0
  0
SPLINE
  5
B7F
330
A02
100
AcDbEntity
  8
Shape2DView
100
AcDbSpline
210
0
220
0
230
1
 70
8
 71
1
 72
4
 73
2
 74
0
 40
0
 40
0
 40
1.52344
 40
1.52344
 10
5.17049
 20
-5.37982
 30
0
 10
4.88547
 20
-5.0948
 30
0
  0
SPLINE
  5
B80
330
A02
100
AcDbEntity
  8
Shape2DView
100
AcDbSpline
210
0
220
0
230
1
 70
8
 71
1
 72
4
 73
2
 74
0
 40
0
 40
0
 40
4.2
 40
4.2
 10
6.13848
 20
-3.14269
 30
0
 10
5.91262
 20
-2.91683
 30
0
  0
SPLINE
  5
B81
330
A02
100
AcDbEntity
  8
Shape2DView
100
AcDbSpline
210
0
220
0
230
1
 70
8
 71
1
 72
4
 73
2
 74
0
 40
0
 40
0
 40
14.6014
 40
14.6014
 10
6.93438
 20
-2.3683
 30
0
 10
6.13848
 20
-3.14269
 30
0
  0
SPLINE
  5
B82
330
A02
100
AcDbEntity
  8
Shape2DView
100
AcDbSpline
210
0
220
0
230
1
 70
8
 71
1
 72
4
 73
2
 74
0
 40
0
 40
0
 40
4.5
 40
4.5
 10
6.69238
 20
-2.1263
 30
0
 10
6.93438
 20
-2.3683
 30
0
  0
SPLINE
  5
B83
330
A02
100
AcDbEntity
  8
Shape2DView
100
AcDbSpline
210
0
220
0
230
1
 70
8
 71
1
 72
4
 73
2
 74
0
 40
0
 40
0
 40
14.6003
 40
14.6003
 10
5.91262
 20
-2.91683
 30
0
 10
6.69238
 20
-2.1263
 30
0
  0
SPLINE
  5
B84
330
A02
100
AcDbEntity
  8
Shape2DView
100
AcDbSpline
210
0
220
0
230
1
 70
8
 71
1
 72
4
 73
2
 74
0
 40
0
 40
0
 40
0.5174
 40
0.5174
 10
5.54155
 20
0.562554
 30
0
 10
5.44475
 20
0.465755
 30
0
  0
SPLINE
  5
B85
330
A02
100
AcDbEntity
  8
Shape2DView
100
AcDbSpline
210
0
220
0
230
1
 70
8
 71
1
 72
4
 73
2
 74
0
 40
0
 40
0
 40
2.06958
 40
2.06958
 10
5.15436
 20
0.94975
 30
0
 10
5.54155
 20
0.562554
 30
0
  0
SPLINE
  5
B86
330
A02
100
AcDbEntity
  8
Shape2DView
100
AcDbSpline
210
0
220
0
230
1
 70
8
 71
1
 72
4
 73
2
 74
0
 40
0
 40
0
 40
0.5174
 40
0.5174
 10
5.05756
 20
0.85295
 30
0
 10
5.15436
 20
0.94975
 30
0
  0
SPLINE
  5
B87
330
A02
100
AcDbEntity
  8
Shape2DView
100
AcDbSpline
210
0
220
0
230
1
 70
8
 71
1
 72
4
 73
2
 74
0
 40
0
 40
0
 40
0.689861
 40
0.689861
 10
5.18662
 20
0.723885
 30
0
 10
5.05756
 20
0.85295
 30
0
  0
SPLINE
  5
B88
330
A02
100
AcDbEntity
  8
Shape2DView
100
AcDbSpline
210
0
220
0
230
1
 70
8
 71
1
 72
4
 73
2
 74
0
 40
0
 40
0
 40
2.55823
 40
2.55823
 10
4.70801
 20
0.245269
 30
0
 10
5.18662
 20
0.723885
 30
0
  0
SPLINE
  5
B89
330
A02
100
AcDbEntity
  8
Shape2DView
100
AcDbSpline
210
0
220
0
230
1
 70
8
 71
1
 72
4
 73
2
 74
0
 40
0
 40
0
 40
0.574884
 40
0.574884
 10
4.81556
 20
0.137715
 30
0
 10
4.70801
 20
0.245269
 30
0
  0
SPLINE
  5
B8A
330
A02
100
AcDbEntity
  8
Shape2DView
100
AcDbSpline
210
0
220
0
230
1
 70
8
 71
1
 72
4
 73
2
 74
0
 40
0
 40
0
 40
2.55823
 40
2.55823
 10
5.29418
 20
0.616331
 30
0
 10
4.81556
 20
0.137715
 30
0
  0
SPLINE
  5
B8B
330
A02
100
AcDbEntity
  8
Shape2DView
100
AcDbSpline
210
0
220
0
230
1
 70
8
 71
1
 72
4
 73
2
 74
0
 40
0
 40
0
 40
0.804837
 40
0.804837
 10
5.44475
 20
0.465755
 30
0
 10
5.29418
 20
0.616331
 30
0
  0
SPLINE
  5
B8C
330
A02
100
AcDbEntity
  8
Shape2DView
100
AcDbSpline
210
0
220
0
230
1
 70
8
 71
1
 72
4
 73
2
 74
0
 40
0
 40
0
 40
3.10451
 40
3.10451
 10
5.0952
 20
1.0089
 30
0
 10
4.50903
 20
0.433488
 30
0
  0
SPLINE
  5
B8D
330
A02
100
AcDbEntity
  8
Shape2DView
100
AcDbSpline
210
0
220
0
230
1
 70
8
 71
1
 72
4
 73
2
 74
0
 40
0
 40
0
 40
0.747349
 40
0.747349
 10
4.95538
 20
1.14873
 30
0
 10
5.0952
 20
1.0089
 30
0
  0
SPLINE
  5
B8E
330
A02
100
AcDbEntity
  8
Shape2DView
100
AcDbSpline
210
0
220
0
230
1
 70
8
 71
1
 72
4
 73
2
 74
0
 40
0
 40
0
 40
2.26351
 40
2.26351
 10
4.42299
 20
0.874461
 30
0
 10
4.95538
 20
1.14873
 30
0
  0
SPLINE
  5
B8F
330
A02
100
AcDbEntity
  8
Shape2DView
100
AcDbSpline
210
0
220
0
230
1
 70
8
 71
1
 72
4
 73
2
 74
0
 40
0
 40
0
 40
2.27243
 40
2.27243
 10
4.69187
 20
1.41223
 30
0
 10
4.42299
 20
0.874461
 30
0
  0
SPLINE
  5
B90
330
A02
100
AcDbEntity
  8
Shape2DView
100
AcDbSpline
210
0
220
0
230
1
 70
8
 71
1
 72
4
 73
2
 74
0
 40
0
 40
0
 40
0.747349
 40
0.747349
 10
4.55205
 20
1.55205
 30
0
 10
4.69187
 20
1.41223
 30
0
  0
SPLINE
  5
B91
330
A02
100
AcDbEntity
  8
Shape2DView
100
AcDbSpline
210
0
220
0
230
1
 70
8
 71
1
 72
4
 73
2
 74
0
 40
0
 40
0
 40
3.10438
 40
3.10438
 10
3.97126
 20
0.971259
 30
0
 10
4.55205
 20
1.55205
 30
0
  0
SPLINE
  5
B92
330
A02
100
AcDbEntity
  8
Shape2DView
100
AcDbSpline
210
0
220
0
230
1
 70
8
 71
1
 72
4
 73
2
 74
0
 40
0
 40
0
 40
0.54614
 40
0.54614
 10
4.07344
 20
0.869083
 30
0
 10
3.97126
 20
0.971259
 30
0
  0
SPLINE
  5
B93
330
A02
100
AcDbEntity
  8
Shape2DView
100
AcDbSpline
210
0
220
0
230
1
 70
8
 71
1
 72
4
 73
2
 74
0
 40
0
 40
0
 40
2.32828
 40
2.32828
 10
4.50903
 20
1.30468
 30
0
 10
4.07344
 20
0.869083
 30
0
  0
SPLINE
  5
B94
330
A02
100
AcDbEntity
  8
Shape2DView
100
AcDbSpline
210
0
220
0
230
1
 70
8
 71
1
 72
4
 73
2
 74
0
 40
0
 40
0
 40
2.2635
 40
2.2635
 10
4.23477
 20
0.772285
 30
0
 10
4.50903
 20
1.30468
 30
0
  0
SPLINE
  5
B95
330
A02
100
AcDbEntity
  8
Shape2DView
100
AcDbSpline
210
0
220
0
230
1
 70
8
 71
1
 72
4
 73
2
 74
0
 40
0
 40
0
 40
0.431163
 40
0.431163
 10
4.31543
 20
0.691619
 30
0
 10
4.23477
 20
0.772285
 30
0
  0
SPLINE
  5
B96
330
A02
100
AcDbEntity
  8
Shape2DView
100
AcDbSpline
210
0
220
0
230
1
 70
8
 71
1
 72
4
 73
2
 74
0
 40
0
 40
0
 40
2.2549
 40
2.2549
 10
4.84245
 20
0.971259
 30
0
 10
4.31543
 20
0.691619
 30
0
  0
SPLINE
  5
B97
330
A02
100
AcDbEntity
  8
Shape2DView
100
AcDbSpline
210
0
220
0
230
1
 70
8
 71
1
 72
4
 73
2
 74
0
 40
0
 40
0
 40
2.32828
 40
2.32828
 10
4.40685
 20
0.535665
 30
0
 10
4.84245
 20
0.971259
 30
0
  0
SPLINE
  5
B98
330
A02
100
AcDbEntity
  8
Shape2DView
100
AcDbSpline
210
0
220
0
230
1
 70
8
 71
1
 72
4
 73
2
 74
0
 40
0
 40
0
 40
0.54614
 40
0.54614
 10
4.50903
 20
0.433488
 30
0
 10
4.40685
 20
0.535665
 30
0
  0
SPLINE
  5
B99
330
A02
100
AcDbEntity
  8
Shape2DView
100
AcDbSpline
210
0
220
0
230
1
 70
8
 71
1
 72
4
 73
2
 74
0
 40
0
 40
0
 40
212.9
 40
212.9
 10
11.1505
 20
-23.1585
 30
0
 10
22.5997
 20
-34.6077
 30
0
  0
SPLINE
  5
B9A
330
A02
100
AcDbEntity
  8
Shape2DView
100
AcDbSpline
210
0
220
0
230
1
 70
8
 71
3
 72
8
 73
4
 74
0
 40
0
 40
0
 40
0
 40
0
 40
1
 40
1
 40
1
 40
1
 10
22.5997
 20
-34.6077
 30
0
 10
23.0675
 20
-35.0756
 30
0
 10
23.5676
 20
-34.9304
 30
0
 10
23.7075
 20
-34.285
 30
0
  0
SPLINE
  5
B9B
330
A02
100
AcDbEntity
  8
Shape2DView
100
AcDbSpline
210
0
220
0
230
1
 70
8
 71
1
 72
4
 73
2
 74
0
 40
0
 40
0
 40
194.787
 40
194.787
 10
23.7075
 20
-34.285
 30
0
 10
26.8749
 20
-19.8136
 30
0
  0
SPLINE
  5
B9C
330
A02
100
AcDbEntity
  8
Shape2DView
100
AcDbSpline
210
0
220
0
230
1
 70
8
 71
3
 72
8
 73
4
 74
0
 40
0
 40
0
 40
0
 40
0
 40
1
 40
1
 40
1
 40
1
 10
26.8749
 20
-19.8136
 30
0
 10
27.0148
 20
-19.1683
 30
0
 10
26.6007
 20
-18.7542
 30
0
 10
25.9554
 20
-18.894
 30
0
  0
SPLINE
  5
B9D
330
A02
100
AcDbEntity
  8
Shape2DView
100
AcDbSpline
210
0
220
0
230
1
 70
8
 71
1
 72
4
 73
2
 74
0
 40
0
 40
0
 40
194.811
 40
194.811
 10
25.9554
 20
-18.894
 30
0
 10
11.4785
 20
-22.0454
 30
0
  0
SPLINE
  5
B9E
330
A02
100
AcDbEntity
  8
Shape2DView
100
AcDbSpline
210
0
220
0
230
1
 70
8
 71
3
 72
8
 73
4
 74
0
 40
0
 40
0
 40
0
 40
0
 40
1
 40
1
 40
1
 40
1
 10
11.4785
 20
-22.0454
 30
0
 10
10.8278
 20
-22.1906
 30
0
 10
10.6826
 20
-22.6907
 30
0
 10
11.1505
 20
-23.1585
 30
0
  0
SPLINE
  5
B9F
330
A02
100
AcDbEntity
  8
Shape2DView
100
AcDbSpline
210
0
220
0
230
1
 70
8
 71
1
 72
4
 73
2
 74
0
 40
0
 40
0
 40
0.54614
 40
0.54614
 10
12.4734
 20
-15.5007
 30
0
 10
12.3712
 20
-15.3985
 30
0
  0
SPLINE
  5
BA0
330
A02
100
AcDbEntity
  8
Shape2DView
100
AcDbSpline
210
0
220
0
230
1
 70
8
 71
1
 72
4
 73
2
 74
0
 40
0
 40
0
 40
7.21577
 40
7.21577
 10
12.3712
 20
-15.3985
 30
0
 10
10.7257
 20
-16.3665
 30
0
  0
SPLINE
  5
BA1
330
A02
100
AcDbEntity
  8
Shape2DView
100
AcDbSpline
210
0
220
0
230
1
 70
8
 71
1
 72
4
 73
2
 74
0
 40
0
 40
0
 40
4.19665
 40
4.19665
 10
10.7257
 20
-16.3665
 30
0
 10
11.5108
 20
-17.1516
 30
0
  0
SPLINE
  5
BA2
330
A02
100
AcDbEntity
  8
Shape2DView
100
AcDbSpline
210
0
220
0
230
1
 70
8
 71
1
 72
4
 73
2
 74
0
 40
0
 40
0
 40
7.22303
 40
7.22303
 10
11.5108
 20
-17.1516
 30
0
 10
12.4734
 20
-15.5007
 30
0
  0
SPLINE
  5
BA3
330
A02
100
AcDbEntity
  8
Shape2DView
100
AcDbSpline
210
0
220
0
230
1
 70
8
 71
1
 72
4
 73
2
 74
0
 40
0
 40
0
 40
0.54614
 40
0.54614
 10
13.4091
 20
-9.32706
 30
0
 10
13.307
 20
-9.22488
 30
0
  0
SPLINE
  5
BA4
330
A02
100
AcDbEntity
  8
Shape2DView
100
AcDbSpline
210
0
220
0
230
1
 70
8
 71
1
 72
4
 73
2
 74
0
 40
0
 40
0
 40
7.21577
 40
7.21577
 10
13.307
 20
-9.22488
 30
0
 10
11.6614
 20
-10.1929
 30
0
  0
SPLINE
  5
BA5
330
A02
100
AcDbEntity
  8
Shape2DView
100
AcDbSpline
210
0
220
0
230
1
 70
8
 71
1
 72
4
 73
2
 74
0
 40
0
 40
0
 40
4.19665
 40
4.19665
 10
11.6614
 20
-10.1929
 30
0
 10
12.4465
 20
-10.978
 30
0
  0
SPLINE
  5
BA6
330
A02
100
AcDbEntity
  8
Shape2DView
100
AcDbSpline
210
0
220
0
230
1
 70
8
 71
1
 72
4
 73
2
 74
0
 40
0
 40
0
 40
7.22303
 40
7.22303
 10
12.4465
 20
-10.978
 30
0
 10
13.4091
 20
-9.32706
 30
0
  0
SPLINE
  5
BA7
330
A02
100
AcDbEntity
  8
Shape2DView
100
AcDbSpline
210
0
220
0
230
1
 70
8
 71
3
 72
8
 73
4
 74
0
 40
0
 40
0
 40
0
 40
0
 40
1
 40
1
 40
1
 40
1
 10
6.86985
 20
-3.76651
 30
0
 10
6.5203
 20
-4.11606
 30
0
 10
6.49341
 20
-4.42259
 30
0
 10
6.79994
 20
-4.72912
 30
0
  0
SPLINE
  5
BA8
330
A02
100
AcDbEntity
  8
Shape2DView
100
AcDbSpline
210
0
220
0
230
1
 70
8
 71
1
 72
4
 73
2
 74
0
 40
0
 40
0
 40
2.78819
 40
2.78819
 10
6.79994
 20
-4.72912
 30
0
 10
7.32157
 20
-5.25075
 30
0
  0
SPLINE
  5
BA9
330
A02
100
AcDbEntity
  8
Shape2DView
100
AcDbSpline
210
0
220
0
230
1
 70
8
 71
1
 72
4
 73
2
 74
0
 40
0
 40
0
 40
5.40391
 40
5.40391
 10
7.32157
 20
-5.25075
 30
0
 10
8.33258
 20
-4.23974
 30
0
  0
SPLINE
  5
BAA
330
A02
100
AcDbEntity
  8
Shape2DView
100
AcDbSpline
210
0
220
0
230
1
 70
8
 71
1
 72
4
 73
2
 74
0
 40
0
 40
0
 40
2.78819
 40
2.78819
 10
8.33258
 20
-4.23974
 30
0
 10
7.81095
 20
-3.71811
 30
0
  0
SPLINE
  5
BAB
330
A02
100
AcDbEntity
  8
Shape2DView
100
AcDbSpline
210
0
220
0
230
1
 70
8
 71
3
 72
8
 73
4
 74
0
 40
0
 40
0
 40
0
 40
0
 40
1
 40
1
 40
1
 40
1
 10
7.81095
 20
-3.71811
 30
0
 10
7.50442
 20
-3.41158
 30
0
 10
7.20327
 20
-3.43309
 30
0
 10
6.86985
 20
-3.76651
 30
0
  0
SPLINE
  5
BAC
330
A02
100
AcDbEntity
  8
Shape2DView
100
AcDbSpline
210
0
220
0
230
1
 70
8
 71
3
 72
8
 73
4
 74
0
 40
0
 40
0
 40
0
 40
0
 40
1
 40
1
 40
1
 40
1
 10
16.0926
 20
-25.5194
 30
0
 10
16.3131
 20
-25.3096
 30
0
 10
16.6304
 20
-25.2505
 30
0
 10
16.8939
 20
-25.3526
 30
0
  0
SPLINE
  5
BAD
330
A02
100
AcDbEntity
  8
Shape2DView
100
AcDbSpline
210
0
220
0
230
1
 70
8
 71
3
 72
8
 73
4
 74
0
 40
0
 40
0
 40
0
 40
0
 40
1
 40
1
 40
1
 40
1
 10
15.8775
 20
-26.1324
 30
0
 10
15.8506
 20
-25.9119
 30
0
 10
15.9259
 20
-25.6861
 30
0
 10
16.0926
 20
-25.5194
 30
0
  0
SPLINE
  5
BAE
330
A02
100
AcDbEntity
  8
Shape2DView
100
AcDbSpline
210
0
220
0
230
1
 70
8
 71
1
 72
4
 73
2
 74
0
 40
0
 40
0
 40
0.1
 40
0.1
 10
15.8829
 20
-26.1378
 30
0
 10
15.8775
 20
-26.1324
 30
0
  0
SPLINE
  5
BAF
330
A02
100
AcDbEntity
  8
Shape2DView
100
AcDbSpline
210
0
220
0
230
1
 70
8
 71
1
 72
4
 73
2
 74
0
 40
0
 40
0
 40
0.8
 40
0.8
 10
15.9259
 20
-26.1808
 30
0
 10
15.8829
 20
-26.1378
 30
0
  0
SPLINE
  5
BB0
330
A02
100
AcDbEntity
  8
Shape2DView
100
AcDbSpline
210
0
220
0
230
1
 70
8
 71
1
 72
4
 73
2
 74
0
 40
0
 40
0
 40
6.2
 40
6.2
 10
16.2593
 20
-25.8474
 30
0
 10
15.9259
 20
-26.1808
 30
0
  0
SPLINE
  5
BB1
330
A02
100
AcDbEntity
  8
Shape2DView
100
AcDbSpline
210
0
220
0
230
1
 70
8
 71
1
 72
4
 73
2
 74
0
 40
0
 40
0
 40
6.84105
 40
6.84105
 10
16.7756
 20
-25.9119
 30
0
 10
16.2593
 20
-25.8474
 30
0
  0
SPLINE
  5
BB2
330
A02
100
AcDbEntity
  8
Shape2DView
100
AcDbSpline
210
0
220
0
230
1
 70
8
 71
1
 72
4
 73
2
 74
0
 40
0
 40
0
 40
6.7624
 40
6.7624
 10
16.8348
 20
-26.4228
 30
0
 10
16.7756
 20
-25.9119
 30
0
  0
SPLINE
  5
BB3
330
A02
100
AcDbEntity
  8
Shape2DView
100
AcDbSpline
210
0
220
0
230
1
 70
8
 71
1
 72
4
 73
2
 74
0
 40
0
 40
0
 40
6.2
 40
6.2
 10
16.5013
 20
-26.7562
 30
0
 10
16.8348
 20
-26.4228
 30
0
  0
SPLINE
  5
BB4
330
A02
100
AcDbEntity
  8
Shape2DView
100
AcDbSpline
210
0
220
0
230
1
 70
8
 71
1
 72
4
 73
2
 74
0
 40
0
 40
0
 40
0.9
 40
0.9
 10
16.5497
 20
-26.8046
 30
0
 10
16.5013
 20
-26.7562
 30
0
  0
SPLINE
  5
BB5
330
A02
100
AcDbEntity
  8
Shape2DView
100
AcDbSpline
210
0
220
0
230
1
 70
8
 71
3
 72
8
 73
4
 74
0
 40
0
 40
0
 40
0
 40
0
 40
1
 40
1
 40
1
 40
1
 10
17.1628
 20
-26.5895
 30
0
 10
16.9961
 20
-26.7562
 30
0
 10
16.7702
 20
-26.8315
 30
0
 10
16.5497
 20
-26.8046
 30
0
  0
SPLINE
  5
BB6
330
A02
100
AcDbEntity
  8
Shape2DView
100
AcDbSpline
210
0
220
0
230
1
 70
8
 71
3
 72
8
 73
4
 74
0
 40
0
 40
0
 40
0
 40
0
 40
1
 40
1
 40
1
 40
1
 10
17.3295
 20
-25.7882
 30
0
 10
17.4317
 20
-26.0517
 30
0
 10
17.3779
 20
-26.3744
 30
0
 10
17.1628
 20
-26.5895
 30
0
  0
SPLINE
  5
BB7
330
A02
100
AcDbEntity
  8
Shape2DView
100
AcDbSpline
210
0
220
0
230
1
 70
8
 71
1
 72
4
 73
2
 74
0
 40
0
 40
0
 40
43.4
 40
43.4
 10
19.6634
 20
-23.4543
 30
0
 10
17.3295
 20
-25.7882
 30
0
  0
SPLINE
  5
BB8
330
A02
100
AcDbEntity
  8
Shape2DView
100
AcDbSpline
210
0
220
0
230
1
 70
8
 71
1
 72
4
 73
2
 74
0
 40
0
 40
0
 40
1
 40
1
 10
19.7064
 20
-23.4651
 30
0
 10
19.6634
 20
-23.4543
 30
0
  0
SPLINE
  5
BB9
330
A02
100
AcDbEntity
  8
Shape2DView
100
AcDbSpline
210
0
220
0
230
1
 70
8
 71
2
 72
6
 73
3
 74
0
 40
0
 40
0
 40
0
 40
1
 40
1
 40
1
 10
20.0506
 20
-23.4328
 30
0
 10
19.8866
 20
-23.4973
 30
0
 10
19.7064
 20
-23.4651
 30
0
  0
SPLINE
  5
BBA
330
A02
100
AcDbEntity
  8
Shape2DView
100
AcDbSpline
210
0
220
0
230
1
 70
8
 71
2
 72
6
 73
3
 74
0
 40
0
 40
0
 40
0
 40
1
 40
1
 40
1
 10
20.2657
 20
-23.293
 30
0
 10
20.1703
 20
-23.3911
 30
0
 10
20.0506
 20
-23.4328
 30
0
  0
SPLINE
  5
BBB
330
A02
100
AcDbEntity
  8
Shape2DView
100
AcDbSpline
210
0
220
0
230
1
 70
8
 71
3
 72
8
 73
4
 74
0
 40
0
 40
0
 40
0
 40
0
 40
1
 40
1
 40
1
 40
1
 10
20.2657
 20
-22.4218
 30
0
 10
20.5077
 20
-22.6638
 30
0
 10
20.5077
 20
-23.051
 30
0
 10
20.2657
 20
-23.293
 30
0
  0
SPLINE
  5
BBC
330
A02
100
AcDbEntity
  8
Shape2DView
100
AcDbSpline
210
0
220
0
230
1
 70
8
 71
2
 72
6
 73
3
 74
0
 40
0
 40
0
 40
0
 40
1
 40
1
 40
1
 10
20.1044
 20
-22.3035
 30
0
 10
20.1931
 20
-22.3465
 30
0
 10
20.2657
 20
-22.4218
 30
0
  0
SPLINE
  5
BBD
330
A02
100
AcDbEntity
  8
Shape2DView
100
AcDbSpline
210
0
220
0
230
1
 70
8
 71
1
 72
4
 73
2
 74
0
 40
0
 40
0
 40
0.565685
 40
0.565685
 10
20.1044
 20
-22.3465
 30
0
 10
20.1044
 20
-22.3035
 30
0
  0
SPLINE
  5
BBE
330
A02
100
AcDbEntity
  8
Shape2DView
100
AcDbSpline
210
0
220
0
230
1
 70
8
 71
1
 72
4
 73
2
 74
0
 40
0
 40
0
 40
0.707107
 40
0.707107
 10
20.1044
 20
-22.4003
 30
0
 10
20.1044
 20
-22.3465
 30
0
  0
SPLINE
  5
BBF
330
A02
100
AcDbEntity
  8
Shape2DView
100
AcDbSpline
210
0
220
0
230
1
 70
8
 71
1
 72
4
 73
2
 74
0
 40
0
 40
0
 40
0.640312
 40
0.640312
 10
20.1098
 20
-22.4487
 30
0
 10
20.1044
 20
-22.4003
 30
0
  0
SPLINE
  5
BC0
330
A02
100
AcDbEntity
  8
Shape2DView
100
AcDbSpline
210
0
220
0
230
1
 70
8
 71
1
 72
4
 73
2
 74
0
 40
0
 40
0
 40
0.282843
 40
0.282843
 10
20.1098
 20
-22.4702
 30
0
 10
20.1098
 20
-22.4487
 30
0
  0
SPLINE
  5
BC1
330
A02
100
AcDbEntity
  8
Shape2DView
100
AcDbSpline
210
0
220
0
230
1
 70
8
 71
1
 72
4
 73
2
 74
0
 40
0
 40
0
 40
0.282843
 40
0.282843
 10
20.1098
 20
-22.4917
 30
0
 10
20.1098
 20
-22.4702
 30
0
  0
SPLINE
  5
BC2
330
A02
100
AcDbEntity
  8
Shape2DView
100
AcDbSpline
210
0
220
0
230
1
 70
8
 71
1
 72
4
 73
2
 74
0
 40
0
 40
0
 40
0.640312
 40
0.640312
 10
20.1152
 20
-22.5401
 30
0
 10
20.1098
 20
-22.4917
 30
0
  0
SPLINE
  5
BC3
330
A02
100
AcDbEntity
  8
Shape2DView
100
AcDbSpline
210
0
220
0
230
1
 70
8
 71
1
 72
4
 73
2
 74
0
 40
0
 40
0
 40
0.640312
 40
0.640312
 10
20.1205
 20
-22.5885
 30
0
 10
20.1152
 20
-22.5401
 30
0
  0
SPLINE
  5
BC4
330
A02
100
AcDbEntity
  8
Shape2DView
100
AcDbSpline
210
0
220
0
230
1
 70
8
 71
1
 72
4
 73
2
 74
0
 40
0
 40
0
 40
1.34536
 40
1.34536
 10
20.1259
 20
-22.6907
 30
0
 10
20.1205
 20
-22.5885
 30
0
  0
SPLINE
  5
BC5
330
A02
100
AcDbEntity
  8
Shape2DView
100
AcDbSpline
210
0
220
0
230
1
 70
8
 71
1
 72
4
 73
2
 74
0
 40
0
 40
0
 40
0.5
 40
0.5
 10
20.1528
 20
-22.7176
 30
0
 10
20.1259
 20
-22.6907
 30
0
  0
SPLINE
  5
BC6
330
A02
100
AcDbEntity
  8
Shape2DView
100
AcDbSpline
210
0
220
0
230
1
 70
8
 71
1
 72
4
 73
2
 74
0
 40
0
 40
0
 40
3.60694
 40
3.60694
 10
20.1474
 20
-22.9918
 30
0
 10
20.1528
 20
-22.7176
 30
0
  0
SPLINE
  5
BC7
330
A02
100
AcDbEntity
  8
Shape2DView
100
AcDbSpline
210
0
220
0
230
1
 70
8
 71
1
 72
4
 73
2
 74
0
 40
0
 40
0
 40
0.1
 40
0.1
 10
20.142
 20
-22.9972
 30
0
 10
20.1474
 20
-22.9918
 30
0
  0
SPLINE
  5
BC8
330
A02
100
AcDbEntity
  8
Shape2DView
100
AcDbSpline
210
0
220
0
230
1
 70
8
 71
1
 72
4
 73
2
 74
0
 40
0
 40
0
 40
1.8
 40
1.8
 10
20.0452
 20
-23.094
 30
0
 10
20.142
 20
-22.9972
 30
0
  0
SPLINE
  5
BC9
330
A02
100
AcDbEntity
  8
Shape2DView
100
AcDbSpline
210
0
220
0
230
1
 70
8
 71
1
 72
4
 73
2
 74
0
 40
0
 40
0
 40
1.5
 40
1.5
 10
19.9646
 20
-23.1747
 30
0
 10
20.0452
 20
-23.094
 30
0
  0
SPLINE
  5
BCA
330
A02
100
AcDbEntity
  8
Shape2DView
100
AcDbSpline
210
0
220
0
230
1
 70
8
 71
1
 72
4
 73
2
 74
0
 40
0
 40
0
 40
3.33017
 40
3.33017
 10
19.7118
 20
-23.1585
 30
0
 10
19.9646
 20
-23.1747
 30
0
  0
SPLINE
  5
BCB
330
A02
100
AcDbEntity
  8
Shape2DView
100
AcDbSpline
210
0
220
0
230
1
 70
8
 71
1
 72
4
 73
2
 74
0
 40
0
 40
0
 40
0.2
 40
0.2
 10
19.7011
 20
-23.1478
 30
0
 10
19.7118
 20
-23.1585
 30
0
  0
SPLINE
  5
BCC
330
A02
100
AcDbEntity
  8
Shape2DView
100
AcDbSpline
210
0
220
0
230
1
 70
8
 71
1
 72
4
 73
2
 74
0
 40
0
 40
0
 40
2
 40
2
 10
19.5935
 20
-23.0402
 30
0
 10
19.7011
 20
-23.1478
 30
0
  0
SPLINE
  5
BCD
330
A02
100
AcDbEntity
  8
Shape2DView
100
AcDbSpline
210
0
220
0
230
1
 70
8
 71
1
 72
4
 73
2
 74
0
 40
0
 40
0
 40
1.1
 40
1.1
 10
19.5344
 20
-22.9811
 30
0
 10
19.5935
 20
-23.0402
 30
0
  0
SPLINE
  5
BCE
330
A02
100
AcDbEntity
  8
Shape2DView
100
AcDbSpline
210
0
220
0
230
1
 70
8
 71
1
 72
4
 73
2
 74
0
 40
0
 40
0
 40
3.11127
 40
3.11127
 10
19.5344
 20
-22.7445
 30
0
 10
19.5344
 20
-22.9811
 30
0
  0
SPLINE
  5
BCF
330
A02
100
AcDbEntity
  8
Shape2DView
100
AcDbSpline
210
0
220
0
230
1
 70
8
 71
1
 72
4
 73
2
 74
0
 40
0
 40
0
 40
0.7
 40
0.7
 10
19.572
 20
-22.7068
 30
0
 10
19.5344
 20
-22.7445
 30
0
  0
SPLINE
  5
BD0
330
A02
100
AcDbEntity
  8
Shape2DView
100
AcDbSpline
210
0
220
0
230
1
 70
8
 71
1
 72
4
 73
2
 74
0
 40
0
 40
0
 40
0.640312
 40
0.640312
 10
19.5666
 20
-22.6584
 30
0
 10
19.572
 20
-22.7068
 30
0
  0
SPLINE
  5
BD1
330
A02
100
AcDbEntity
  8
Shape2DView
100
AcDbSpline
210
0
220
0
230
1
 70
8
 71
1
 72
4
 73
2
 74
0
 40
0
 40
0
 40
1.28062
 40
1.28062
 10
19.5559
 20
-22.5616
 30
0
 10
19.5666
 20
-22.6584
 30
0
  0
SPLINE
  5
BD2
330
A02
100
AcDbEntity
  8
Shape2DView
100
AcDbSpline
210
0
220
0
230
1
 70
8
 71
1
 72
4
 73
2
 74
0
 40
0
 40
0
 40
1.28062
 40
1.28062
 10
19.5451
 20
-22.4648
 30
0
 10
19.5559
 20
-22.5616
 30
0
  0
SPLINE
  5
BD3
330
A02
100
AcDbEntity
  8
Shape2DView
100
AcDbSpline
210
0
220
0
230
1
 70
8
 71
1
 72
4
 73
2
 74
0
 40
0
 40
0
 40
1.28062
 40
1.28062
 10
19.5344
 20
-22.368
 30
0
 10
19.5451
 20
-22.4648
 30
0
  0
SPLINE
  5
BD4
330
A02
100
AcDbEntity
  8
Shape2DView
100
AcDbSpline
210
0
220
0
230
1
 70
8
 71
1
 72
4
 73
2
 74
0
 40
0
 40
0
 40
0.424264
 40
0.424264
 10
19.5344
 20
-22.3357
 30
0
 10
19.5344
 20
-22.368
 30
0
  0
SPLINE
  5
BD5
330
A02
100
AcDbEntity
  8
Shape2DView
100
AcDbSpline
210
0
220
0
230
1
 70
8
 71
2
 72
6
 73
3
 74
0
 40
0
 40
0
 40
0
 40
1
 40
1
 40
1
 10
19.4053
 20
-22.4325
 30
0
 10
19.4618
 20
-22.3761
 30
0
 10
19.5344
 20
-22.3357
 30
0
  0
SPLINE
  5
BD6
330
A02
100
AcDbEntity
  8
Shape2DView
100
AcDbSpline
210
0
220
0
230
1
 70
8
 71
3
 72
8
 73
4
 74
0
 40
0
 40
0
 40
0
 40
0
 40
1
 40
1
 40
1
 40
1
 10
19.2386
 20
-23.008
 30
0
 10
19.1902
 20
-22.809
 30
0
 10
19.2493
 20
-22.5885
 30
0
 10
19.4053
 20
-22.4325
 30
0
  0
SPLINE
  5
BD7
330
A02
100
AcDbEntity
  8
Shape2DView
100
AcDbSpline
210
0
220
0
230
1
 70
8
 71
1
 72
4
 73
2
 74
0
 40
0
 40
0
 40
43.6
 40
43.6
 10
16.8939
 20
-25.3526
 30
0
 10
19.2386
 20
-23.008
 30
0
  0
SPLINE
  5
BD8
330
A02
100
AcDbEntity
  8
Shape2DView
100
AcDbSpline
210
0
220
0
230
1
 70
8
 71
3
 72
8
 73
4
 74
0
 40
0
 40
0
 40
0
 40
0
 40
1
 40
1
 40
1
 40
1
 10
19.7979
 20
-26.041
 30
0
 10
19.8947
 20
-26.0733
 30
0
 10
20.0506
 20
-26.0786
 30
0
 10
20.2657
 20
-26.0894
 30
0
  0
SPLINE
  5
BD9
330
A02
100
AcDbEntity
  8
Shape2DView
100
AcDbSpline
210
0
220
0
230
1
 70
8
 71
1
 72
4
 73
2
 74
0
 40
0
 40
0
 40
1
 40
1
 10
19.7764
 20
-26.0625
 30
0
 10
19.7979
 20
-26.041
 30
0
  0
SPLINE
  5
BDA
330
A02
100
AcDbEntity
  8
Shape2DView
100
AcDbSpline
210
0
220
0
230
1
 70
8
 71
1
 72
4
 73
2
 74
0
 40
0
 40
0
 40
0.781025
 40
0.781025
 10
19.7817
 20
-26.1217
 30
0
 10
19.7764
 20
-26.0625
 30
0
  0
SPLINE
  5
BDB
330
A02
100
AcDbEntity
  8
Shape2DView
100
AcDbSpline
210
0
220
0
230
1
 70
8
 71
1
 72
4
 73
2
 74
0
 40
0
 40
0
 40
0.5
 40
0.5
 10
19.7871
 20
-26.1593
 30
0
 10
19.7817
 20
-26.1217
 30
0
  0
SPLINE
  5
BDC
330
A02
100
AcDbEntity
  8
Shape2DView
100
AcDbSpline
210
0
220
0
230
1
 70
8
 71
1
 72
4
 73
2
 74
0
 40
0
 40
0
 40
1.48661
 40
1.48661
 10
19.7925
 20
-26.2722
 30
0
 10
19.7871
 20
-26.1593
 30
0
  0
SPLINE
  5
BDD
330
A02
100
AcDbEntity
  8
Shape2DView
100
AcDbSpline
210
0
220
0
230
1
 70
8
 71
1
 72
4
 73
2
 74
0
 40
0
 40
0
 40
0.282843
 40
0.282843
 10
19.7925
 20
-26.2937
 30
0
 10
19.7925
 20
-26.2722
 30
0
  0
SPLINE
  5
BDE
330
A02
100
AcDbEntity
  8
Shape2DView
100
AcDbSpline
210
0
220
0
230
1
 70
8
 71
1
 72
4
 73
2
 74
0
 40
0
 40
0
 40
0.282843
 40
0.282843
 10
19.7925
 20
-26.3153
 30
0
 10
19.7925
 20
-26.2937
 30
0
  0
SPLINE
  5
BDF
330
A02
100
AcDbEntity
  8
Shape2DView
100
AcDbSpline
210
0
220
0
230
1
 70
8
 71
1
 72
4
 73
2
 74
0
 40
0
 40
0
 40
0.282843
 40
0.282843
 10
19.7925
 20
-26.3368
 30
0
 10
19.7925
 20
-26.3153
 30
0
  0
SPLINE
  5
BE0
330
A02
100
AcDbEntity
  8
Shape2DView
100
AcDbSpline
210
0
220
0
230
1
 70
8
 71
1
 72
4
 73
2
 74
0
 40
0
 40
0
 40
0.360555
 40
0.360555
 10
19.7871
 20
-26.3637
 30
0
 10
19.7925
 20
-26.3368
 30
0
  0
SPLINE
  5
BE1
330
A02
100
AcDbEntity
  8
Shape2DView
100
AcDbSpline
210
0
220
0
230
1
 70
8
 71
1
 72
4
 73
2
 74
0
 40
0
 40
0
 40
0.5
 40
0.5
 10
19.7817
 20
-26.4013
 30
0
 10
19.7871
 20
-26.3637
 30
0
  0
SPLINE
  5
BE2
330
A02
100
AcDbEntity
  8
Shape2DView
100
AcDbSpline
210
0
220
0
230
1
 70
8
 71
1
 72
4
 73
2
 74
0
 40
0
 40
0
 40
0.5
 40
0.5
 10
19.7764
 20
-26.4389
 30
0
 10
19.7817
 20
-26.4013
 30
0
  0
SPLINE
  5
BE3
330
A02
100
AcDbEntity
  8
Shape2DView
100
AcDbSpline
210
0
220
0
230
1
 70
8
 71
1
 72
4
 73
2
 74
0
 40
0
 40
0
 40
0.583095
 40
0.583095
 10
19.7656
 20
-26.482
 30
0
 10
19.7764
 20
-26.4389
 30
0
  0
SPLINE
  5
BE4
330
A02
100
AcDbEntity
  8
Shape2DView
100
AcDbSpline
210
0
220
0
230
1
 70
8
 71
1
 72
4
 73
2
 74
0
 40
0
 40
0
 40
0.583095
 40
0.583095
 10
19.7548
 20
-26.525
 30
0
 10
19.7656
 20
-26.482
 30
0
  0
SPLINE
  5
BE5
330
A02
100
AcDbEntity
  8
Shape2DView
100
AcDbSpline
210
0
220
0
230
1
 70
8
 71
1
 72
4
 73
2
 74
0
 40
0
 40
0
 40
0.948683
 40
0.948683
 10
19.7871
 20
-26.5895
 30
0
 10
19.7548
 20
-26.525
 30
0
  0
SPLINE
  5
BE6
330
A02
100
AcDbEntity
  8
Shape2DView
100
AcDbSpline
210
0
220
0
230
1
 70
8
 71
1
 72
4
 73
2
 74
0
 40
0
 40
0
 40
0.921954
 40
0.921954
 10
19.857
 20
-26.5949
 30
0
 10
19.7871
 20
-26.5895
 30
0
  0
SPLINE
  5
BE7
330
A02
100
AcDbEntity
  8
Shape2DView
100
AcDbSpline
210
0
220
0
230
1
 70
8
 71
1
 72
4
 73
2
 74
0
 40
0
 40
0
 40
0.921954
 40
0.921954
 10
19.9269
 20
-26.6003
 30
0
 10
19.857
 20
-26.5949
 30
0
  0
SPLINE
  5
BE8
330
A02
100
AcDbEntity
  8
Shape2DView
100
AcDbSpline
210
0
220
0
230
1
 70
8
 71
1
 72
4
 73
2
 74
0
 40
0
 40
0
 40
0.424264
 40
0.424264
 10
19.9592
 20
-26.6003
 30
0
 10
19.9269
 20
-26.6003
 30
0
  0
SPLINE
  5
BE9
330
A02
100
AcDbEntity
  8
Shape2DView
100
AcDbSpline
210
0
220
0
230
1
 70
8
 71
1
 72
4
 73
2
 74
0
 40
0
 40
0
 40
0.424264
 40
0.424264
 10
19.9915
 20
-26.6003
 30
0
 10
19.9592
 20
-26.6003
 30
0
  0
SPLINE
  5
BEA
330
A02
100
AcDbEntity
  8
Shape2DView
100
AcDbSpline
210
0
220
0
230
1
 70
8
 71
1
 72
4
 73
2
 74
0
 40
0
 40
0
 40
0.848528
 40
0.848528
 10
20.056
 20
-26.6003
 30
0
 10
19.9915
 20
-26.6003
 30
0
  0
SPLINE
  5
BEB
330
A02
100
AcDbEntity
  8
Shape2DView
100
AcDbSpline
210
0
220
0
230
1
 70
8
 71
1
 72
4
 73
2
 74
0
 40
0
 40
0
 40
0.848528
 40
0.848528
 10
20.1205
 20
-26.6003
 30
0
 10
20.056
 20
-26.6003
 30
0
  0
SPLINE
  5
BEC
330
A02
100
AcDbEntity
  8
Shape2DView
100
AcDbSpline
210
0
220
0
230
1
 70
8
 71
1
 72
4
 73
2
 74
0
 40
0
 40
0
 40
0.848528
 40
0.848528
 10
20.1851
 20
-26.6003
 30
0
 10
20.1205
 20
-26.6003
 30
0
  0
SPLINE
  5
BED
330
A02
100
AcDbEntity
  8
Shape2DView
100
AcDbSpline
210
0
220
0
230
1
 70
8
 71
1
 72
4
 73
2
 74
0
 40
0
 40
0
 40
0.848528
 40
0.848528
 10
20.2496
 20
-26.6003
 30
0
 10
20.1851
 20
-26.6003
 30
0
  0
SPLINE
  5
BEE
330
A02
100
AcDbEntity
  8
Shape2DView
100
AcDbSpline
210
0
220
0
230
1
 70
8
 71
1
 72
4
 73
2
 74
0
 40
0
 40
0
 40
0.848528
 40
0.848528
 10
20.3141
 20
-26.6003
 30
0
 10
20.2496
 20
-26.6003
 30
0
  0
SPLINE
  5
BEF
330
A02
100
AcDbEntity
  8
Shape2DView
100
AcDbSpline
210
0
220
0
230
1
 70
8
 71
1
 72
4
 73
2
 74
0
 40
0
 40
0
 40
0.141421
 40
0.141421
 10
20.3249
 20
-26.6003
 30
0
 10
20.3141
 20
-26.6003
 30
0
  0
SPLINE
  5
BF0
330
A02
100
AcDbEntity
  8
Shape2DView
100
AcDbSpline
210
0
220
0
230
1
 70
8
 71
1
 72
4
 73
2
 74
0
 40
0
 40
0
 40
0.141421
 40
0.141421
 10
20.3356
 20
-26.6003
 30
0
 10
20.3249
 20
-26.6003
 30
0
  0
SPLINE
  5
BF1
330
A02
100
AcDbEntity
  8
Shape2DView
100
AcDbSpline
210
0
220
0
230
1
 70
8
 71
1
 72
4
 73
2
 74
0
 40
0
 40
0
 40
0.223607
 40
0.223607
 10
20.3518
 20
-26.5949
 30
0
 10
20.3356
 20
-26.6003
 30
0
  0
SPLINE
  5
BF2
330
A02
100
AcDbEntity
  8
Shape2DView
100
AcDbSpline
210
0
220
0
230
1
 70
8
 71
1
 72
4
 73
2
 74
0
 40
0
 40
0
 40
0.223607
 40
0.223607
 10
20.3679
 20
-26.5895
 30
0
 10
20.3518
 20
-26.5949
 30
0
  0
SPLINE
  5
BF3
330
A02
100
AcDbEntity
  8
Shape2DView
100
AcDbSpline
210
0
220
0
230
1
 70
8
 71
1
 72
4
 73
2
 74
0
 40
0
 40
0
 40
0.223607
 40
0.223607
 10
20.384
 20
-26.5841
 30
0
 10
20.3679
 20
-26.5895
 30
0
  0
SPLINE
  5
BF4
330
A02
100
AcDbEntity
  8
Shape2DView
100
AcDbSpline
210
0
220
0
230
1
 70
8
 71
1
 72
4
 73
2
 74
0
 40
0
 40
0
 40
0.2
 40
0.2
 10
20.3948
 20
-26.5734
 30
0
 10
20.384
 20
-26.5841
 30
0
  0
SPLINE
  5
BF5
330
A02
100
AcDbEntity
  8
Shape2DView
100
AcDbSpline
210
0
220
0
230
1
 70
8
 71
1
 72
4
 73
2
 74
0
 40
0
 40
0
 40
0.1
 40
0.1
 10
20.4002
 20
-26.568
 30
0
 10
20.3948
 20
-26.5734
 30
0
  0
SPLINE
  5
BF6
330
A02
100
AcDbEntity
  8
Shape2DView
100
AcDbSpline
210
0
220
0
230
1
 70
8
 71
1
 72
4
 73
2
 74
0
 40
0
 40
0
 40
0.1
 40
0.1
 10
20.4056
 20
-26.5626
 30
0
 10
20.4002
 20
-26.568
 30
0
  0
SPLINE
  5
BF7
330
A02
100
AcDbEntity
  8
Shape2DView
100
AcDbSpline
210
0
220
0
230
1
 70
8
 71
1
 72
4
 73
2
 74
0
 40
0
 40
0
 40
0.1
 40
0.1
 10
20.4109
 20
-26.5573
 30
0
 10
20.4056
 20
-26.5626
 30
0
  0
SPLINE
  5
BF8
330
A02
100
AcDbEntity
  8
Shape2DView
100
AcDbSpline
210
0
220
0
230
1
 70
8
 71
1
 72
4
 73
2
 74
0
 40
0
 40
0
 40
0.1
 40
0.1
 10
20.4163
 20
-26.5519
 30
0
 10
20.4109
 20
-26.5573
 30
0
  0
SPLINE
  5
BF9
330
A02
100
AcDbEntity
  8
Shape2DView
100
AcDbSpline
210
0
220
0
230
1
 70
8
 71
1
 72
4
 73
2
 74
0
 40
0
 40
0
 40
0.1
 40
0.1
 10
20.4217
 20
-26.5465
 30
0
 10
20.4163
 20
-26.5519
 30
0
  0
SPLINE
  5
BFA
330
A02
100
AcDbEntity
  8
Shape2DView
100
AcDbSpline
210
0
220
0
230
1
 70
8
 71
1
 72
4
 73
2
 74
0
 40
0
 40
0
 40
0.141421
 40
0.141421
 10
20.4217
 20
-26.5357
 30
0
 10
20.4217
 20
-26.5465
 30
0
  0
SPLINE
  5
BFB
330
A02
100
AcDbEntity
  8
Shape2DView
100
AcDbSpline
210
0
220
0
230
1
 70
8
 71
1
 72
4
 73
2
 74
0
 40
0
 40
0
 40
0.1
 40
0.1
 10
20.4271
 20
-26.5304
 30
0
 10
20.4217
 20
-26.5357
 30
0
  0
SPLINE
  5
BFC
330
A02
100
AcDbEntity
  8
Shape2DView
100
AcDbSpline
210
0
220
0
230
1
 70
8
 71
1
 72
4
 73
2
 74
0
 40
0
 40
0
 40
0.1
 40
0.1
 10
20.4324
 20
-26.525
 30
0
 10
20.4271
 20
-26.5304
 30
0
  0
SPLINE
  5
BFD
330
A02
100
AcDbEntity
  8
Shape2DView
100
AcDbSpline
210
0
220
0
230
1
 70
8
 71
1
 72
4
 73
2
 74
0
 40
0
 40
0
 40
0.1
 40
0.1
 10
20.4271
 20
-26.5196
 30
0
 10
20.4324
 20
-26.525
 30
0
  0
SPLINE
  5
BFE
330
A02
100
AcDbEntity
  8
Shape2DView
100
AcDbSpline
210
0
220
0
230
1
 70
8
 71
1
 72
4
 73
2
 74
0
 40
0
 40
0
 40
0.1
 40
0.1
 10
20.4217
 20
-26.5142
 30
0
 10
20.4271
 20
-26.5196
 30
0
  0
SPLINE
  5
BFF
330
A02
100
AcDbEntity
  8
Shape2DView
100
AcDbSpline
210
0
220
0
230
1
 70
8
 71
1
 72
4
 73
2
 74
0
 40
0
 40
0
 40
0.1
 40
0.1
 10
20.4163
 20
-26.5089
 30
0
 10
20.4217
 20
-26.5142
 30
0
  0
SPLINE
  5
C00
330
A02
100
AcDbEntity
  8
Shape2DView
100
AcDbSpline
210
0
220
0
230
1
 70
8
 71
1
 72
4
 73
2
 74
0
 40
0
 40
0
 40
0.1
 40
0.1
 10
20.4109
 20
-26.5035
 30
0
 10
20.4163
 20
-26.5089
 30
0
  0
SPLINE
  5
C01
330
A02
100
AcDbEntity
  8
Shape2DView
100
AcDbSpline
210
0
220
0
230
1
 70
8
 71
1
 72
4
 73
2
 74
0
 40
0
 40
0
 40
0.141421
 40
0.141421
 10
20.4109
 20
-26.4927
 30
0
 10
20.4109
 20
-26.5035
 30
0
  0
SPLINE
  5
C02
330
A02
100
AcDbEntity
  8
Shape2DView
100
AcDbSpline
210
0
220
0
230
1
 70
8
 71
1
 72
4
 73
2
 74
0
 40
0
 40
0
 40
0.223607
 40
0.223607
 10
20.4056
 20
-26.4766
 30
0
 10
20.4109
 20
-26.4927
 30
0
  0
SPLINE
  5
C03
330
A02
100
AcDbEntity
  8
Shape2DView
100
AcDbSpline
210
0
220
0
230
1
 70
8
 71
1
 72
4
 73
2
 74
0
 40
0
 40
0
 40
0.2
 40
0.2
 10
20.3948
 20
-26.4658
 30
0
 10
20.4056
 20
-26.4766
 30
0
  0
SPLINE
  5
C04
330
A02
100
AcDbEntity
  8
Shape2DView
100
AcDbSpline
210
0
220
0
230
1
 70
8
 71
1
 72
4
 73
2
 74
0
 40
0
 40
0
 40
2.30868
 40
2.30868
 10
20.3141
 20
-26.3099
 30
0
 10
20.3948
 20
-26.4658
 30
0
  0
SPLINE
  5
C05
330
A02
100
AcDbEntity
  8
Shape2DView
100
AcDbSpline
210
0
220
0
230
1
 70
8
 71
1
 72
4
 73
2
 74
0
 40
0
 40
0
 40
0.1
 40
0.1
 10
20.3088
 20
-26.3045
 30
0
 10
20.3141
 20
-26.3099
 30
0
  0
SPLINE
  5
C06
330
A02
100
AcDbEntity
  8
Shape2DView
100
AcDbSpline
210
0
220
0
230
1
 70
8
 71
1
 72
4
 73
2
 74
0
 40
0
 40
0
 40
0.1
 40
0.1
 10
20.3034
 20
-26.2991
 30
0
 10
20.3088
 20
-26.3045
 30
0
  0
SPLINE
  5
C07
330
A02
100
AcDbEntity
  8
Shape2DView
100
AcDbSpline
210
0
220
0
230
1
 70
8
 71
1
 72
4
 73
2
 74
0
 40
0
 40
0
 40
0.141421
 40
0.141421
 10
20.3034
 20
-26.2884
 30
0
 10
20.3034
 20
-26.2991
 30
0
  0
SPLINE
  5
C08
330
A02
100
AcDbEntity
  8
Shape2DView
100
AcDbSpline
210
0
220
0
230
1
 70
8
 71
1
 72
4
 73
2
 74
0
 40
0
 40
0
 40
0.223607
 40
0.223607
 10
20.298
 20
-26.2722
 30
0
 10
20.3034
 20
-26.2884
 30
0
  0
SPLINE
  5
C09
330
A02
100
AcDbEntity
  8
Shape2DView
100
AcDbSpline
210
0
220
0
230
1
 70
8
 71
1
 72
4
 73
2
 74
0
 40
0
 40
0
 40
0.223607
 40
0.223607
 10
20.2926
 20
-26.2561
 30
0
 10
20.298
 20
-26.2722
 30
0
  0
SPLINE
  5
C0A
330
A02
100
AcDbEntity
  8
Shape2DView
100
AcDbSpline
210
0
220
0
230
1
 70
8
 71
1
 72
4
 73
2
 74
0
 40
0
 40
0
 40
0.141421
 40
0.141421
 10
20.2926
 20
-26.2453
 30
0
 10
20.2926
 20
-26.2561
 30
0
  0
SPLINE
  5
C0B
330
A02
100
AcDbEntity
  8
Shape2DView
100
AcDbSpline
210
0
220
0
230
1
 70
8
 71
1
 72
4
 73
2
 74
0
 40
0
 40
0
 40
0.223607
 40
0.223607
 10
20.2872
 20
-26.2292
 30
0
 10
20.2926
 20
-26.2453
 30
0
  0
SPLINE
  5
C0C
330
A02
100
AcDbEntity
  8
Shape2DView
100
AcDbSpline
210
0
220
0
230
1
 70
8
 71
1
 72
4
 73
2
 74
0
 40
0
 40
0
 40
0.141421
 40
0.141421
 10
20.2872
 20
-26.2185
 30
0
 10
20.2872
 20
-26.2292
 30
0
  0
SPLINE
  5
C0D
330
A02
100
AcDbEntity
  8
Shape2DView
100
AcDbSpline
210
0
220
0
230
1
 70
8
 71
1
 72
4
 73
2
 74
0
 40
0
 40
0
 40
0.141421
 40
0.141421
 10
20.2872
 20
-26.2077
 30
0
 10
20.2872
 20
-26.2185
 30
0
  0
SPLINE
  5
C0E
330
A02
100
AcDbEntity
  8
Shape2DView
100
AcDbSpline
210
0
220
0
230
1
 70
8
 71
1
 72
4
 73
2
 74
0
 40
0
 40
0
 40
0.223607
 40
0.223607
 10
20.2819
 20
-26.1916
 30
0
 10
20.2872
 20
-26.2077
 30
0
  0
SPLINE
  5
C0F
330
A02
100
AcDbEntity
  8
Shape2DView
100
AcDbSpline
210
0
220
0
230
1
 70
8
 71
1
 72
4
 73
2
 74
0
 40
0
 40
0
 40
0.223607
 40
0.223607
 10
20.2765
 20
-26.1754
 30
0
 10
20.2819
 20
-26.1916
 30
0
  0
SPLINE
  5
C10
330
A02
100
AcDbEntity
  8
Shape2DView
100
AcDbSpline
210
0
220
0
230
1
 70
8
 71
1
 72
4
 73
2
 74
0
 40
0
 40
0
 40
0.141421
 40
0.141421
 10
20.2765
 20
-26.1647
 30
0
 10
20.2765
 20
-26.1754
 30
0
  0
SPLINE
  5
C11
330
A02
100
AcDbEntity
  8
Shape2DView
100
AcDbSpline
210
0
220
0
230
1
 70
8
 71
1
 72
4
 73
2
 74
0
 40
0
 40
0
 40
0.141421
 40
0.141421
 10
20.2765
 20
-26.1539
 30
0
 10
20.2765
 20
-26.1647
 30
0
  0
SPLINE
  5
C12
330
A02
100
AcDbEntity
  8
Shape2DView
100
AcDbSpline
210
0
220
0
230
1
 70
8
 71
1
 72
4
 73
2
 74
0
 40
0
 40
0
 40
0.1
 40
0.1
 10
20.2711
 20
-26.1485
 30
0
 10
20.2765
 20
-26.1539
 30
0
  0
SPLINE
  5
C13
330
A02
100
AcDbEntity
  8
Shape2DView
100
AcDbSpline
210
0
220
0
230
1
 70
8
 71
1
 72
4
 73
2
 74
0
 40
0
 40
0
 40
0.141421
 40
0.141421
 10
20.2711
 20
-26.1378
 30
0
 10
20.2711
 20
-26.1485
 30
0
  0
SPLINE
  5
C14
330
A02
100
AcDbEntity
  8
Shape2DView
100
AcDbSpline
210
0
220
0
230
1
 70
8
 71
1
 72
4
 73
2
 74
0
 40
0
 40
0
 40
0.1
 40
0.1
 10
20.2657
 20
-26.1324
 30
0
 10
20.2711
 20
-26.1378
 30
0
  0
SPLINE
  5
C15
330
A02
100
AcDbEntity
  8
Shape2DView
100
AcDbSpline
210
0
220
0
230
1
 70
8
 71
1
 72
4
 73
2
 74
0
 40
0
 40
0
 40
0.141421
 40
0.141421
 10
20.2657
 20
-26.1217
 30
0
 10
20.2657
 20
-26.1324
 30
0
  0
SPLINE
  5
C16
330
A02
100
AcDbEntity
  8
Shape2DView
100
AcDbSpline
210
0
220
0
230
1
 70
8
 71
1
 72
4
 73
2
 74
0
 40
0
 40
0
 40
0.141421
 40
0.141421
 10
20.2657
 20
-26.1109
 30
0
 10
20.2657
 20
-26.1217
 30
0
  0
SPLINE
  5
C17
330
A02
100
AcDbEntity
  8
Shape2DView
100
AcDbSpline
210
0
220
0
230
1
 70
8
 71
1
 72
4
 73
2
 74
0
 40
0
 40
0
 40
0.282843
 40
0.282843
 10
20.2657
 20
-26.0894
 30
0
 10
20.2657
 20
-26.1109
 30
0
  0
SPLINE
  5
C18
330
A02
100
AcDbEntity
  8
Shape2DView
100
AcDbSpline
210
0
220
0
230
1
 70
8
 71
3
 72
8
 73
4
 74
0
 40
0
 40
0
 40
0
 40
0
 40
1
 40
1
 40
1
 40
1
 10
18.8998
 20
-25.3688
 30
0
 10
18.8998
 20
-25.3795
 30
0
 10
19.0342
 20
-25.1483
 30
0
 10
19.3461
 20
-25.159
 30
0
  0
SPLINE
  5
C19
330
A02
100
AcDbEntity
  8
Shape2DView
100
AcDbSpline
210
0
220
0
230
1
 70
8
 71
1
 72
4
 73
2
 74
0
 40
0
 40
0
 40
1.20416
 40
1.20416
 10
18.9589
 20
-25.4387
 30
0
 10
18.8998
 20
-25.3688
 30
0
  0
SPLINE
  5
C1A
330
A02
100
AcDbEntity
  8
Shape2DView
100
AcDbSpline
210
0
220
0
230
1
 70
8
 71
1
 72
4
 73
2
 74
0
 40
0
 40
0
 40
4.60109
 40
4.60109
 10
19.3085
 20
-25.4548
 30
0
 10
18.9589
 20
-25.4387
 30
0
  0
SPLINE
  5
C1B
330
A02
100
AcDbEntity
  8
Shape2DView
100
AcDbSpline
210
0
220
0
230
1
 70
8
 71
3
 72
8
 73
4
 74
0
 40
0
 40
0
 40
0
 40
0
 40
1
 40
1
 40
1
 40
1
 10
19.2386
 20
-25.8151
 30
0
 10
19.2547
 20
-25.799
 30
0
 10
19.3999
 20
-25.643
 30
0
 10
19.3085
 20
-25.4548
 30
0
  0
SPLINE
  5
C1C
330
A02
100
AcDbEntity
  8
Shape2DView
100
AcDbSpline
210
0
220
0
230
1
 70
8
 71
1
 72
4
 73
2
 74
0
 40
0
 40
0
 40
4.59674
 40
4.59674
 10
18.889
 20
-25.8098
 30
0
 10
19.2386
 20
-25.8151
 30
0
  0
SPLINE
  5
C1D
330
A02
100
AcDbEntity
  8
Shape2DView
100
AcDbSpline
210
0
220
0
230
1
 70
8
 71
3
 72
8
 73
4
 74
0
 40
0
 40
0
 40
0
 40
0
 40
1
 40
1
 40
1
 40
1
 10
18.9643
 20
-25.9496
 30
0
 10
18.9052
 20
-25.8797
 30
0
 10
18.889
 20
-25.8098
 30
0
 10
18.889
 20
-25.8098
 30
0
  0
SPLINE
  5
C1E
330
A02
100
AcDbEntity
  8
Shape2DView
100
AcDbSpline
210
0
220
0
230
1
 70
8
 71
2
 72
6
 73
3
 74
0
 40
0
 40
0
 40
0
 40
1
 40
1
 40
1
 10
19.0181
 20
-26.0249
 30
0
 10
18.9872
 20
-25.9912
 30
0
 10
18.9643
 20
-25.9496
 30
0
  0
SPLINE
  5
C1F
330
A02
100
AcDbEntity
  8
Shape2DView
100
AcDbSpline
210
0
220
0
230
1
 70
8
 71
3
 72
8
 73
4
 74
0
 40
0
 40
0
 40
0
 40
0
 40
1
 40
1
 40
1
 40
1
 10
19.3139
 20
-26.127
 30
0
 10
19.1633
 20
-26.127
 30
0
 10
19.0719
 20
-26.0786
 30
0
 10
19.0181
 20
-26.0249
 30
0
  0
SPLINE
  5
C20
330
A02
100
AcDbEntity
  8
Shape2DView
100
AcDbSpline
210
0
220
0
230
1
 70
8
 71
3
 72
8
 73
4
 74
0
 40
0
 40
0
 40
0
 40
0
 40
1
 40
1
 40
1
 40
1
 10
19.771
 20
-25.9066
 30
0
 10
19.728
 20
-25.9388
 30
0
 10
19.5182
 20
-26.127
 30
0
 10
19.3139
 20
-26.127
 30
0
  0
SPLINE
  5
C21
330
A02
100
AcDbEntity
  8
Shape2DView
100
AcDbSpline
210
0
220
0
230
1
 70
8
 71
3
 72
8
 73
4
 74
0
 40
0
 40
0
 40
0
 40
0
 40
1
 40
1
 40
1
 40
1
 10
22.2878
 20
-26.0571
 30
0
 10
21.1907
 20
-25.9818
 30
0
 10
19.7979
 20
-25.8904
 30
0
 10
19.771
 20
-25.9066
 30
0
  0
SPLINE
  5
C22
330
A02
100
AcDbEntity
  8
Shape2DView
100
AcDbSpline
210
0
220
0
230
1
 70
8
 71
1
 72
4
 73
2
 74
0
 40
0
 40
0
 40
8
 40
8
 10
22.718
 20
-25.6269
 30
0
 10
22.2878
 20
-26.0571
 30
0
  0
SPLINE
  5
C23
330
A02
100
AcDbEntity
  8
Shape2DView
100
AcDbSpline
210
0
220
0
230
1
 70
8
 71
3
 72
8
 73
4
 74
0
 40
0
 40
0
 40
0
 40
0
 40
1
 40
1
 40
1
 40
1
 10
19.7817
 20
-25.3903
 30
0
 10
19.9538
 20
-25.4763
 30
0
 10
21.6532
 20
-25.5839
 30
0
 10
22.718
 20
-25.6269
 30
0
  0
SPLINE
  5
C24
330
A02
100
AcDbEntity
  8
Shape2DView
100
AcDbSpline
210
0
220
0
230
1
 70
8
 71
3
 72
8
 73
4
 74
0
 40
0
 40
0
 40
0
 40
0
 40
1
 40
1
 40
1
 40
1
 10
19.3461
 20
-25.159
 30
0
 10
19.5989
 20
-25.1752
 30
0
 10
19.7011
 20
-25.3204
 30
0
 10
19.7817
 20
-25.3903
 30
0
  0
SPLINE
  5
C25
330
A02
100
AcDbEntity
  8
Shape2DView
100
AcDbSpline
210
0
220
0
230
1
 70
8
 71
1
 72
4
 73
2
 74
0
 40
0
 40
0
 40
1.42127
 40
1.42127
 10
19.7495
 20
-23.9706
 30
0
 10
19.7387
 20
-23.863
 30
0
  0
SPLINE
  5
C26
330
A02
100
AcDbEntity
  8
Shape2DView
100
AcDbSpline
210
0
220
0
230
1
 70
8
 71
1
 72
4
 73
2
 74
0
 40
0
 40
0
 40
1.13137
 40
1.13137
 10
19.7495
 20
-24.0566
 30
0
 10
19.7495
 20
-23.9706
 30
0
  0
SPLINE
  5
C27
330
A02
100
AcDbEntity
  8
Shape2DView
100
AcDbSpline
210
0
220
0
230
1
 70
8
 71
1
 72
4
 73
2
 74
0
 40
0
 40
0
 40
1.13137
 40
1.13137
 10
19.7495
 20
-24.1427
 30
0
 10
19.7495
 20
-24.0566
 30
0
  0
SPLINE
  5
C28
330
A02
100
AcDbEntity
  8
Shape2DView
100
AcDbSpline
210
0
220
0
230
1
 70
8
 71
1
 72
4
 73
2
 74
0
 40
0
 40
0
 40
1.13137
 40
1.13137
 10
19.7495
 20
-24.2287
 30
0
 10
19.7495
 20
-24.1427
 30
0
  0
SPLINE
  5
C29
330
A02
100
AcDbEntity
  8
Shape2DView
100
AcDbSpline
210
0
220
0
230
1
 70
8
 71
1
 72
4
 73
2
 74
0
 40
0
 40
0
 40
2.70185
 40
2.70185
 10
19.728
 20
-24.4331
 30
0
 10
19.7495
 20
-24.2287
 30
0
  0
SPLINE
  5
C2A
330
A02
100
AcDbEntity
  8
Shape2DView
100
AcDbSpline
210
0
220
0
230
1
 70
8
 71
1
 72
4
 73
2
 74
0
 40
0
 40
0
 40
0.989949
 40
0.989949
 10
19.728
 20
-24.5083
 30
0
 10
19.728
 20
-24.4331
 30
0
  0
SPLINE
  5
C2B
330
A02
100
AcDbEntity
  8
Shape2DView
100
AcDbSpline
210
0
220
0
230
1
 70
8
 71
1
 72
4
 73
2
 74
0
 40
0
 40
0
 40
1.06301
 40
1.06301
 10
19.7333
 20
-24.589
 30
0
 10
19.728
 20
-24.5083
 30
0
  0
SPLINE
  5
C2C
330
A02
100
AcDbEntity
  8
Shape2DView
100
AcDbSpline
210
0
220
0
230
1
 70
8
 71
1
 72
4
 73
2
 74
0
 40
0
 40
0
 40
1.06301
 40
1.06301
 10
19.7387
 20
-24.6697
 30
0
 10
19.7333
 20
-24.589
 30
0
  0
SPLINE
  5
C2D
330
A02
100
AcDbEntity
  8
Shape2DView
100
AcDbSpline
210
0
220
0
230
1
 70
8
 71
1
 72
4
 73
2
 74
0
 40
0
 40
0
 40
1.06301
 40
1.06301
 10
19.7441
 20
-24.7503
 30
0
 10
19.7387
 20
-24.6697
 30
0
  0
SPLINE
  5
C2E
330
A02
100
AcDbEntity
  8
Shape2DView
100
AcDbSpline
210
0
220
0
230
1
 70
8
 71
1
 72
4
 73
2
 74
0
 40
0
 40
0
 40
0.565685
 40
0.565685
 10
19.7441
 20
-24.7934
 30
0
 10
19.7441
 20
-24.7503
 30
0
  0
SPLINE
  5
C2F
330
A02
100
AcDbEntity
  8
Shape2DView
100
AcDbSpline
210
0
220
0
230
1
 70
8
 71
1
 72
4
 73
2
 74
0
 40
0
 40
0
 40
0.640312
 40
0.640312
 10
19.7495
 20
-24.8418
 30
0
 10
19.7441
 20
-24.7934
 30
0
  0
SPLINE
  5
C30
330
A02
100
AcDbEntity
  8
Shape2DView
100
AcDbSpline
210
0
220
0
230
1
 70
8
 71
1
 72
4
 73
2
 74
0
 40
0
 40
0
 40
0.424264
 40
0.424264
 10
19.7495
 20
-24.874
 30
0
 10
19.7495
 20
-24.8418
 30
0
  0
SPLINE
  5
C31
330
A02
100
AcDbEntity
  8
Shape2DView
100
AcDbSpline
210
0
220
0
230
1
 70
8
 71
1
 72
4
 73
2
 74
0
 40
0
 40
0
 40
1.13137
 40
1.13137
 10
19.7495
 20
-24.9601
 30
0
 10
19.7495
 20
-24.874
 30
0
  0
SPLINE
  5
C32
330
A02
100
AcDbEntity
  8
Shape2DView
100
AcDbSpline
210
0
220
0
230
1
 70
8
 71
1
 72
4
 73
2
 74
0
 40
0
 40
0
 40
0.424264
 40
0.424264
 10
19.7495
 20
-24.9923
 30
0
 10
19.7495
 20
-24.9601
 30
0
  0
SPLINE
  5
C33
330
A02
100
AcDbEntity
  8
Shape2DView
100
AcDbSpline
210
0
220
0
230
1
 70
8
 71
1
 72
4
 73
2
 74
0
 40
0
 40
0
 40
1.06301
 40
1.06301
 10
19.7548
 20
-25.073
 30
0
 10
19.7495
 20
-24.9923
 30
0
  0
SPLINE
  5
C34
330
A02
100
AcDbEntity
  8
Shape2DView
100
AcDbSpline
210
0
220
0
230
1
 70
8
 71
1
 72
4
 73
2
 74
0
 40
0
 40
0
 40
0.5
 40
0.5
 10
19.7602
 20
-25.1106
 30
0
 10
19.7548
 20
-25.073
 30
0
  0
SPLINE
  5
C35
330
A02
100
AcDbEntity
  8
Shape2DView
100
AcDbSpline
210
0
220
0
230
1
 70
8
 71
1
 72
4
 73
2
 74
0
 40
0
 40
0
 40
0.848528
 40
0.848528
 10
19.7602
 20
-25.1752
 30
0
 10
19.7602
 20
-25.1106
 30
0
  0
SPLINE
  5
C36
330
A02
100
AcDbEntity
  8
Shape2DView
100
AcDbSpline
210
0
220
0
230
1
 70
8
 71
2
 72
6
 73
3
 74
0
 40
0
 40
0
 40
0
 40
1
 40
1
 40
1
 10
19.857
 20
-25.2612
 30
0
 10
19.8207
 20
-25.2222
 30
0
 10
19.7602
 20
-25.1752
 30
0
  0
SPLINE
  5
C37
330
A02
100
AcDbEntity
  8
Shape2DView
100
AcDbSpline
210
0
220
0
230
1
 70
8
 71
1
 72
4
 73
2
 74
0
 40
0
 40
0
 40
1
 40
1
 10
19.8732
 20
-25.2774
 30
0
 10
19.857
 20
-25.2612
 30
0
  0
SPLINE
  5
C38
330
A02
100
AcDbEntity
  8
Shape2DView
100
AcDbSpline
210
0
220
0
230
1
 70
8
 71
2
 72
6
 73
3
 74
0
 40
0
 40
0
 40
0
 40
1
 40
1
 40
1
 10
20.255
 20
-25.3365
 30
0
 10
19.9511
 20
-25.3069
 30
0
 10
19.8732
 20
-25.2774
 30
0
  0
SPLINE
  5
C39
330
A02
100
AcDbEntity
  8
Shape2DView
100
AcDbSpline
210
0
220
0
230
1
 70
8
 71
1
 72
4
 73
2
 74
0
 40
0
 40
0
 40
0.223607
 40
0.223607
 10
20.2496
 20
-25.3204
 30
0
 10
20.255
 20
-25.3365
 30
0
  0
SPLINE
  5
C3A
330
A02
100
AcDbEntity
  8
Shape2DView
100
AcDbSpline
210
0
220
0
230
1
 70
8
 71
1
 72
4
 73
2
 74
0
 40
0
 40
0
 40
0.5
 40
0.5
 10
20.2442
 20
-25.2827
 30
0
 10
20.2496
 20
-25.3204
 30
0
  0
SPLINE
  5
C3B
330
A02
100
AcDbEntity
  8
Shape2DView
100
AcDbSpline
210
0
220
0
230
1
 70
8
 71
1
 72
4
 73
2
 74
0
 40
0
 40
0
 40
0.565685
 40
0.565685
 10
20.2442
 20
-25.2397
 30
0
 10
20.2442
 20
-25.2827
 30
0
  0
SPLINE
  5
C3C
330
A02
100
AcDbEntity
  8
Shape2DView
100
AcDbSpline
210
0
220
0
230
1
 70
8
 71
1
 72
4
 73
2
 74
0
 40
0
 40
0
 40
0.707107
 40
0.707107
 10
20.2442
 20
-25.1859
 30
0
 10
20.2442
 20
-25.2397
 30
0
  0
SPLINE
  5
C3D
330
A02
100
AcDbEntity
  8
Shape2DView
100
AcDbSpline
210
0
220
0
230
1
 70
8
 71
1
 72
4
 73
2
 74
0
 40
0
 40
0
 40
0.707107
 40
0.707107
 10
20.2442
 20
-25.1322
 30
0
 10
20.2442
 20
-25.1859
 30
0
  0
SPLINE
  5
C3E
330
A02
100
AcDbEntity
  8
Shape2DView
100
AcDbSpline
210
0
220
0
230
1
 70
8
 71
1
 72
4
 73
2
 74
0
 40
0
 40
0
 40
0.565685
 40
0.565685
 10
20.2442
 20
-25.0891
 30
0
 10
20.2442
 20
-25.1322
 30
0
  0
SPLINE
  5
C3F
330
A02
100
AcDbEntity
  8
Shape2DView
100
AcDbSpline
210
0
220
0
230
1
 70
8
 71
1
 72
4
 73
2
 74
0
 40
0
 40
0
 40
0.640312
 40
0.640312
 10
20.2388
 20
-25.0407
 30
0
 10
20.2442
 20
-25.0891
 30
0
  0
SPLINE
  5
C40
330
A02
100
AcDbEntity
  8
Shape2DView
100
AcDbSpline
210
0
220
0
230
1
 70
8
 71
1
 72
4
 73
2
 74
0
 40
0
 40
0
 40
0.640312
 40
0.640312
 10
20.2335
 20
-24.9923
 30
0
 10
20.2388
 20
-25.0407
 30
0
  0
SPLINE
  5
C41
330
A02
100
AcDbEntity
  8
Shape2DView
100
AcDbSpline
210
0
220
0
230
1
 70
8
 71
1
 72
4
 73
2
 74
0
 40
0
 40
0
 40
0.223607
 40
0.223607
 10
20.2281
 20
-24.9762
 30
0
 10
20.2335
 20
-24.9923
 30
0
  0
SPLINE
  5
C42
330
A02
100
AcDbEntity
  8
Shape2DView
100
AcDbSpline
210
0
220
0
230
1
 70
8
 71
1
 72
4
 73
2
 74
0
 40
0
 40
0
 40
0.223607
 40
0.223607
 10
20.2227
 20
-24.9601
 30
0
 10
20.2281
 20
-24.9762
 30
0
  0
SPLINE
  5
C43
330
A02
100
AcDbEntity
  8
Shape2DView
100
AcDbSpline
210
0
220
0
230
1
 70
8
 71
1
 72
4
 73
2
 74
0
 40
0
 40
0
 40
0.781025
 40
0.781025
 10
20.2173
 20
-24.9009
 30
0
 10
20.2227
 20
-24.9601
 30
0
  0
SPLINE
  5
C44
330
A02
100
AcDbEntity
  8
Shape2DView
100
AcDbSpline
210
0
220
0
230
1
 70
8
 71
1
 72
4
 73
2
 74
0
 40
0
 40
0
 40
0.781025
 40
0.781025
 10
20.212
 20
-24.8418
 30
0
 10
20.2173
 20
-24.9009
 30
0
  0
SPLINE
  5
C45
330
A02
100
AcDbEntity
  8
Shape2DView
100
AcDbSpline
210
0
220
0
230
1
 70
8
 71
1
 72
4
 73
2
 74
0
 40
0
 40
0
 40
0.424264
 40
0.424264
 10
20.212
 20
-24.8095
 30
0
 10
20.212
 20
-24.8418
 30
0
  0
SPLINE
  5
C46
330
A02
100
AcDbEntity
  8
Shape2DView
100
AcDbSpline
210
0
220
0
230
1
 70
8
 71
1
 72
4
 73
2
 74
0
 40
0
 40
0
 40
0.640312
 40
0.640312
 10
20.2066
 20
-24.7611
 30
0
 10
20.212
 20
-24.8095
 30
0
  0
SPLINE
  5
C47
330
A02
100
AcDbEntity
  8
Shape2DView
100
AcDbSpline
210
0
220
0
230
1
 70
8
 71
1
 72
4
 73
2
 74
0
 40
0
 40
0
 40
0.640312
 40
0.640312
 10
20.2012
 20
-24.7127
 30
0
 10
20.2066
 20
-24.7611
 30
0
  0
SPLINE
  5
C48
330
A02
100
AcDbEntity
  8
Shape2DView
100
AcDbSpline
210
0
220
0
230
1
 70
8
 71
1
 72
4
 73
2
 74
0
 40
0
 40
0
 40
1
 40
1
 10
20.1904
 20
-24.6374
 30
0
 10
20.2012
 20
-24.7127
 30
0
  0
SPLINE
  5
C49
330
A02
100
AcDbEntity
  8
Shape2DView
100
AcDbSpline
210
0
220
0
230
1
 70
8
 71
1
 72
4
 73
2
 74
0
 40
0
 40
0
 40
5.56058
 40
5.56058
 10
20.1367
 20
-24.2179
 30
0
 10
20.1904
 20
-24.6374
 30
0
  0
SPLINE
  5
C4A
330
A02
100
AcDbEntity
  8
Shape2DView
100
AcDbSpline
210
0
220
0
230
1
 70
8
 71
1
 72
4
 73
2
 74
0
 40
0
 40
0
 40
1.14018
 40
1.14018
 10
20.1259
 20
-24.1319
 30
0
 10
20.1367
 20
-24.2179
 30
0
  0
SPLINE
  5
C4B
330
A02
100
AcDbEntity
  8
Shape2DView
100
AcDbSpline
210
0
220
0
230
1
 70
8
 71
1
 72
4
 73
2
 74
0
 40
0
 40
0
 40
0.141421
 40
0.141421
 10
20.1259
 20
-24.1212
 30
0
 10
20.1259
 20
-24.1319
 30
0
  0
SPLINE
  5
C4C
330
A02
100
AcDbEntity
  8
Shape2DView
100
AcDbSpline
210
0
220
0
230
1
 70
8
 71
1
 72
4
 73
2
 74
0
 40
0
 40
0
 40
0.141421
 40
0.141421
 10
20.1259
 20
-24.1104
 30
0
 10
20.1259
 20
-24.1212
 30
0
  0
SPLINE
  5
C4D
330
A02
100
AcDbEntity
  8
Shape2DView
100
AcDbSpline
210
0
220
0
230
1
 70
8
 71
1
 72
4
 73
2
 74
0
 40
0
 40
0
 40
0.282843
 40
0.282843
 10
20.1259
 20
-24.0889
 30
0
 10
20.1259
 20
-24.1104
 30
0
  0
SPLINE
  5
C4E
330
A02
100
AcDbEntity
  8
Shape2DView
100
AcDbSpline
210
0
220
0
230
1
 70
8
 71
1
 72
4
 73
2
 74
0
 40
0
 40
0
 40
0.640312
 40
0.640312
 10
20.1205
 20
-24.0405
 30
0
 10
20.1259
 20
-24.0889
 30
0
  0
SPLINE
  5
C4F
330
A02
100
AcDbEntity
  8
Shape2DView
100
AcDbSpline
210
0
220
0
230
1
 70
8
 71
1
 72
4
 73
2
 74
0
 40
0
 40
0
 40
0.640312
 40
0.640312
 10
20.1152
 20
-23.9921
 30
0
 10
20.1205
 20
-24.0405
 30
0
  0
SPLINE
  5
C50
330
A02
100
AcDbEntity
  8
Shape2DView
100
AcDbSpline
210
0
220
0
230
1
 70
8
 71
1
 72
4
 73
2
 74
0
 40
0
 40
0
 40
0.640312
 40
0.640312
 10
20.1098
 20
-23.9437
 30
0
 10
20.1152
 20
-23.9921
 30
0
  0
SPLINE
  5
C51
330
A02
100
AcDbEntity
  8
Shape2DView
100
AcDbSpline
210
0
220
0
230
1
 70
8
 71
1
 72
4
 73
2
 74
0
 40
0
 40
0
 40
0.640312
 40
0.640312
 10
20.1044
 20
-23.8953
 30
0
 10
20.1098
 20
-23.9437
 30
0
  0
SPLINE
  5
C52
330
A02
100
AcDbEntity
  8
Shape2DView
100
AcDbSpline
210
0
220
0
230
1
 70
8
 71
1
 72
4
 73
2
 74
0
 40
0
 40
0
 40
0.640312
 40
0.640312
 10
20.099
 20
-23.8469
 30
0
 10
20.1044
 20
-23.8953
 30
0
  0
SPLINE
  5
C53
330
A02
100
AcDbEntity
  8
Shape2DView
100
AcDbSpline
210
0
220
0
230
1
 70
8
 71
1
 72
4
 73
2
 74
0
 40
0
 40
0
 40
1.28062
 40
1.28062
 10
20.0883
 20
-23.7501
 30
0
 10
20.099
 20
-23.8469
 30
0
  0
SPLINE
  5
C54
330
A02
100
AcDbEntity
  8
Shape2DView
100
AcDbSpline
210
0
220
0
230
1
 70
8
 71
1
 72
4
 73
2
 74
0
 40
0
 40
0
 40
1.28062
 40
1.28062
 10
20.0775
 20
-23.6533
 30
0
 10
20.0883
 20
-23.7501
 30
0
  0
SPLINE
  5
C55
330
A02
100
AcDbEntity
  8
Shape2DView
100
AcDbSpline
210
0
220
0
230
1
 70
8
 71
1
 72
4
 73
2
 74
0
 40
0
 40
0
 40
1.28062
 40
1.28062
 10
20.0668
 20
-23.5565
 30
0
 10
20.0775
 20
-23.6533
 30
0
  0
SPLINE
  5
C56
330
A02
100
AcDbEntity
  8
Shape2DView
100
AcDbSpline
210
0
220
0
230
1
 70
8
 71
1
 72
4
 73
2
 74
0
 40
0
 40
0
 40
0.282843
 40
0.282843
 10
20.0668
 20
-23.535
 30
0
 10
20.0668
 20
-23.5565
 30
0
  0
SPLINE
  5
C57
330
A02
100
AcDbEntity
  8
Shape2DView
100
AcDbSpline
210
0
220
0
230
1
 70
8
 71
1
 72
4
 73
2
 74
0
 40
0
 40
0
 40
0.223607
 40
0.223607
 10
20.0614
 20
-23.5188
 30
0
 10
20.0668
 20
-23.535
 30
0
  0
SPLINE
  5
C58
330
A02
100
AcDbEntity
  8
Shape2DView
100
AcDbSpline
210
0
220
0
230
1
 70
8
 71
2
 72
6
 73
3
 74
0
 40
0
 40
0
 40
0
 40
1
 40
1
 40
1
 10
19.7172
 20
-23.5511
 30
0
 10
19.8933
 20
-23.5874
 30
0
 10
20.0614
 20
-23.5188
 30
0
  0
SPLINE
  5
C59
330
A02
100
AcDbEntity
  8
Shape2DView
100
AcDbSpline
210
0
220
0
230
1
 70
8
 71
1
 72
4
 73
2
 74
0
 40
0
 40
0
 40
0.5
 40
0.5
 10
19.7226
 20
-23.5888
 30
0
 10
19.7172
 20
-23.5511
 30
0
  0
SPLINE
  5
C5A
330
A02
100
AcDbEntity
  8
Shape2DView
100
AcDbSpline
210
0
220
0
230
1
 70
8
 71
1
 72
4
 73
2
 74
0
 40
0
 40
0
 40
1.20416
 40
1.20416
 10
19.728
 20
-23.6802
 30
0
 10
19.7226
 20
-23.5888
 30
0
  0
SPLINE
  5
C5B
330
A02
100
AcDbEntity
  8
Shape2DView
100
AcDbSpline
210
0
220
0
230
1
 70
8
 71
1
 72
4
 73
2
 74
0
 40
0
 40
0
 40
1.20416
 40
1.20416
 10
19.7333
 20
-23.7716
 30
0
 10
19.728
 20
-23.6802
 30
0
  0
SPLINE
  5
C5C
330
A02
100
AcDbEntity
  8
Shape2DView
100
AcDbSpline
210
0
220
0
230
1
 70
8
 71
1
 72
4
 73
2
 74
0
 40
0
 40
0
 40
1.20416
 40
1.20416
 10
19.7387
 20
-23.863
 30
0
 10
19.7333
 20
-23.7716
 30
0
  0
SPLINE
  5
C5D
330
A02
100
AcDbEntity
  8
Shape2DView
100
AcDbSpline
210
0
220
0
230
1
 70
8
 71
1
 72
4
 73
2
 74
0
 40
0
 40
0
 40
0.447214
 40
0.447214
 10
18.9697
 20
-21.6313
 30
0
 10
19.002
 20
-21.6205
 30
0
  0
SPLINE
  5
C5E
330
A02
100
AcDbEntity
  8
Shape2DView
100
AcDbSpline
210
0
220
0
230
1
 70
8
 71
1
 72
4
 73
2
 74
0
 40
0
 40
0
 40
0.412311
 40
0.412311
 10
18.9428
 20
-21.6474
 30
0
 10
18.9697
 20
-21.6313
 30
0
  0
SPLINE
  5
C5F
330
A02
100
AcDbEntity
  8
Shape2DView
100
AcDbSpline
210
0
220
0
230
1
 70
8
 71
1
 72
4
 73
2
 74
0
 40
0
 40
0
 40
0.538516
 40
0.538516
 10
18.9052
 20
-21.6635
 30
0
 10
18.9428
 20
-21.6474
 30
0
  0
SPLINE
  5
C60
330
A02
100
AcDbEntity
  8
Shape2DView
100
AcDbSpline
210
0
220
0
230
1
 70
8
 71
1
 72
4
 73
2
 74
0
 40
0
 40
0
 40
0.412311
 40
0.412311
 10
18.8783
 20
-21.6797
 30
0
 10
18.9052
 20
-21.6635
 30
0
  0
SPLINE
  5
C61
330
A02
100
AcDbEntity
  8
Shape2DView
100
AcDbSpline
210
0
220
0
230
1
 70
8
 71
1
 72
4
 73
2
 74
0
 40
0
 40
0
 40
0.412311
 40
0.412311
 10
18.8514
 20
-21.6958
 30
0
 10
18.8783
 20
-21.6797
 30
0
  0
SPLINE
  5
C62
330
A02
100
AcDbEntity
  8
Shape2DView
100
AcDbSpline
210
0
220
0
230
1
 70
8
 71
1
 72
4
 73
2
 74
0
 40
0
 40
0
 40
0.538516
 40
0.538516
 10
18.8137
 20
-21.7119
 30
0
 10
18.8514
 20
-21.6958
 30
0
  0
SPLINE
  5
C63
330
A02
100
AcDbEntity
  8
Shape2DView
100
AcDbSpline
210
0
220
0
230
1
 70
8
 71
1
 72
4
 73
2
 74
0
 40
0
 40
0
 40
0.412311
 40
0.412311
 10
18.7869
 20
-21.7281
 30
0
 10
18.8137
 20
-21.7119
 30
0
  0
SPLINE
  5
C64
330
A02
100
AcDbEntity
  8
Shape2DView
100
AcDbSpline
210
0
220
0
230
1
 70
8
 71
1
 72
4
 73
2
 74
0
 40
0
 40
0
 40
0.412311
 40
0.412311
 10
18.76
 20
-21.7442
 30
0
 10
18.7869
 20
-21.7281
 30
0
  0
SPLINE
  5
C65
330
A02
100
AcDbEntity
  8
Shape2DView
100
AcDbSpline
210
0
220
0
230
1
 70
8
 71
1
 72
4
 73
2
 74
0
 40
0
 40
0
 40
0.509902
 40
0.509902
 10
18.7277
 20
-21.7657
 30
0
 10
18.76
 20
-21.7442
 30
0
  0
SPLINE
  5
C66
330
A02
100
AcDbEntity
  8
Shape2DView
100
AcDbSpline
210
0
220
0
230
1
 70
8
 71
1
 72
4
 73
2
 74
0
 40
0
 40
0
 40
0.412311
 40
0.412311
 10
18.7008
 20
-21.7818
 30
0
 10
18.7277
 20
-21.7657
 30
0
  0
SPLINE
  5
C67
330
A02
100
AcDbEntity
  8
Shape2DView
100
AcDbSpline
210
0
220
0
230
1
 70
8
 71
1
 72
4
 73
2
 74
0
 40
0
 40
0
 40
0.412311
 40
0.412311
 10
18.6739
 20
-21.798
 30
0
 10
18.7008
 20
-21.7818
 30
0
  0
SPLINE
  5
C68
330
A02
100
AcDbEntity
  8
Shape2DView
100
AcDbSpline
210
0
220
0
230
1
 70
8
 71
1
 72
4
 73
2
 74
0
 40
0
 40
0
 40
0.509902
 40
0.509902
 10
18.6417
 20
-21.8195
 30
0
 10
18.6739
 20
-21.798
 30
0
  0
SPLINE
  5
C69
330
A02
100
AcDbEntity
  8
Shape2DView
100
AcDbSpline
210
0
220
0
230
1
 70
8
 71
1
 72
4
 73
2
 74
0
 40
0
 40
0
 40
0.824621
 40
0.824621
 10
18.5879
 20
-21.8518
 30
0
 10
18.6417
 20
-21.8195
 30
0
  0
SPLINE
  5
C6A
330
A02
100
AcDbEntity
  8
Shape2DView
100
AcDbSpline
210
0
220
0
230
1
 70
8
 71
1
 72
4
 73
2
 74
0
 40
0
 40
0
 40
1.17047
 40
1.17047
 10
18.5072
 20
-21.8894
 30
0
 10
18.5879
 20
-21.8518
 30
0
  0
SPLINE
  5
C6B
330
A02
100
AcDbEntity
  8
Shape2DView
100
AcDbSpline
210
0
220
0
230
1
 70
8
 71
1
 72
4
 73
2
 74
0
 40
0
 40
0
 40
0.223607
 40
0.223607
 10
18.5126
 20
-21.9055
 30
0
 10
18.5072
 20
-21.8894
 30
0
  0
SPLINE
  5
C6C
330
A02
100
AcDbEntity
  8
Shape2DView
100
AcDbSpline
210
0
220
0
230
1
 70
8
 71
1
 72
4
 73
2
 74
0
 40
0
 40
0
 40
0.141421
 40
0.141421
 10
18.5126
 20
-21.9163
 30
0
 10
18.5126
 20
-21.9055
 30
0
  0
SPLINE
  5
C6D
330
A02
100
AcDbEntity
  8
Shape2DView
100
AcDbSpline
210
0
220
0
230
1
 70
8
 71
1
 72
4
 73
2
 74
0
 40
0
 40
0
 40
0.2
 40
0.2
 10
18.5234
 20
-21.927
 30
0
 10
18.5126
 20
-21.9163
 30
0
  0
SPLINE
  5
C6E
330
A02
100
AcDbEntity
  8
Shape2DView
100
AcDbSpline
210
0
220
0
230
1
 70
8
 71
1
 72
4
 73
2
 74
0
 40
0
 40
0
 40
0.223607
 40
0.223607
 10
18.5287
 20
-21.9432
 30
0
 10
18.5234
 20
-21.927
 30
0
  0
SPLINE
  5
C6F
330
A02
100
AcDbEntity
  8
Shape2DView
100
AcDbSpline
210
0
220
0
230
1
 70
8
 71
1
 72
4
 73
2
 74
0
 40
0
 40
0
 40
0.3
 40
0.3
 10
18.5449
 20
-21.9593
 30
0
 10
18.5287
 20
-21.9432
 30
0
  0
SPLINE
  5
C70
330
A02
100
AcDbEntity
  8
Shape2DView
100
AcDbSpline
210
0
220
0
230
1
 70
8
 71
1
 72
4
 73
2
 74
0
 40
0
 40
0
 40
0.2
 40
0.2
 10
18.5556
 20
-21.9701
 30
0
 10
18.5449
 20
-21.9593
 30
0
  0
SPLINE
  5
C71
330
A02
100
AcDbEntity
  8
Shape2DView
100
AcDbSpline
210
0
220
0
230
1
 70
8
 71
1
 72
4
 73
2
 74
0
 40
0
 40
0
 40
0.3
 40
0.3
 10
18.5718
 20
-21.9862
 30
0
 10
18.5556
 20
-21.9701
 30
0
  0
SPLINE
  5
C72
330
A02
100
AcDbEntity
  8
Shape2DView
100
AcDbSpline
210
0
220
0
230
1
 70
8
 71
1
 72
4
 73
2
 74
0
 40
0
 40
0
 40
0.223607
 40
0.223607
 10
18.5879
 20
-21.9916
 30
0
 10
18.5718
 20
-21.9862
 30
0
  0
SPLINE
  5
C73
330
A02
100
AcDbEntity
  8
Shape2DView
100
AcDbSpline
210
0
220
0
230
1
 70
8
 71
1
 72
4
 73
2
 74
0
 40
0
 40
0
 40
0.67082
 40
0.67082
 10
18.6363
 20
-21.9754
 30
0
 10
18.5879
 20
-21.9916
 30
0
  0
SPLINE
  5
C74
330
A02
100
AcDbEntity
  8
Shape2DView
100
AcDbSpline
210
0
220
0
230
1
 70
8
 71
1
 72
4
 73
2
 74
0
 40
0
 40
0
 40
0.632456
 40
0.632456
 10
18.6793
 20
-21.9539
 30
0
 10
18.6363
 20
-21.9754
 30
0
  0
SPLINE
  5
C75
330
A02
100
AcDbEntity
  8
Shape2DView
100
AcDbSpline
210
0
220
0
230
1
 70
8
 71
1
 72
4
 73
2
 74
0
 40
0
 40
0
 40
0.67082
 40
0.67082
 10
18.7277
 20
-21.9378
 30
0
 10
18.6793
 20
-21.9539
 30
0
  0
SPLINE
  5
C76
330
A02
100
AcDbEntity
  8
Shape2DView
100
AcDbSpline
210
0
220
0
230
1
 70
8
 71
1
 72
4
 73
2
 74
0
 40
0
 40
0
 40
0.632456
 40
0.632456
 10
18.7707
 20
-21.9163
 30
0
 10
18.7277
 20
-21.9378
 30
0
  0
SPLINE
  5
C77
330
A02
100
AcDbEntity
  8
Shape2DView
100
AcDbSpline
210
0
220
0
230
1
 70
8
 71
1
 72
4
 73
2
 74
0
 40
0
 40
0
 40
0.316228
 40
0.316228
 10
18.7922
 20
-21.9055
 30
0
 10
18.7707
 20
-21.9163
 30
0
  0
SPLINE
  5
C78
330
A02
100
AcDbEntity
  8
Shape2DView
100
AcDbSpline
210
0
220
0
230
1
 70
8
 71
1
 72
4
 73
2
 74
0
 40
0
 40
0
 40
0.360555
 40
0.360555
 10
18.8191
 20
-21.9002
 30
0
 10
18.7922
 20
-21.9055
 30
0
  0
SPLINE
  5
C79
330
A02
100
AcDbEntity
  8
Shape2DView
100
AcDbSpline
210
0
220
0
230
1
 70
8
 71
1
 72
4
 73
2
 74
0
 40
0
 40
0
 40
0.583095
 40
0.583095
 10
18.8621
 20
-21.8894
 30
0
 10
18.8191
 20
-21.9002
 30
0
  0
SPLINE
  5
C7A
330
A02
100
AcDbEntity
  8
Shape2DView
100
AcDbSpline
210
0
220
0
230
1
 70
8
 71
1
 72
4
 73
2
 74
0
 40
0
 40
0
 40
0.583095
 40
0.583095
 10
18.9052
 20
-21.8786
 30
0
 10
18.8621
 20
-21.8894
 30
0
  0
SPLINE
  5
C7B
330
A02
100
AcDbEntity
  8
Shape2DView
100
AcDbSpline
210
0
220
0
230
1
 70
8
 71
1
 72
4
 73
2
 74
0
 40
0
 40
0
 40
0.583095
 40
0.583095
 10
18.9482
 20
-21.8679
 30
0
 10
18.9052
 20
-21.8786
 30
0
  0
SPLINE
  5
C7C
330
A02
100
AcDbEntity
  8
Shape2DView
100
AcDbSpline
210
0
220
0
230
1
 70
8
 71
1
 72
4
 73
2
 74
0
 40
0
 40
0
 40
0.316228
 40
0.316228
 10
18.9697
 20
-21.8571
 30
0
 10
18.9482
 20
-21.8679
 30
0
  0
SPLINE
  5
C7D
330
A02
100
AcDbEntity
  8
Shape2DView
100
AcDbSpline
210
0
220
0
230
1
 70
8
 71
1
 72
4
 73
2
 74
0
 40
0
 40
0
 40
0.282843
 40
0.282843
 10
18.9912
 20
-21.8571
 30
0
 10
18.9697
 20
-21.8571
 30
0
  0
SPLINE
  5
C7E
330
A02
100
AcDbEntity
  8
Shape2DView
100
AcDbSpline
210
0
220
0
230
1
 70
8
 71
1
 72
4
 73
2
 74
0
 40
0
 40
0
 40
0.583095
 40
0.583095
 10
19.0342
 20
-21.8464
 30
0
 10
18.9912
 20
-21.8571
 30
0
  0
SPLINE
  5
C7F
330
A02
100
AcDbEntity
  8
Shape2DView
100
AcDbSpline
210
0
220
0
230
1
 70
8
 71
1
 72
4
 73
2
 74
0
 40
0
 40
0
 40
0.5
 40
0.5
 10
19.0719
 20
-21.841
 30
0
 10
19.0342
 20
-21.8464
 30
0
  0
SPLINE
  5
C80
330
A02
100
AcDbEntity
  8
Shape2DView
100
AcDbSpline
210
0
220
0
230
1
 70
8
 71
1
 72
4
 73
2
 74
0
 40
0
 40
0
 40
0.565685
 40
0.565685
 10
19.1149
 20
-21.841
 30
0
 10
19.0719
 20
-21.841
 30
0
  0
SPLINE
  5
C81
330
A02
100
AcDbEntity
  8
Shape2DView
100
AcDbSpline
210
0
220
0
230
1
 70
8
 71
1
 72
4
 73
2
 74
0
 40
0
 40
0
 40
0.5
 40
0.5
 10
19.1525
 20
-21.8356
 30
0
 10
19.1149
 20
-21.841
 30
0
  0
SPLINE
  5
C82
330
A02
100
AcDbEntity
  8
Shape2DView
100
AcDbSpline
210
0
220
0
230
1
 70
8
 71
1
 72
4
 73
2
 74
0
 40
0
 40
0
 40
0.565685
 40
0.565685
 10
19.1956
 20
-21.8356
 30
0
 10
19.1525
 20
-21.8356
 30
0
  0
SPLINE
  5
C83
330
A02
100
AcDbEntity
  8
Shape2DView
100
AcDbSpline
210
0
220
0
230
1
 70
8
 71
1
 72
4
 73
2
 74
0
 40
0
 40
0
 40
0.282843
 40
0.282843
 10
19.2171
 20
-21.8356
 30
0
 10
19.1956
 20
-21.8356
 30
0
  0
SPLINE
  5
C84
330
A02
100
AcDbEntity
  8
Shape2DView
100
AcDbSpline
210
0
220
0
230
1
 70
8
 71
1
 72
4
 73
2
 74
0
 40
0
 40
0
 40
0.223607
 40
0.223607
 10
19.2332
 20
-21.8302
 30
0
 10
19.2171
 20
-21.8356
 30
0
  0
SPLINE
  5
C85
330
A02
100
AcDbEntity
  8
Shape2DView
100
AcDbSpline
210
0
220
0
230
1
 70
8
 71
1
 72
4
 73
2
 74
0
 40
0
 40
0
 40
0.5
 40
0.5
 10
19.2709
 20
-21.8356
 30
0
 10
19.2332
 20
-21.8302
 30
0
  0
SPLINE
  5
C86
330
A02
100
AcDbEntity
  8
Shape2DView
100
AcDbSpline
210
0
220
0
230
1
 70
8
 71
1
 72
4
 73
2
 74
0
 40
0
 40
0
 40
0.223607
 40
0.223607
 10
19.287
 20
-21.8302
 30
0
 10
19.2709
 20
-21.8356
 30
0
  0
SPLINE
  5
C87
330
A02
100
AcDbEntity
  8
Shape2DView
100
AcDbSpline
210
0
220
0
230
1
 70
8
 71
1
 72
4
 73
2
 74
0
 40
0
 40
0
 40
0.316228
 40
0.316228
 10
19.3085
 20
-21.8195
 30
0
 10
19.287
 20
-21.8302
 30
0
  0
SPLINE
  5
C88
330
A02
100
AcDbEntity
  8
Shape2DView
100
AcDbSpline
210
0
220
0
230
1
 70
8
 71
1
 72
4
 73
2
 74
0
 40
0
 40
0
 40
0.2
 40
0.2
 10
19.3193
 20
-21.8087
 30
0
 10
19.3085
 20
-21.8195
 30
0
  0
SPLINE
  5
C89
330
A02
100
AcDbEntity
  8
Shape2DView
100
AcDbSpline
210
0
220
0
230
1
 70
8
 71
1
 72
4
 73
2
 74
0
 40
0
 40
0
 40
0.223607
 40
0.223607
 10
19.3354
 20
-21.8034
 30
0
 10
19.3193
 20
-21.8087
 30
0
  0
SPLINE
  5
C8A
330
A02
100
AcDbEntity
  8
Shape2DView
100
AcDbSpline
210
0
220
0
230
1
 70
8
 71
1
 72
4
 73
2
 74
0
 40
0
 40
0
 40
0.141421
 40
0.141421
 10
19.3461
 20
-21.8034
 30
0
 10
19.3354
 20
-21.8034
 30
0
  0
SPLINE
  5
C8B
330
A02
100
AcDbEntity
  8
Shape2DView
100
AcDbSpline
210
0
220
0
230
1
 70
8
 71
1
 72
4
 73
2
 74
0
 40
0
 40
0
 40
0.223607
 40
0.223607
 10
19.3623
 20
-21.798
 30
0
 10
19.3461
 20
-21.8034
 30
0
  0
SPLINE
  5
C8C
330
A02
100
AcDbEntity
  8
Shape2DView
100
AcDbSpline
210
0
220
0
230
1
 70
8
 71
1
 72
4
 73
2
 74
0
 40
0
 40
0
 40
0.141421
 40
0.141421
 10
19.373
 20
-21.798
 30
0
 10
19.3623
 20
-21.798
 30
0
  0
SPLINE
  5
C8D
330
A02
100
AcDbEntity
  8
Shape2DView
100
AcDbSpline
210
0
220
0
230
1
 70
8
 71
1
 72
4
 73
2
 74
0
 40
0
 40
0
 40
0.141421
 40
0.141421
 10
19.3838
 20
-21.798
 30
0
 10
19.373
 20
-21.798
 30
0
  0
SPLINE
  5
C8E
330
A02
100
AcDbEntity
  8
Shape2DView
100
AcDbSpline
210
0
220
0
230
1
 70
8
 71
1
 72
4
 73
2
 74
0
 40
0
 40
0
 40
0.141421
 40
0.141421
 10
19.3945
 20
-21.798
 30
0
 10
19.3838
 20
-21.798
 30
0
  0
SPLINE
  5
C8F
330
A02
100
AcDbEntity
  8
Shape2DView
100
AcDbSpline
210
0
220
0
230
1
 70
8
 71
1
 72
4
 73
2
 74
0
 40
0
 40
0
 40
0.223607
 40
0.223607
 10
19.4107
 20
-21.8034
 30
0
 10
19.3945
 20
-21.798
 30
0
  0
SPLINE
  5
C90
330
A02
100
AcDbEntity
  8
Shape2DView
100
AcDbSpline
210
0
220
0
230
1
 70
8
 71
1
 72
4
 73
2
 74
0
 40
0
 40
0
 40
0.141421
 40
0.141421
 10
19.4214
 20
-21.8034
 30
0
 10
19.4107
 20
-21.8034
 30
0
  0
SPLINE
  5
C91
330
A02
100
AcDbEntity
  8
Shape2DView
100
AcDbSpline
210
0
220
0
230
1
 70
8
 71
1
 72
4
 73
2
 74
0
 40
0
 40
0
 40
0.1
 40
0.1
 10
19.4268
 20
-21.8087
 30
0
 10
19.4214
 20
-21.8034
 30
0
  0
SPLINE
  5
C92
330
A02
100
AcDbEntity
  8
Shape2DView
100
AcDbSpline
210
0
220
0
230
1
 70
8
 71
1
 72
4
 73
2
 74
0
 40
0
 40
0
 40
0.2
 40
0.2
 10
19.4376
 20
-21.8195
 30
0
 10
19.4268
 20
-21.8087
 30
0
  0
SPLINE
  5
C93
330
A02
100
AcDbEntity
  8
Shape2DView
100
AcDbSpline
210
0
220
0
230
1
 70
8
 71
1
 72
4
 73
2
 74
0
 40
0
 40
0
 40
0.1
 40
0.1
 10
19.4429
 20
-21.8249
 30
0
 10
19.4376
 20
-21.8195
 30
0
  0
SPLINE
  5
C94
330
A02
100
AcDbEntity
  8
Shape2DView
100
AcDbSpline
210
0
220
0
230
1
 70
8
 71
1
 72
4
 73
2
 74
0
 40
0
 40
0
 40
0.2
 40
0.2
 10
19.4537
 20
-21.8356
 30
0
 10
19.4429
 20
-21.8249
 30
0
  0
SPLINE
  5
C95
330
A02
100
AcDbEntity
  8
Shape2DView
100
AcDbSpline
210
0
220
0
230
1
 70
8
 71
1
 72
4
 73
2
 74
0
 40
0
 40
0
 40
0.2
 40
0.2
 10
19.4645
 20
-21.8464
 30
0
 10
19.4537
 20
-21.8356
 30
0
  0
SPLINE
  5
C96
330
A02
100
AcDbEntity
  8
Shape2DView
100
AcDbSpline
210
0
220
0
230
1
 70
8
 71
1
 72
4
 73
2
 74
0
 40
0
 40
0
 40
0.141421
 40
0.141421
 10
19.4645
 20
-21.8571
 30
0
 10
19.4645
 20
-21.8464
 30
0
  0
SPLINE
  5
C97
330
A02
100
AcDbEntity
  8
Shape2DView
100
AcDbSpline
210
0
220
0
230
1
 70
8
 71
1
 72
4
 73
2
 74
0
 40
0
 40
0
 40
0.141421
 40
0.141421
 10
19.4645
 20
-21.8679
 30
0
 10
19.4645
 20
-21.8571
 30
0
  0
SPLINE
  5
C98
330
A02
100
AcDbEntity
  8
Shape2DView
100
AcDbSpline
210
0
220
0
230
1
 70
8
 71
1
 72
4
 73
2
 74
0
 40
0
 40
0
 40
0.1
 40
0.1
 10
19.4698
 20
-21.8733
 30
0
 10
19.4645
 20
-21.8679
 30
0
  0
SPLINE
  5
C99
330
A02
100
AcDbEntity
  8
Shape2DView
100
AcDbSpline
210
0
220
0
230
1
 70
8
 71
1
 72
4
 73
2
 74
0
 40
0
 40
0
 40
0.360555
 40
0.360555
 10
19.4752
 20
-21.9002
 30
0
 10
19.4698
 20
-21.8733
 30
0
  0
SPLINE
  5
C9A
330
A02
100
AcDbEntity
  8
Shape2DView
100
AcDbSpline
210
0
220
0
230
1
 70
8
 71
1
 72
4
 73
2
 74
0
 40
0
 40
0
 40
0.223607
 40
0.223607
 10
19.4806
 20
-21.9163
 30
0
 10
19.4752
 20
-21.9002
 30
0
  0
SPLINE
  5
C9B
330
A02
100
AcDbEntity
  8
Shape2DView
100
AcDbSpline
210
0
220
0
230
1
 70
8
 71
1
 72
4
 73
2
 74
0
 40
0
 40
0
 40
0.2
 40
0.2
 10
19.4913
 20
-21.927
 30
0
 10
19.4806
 20
-21.9163
 30
0
  0
SPLINE
  5
C9C
330
A02
100
AcDbEntity
  8
Shape2DView
100
AcDbSpline
210
0
220
0
230
1
 70
8
 71
1
 72
4
 73
2
 74
0
 40
0
 40
0
 40
0.360555
 40
0.360555
 10
19.4967
 20
-21.9539
 30
0
 10
19.4913
 20
-21.927
 30
0
  0
SPLINE
  5
C9D
330
A02
100
AcDbEntity
  8
Shape2DView
100
AcDbSpline
210
0
220
0
230
1
 70
8
 71
1
 72
4
 73
2
 74
0
 40
0
 40
0
 40
0.316228
 40
0.316228
 10
19.5075
 20
-21.9754
 30
0
 10
19.4967
 20
-21.9539
 30
0
  0
SPLINE
  5
C9E
330
A02
100
AcDbEntity
  8
Shape2DView
100
AcDbSpline
210
0
220
0
230
1
 70
8
 71
1
 72
4
 73
2
 74
0
 40
0
 40
0
 40
0.316228
 40
0.316228
 10
19.5182
 20
-21.997
 30
0
 10
19.5075
 20
-21.9754
 30
0
  0
SPLINE
  5
C9F
330
A02
100
AcDbEntity
  8
Shape2DView
100
AcDbSpline
210
0
220
0
230
1
 70
8
 71
1
 72
4
 73
2
 74
0
 40
0
 40
0
 40
0.316228
 40
0.316228
 10
19.529
 20
-22.0185
 30
0
 10
19.5182
 20
-21.997
 30
0
  0
SPLINE
  5
CA0
330
A02
100
AcDbEntity
  8
Shape2DView
100
AcDbSpline
210
0
220
0
230
1
 70
8
 71
1
 72
4
 73
2
 74
0
 40
0
 40
0
 40
0.141421
 40
0.141421
 10
19.529
 20
-22.0292
 30
0
 10
19.529
 20
-22.0185
 30
0
  0
SPLINE
  5
CA1
330
A02
100
AcDbEntity
  8
Shape2DView
100
AcDbSpline
210
0
220
0
230
1
 70
8
 71
1
 72
4
 73
2
 74
0
 40
0
 40
0
 40
0.1
 40
0.1
 10
19.5344
 20
-22.0346
 30
0
 10
19.529
 20
-22.0292
 30
0
  0
SPLINE
  5
CA2
330
A02
100
AcDbEntity
  8
Shape2DView
100
AcDbSpline
210
0
220
0
230
1
 70
8
 71
1
 72
4
 73
2
 74
0
 40
0
 40
0
 40
0.141421
 40
0.141421
 10
19.5344
 20
-22.0454
 30
0
 10
19.5344
 20
-22.0346
 30
0
  0
SPLINE
  5
CA3
330
A02
100
AcDbEntity
  8
Shape2DView
100
AcDbSpline
210
0
220
0
230
1
 70
8
 71
1
 72
4
 73
2
 74
0
 40
0
 40
0
 40
0.2
 40
0.2
 10
19.5451
 20
-22.0561
 30
0
 10
19.5344
 20
-22.0454
 30
0
  0
SPLINE
  5
CA4
330
A02
100
AcDbEntity
  8
Shape2DView
100
AcDbSpline
210
0
220
0
230
1
 70
8
 71
1
 72
4
 73
2
 74
0
 40
0
 40
0
 40
0.223607
 40
0.223607
 10
19.5505
 20
-22.0722
 30
0
 10
19.5451
 20
-22.0561
 30
0
  0
SPLINE
  5
CA5
330
A02
100
AcDbEntity
  8
Shape2DView
100
AcDbSpline
210
0
220
0
230
1
 70
8
 71
1
 72
4
 73
2
 74
0
 40
0
 40
0
 40
0.2
 40
0.2
 10
19.5613
 20
-22.083
 30
0
 10
19.5505
 20
-22.0722
 30
0
  0
SPLINE
  5
CA6
330
A02
100
AcDbEntity
  8
Shape2DView
100
AcDbSpline
210
0
220
0
230
1
 70
8
 71
1
 72
4
 73
2
 74
0
 40
0
 40
0
 40
0.316228
 40
0.316228
 10
19.572
 20
-22.1045
 30
0
 10
19.5613
 20
-22.083
 30
0
  0
SPLINE
  5
CA7
330
A02
100
AcDbEntity
  8
Shape2DView
100
AcDbSpline
210
0
220
0
230
1
 70
8
 71
1
 72
4
 73
2
 74
0
 40
0
 40
0
 40
0.2
 40
0.2
 10
19.5828
 20
-22.1153
 30
0
 10
19.572
 20
-22.1045
 30
0
  0
SPLINE
  5
CA8
330
A02
100
AcDbEntity
  8
Shape2DView
100
AcDbSpline
210
0
220
0
230
1
 70
8
 71
1
 72
4
 73
2
 74
0
 40
0
 40
0
 40
0.1
 40
0.1
 10
19.5881
 20
-22.1206
 30
0
 10
19.5828
 20
-22.1153
 30
0
  0
SPLINE
  5
CA9
330
A02
100
AcDbEntity
  8
Shape2DView
100
AcDbSpline
210
0
220
0
230
1
 70
8
 71
1
 72
4
 73
2
 74
0
 40
0
 40
0
 40
0.1
 40
0.1
 10
19.5935
 20
-22.126
 30
0
 10
19.5881
 20
-22.1206
 30
0
  0
SPLINE
  5
CAA
330
A02
100
AcDbEntity
  8
Shape2DView
100
AcDbSpline
210
0
220
0
230
1
 70
8
 71
1
 72
4
 73
2
 74
0
 40
0
 40
0
 40
0.2
 40
0.2
 10
19.6043
 20
-22.1368
 30
0
 10
19.5935
 20
-22.126
 30
0
  0
SPLINE
  5
CAB
330
A02
100
AcDbEntity
  8
Shape2DView
100
AcDbSpline
210
0
220
0
230
1
 70
8
 71
1
 72
4
 73
2
 74
0
 40
0
 40
0
 40
0.1
 40
0.1
 10
19.6097
 20
-22.1422
 30
0
 10
19.6043
 20
-22.1368
 30
0
  0
SPLINE
  5
CAC
330
A02
100
AcDbEntity
  8
Shape2DView
100
AcDbSpline
210
0
220
0
230
1
 70
8
 71
1
 72
4
 73
2
 74
0
 40
0
 40
0
 40
1.42127
 40
1.42127
 10
19.6204
 20
-22.2497
 30
0
 10
19.6097
 20
-22.1422
 30
0
  0
SPLINE
  5
CAD
330
A02
100
AcDbEntity
  8
Shape2DView
100
AcDbSpline
210
0
220
0
230
1
 70
8
 71
1
 72
4
 73
2
 74
0
 40
0
 40
0
 40
1.36015
 40
1.36015
 10
19.6365
 20
-22.3519
 30
0
 10
19.6204
 20
-22.2497
 30
0
  0
SPLINE
  5
CAE
330
A02
100
AcDbEntity
  8
Shape2DView
100
AcDbSpline
210
0
220
0
230
1
 70
8
 71
1
 72
4
 73
2
 74
0
 40
0
 40
0
 40
1.34536
 40
1.34536
 10
19.6419
 20
-22.4541
 30
0
 10
19.6365
 20
-22.3519
 30
0
  0
SPLINE
  5
CAF
330
A02
100
AcDbEntity
  8
Shape2DView
100
AcDbSpline
210
0
220
0
230
1
 70
8
 71
1
 72
4
 73
2
 74
0
 40
0
 40
0
 40
1.28062
 40
1.28062
 10
19.6527
 20
-22.5509
 30
0
 10
19.6419
 20
-22.4541
 30
0
  0
SPLINE
  5
CB0
330
A02
100
AcDbEntity
  8
Shape2DView
100
AcDbSpline
210
0
220
0
230
1
 70
8
 71
1
 72
4
 73
2
 74
0
 40
0
 40
0
 40
1.28062
 40
1.28062
 10
19.6634
 20
-22.6477
 30
0
 10
19.6527
 20
-22.5509
 30
0
  0
SPLINE
  5
CB1
330
A02
100
AcDbEntity
  8
Shape2DView
100
AcDbSpline
210
0
220
0
230
1
 70
8
 71
1
 72
4
 73
2
 74
0
 40
0
 40
0
 40
4.46878
 40
4.46878
 10
19.6903
 20
-22.9865
 30
0
 10
19.6634
 20
-22.6477
 30
0
  0
SPLINE
  5
CB2
330
A02
100
AcDbEntity
  8
Shape2DView
100
AcDbSpline
210
0
220
0
230
1
 70
8
 71
1
 72
4
 73
2
 74
0
 40
0
 40
0
 40
0.1
 40
0.1
 10
19.6957
 20
-22.9918
 30
0
 10
19.6903
 20
-22.9865
 30
0
  0
SPLINE
  5
CB3
330
A02
100
AcDbEntity
  8
Shape2DView
100
AcDbSpline
210
0
220
0
230
1
 70
8
 71
1
 72
4
 73
2
 74
0
 40
0
 40
0
 40
3.33017
 40
3.33017
 10
19.9484
 20
-23.008
 30
0
 10
19.6957
 20
-22.9918
 30
0
  0
SPLINE
  5
CB4
330
A02
100
AcDbEntity
  8
Shape2DView
100
AcDbSpline
210
0
220
0
230
1
 70
8
 71
1
 72
4
 73
2
 74
0
 40
0
 40
0
 40
1.5
 40
1.5
 10
20.0291
 20
-22.9273
 30
0
 10
19.9484
 20
-23.008
 30
0
  0
SPLINE
  5
CB5
330
A02
100
AcDbEntity
  8
Shape2DView
100
AcDbSpline
210
0
220
0
230
1
 70
8
 71
1
 72
4
 73
2
 74
0
 40
0
 40
0
 40
4.25206
 40
4.25206
 10
20.0076
 20
-22.6046
 30
0
 10
20.0291
 20
-22.9273
 30
0
  0
SPLINE
  5
CB6
330
A02
100
AcDbEntity
  8
Shape2DView
100
AcDbSpline
210
0
220
0
230
1
 70
8
 71
1
 72
4
 73
2
 74
0
 40
0
 40
0
 40
0.707107
 40
0.707107
 10
20.0076
 20
-22.5509
 30
0
 10
20.0076
 20
-22.6046
 30
0
  0
SPLINE
  5
CB7
330
A02
100
AcDbEntity
  8
Shape2DView
100
AcDbSpline
210
0
220
0
230
1
 70
8
 71
1
 72
4
 73
2
 74
0
 40
0
 40
0
 40
0.565685
 40
0.565685
 10
20.0076
 20
-22.5078
 30
0
 10
20.0076
 20
-22.5509
 30
0
  0
SPLINE
  5
CB8
330
A02
100
AcDbEntity
  8
Shape2DView
100
AcDbSpline
210
0
220
0
230
1
 70
8
 71
1
 72
4
 73
2
 74
0
 40
0
 40
0
 40
0.424264
 40
0.424264
 10
20.0076
 20
-22.4756
 30
0
 10
20.0076
 20
-22.5078
 30
0
  0
SPLINE
  5
CB9
330
A02
100
AcDbEntity
  8
Shape2DView
100
AcDbSpline
210
0
220
0
230
1
 70
8
 71
1
 72
4
 73
2
 74
0
 40
0
 40
0
 40
0.282843
 40
0.282843
 10
20.0076
 20
-22.4541
 30
0
 10
20.0076
 20
-22.4756
 30
0
  0
SPLINE
  5
CBA
330
A02
100
AcDbEntity
  8
Shape2DView
100
AcDbSpline
210
0
220
0
230
1
 70
8
 71
1
 72
4
 73
2
 74
0
 40
0
 40
0
 40
0.707107
 40
0.707107
 10
20.0076
 20
-22.4003
 30
0
 10
20.0076
 20
-22.4541
 30
0
  0
SPLINE
  5
CBB
330
A02
100
AcDbEntity
  8
Shape2DView
100
AcDbSpline
210
0
220
0
230
1
 70
8
 71
1
 72
4
 73
2
 74
0
 40
0
 40
0
 40
0.707107
 40
0.707107
 10
20.0076
 20
-22.3465
 30
0
 10
20.0076
 20
-22.4003
 30
0
  0
SPLINE
  5
CBC
330
A02
100
AcDbEntity
  8
Shape2DView
100
AcDbSpline
210
0
220
0
230
1
 70
8
 71
1
 72
4
 73
2
 74
0
 40
0
 40
0
 40
0.640312
 40
0.640312
 10
20.0022
 20
-22.2981
 30
0
 10
20.0076
 20
-22.3465
 30
0
  0
SPLINE
  5
CBD
330
A02
100
AcDbEntity
  8
Shape2DView
100
AcDbSpline
210
0
220
0
230
1
 70
8
 71
1
 72
4
 73
2
 74
0
 40
0
 40
0
 40
0.707107
 40
0.707107
 10
20.0022
 20
-22.2443
 30
0
 10
20.0022
 20
-22.2981
 30
0
  0
SPLINE
  5
CBE
330
A02
100
AcDbEntity
  8
Shape2DView
100
AcDbSpline
210
0
220
0
230
1
 70
8
 71
1
 72
4
 73
2
 74
0
 40
0
 40
0
 40
0.223607
 40
0.223607
 10
20.0076
 20
-22.2282
 30
0
 10
20.0022
 20
-22.2443
 30
0
  0
SPLINE
  5
CBF
330
A02
100
AcDbEntity
  8
Shape2DView
100
AcDbSpline
210
0
220
0
230
1
 70
8
 71
1
 72
4
 73
2
 74
0
 40
0
 40
0
 40
0.141421
 40
0.141421
 10
20.0076
 20
-22.2174
 30
0
 10
20.0076
 20
-22.2282
 30
0
  0
SPLINE
  5
CC0
330
A02
100
AcDbEntity
  8
Shape2DView
100
AcDbSpline
210
0
220
0
230
1
 70
8
 71
1
 72
4
 73
2
 74
0
 40
0
 40
0
 40
0.360555
 40
0.360555
 10
20.0022
 20
-22.1906
 30
0
 10
20.0076
 20
-22.2174
 30
0
  0
SPLINE
  5
CC1
330
A02
100
AcDbEntity
  8
Shape2DView
100
AcDbSpline
210
0
220
0
230
1
 70
8
 71
1
 72
4
 73
2
 74
0
 40
0
 40
0
 40
1.34536
 40
1.34536
 10
20.0076
 20
-22.0884
 30
0
 10
20.0022
 20
-22.1906
 30
0
  0
SPLINE
  5
CC2
330
A02
100
AcDbEntity
  8
Shape2DView
100
AcDbSpline
210
0
220
0
230
1
 70
8
 71
1
 72
4
 73
2
 74
0
 40
0
 40
0
 40
0.141421
 40
0.141421
 10
20.0076
 20
-22.0776
 30
0
 10
20.0076
 20
-22.0884
 30
0
  0
SPLINE
  5
CC3
330
A02
100
AcDbEntity
  8
Shape2DView
100
AcDbSpline
210
0
220
0
230
1
 70
8
 71
1
 72
4
 73
2
 74
0
 40
0
 40
0
 40
0.2
 40
0.2
 10
20.0184
 20
-22.0669
 30
0
 10
20.0076
 20
-22.0776
 30
0
  0
SPLINE
  5
CC4
330
A02
100
AcDbEntity
  8
Shape2DView
100
AcDbSpline
210
0
220
0
230
1
 70
8
 71
1
 72
4
 73
2
 74
0
 40
0
 40
0
 40
0.223607
 40
0.223607
 10
20.0237
 20
-22.0507
 30
0
 10
20.0184
 20
-22.0669
 30
0
  0
SPLINE
  5
CC5
330
A02
100
AcDbEntity
  8
Shape2DView
100
AcDbSpline
210
0
220
0
230
1
 70
8
 71
1
 72
4
 73
2
 74
0
 40
0
 40
0
 40
0.141421
 40
0.141421
 10
20.0237
 20
-22.04
 30
0
 10
20.0237
 20
-22.0507
 30
0
  0
SPLINE
  5
CC6
330
A02
100
AcDbEntity
  8
Shape2DView
100
AcDbSpline
210
0
220
0
230
1
 70
8
 71
1
 72
4
 73
2
 74
0
 40
0
 40
0
 40
0.2
 40
0.2
 10
20.0345
 20
-22.0292
 30
0
 10
20.0237
 20
-22.04
 30
0
  0
SPLINE
  5
CC7
330
A02
100
AcDbEntity
  8
Shape2DView
100
AcDbSpline
210
0
220
0
230
1
 70
8
 71
1
 72
4
 73
2
 74
0
 40
0
 40
0
 40
0.141421
 40
0.141421
 10
20.0345
 20
-22.0185
 30
0
 10
20.0345
 20
-22.0292
 30
0
  0
SPLINE
  5
CC8
330
A02
100
AcDbEntity
  8
Shape2DView
100
AcDbSpline
210
0
220
0
230
1
 70
8
 71
1
 72
4
 73
2
 74
0
 40
0
 40
0
 40
0.141421
 40
0.141421
 10
20.0345
 20
-22.0077
 30
0
 10
20.0345
 20
-22.0185
 30
0
  0
SPLINE
  5
CC9
330
A02
100
AcDbEntity
  8
Shape2DView
100
AcDbSpline
210
0
220
0
230
1
 70
8
 71
1
 72
4
 73
2
 74
0
 40
0
 40
0
 40
0.282843
 40
0.282843
 10
20.0345
 20
-21.9862
 30
0
 10
20.0345
 20
-22.0077
 30
0
  0
SPLINE
  5
CCA
330
A02
100
AcDbEntity
  8
Shape2DView
100
AcDbSpline
210
0
220
0
230
1
 70
8
 71
1
 72
4
 73
2
 74
0
 40
0
 40
0
 40
0.223607
 40
0.223607
 10
20.0291
 20
-21.9701
 30
0
 10
20.0345
 20
-21.9862
 30
0
  0
SPLINE
  5
CCB
330
A02
100
AcDbEntity
  8
Shape2DView
100
AcDbSpline
210
0
220
0
230
1
 70
8
 71
1
 72
4
 73
2
 74
0
 40
0
 40
0
 40
0.223607
 40
0.223607
 10
20.0345
 20
-21.9539
 30
0
 10
20.0291
 20
-21.9701
 30
0
  0
SPLINE
  5
CCC
330
A02
100
AcDbEntity
  8
Shape2DView
100
AcDbSpline
210
0
220
0
230
1
 70
8
 71
1
 72
4
 73
2
 74
0
 40
0
 40
0
 40
0.360555
 40
0.360555
 10
20.0291
 20
-21.927
 30
0
 10
20.0345
 20
-21.9539
 30
0
  0
SPLINE
  5
CCD
330
A02
100
AcDbEntity
  8
Shape2DView
100
AcDbSpline
210
0
220
0
230
1
 70
8
 71
1
 72
4
 73
2
 74
0
 40
0
 40
0
 40
0.141421
 40
0.141421
 10
20.0291
 20
-21.9163
 30
0
 10
20.0291
 20
-21.927
 30
0
  0
SPLINE
  5
CCE
330
A02
100
AcDbEntity
  8
Shape2DView
100
AcDbSpline
210
0
220
0
230
1
 70
8
 71
1
 72
4
 73
2
 74
0
 40
0
 40
0
 40
0.223607
 40
0.223607
 10
20.0237
 20
-21.9002
 30
0
 10
20.0291
 20
-21.9163
 30
0
  0
SPLINE
  5
CCF
330
A02
100
AcDbEntity
  8
Shape2DView
100
AcDbSpline
210
0
220
0
230
1
 70
8
 71
1
 72
4
 73
2
 74
0
 40
0
 40
0
 40
0.608276
 40
0.608276
 10
20.0506
 20
-21.8625
 30
0
 10
20.0237
 20
-21.9002
 30
0
  0
SPLINE
  5
CD0
330
A02
100
AcDbEntity
  8
Shape2DView
100
AcDbSpline
210
0
220
0
230
1
 70
8
 71
1
 72
4
 73
2
 74
0
 40
0
 40
0
 40
0.5
 40
0.5
 10
20.0775
 20
-21.8356
 30
0
 10
20.0506
 20
-21.8625
 30
0
  0
SPLINE
  5
CD1
330
A02
100
AcDbEntity
  8
Shape2DView
100
AcDbSpline
210
0
220
0
230
1
 70
8
 71
1
 72
4
 73
2
 74
0
 40
0
 40
0
 40
0.3
 40
0.3
 10
20.0936
 20
-21.8195
 30
0
 10
20.0775
 20
-21.8356
 30
0
  0
SPLINE
  5
CD2
330
A02
100
AcDbEntity
  8
Shape2DView
100
AcDbSpline
210
0
220
0
230
1
 70
8
 71
1
 72
4
 73
2
 74
0
 40
0
 40
0
 40
0.2
 40
0.2
 10
20.1044
 20
-21.8087
 30
0
 10
20.0936
 20
-21.8195
 30
0
  0
SPLINE
  5
CD3
330
A02
100
AcDbEntity
  8
Shape2DView
100
AcDbSpline
210
0
220
0
230
1
 70
8
 71
1
 72
4
 73
2
 74
0
 40
0
 40
0
 40
0.3
 40
0.3
 10
20.1205
 20
-21.7926
 30
0
 10
20.1044
 20
-21.8087
 30
0
  0
SPLINE
  5
CD4
330
A02
100
AcDbEntity
  8
Shape2DView
100
AcDbSpline
210
0
220
0
230
1
 70
8
 71
1
 72
4
 73
2
 74
0
 40
0
 40
0
 40
0.223607
 40
0.223607
 10
20.1367
 20
-21.7872
 30
0
 10
20.1205
 20
-21.7926
 30
0
  0
SPLINE
  5
CD5
330
A02
100
AcDbEntity
  8
Shape2DView
100
AcDbSpline
210
0
220
0
230
1
 70
8
 71
1
 72
4
 73
2
 74
0
 40
0
 40
0
 40
0.2
 40
0.2
 10
20.1474
 20
-21.7765
 30
0
 10
20.1367
 20
-21.7872
 30
0
  0
SPLINE
  5
CD6
330
A02
100
AcDbEntity
  8
Shape2DView
100
AcDbSpline
210
0
220
0
230
1
 70
8
 71
1
 72
4
 73
2
 74
0
 40
0
 40
0
 40
0.223607
 40
0.223607
 10
20.1636
 20
-21.7711
 30
0
 10
20.1474
 20
-21.7765
 30
0
  0
SPLINE
  5
CD7
330
A02
100
AcDbEntity
  8
Shape2DView
100
AcDbSpline
210
0
220
0
230
1
 70
8
 71
1
 72
4
 73
2
 74
0
 40
0
 40
0
 40
0.3
 40
0.3
 10
20.1797
 20
-21.755
 30
0
 10
20.1636
 20
-21.7711
 30
0
  0
SPLINE
  5
CD8
330
A02
100
AcDbEntity
  8
Shape2DView
100
AcDbSpline
210
0
220
0
230
1
 70
8
 71
1
 72
4
 73
2
 74
0
 40
0
 40
0
 40
0.141421
 40
0.141421
 10
20.1904
 20
-21.755
 30
0
 10
20.1797
 20
-21.755
 30
0
  0
SPLINE
  5
CD9
330
A02
100
AcDbEntity
  8
Shape2DView
100
AcDbSpline
210
0
220
0
230
1
 70
8
 71
1
 72
4
 73
2
 74
0
 40
0
 40
0
 40
0.223607
 40
0.223607
 10
20.2066
 20
-21.7496
 30
0
 10
20.1904
 20
-21.755
 30
0
  0
SPLINE
  5
CDA
330
A02
100
AcDbEntity
  8
Shape2DView
100
AcDbSpline
210
0
220
0
230
1
 70
8
 71
1
 72
4
 73
2
 74
0
 40
0
 40
0
 40
0.2
 40
0.2
 10
20.2173
 20
-21.7388
 30
0
 10
20.2066
 20
-21.7496
 30
0
  0
SPLINE
  5
CDB
330
A02
100
AcDbEntity
  8
Shape2DView
100
AcDbSpline
210
0
220
0
230
1
 70
8
 71
1
 72
4
 73
2
 74
0
 40
0
 40
0
 40
0.223607
 40
0.223607
 10
20.2335
 20
-21.7334
 30
0
 10
20.2173
 20
-21.7388
 30
0
  0
SPLINE
  5
CDC
330
A02
100
AcDbEntity
  8
Shape2DView
100
AcDbSpline
210
0
220
0
230
1
 70
8
 71
1
 72
4
 73
2
 74
0
 40
0
 40
0
 40
0.223607
 40
0.223607
 10
20.2496
 20
-21.7281
 30
0
 10
20.2335
 20
-21.7334
 30
0
  0
SPLINE
  5
CDD
330
A02
100
AcDbEntity
  8
Shape2DView
100
AcDbSpline
210
0
220
0
230
1
 70
8
 71
1
 72
4
 73
2
 74
0
 40
0
 40
0
 40
0.141421
 40
0.141421
 10
20.2604
 20
-21.7281
 30
0
 10
20.2496
 20
-21.7281
 30
0
  0
SPLINE
  5
CDE
330
A02
100
AcDbEntity
  8
Shape2DView
100
AcDbSpline
210
0
220
0
230
1
 70
8
 71
1
 72
4
 73
2
 74
0
 40
0
 40
0
 40
0.282843
 40
0.282843
 10
20.2819
 20
-21.7281
 30
0
 10
20.2604
 20
-21.7281
 30
0
  0
SPLINE
  5
CDF
330
A02
100
AcDbEntity
  8
Shape2DView
100
AcDbSpline
210
0
220
0
230
1
 70
8
 71
1
 72
4
 73
2
 74
0
 40
0
 40
0
 40
0.141421
 40
0.141421
 10
20.2926
 20
-21.7281
 30
0
 10
20.2819
 20
-21.7281
 30
0
  0
SPLINE
  5
CE0
330
A02
100
AcDbEntity
  8
Shape2DView
100
AcDbSpline
210
0
220
0
230
1
 70
8
 71
1
 72
4
 73
2
 74
0
 40
0
 40
0
 40
0.223607
 40
0.223607
 10
20.3088
 20
-21.7227
 30
0
 10
20.2926
 20
-21.7281
 30
0
  0
SPLINE
  5
CE1
330
A02
100
AcDbEntity
  8
Shape2DView
100
AcDbSpline
210
0
220
0
230
1
 70
8
 71
1
 72
4
 73
2
 74
0
 40
0
 40
0
 40
0.360555
 40
0.360555
 10
20.3356
 20
-21.7281
 30
0
 10
20.3088
 20
-21.7227
 30
0
  0
SPLINE
  5
CE2
330
A02
100
AcDbEntity
  8
Shape2DView
100
AcDbSpline
210
0
220
0
230
1
 70
8
 71
1
 72
4
 73
2
 74
0
 40
0
 40
0
 40
0.447214
 40
0.447214
 10
20.3679
 20
-21.7388
 30
0
 10
20.3356
 20
-21.7281
 30
0
  0
SPLINE
  5
CE3
330
A02
100
AcDbEntity
  8
Shape2DView
100
AcDbSpline
210
0
220
0
230
1
 70
8
 71
1
 72
4
 73
2
 74
0
 40
0
 40
0
 40
0.447214
 40
0.447214
 10
20.4002
 20
-21.7496
 30
0
 10
20.3679
 20
-21.7388
 30
0
  0
SPLINE
  5
CE4
330
A02
100
AcDbEntity
  8
Shape2DView
100
AcDbSpline
210
0
220
0
230
1
 70
8
 71
1
 72
4
 73
2
 74
0
 40
0
 40
0
 40
0.447214
 40
0.447214
 10
20.4324
 20
-21.7603
 30
0
 10
20.4002
 20
-21.7496
 30
0
  0
SPLINE
  5
CE5
330
A02
100
AcDbEntity
  8
Shape2DView
100
AcDbSpline
210
0
220
0
230
1
 70
8
 71
1
 72
4
 73
2
 74
0
 40
0
 40
0
 40
0.2
 40
0.2
 10
20.4432
 20
-21.7711
 30
0
 10
20.4324
 20
-21.7603
 30
0
  0
SPLINE
  5
CE6
330
A02
100
AcDbEntity
  8
Shape2DView
100
AcDbSpline
210
0
220
0
230
1
 70
8
 71
1
 72
4
 73
2
 74
0
 40
0
 40
0
 40
0.223607
 40
0.223607
 10
20.4593
 20
-21.7765
 30
0
 10
20.4432
 20
-21.7711
 30
0
  0
SPLINE
  5
CE7
330
A02
100
AcDbEntity
  8
Shape2DView
100
AcDbSpline
210
0
220
0
230
1
 70
8
 71
1
 72
4
 73
2
 74
0
 40
0
 40
0
 40
0.3
 40
0.3
 10
20.4755
 20
-21.7926
 30
0
 10
20.4593
 20
-21.7765
 30
0
  0
SPLINE
  5
CE8
330
A02
100
AcDbEntity
  8
Shape2DView
100
AcDbSpline
210
0
220
0
230
1
 70
8
 71
1
 72
4
 73
2
 74
0
 40
0
 40
0
 40
0.223607
 40
0.223607
 10
20.4916
 20
-21.798
 30
0
 10
20.4755
 20
-21.7926
 30
0
  0
SPLINE
  5
CE9
330
A02
100
AcDbEntity
  8
Shape2DView
100
AcDbSpline
210
0
220
0
230
1
 70
8
 71
1
 72
4
 73
2
 74
0
 40
0
 40
0
 40
3.22025
 40
3.22025
 10
20.7336
 20
-21.7603
 30
0
 10
20.4916
 20
-21.798
 30
0
  0
SPLINE
  5
CEA
330
A02
100
AcDbEntity
  8
Shape2DView
100
AcDbSpline
210
0
220
0
230
1
 70
8
 71
1
 72
4
 73
2
 74
0
 40
0
 40
0
 40
0.3
 40
0.3
 10
20.7497
 20
-21.7442
 30
0
 10
20.7336
 20
-21.7603
 30
0
  0
SPLINE
  5
CEB
330
A02
100
AcDbEntity
  8
Shape2DView
100
AcDbSpline
210
0
220
0
230
1
 70
8
 71
1
 72
4
 73
2
 74
0
 40
0
 40
0
 40
0.223607
 40
0.223607
 10
20.7551
 20
-21.7281
 30
0
 10
20.7497
 20
-21.7442
 30
0
  0
SPLINE
  5
CEC
330
A02
100
AcDbEntity
  8
Shape2DView
100
AcDbSpline
210
0
220
0
230
1
 70
8
 71
1
 72
4
 73
2
 74
0
 40
0
 40
0
 40
0.2
 40
0.2
 10
20.7659
 20
-21.7173
 30
0
 10
20.7551
 20
-21.7281
 30
0
  0
SPLINE
  5
CED
330
A02
100
AcDbEntity
  8
Shape2DView
100
AcDbSpline
210
0
220
0
230
1
 70
8
 71
1
 72
4
 73
2
 74
0
 40
0
 40
0
 40
0.223607
 40
0.223607
 10
20.7712
 20
-21.7012
 30
0
 10
20.7659
 20
-21.7173
 30
0
  0
SPLINE
  5
CEE
330
A02
100
AcDbEntity
  8
Shape2DView
100
AcDbSpline
210
0
220
0
230
1
 70
8
 71
1
 72
4
 73
2
 74
0
 40
0
 40
0
 40
0.223607
 40
0.223607
 10
20.7766
 20
-21.685
 30
0
 10
20.7712
 20
-21.7012
 30
0
  0
SPLINE
  5
CEF
330
A02
100
AcDbEntity
  8
Shape2DView
100
AcDbSpline
210
0
220
0
230
1
 70
8
 71
1
 72
4
 73
2
 74
0
 40
0
 40
0
 40
0.141421
 40
0.141421
 10
20.7766
 20
-21.6743
 30
0
 10
20.7766
 20
-21.685
 30
0
  0
SPLINE
  5
CF0
330
A02
100
AcDbEntity
  8
Shape2DView
100
AcDbSpline
210
0
220
0
230
1
 70
8
 71
1
 72
4
 73
2
 74
0
 40
0
 40
0
 40
0.223607
 40
0.223607
 10
20.782
 20
-21.6582
 30
0
 10
20.7766
 20
-21.6743
 30
0
  0
SPLINE
  5
CF1
330
A02
100
AcDbEntity
  8
Shape2DView
100
AcDbSpline
210
0
220
0
230
1
 70
8
 71
1
 72
4
 73
2
 74
0
 40
0
 40
0
 40
0.223607
 40
0.223607
 10
20.7874
 20
-21.642
 30
0
 10
20.782
 20
-21.6582
 30
0
  0
SPLINE
  5
CF2
330
A02
100
AcDbEntity
  8
Shape2DView
100
AcDbSpline
210
0
220
0
230
1
 70
8
 71
1
 72
4
 73
2
 74
0
 40
0
 40
0
 40
0.141421
 40
0.141421
 10
20.7874
 20
-21.6313
 30
0
 10
20.7874
 20
-21.642
 30
0
  0
SPLINE
  5
CF3
330
A02
100
AcDbEntity
  8
Shape2DView
100
AcDbSpline
210
0
220
0
230
1
 70
8
 71
1
 72
4
 73
2
 74
0
 40
0
 40
0
 40
0.223607
 40
0.223607
 10
20.782
 20
-21.6151
 30
0
 10
20.7874
 20
-21.6313
 30
0
  0
SPLINE
  5
CF4
330
A02
100
AcDbEntity
  8
Shape2DView
100
AcDbSpline
210
0
220
0
230
1
 70
8
 71
1
 72
4
 73
2
 74
0
 40
0
 40
0
 40
0.223607
 40
0.223607
 10
20.7874
 20
-21.599
 30
0
 10
20.782
 20
-21.6151
 30
0
  0
SPLINE
  5
CF5
330
A02
100
AcDbEntity
  8
Shape2DView
100
AcDbSpline
210
0
220
0
230
1
 70
8
 71
1
 72
4
 73
2
 74
0
 40
0
 40
0
 40
0.141421
 40
0.141421
 10
20.7874
 20
-21.5882
 30
0
 10
20.7874
 20
-21.599
 30
0
  0
SPLINE
  5
CF6
330
A02
100
AcDbEntity
  8
Shape2DView
100
AcDbSpline
210
0
220
0
230
1
 70
8
 71
1
 72
4
 73
2
 74
0
 40
0
 40
0
 40
0.223607
 40
0.223607
 10
20.782
 20
-21.5721
 30
0
 10
20.7874
 20
-21.5882
 30
0
  0
SPLINE
  5
CF7
330
A02
100
AcDbEntity
  8
Shape2DView
100
AcDbSpline
210
0
220
0
230
1
 70
8
 71
1
 72
4
 73
2
 74
0
 40
0
 40
0
 40
0.141421
 40
0.141421
 10
20.782
 20
-21.5614
 30
0
 10
20.782
 20
-21.5721
 30
0
  0
SPLINE
  5
CF8
330
A02
100
AcDbEntity
  8
Shape2DView
100
AcDbSpline
210
0
220
0
230
1
 70
8
 71
1
 72
4
 73
2
 74
0
 40
0
 40
0
 40
0.223607
 40
0.223607
 10
20.7766
 20
-21.5452
 30
0
 10
20.782
 20
-21.5614
 30
0
  0
SPLINE
  5
CF9
330
A02
100
AcDbEntity
  8
Shape2DView
100
AcDbSpline
210
0
220
0
230
1
 70
8
 71
1
 72
4
 73
2
 74
0
 40
0
 40
0
 40
0.223607
 40
0.223607
 10
20.7712
 20
-21.5291
 30
0
 10
20.7766
 20
-21.5452
 30
0
  0
SPLINE
  5
CFA
330
A02
100
AcDbEntity
  8
Shape2DView
100
AcDbSpline
210
0
220
0
230
1
 70
8
 71
1
 72
4
 73
2
 74
0
 40
0
 40
0
 40
0.223607
 40
0.223607
 10
20.7659
 20
-21.513
 30
0
 10
20.7712
 20
-21.5291
 30
0
  0
SPLINE
  5
CFB
330
A02
100
AcDbEntity
  8
Shape2DView
100
AcDbSpline
210
0
220
0
230
1
 70
8
 71
1
 72
4
 73
2
 74
0
 40
0
 40
0
 40
0.223607
 40
0.223607
 10
20.7605
 20
-21.4968
 30
0
 10
20.7659
 20
-21.513
 30
0
  0
SPLINE
  5
CFC
330
A02
100
AcDbEntity
  8
Shape2DView
100
AcDbSpline
210
0
220
0
230
1
 70
8
 71
1
 72
4
 73
2
 74
0
 40
0
 40
0
 40
0.223607
 40
0.223607
 10
20.7551
 20
-21.4807
 30
0
 10
20.7605
 20
-21.4968
 30
0
  0
SPLINE
  5
CFD
330
A02
100
AcDbEntity
  8
Shape2DView
100
AcDbSpline
210
0
220
0
230
1
 70
8
 71
1
 72
4
 73
2
 74
0
 40
0
 40
0
 40
0.223607
 40
0.223607
 10
20.7497
 20
-21.4646
 30
0
 10
20.7551
 20
-21.4807
 30
0
  0
SPLINE
  5
CFE
330
A02
100
AcDbEntity
  8
Shape2DView
100
AcDbSpline
210
0
220
0
230
1
 70
8
 71
1
 72
4
 73
2
 74
0
 40
0
 40
0
 40
0.3
 40
0.3
 10
20.7336
 20
-21.4484
 30
0
 10
20.7497
 20
-21.4646
 30
0
  0
SPLINE
  5
CFF
330
A02
100
AcDbEntity
  8
Shape2DView
100
AcDbSpline
210
0
220
0
230
1
 70
8
 71
1
 72
4
 73
2
 74
0
 40
0
 40
0
 40
0.223607
 40
0.223607
 10
20.7282
 20
-21.4323
 30
0
 10
20.7336
 20
-21.4484
 30
0
  0
SPLINE
  5
D00
330
A02
100
AcDbEntity
  8
Shape2DView
100
AcDbSpline
210
0
220
0
230
1
 70
8
 71
1
 72
4
 73
2
 74
0
 40
0
 40
0
 40
0.316228
 40
0.316228
 10
20.7175
 20
-21.4108
 30
0
 10
20.7282
 20
-21.4323
 30
0
  0
SPLINE
  5
D01
330
A02
100
AcDbEntity
  8
Shape2DView
100
AcDbSpline
210
0
220
0
230
1
 70
8
 71
1
 72
4
 73
2
 74
0
 40
0
 40
0
 40
0.223607
 40
0.223607
 10
20.7121
 20
-21.3946
 30
0
 10
20.7175
 20
-21.4108
 30
0
  0
SPLINE
  5
D02
330
A02
100
AcDbEntity
  8
Shape2DView
100
AcDbSpline
210
0
220
0
230
1
 70
8
 71
1
 72
4
 73
2
 74
0
 40
0
 40
0
 40
3.32415
 40
3.32415
 10
20.4593
 20
-21.4
 30
0
 10
20.7121
 20
-21.3946
 30
0
  0
SPLINE
  5
D03
330
A02
100
AcDbEntity
  8
Shape2DView
100
AcDbSpline
210
0
220
0
230
1
 70
8
 71
1
 72
4
 73
2
 74
0
 40
0
 40
0
 40
0.223607
 40
0.223607
 10
20.4432
 20
-21.4054
 30
0
 10
20.4593
 20
-21.4
 30
0
  0
SPLINE
  5
D04
330
A02
100
AcDbEntity
  8
Shape2DView
100
AcDbSpline
210
0
220
0
230
1
 70
8
 71
1
 72
4
 73
2
 74
0
 40
0
 40
0
 40
0.3
 40
0.3
 10
20.4271
 20
-21.4215
 30
0
 10
20.4432
 20
-21.4054
 30
0
  0
SPLINE
  5
D05
330
A02
100
AcDbEntity
  8
Shape2DView
100
AcDbSpline
210
0
220
0
230
1
 70
8
 71
1
 72
4
 73
2
 74
0
 40
0
 40
0
 40
0.223607
 40
0.223607
 10
20.4109
 20
-21.4269
 30
0
 10
20.4271
 20
-21.4215
 30
0
  0
SPLINE
  5
D06
330
A02
100
AcDbEntity
  8
Shape2DView
100
AcDbSpline
210
0
220
0
230
1
 70
8
 71
1
 72
4
 73
2
 74
0
 40
0
 40
0
 40
0.223607
 40
0.223607
 10
20.3948
 20
-21.4323
 30
0
 10
20.4109
 20
-21.4269
 30
0
  0
SPLINE
  5
D07
330
A02
100
AcDbEntity
  8
Shape2DView
100
AcDbSpline
210
0
220
0
230
1
 70
8
 71
1
 72
4
 73
2
 74
0
 40
0
 40
0
 40
0.1
 40
0.1
 10
20.3894
 20
-21.4377
 30
0
 10
20.3948
 20
-21.4323
 30
0
  0
SPLINE
  5
D08
330
A02
100
AcDbEntity
  8
Shape2DView
100
AcDbSpline
210
0
220
0
230
1
 70
8
 71
1
 72
4
 73
2
 74
0
 40
0
 40
0
 40
0.1
 40
0.1
 10
20.384
 20
-21.443
 30
0
 10
20.3894
 20
-21.4377
 30
0
  0
SPLINE
  5
D09
330
A02
100
AcDbEntity
  8
Shape2DView
100
AcDbSpline
210
0
220
0
230
1
 70
8
 71
1
 72
4
 73
2
 74
0
 40
0
 40
0
 40
0.223607
 40
0.223607
 10
20.3679
 20
-21.4484
 30
0
 10
20.384
 20
-21.443
 30
0
  0
SPLINE
  5
D0A
330
A02
100
AcDbEntity
  8
Shape2DView
100
AcDbSpline
210
0
220
0
230
1
 70
8
 71
1
 72
4
 73
2
 74
0
 40
0
 40
0
 40
0.223607
 40
0.223607
 10
20.3518
 20
-21.4538
 30
0
 10
20.3679
 20
-21.4484
 30
0
  0
SPLINE
  5
D0B
330
A02
100
AcDbEntity
  8
Shape2DView
100
AcDbSpline
210
0
220
0
230
1
 70
8
 71
1
 72
4
 73
2
 74
0
 40
0
 40
0
 40
0.223607
 40
0.223607
 10
20.3356
 20
-21.4592
 30
0
 10
20.3518
 20
-21.4538
 30
0
  0
SPLINE
  5
D0C
330
A02
100
AcDbEntity
  8
Shape2DView
100
AcDbSpline
210
0
220
0
230
1
 70
8
 71
1
 72
4
 73
2
 74
0
 40
0
 40
0
 40
0.1
 40
0.1
 10
20.3303
 20
-21.4646
 30
0
 10
20.3356
 20
-21.4592
 30
0
  0
SPLINE
  5
D0D
330
A02
100
AcDbEntity
  8
Shape2DView
100
AcDbSpline
210
0
220
0
230
1
 70
8
 71
1
 72
4
 73
2
 74
0
 40
0
 40
0
 40
0.223607
 40
0.223607
 10
20.3141
 20
-21.4699
 30
0
 10
20.3303
 20
-21.4646
 30
0
  0
SPLINE
  5
D0E
330
A02
100
AcDbEntity
  8
Shape2DView
100
AcDbSpline
210
0
220
0
230
1
 70
8
 71
1
 72
4
 73
2
 74
0
 40
0
 40
0
 40
0.141421
 40
0.141421
 10
20.3034
 20
-21.4699
 30
0
 10
20.3141
 20
-21.4699
 30
0
  0
SPLINE
  5
D0F
330
A02
100
AcDbEntity
  8
Shape2DView
100
AcDbSpline
210
0
220
0
230
1
 70
8
 71
1
 72
4
 73
2
 74
0
 40
0
 40
0
 40
0.223607
 40
0.223607
 10
20.2872
 20
-21.4753
 30
0
 10
20.3034
 20
-21.4699
 30
0
  0
SPLINE
  5
D10
330
A02
100
AcDbEntity
  8
Shape2DView
100
AcDbSpline
210
0
220
0
230
1
 70
8
 71
1
 72
4
 73
2
 74
0
 40
0
 40
0
 40
0.141421
 40
0.141421
 10
20.2765
 20
-21.4753
 30
0
 10
20.2872
 20
-21.4753
 30
0
  0
SPLINE
  5
D11
330
A02
100
AcDbEntity
  8
Shape2DView
100
AcDbSpline
210
0
220
0
230
1
 70
8
 71
1
 72
4
 73
2
 74
0
 40
0
 40
0
 40
0.1
 40
0.1
 10
20.2711
 20
-21.4807
 30
0
 10
20.2765
 20
-21.4753
 30
0
  0
SPLINE
  5
D12
330
A02
100
AcDbEntity
  8
Shape2DView
100
AcDbSpline
210
0
220
0
230
1
 70
8
 71
1
 72
4
 73
2
 74
0
 40
0
 40
0
 40
0.1
 40
0.1
 10
20.2657
 20
-21.4753
 30
0
 10
20.2711
 20
-21.4807
 30
0
  0
SPLINE
  5
D13
330
A02
100
AcDbEntity
  8
Shape2DView
100
AcDbSpline
210
0
220
0
230
1
 70
8
 71
1
 72
4
 73
2
 74
0
 40
0
 40
0
 40
0.141421
 40
0.141421
 10
20.255
 20
-21.4753
 30
0
 10
20.2657
 20
-21.4753
 30
0
  0
SPLINE
  5
D14
330
A02
100
AcDbEntity
  8
Shape2DView
100
AcDbSpline
210
0
220
0
230
1
 70
8
 71
1
 72
4
 73
2
 74
0
 40
0
 40
0
 40
0.223607
 40
0.223607
 10
20.2388
 20
-21.4807
 30
0
 10
20.255
 20
-21.4753
 30
0
  0
SPLINE
  5
D15
330
A02
100
AcDbEntity
  8
Shape2DView
100
AcDbSpline
210
0
220
0
230
1
 70
8
 71
1
 72
4
 73
2
 74
0
 40
0
 40
0
 40
0.141421
 40
0.141421
 10
20.2281
 20
-21.4807
 30
0
 10
20.2388
 20
-21.4807
 30
0
  0
SPLINE
  5
D16
330
A02
100
AcDbEntity
  8
Shape2DView
100
AcDbSpline
210
0
220
0
230
1
 70
8
 71
1
 72
4
 73
2
 74
0
 40
0
 40
0
 40
0.1
 40
0.1
 10
20.2227
 20
-21.4753
 30
0
 10
20.2281
 20
-21.4807
 30
0
  0
SPLINE
  5
D17
330
A02
100
AcDbEntity
  8
Shape2DView
100
AcDbSpline
210
0
220
0
230
1
 70
8
 71
1
 72
4
 73
2
 74
0
 40
0
 40
0
 40
0.141421
 40
0.141421
 10
20.212
 20
-21.4753
 30
0
 10
20.2227
 20
-21.4753
 30
0
  0
SPLINE
  5
D18
330
A02
100
AcDbEntity
  8
Shape2DView
100
AcDbSpline
210
0
220
0
230
1
 70
8
 71
1
 72
4
 73
2
 74
0
 40
0
 40
0
 40
0.141421
 40
0.141421
 10
20.2012
 20
-21.4753
 30
0
 10
20.212
 20
-21.4753
 30
0
  0
SPLINE
  5
D19
330
A02
100
AcDbEntity
  8
Shape2DView
100
AcDbSpline
210
0
220
0
230
1
 70
8
 71
1
 72
4
 73
2
 74
0
 40
0
 40
0
 40
0.1
 40
0.1
 10
20.1958
 20
-21.4699
 30
0
 10
20.2012
 20
-21.4753
 30
0
  0
SPLINE
  5
D1A
330
A02
100
AcDbEntity
  8
Shape2DView
100
AcDbSpline
210
0
220
0
230
1
 70
8
 71
1
 72
4
 73
2
 74
0
 40
0
 40
0
 40
0.1
 40
0.1
 10
20.1904
 20
-21.4753
 30
0
 10
20.1958
 20
-21.4699
 30
0
  0
SPLINE
  5
D1B
330
A02
100
AcDbEntity
  8
Shape2DView
100
AcDbSpline
210
0
220
0
230
1
 70
8
 71
1
 72
4
 73
2
 74
0
 40
0
 40
0
 40
0.1
 40
0.1
 10
20.1851
 20
-21.4699
 30
0
 10
20.1904
 20
-21.4753
 30
0
  0
SPLINE
  5
D1C
330
A02
100
AcDbEntity
  8
Shape2DView
100
AcDbSpline
210
0
220
0
230
1
 70
8
 71
1
 72
4
 73
2
 74
0
 40
0
 40
0
 40
0.1
 40
0.1
 10
20.1797
 20
-21.4646
 30
0
 10
20.1851
 20
-21.4699
 30
0
  0
SPLINE
  5
D1D
330
A02
100
AcDbEntity
  8
Shape2DView
100
AcDbSpline
210
0
220
0
230
1
 70
8
 71
1
 72
4
 73
2
 74
0
 40
0
 40
0
 40
0.141421
 40
0.141421
 10
20.1689
 20
-21.4646
 30
0
 10
20.1797
 20
-21.4646
 30
0
  0
SPLINE
  5
D1E
330
A02
100
AcDbEntity
  8
Shape2DView
100
AcDbSpline
210
0
220
0
230
1
 70
8
 71
1
 72
4
 73
2
 74
0
 40
0
 40
0
 40
0.1
 40
0.1
 10
20.1636
 20
-21.4592
 30
0
 10
20.1689
 20
-21.4646
 30
0
  0
SPLINE
  5
D1F
330
A02
100
AcDbEntity
  8
Shape2DView
100
AcDbSpline
210
0
220
0
230
1
 70
8
 71
1
 72
4
 73
2
 74
0
 40
0
 40
0
 40
0.1
 40
0.1
 10
20.1582
 20
-21.4538
 30
0
 10
20.1636
 20
-21.4592
 30
0
  0
SPLINE
  5
D20
330
A02
100
AcDbEntity
  8
Shape2DView
100
AcDbSpline
210
0
220
0
230
1
 70
8
 71
1
 72
4
 73
2
 74
0
 40
0
 40
0
 40
0.2
 40
0.2
 10
20.1474
 20
-21.443
 30
0
 10
20.1582
 20
-21.4538
 30
0
  0
SPLINE
  5
D21
330
A02
100
AcDbEntity
  8
Shape2DView
100
AcDbSpline
210
0
220
0
230
1
 70
8
 71
1
 72
4
 73
2
 74
0
 40
0
 40
0
 40
0.1
 40
0.1
 10
20.142
 20
-21.4377
 30
0
 10
20.1474
 20
-21.443
 30
0
  0
SPLINE
  5
D22
330
A02
100
AcDbEntity
  8
Shape2DView
100
AcDbSpline
210
0
220
0
230
1
 70
8
 71
1
 72
4
 73
2
 74
0
 40
0
 40
0
 40
0.1
 40
0.1
 10
20.1367
 20
-21.4323
 30
0
 10
20.142
 20
-21.4377
 30
0
  0
SPLINE
  5
D23
330
A02
100
AcDbEntity
  8
Shape2DView
100
AcDbSpline
210
0
220
0
230
1
 70
8
 71
1
 72
4
 73
2
 74
0
 40
0
 40
0
 40
0.1
 40
0.1
 10
20.1313
 20
-21.4269
 30
0
 10
20.1367
 20
-21.4323
 30
0
  0
SPLINE
  5
D24
330
A02
100
AcDbEntity
  8
Shape2DView
100
AcDbSpline
210
0
220
0
230
1
 70
8
 71
1
 72
4
 73
2
 74
0
 40
0
 40
0
 40
0.2
 40
0.2
 10
20.1205
 20
-21.4162
 30
0
 10
20.1313
 20
-21.4269
 30
0
  0
SPLINE
  5
D25
330
A02
100
AcDbEntity
  8
Shape2DView
100
AcDbSpline
210
0
220
0
230
1
 70
8
 71
1
 72
4
 73
2
 74
0
 40
0
 40
0
 40
0.141421
 40
0.141421
 10
20.1205
 20
-21.4054
 30
0
 10
20.1205
 20
-21.4162
 30
0
  0
SPLINE
  5
D26
330
A02
100
AcDbEntity
  8
Shape2DView
100
AcDbSpline
210
0
220
0
230
1
 70
8
 71
1
 72
4
 73
2
 74
0
 40
0
 40
0
 40
0.1
 40
0.1
 10
20.1152
 20
-21.4
 30
0
 10
20.1205
 20
-21.4054
 30
0
  0
SPLINE
  5
D27
330
A02
100
AcDbEntity
  8
Shape2DView
100
AcDbSpline
210
0
220
0
230
1
 70
8
 71
1
 72
4
 73
2
 74
0
 40
0
 40
0
 40
0.316228
 40
0.316228
 10
20.0936
 20
-21.3893
 30
0
 10
20.1152
 20
-21.4
 30
0
  0
SPLINE
  5
D28
330
A02
100
AcDbEntity
  8
Shape2DView
100
AcDbSpline
210
0
220
0
230
1
 70
8
 71
1
 72
4
 73
2
 74
0
 40
0
 40
0
 40
0.360555
 40
0.360555
 10
20.0668
 20
-21.3839
 30
0
 10
20.0936
 20
-21.3893
 30
0
  0
SPLINE
  5
D29
330
A02
100
AcDbEntity
  8
Shape2DView
100
AcDbSpline
210
0
220
0
230
1
 70
8
 71
1
 72
4
 73
2
 74
0
 40
0
 40
0
 40
0.316228
 40
0.316228
 10
20.0452
 20
-21.3731
 30
0
 10
20.0668
 20
-21.3839
 30
0
  0
SPLINE
  5
D2A
330
A02
100
AcDbEntity
  8
Shape2DView
100
AcDbSpline
210
0
220
0
230
1
 70
8
 71
1
 72
4
 73
2
 74
0
 40
0
 40
0
 40
0.360555
 40
0.360555
 10
20.0184
 20
-21.3678
 30
0
 10
20.0452
 20
-21.3731
 30
0
  0
SPLINE
  5
D2B
330
A02
100
AcDbEntity
  8
Shape2DView
100
AcDbSpline
210
0
220
0
230
1
 70
8
 71
1
 72
4
 73
2
 74
0
 40
0
 40
0
 40
0.5
 40
0.5
 10
19.9807
 20
-21.3624
 30
0
 10
20.0184
 20
-21.3678
 30
0
  0
SPLINE
  5
D2C
330
A02
100
AcDbEntity
  8
Shape2DView
100
AcDbSpline
210
0
220
0
230
1
 70
8
 71
1
 72
4
 73
2
 74
0
 40
0
 40
0
 40
0.282843
 40
0.282843
 10
19.9592
 20
-21.3624
 30
0
 10
19.9807
 20
-21.3624
 30
0
  0
SPLINE
  5
D2D
330
A02
100
AcDbEntity
  8
Shape2DView
100
AcDbSpline
210
0
220
0
230
1
 70
8
 71
1
 72
4
 73
2
 74
0
 40
0
 40
0
 40
0.360555
 40
0.360555
 10
19.9323
 20
-21.357
 30
0
 10
19.9592
 20
-21.3624
 30
0
  0
SPLINE
  5
D2E
330
A02
100
AcDbEntity
  8
Shape2DView
100
AcDbSpline
210
0
220
0
230
1
 70
8
 71
1
 72
4
 73
2
 74
0
 40
0
 40
0
 40
0.424264
 40
0.424264
 10
19.9
 20
-21.357
 30
0
 10
19.9323
 20
-21.357
 30
0
  0
SPLINE
  5
D2F
330
A02
100
AcDbEntity
  8
Shape2DView
100
AcDbSpline
210
0
220
0
230
1
 70
8
 71
1
 72
4
 73
2
 74
0
 40
0
 40
0
 40
0.424264
 40
0.424264
 10
19.8678
 20
-21.357
 30
0
 10
19.9
 20
-21.357
 30
0
  0
SPLINE
  5
D30
330
A02
100
AcDbEntity
  8
Shape2DView
100
AcDbSpline
210
0
220
0
230
1
 70
8
 71
1
 72
4
 73
2
 74
0
 40
0
 40
0
 40
0.424264
 40
0.424264
 10
19.8355
 20
-21.357
 30
0
 10
19.8678
 20
-21.357
 30
0
  0
SPLINE
  5
D31
330
A02
100
AcDbEntity
  8
Shape2DView
100
AcDbSpline
210
0
220
0
230
1
 70
8
 71
1
 72
4
 73
2
 74
0
 40
0
 40
0
 40
0.5
 40
0.5
 10
19.7979
 20
-21.3624
 30
0
 10
19.8355
 20
-21.357
 30
0
  0
SPLINE
  5
D32
330
A02
100
AcDbEntity
  8
Shape2DView
100
AcDbSpline
210
0
220
0
230
1
 70
8
 71
1
 72
4
 73
2
 74
0
 40
0
 40
0
 40
0.447214
 40
0.447214
 10
19.7656
 20
-21.3731
 30
0
 10
19.7979
 20
-21.3624
 30
0
  0
SPLINE
  5
D33
330
A02
100
AcDbEntity
  8
Shape2DView
100
AcDbSpline
210
0
220
0
230
1
 70
8
 71
1
 72
4
 73
2
 74
0
 40
0
 40
0
 40
0.424264
 40
0.424264
 10
19.7333
 20
-21.3731
 30
0
 10
19.7656
 20
-21.3731
 30
0
  0
SPLINE
  5
D34
330
A02
100
AcDbEntity
  8
Shape2DView
100
AcDbSpline
210
0
220
0
230
1
 70
8
 71
1
 72
4
 73
2
 74
0
 40
0
 40
0
 40
0.5
 40
0.5
 10
19.6957
 20
-21.3785
 30
0
 10
19.7333
 20
-21.3731
 30
0
  0
SPLINE
  5
D35
330
A02
100
AcDbEntity
  8
Shape2DView
100
AcDbSpline
210
0
220
0
230
1
 70
8
 71
1
 72
4
 73
2
 74
0
 40
0
 40
0
 40
0.538516
 40
0.538516
 10
19.6581
 20
-21.3946
 30
0
 10
19.6957
 20
-21.3785
 30
0
  0
SPLINE
  5
D36
330
A02
100
AcDbEntity
  8
Shape2DView
100
AcDbSpline
210
0
220
0
230
1
 70
8
 71
1
 72
4
 73
2
 74
0
 40
0
 40
0
 40
0.5
 40
0.5
 10
19.6204
 20
-21.4
 30
0
 10
19.6581
 20
-21.3946
 30
0
  0
SPLINE
  5
D37
330
A02
100
AcDbEntity
  8
Shape2DView
100
AcDbSpline
210
0
220
0
230
1
 70
8
 71
1
 72
4
 73
2
 74
0
 40
0
 40
0
 40
1.02956
 40
1.02956
 10
19.5451
 20
-21.4215
 30
0
 10
19.6204
 20
-21.4
 30
0
  0
SPLINE
  5
D38
330
A02
100
AcDbEntity
  8
Shape2DView
100
AcDbSpline
210
0
220
0
230
1
 70
8
 71
1
 72
4
 73
2
 74
0
 40
0
 40
0
 40
0.894427
 40
0.894427
 10
19.4806
 20
-21.443
 30
0
 10
19.5451
 20
-21.4215
 30
0
  0
SPLINE
  5
D39
330
A02
100
AcDbEntity
  8
Shape2DView
100
AcDbSpline
210
0
220
0
230
1
 70
8
 71
1
 72
4
 73
2
 74
0
 40
0
 40
0
 40
0.583095
 40
0.583095
 10
19.4376
 20
-21.4538
 30
0
 10
19.4806
 20
-21.443
 30
0
  0
SPLINE
  5
D3A
330
A02
100
AcDbEntity
  8
Shape2DView
100
AcDbSpline
210
0
220
0
230
1
 70
8
 71
1
 72
4
 73
2
 74
0
 40
0
 40
0
 40
0.447214
 40
0.447214
 10
19.4053
 20
-21.4646
 30
0
 10
19.4376
 20
-21.4538
 30
0
  0
SPLINE
  5
D3B
330
A02
100
AcDbEntity
  8
Shape2DView
100
AcDbSpline
210
0
220
0
230
1
 70
8
 71
1
 72
4
 73
2
 74
0
 40
0
 40
0
 40
0.984886
 40
0.984886
 10
19.3354
 20
-21.4914
 30
0
 10
19.4053
 20
-21.4646
 30
0
  0
SPLINE
  5
D3C
330
A02
100
AcDbEntity
  8
Shape2DView
100
AcDbSpline
210
0
220
0
230
1
 70
8
 71
1
 72
4
 73
2
 74
0
 40
0
 40
0
 40
0.894427
 40
0.894427
 10
19.2709
 20
-21.513
 30
0
 10
19.3354
 20
-21.4914
 30
0
  0
SPLINE
  5
D3D
330
A02
100
AcDbEntity
  8
Shape2DView
100
AcDbSpline
210
0
220
0
230
1
 70
8
 71
1
 72
4
 73
2
 74
0
 40
0
 40
0
 40
0.984886
 40
0.984886
 10
19.2009
 20
-21.5398
 30
0
 10
19.2709
 20
-21.513
 30
0
  0
SPLINE
  5
D3E
330
A02
100
AcDbEntity
  8
Shape2DView
100
AcDbSpline
210
0
220
0
230
1
 70
8
 71
1
 72
4
 73
2
 74
0
 40
0
 40
0
 40
0.894427
 40
0.894427
 10
19.1364
 20
-21.5614
 30
0
 10
19.2009
 20
-21.5398
 30
0
  0
SPLINE
  5
D3F
330
A02
100
AcDbEntity
  8
Shape2DView
100
AcDbSpline
210
0
220
0
230
1
 70
8
 71
1
 72
4
 73
2
 74
0
 40
0
 40
0
 40
0.538516
 40
0.538516
 10
19.0988
 20
-21.5775
 30
0
 10
19.1364
 20
-21.5614
 30
0
  0
SPLINE
  5
D40
330
A02
100
AcDbEntity
  8
Shape2DView
100
AcDbSpline
210
0
220
0
230
1
 70
8
 71
1
 72
4
 73
2
 74
0
 40
0
 40
0
 40
0.447214
 40
0.447214
 10
19.0665
 20
-21.5882
 30
0
 10
19.0988
 20
-21.5775
 30
0
  0
SPLINE
  5
D41
330
A02
100
AcDbEntity
  8
Shape2DView
100
AcDbSpline
210
0
220
0
230
1
 70
8
 71
1
 72
4
 73
2
 74
0
 40
0
 40
0
 40
0.948683
 40
0.948683
 10
19.002
 20
-21.6205
 30
0
 10
19.0665
 20
-21.5882
 30
0
  0
SPLINE
  5
D42
330
A02
100
AcDbEntity
  8
Shape2DView
100
AcDbSpline
210
0
220
0
230
1
 70
8
 71
2
 72
6
 73
3
 74
0
 40
0
 40
0
 40
0
 40
1
 40
1
 40
1
 10
20.7497
 20
-27.4661
 30
0
 10
20.7269
 20
-27.4432
 30
0
 10
20.7443
 20
-27.4284
 30
0
  0
SPLINE
  5
D43
330
A02
100
AcDbEntity
  8
Shape2DView
100
AcDbSpline
210
0
220
0
230
1
 70
8
 71
3
 72
8
 73
4
 74
0
 40
0
 40
0
 40
0
 40
0
 40
1
 40
1
 40
1
 40
1
 10
20.6906
 20
-27.6328
 30
0
 10
20.739
 20
-27.5844
 30
0
 10
20.7497
 20
-27.5091
 30
0
 10
20.7497
 20
-27.4661
 30
0
  0
SPLINE
  5
D44
330
A02
100
AcDbEntity
  8
Shape2DView
100
AcDbSpline
210
0
220
0
230
1
 70
8
 71
3
 72
8
 73
4
 74
0
 40
0
 40
0
 40
0
 40
0
 40
1
 40
1
 40
1
 40
1
 10
20.5884
 20
-27.692
 30
0
 10
20.6153
 20
-27.6651
 30
0
 10
20.6583
 20
-27.6436
 30
0
 10
20.6906
 20
-27.6328
 30
0
  0
SPLINE
  5
D45
330
A02
100
AcDbEntity
  8
Shape2DView
100
AcDbSpline
210
0
220
0
230
1
 70
8
 71
3
 72
8
 73
4
 74
0
 40
0
 40
0
 40
0
 40
0
 40
1
 40
1
 40
1
 40
1
 10
19.1633
 20
-29.0202
 30
0
 10
19.5182
 20
-28.6976
 30
0
 10
20.2335
 20
-28.0146
 30
0
 10
20.5884
 20
-27.692
 30
0
  0
SPLINE
  5
D46
330
A02
100
AcDbEntity
  8
Shape2DView
100
AcDbSpline
210
0
220
0
230
1
 70
8
 71
3
 72
8
 73
4
 74
0
 40
0
 40
0
 40
0
 40
0
 40
1
 40
1
 40
1
 40
1
 10
19.0504
 20
-29.5096
 30
0
 10
18.9428
 20
-29.3483
 30
0
 10
19.0665
 20
-29.1063
 30
0
 10
19.1633
 20
-29.0202
 30
0
  0
SPLINE
  5
D47
330
A02
100
AcDbEntity
  8
Shape2DView
100
AcDbSpline
210
0
220
0
230
1
 70
8
 71
2
 72
6
 73
3
 74
0
 40
0
 40
0
 40
0
 40
1
 40
1
 40
1
 10
19.0988
 20
-29.5688
 30
0
 10
19.0665
 20
-29.5392
 30
0
 10
19.0504
 20
-29.5096
 30
0
  0
SPLINE
  5
D48
330
A02
100
AcDbEntity
  8
Shape2DView
100
AcDbSpline
210
0
220
0
230
1
 70
8
 71
2
 72
6
 73
3
 74
0
 40
0
 40
0
 40
0
 40
1
 40
1
 40
1
 10
19.1741
 20
-29.6333
 30
0
 10
19.1364
 20
-29.6091
 30
0
 10
19.0988
 20
-29.5688
 30
0
  0
SPLINE
  5
D49
330
A02
100
AcDbEntity
  8
Shape2DView
100
AcDbSpline
210
0
220
0
230
1
 70
8
 71
3
 72
8
 73
4
 74
0
 40
0
 40
0
 40
0
 40
0
 40
1
 40
1
 40
1
 40
1
 10
19.6581
 20
-29.5042
 30
0
 10
19.5828
 20
-29.601
 30
0
 10
19.3354
 20
-29.7409
 30
0
 10
19.1741
 20
-29.6333
 30
0
  0
SPLINE
  5
D4A
330
A02
100
AcDbEntity
  8
Shape2DView
100
AcDbSpline
210
0
220
0
230
1
 70
8
 71
3
 72
8
 73
4
 74
0
 40
0
 40
0
 40
0
 40
0
 40
1
 40
1
 40
1
 40
1
 10
20.9433
 20
-28.0469
 30
0
 10
20.6314
 20
-28.4126
 30
0
 10
19.9646
 20
-29.1439
 30
0
 10
19.6581
 20
-29.5042
 30
0
  0
SPLINE
  5
D4B
330
A02
100
AcDbEntity
  8
Shape2DView
100
AcDbSpline
210
0
220
0
230
1
 70
8
 71
3
 72
8
 73
4
 74
0
 40
0
 40
0
 40
0
 40
0
 40
1
 40
1
 40
1
 40
1
 10
20.9971
 20
-27.9393
 30
0
 10
20.9863
 20
-27.9716
 30
0
 10
20.9648
 20
-28.0146
 30
0
 10
20.9433
 20
-28.0469
 30
0
  0
SPLINE
  5
D4C
330
A02
100
AcDbEntity
  8
Shape2DView
100
AcDbSpline
210
0
220
0
230
1
 70
8
 71
3
 72
8
 73
4
 74
0
 40
0
 40
0
 40
0
 40
0
 40
1
 40
1
 40
1
 40
1
 10
21.1638
 20
-27.8694
 30
0
 10
21.1154
 20
-27.8748
 30
0
 10
21.0455
 20
-27.8909
 30
0
 10
20.9971
 20
-27.9393
 30
0
  0
SPLINE
  5
D4D
330
A02
100
AcDbEntity
  8
Shape2DView
100
AcDbSpline
210
0
220
0
230
1
 70
8
 71
2
 72
6
 73
3
 74
0
 40
0
 40
0
 40
0
 40
1
 40
1
 40
1
 10
21.2122
 20
-27.864
 30
0
 10
21.2001
 20
-27.8788
 30
0
 10
21.1638
 20
-27.8694
 30
0
  0
SPLINE
  5
D4E
330
A02
100
AcDbEntity
  8
Shape2DView
100
AcDbSpline
210
0
220
0
230
1
 70
8
 71
1
 72
4
 73
2
 74
0
 40
0
 40
0
 40
1
 40
1
 10
21.2176
 20
-27.8587
 30
0
 10
21.2122
 20
-27.864
 30
0
  0
SPLINE
  5
D4F
330
A02
100
AcDbEntity
  8
Shape2DView
100
AcDbSpline
210
0
220
0
230
1
 70
8
 71
3
 72
8
 73
4
 74
0
 40
0
 40
0
 40
0
 40
0
 40
1
 40
1
 40
1
 40
1
 10
21.1262
 20
-27.6812
 30
0
 10
21.2015
 20
-27.7672
 30
0
 10
21.2391
 20
-27.8372
 30
0
 10
21.2176
 20
-27.8587
 30
0
  0
SPLINE
  5
D50
330
A02
100
AcDbEntity
  8
Shape2DView
100
AcDbSpline
210
0
220
0
230
1
 70
8
 71
3
 72
8
 73
4
 74
0
 40
0
 40
0
 40
0
 40
0
 40
1
 40
1
 40
1
 40
1
 10
21.11
 20
-27.6651
 30
0
 10
21.1208
 20
-27.6758
 30
0
 10
21.11
 20
-27.6651
 30
0
 10
21.1262
 20
-27.6812
 30
0
  0
SPLINE
  5
D51
330
A02
100
AcDbEntity
  8
Shape2DView
100
AcDbSpline
210
0
220
0
230
1
 70
8
 71
1
 72
4
 73
2
 74
0
 40
0
 40
0
 40
46.9
 40
46.9
 10
23.6322
 20
-25.1429
 30
0
 10
21.11
 20
-27.6651
 30
0
  0
SPLINE
  5
D52
330
A02
100
AcDbEntity
  8
Shape2DView
100
AcDbSpline
210
0
220
0
230
1
 70
8
 71
3
 72
8
 73
4
 74
0
 40
0
 40
0
 40
0
 40
0
 40
1
 40
1
 40
1
 40
1
 10
23.7505
 20
-25.1106
 30
0
 10
23.7505
 20
-25.1106
 30
0
 10
23.6322
 20
-25.1429
 30
0
 10
23.6322
 20
-25.1429
 30
0
  0
SPLINE
  5
D53
330
A02
100
AcDbEntity
  8
Shape2DView
100
AcDbSpline
210
0
220
0
230
1
 70
8
 71
1
 72
4
 73
2
 74
0
 40
0
 40
0
 40
4.85077
 40
4.85077
 10
23.971
 20
-24.8149
 30
0
 10
23.7505
 20
-25.1106
 30
0
  0
SPLINE
  5
D54
330
A02
100
AcDbEntity
  8
Shape2DView
100
AcDbSpline
210
0
220
0
230
1
 70
8
 71
1
 72
4
 73
2
 74
0
 40
0
 40
0
 40
1.8
 40
1.8
 10
23.8742
 20
-24.7181
 30
0
 10
23.971
 20
-24.8149
 30
0
  0
SPLINE
  5
D55
330
A02
100
AcDbEntity
  8
Shape2DView
100
AcDbSpline
210
0
220
0
230
1
 70
8
 71
1
 72
4
 73
2
 74
0
 40
0
 40
0
 40
4.85077
 40
4.85077
 10
23.5784
 20
-24.9386
 30
0
 10
23.8742
 20
-24.7181
 30
0
  0
SPLINE
  5
D56
330
A02
100
AcDbEntity
  8
Shape2DView
100
AcDbSpline
210
0
220
0
230
1
 70
8
 71
3
 72
8
 73
4
 74
0
 40
0
 40
0
 40
0
 40
0
 40
1
 40
1
 40
1
 40
1
 10
23.53
 20
-25.0515
 30
0
 10
23.53
 20
-25.0515
 30
0
 10
23.5784
 20
-24.9386
 30
0
 10
23.5784
 20
-24.9386
 30
0
  0
SPLINE
  5
D57
330
A02
100
AcDbEntity
  8
Shape2DView
100
AcDbSpline
210
0
220
0
230
1
 70
8
 71
1
 72
4
 73
2
 74
0
 40
0
 40
0
 40
46.9
 40
46.9
 10
21.0079
 20
-27.5736
 30
0
 10
23.53
 20
-25.0515
 30
0
  0
SPLINE
  5
D58
330
A02
100
AcDbEntity
  8
Shape2DView
100
AcDbSpline
210
0
220
0
230
1
 70
8
 71
3
 72
8
 73
4
 74
0
 40
0
 40
0
 40
0
 40
0
 40
1
 40
1
 40
1
 40
1
 10
20.9326
 20
-27.5091
 30
0
 10
20.9433
 20
-27.5199
 30
0
 10
20.9917
 20
-27.5575
 30
0
 10
21.0079
 20
-27.5736
 30
0
  0
SPLINE
  5
D59
330
A02
100
AcDbEntity
  8
Shape2DView
100
AcDbSpline
210
0
220
0
230
1
 70
8
 71
3
 72
8
 73
4
 74
0
 40
0
 40
0
 40
0
 40
0
 40
1
 40
1
 40
1
 40
1
 10
20.7443
 20
-27.4284
 30
0
 10
20.7712
 20
-27.4016
 30
0
 10
20.8411
 20
-27.4392
 30
0
 10
20.9326
 20
-27.5091
 30
0
  0
SPLINE
  5
D5A
330
A02
100
AcDbEntity
  8
Shape2DView
100
AcDbSpline
210
0
220
0
230
1
 70
8
 71
1
 72
4
 73
2
 74
0
 40
0
 40
0
 40
0.1
 40
0.1
 10
23.331
 20
-25.6484
 30
0
 10
23.3364
 20
-25.6538
 30
0
  0
SPLINE
  5
D5B
330
A02
100
AcDbEntity
  8
Shape2DView
100
AcDbSpline
210
0
220
0
230
1
 70
8
 71
1
 72
4
 73
2
 74
0
 40
0
 40
0
 40
8.5
 40
8.5
 10
22.8739
 20
-26.1055
 30
0
 10
23.331
 20
-25.6484
 30
0
  0
SPLINE
  5
D5C
330
A02
100
AcDbEntity
  8
Shape2DView
100
AcDbSpline
210
0
220
0
230
1
 70
8
 71
3
 72
8
 73
4
 74
0
 40
0
 40
0
 40
0
 40
0
 40
1
 40
1
 40
1
 40
1
 10
23.5892
 20
-26.1754
 30
0
 10
23.5784
 20
-26.1647
 30
0
 10
23.288
 20
-26.1432
 30
0
 10
22.8739
 20
-26.1055
 30
0
  0
SPLINE
  5
D5D
330
A02
100
AcDbEntity
  8
Shape2DView
100
AcDbSpline
210
0
220
0
230
1
 70
8
 71
1
 72
4
 73
2
 74
0
 40
0
 40
0
 40
0.1
 40
0.1
 10
23.5945
 20
-26.1808
 30
0
 10
23.5892
 20
-26.1754
 30
0
  0
SPLINE
  5
D5E
330
A02
100
AcDbEntity
  8
Shape2DView
100
AcDbSpline
210
0
220
0
230
1
 70
8
 71
3
 72
8
 73
4
 74
0
 40
0
 40
0
 40
0
 40
0
 40
1
 40
1
 40
1
 40
1
 10
23.7128
 20
-26.3206
 30
0
 10
23.6537
 20
-26.2615
 30
0
 10
23.616
 20
-26.2023
 30
0
 10
23.5945
 20
-26.1808
 30
0
  0
SPLINE
  5
D5F
330
A02
100
AcDbEntity
  8
Shape2DView
100
AcDbSpline
210
0
220
0
230
1
 70
8
 71
3
 72
8
 73
4
 74
0
 40
0
 40
0
 40
0
 40
0
 40
1
 40
1
 40
1
 40
1
 10
23.971
 20
-26.4497
 30
0
 10
23.8527
 20
-26.4389
 30
0
 10
23.772
 20
-26.3798
 30
0
 10
23.7128
 20
-26.3206
 30
0
  0
SPLINE
  5
D60
330
A02
100
AcDbEntity
  8
Shape2DView
100
AcDbSpline
210
0
220
0
230
1
 70
8
 71
3
 72
8
 73
4
 74
0
 40
0
 40
0
 40
0
 40
0
 40
1
 40
1
 40
1
 40
1
 10
24.4227
 20
-26.2561
 30
0
 10
24.4227
 20
-26.2561
 30
0
 10
24.2936
 20
-26.4712
 30
0
 10
23.971
 20
-26.4497
 30
0
  0
SPLINE
  5
D61
330
A02
100
AcDbEntity
  8
Shape2DView
100
AcDbSpline
210
0
220
0
230
1
 70
8
 71
1
 72
4
 73
2
 74
0
 40
0
 40
0
 40
1.60312
 40
1.60312
 10
24.342
 20
-26.1647
 30
0
 10
24.4227
 20
-26.2561
 30
0
  0
SPLINE
  5
D62
330
A02
100
AcDbEntity
  8
Shape2DView
100
AcDbSpline
210
0
220
0
230
1
 70
8
 71
1
 72
4
 73
2
 74
0
 40
0
 40
0
 40
4.39318
 40
4.39318
 10
24.0086
 20
-26.1432
 30
0
 10
24.342
 20
-26.1647
 30
0
  0
SPLINE
  5
D63
330
A02
100
AcDbEntity
  8
Shape2DView
100
AcDbSpline
210
0
220
0
230
1
 70
8
 71
1
 72
4
 73
2
 74
0
 40
0
 40
0
 40
1
 40
1
 10
23.9871
 20
-26.0894
 30
0
 10
24.0086
 20
-26.1432
 30
0
  0
SPLINE
  5
D64
330
A02
100
AcDbEntity
  8
Shape2DView
100
AcDbSpline
210
0
220
0
230
1
 70
8
 71
1
 72
4
 73
2
 74
0
 40
0
 40
0
 40
1
 40
1
 10
23.9764
 20
-26.0141
 30
0
 10
23.9871
 20
-26.0894
 30
0
  0
SPLINE
  5
D65
330
A02
100
AcDbEntity
  8
Shape2DView
100
AcDbSpline
210
0
220
0
230
1
 70
8
 71
3
 72
8
 73
4
 74
0
 40
0
 40
0
 40
0
 40
0
 40
1
 40
1
 40
1
 40
1
 10
23.9925
 20
-25.9227
 30
0
 10
23.9871
 20
-25.9496
 30
0
 10
23.971
 20
-25.9872
 30
0
 10
23.9764
 20
-26.0141
 30
0
  0
SPLINE
  5
D66
330
A02
100
AcDbEntity
  8
Shape2DView
100
AcDbSpline
210
0
220
0
230
1
 70
8
 71
2
 72
6
 73
3
 74
0
 40
0
 40
0
 40
0
 40
1
 40
1
 40
1
 10
24.1054
 20
-25.799
 30
0
 10
24.0207
 20
-25.8568
 30
0
 10
23.9925
 20
-25.9227
 30
0
  0
SPLINE
  5
D67
330
A02
100
AcDbEntity
  8
Shape2DView
100
AcDbSpline
210
0
220
0
230
1
 70
8
 71
1
 72
4
 73
2
 74
0
 40
0
 40
0
 40
4.74236
 40
4.74236
 10
24.4657
 20
-25.8151
 30
0
 10
24.1054
 20
-25.799
 30
0
  0
SPLINE
  5
D68
330
A02
100
AcDbEntity
  8
Shape2DView
100
AcDbSpline
210
0
220
0
230
1
 70
8
 71
2
 72
6
 73
3
 74
0
 40
0
 40
0
 40
0
 40
1
 40
1
 40
1
 10
24.4603
 20
-25.7882
 30
0
 10
24.4671
 20
-25.8138
 30
0
 10
24.4657
 20
-25.8151
 30
0
  0
SPLINE
  5
D69
330
A02
100
AcDbEntity
  8
Shape2DView
100
AcDbSpline
210
0
220
0
230
1
 70
8
 71
1
 72
4
 73
2
 74
0
 40
0
 40
0
 40
1
 40
1
 10
24.4281
 20
-25.7237
 30
0
 10
24.4603
 20
-25.7882
 30
0
  0
SPLINE
  5
D6A
330
A02
100
AcDbEntity
  8
Shape2DView
100
AcDbSpline
210
0
220
0
230
1
 70
8
 71
2
 72
6
 73
3
 74
0
 40
0
 40
0
 40
0
 40
1
 40
1
 40
1
 10
24.342
 20
-25.6162
 30
0
 10
24.4052
 20
-25.682
 30
0
 10
24.4281
 20
-25.7237
 30
0
  0
SPLINE
  5
D6B
330
A02
100
AcDbEntity
  8
Shape2DView
100
AcDbSpline
210
0
220
0
230
1
 70
8
 71
1
 72
4
 73
2
 74
0
 40
0
 40
0
 40
1
 40
1
 10
24.3205
 20
-25.5946
 30
0
 10
24.342
 20
-25.6162
 30
0
  0
SPLINE
  5
D6C
330
A02
100
AcDbEntity
  8
Shape2DView
100
AcDbSpline
210
0
220
0
230
1
 70
8
 71
3
 72
8
 73
4
 74
0
 40
0
 40
0
 40
0
 40
0
 40
1
 40
1
 40
1
 40
1
 10
23.9764
 20
-25.4656
 30
0
 10
24.1592
 20
-25.4763
 30
0
 10
24.2668
 20
-25.5409
 30
0
 10
24.3205
 20
-25.5946
 30
0
  0
SPLINE
  5
D6D
330
A02
100
AcDbEntity
  8
Shape2DView
100
AcDbSpline
210
0
220
0
230
1
 70
8
 71
3
 72
8
 73
4
 74
0
 40
0
 40
0
 40
0
 40
0
 40
1
 40
1
 40
1
 40
1
 10
23.5676
 20
-25.6484
 30
0
 10
23.6429
 20
-25.6054
 30
0
 10
23.772
 20
-25.4548
 30
0
 10
23.9764
 20
-25.4656
 30
0
  0
SPLINE
  5
D6E
330
A02
100
AcDbEntity
  8
Shape2DView
100
AcDbSpline
210
0
220
0
230
1
 70
8
 71
3
 72
8
 73
4
 74
0
 40
0
 40
0
 40
0
 40
0
 40
1
 40
1
 40
1
 40
1
 10
23.3364
 20
-25.6538
 30
0
 10
23.4708
 20
-25.6592
 30
0
 10
23.5569
 20
-25.6592
 30
0
 10
23.5676
 20
-25.6484
 30
0
  0
SPLINE
  5
D6F
330
A02
100
AcDbEntity
  8
Shape2DView
100
AcDbSpline
210
0
220
0
230
1
 70
8
 71
3
 72
8
 73
4
 74
0
 40
0
 40
0
 40
0
 40
0
 40
1
 40
1
 40
1
 40
1
 10
17.1467
 20
-25.4548
 30
0
 10
17.1359
 20
-25.4656
 30
0
 10
17.1359
 20
-25.4763
 30
0
 10
17.1251
 20
-25.4871
 30
0
  0
SPLINE
  5
D70
330
A02
100
AcDbEntity
  8
Shape2DView
100
AcDbSpline
210
0
220
0
230
1
 70
8
 71
2
 72
6
 73
3
 74
0
 40
0
 40
0
 40
0
 40
1
 40
1
 40
1
 10
17.1251
 20
-25.4871
 30
0
 10
17.1157
 20
-25.5288
 30
0
 10
17.1467
 20
-25.5624
 30
0
  0
SPLINE
  5
D71
330
A02
100
AcDbEntity
  8
Shape2DView
100
AcDbSpline
210
0
220
0
230
1
 70
8
 71
2
 72
6
 73
3
 74
0
 40
0
 40
0
 40
0
 40
1
 40
1
 40
1
 10
17.1467
 20
-25.5624
 30
0
 10
17.1803
 20
-25.5933
 30
0
 10
17.2219
 20
-25.5839
 30
0
  0
SPLINE
  5
D72
330
A02
100
AcDbEntity
  8
Shape2DView
100
AcDbSpline
210
0
220
0
230
1
 70
8
 71
2
 72
6
 73
3
 74
0
 40
0
 40
0
 40
0
 40
1
 40
1
 40
1
 10
17.2219
 20
-25.5839
 30
0
 10
17.2381
 20
-25.5812
 30
0
 10
17.2542
 20
-25.5624
 30
0
  0
SPLINE
  5
D73
330
A02
100
AcDbEntity
  8
Shape2DView
100
AcDbSpline
210
0
220
0
230
1
 70
8
 71
1
 72
4
 73
2
 74
0
 40
0
 40
0
 40
37.2
 40
37.2
 10
17.2542
 20
-25.5624
 30
0
 10
19.2547
 20
-23.5619
 30
0
  0
SPLINE
  5
D74
330
A02
100
AcDbEntity
  8
Shape2DView
100
AcDbSpline
210
0
220
0
230
1
 70
8
 71
3
 72
8
 73
4
 74
0
 40
0
 40
0
 40
0
 40
0
 40
1
 40
1
 40
1
 40
1
 10
19.2547
 20
-23.5619
 30
0
 10
19.287
 20
-23.5296
 30
0
 10
19.2816
 20
-23.4812
 30
0
 10
19.2547
 20
-23.4543
 30
0
  0
SPLINE
  5
D75
330
A02
100
AcDbEntity
  8
Shape2DView
100
AcDbSpline
210
0
220
0
230
1
 70
8
 71
3
 72
8
 73
4
 74
0
 40
0
 40
0
 40
0
 40
0
 40
1
 40
1
 40
1
 40
1
 10
19.2547
 20
-23.4543
 30
0
 10
19.2225
 20
-23.422
 30
0
 10
19.1741
 20
-23.4274
 30
0
 10
19.1472
 20
-23.4543
 30
0
  0
SPLINE
  5
D76
330
A02
100
AcDbEntity
  8
Shape2DView
100
AcDbSpline
210
0
220
0
230
1
 70
8
 71
1
 72
4
 73
2
 74
0
 40
0
 40
0
 40
37.2
 40
37.2
 10
19.1472
 20
-23.4543
 30
0
 10
17.1467
 20
-25.4548
 30
0
  0
ENDSEC
  0
SECTION
  2
OBJECTS
  0
DICTIONARY
  5
F000
330
0
100
AcDbDictionary
  3
ACAD_GROUP
350
F001
  0
DICTIONARY
  5
F001
330
F000
100
AcDbDictionary
  0
ENDSEC
  0
EOF