999
FreeCAD v0.21 33771 (Git)
  0
SECTION
  2
HEADER
  9
$ACADVER
  1
AC1014
  9
$ACADMAINTVER
 70
     9
  9
$DWGCODEPAGE
  3
ANSI_1252
  9
$TEXTSTYLE
  7
STANDARD
  9
$DIMSTYLE
  2
STANDARD
  9
$DIMTXSTY
  7
STANDARD
  9
$CMLSTYLE
  2
STANDARD
  9
$LUNITS
 70
2
  9
$INSUNITS
 70
4
  9
$PEXTMAX
 10
50
 20
50
 30
50
  9
$PEXTMIN
 10
0
 20
0
 30
0
  9
$HANDSEED
  5
FFFF
  0
ENDSEC
  0
SECTION
  2
CLASSES
  0
CLASS
  1
ACDBDICTIONARYWDFLT
  2
AcDbDictionaryWithDefault
  3
ObjectDBX Classes
 90
        0
280
     0
281
     0
  0
CLASS
  1
XRECORD
  2
AcDbXrecord
  3
ObjectDBX Classes
 90
        0
280
     0
281
     0
  0
CLASS
  1
LWPOLYLINE
  2
AcDbPolyline
  3
ObjectDBX Classes
 90
        0
280
     0
281
     1
  0
ENDSEC
  0
SECTION
  2
TABLES
  0
TABLE
  2
VPORT
  5
20
330
0
100
AcDbSymbolTable
 70
     1
  0
VPORT
  5
21
330
20
100
AcDbSymbolTableRecord
100
AcDbViewportTableRecord
  2
*ACTIVE
 70
     0
  0
ENDTAB
  0
TABLE
  2
LTYPE
  5
22
330
0
100
AcDbSymbolTable
 70
     1
  0
LTYPE
  5
23
330
21
100
AcDbSymbolTableRecord
100
AcDbLinetypeTableRecord
  2
BYBLOCK
 70
     0
  3

 72
    65
 73
     0
 40
0.0
  0
LTYPE
  5
24
330
21
100
AcDbSymbolTableRecord
100
AcDbLinetypeTableRecord
  2
BYLAYER
 70
     0
  3

 72
    65
 73
     0
 40
0.0
  0
LTYPE
  5
25
330
21
100
AcDbSymbolTableRecord
100
AcDbLinetypeTableRecord
  2
CONTINUOUS
 70
     0
  3
Solid line
 72
    65
 73
     0
 40
0.0
  0
ENDTAB
  0
TABLE
  2
LAYER
  5
CBE
330
0
100
AcDbSymbolTable
 70
3
  0
LAYER
  5
CBF
330
CBE
100
AcDbSymbolTableRecord
100
AcDbLayerTableRecord
  2
0
 70
   0
 62
   7
  6
CONTINUOUS
  0
LAYER
  5
CC0
330
CBE
100
AcDbSymbolTableRecord
100
AcDbLayerTableRecord
  2
none
 70
    0
 62
    7
  6
CONTINUOUS
  0
LAYER
  5
CC1
330
CBE
100
AcDbSymbolTableRecord
100
AcDbLayerTableRecord
  2
Shape2DView027
 70
    0
 62
    7
  6
CONTINUOUS
  0
ENDTAB
  0
TABLE
  2
STYLE
  5
70
330
0
100
AcDbSymbolTable
 70
     2
  0
STYLE
  5
71
330
70
100
AcDbSymbolTableRecord
100
AcDbTextStyleTableRecord
  2
STANDARD
 70
     0
 40
0.0
 41
1.0
 50
0.0
 71
     0
 42
2.5
  3
arial.ttf
  4

  0
STYLE
  5
72
330
70
100
AcDbSymbolTableRecord
100
AcDbTextStyleTableRecord
  2
ANNOTATIVE
 70
     0
 40
0.0
 41
1.0
 50
0.0
 71
     0
 42
2.5
  3
arial.ttf
  4

  0
ENDTAB
  0
TABLE
  2
VIEW
  5
73
330
0
100
AcDbSymbolTable
 70
     0
  0
ENDTAB
  0
TABLE
  2
UCS
  5
74
330
0
100
AcDbSymbolTable
 70
     0
  0
ENDTAB
  0
TABLE
  2
APPID
  5
75
330
0
100
AcDbSymbolTable
 70
     2
  0
APPID
  5
76
330
75
100
AcDbSymbolTableRecord
100
AcDbRegAppTableRecord
  2
ACAD
 70
     0
  0
APPID
  5
77
330
75
100
AcDbSymbolTableRecord
100
AcDbRegAppTableRecord
  2
ACADANNOTATIVE
 70
     0
  0
ENDTAB
  0
TABLE
  2
DIMSTYLE
  5
78
330
0
100
AcDbSymbolTable
 70
     2
  0
DIMSTYLE
105
79
330
78
100
AcDbSymbolTableRecord
100
AcDbDimStyleTableRecord
  2
STANDARD
 70
     0
  3

  4

  5

  6

  7

 40
0.0
 41
2.5
 42
0.625
 43
3.75
 44
1.25
 45
0.0
 46
0.0
 47
0.0
 48
0.0
140
2.5
141
2.5
142
0.0
143
0.03937007874016
144
1.0
145
0.0
146
1.0
147
0.625
 71
     0
 72
     0
 73
     0
 74
     0
 75
     0
 76
     0
 77
     1
 78
     8
170
     0
171
     3
172
     1
173
     0
174
     0
175
     0
176
     0
177
     0
178
     0
270
     2
271
     2
272
     2
273
     2
274
     3
340
71
275
     0
280
     0
281
     0
282
     0
283
     0
284
     8
285
     0
286
     0
287
     3
288
     0
  0
ENDTAB
  0
TABLE
  2
BLOCK_RECORD
  5
A01
330
0
100
AcDbSymbolTable
  70
5
  0
BLOCK_RECORD
  5
A02
330
A01
100
AcDbSymbolTableRecord
100
AcDbBlockTableRecord
  2
*MODEL_SPACE
  0
BLOCK_RECORD
  5
A03
330
A01
100
AcDbSymbolTableRecord
100
AcDbBlockTableRecord
  2
*PAPER_SPACE
  0
ENDTAB
  0
ENDSEC
  0
SECTION
  2
BLOCKS
  0
BLOCK
  5
A04
330
A02
100
AcDbEntity
  8
0
100
AcDbBlockBegin
  2
*MODEL_SPACE
 70
   0
 10
0
 20
0
 30
0
  3
*MODEL_SPACE
  1
 
  0
ENDBLK
  5
A05
330
A02
100
AcDbEntity
  8
0
100
AcDbBlockEnd
  0
BLOCK
  5
A06
330
A03
100
AcDbEntity
 67
1
  8
0
100
AcDbBlockBegin
  2
*PAPER_SPACE
 70
   0
 10
0
 20
0
 30
0
  3
*PAPER_SPACE
  1
 
  0
ENDBLK
  5
A07
330
A03
100
AcDbEntity
 67
    1
  8
0
100
AcDbBlockEnd
  0
ENDSEC
  0
SECTION
  2
ENTITIES
  0
LINE
  5
A08
330
A02
100
AcDbEntity
  8
Shape2DView027
100
AcDbLine
 10
-41.7193
 20
21.2132
 30
0
 11
-21.2132
 21
41.7193
 31
0
  0
ARC
  5
A09
330
A02
100
AcDbEntity
  8
Shape2DView027
100
AcDbCircle
 10
-20.5061
 20
-3.3e-15
 30
0
 40
30
100
AcDbArc
 50
135
 51
-135
  0
ARC
  5
A0A
330
A02
100
AcDbEntity
  8
Shape2DView027
100
AcDbCircle
 10
3.9e-15
 20
20.5061
 30
0
 40
30
100
AcDbArc
 50
45
 51
135
  0
LINE
  5
A0B
330
A02
100
AcDbEntity
  8
Shape2DView027
100
AcDbLine
 10
-21.2132
 20
-41.7193
 30
0
 11
-41.7193
 21
-21.2132
 31
0
  0
LINE
  5
A0C
330
A02
100
AcDbEntity
  8
Shape2DView027
100
AcDbLine
 10
21.2132
 20
41.7193
 30
0
 11
41.7193
 21
21.2132
 31
0
  0
ARC
  5
A0D
330
A02
100
AcDbEntity
  8
Shape2DView027
100
AcDbCircle
 10
-4.5e-15
 20
-20.5061
 30
0
 40
30
100
AcDbArc
 50
-135
 51
-45
  0
ARC
  5
A0E
330
A02
100
AcDbEntity
  8
Shape2DView027
100
AcDbCircle
 10
20.5061
 20
5.1e-15
 30
0
 40
30
100
AcDbArc
 50
-45
 51
45
  0
LINE
  5
A0F
330
A02
100
AcDbEntity
  8
Shape2DView027
100
AcDbLine
 10
41.7193
 20
-21.2132
 30
0
 11
21.2132
 21
-41.7193
 31
0
  0
ARC
  5
A10
330
A02
100
AcDbEntity
  8
Shape2DView027
100
AcDbCircle
 10
-10.1
 20
-41.6624
 30
0
 40
0.2
100
AcDbArc
 50
-180
 51
0
  0
LINE
  5
A11
330
A02
100
AcDbEntity
  8
Shape2DView027
100
AcDbLine
 10
-10.3
 20
-29.9624
 30
0
 11
-10.3
 21
-41.6624
 31
0
  0
LINE
  5
A12
330
A02
100
AcDbEntity
  8
Shape2DView027
100
AcDbLine
 10
-9.9
 20
-41.6624
 30
0
 11
-9.9
 21
-29.9624
 31
0
  0
ARC
  5
A13
330
A02
100
AcDbEntity
  8
Shape2DView027
100
AcDbCircle
 10
-10.1
 20
-29.9624
 30
0
 40
0.2
100
AcDbArc
 50
0
 51
180
  0
LINE
  5
A14
330
A02
100
AcDbEntity
  8
Shape2DView027
100
AcDbLine
 10
-7.3
 20
-37.7624
 30
0
 11
7.3
 21
-37.7624
 31
0
  0
LINE
  5
A15
330
A02
100
AcDbEntity
  8
Shape2DView027
100
AcDbLine
 10
-7.3
 20
-41.6624
 30
0
 11
-7.3
 21
-37.7624
 31
0
  0
LINE
  5
A16
330
A02
100
AcDbEntity
  8
Shape2DView027
100
AcDbLine
 10
7.3
 20
-37.7624
 30
0
 11
7.3
 21
-41.6624
 31
0
  0
ARC
  5
A17
330
A02
100
AcDbEntity
  8
Shape2DView027
100
AcDbCircle
 10
-7.5
 20
-41.6624
 30
0
 40
0.2
100
AcDbArc
 50
180
 51
0
  0
ARC
  5
A18
330
A02
100
AcDbEntity
  8
Shape2DView027
100
AcDbCircle
 10
7.5
 20
-41.6624
 30
0
 40
0.2
100
AcDbArc
 50
180
 51
-1.05849e-10
  0
LINE
  5
A19
330
A02
100
AcDbEntity
  8
Shape2DView027
100
AcDbLine
 10
-7.7
 20
-29.9624
 30
0
 11
-7.7
 21
-41.6624
 31
0
  0
LINE
  5
A1A
330
A02
100
AcDbEntity
  8
Shape2DView027
100
AcDbLine
 10
7.7
 20
-41.6624
 30
0
 11
7.7
 21
-29.9624
 31
0
  0
ARC
  5
A1B
330
A02
100
AcDbEntity
  8
Shape2DView027
100
AcDbCircle
 10
-7.5
 20
-29.9624
 30
0
 40
0.2
100
AcDbArc
 50
0
 51
180
  0
ARC
  5
A1C
330
A02
100
AcDbEntity
  8
Shape2DView027
100
AcDbCircle
 10
7.5
 20
-29.9624
 30
0
 40
0.2
100
AcDbArc
 50
0
 51
180
  0
LINE
  5
A1D
330
A02
100
AcDbEntity
  8
Shape2DView027
100
AcDbLine
 10
-7.3
 20
-35.1624
 30
0
 11
-7.3
 21
-29.9624
 31
0
  0
LINE
  5
A1E
330
A02
100
AcDbEntity
  8
Shape2DView027
100
AcDbLine
 10
7.3
 20
-29.9624
 30
0
 11
7.3
 21
-35.1624
 31
0
  0
LINE
  5
A1F
330
A02
100
AcDbEntity
  8
Shape2DView027
100
AcDbLine
 10
7.3
 20
-35.1624
 30
0
 11
-7.3
 21
-35.1624
 31
0
  0
ARC
  5
A20
330
A02
100
AcDbEntity
  8
Shape2DView027
100
AcDbCircle
 10
-41.6624
 20
-10.1
 30
0
 40
0.2
100
AcDbArc
 50
90
 51
-90
  0
LINE
  5
A21
330
A02
100
AcDbEntity
  8
Shape2DView027
100
AcDbLine
 10
-29.9624
 20
-9.9
 30
0
 11
-41.6624
 21
-9.9
 31
0
  0
LINE
  5
A22
330
A02
100
AcDbEntity
  8
Shape2DView027
100
AcDbLine
 10
-41.6624
 20
-10.3
 30
0
 11
-29.9624
 21
-10.3
 31
0
  0
ARC
  5
A23
330
A02
100
AcDbEntity
  8
Shape2DView027
100
AcDbCircle
 10
-29.9624
 20
-10.1
 30
0
 40
0.2
100
AcDbArc
 50
-90
 51
90
  0
LINE
  5
A24
330
A02
100
AcDbEntity
  8
Shape2DView027
100
AcDbLine
 10
-37.7624
 20
7.3
 30
0
 11
-37.7624
 21
-7.3
 31
0
  0
LINE
  5
A25
330
A02
100
AcDbEntity
  8
Shape2DView027
100
AcDbLine
 10
-41.6624
 20
7.3
 30
0
 11
-37.7624
 21
7.3
 31
0
  0
LINE
  5
A26
330
A02
100
AcDbEntity
  8
Shape2DView027
100
AcDbLine
 10
-37.7624
 20
-7.3
 30
0
 11
-41.6624
 21
-7.3
 31
0
  0
ARC
  5
A27
330
A02
100
AcDbEntity
  8
Shape2DView027
100
AcDbCircle
 10
-41.6624
 20
7.5
 30
0
 40
0.2
100
AcDbArc
 50
90
 51
-90
  0
ARC
  5
A28
330
A02
100
AcDbEntity
  8
Shape2DView027
100
AcDbCircle
 10
-41.6624
 20
-7.5
 30
0
 40
0.2
100
AcDbArc
 50
90
 51
-90
  0
LINE
  5
A29
330
A02
100
AcDbEntity
  8
Shape2DView027
100
AcDbLine
 10
-29.9624
 20
7.7
 30
0
 11
-41.6624
 21
7.7
 31
0
  0
LINE
  5
A2A
330
A02
100
AcDbEntity
  8
Shape2DView027
100
AcDbLine
 10
-41.6624
 20
-7.7
 30
0
 11
-29.9624
 21
-7.7
 31
0
  0
ARC
  5
A2B
330
A02
100
AcDbEntity
  8
Shape2DView027
100
AcDbCircle
 10
-29.9624
 20
7.5
 30
0
 40
0.2
100
AcDbArc
 50
-90
 51
90
  0
ARC
  5
A2C
330
A02
100
AcDbEntity
  8
Shape2DView027
100
AcDbCircle
 10
-29.9624
 20
-7.5
 30
0
 40
0.2
100
AcDbArc
 50
-90
 51
90
  0
LINE
  5
A2D
330
A02
100
AcDbEntity
  8
Shape2DView027
100
AcDbLine
 10
-35.1624
 20
7.3
 30
0
 11
-29.9624
 21
7.3
 31
0
  0
LINE
  5
A2E
330
A02
100
AcDbEntity
  8
Shape2DView027
100
AcDbLine
 10
-29.9624
 20
-7.3
 30
0
 11
-35.1624
 21
-7.3
 31
0
  0
LINE
  5
A2F
330
A02
100
AcDbEntity
  8
Shape2DView027
100
AcDbLine
 10
-35.1624
 20
-7.3
 30
0
 11
-35.1624
 21
7.3
 31
0
  0
ARC
  5
A30
330
A02
100
AcDbEntity
  8
Shape2DView027
100
AcDbCircle
 10
10.1
 20
-41.6624
 30
0
 40
0.2
100
AcDbArc
 50
-180
 51
0
  0
LINE
  5
A31
330
A02
100
AcDbEntity
  8
Shape2DView027
100
AcDbLine
 10
9.9
 20
-29.9624
 30
0
 11
9.9
 21
-41.6624
 31
0
  0
LINE
  5
A32
330
A02
100
AcDbEntity
  8
Shape2DView027
100
AcDbLine
 10
10.3
 20
-41.6624
 30
0
 11
10.3
 21
-29.9624
 31
0
  0
ARC
  5
A33
330
A02
100
AcDbEntity
  8
Shape2DView027
100
AcDbCircle
 10
10.1
 20
-29.9624
 30
0
 40
0.2
100
AcDbArc
 50
0
 51
180
  0
ARC
  5
A34
330
A02
100
AcDbEntity
  8
Shape2DView027
100
AcDbCircle
 10
41.6624
 20
-10.1
 30
0
 40
0.2
100
AcDbArc
 50
-90
 51
90
  0
LINE
  5
A35
330
A02
100
AcDbEntity
  8
Shape2DView027
100
AcDbLine
 10
29.9624
 20
-10.3
 30
0
 11
41.6624
 21
-10.3
 31
0
  0
LINE
  5
A36
330
A02
100
AcDbEntity
  8
Shape2DView027
100
AcDbLine
 10
41.6624
 20
-9.9
 30
0
 11
29.9624
 21
-9.9
 31
0
  0
ARC
  5
A37
330
A02
100
AcDbEntity
  8
Shape2DView027
100
AcDbCircle
 10
29.9624
 20
-10.1
 30
0
 40
0.2
100
AcDbArc
 50
90
 51
-90
  0
LINE
  5
A38
330
A02
100
AcDbEntity
  8
Shape2DView027
100
AcDbLine
 10
37.7624
 20
-7.3
 30
0
 11
37.7624
 21
7.3
 31
0
  0
LINE
  5
A39
330
A02
100
AcDbEntity
  8
Shape2DView027
100
AcDbLine
 10
41.6624
 20
-7.3
 30
0
 11
37.7624
 21
-7.3
 31
0
  0
LINE
  5
A3A
330
A02
100
AcDbEntity
  8
Shape2DView027
100
AcDbLine
 10
37.7624
 20
7.3
 30
0
 11
41.6624
 21
7.3
 31
0
  0
ARC
  5
A3B
330
A02
100
AcDbEntity
  8
Shape2DView027
100
AcDbCircle
 10
41.6624
 20
-7.5
 30
0
 40
0.2
100
AcDbArc
 50
-90
 51
90
  0
ARC
  5
A3C
330
A02
100
AcDbEntity
  8
Shape2DView027
100
AcDbCircle
 10
41.6624
 20
7.5
 30
0
 40
0.2
100
AcDbArc
 50
-90
 51
90
  0
LINE
  5
A3D
330
A02
100
AcDbEntity
  8
Shape2DView027
100
AcDbLine
 10
29.9624
 20
-7.7
 30
0
 11
41.6624
 21
-7.7
 31
0
  0
LINE
  5
A3E
330
A02
100
AcDbEntity
  8
Shape2DView027
100
AcDbLine
 10
41.6624
 20
7.7
 30
0
 11
29.9624
 21
7.7
 31
0
  0
ARC
  5
A3F
330
A02
100
AcDbEntity
  8
Shape2DView027
100
AcDbCircle
 10
29.9624
 20
-7.5
 30
0
 40
0.2
100
AcDbArc
 50
90
 51
-90
  0
ARC
  5
A40
330
A02
100
AcDbEntity
  8
Shape2DView027
100
AcDbCircle
 10
29.9624
 20
7.5
 30
0
 40
0.2
100
AcDbArc
 50
90
 51
-90
  0
LINE
  5
A41
330
A02
100
AcDbEntity
  8
Shape2DView027
100
AcDbLine
 10
35.1624
 20
-7.3
 30
0
 11
29.9624
 21
-7.3
 31
0
  0
LINE
  5
A42
330
A02
100
AcDbEntity
  8
Shape2DView027
100
AcDbLine
 10
29.9624
 20
7.3
 30
0
 11
35.1624
 21
7.3
 31
0
  0
LINE
  5
A43
330
A02
100
AcDbEntity
  8
Shape2DView027
100
AcDbLine
 10
35.1624
 20
7.3
 30
0
 11
35.1624
 21
-7.3
 31
0
  0
ARC
  5
A44
330
A02
100
AcDbEntity
  8
Shape2DView027
100
AcDbCircle
 10
-41.6624
 20
10.1
 30
0
 40
0.2
100
AcDbArc
 50
90
 51
-90
  0
LINE
  5
A45
330
A02
100
AcDbEntity
  8
Shape2DView027
100
AcDbLine
 10
-29.9624
 20
10.3
 30
0
 11
-41.6624
 21
10.3
 31
0
  0
LINE
  5
A46
330
A02
100
AcDbEntity
  8
Shape2DView027
100
AcDbLine
 10
-41.6624
 20
9.9
 30
0
 11
-29.9624
 21
9.9
 31
0
  0
ARC
  5
A47
330
A02
100
AcDbEntity
  8
Shape2DView027
100
AcDbCircle
 10
-29.9624
 20
10.1
 30
0
 40
0.2
100
AcDbArc
 50
-90
 51
90
  0
SPLINE
  5
A48
330
A02
100
AcDbEntity
  8
Shape2DView027
100
AcDbSpline
210
0
220
0
230
1
 70
8
 71
1
 72
4
 73
2
 74
0
 40
0
 40
0
 40
38.1182
 40
38.1182
 10
19.5499
 20
-9.50025
 30
0
 10
16.3114
 20
-4.3885
 30
0
  0
SPLINE
  5
A49
330
A02
100
AcDbEntity
  8
Shape2DView027
100
AcDbSpline
210
0
220
0
230
1
 70
8
 71
2
 72
6
 73
3
 74
0
 40
0
 40
0
 40
0
 40
1
 40
1
 40
1
 10
16.3114
 20
-4.3885
 30
0
 10
16.4304
 20
-3.79319
 30
0
 10
16.5019
 20
-3.19787
 30
0
  0
SPLINE
  5
A4A
330
A02
100
AcDbEntity
  8
Shape2DView027
100
AcDbSpline
210
0
220
0
230
1
 70
8
 71
3
 72
8
 73
4
 74
0
 40
0
 40
0
 40
0
 40
0
 40
1
 40
1
 40
1
 40
1
 10
16.5019
 20
-3.19787
 30
0
 10
16.4542
 20
-3.21375
 30
0
 10
15.8351
 20
-3.309
 30
0
 10
15.6446
 20
-3.34075
 30
0
  0
SPLINE
  5
A4B
330
A02
100
AcDbEntity
  8
Shape2DView027
100
AcDbSpline
210
0
220
0
230
1
 70
8
 71
1
 72
4
 73
2
 74
0
 40
0
 40
0
 40
4.993
 40
4.993
 10
15.6446
 20
-3.34075
 30
0
 10
15.216
 20
-2.674
 30
0
  0
SPLINE
  5
A4C
330
A02
100
AcDbEntity
  8
Shape2DView027
100
AcDbSpline
210
0
220
0
230
1
 70
8
 71
1
 72
4
 73
2
 74
0
 40
0
 40
0
 40
0.3
 40
0.3
 10
15.216
 20
-2.674
 30
0
 10
15.2636
 20
-2.674
 30
0
  0
SPLINE
  5
A4D
330
A02
100
AcDbEntity
  8
Shape2DView027
100
AcDbSpline
210
0
220
0
230
1
 70
8
 71
3
 72
8
 73
4
 74
0
 40
0
 40
0
 40
0
 40
0
 40
1
 40
1
 40
1
 40
1
 10
15.2636
 20
-2.674
 30
0
 10
15.3589
 20
-2.57875
 30
0
 10
15.47
 20
-2.547
 30
0
 10
15.47
 20
-2.547
 30
0
  0
SPLINE
  5
A4E
330
A02
100
AcDbEntity
  8
Shape2DView027
100
AcDbSpline
210
0
220
0
230
1
 70
8
 71
1
 72
4
 73
2
 74
0
 40
0
 40
0
 40
7.21249
 40
7.21249
 10
15.47
 20
-2.547
 30
0
 10
16.5654
 20
-2.21363
 30
0
  0
SPLINE
  5
A4F
330
A02
100
AcDbEntity
  8
Shape2DView027
100
AcDbSpline
210
0
220
0
230
1
 70
8
 71
3
 72
8
 73
4
 74
0
 40
0
 40
0
 40
0
 40
0
 40
1
 40
1
 40
1
 40
1
 10
16.5654
 20
-2.21363
 30
0
 10
16.5812
 20
-1.88025
 30
0
 10
16.5971
 20
-1.56275
 30
0
 10
16.5971
 20
-1.22938
 30
0
  0
SPLINE
  5
A50
330
A02
100
AcDbEntity
  8
Shape2DView027
100
AcDbSpline
210
0
220
0
230
1
 70
8
 71
3
 72
8
 73
4
 74
0
 40
0
 40
0
 40
0
 40
0
 40
1
 40
1
 40
1
 40
1
 10
16.5971
 20
-1.22938
 30
0
 10
16.5971
 20
-0.92775
 30
0
 10
16.5812
 20
-0.642
 30
0
 10
16.5654
 20
-0.340375
 30
0
  0
SPLINE
  5
A51
330
A02
100
AcDbEntity
  8
Shape2DView027
100
AcDbSpline
210
0
220
0
230
1
 70
8
 71
3
 72
8
 73
4
 74
0
 40
0
 40
0
 40
0
 40
0
 40
1
 40
1
 40
1
 40
1
 10
16.5654
 20
-0.340375
 30
0
 10
16.5019
 20
-0.35625
 30
0
 10
15.8351
 20
-0.61025
 30
0
 10
15.724
 20
-0.642
 30
0
  0
SPLINE
  5
A52
330
A02
100
AcDbEntity
  8
Shape2DView027
100
AcDbSpline
210
0
220
0
230
1
 70
8
 71
3
 72
8
 73
4
 74
0
 40
0
 40
0
 40
0
 40
0
 40
1
 40
1
 40
1
 40
1
 10
15.724
 20
-0.642
 30
0
 10
15.597
 20
-0.689625
 30
0
 10
15.3589
 20
-0.7055
 30
0
 10
15.2319
 20
-0.372125
 30
0
  0
SPLINE
  5
A53
330
A02
100
AcDbEntity
  8
Shape2DView027
100
AcDbSpline
210
0
220
0
230
1
 70
8
 71
3
 72
8
 73
4
 74
0
 40
0
 40
0
 40
0
 40
0
 40
1
 40
1
 40
1
 40
1
 10
15.2319
 20
-0.372125
 30
0
 10
15.1049
 20
-0.03875
 30
0
 10
15.4541
 20
0.12
 30
0
 10
15.4541
 20
0.12
 30
0
  0
SPLINE
  5
A54
330
A02
100
AcDbEntity
  8
Shape2DView027
100
AcDbSpline
210
0
220
0
230
1
 70
8
 71
1
 72
4
 73
2
 74
0
 40
0
 40
0
 40
7.15542
 40
7.15542
 10
15.4541
 20
0.12
 30
0
 10
16.4701
 20
0.628
 30
0
  0
SPLINE
  5
A55
330
A02
100
AcDbEntity
  8
Shape2DView027
100
AcDbSpline
210
0
220
0
230
1
 70
8
 71
2
 72
6
 73
3
 74
0
 40
0
 40
0
 40
0
 40
1
 40
1
 40
1
 10
16.4701
 20
0.628
 30
0
 10
16.3709
 20
1.5805
 30
0
 10
16.1526
 20
2.48537
 30
0
  0
SPLINE
  5
A56
330
A02
100
AcDbEntity
  8
Shape2DView027
100
AcDbSpline
210
0
220
0
230
1
 70
8
 71
3
 72
8
 73
4
 74
0
 40
0
 40
0
 40
0
 40
0
 40
1
 40
1
 40
1
 40
1
 10
16.1526
 20
2.48537
 30
0
 10
16.1367
 20
2.4695
 30
0
 10
15.4859
 20
2.10437
 30
0
 10
15.3747
 20
2.04087
 30
0
  0
SPLINE
  5
A57
330
A02
100
AcDbEntity
  8
Shape2DView027
100
AcDbSpline
210
0
220
0
230
1
 70
8
 71
3
 72
8
 73
4
 74
0
 40
0
 40
0
 40
0
 40
0
 40
1
 40
1
 40
1
 40
1
 10
15.3747
 20
2.04087
 30
0
 10
15.2636
 20
1.97737
 30
0
 10
15.0255
 20
1.91387
 30
0
 10
14.8509
 20
2.2155
 30
0
  0
SPLINE
  5
A58
330
A02
100
AcDbEntity
  8
Shape2DView027
100
AcDbSpline
210
0
220
0
230
1
 70
8
 71
3
 72
8
 73
4
 74
0
 40
0
 40
0
 40
0
 40
0
 40
1
 40
1
 40
1
 40
1
 10
14.8509
 20
2.2155
 30
0
 10
14.6763
 20
2.51712
 30
0
 10
14.9938
 20
2.73937
 30
0
 10
14.9938
 20
2.73937
 30
0
  0
SPLINE
  5
A59
330
A02
100
AcDbEntity
  8
Shape2DView027
100
AcDbSpline
210
0
220
0
230
1
 70
8
 71
1
 72
4
 73
2
 74
0
 40
0
 40
0
 40
7.22011
 40
7.22011
 10
14.9938
 20
2.73937
 30
0
 10
15.9145
 20
3.422
 30
0
  0
SPLINE
  5
A5A
330
A02
100
AcDbEntity
  8
Shape2DView027
100
AcDbSpline
210
0
220
0
230
1
 70
8
 71
3
 72
8
 73
4
 74
0
 40
0
 40
0
 40
0
 40
0
 40
1
 40
1
 40
1
 40
1
 10
15.9145
 20
3.422
 30
0
 10
15.7399
 20
4.02525
 30
0
 10
15.5176
 20
4.61262
 30
0
 10
15.2795
 20
5.18412
 30
0
  0
SPLINE
  5
A5B
330
A02
100
AcDbEntity
  8
Shape2DView027
100
AcDbSpline
210
0
220
0
230
1
 70
8
 71
3
 72
8
 73
4
 74
0
 40
0
 40
0
 40
0
 40
0
 40
1
 40
1
 40
1
 40
1
 10
15.2795
 20
5.18412
 30
0
 10
15.2795
 20
5.18412
 30
0
 10
14.6921
 20
4.692
 30
0
 10
14.581
 20
4.61262
 30
0
  0
SPLINE
  5
A5C
330
A02
100
AcDbEntity
  8
Shape2DView027
100
AcDbSpline
210
0
220
0
230
1
 70
8
 71
3
 72
8
 73
4
 74
0
 40
0
 40
0
 40
0
 40
0
 40
1
 40
1
 40
1
 40
1
 10
14.581
 20
4.61262
 30
0
 10
14.4858
 20
4.53325
 30
0
 10
14.2635
 20
4.42212
 30
0
 10
14.0254
 20
4.692
 30
0
  0
SPLINE
  5
A5D
330
A02
100
AcDbEntity
  8
Shape2DView027
100
AcDbSpline
210
0
220
0
230
1
 70
8
 71
3
 72
8
 73
4
 74
0
 40
0
 40
0
 40
0
 40
0
 40
1
 40
1
 40
1
 40
1
 10
14.0254
 20
4.692
 30
0
 10
13.8031
 20
4.96187
 30
0
 10
14.073
 20
5.23175
 30
0
 10
14.073
 20
5.23175
 30
0
  0
SPLINE
  5
A5E
330
A02
100
AcDbEntity
  8
Shape2DView027
100
AcDbSpline
210
0
220
0
230
1
 70
8
 71
1
 72
4
 73
2
 74
0
 40
0
 40
0
 40
7.21388
 40
7.21388
 10
14.073
 20
5.23175
 30
0
 10
14.8668
 20
6.05725
 30
0
  0
SPLINE
  5
A5F
330
A02
100
AcDbEntity
  8
Shape2DView027
100
AcDbSpline
210
0
220
0
230
1
 70
8
 71
3
 72
8
 73
4
 74
0
 40
0
 40
0
 40
0
 40
0
 40
1
 40
1
 40
1
 40
1
 10
14.8668
 20
6.05725
 30
0
 10
14.581
 20
6.61287
 30
0
 10
14.2794
 20
7.1685
 30
0
 10
13.9301
 20
7.69237
 30
0
  0
SPLINE
  5
A60
330
A02
100
AcDbEntity
  8
Shape2DView027
100
AcDbSpline
210
0
220
0
230
1
 70
8
 71
3
 72
8
 73
4
 74
0
 40
0
 40
0
 40
0
 40
0
 40
1
 40
1
 40
1
 40
1
 10
13.9301
 20
7.69237
 30
0
 10
13.9142
 20
7.66062
 30
0
 10
13.438
 20
7.105
 30
0
 10
13.3428
 20
7.00975
 30
0
  0
SPLINE
  5
A61
330
A02
100
AcDbEntity
  8
Shape2DView027
100
AcDbSpline
210
0
220
0
230
1
 70
8
 71
3
 72
8
 73
4
 74
0
 40
0
 40
0
 40
0
 40
0
 40
1
 40
1
 40
1
 40
1
 10
13.3428
 20
7.00975
 30
0
 10
13.2634
 20
6.9145
 30
0
 10
13.057
 20
6.77162
 30
0
 10
12.7871
 20
6.99387
 30
0
  0
SPLINE
  5
A62
330
A02
100
AcDbEntity
  8
Shape2DView027
100
AcDbSpline
210
0
220
0
230
1
 70
8
 71
3
 72
8
 73
4
 74
0
 40
0
 40
0
 40
0
 40
0
 40
1
 40
1
 40
1
 40
1
 10
12.7871
 20
6.99387
 30
0
 10
12.5173
 20
7.21612
 30
0
 10
12.7395
 20
7.53362
 30
0
 10
12.7395
 20
7.53362
 30
0
  0
SPLINE
  5
A63
330
A02
100
AcDbEntity
  8
Shape2DView027
100
AcDbSpline
210
0
220
0
230
1
 70
8
 71
1
 72
4
 73
2
 74
0
 40
0
 40
0
 40
7.2111
 40
7.2111
 10
12.7395
 20
7.53362
 30
0
 10
13.3745
 20
8.48612
 30
0
  0
SPLINE
  5
A64
330
A02
100
AcDbEntity
  8
Shape2DView027
100
AcDbSpline
210
0
220
0
230
1
 70
8
 71
3
 72
8
 73
4
 74
0
 40
0
 40
0
 40
0
 40
0
 40
1
 40
1
 40
1
 40
1
 10
13.3745
 20
8.48612
 30
0
 10
13.0094
 20
8.99412
 30
0
 10
12.5966
 20
9.47038
 30
0
 10
12.1839
 20
9.93075
 30
0
  0
SPLINE
  5
A65
330
A02
100
AcDbEntity
  8
Shape2DView027
100
AcDbSpline
210
0
220
0
230
1
 70
8
 71
3
 72
8
 73
4
 74
0
 40
0
 40
0
 40
0
 40
0
 40
1
 40
1
 40
1
 40
1
 10
12.1839
 20
9.93075
 30
0
 10
12.1521
 20
9.86725
 30
0
 10
11.787
 20
9.264
 30
0
 10
11.7235
 20
9.15287
 30
0
  0
SPLINE
  5
A66
330
A02
100
AcDbEntity
  8
Shape2DView027
100
AcDbSpline
210
0
220
0
230
1
 70
8
 71
3
 72
8
 73
4
 74
0
 40
0
 40
0
 40
0
 40
0
 40
1
 40
1
 40
1
 40
1
 10
11.7235
 20
9.15287
 30
0
 10
11.66
 20
9.04175
 30
0
 10
11.4854
 20
8.86712
 30
0
 10
11.1838
 20
9.04175
 30
0
  0
SPLINE
  5
A67
330
A02
100
AcDbEntity
  8
Shape2DView027
100
AcDbSpline
210
0
220
0
230
1
 70
8
 71
3
 72
8
 73
4
 74
0
 40
0
 40
0
 40
0
 40
0
 40
1
 40
1
 40
1
 40
1
 10
11.1838
 20
9.04175
 30
0
 10
10.8821
 20
9.21637
 30
0
 10
11.0409
 20
9.56563
 30
0
 10
11.0409
 20
9.56562
 30
0
  0
SPLINE
  5
A68
330
A02
100
AcDbEntity
  8
Shape2DView027
100
AcDbSpline
210
0
220
0
230
1
 70
8
 71
1
 72
4
 73
2
 74
0
 40
0
 40
0
 40
7.20902
 40
7.20902
 10
11.0409
 20
9.56562
 30
0
 10
11.5013
 20
10.6134
 30
0
  0
SPLINE
  5
A69
330
A02
100
AcDbEntity
  8
Shape2DView027
100
AcDbSpline
210
0
220
0
230
1
 70
8
 71
3
 72
8
 73
4
 74
0
 40
0
 40
0
 40
0
 40
0
 40
1
 40
1
 40
1
 40
1
 10
11.5013
 20
10.6134
 30
0
 10
11.0567
 20
11.042
 30
0
 10
10.5646
 20
11.4548
 30
0
 10
10.0725
 20
11.8357
 30
0
  0
SPLINE
  5
A6A
330
A02
100
AcDbEntity
  8
Shape2DView027
100
AcDbSpline
210
0
220
0
230
1
 70
8
 71
3
 72
8
 73
4
 74
0
 40
0
 40
0
 40
0
 40
0
 40
1
 40
1
 40
1
 40
1
 10
10.0725
 20
11.8357
 30
0
 10
10.0566
 20
11.7722
 30
0
 10
9.80263
 20
11.1055
 30
0
 10
9.755
 20
10.9944
 30
0
  0
SPLINE
  5
A6B
330
A02
100
AcDbEntity
  8
Shape2DView027
100
AcDbSpline
210
0
220
0
230
1
 70
8
 71
3
 72
8
 73
4
 74
0
 40
0
 40
0
 40
0
 40
0
 40
1
 40
1
 40
1
 40
1
 10
9.755
 20
10.9944
 30
0
 10
9.70737
 20
10.8674
 30
0
 10
9.5645
 20
10.6769
 30
0
 10
9.23112
 20
10.788
 30
0
  0
SPLINE
  5
A6C
330
A02
100
AcDbEntity
  8
Shape2DView027
100
AcDbSpline
210
0
220
0
230
1
 70
8
 71
3
 72
8
 73
4
 74
0
 40
0
 40
0
 40
0
 40
0
 40
1
 40
1
 40
1
 40
1
 10
9.23112
 20
10.788
 30
0
 10
8.89775
 20
10.915
 30
0
 10
9.00887
 20
11.2801
 30
0
 10
9.00887
 20
11.2801
 30
0
  0
SPLINE
  5
A6D
330
A02
100
AcDbEntity
  8
Shape2DView027
100
AcDbSpline
210
0
220
0
230
1
 70
8
 71
1
 72
4
 73
2
 74
0
 40
0
 40
0
 40
7.20347
 40
7.20347
 10
9.00887
 20
11.2801
 30
0
 10
9.27875
 20
12.3914
 30
0
  0
SPLINE
  5
A6E
330
A02
100
AcDbEntity
  8
Shape2DView027
100
AcDbSpline
210
0
220
0
230
1
 70
8
 71
2
 72
6
 73
3
 74
0
 40
0
 40
0
 40
0
 40
1
 40
1
 40
1
 10
9.27875
 20
12.3914
 30
0
 10
8.49294
 20
12.9153
 30
0
 10
7.6595
 20
13.3439
 30
0
  0
SPLINE
  5
A6F
330
A02
100
AcDbEntity
  8
Shape2DView027
100
AcDbSpline
210
0
220
0
230
1
 70
8
 71
3
 72
8
 73
4
 74
0
 40
0
 40
0
 40
0
 40
0
 40
1
 40
1
 40
1
 40
1
 10
7.6595
 20
13.3439
 30
0
 10
7.6595
 20
13.3121
 30
0
 10
7.51663
 20
12.5819
 30
0
 10
7.50075
 20
12.4549
 30
0
  0
SPLINE
  5
A70
330
A02
100
AcDbEntity
  8
Shape2DView027
100
AcDbSpline
210
0
220
0
230
1
 70
8
 71
3
 72
8
 73
4
 74
0
 40
0
 40
0
 40
0
 40
0
 40
1
 40
1
 40
1
 40
1
 10
7.50075
 20
12.4549
 30
0
 10
7.469
 20
12.3279
 30
0
 10
7.37375
 20
12.1056
 30
0
 10
7.0245
 20
12.1691
 30
0
  0
SPLINE
  5
A71
330
A02
100
AcDbEntity
  8
Shape2DView027
100
AcDbSpline
210
0
220
0
230
1
 70
8
 71
3
 72
8
 73
4
 74
0
 40
0
 40
0
 40
0
 40
0
 40
1
 40
1
 40
1
 40
1
 10
7.0245
 20
12.1691
 30
0
 10
6.67525
 20
12.2326
 30
0
 10
6.72287
 20
12.6136
 30
0
 10
6.72287
 20
12.6136
 30
0
  0
SPLINE
  5
A72
330
A02
100
AcDbEntity
  8
Shape2DView027
100
AcDbSpline
210
0
220
0
230
1
 70
8
 71
1
 72
4
 73
2
 74
0
 40
0
 40
0
 40
7.21734
 40
7.21734
 10
6.72287
 20
12.6136
 30
0
 10
6.80225
 20
13.7566
 30
0
  0
SPLINE
  5
A73
330
A02
100
AcDbEntity
  8
Shape2DView027
100
AcDbSpline
210
0
220
0
230
1
 70
8
 71
2
 72
6
 73
3
 74
0
 40
0
 40
0
 40
0
 40
1
 40
1
 40
1
 10
6.80225
 20
13.7566
 30
0
 10
5.89737
 20
14.1575
 30
0
 10
4.94487
 20
14.4392
 30
0
  0
SPLINE
  5
A74
330
A02
100
AcDbEntity
  8
Shape2DView027
100
AcDbSpline
210
0
220
0
230
1
 70
8
 71
1
 72
4
 73
2
 74
0
 40
0
 40
0
 40
5.7
 40
5.7
 10
4.94487
 20
14.4392
 30
0
 10
4.94487
 20
13.5344
 30
0
  0
SPLINE
  5
A75
330
A02
100
AcDbEntity
  8
Shape2DView027
100
AcDbSpline
210
0
220
0
230
1
 70
8
 71
3
 72
8
 73
4
 74
0
 40
0
 40
0
 40
0
 40
0
 40
1
 40
1
 40
1
 40
1
 10
4.94487
 20
13.5344
 30
0
 10
4.94487
 20
13.5185
 30
0
 10
4.94488
 20
13.201
 30
0
 10
4.94487
 20
13.1851
 30
0
  0
SPLINE
  5
A76
330
A02
100
AcDbEntity
  8
Shape2DView027
100
AcDbSpline
210
0
220
0
230
1
 70
8
 71
1
 72
4
 73
2
 74
0
 40
0
 40
0
 40
24.0217
 40
24.0217
 10
4.94487
 20
13.1851
 30
0
 10
2.88113
 20
16.3919
 30
0
  0
SPLINE
  5
A77
330
A02
100
AcDbEntity
  8
Shape2DView027
100
AcDbSpline
210
0
220
0
230
1
 70
8
 71
3
 72
8
 73
4
 74
0
 40
0
 40
0
 40
0
 40
0
 40
1
 40
1
 40
1
 40
1
 10
2.88113
 20
16.3919
 30
0
 10
1.15075
 20
19.1065
 30
0
 10
-1.34162
 20
19.1065
 30
0
 10
-3.072
 20
16.3919
 30
0
  0
SPLINE
  5
A78
330
A02
100
AcDbEntity
  8
Shape2DView027
100
AcDbSpline
210
0
220
0
230
1
 70
8
 71
1
 72
4
 73
2
 74
0
 40
0
 40
0
 40
14.4062
 40
14.4062
 10
-3.072
 20
16.3919
 30
0
 10
-4.26263
 20
14.4393
 30
0
  0
SPLINE
  5
A79
330
A02
100
AcDbEntity
  8
Shape2DView027
100
AcDbSpline
210
0
220
0
230
1
 70
8
 71
1
 72
4
 73
2
 74
0
 40
0
 40
0
 40
0.707107
 40
0.707107
 10
-4.26263
 20
14.4393
 30
0
 10
-4.37375
 20
14.4551
 30
0
  0
SPLINE
  5
A7A
330
A02
100
AcDbEntity
  8
Shape2DView027
100
AcDbSpline
210
0
220
0
230
1
 70
8
 71
3
 72
8
 73
4
 74
0
 40
0
 40
0
 40
0
 40
0
 40
1
 40
1
 40
1
 40
1
 10
-4.37375
 20
14.4551
 30
0
 10
-4.977
 20
14.2805
 30
0
 10
-5.56438
 20
14.0583
 30
0
 10
-6.13588
 20
13.8201
 30
0
  0
SPLINE
  5
A7B
330
A02
100
AcDbEntity
  8
Shape2DView027
100
AcDbSpline
210
0
220
0
230
1
 70
8
 71
3
 72
8
 73
4
 74
0
 40
0
 40
0
 40
0
 40
0
 40
1
 40
1
 40
1
 40
1
 10
-6.13588
 20
13.8201
 30
0
 10
-6.13588
 20
13.8201
 30
0
 10
-5.64375
 20
13.2328
 30
0
 10
-5.5485
 20
13.1216
 30
0
  0
SPLINE
  5
A7C
330
A02
100
AcDbEntity
  8
Shape2DView027
100
AcDbSpline
210
0
220
0
230
1
 70
8
 71
3
 72
8
 73
4
 74
0
 40
0
 40
0
 40
0
 40
0
 40
1
 40
1
 40
1
 40
1
 10
-5.5485
 20
13.1216
 30
0
 10
-5.46912
 20
13.0264
 30
0
 10
-5.358
 20
12.8041
 30
0
 10
-5.62788
 20
12.566
 30
0
  0
SPLINE
  5
A7D
330
A02
100
AcDbEntity
  8
Shape2DView027
100
AcDbSpline
210
0
220
0
230
1
 70
8
 71
3
 72
8
 73
4
 74
0
 40
0
 40
0
 40
0
 40
0
 40
1
 40
1
 40
1
 40
1
 10
-5.62788
 20
12.566
 30
0
 10
-5.89775
 20
12.3438
 30
0
 10
-6.16763
 20
12.6136
 30
0
 10
-6.16763
 20
12.6136
 30
0
  0
SPLINE
  5
A7E
330
A02
100
AcDbEntity
  8
Shape2DView027
100
AcDbSpline
210
0
220
0
230
1
 70
8
 71
1
 72
4
 73
2
 74
0
 40
0
 40
0
 40
7.21388
 40
7.21388
 10
-6.16763
 20
12.6136
 30
0
 10
-6.99313
 20
13.4074
 30
0
  0
SPLINE
  5
A7F
330
A02
100
AcDbEntity
  8
Shape2DView027
100
AcDbSpline
210
0
220
0
230
1
 70
8
 71
3
 72
8
 73
4
 74
0
 40
0
 40
0
 40
0
 40
0
 40
1
 40
1
 40
1
 40
1
 10
-6.99313
 20
13.4074
 30
0
 10
-7.54875
 20
13.1216
 30
0
 10
-8.10438
 20
12.82
 30
0
 10
-8.62825
 20
12.4708
 30
0
  0
SPLINE
  5
A80
330
A02
100
AcDbEntity
  8
Shape2DView027
100
AcDbSpline
210
0
220
0
230
1
 70
8
 71
3
 72
8
 73
4
 74
0
 40
0
 40
0
 40
0
 40
0
 40
1
 40
1
 40
1
 40
1
 10
-8.62825
 20
12.4708
 30
0
 10
-8.5965
 20
12.4549
 30
0
 10
-8.04088
 20
11.9786
 30
0
 10
-7.94563
 20
11.8834
 30
0
  0
SPLINE
  5
A81
330
A02
100
AcDbEntity
  8
Shape2DView027
100
AcDbSpline
210
0
220
0
230
1
 70
8
 71
3
 72
8
 73
4
 74
0
 40
0
 40
0
 40
0
 40
0
 40
1
 40
1
 40
1
 40
1
 10
-7.94563
 20
11.8834
 30
0
 10
-7.85038
 20
11.804
 30
0
 10
-7.7075
 20
11.5976
 30
0
 10
-7.92975
 20
11.3278
 30
0
  0
SPLINE
  5
A82
330
A02
100
AcDbEntity
  8
Shape2DView027
100
AcDbSpline
210
0
220
0
230
1
 70
8
 71
3
 72
8
 73
4
 74
0
 40
0
 40
0
 40
0
 40
0
 40
1
 40
1
 40
1
 40
1
 10
-7.92975
 20
11.3278
 30
0
 10
-8.152
 20
11.0579
 30
0
 10
-8.4695
 20
11.2801
 30
0
 10
-8.4695
 20
11.2801
 30
0
  0
SPLINE
  5
A83
330
A02
100
AcDbEntity
  8
Shape2DView027
100
AcDbSpline
210
0
220
0
230
1
 70
8
 71
1
 72
4
 73
2
 74
0
 40
0
 40
0
 40
7.2111
 40
7.2111
 10
-8.4695
 20
11.2801
 30
0
 10
-9.422
 20
11.9151
 30
0
  0
SPLINE
  5
A84
330
A02
100
AcDbEntity
  8
Shape2DView027
100
AcDbSpline
210
0
220
0
230
1
 70
8
 71
3
 72
8
 73
4
 74
0
 40
0
 40
0
 40
0
 40
0
 40
1
 40
1
 40
1
 40
1
 10
-9.422
 20
11.9151
 30
0
 10
-9.93
 20
11.55
 30
0
 10
-10.4063
 20
11.1373
 30
0
 10
-10.8666
 20
10.7245
 30
0
  0
SPLINE
  5
A85
330
A02
100
AcDbEntity
  8
Shape2DView027
100
AcDbSpline
210
0
220
0
230
1
 70
8
 71
3
 72
8
 73
4
 74
0
 40
0
 40
0
 40
0
 40
0
 40
1
 40
1
 40
1
 40
1
 10
-10.8666
 20
10.7245
 30
0
 10
-10.8031
 20
10.6927
 30
0
 10
-10.1999
 20
10.3276
 30
0
 10
-10.0888
 20
10.2641
 30
0
  0
SPLINE
  5
A86
330
A02
100
AcDbEntity
  8
Shape2DView027
100
AcDbSpline
210
0
220
0
230
1
 70
8
 71
3
 72
8
 73
4
 74
0
 40
0
 40
0
 40
0
 40
0
 40
1
 40
1
 40
1
 40
1
 10
-10.0888
 20
10.2641
 30
0
 10
-9.97762
 20
10.2006
 30
0
 10
-9.803
 20
10.026
 30
0
 10
-9.97763
 20
9.72438
 30
0
  0
SPLINE
  5
A87
330
A02
100
AcDbEntity
  8
Shape2DView027
100
AcDbSpline
210
0
220
0
230
1
 70
8
 71
3
 72
8
 73
4
 74
0
 40
0
 40
0
 40
0
 40
0
 40
1
 40
1
 40
1
 40
1
 10
-9.97763
 20
9.72438
 30
0
 10
-10.1523
 20
9.42275
 30
0
 10
-10.5015
 20
9.5815
 30
0
 10
-10.5015
 20
9.5815
 30
0
  0
SPLINE
  5
A88
330
A02
100
AcDbEntity
  8
Shape2DView027
100
AcDbSpline
210
0
220
0
230
1
 70
8
 71
1
 72
4
 73
2
 74
0
 40
0
 40
0
 40
7.20902
 40
7.20902
 10
-10.5015
 20
9.5815
 30
0
 10
-11.5493
 20
10.0419
 30
0
  0
SPLINE
  5
A89
330
A02
100
AcDbEntity
  8
Shape2DView027
100
AcDbSpline
210
0
220
0
230
1
 70
8
 71
3
 72
8
 73
4
 74
0
 40
0
 40
0
 40
0
 40
0
 40
1
 40
1
 40
1
 40
1
 10
-11.5493
 20
10.0419
 30
0
 10
-11.9779
 20
9.59738
 30
0
 10
-12.3906
 20
9.10525
 30
0
 10
-12.7716
 20
8.61313
 30
0
  0
SPLINE
  5
A8A
330
A02
100
AcDbEntity
  8
Shape2DView027
100
AcDbSpline
210
0
220
0
230
1
 70
8
 71
3
 72
8
 73
4
 74
0
 40
0
 40
0
 40
0
 40
0
 40
1
 40
1
 40
1
 40
1
 10
-12.7716
 20
8.61313
 30
0
 10
-12.7081
 20
8.59725
 30
0
 10
-12.0414
 20
8.34325
 30
0
 10
-11.9303
 20
8.29563
 30
0
  0
SPLINE
  5
A8B
330
A02
100
AcDbEntity
  8
Shape2DView027
100
AcDbSpline
210
0
220
0
230
1
 70
8
 71
3
 72
8
 73
4
 74
0
 40
0
 40
0
 40
0
 40
0
 40
1
 40
1
 40
1
 40
1
 10
-11.9303
 20
8.29563
 30
0
 10
-11.8033
 20
8.248
 30
0
 10
-11.6128
 20
8.10513
 30
0
 10
-11.7239
 20
7.77175
 30
0
  0
SPLINE
  5
A8C
330
A02
100
AcDbEntity
  8
Shape2DView027
100
AcDbSpline
210
0
220
0
230
1
 70
8
 71
3
 72
8
 73
4
 74
0
 40
0
 40
0
 40
0
 40
0
 40
1
 40
1
 40
1
 40
1
 10
-11.7239
 20
7.77175
 30
0
 10
-11.8509
 20
7.43837
 30
0
 10
-12.216
 20
7.5495
 30
0
 10
-12.216
 20
7.5495
 30
0
  0
SPLINE
  5
A8D
330
A02
100
AcDbEntity
  8
Shape2DView027
100
AcDbSpline
210
0
220
0
230
1
 70
8
 71
1
 72
4
 73
2
 74
0
 40
0
 40
0
 40
7.20347
 40
7.20347
 10
-12.216
 20
7.5495
 30
0
 10
-13.3273
 20
7.81938
 30
0
  0
SPLINE
  5
A8E
330
A02
100
AcDbEntity
  8
Shape2DView027
100
AcDbSpline
210
0
220
0
230
1
 70
8
 71
2
 72
6
 73
3
 74
0
 40
0
 40
0
 40
0
 40
1
 40
1
 40
1
 10
-13.3273
 20
7.81938
 30
0
 10
-13.8511
 20
7.03356
 30
0
 10
-14.2798
 20
6.20013
 30
0
  0
SPLINE
  5
A8F
330
A02
100
AcDbEntity
  8
Shape2DView027
100
AcDbSpline
210
0
220
0
230
1
 70
8
 71
3
 72
8
 73
4
 74
0
 40
0
 40
0
 40
0
 40
0
 40
1
 40
1
 40
1
 40
1
 10
-14.2798
 20
6.20013
 30
0
 10
-14.2639
 20
6.20012
 30
0
 10
-13.5178
 20
6.05725
 30
0
 10
-13.3908
 20
6.04138
 30
0
  0
SPLINE
  5
A90
330
A02
100
AcDbEntity
  8
Shape2DView027
100
AcDbSpline
210
0
220
0
230
1
 70
8
 71
3
 72
8
 73
4
 74
0
 40
0
 40
0
 40
0
 40
0
 40
1
 40
1
 40
1
 40
1
 10
-13.3908
 20
6.04138
 30
0
 10
-13.2637
 20
6.00962
 30
0
 10
-13.0415
 20
5.91438
 30
0
 10
-13.105
 20
5.56513
 30
0
  0
SPLINE
  5
A91
330
A02
100
AcDbEntity
  8
Shape2DView027
100
AcDbSpline
210
0
220
0
230
1
 70
8
 71
3
 72
8
 73
4
 74
0
 40
0
 40
0
 40
0
 40
0
 40
1
 40
1
 40
1
 40
1
 10
-13.105
 20
5.56513
 30
0
 10
-13.1685
 20
5.21588
 30
0
 10
-13.5495
 20
5.2635
 30
0
 10
-13.5495
 20
5.2635
 30
0
  0
SPLINE
  5
A92
330
A02
100
AcDbEntity
  8
Shape2DView027
100
AcDbSpline
210
0
220
0
230
1
 70
8
 71
1
 72
4
 73
2
 74
0
 40
0
 40
0
 40
7.21734
 40
7.21734
 10
-13.5495
 20
5.2635
 30
0
 10
-14.6925
 20
5.34288
 30
0
  0
SPLINE
  5
A93
330
A02
100
AcDbEntity
  8
Shape2DView027
100
AcDbSpline
210
0
220
0
230
1
 70
8
 71
2
 72
6
 73
3
 74
0
 40
0
 40
0
 40
0
 40
1
 40
1
 40
1
 10
-14.6925
 20
5.34288
 30
0
 10
-15.0933
 20
4.438
 30
0
 10
-15.3751
 20
3.4855
 30
0
  0
SPLINE
  5
A94
330
A02
100
AcDbEntity
  8
Shape2DView027
100
AcDbSpline
210
0
220
0
230
1
 70
8
 71
1
 72
4
 73
2
 74
0
 40
0
 40
0
 40
5.7
 40
5.7
 10
-15.3751
 20
3.4855
 30
0
 10
-14.4703
 20
3.4855
 30
0
  0
SPLINE
  5
A95
330
A02
100
AcDbEntity
  8
Shape2DView027
100
AcDbSpline
210
0
220
0
230
1
 70
8
 71
3
 72
8
 73
4
 74
0
 40
0
 40
0
 40
0
 40
0
 40
1
 40
1
 40
1
 40
1
 10
-14.4703
 20
3.4855
 30
0
 10
-14.3433
 20
3.4855
 30
0
 10
-14.1051
 20
3.422
 30
0
 10
-14.1051
 20
3.07275
 30
0
  0
SPLINE
  5
A96
330
A02
100
AcDbEntity
  8
Shape2DView027
100
AcDbSpline
210
0
220
0
230
1
 70
8
 71
3
 72
8
 73
4
 74
0
 40
0
 40
0
 40
0
 40
0
 40
1
 40
1
 40
1
 40
1
 10
-14.1051
 20
3.07275
 30
0
 10
-14.1051
 20
2.7235
 30
0
 10
-14.4861
 20
2.69175
 30
0
 10
-14.4861
 20
2.69175
 30
0
  0
SPLINE
  5
A97
330
A02
100
AcDbEntity
  8
Shape2DView027
100
AcDbSpline
210
0
220
0
230
1
 70
8
 71
1
 72
4
 73
2
 74
0
 40
0
 40
0
 40
7.24431
 40
7.24431
 10
-14.4861
 20
2.69175
 30
0
 10
-15.6291
 20
2.56475
 30
0
  0
SPLINE
  5
A98
330
A02
100
AcDbEntity
  8
Shape2DView027
100
AcDbSpline
210
0
220
0
230
1
 70
8
 71
2
 72
6
 73
3
 74
0
 40
0
 40
0
 40
0
 40
1
 40
1
 40
1
 10
-15.6291
 20
2.56475
 30
0
 10
-15.8434
 20
1.65591
 30
0
 10
-15.9625
 20
0.72325
 30
0
  0
SPLINE
  5
A99
330
A02
100
AcDbEntity
  8
Shape2DView027
100
AcDbSpline
210
0
220
0
230
1
 70
8
 71
3
 72
8
 73
4
 74
0
 40
0
 40
0
 40
0
 40
0
 40
1
 40
1
 40
1
 40
1
 10
-15.9625
 20
0.72325
 30
0
 10
-15.9149
 20
0.739125
 30
0
 10
-15.2005
 20
0.85025
 30
0
 10
-15.0735
 20
0.882
 30
0
  0
SPLINE
  5
A9A
330
A02
100
AcDbEntity
  8
Shape2DView027
100
AcDbSpline
210
0
220
0
230
1
 70
8
 71
3
 72
8
 73
4
 74
0
 40
0
 40
0
 40
0
 40
0
 40
1
 40
1
 40
1
 40
1
 10
-15.0735
 20
0.882
 30
0
 10
-14.9465
 20
0.897875
 30
0
 10
-14.7401
 20
0.882
 30
0
 10
-14.6608
 20
0.612125
 30
0
  0
SPLINE
  5
A9B
330
A02
100
AcDbEntity
  8
Shape2DView027
100
AcDbSpline
210
0
220
0
230
1
 70
8
 71
1
 72
4
 73
2
 74
0
 40
0
 40
0
 40
8.956
 40
8.956
 10
-14.6608
 20
0.612125
 30
0
 10
-13.2479
 20
0.453375
 30
0
  0
SPLINE
  5
A9C
330
A02
100
AcDbEntity
  8
Shape2DView027
100
AcDbSpline
210
0
220
0
230
1
 70
8
 71
1
 72
4
 73
2
 74
0
 40
0
 40
0
 40
2.83019
 40
2.83019
 10
-13.2479
 20
0.453375
 30
0
 10
-13.486
 20
0.072375
 30
0
  0
SPLINE
  5
A9D
330
A02
100
AcDbEntity
  8
Shape2DView027
100
AcDbSpline
210
0
220
0
230
1
 70
8
 71
1
 72
4
 73
2
 74
0
 40
0
 40
0
 40
8.05047
 40
8.05047
 10
-13.486
 20
0.072375
 30
0
 10
-14.756
 20
0.21525
 30
0
  0
SPLINE
  5
A9E
330
A02
100
AcDbEntity
  8
Shape2DView027
100
AcDbSpline
210
0
220
0
230
1
 70
8
 71
3
 72
8
 73
4
 74
0
 40
0
 40
0
 40
0
 40
0
 40
1
 40
1
 40
1
 40
1
 10
-14.756
 20
0.21525
 30
0
 10
-14.8513
 20
0.12
 30
0
 10
-14.9624
 20
0.08825
 30
0
 10
-14.9624
 20
0.08825
 30
0
  0
SPLINE
  5
A9F
330
A02
100
AcDbEntity
  8
Shape2DView027
100
AcDbSpline
210
0
220
0
230
1
 70
8
 71
1
 72
4
 73
2
 74
0
 40
0
 40
0
 40
7.21249
 40
7.21249
 10
-14.9624
 20
0.08825
 30
0
 10
-16.0578
 20
-0.245125
 30
0
  0
SPLINE
  5
AA0
330
A02
100
AcDbEntity
  8
Shape2DView027
100
AcDbSpline
210
0
220
0
230
1
 70
8
 71
3
 72
8
 73
4
 74
0
 40
0
 40
0
 40
0
 40
0
 40
1
 40
1
 40
1
 40
1
 10
-16.0578
 20
-0.245125
 30
0
 10
-16.0736
 20
-0.5785
 30
0
 10
-16.0895
 20
-0.896
 30
0
 10
-16.0895
 20
-1.22937
 30
0
  0
SPLINE
  5
AA1
330
A02
100
AcDbEntity
  8
Shape2DView027
100
AcDbSpline
210
0
220
0
230
1
 70
8
 71
3
 72
8
 73
4
 74
0
 40
0
 40
0
 40
0
 40
0
 40
1
 40
1
 40
1
 40
1
 10
-16.0895
 20
-1.22937
 30
0
 10
-16.0895
 20
-1.531
 30
0
 10
-16.0736
 20
-1.81675
 30
0
 10
-16.0578
 20
-2.11837
 30
0
  0
SPLINE
  5
AA2
330
A02
100
AcDbEntity
  8
Shape2DView027
100
AcDbSpline
210
0
220
0
230
1
 70
8
 71
3
 72
8
 73
4
 74
0
 40
0
 40
0
 40
0
 40
0
 40
1
 40
1
 40
1
 40
1
 10
-16.0578
 20
-2.11837
 30
0
 10
-15.9942
 20
-2.1025
 30
0
 10
-15.3275
 20
-1.8485
 30
0
 10
-15.2164
 20
-1.81675
 30
0
  0
SPLINE
  5
AA3
330
A02
100
AcDbEntity
  8
Shape2DView027
100
AcDbSpline
210
0
220
0
230
1
 70
8
 71
3
 72
8
 73
4
 74
0
 40
0
 40
0
 40
0
 40
0
 40
1
 40
1
 40
1
 40
1
 10
-15.2164
 20
-1.81675
 30
0
 10
-15.1052
 20
-1.785
 30
0
 10
-14.9148
 20
-1.75325
 30
0
 10
-14.7878
 20
-1.9755
 30
0
  0
SPLINE
  5
AA4
330
A02
100
AcDbEntity
  8
Shape2DView027
100
AcDbSpline
210
0
220
0
230
1
 70
8
 71
1
 72
4
 73
2
 74
0
 40
0
 40
0
 40
5.57584
 40
5.57584
 10
-14.7878
 20
-1.9755
 30
0
 10
-15.264
 20
-2.72162
 30
0
  0
SPLINE
  5
AA5
330
A02
100
AcDbEntity
  8
Shape2DView027
100
AcDbSpline
210
0
220
0
230
1
 70
8
 71
1
 72
4
 73
2
 74
0
 40
0
 40
0
 40
5.14296
 40
5.14296
 10
-15.264
 20
-2.72162
 30
0
 10
-15.9943
 20
-3.08675
 30
0
  0
SPLINE
  5
AA6
330
A02
100
AcDbEntity
  8
Shape2DView027
100
AcDbSpline
210
0
220
0
230
1
 70
8
 71
3
 72
8
 73
4
 74
0
 40
0
 40
0
 40
0
 40
0
 40
1
 40
1
 40
1
 40
1
 10
-15.9943
 20
-3.08675
 30
0
 10
-15.9625
 20
-3.309
 30
0
 10
-15.9466
 20
-3.51537
 30
0
 10
-15.899
 20
-3.73762
 30
0
  0
SPLINE
  5
AA7
330
A02
100
AcDbEntity
  8
Shape2DView027
100
AcDbSpline
210
0
220
0
230
1
 70
8
 71
1
 72
4
 73
2
 74
0
 40
0
 40
0
 40
42.9731
 40
42.9731
 10
-15.899
 20
-3.73762
 30
0
 10
-19.5503
 20
-9.50025
 30
0
  0
SPLINE
  5
AA8
330
A02
100
AcDbEntity
  8
Shape2DView027
100
AcDbSpline
210
0
220
0
230
1
 70
8
 71
3
 72
8
 73
4
 74
0
 40
0
 40
0
 40
0
 40
0
 40
1
 40
1
 40
1
 40
1
 10
-19.5503
 20
-9.50025
 30
0
 10
-21.2806
 20
-12.2149
 30
0
 10
-20.0583
 20
-14.4374
 30
0
 10
-16.8356
 20
-14.4374
 30
0
  0
SPLINE
  5
AA9
330
A02
100
AcDbEntity
  8
Shape2DView027
100
AcDbSpline
210
0
220
0
230
1
 70
8
 71
1
 72
4
 73
2
 74
0
 40
0
 40
0
 40
51.2
 40
51.2
 10
-16.8356
 20
-14.4374
 30
0
 10
-8.70763
 20
-14.4374
 30
0
  0
SPLINE
  5
AAA
330
A02
100
AcDbEntity
  8
Shape2DView027
100
AcDbSpline
210
0
220
0
230
1
 70
8
 71
1
 72
4
 73
2
 74
0
 40
0
 40
0
 40
2.66833
 40
2.66833
 10
-8.70763
 20
-14.4374
 30
0
 10
-8.80288
 20
-14.8501
 30
0
  0
SPLINE
  5
AAB
330
A02
100
AcDbEntity
  8
Shape2DView027
100
AcDbSpline
210
0
220
0
230
1
 70
8
 71
2
 72
6
 73
3
 74
0
 40
0
 40
0
 40
0
 40
1
 40
1
 40
1
 10
-8.80288
 20
-14.8501
 30
0
 10
-8.01706
 20
-15.374
 30
0
 10
-7.18363
 20
-15.8026
 30
0
  0
SPLINE
  5
AAC
330
A02
100
AcDbEntity
  8
Shape2DView027
100
AcDbSpline
210
0
220
0
230
1
 70
8
 71
3
 72
8
 73
4
 74
0
 40
0
 40
0
 40
0
 40
0
 40
1
 40
1
 40
1
 40
1
 10
-7.18363
 20
-15.8026
 30
0
 10
-7.18362
 20
-15.7867
 30
0
 10
-7.04075
 20
-15.0406
 30
0
 10
-7.02488
 20
-14.9136
 30
0
  0
SPLINE
  5
AAD
330
A02
100
AcDbEntity
  8
Shape2DView027
100
AcDbSpline
210
0
220
0
230
1
 70
8
 71
3
 72
8
 73
4
 74
0
 40
0
 40
0
 40
0
 40
0
 40
1
 40
1
 40
1
 40
1
 10
-7.02488
 20
-14.9136
 30
0
 10
-7.009
 20
-14.7866
 30
0
 10
-6.89788
 20
-14.5644
 30
0
 10
-6.54863
 20
-14.6279
 30
0
  0
SPLINE
  5
AAE
330
A02
100
AcDbEntity
  8
Shape2DView027
100
AcDbSpline
210
0
220
0
230
1
 70
8
 71
3
 72
8
 73
4
 74
0
 40
0
 40
0
 40
0
 40
0
 40
1
 40
1
 40
1
 40
1
 10
-6.54863
 20
-14.6279
 30
0
 10
-6.19937
 20
-14.6914
 30
0
 10
-6.247
 20
-15.0724
 30
0
 10
-6.247
 20
-15.0724
 30
0
  0
SPLINE
  5
AAF
330
A02
100
AcDbEntity
  8
Shape2DView027
100
AcDbSpline
210
0
220
0
230
1
 70
8
 71
1
 72
4
 73
2
 74
0
 40
0
 40
0
 40
7.21734
 40
7.21734
 10
-6.247
 20
-15.0724
 30
0
 10
-6.32638
 20
-16.2154
 30
0
  0
SPLINE
  5
AB0
330
A02
100
AcDbEntity
  8
Shape2DView027
100
AcDbSpline
210
0
220
0
230
1
 70
8
 71
2
 72
6
 73
3
 74
0
 40
0
 40
0
 40
0
 40
1
 40
1
 40
1
 10
-6.32638
 20
-16.2154
 30
0
 10
-5.4215
 20
-16.6162
 30
0
 10
-4.469
 20
-16.898
 30
0
  0
SPLINE
  5
AB1
330
A02
100
AcDbEntity
  8
Shape2DView027
100
AcDbSpline
210
0
220
0
230
1
 70
8
 71
1
 72
4
 73
2
 74
0
 40
0
 40
0
 40
5.7
 40
5.7
 10
-4.469
 20
-16.898
 30
0
 10
-4.469
 20
-15.9931
 30
0
  0
SPLINE
  5
AB2
330
A02
100
AcDbEntity
  8
Shape2DView027
100
AcDbSpline
210
0
220
0
230
1
 70
8
 71
3
 72
8
 73
4
 74
0
 40
0
 40
0
 40
0
 40
0
 40
1
 40
1
 40
1
 40
1
 10
-4.469
 20
-15.9931
 30
0
 10
-4.469
 20
-15.8661
 30
0
 10
-4.4055
 20
-15.628
 30
0
 10
-4.05625
 20
-15.628
 30
0
  0
SPLINE
  5
AB3
330
A02
100
AcDbEntity
  8
Shape2DView027
100
AcDbSpline
210
0
220
0
230
1
 70
8
 71
3
 72
8
 73
4
 74
0
 40
0
 40
0
 40
0
 40
0
 40
1
 40
1
 40
1
 40
1
 10
-4.05625
 20
-15.628
 30
0
 10
-3.707
 20
-15.628
 30
0
 10
-3.67525
 20
-16.009
 30
0
 10
-3.67525
 20
-16.009
 30
0
  0
SPLINE
  5
AB4
330
A02
100
AcDbEntity
  8
Shape2DView027
100
AcDbSpline
210
0
220
0
230
1
 70
8
 71
1
 72
4
 73
2
 74
0
 40
0
 40
0
 40
7.24431
 40
7.24431
 10
-3.67525
 20
-16.009
 30
0
 10
-3.54825
 20
-17.152
 30
0
  0
SPLINE
  5
AB5
330
A02
100
AcDbEntity
  8
Shape2DView027
100
AcDbSpline
210
0
220
0
230
1
 70
8
 71
2
 72
6
 73
3
 74
0
 40
0
 40
0
 40
0
 40
1
 40
1
 40
1
 10
-3.54825
 20
-17.152
 30
0
 10
-2.63941
 20
-17.3663
 30
0
 10
-1.70675
 20
-17.4854
 30
0
  0
SPLINE
  5
AB6
330
A02
100
AcDbEntity
  8
Shape2DView027
100
AcDbSpline
210
0
220
0
230
1
 70
8
 71
3
 72
8
 73
4
 74
0
 40
0
 40
0
 40
0
 40
0
 40
1
 40
1
 40
1
 40
1
 10
-1.70675
 20
-17.4854
 30
0
 10
-1.72263
 20
-17.4377
 30
0
 10
-1.83375
 20
-16.7234
 30
0
 10
-1.8655
 20
-16.5964
 30
0
  0
SPLINE
  5
AB7
330
A02
100
AcDbEntity
  8
Shape2DView027
100
AcDbSpline
210
0
220
0
230
1
 70
8
 71
3
 72
8
 73
4
 74
0
 40
0
 40
0
 40
0
 40
0
 40
1
 40
1
 40
1
 40
1
 10
-1.8655
 20
-16.5964
 30
0
 10
-1.88138
 20
-16.4694
 30
0
 10
-1.8655
 20
-16.263
 30
0
 10
-1.59563
 20
-16.1836
 30
0
  0
SPLINE
  5
AB8
330
A02
100
AcDbEntity
  8
Shape2DView027
100
AcDbSpline
210
0
220
0
230
1
 70
8
 71
1
 72
4
 73
2
 74
0
 40
0
 40
0
 40
11.0653
 40
11.0653
 10
-1.59563
 20
-16.1836
 30
0
 10
-1.40513
 20
-14.4374
 30
0
  0
SPLINE
  5
AB9
330
A02
100
AcDbEntity
  8
Shape2DView027
100
AcDbSpline
210
0
220
0
230
1
 70
8
 71
1
 72
4
 73
2
 74
0
 40
0
 40
0
 40
2.5
 40
2.5
 10
-1.40513
 20
-14.4374
 30
0
 10
-1.00825
 20
-14.4374
 30
0
  0
SPLINE
  5
ABA
330
A02
100
AcDbEntity
  8
Shape2DView027
100
AcDbSpline
210
0
220
0
230
1
 70
8
 71
1
 72
4
 73
2
 74
0
 40
0
 40
0
 40
11.5732
 40
11.5732
 10
-1.00825
 20
-14.4374
 30
0
 10
-1.21463
 20
-16.263
 30
0
  0
SPLINE
  5
ABB
330
A02
100
AcDbEntity
  8
Shape2DView027
100
AcDbSpline
210
0
220
0
230
1
 70
8
 71
3
 72
8
 73
4
 74
0
 40
0
 40
0
 40
0
 40
0
 40
1
 40
1
 40
1
 40
1
 10
-1.21463
 20
-16.263
 30
0
 10
-1.11938
 20
-16.3582
 30
0
 10
-1.08763
 20
-16.4694
 30
0
 10
-1.08763
 20
-16.4694
 30
0
  0
SPLINE
  5
ABC
330
A02
100
AcDbEntity
  8
Shape2DView027
100
AcDbSpline
210
0
220
0
230
1
 70
8
 71
1
 72
4
 73
2
 74
0
 40
0
 40
0
 40
7.18401
 40
7.18401
 10
-1.08763
 20
-16.4694
 30
0
 10
-0.770125
 20
-17.5648
 30
0
  0
SPLINE
  5
ABD
330
A02
100
AcDbEntity
  8
Shape2DView027
100
AcDbSpline
210
0
220
0
230
1
 70
8
 71
3
 72
8
 73
4
 74
0
 40
0
 40
0
 40
0
 40
0
 40
1
 40
1
 40
1
 40
1
 10
-0.770125
 20
-17.5648
 30
0
 10
-0.43675
 20
-17.5806
 30
0
 10
-0.11925
 20
-17.5965
 30
0
 10
0.214125
 20
-17.5965
 30
0
  0
SPLINE
  5
ABE
330
A02
100
AcDbEntity
  8
Shape2DView027
100
AcDbSpline
210
0
220
0
230
1
 70
8
 71
3
 72
8
 73
4
 74
0
 40
0
 40
0
 40
0
 40
0
 40
1
 40
1
 40
1
 40
1
 10
0.214125
 20
-17.5965
 30
0
 10
0.51575
 20
-17.5965
 30
0
 10
0.8015
 20
-17.5806
 30
0
 10
1.10312
 20
-17.5648
 30
0
  0
SPLINE
  5
ABF
330
A02
100
AcDbEntity
  8
Shape2DView027
100
AcDbSpline
210
0
220
0
230
1
 70
8
 71
3
 72
8
 73
4
 74
0
 40
0
 40
0
 40
0
 40
0
 40
1
 40
1
 40
1
 40
1
 10
1.10312
 20
-17.5648
 30
0
 10
1.08725
 20
-17.5012
 30
0
 10
0.83325
 20
-16.8345
 30
0
 10
0.8015
 20
-16.7234
 30
0
  0
SPLINE
  5
AC0
330
A02
100
AcDbEntity
  8
Shape2DView027
100
AcDbSpline
210
0
220
0
230
1
 70
8
 71
3
 72
8
 73
4
 74
0
 40
0
 40
0
 40
0
 40
0
 40
1
 40
1
 40
1
 40
1
 10
0.8015
 20
-16.7234
 30
0
 10
0.753875
 20
-16.5964
 30
0
 10
0.738
 20
-16.3582
 30
0
 10
1.07137
 20
-16.2312
 30
0
  0
SPLINE
  5
AC1
330
A02
100
AcDbEntity
  8
Shape2DView027
100
AcDbSpline
210
0
220
0
230
1
 70
8
 71
3
 72
8
 73
4
 74
0
 40
0
 40
0
 40
0
 40
0
 40
1
 40
1
 40
1
 40
1
 10
1.07137
 20
-16.2312
 30
0
 10
1.40475
 20
-16.1043
 30
0
 10
1.5635
 20
-16.4535
 30
0
 10
1.5635
 20
-16.4535
 30
0
  0
SPLINE
  5
AC2
330
A02
100
AcDbEntity
  8
Shape2DView027
100
AcDbSpline
210
0
220
0
230
1
 70
8
 71
1
 72
4
 73
2
 74
0
 40
0
 40
0
 40
7.15542
 40
7.15542
 10
1.5635
 20
-16.4535
 30
0
 10
2.0715
 20
-17.4695
 30
0
  0
SPLINE
  5
AC3
330
A02
100
AcDbEntity
  8
Shape2DView027
100
AcDbSpline
210
0
220
0
230
1
 70
8
 71
3
 72
8
 73
4
 74
0
 40
0
 40
0
 40
0
 40
0
 40
1
 40
1
 40
1
 40
1
 10
2.0715
 20
-17.4695
 30
0
 10
2.7065
 20
-17.406
 30
0
 10
3.30975
 20
-17.2949
 30
0
 10
3.92887
 20
-17.152
 30
0
  0
SPLINE
  5
AC4
330
A02
100
AcDbEntity
  8
Shape2DView027
100
AcDbSpline
210
0
220
0
230
1
 70
8
 71
3
 72
8
 73
4
 74
0
 40
0
 40
0
 40
0
 40
0
 40
1
 40
1
 40
1
 40
1
 10
3.92887
 20
-17.152
 30
0
 10
3.92887
 20
-17.1361
 30
0
 10
3.54787
 20
-16.4853
 30
0
 10
3.48437
 20
-16.3741
 30
0
  0
SPLINE
  5
AC5
330
A02
100
AcDbEntity
  8
Shape2DView027
100
AcDbSpline
210
0
220
0
230
1
 70
8
 71
3
 72
8
 73
4
 74
0
 40
0
 40
0
 40
0
 40
0
 40
1
 40
1
 40
1
 40
1
 10
3.48437
 20
-16.3741
 30
0
 10
3.42087
 20
-16.263
 30
0
 10
3.35737
 20
-16.0249
 30
0
 10
3.659
 20
-15.8503
 30
0
  0
SPLINE
  5
AC6
330
A02
100
AcDbEntity
  8
Shape2DView027
100
AcDbSpline
210
0
220
0
230
1
 70
8
 71
3
 72
8
 73
4
 74
0
 40
0
 40
0
 40
0
 40
0
 40
1
 40
1
 40
1
 40
1
 10
3.659
 20
-15.8503
 30
0
 10
3.96062
 20
-15.6756
 30
0
 10
4.18287
 20
-15.9931
 30
0
 10
4.18287
 20
-15.9931
 30
0
  0
SPLINE
  5
AC7
330
A02
100
AcDbEntity
  8
Shape2DView027
100
AcDbSpline
210
0
220
0
230
1
 70
8
 71
1
 72
4
 73
2
 74
0
 40
0
 40
0
 40
7.22011
 40
7.22011
 10
4.18287
 20
-15.9931
 30
0
 10
4.8655
 20
-16.9139
 30
0
  0
SPLINE
  5
AC8
330
A02
100
AcDbEntity
  8
Shape2DView027
100
AcDbSpline
210
0
220
0
230
1
 70
8
 71
3
 72
8
 73
4
 74
0
 40
0
 40
0
 40
0
 40
0
 40
1
 40
1
 40
1
 40
1
 10
4.8655
 20
-16.9139
 30
0
 10
5.46875
 20
-16.7392
 30
0
 10
6.05612
 20
-16.517
 30
0
 10
6.62762
 20
-16.2789
 30
0
  0
SPLINE
  5
AC9
330
A02
100
AcDbEntity
  8
Shape2DView027
100
AcDbSpline
210
0
220
0
230
1
 70
8
 71
3
 72
8
 73
4
 74
0
 40
0
 40
0
 40
0
 40
0
 40
1
 40
1
 40
1
 40
1
 10
6.62762
 20
-16.2789
 30
0
 10
6.62762
 20
-16.2789
 30
0
 10
6.1355
 20
-15.6915
 30
0
 10
6.05612
 20
-15.5804
 30
0
  0
SPLINE
  5
ACA
330
A02
100
AcDbEntity
  8
Shape2DView027
100
AcDbSpline
210
0
220
0
230
1
 70
8
 71
3
 72
8
 73
4
 74
0
 40
0
 40
0
 40
0
 40
0
 40
1
 40
1
 40
1
 40
1
 10
6.05612
 20
-15.5804
 30
0
 10
5.97675
 20
-15.4851
 30
0
 10
5.86562
 20
-15.2629
 30
0
 10
6.1355
 20
-15.0247
 30
0
  0
SPLINE
  5
ACB
330
A02
100
AcDbEntity
  8
Shape2DView027
100
AcDbSpline
210
0
220
0
230
1
 70
8
 71
3
 72
8
 73
4
 74
0
 40
0
 40
0
 40
0
 40
0
 40
1
 40
1
 40
1
 40
1
 10
6.1355
 20
-15.0247
 30
0
 10
6.40537
 20
-14.8025
 30
0
 10
6.67525
 20
-15.0724
 30
0
 10
6.67525
 20
-15.0724
 30
0
  0
SPLINE
  5
ACC
330
A02
100
AcDbEntity
  8
Shape2DView027
100
AcDbSpline
210
0
220
0
230
1
 70
8
 71
1
 72
4
 73
2
 74
0
 40
0
 40
0
 40
7.21388
 40
7.21388
 10
6.67525
 20
-15.0724
 30
0
 10
7.50075
 20
-15.8661
 30
0
  0
SPLINE
  5
ACD
330
A02
100
AcDbEntity
  8
Shape2DView027
100
AcDbSpline
210
0
220
0
230
1
 70
8
 71
3
 72
8
 73
4
 74
0
 40
0
 40
0
 40
0
 40
0
 40
1
 40
1
 40
1
 40
1
 10
7.50075
 20
-15.8661
 30
0
 10
8.05637
 20
-15.5804
 30
0
 10
8.612
 20
-15.2788
 30
0
 10
9.13587
 20
-14.9295
 30
0
  0
SPLINE
  5
ACE
330
A02
100
AcDbEntity
  8
Shape2DView027
100
AcDbSpline
210
0
220
0
230
1
 70
8
 71
3
 72
8
 73
4
 74
0
 40
0
 40
0
 40
0
 40
0
 40
1
 40
1
 40
1
 40
1
 10
9.13587
 20
-14.9295
 30
0
 10
9.12
 20
-14.9136
 30
0
 10
8.69137
 20
-14.5485
 30
0
 10
8.51675
 20
-14.4056
 30
0
  0
SPLINE
  5
ACF
330
A02
100
AcDbEntity
  8
Shape2DView027
100
AcDbSpline
210
0
220
0
230
1
 70
8
 71
1
 72
4
 73
2
 74
0
 40
0
 40
0
 40
52.3
 40
52.3
 10
8.51675
 20
-14.4056
 30
0
 10
16.8194
 20
-14.4056
 30
0
  0
SPLINE
  5
AD0
330
A02
100
AcDbEntity
  8
Shape2DView027
100
AcDbSpline
210
0
220
0
230
1
 70
8
 71
3
 72
8
 73
4
 74
0
 40
0
 40
0
 40
0
 40
0
 40
1
 40
1
 40
1
 40
1
 10
16.8194
 20
-14.4056
 30
0
 10
20.0579
 20
-14.4374
 30
0
 10
21.2802
 20
-12.2149
 30
0
 10
19.5499
 20
-9.50025
 30
0
  0
ARC
  5
AD1
330
A02
100
AcDbEntity
  8
Shape2DView027
100
AcDbCircle
 10
-10.1
 20
41.6624
 30
0
 40
0.2
100
AcDbArc
 50
1.22133e-11
 51
180
  0
LINE
  5
AD2
330
A02
100
AcDbEntity
  8
Shape2DView027
100
AcDbLine
 10
-9.9
 20
29.9624
 30
0
 11
-9.9
 21
41.6624
 31
0
  0
LINE
  5
AD3
330
A02
100
AcDbEntity
  8
Shape2DView027
100
AcDbLine
 10
-10.3
 20
41.6624
 30
0
 11
-10.3
 21
29.9624
 31
0
  0
ARC
  5
AD4
330
A02
100
AcDbEntity
  8
Shape2DView027
100
AcDbCircle
 10
-10.1
 20
29.9624
 30
0
 40
0.2
100
AcDbArc
 50
180
 51
0
  0
LINE
  5
AD5
330
A02
100
AcDbEntity
  8
Shape2DView027
100
AcDbLine
 10
7.3
 20
37.7624
 30
0
 11
-7.3
 21
37.7624
 31
0
  0
LINE
  5
AD6
330
A02
100
AcDbEntity
  8
Shape2DView027
100
AcDbLine
 10
7.3
 20
41.6624
 30
0
 11
7.3
 21
37.7624
 31
0
  0
LINE
  5
AD7
330
A02
100
AcDbEntity
  8
Shape2DView027
100
AcDbLine
 10
-7.3
 20
37.7624
 30
0
 11
-7.3
 21
41.6624
 31
0
  0
ARC
  5
AD8
330
A02
100
AcDbEntity
  8
Shape2DView027
100
AcDbCircle
 10
7.5
 20
41.6624
 30
0
 40
0.2
100
AcDbArc
 50
0
 51
180
  0
ARC
  5
AD9
330
A02
100
AcDbEntity
  8
Shape2DView027
100
AcDbCircle
 10
-7.5
 20
41.6624
 30
0
 40
0.2
100
AcDbArc
 50
0
 51
180
  0
LINE
  5
ADA
330
A02
100
AcDbEntity
  8
Shape2DView027
100
AcDbLine
 10
7.7
 20
29.9624
 30
0
 11
7.7
 21
41.6624
 31
0
  0
LINE
  5
ADB
330
A02
100
AcDbEntity
  8
Shape2DView027
100
AcDbLine
 10
-7.7
 20
41.6624
 30
0
 11
-7.7
 21
29.9624
 31
0
  0
ARC
  5
ADC
330
A02
100
AcDbEntity
  8
Shape2DView027
100
AcDbCircle
 10
7.5
 20
29.9624
 30
0
 40
0.2
100
AcDbArc
 50
180
 51
0
  0
ARC
  5
ADD
330
A02
100
AcDbEntity
  8
Shape2DView027
100
AcDbCircle
 10
-7.5
 20
29.9624
 30
0
 40
0.2
100
AcDbArc
 50
180
 51
0
  0
LINE
  5
ADE
330
A02
100
AcDbEntity
  8
Shape2DView027
100
AcDbLine
 10
7.3
 20
35.1624
 30
0
 11
7.3
 21
29.9624
 31
0
  0
LINE
  5
ADF
330
A02
100
AcDbEntity
  8
Shape2DView027
100
AcDbLine
 10
-7.3
 20
29.9624
 30
0
 11
-7.3
 21
35.1624
 31
0
  0
LINE
  5
AE0
330
A02
100
AcDbEntity
  8
Shape2DView027
100
AcDbLine
 10
-7.3
 20
35.1624
 30
0
 11
7.3
 21
35.1624
 31
0
  0
ARC
  5
AE1
330
A02
100
AcDbEntity
  8
Shape2DView027
100
AcDbCircle
 10
41.6624
 20
10.1
 30
0
 40
0.2
100
AcDbArc
 50
-90
 51
90
  0
LINE
  5
AE2
330
A02
100
AcDbEntity
  8
Shape2DView027
100
AcDbLine
 10
29.9624
 20
9.9
 30
0
 11
41.6624
 21
9.9
 31
0
  0
LINE
  5
AE3
330
A02
100
AcDbEntity
  8
Shape2DView027
100
AcDbLine
 10
41.6624
 20
10.3
 30
0
 11
29.9624
 21
10.3
 31
0
  0
ARC
  5
AE4
330
A02
100
AcDbEntity
  8
Shape2DView027
100
AcDbCircle
 10
29.9624
 20
10.1
 30
0
 40
0.2
100
AcDbArc
 50
90
 51
-90
  0
ARC
  5
AE5
330
A02
100
AcDbEntity
  8
Shape2DView027
100
AcDbCircle
 10
10.1
 20
41.6624
 30
0
 40
0.2
100
AcDbArc
 50
2.03555e-12
 51
180
  0
LINE
  5
AE6
330
A02
100
AcDbEntity
  8
Shape2DView027
100
AcDbLine
 10
10.3
 20
29.9624
 30
0
 11
10.3
 21
41.6624
 31
0
  0
LINE
  5
AE7
330
A02
100
AcDbEntity
  8
Shape2DView027
100
AcDbLine
 10
9.9
 20
41.6624
 30
0
 11
9.9
 21
29.9624
 31
0
  0
ARC
  5
AE8
330
A02
100
AcDbEntity
  8
Shape2DView027
100
AcDbCircle
 10
10.1
 20
29.9624
 30
0
 40
0.2
100
AcDbArc
 50
180
 51
0
  0
SPLINE
  5
AE9
330
A02
100
AcDbEntity
  8
Shape2DView027
100
AcDbSpline
210
0
220
0
230
1
 70
8
 71
1
 72
4
 73
2
 74
0
 40
0
 40
0
 40
212.9
 40
212.9
 10
16.8988
 20
-12.5641
 30
0
 10
-16.8991
 20
-12.5641
 30
0
  0
SPLINE
  5
AEA
330
A02
100
AcDbEntity
  8
Shape2DView027
100
AcDbSpline
210
0
220
0
230
1
 70
8
 71
3
 72
8
 73
4
 74
0
 40
0
 40
0
 40
0
 40
0
 40
1
 40
1
 40
1
 40
1
 10
-16.8991
 20
-12.5641
 30
0
 10
-18.2802
 20
-12.5641
 30
0
 10
-18.8041
 20
-11.6116
 30
0
 10
-18.058
 20
-10.4527
 30
0
  0
SPLINE
  5
AEB
330
A02
100
AcDbEntity
  8
Shape2DView027
100
AcDbSpline
210
0
220
0
230
1
 70
8
 71
1
 72
4
 73
2
 74
0
 40
0
 40
0
 40
194.757
 40
194.757
 10
-18.058
 20
-10.4527
 30
0
 10
-1.3575
 20
15.5664
 30
0
  0
SPLINE
  5
AEC
330
A02
100
AcDbEntity
  8
Shape2DView027
100
AcDbSpline
210
0
220
0
230
1
 70
8
 71
3
 72
8
 73
4
 74
0
 40
0
 40
0
 40
0
 40
0
 40
1
 40
1
 40
1
 40
1
 10
-1.3575
 20
15.5664
 30
0
 10
-0.611375
 20
16.7252
 30
0
 10
0.611
 20
16.7253
 30
0
 10
1.35712
 20
15.5664
 30
0
  0
SPLINE
  5
AED
330
A02
100
AcDbEntity
  8
Shape2DView027
100
AcDbSpline
210
0
220
0
230
1
 70
8
 71
1
 72
4
 73
2
 74
0
 40
0
 40
0
 40
194.757
 40
194.757
 10
1.35712
 20
15.5664
 30
0
 10
18.0576
 20
-10.4527
 30
0
  0
SPLINE
  5
AEE
330
A02
100
AcDbEntity
  8
Shape2DView027
100
AcDbSpline
210
0
220
0
230
1
 70
8
 71
3
 72
8
 73
4
 74
0
 40
0
 40
0
 40
0
 40
0
 40
1
 40
1
 40
1
 40
1
 10
18.0576
 20
-10.4527
 30
0
 10
18.8037
 20
-11.6116
 30
0
 10
18.2799
 20
-12.5641
 30
0
 10
16.8987
 20
-12.5641
 30
0
  0
SPLINE
  5
AEF
330
A02
100
AcDbEntity
  8
Shape2DView027
100
AcDbSpline
210
0
220
0
230
1
 70
8
 71
3
 72
8
 73
4
 74
0
 40
0
 40
0
 40
0
 40
0
 40
1
 40
1
 40
1
 40
1
 10
-3.56413
 20
-4.72187
 30
0
 10
-3.56412
 20
-4.6425
 30
0
 10
-3.72288
 20
-4.59488
 30
0
 10
-3.961
 20
-4.56312
 30
0
  0
SPLINE
  5
AF0
330
A02
100
AcDbEntity
  8
Shape2DView027
100
AcDbSpline
210
0
220
0
230
1
 70
8
 71
3
 72
8
 73
4
 74
0
 40
0
 40
0
 40
0
 40
0
 40
1
 40
1
 40
1
 40
1
 10
-3.961
 20
-4.56312
 30
0
 10
-3.99275
 20
-4.56312
 30
0
 10
-4.11975
 20
-4.54725
 30
0
 10
-4.16737
 20
-4.54725
 30
0
  0
SPLINE
  5
AF1
330
A02
100
AcDbEntity
  8
Shape2DView027
100
AcDbSpline
210
0
220
0
230
1
 70
8
 71
1
 72
4
 73
2
 74
0
 40
0
 40
0
 40
46.9
 40
46.9
 10
-4.16737
 20
-4.54725
 30
0
 10
-4.16737
 20
2.89813
 30
0
  0
SPLINE
  5
AF2
330
A02
100
AcDbEntity
  8
Shape2DView027
100
AcDbSpline
210
0
220
0
230
1
 70
8
 71
3
 72
8
 73
4
 74
0
 40
0
 40
0
 40
0
 40
0
 40
1
 40
1
 40
1
 40
1
 10
-4.16737
 20
2.89813
 30
0
 10
-4.16737
 20
2.89812
 30
0
 10
-4.07213
 20
3.13625
 30
0
 10
-4.07212
 20
3.13625
 30
0
  0
SPLINE
  5
AF3
330
A02
100
AcDbEntity
  8
Shape2DView027
100
AcDbSpline
210
0
220
0
230
1
 70
8
 71
1
 72
4
 73
2
 74
0
 40
0
 40
0
 40
4.85077
 40
4.85077
 10
-4.07212
 20
3.13625
 30
0
 10
-4.18325
 20
3.89825
 30
0
  0
SPLINE
  5
AF4
330
A02
100
AcDbEntity
  8
Shape2DView027
100
AcDbSpline
210
0
220
0
230
1
 70
8
 71
1
 72
4
 73
2
 74
0
 40
0
 40
0
 40
1.8
 40
1.8
 10
-4.18325
 20
3.89825
 30
0
 10
-4.469
 20
3.89825
 30
0
  0
SPLINE
  5
AF5
330
A02
100
AcDbEntity
  8
Shape2DView027
100
AcDbSpline
210
0
220
0
230
1
 70
8
 71
1
 72
4
 73
2
 74
0
 40
0
 40
0
 40
4.85077
 40
4.85077
 10
-4.469
 20
3.89825
 30
0
 10
-4.58013
 20
3.13625
 30
0
  0
SPLINE
  5
AF6
330
A02
100
AcDbEntity
  8
Shape2DView027
100
AcDbSpline
210
0
220
0
230
1
 70
8
 71
3
 72
8
 73
4
 74
0
 40
0
 40
0
 40
0
 40
0
 40
1
 40
1
 40
1
 40
1
 10
-4.58013
 20
3.13625
 30
0
 10
-4.58013
 20
3.13625
 30
0
 10
-4.45312
 20
2.914
 30
0
 10
-4.45313
 20
2.914
 30
0
  0
SPLINE
  5
AF7
330
A02
100
AcDbEntity
  8
Shape2DView027
100
AcDbSpline
210
0
220
0
230
1
 70
8
 71
1
 72
4
 73
2
 74
0
 40
0
 40
0
 40
46.9
 40
46.9
 10
-4.45313
 20
2.914
 30
0
 10
-4.45313
 20
-4.53138
 30
0
  0
SPLINE
  5
AF8
330
A02
100
AcDbEntity
  8
Shape2DView027
100
AcDbSpline
210
0
220
0
230
1
 70
8
 71
3
 72
8
 73
4
 74
0
 40
0
 40
0
 40
0
 40
0
 40
1
 40
1
 40
1
 40
1
 10
-4.45313
 20
-4.53138
 30
0
 10
-4.48487
 20
-4.53137
 30
0
 10
-4.45313
 20
-4.53138
 30
0
 10
-4.50075
 20
-4.53138
 30
0
  0
SPLINE
  5
AF9
330
A02
100
AcDbEntity
  8
Shape2DView027
100
AcDbSpline
210
0
220
0
230
1
 70
8
 71
3
 72
8
 73
4
 74
0
 40
0
 40
0
 40
0
 40
0
 40
1
 40
1
 40
1
 40
1
 10
-4.50075
 20
-4.53138
 30
0
 10
-4.73887
 20
-4.54725
 30
0
 10
-4.89763
 20
-4.59488
 30
0
 10
-4.89763
 20
-4.65837
 30
0
  0
SPLINE
  5
AFA
330
A02
100
AcDbEntity
  8
Shape2DView027
100
AcDbSpline
210
0
220
0
230
1
 70
8
 71
3
 72
8
 73
4
 74
0
 40
0
 40
0
 40
0
 40
0
 40
1
 40
1
 40
1
 40
1
 10
-4.89763
 20
-4.65837
 30
0
 10
-4.89763
 20
-4.65837
 30
0
 10
-4.89763
 20
-4.67425
 30
0
 10
-4.89763
 20
-4.67425
 30
0
  0
SPLINE
  5
AFB
330
A02
100
AcDbEntity
  8
Shape2DView027
100
AcDbSpline
210
0
220
0
230
1
 70
8
 71
3
 72
8
 73
4
 74
0
 40
0
 40
0
 40
0
 40
0
 40
1
 40
1
 40
1
 40
1
 10
-4.89763
 20
-4.67425
 30
0
 10
-4.89762
 20
-4.706
 30
0
 10
-4.88175
 20
-4.72187
 30
0
 10
-4.83413
 20
-4.75362
 30
0
  0
SPLINE
  5
AFC
330
A02
100
AcDbEntity
  8
Shape2DView027
100
AcDbSpline
210
0
220
0
230
1
 70
8
 71
3
 72
8
 73
4
 74
0
 40
0
 40
0
 40
0
 40
0
 40
1
 40
1
 40
1
 40
1
 10
-4.83413
 20
-4.75362
 30
0
 10
-4.77062
 20
-4.833
 30
0
 10
-4.69125
 20
-4.96
 30
0
 10
-4.69125
 20
-5.10288
 30
0
  0
SPLINE
  5
AFD
330
A02
100
AcDbEntity
  8
Shape2DView027
100
AcDbSpline
210
0
220
0
230
1
 70
8
 71
3
 72
8
 73
4
 74
0
 40
0
 40
0
 40
0
 40
0
 40
1
 40
1
 40
1
 40
1
 10
-4.69125
 20
-5.10288
 30
0
 10
-4.723
 20
-5.16637
 30
0
 10
-4.75475
 20
-5.26162
 30
0
 10
-4.77063
 20
-5.341
 30
0
  0
SPLINE
  5
AFE
330
A02
100
AcDbEntity
  8
Shape2DView027
100
AcDbSpline
210
0
220
0
230
1
 70
8
 71
3
 72
8
 73
4
 74
0
 40
0
 40
0
 40
0
 40
0
 40
1
 40
1
 40
1
 40
1
 10
-4.77063
 20
-5.341
 30
0
 10
-4.85
 20
-6.34112
 30
0
 10
-4.94525
 20
-8.40487
 30
0
 10
-5.02463
 20
-9.38912
 30
0
  0
SPLINE
  5
AFF
330
A02
100
AcDbEntity
  8
Shape2DView027
100
AcDbSpline
210
0
220
0
230
1
 70
8
 71
3
 72
8
 73
4
 74
0
 40
0
 40
0
 40
0
 40
0
 40
1
 40
1
 40
1
 40
1
 10
-5.02463
 20
-9.38912
 30
0
 10
-5.05637
 20
-9.64312
 30
0
 10
-4.89763
 20
-10.2146
 30
0
 10
-4.50075
 20
-10.294
 30
0
  0
SPLINE
  5
B00
330
A02
100
AcDbEntity
  8
Shape2DView027
100
AcDbSpline
210
0
220
0
230
1
 70
8
 71
3
 72
8
 73
4
 74
0
 40
0
 40
0
 40
0
 40
0
 40
1
 40
1
 40
1
 40
1
 10
-4.50075
 20
-10.294
 30
0
 10
-4.43725
 20
-10.3099
 30
0
 10
-4.37375
 20
-10.3099
 30
0
 10
-4.29437
 20
-10.3099
 30
0
  0
SPLINE
  5
B01
330
A02
100
AcDbEntity
  8
Shape2DView027
100
AcDbSpline
210
0
220
0
230
1
 70
8
 71
3
 72
8
 73
4
 74
0
 40
0
 40
0
 40
0
 40
0
 40
1
 40
1
 40
1
 40
1
 10
-4.29437
 20
-10.3099
 30
0
 10
-4.23087
 20
-10.3099
 30
0
 10
-4.18325
 20
-10.3099
 30
0
 10
-4.13563
 20
-10.294
 30
0
  0
SPLINE
  5
B02
330
A02
100
AcDbEntity
  8
Shape2DView027
100
AcDbSpline
210
0
220
0
230
1
 70
8
 71
3
 72
8
 73
4
 74
0
 40
0
 40
0
 40
0
 40
0
 40
1
 40
1
 40
1
 40
1
 10
-4.13563
 20
-10.294
 30
0
 10
-3.73875
 20
-10.2146
 30
0
 10
-3.56413
 20
-9.67487
 30
0
 10
-3.58
 20
-9.405
 30
0
  0
SPLINE
  5
B03
330
A02
100
AcDbEntity
  8
Shape2DView027
100
AcDbSpline
210
0
220
0
230
1
 70
8
 71
3
 72
8
 73
4
 74
0
 40
0
 40
0
 40
0
 40
0
 40
1
 40
1
 40
1
 40
1
 10
-3.58
 20
-9.405
 30
0
 10
-3.62762
 20
-8.40487
 30
0
 10
-3.67525
 20
-6.34112
 30
0
 10
-3.72288
 20
-5.341
 30
0
  0
SPLINE
  5
B04
330
A02
100
AcDbEntity
  8
Shape2DView027
100
AcDbSpline
210
0
220
0
230
1
 70
8
 71
3
 72
8
 73
4
 74
0
 40
0
 40
0
 40
0
 40
0
 40
1
 40
1
 40
1
 40
1
 10
-3.72288
 20
-5.341
 30
0
 10
-3.72288
 20
-5.26162
 30
0
 10
-3.75463
 20
-5.16637
 30
0
 10
-3.78638
 20
-5.10288
 30
0
  0
SPLINE
  5
B05
330
A02
100
AcDbEntity
  8
Shape2DView027
100
AcDbSpline
210
0
220
0
230
1
 70
8
 71
3
 72
8
 73
4
 74
0
 40
0
 40
0
 40
0
 40
0
 40
1
 40
1
 40
1
 40
1
 10
-3.78638
 20
-5.10288
 30
0
 10
-3.78638
 20
-4.96
 30
0
 10
-3.69113
 20
-4.833
 30
0
 10
-3.62763
 20
-4.7695
 30
0
  0
SPLINE
  5
B06
330
A02
100
AcDbEntity
  8
Shape2DView027
100
AcDbSpline
210
0
220
0
230
1
 70
8
 71
2
 72
6
 73
3
 74
0
 40
0
 40
0
 40
0
 40
1
 40
1
 40
1
 10
-3.62763
 20
-4.7695
 30
0
 10
-3.56016
 20
-4.7695
 30
0
 10
-3.56413
 20
-4.72187
 30
0
  0
SPLINE
  5
B07
330
A02
100
AcDbEntity
  8
Shape2DView027
100
AcDbSpline
210
0
220
0
230
1
 70
8
 71
1
 72
4
 73
2
 74
0
 40
0
 40
0
 40
0.282843
 40
0.282843
 10
-0.88125
 20
-3.45187
 30
0
 10
-0.913
 20
-3.48362
 30
0
  0
SPLINE
  5
B08
330
A02
100
AcDbEntity
  8
Shape2DView027
100
AcDbSpline
210
0
220
0
230
1
 70
8
 71
1
 72
4
 73
2
 74
0
 40
0
 40
0
 40
0.141421
 40
0.141421
 10
-0.913
 20
-3.48362
 30
0
 10
-0.928875
 20
-3.4995
 30
0
  0
SPLINE
  5
B09
330
A02
100
AcDbEntity
  8
Shape2DView027
100
AcDbSpline
210
0
220
0
230
1
 70
8
 71
1
 72
4
 73
2
 74
0
 40
0
 40
0
 40
0.141421
 40
0.141421
 10
-0.928875
 20
-3.4995
 30
0
 10
-0.94475
 20
-3.51537
 30
0
  0
SPLINE
  5
B0A
330
A02
100
AcDbEntity
  8
Shape2DView027
100
AcDbSpline
210
0
220
0
230
1
 70
8
 71
1
 72
4
 73
2
 74
0
 40
0
 40
0
 40
0.1
 40
0.1
 10
-0.94475
 20
-3.51537
 30
0
 10
-0.960625
 20
-3.51537
 30
0
  0
SPLINE
  5
B0B
330
A02
100
AcDbEntity
  8
Shape2DView027
100
AcDbSpline
210
0
220
0
230
1
 70
8
 71
1
 72
4
 73
2
 74
0
 40
0
 40
0
 40
0.141421
 40
0.141421
 10
-0.960625
 20
-3.51537
 30
0
 10
-0.9765
 20
-3.53125
 30
0
  0
SPLINE
  5
B0C
330
A02
100
AcDbEntity
  8
Shape2DView027
100
AcDbSpline
210
0
220
0
230
1
 70
8
 71
1
 72
4
 73
2
 74
0
 40
0
 40
0
 40
0.1
 40
0.1
 10
-0.9765
 20
-3.53125
 30
0
 10
-0.992375
 20
-3.53125
 30
0
  0
SPLINE
  5
B0D
330
A02
100
AcDbEntity
  8
Shape2DView027
100
AcDbSpline
210
0
220
0
230
1
 70
8
 71
1
 72
4
 73
2
 74
0
 40
0
 40
0
 40
0.141421
 40
0.141421
 10
-0.992375
 20
-3.53125
 30
0
 10
-1.00825
 20
-3.54712
 30
0
  0
SPLINE
  5
B0E
330
A02
100
AcDbEntity
  8
Shape2DView027
100
AcDbSpline
210
0
220
0
230
1
 70
8
 71
1
 72
4
 73
2
 74
0
 40
0
 40
0
 40
0.141421
 40
0.141421
 10
-1.00825
 20
-3.54712
 30
0
 10
-1.02412
 20
-3.563
 30
0
  0
SPLINE
  5
B0F
330
A02
100
AcDbEntity
  8
Shape2DView027
100
AcDbSpline
210
0
220
0
230
1
 70
8
 71
1
 72
4
 73
2
 74
0
 40
0
 40
0
 40
0.223607
 40
0.223607
 10
-1.02412
 20
-3.563
 30
0
 10
-1.05587
 20
-3.57887
 30
0
  0
SPLINE
  5
B10
330
A02
100
AcDbEntity
  8
Shape2DView027
100
AcDbSpline
210
0
220
0
230
1
 70
8
 71
1
 72
4
 73
2
 74
0
 40
0
 40
0
 40
0.223607
 40
0.223607
 10
-1.05587
 20
-3.57887
 30
0
 10
-1.08762
 20
-3.59475
 30
0
  0
SPLINE
  5
B11
330
A02
100
AcDbEntity
  8
Shape2DView027
100
AcDbSpline
210
0
220
0
230
1
 70
8
 71
1
 72
4
 73
2
 74
0
 40
0
 40
0
 40
0.5
 40
0.5
 10
-1.08762
 20
-3.59475
 30
0
 10
-1.13525
 20
-3.65825
 30
0
  0
SPLINE
  5
B12
330
A02
100
AcDbEntity
  8
Shape2DView027
100
AcDbSpline
210
0
220
0
230
1
 70
8
 71
1
 72
4
 73
2
 74
0
 40
0
 40
0
 40
0.141421
 40
0.141421
 10
-1.13525
 20
-3.65825
 30
0
 10
-1.15113
 20
-3.67413
 30
0
  0
SPLINE
  5
B13
330
A02
100
AcDbEntity
  8
Shape2DView027
100
AcDbSpline
210
0
220
0
230
1
 70
8
 71
1
 72
4
 73
2
 74
0
 40
0
 40
0
 40
0.223607
 40
0.223607
 10
-1.15113
 20
-3.67413
 30
0
 10
-1.18287
 20
-3.69
 30
0
  0
SPLINE
  5
B14
330
A02
100
AcDbEntity
  8
Shape2DView027
100
AcDbSpline
210
0
220
0
230
1
 70
8
 71
1
 72
4
 73
2
 74
0
 40
0
 40
0
 40
0.141421
 40
0.141421
 10
-1.18287
 20
-3.69
 30
0
 10
-1.19875
 20
-3.70587
 30
0
  0
SPLINE
  5
B15
330
A02
100
AcDbEntity
  8
Shape2DView027
100
AcDbSpline
210
0
220
0
230
1
 70
8
 71
1
 72
4
 73
2
 74
0
 40
0
 40
0
 40
0.223607
 40
0.223607
 10
-1.19875
 20
-3.70587
 30
0
 10
-1.2305
 20
-3.72175
 30
0
  0
SPLINE
  5
B16
330
A02
100
AcDbEntity
  8
Shape2DView027
100
AcDbSpline
210
0
220
0
230
1
 70
8
 71
1
 72
4
 73
2
 74
0
 40
0
 40
0
 40
0.223607
 40
0.223607
 10
-1.2305
 20
-3.72175
 30
0
 10
-1.26225
 20
-3.73762
 30
0
  0
SPLINE
  5
B17
330
A02
100
AcDbEntity
  8
Shape2DView027
100
AcDbSpline
210
0
220
0
230
1
 70
8
 71
1
 72
4
 73
2
 74
0
 40
0
 40
0
 40
0.141421
 40
0.141421
 10
-1.26225
 20
-3.73762
 30
0
 10
-1.27812
 20
-3.7535
 30
0
  0
SPLINE
  5
B18
330
A02
100
AcDbEntity
  8
Shape2DView027
100
AcDbSpline
210
0
220
0
230
1
 70
8
 71
1
 72
4
 73
2
 74
0
 40
0
 40
0
 40
0.1
 40
0.1
 10
-1.27812
 20
-3.7535
 30
0
 10
-1.294
 20
-3.7535
 30
0
  0
SPLINE
  5
B19
330
A02
100
AcDbEntity
  8
Shape2DView027
100
AcDbSpline
210
0
220
0
230
1
 70
8
 71
1
 72
4
 73
2
 74
0
 40
0
 40
0
 40
0.1
 40
0.1
 10
-1.294
 20
-3.7535
 30
0
 10
-1.30987
 20
-3.7535
 30
0
  0
SPLINE
  5
B1A
330
A02
100
AcDbEntity
  8
Shape2DView027
100
AcDbSpline
210
0
220
0
230
1
 70
8
 71
1
 72
4
 73
2
 74
0
 40
0
 40
0
 40
2.30868
 40
2.30868
 10
-1.30987
 20
-3.7535
 30
0
 10
-1.65912
 20
-3.86462
 30
0
  0
SPLINE
  5
B1B
330
A02
100
AcDbEntity
  8
Shape2DView027
100
AcDbSpline
210
0
220
0
230
1
 70
8
 71
1
 72
4
 73
2
 74
0
 40
0
 40
0
 40
0.2
 40
0.2
 10
-1.65912
 20
-3.86462
 30
0
 10
-1.69087
 20
-3.86462
 30
0
  0
SPLINE
  5
B1C
330
A02
100
AcDbEntity
  8
Shape2DView027
100
AcDbSpline
210
0
220
0
230
1
 70
8
 71
1
 72
4
 73
2
 74
0
 40
0
 40
0
 40
0.223607
 40
0.223607
 10
-1.69087
 20
-3.86462
 30
0
 10
-1.72263
 20
-3.8805
 30
0
  0
SPLINE
  5
B1D
330
A02
100
AcDbEntity
  8
Shape2DView027
100
AcDbSpline
210
0
220
0
230
1
 70
8
 71
1
 72
4
 73
2
 74
0
 40
0
 40
0
 40
0.141421
 40
0.141421
 10
-1.72263
 20
-3.8805
 30
0
 10
-1.7385
 20
-3.89637
 30
0
  0
SPLINE
  5
B1E
330
A02
100
AcDbEntity
  8
Shape2DView027
100
AcDbSpline
210
0
220
0
230
1
 70
8
 71
1
 72
4
 73
2
 74
0
 40
0
 40
0
 40
0.1
 40
0.1
 10
-1.7385
 20
-3.89637
 30
0
 10
-1.75437
 20
-3.89637
 30
0
  0
SPLINE
  5
B1F
330
A02
100
AcDbEntity
  8
Shape2DView027
100
AcDbSpline
210
0
220
0
230
1
 70
8
 71
1
 72
4
 73
2
 74
0
 40
0
 40
0
 40
0.1
 40
0.1
 10
-1.75437
 20
-3.89637
 30
0
 10
-1.77025
 20
-3.89637
 30
0
  0
SPLINE
  5
B20
330
A02
100
AcDbEntity
  8
Shape2DView027
100
AcDbSpline
210
0
220
0
230
1
 70
8
 71
1
 72
4
 73
2
 74
0
 40
0
 40
0
 40
0.1
 40
0.1
 10
-1.77025
 20
-3.89637
 30
0
 10
-1.78612
 20
-3.89637
 30
0
  0
SPLINE
  5
B21
330
A02
100
AcDbEntity
  8
Shape2DView027
100
AcDbSpline
210
0
220
0
230
1
 70
8
 71
1
 72
4
 73
2
 74
0
 40
0
 40
0
 40
0.1
 40
0.1
 10
-1.78612
 20
-3.89637
 30
0
 10
-1.802
 20
-3.89637
 30
0
  0
SPLINE
  5
B22
330
A02
100
AcDbEntity
  8
Shape2DView027
100
AcDbSpline
210
0
220
0
230
1
 70
8
 71
1
 72
4
 73
2
 74
0
 40
0
 40
0
 40
0.1
 40
0.1
 10
-1.802
 20
-3.89637
 30
0
 10
-1.802
 20
-3.91225
 30
0
  0
SPLINE
  5
B23
330
A02
100
AcDbEntity
  8
Shape2DView027
100
AcDbSpline
210
0
220
0
230
1
 70
8
 71
1
 72
4
 73
2
 74
0
 40
0
 40
0
 40
0.1
 40
0.1
 10
-1.802
 20
-3.91225
 30
0
 10
-1.802
 20
-3.92812
 30
0
  0
SPLINE
  5
B24
330
A02
100
AcDbEntity
  8
Shape2DView027
100
AcDbSpline
210
0
220
0
230
1
 70
8
 71
1
 72
4
 73
2
 74
0
 40
0
 40
0
 40
0.141421
 40
0.141421
 10
-1.802
 20
-3.92812
 30
0
 10
-1.81787
 20
-3.944
 30
0
  0
SPLINE
  5
B25
330
A02
100
AcDbEntity
  8
Shape2DView027
100
AcDbSpline
210
0
220
0
230
1
 70
8
 71
1
 72
4
 73
2
 74
0
 40
0
 40
0
 40
0.1
 40
0.1
 10
-1.81787
 20
-3.944
 30
0
 10
-1.81787
 20
-3.95987
 30
0
  0
SPLINE
  5
B26
330
A02
100
AcDbEntity
  8
Shape2DView027
100
AcDbSpline
210
0
220
0
230
1
 70
8
 71
1
 72
4
 73
2
 74
0
 40
0
 40
0
 40
0.1
 40
0.1
 10
-1.81787
 20
-3.95987
 30
0
 10
-1.81787
 20
-3.97575
 30
0
  0
SPLINE
  5
B27
330
A02
100
AcDbEntity
  8
Shape2DView027
100
AcDbSpline
210
0
220
0
230
1
 70
8
 71
1
 72
4
 73
2
 74
0
 40
0
 40
0
 40
0.1
 40
0.1
 10
-1.81787
 20
-3.97575
 30
0
 10
-1.81787
 20
-3.99162
 30
0
  0
SPLINE
  5
B28
330
A02
100
AcDbEntity
  8
Shape2DView027
100
AcDbSpline
210
0
220
0
230
1
 70
8
 71
1
 72
4
 73
2
 74
0
 40
0
 40
0
 40
0.1
 40
0.1
 10
-1.81787
 20
-3.99162
 30
0
 10
-1.81787
 20
-4.0075
 30
0
  0
SPLINE
  5
B29
330
A02
100
AcDbEntity
  8
Shape2DView027
100
AcDbSpline
210
0
220
0
230
1
 70
8
 71
1
 72
4
 73
2
 74
0
 40
0
 40
0
 40
0.1
 40
0.1
 10
-1.81787
 20
-4.0075
 30
0
 10
-1.81787
 20
-4.02337
 30
0
  0
SPLINE
  5
B2A
330
A02
100
AcDbEntity
  8
Shape2DView027
100
AcDbSpline
210
0
220
0
230
1
 70
8
 71
1
 72
4
 73
2
 74
0
 40
0
 40
0
 40
0.2
 40
0.2
 10
-1.81787
 20
-4.02337
 30
0
 10
-1.81787
 20
-4.05512
 30
0
  0
SPLINE
  5
B2B
330
A02
100
AcDbEntity
  8
Shape2DView027
100
AcDbSpline
210
0
220
0
230
1
 70
8
 71
1
 72
4
 73
2
 74
0
 40
0
 40
0
 40
0.223607
 40
0.223607
 10
-1.81787
 20
-4.05512
 30
0
 10
-1.802
 20
-4.08687
 30
0
  0
SPLINE
  5
B2C
330
A02
100
AcDbEntity
  8
Shape2DView027
100
AcDbSpline
210
0
220
0
230
1
 70
8
 71
1
 72
4
 73
2
 74
0
 40
0
 40
0
 40
0.223607
 40
0.223607
 10
-1.802
 20
-4.08687
 30
0
 10
-1.78612
 20
-4.11862
 30
0
  0
SPLINE
  5
B2D
330
A02
100
AcDbEntity
  8
Shape2DView027
100
AcDbSpline
210
0
220
0
230
1
 70
8
 71
1
 72
4
 73
2
 74
0
 40
0
 40
0
 40
0.223607
 40
0.223607
 10
-1.78612
 20
-4.11862
 30
0
 10
-1.77025
 20
-4.15037
 30
0
  0
SPLINE
  5
B2E
330
A02
100
AcDbEntity
  8
Shape2DView027
100
AcDbSpline
210
0
220
0
230
1
 70
8
 71
1
 72
4
 73
2
 74
0
 40
0
 40
0
 40
0.141421
 40
0.141421
 10
-1.77025
 20
-4.15037
 30
0
 10
-1.75437
 20
-4.16625
 30
0
  0
SPLINE
  5
B2F
330
A02
100
AcDbEntity
  8
Shape2DView027
100
AcDbSpline
210
0
220
0
230
1
 70
8
 71
1
 72
4
 73
2
 74
0
 40
0
 40
0
 40
0.141421
 40
0.141421
 10
-1.75437
 20
-4.16625
 30
0
 10
-1.7385
 20
-4.18212
 30
0
  0
SPLINE
  5
B30
330
A02
100
AcDbEntity
  8
Shape2DView027
100
AcDbSpline
210
0
220
0
230
1
 70
8
 71
1
 72
4
 73
2
 74
0
 40
0
 40
0
 40
0.848528
 40
0.848528
 10
-1.7385
 20
-4.18212
 30
0
 10
-1.64325
 20
-4.27737
 30
0
  0
SPLINE
  5
B31
330
A02
100
AcDbEntity
  8
Shape2DView027
100
AcDbSpline
210
0
220
0
230
1
 70
8
 71
1
 72
4
 73
2
 74
0
 40
0
 40
0
 40
0.848528
 40
0.848528
 10
-1.64325
 20
-4.27737
 30
0
 10
-1.548
 20
-4.37262
 30
0
  0
SPLINE
  5
B32
330
A02
100
AcDbEntity
  8
Shape2DView027
100
AcDbSpline
210
0
220
0
230
1
 70
8
 71
1
 72
4
 73
2
 74
0
 40
0
 40
0
 40
0.848528
 40
0.848528
 10
-1.548
 20
-4.37262
 30
0
 10
-1.45275
 20
-4.46787
 30
0
  0
SPLINE
  5
B33
330
A02
100
AcDbEntity
  8
Shape2DView027
100
AcDbSpline
210
0
220
0
230
1
 70
8
 71
1
 72
4
 73
2
 74
0
 40
0
 40
0
 40
0.848528
 40
0.848528
 10
-1.45275
 20
-4.46787
 30
0
 10
-1.3575
 20
-4.56312
 30
0
  0
SPLINE
  5
B34
330
A02
100
AcDbEntity
  8
Shape2DView027
100
AcDbSpline
210
0
220
0
230
1
 70
8
 71
1
 72
4
 73
2
 74
0
 40
0
 40
0
 40
0.848528
 40
0.848528
 10
-1.3575
 20
-4.56312
 30
0
 10
-1.26225
 20
-4.65837
 30
0
  0
SPLINE
  5
B35
330
A02
100
AcDbEntity
  8
Shape2DView027
100
AcDbSpline
210
0
220
0
230
1
 70
8
 71
1
 72
4
 73
2
 74
0
 40
0
 40
0
 40
0.424264
 40
0.424264
 10
-1.26225
 20
-4.65837
 30
0
 10
-1.21463
 20
-4.706
 30
0
  0
SPLINE
  5
B36
330
A02
100
AcDbEntity
  8
Shape2DView027
100
AcDbSpline
210
0
220
0
230
1
 70
8
 71
1
 72
4
 73
2
 74
0
 40
0
 40
0
 40
0.424264
 40
0.424264
 10
-1.21463
 20
-4.706
 30
0
 10
-1.167
 20
-4.75362
 30
0
  0
SPLINE
  5
B37
330
A02
100
AcDbEntity
  8
Shape2DView027
100
AcDbSpline
210
0
220
0
230
1
 70
8
 71
1
 72
4
 73
2
 74
0
 40
0
 40
0
 40
0.921954
 40
0.921954
 10
-1.167
 20
-4.75362
 30
0
 10
-1.05588
 20
-4.84887
 30
0
  0
SPLINE
  5
B38
330
A02
100
AcDbEntity
  8
Shape2DView027
100
AcDbSpline
210
0
220
0
230
1
 70
8
 71
1
 72
4
 73
2
 74
0
 40
0
 40
0
 40
0.921954
 40
0.921954
 10
-1.05588
 20
-4.84887
 30
0
 10
-0.94475
 20
-4.94412
 30
0
  0
SPLINE
  5
B39
330
A02
100
AcDbEntity
  8
Shape2DView027
100
AcDbSpline
210
0
220
0
230
1
 70
8
 71
1
 72
4
 73
2
 74
0
 40
0
 40
0
 40
0.948683
 40
0.948683
 10
-0.94475
 20
-4.94412
 30
0
 10
-0.801875
 20
-4.8965
 30
0
  0
SPLINE
  5
B3A
330
A02
100
AcDbEntity
  8
Shape2DView027
100
AcDbSpline
210
0
220
0
230
1
 70
8
 71
1
 72
4
 73
2
 74
0
 40
0
 40
0
 40
0.583095
 40
0.583095
 10
-0.801875
 20
-4.8965
 30
0
 10
-0.75425
 20
-4.81712
 30
0
  0
SPLINE
  5
B3B
330
A02
100
AcDbEntity
  8
Shape2DView027
100
AcDbSpline
210
0
220
0
230
1
 70
8
 71
1
 72
4
 73
2
 74
0
 40
0
 40
0
 40
0.583095
 40
0.583095
 10
-0.75425
 20
-4.81712
 30
0
 10
-0.706625
 20
-4.73775
 30
0
  0
SPLINE
  5
B3C
330
A02
100
AcDbEntity
  8
Shape2DView027
100
AcDbSpline
210
0
220
0
230
1
 70
8
 71
1
 72
4
 73
2
 74
0
 40
0
 40
0
 40
0.5
 40
0.5
 10
-0.706625
 20
-4.73775
 30
0
 10
-0.659
 20
-4.67425
 30
0
  0
SPLINE
  5
B3D
330
A02
100
AcDbEntity
  8
Shape2DView027
100
AcDbSpline
210
0
220
0
230
1
 70
8
 71
1
 72
4
 73
2
 74
0
 40
0
 40
0
 40
0.5
 40
0.5
 10
-0.659
 20
-4.67425
 30
0
 10
-0.611375
 20
-4.61075
 30
0
  0
SPLINE
  5
B3E
330
A02
100
AcDbEntity
  8
Shape2DView027
100
AcDbSpline
210
0
220
0
230
1
 70
8
 71
1
 72
4
 73
2
 74
0
 40
0
 40
0
 40
0.360555
 40
0.360555
 10
-0.611375
 20
-4.61075
 30
0
 10
-0.579625
 20
-4.56312
 30
0
  0
SPLINE
  5
B3F
330
A02
100
AcDbEntity
  8
Shape2DView027
100
AcDbSpline
210
0
220
0
230
1
 70
8
 71
1
 72
4
 73
2
 74
0
 40
0
 40
0
 40
0.282843
 40
0.282843
 10
-0.579625
 20
-4.56312
 30
0
 10
-0.547875
 20
-4.53137
 30
0
  0
SPLINE
  5
B40
330
A02
100
AcDbEntity
  8
Shape2DView027
100
AcDbSpline
210
0
220
0
230
1
 70
8
 71
1
 72
4
 73
2
 74
0
 40
0
 40
0
 40
0.282843
 40
0.282843
 10
-0.547875
 20
-4.53137
 30
0
 10
-0.516125
 20
-4.49962
 30
0
  0
SPLINE
  5
B41
330
A02
100
AcDbEntity
  8
Shape2DView027
100
AcDbSpline
210
0
220
0
230
1
 70
8
 71
1
 72
4
 73
2
 74
0
 40
0
 40
0
 40
0.282843
 40
0.282843
 10
-0.516125
 20
-4.49962
 30
0
 10
-0.484375
 20
-4.46787
 30
0
  0
SPLINE
  5
B42
330
A02
100
AcDbEntity
  8
Shape2DView027
100
AcDbSpline
210
0
220
0
230
1
 70
8
 71
1
 72
4
 73
2
 74
0
 40
0
 40
0
 40
1.48661
 40
1.48661
 10
-0.484375
 20
-4.46787
 30
0
 10
-0.30975
 20
-4.30912
 30
0
  0
SPLINE
  5
B43
330
A02
100
AcDbEntity
  8
Shape2DView027
100
AcDbSpline
210
0
220
0
230
1
 70
8
 71
1
 72
4
 73
2
 74
0
 40
0
 40
0
 40
0.5
 40
0.5
 10
-0.30975
 20
-4.30912
 30
0
 10
-0.24625
 20
-4.2615
 30
0
  0
SPLINE
  5
B44
330
A02
100
AcDbEntity
  8
Shape2DView027
100
AcDbSpline
210
0
220
0
230
1
 70
8
 71
1
 72
4
 73
2
 74
0
 40
0
 40
0
 40
0.781025
 40
0.781025
 10
-0.24625
 20
-4.2615
 30
0
 10
-0.151
 20
-4.18212
 30
0
  0
SPLINE
  5
B45
330
A02
100
AcDbEntity
  8
Shape2DView027
100
AcDbSpline
210
0
220
0
230
1
 70
8
 71
3
 72
8
 73
4
 74
0
 40
0
 40
0
 40
0
 40
0
 40
1
 40
1
 40
1
 40
1
 10
-0.151
 20
-4.18212
 30
0
 10
-0.151
 20
-4.16625
 30
0
 10
-0.151
 20
-4.1345
 30
0
 10
-0.151
 20
-4.11862
 30
0
  0
SPLINE
  5
B46
330
A02
100
AcDbEntity
  8
Shape2DView027
100
AcDbSpline
210
0
220
0
230
1
 70
8
 71
2
 72
6
 73
3
 74
0
 40
0
 40
0
 40
0
 40
1
 40
1
 40
1
 10
-0.151
 20
-4.11862
 30
0
 10
-0.385156
 20
-3.90431
 30
0
 10
-0.88125
 20
-3.45187
 30
0
  0
SPLINE
  5
B47
330
A02
100
AcDbEntity
  8
Shape2DView027
100
AcDbSpline
210
0
220
0
230
1
 70
8
 71
3
 72
8
 73
4
 74
0
 40
0
 40
0
 40
0
 40
0
 40
1
 40
1
 40
1
 40
1
 10
1.84925
 20
-3.436
 30
0
 10
1.45237
 20
-3.08675
 30
0
 10
1.08725
 20
-3.15025
 30
0
 10
0.865
 20
-3.13437
 30
0
  0
SPLINE
  5
B48
330
A02
100
AcDbEntity
  8
Shape2DView027
100
AcDbSpline
210
0
220
0
230
1
 70
8
 71
3
 72
8
 73
4
 74
0
 40
0
 40
0
 40
0
 40
0
 40
1
 40
1
 40
1
 40
1
 10
0.865
 20
-3.13437
 30
0
 10
0.484
 20
-3.00737
 30
0
 10
-2.183
 20
-0.657875
 30
0
 10
-3.81812
 20
0.85025
 30
0
  0
SPLINE
  5
B49
330
A02
100
AcDbEntity
  8
Shape2DView027
100
AcDbSpline
210
0
220
0
230
1
 70
8
 71
1
 72
4
 73
2
 74
0
 40
0
 40
0
 40
8
 40
8
 10
-3.81812
 20
0.85025
 30
0
 10
-3.81812
 20
-0.41975
 30
0
  0
SPLINE
  5
B4A
330
A02
100
AcDbEntity
  8
Shape2DView027
100
AcDbSpline
210
0
220
0
230
1
 70
8
 71
3
 72
8
 73
4
 74
0
 40
0
 40
0
 40
0
 40
0
 40
1
 40
1
 40
1
 40
1
 10
-3.81812
 20
-0.41975
 30
0
 10
-2.08775
 20
-1.92787
 30
0
 10
0.103
 20
-3.84875
 30
0
 10
0.118875
 20
-3.91225
 30
0
  0
SPLINE
  5
B4B
330
A02
100
AcDbEntity
  8
Shape2DView027
100
AcDbSpline
210
0
220
0
230
1
 70
8
 71
3
 72
8
 73
4
 74
0
 40
0
 40
0
 40
0
 40
0
 40
1
 40
1
 40
1
 40
1
 10
0.118875
 20
-3.91225
 30
0
 10
0.13475
 20
-4.02337
 30
0
 10
0.1665
 20
-4.61075
 30
0
 10
0.468125
 20
-4.91237
 30
0
  0
SPLINE
  5
B4C
330
A02
100
AcDbEntity
  8
Shape2DView027
100
AcDbSpline
210
0
220
0
230
1
 70
8
 71
3
 72
8
 73
4
 74
0
 40
0
 40
0
 40
0
 40
0
 40
1
 40
1
 40
1
 40
1
 10
0.468125
 20
-4.91237
 30
0
 10
0.690375
 20
-5.13462
 30
0
 10
0.89675
 20
-5.19813
 30
0
 10
1.0555
 20
-5.19813
 30
0
  0
SPLINE
  5
B4D
330
A02
100
AcDbEntity
  8
Shape2DView027
100
AcDbSpline
210
0
220
0
230
1
 70
8
 71
2
 72
6
 73
3
 74
0
 40
0
 40
0
 40
0
 40
1
 40
1
 40
1
 10
1.0555
 20
-5.19813
 30
0
 10
1.15075
 20
-5.19416
 30
0
 10
1.246
 20
-5.16638
 30
0
  0
SPLINE
  5
B4E
330
A02
100
AcDbEntity
  8
Shape2DView027
100
AcDbSpline
210
0
220
0
230
1
 70
8
 71
3
 72
8
 73
4
 74
0
 40
0
 40
0
 40
0
 40
0
 40
1
 40
1
 40
1
 40
1
 10
1.246
 20
-5.16638
 30
0
 10
1.4365
 20
-5.1505
 30
0
 10
1.5635
 20
-5.07113
 30
0
 10
1.5635
 20
-5.07113
 30
0
  0
SPLINE
  5
B4F
330
A02
100
AcDbEntity
  8
Shape2DView027
100
AcDbSpline
210
0
220
0
230
1
 70
8
 71
1
 72
4
 73
2
 74
0
 40
0
 40
0
 40
4.59674
 40
4.59674
 10
1.5635
 20
-5.07113
 30
0
 10
1.03962
 20
-4.56313
 30
0
  0
SPLINE
  5
B50
330
A02
100
AcDbEntity
  8
Shape2DView027
100
AcDbSpline
210
0
220
0
230
1
 70
8
 71
3
 72
8
 73
4
 74
0
 40
0
 40
0
 40
0
 40
0
 40
1
 40
1
 40
1
 40
1
 10
1.03962
 20
-4.56313
 30
0
 10
1.03962
 20
-4.5155
 30
0
 10
1.0555
 20
-4.071
 30
0
 10
1.46825
 20
-3.92813
 30
0
  0
SPLINE
  5
B51
330
A02
100
AcDbEntity
  8
Shape2DView027
100
AcDbSpline
210
0
220
0
230
1
 70
8
 71
1
 72
4
 73
2
 74
0
 40
0
 40
0
 40
4.60109
 40
4.60109
 10
1.46825
 20
-3.92813
 30
0
 10
2.008
 20
-4.42025
 30
0
  0
SPLINE
  5
B52
330
A02
100
AcDbEntity
  8
Shape2DView027
100
AcDbSpline
210
0
220
0
230
1
 70
8
 71
1
 72
4
 73
2
 74
0
 40
0
 40
0
 40
1.20416
 40
1.20416
 10
2.008
 20
-4.42025
 30
0
 10
2.1985
 20
-4.40438
 30
0
  0
SPLINE
  5
B53
330
A02
100
AcDbEntity
  8
Shape2DView027
100
AcDbSpline
210
0
220
0
230
1
 70
8
 71
3
 72
8
 73
4
 74
0
 40
0
 40
0
 40
0
 40
0
 40
1
 40
1
 40
1
 40
1
 10
2.1985
 20
-4.40438
 30
0
 10
2.18262
 20
-4.42025
 30
0
 10
2.34137
 20
-3.8805
 30
0
 10
1.84925
 20
-3.436
 30
0
  0
SPLINE
  5
B54
330
A02
100
AcDbEntity
  8
Shape2DView027
100
AcDbSpline
210
0
220
0
230
1
 70
8
 71
1
 72
4
 73
2
 74
0
 40
0
 40
0
 40
43.6
 40
43.6
 10
5.19887
 20
-7.34125
 30
0
 10
5.19887
 20
-0.41975
 30
0
  0
SPLINE
  5
B55
330
A02
100
AcDbEntity
  8
Shape2DView027
100
AcDbSpline
210
0
220
0
230
1
 70
8
 71
3
 72
8
 73
4
 74
0
 40
0
 40
0
 40
0
 40
0
 40
1
 40
1
 40
1
 40
1
 10
5.19887
 20
-0.41975
 30
0
 10
5.564
 20
-0.1975
 30
0
 10
5.80213
 20
0.21525
 30
0
 10
5.80213
 20
0.675625
 30
0
  0
SPLINE
  5
B56
330
A02
100
AcDbEntity
  8
Shape2DView027
100
AcDbSpline
210
0
220
0
230
1
 70
8
 71
2
 72
6
 73
3
 74
0
 40
0
 40
0
 40
0
 40
1
 40
1
 40
1
 10
5.80213
 20
0.675625
 30
0
 10
5.80213
 20
0.842313
 30
0
 10
5.7545
 20
1.009
 30
0
  0
SPLINE
  5
B57
330
A02
100
AcDbEntity
  8
Shape2DView027
100
AcDbSpline
210
0
220
0
230
1
 70
8
 71
1
 72
4
 73
2
 74
0
 40
0
 40
0
 40
0.424264
 40
0.424264
 10
5.7545
 20
1.009
 30
0
 10
5.70687
 20
0.961375
 30
0
  0
SPLINE
  5
B58
330
A02
100
AcDbEntity
  8
Shape2DView027
100
AcDbSpline
210
0
220
0
230
1
 70
8
 71
1
 72
4
 73
2
 74
0
 40
0
 40
0
 40
1.28062
 40
1.28062
 10
5.70687
 20
0.961375
 30
0
 10
5.54812
 20
0.834375
 30
0
  0
SPLINE
  5
B59
330
A02
100
AcDbEntity
  8
Shape2DView027
100
AcDbSpline
210
0
220
0
230
1
 70
8
 71
1
 72
4
 73
2
 74
0
 40
0
 40
0
 40
1.28062
 40
1.28062
 10
5.54812
 20
0.834375
 30
0
 10
5.38937
 20
0.707375
 30
0
  0
SPLINE
  5
B5A
330
A02
100
AcDbEntity
  8
Shape2DView027
100
AcDbSpline
210
0
220
0
230
1
 70
8
 71
1
 72
4
 73
2
 74
0
 40
0
 40
0
 40
1.28062
 40
1.28062
 10
5.38937
 20
0.707375
 30
0
 10
5.23062
 20
0.580375
 30
0
  0
SPLINE
  5
B5B
330
A02
100
AcDbEntity
  8
Shape2DView027
100
AcDbSpline
210
0
220
0
230
1
 70
8
 71
1
 72
4
 73
2
 74
0
 40
0
 40
0
 40
0.640312
 40
0.640312
 10
5.23062
 20
0.580375
 30
0
 10
5.15125
 20
0.516875
 30
0
  0
SPLINE
  5
B5C
330
A02
100
AcDbEntity
  8
Shape2DView027
100
AcDbSpline
210
0
220
0
230
1
 70
8
 71
1
 72
4
 73
2
 74
0
 40
0
 40
0
 40
0.7
 40
0.7
 10
5.15125
 20
0.516875
 30
0
 10
5.15125
 20
0.40575
 30
0
  0
SPLINE
  5
B5D
330
A02
100
AcDbEntity
  8
Shape2DView027
100
AcDbSpline
210
0
220
0
230
1
 70
8
 71
1
 72
4
 73
2
 74
0
 40
0
 40
0
 40
3.11127
 40
3.11127
 10
5.15125
 20
0.40575
 30
0
 10
4.802
 20
0.0565
 30
0
  0
SPLINE
  5
B5E
330
A02
100
AcDbEntity
  8
Shape2DView027
100
AcDbSpline
210
0
220
0
230
1
 70
8
 71
1
 72
4
 73
2
 74
0
 40
0
 40
0
 40
1.1
 40
1.1
 10
4.802
 20
0.0565
 30
0
 10
4.62738
 20
0.0565
 30
0
  0
SPLINE
  5
B5F
330
A02
100
AcDbEntity
  8
Shape2DView027
100
AcDbSpline
210
0
220
0
230
1
 70
8
 71
1
 72
4
 73
2
 74
0
 40
0
 40
0
 40
2.1
 40
2.1
 10
4.62738
 20
0.0565
 30
0
 10
4.294
 20
0.0565
 30
0
  0
SPLINE
  5
B60
330
A02
100
AcDbEntity
  8
Shape2DView027
100
AcDbSpline
210
0
220
0
230
1
 70
8
 71
1
 72
4
 73
2
 74
0
 40
0
 40
0
 40
0.2
 40
0.2
 10
4.294
 20
0.0565
 30
0
 10
4.26225
 20
0.0565
 30
0
  0
SPLINE
  5
B61
330
A02
100
AcDbEntity
  8
Shape2DView027
100
AcDbSpline
210
0
220
0
230
1
 70
8
 71
1
 72
4
 73
2
 74
0
 40
0
 40
0
 40
3.33017
 40
3.33017
 10
4.26225
 20
0.0565
 30
0
 10
3.86538
 20
0.40575
 30
0
  0
SPLINE
  5
B62
330
A02
100
AcDbEntity
  8
Shape2DView027
100
AcDbSpline
210
0
220
0
230
1
 70
8
 71
1
 72
4
 73
2
 74
0
 40
0
 40
0
 40
1.4
 40
1.4
 10
3.86538
 20
0.40575
 30
0
 10
3.86538
 20
0.628
 30
0
  0
SPLINE
  5
B63
330
A02
100
AcDbEntity
  8
Shape2DView027
100
AcDbSpline
210
0
220
0
230
1
 70
8
 71
1
 72
4
 73
2
 74
0
 40
0
 40
0
 40
1.8
 40
1.8
 10
3.86538
 20
0.628
 30
0
 10
3.86538
 20
0.91375
 30
0
  0
SPLINE
  5
B64
330
A02
100
AcDbEntity
  8
Shape2DView027
100
AcDbSpline
210
0
220
0
230
1
 70
8
 71
1
 72
4
 73
2
 74
0
 40
0
 40
0
 40
0.1
 40
0.1
 10
3.86538
 20
0.91375
 30
0
 10
3.86538
 20
0.929625
 30
0
  0
SPLINE
  5
B65
330
A02
100
AcDbEntity
  8
Shape2DView027
100
AcDbSpline
210
0
220
0
230
1
 70
8
 71
1
 72
4
 73
2
 74
0
 40
0
 40
0
 40
3.60694
 40
3.60694
 10
3.86538
 20
0.929625
 30
0
 10
4.26225
 20
1.34237
 30
0
  0
SPLINE
  5
B66
330
A02
100
AcDbEntity
  8
Shape2DView027
100
AcDbSpline
210
0
220
0
230
1
 70
8
 71
1
 72
4
 73
2
 74
0
 40
0
 40
0
 40
0.5
 40
0.5
 10
4.26225
 20
1.34237
 30
0
 10
4.34162
 20
1.34237
 30
0
  0
SPLINE
  5
B67
330
A02
100
AcDbEntity
  8
Shape2DView027
100
AcDbSpline
210
0
220
0
230
1
 70
8
 71
1
 72
4
 73
2
 74
0
 40
0
 40
0
 40
1.34536
 40
1.34536
 10
4.34162
 20
1.34237
 30
0
 10
4.50037
 20
1.48525
 30
0
  0
SPLINE
  5
B68
330
A02
100
AcDbEntity
  8
Shape2DView027
100
AcDbSpline
210
0
220
0
230
1
 70
8
 71
1
 72
4
 73
2
 74
0
 40
0
 40
0
 40
0.640312
 40
0.640312
 10
4.50037
 20
1.48525
 30
0
 10
4.57975
 20
1.54875
 30
0
  0
SPLINE
  5
B69
330
A02
100
AcDbEntity
  8
Shape2DView027
100
AcDbSpline
210
0
220
0
230
1
 70
8
 71
1
 72
4
 73
2
 74
0
 40
0
 40
0
 40
0.640312
 40
0.640312
 10
4.57975
 20
1.54875
 30
0
 10
4.65912
 20
1.61225
 30
0
  0
SPLINE
  5
B6A
330
A02
100
AcDbEntity
  8
Shape2DView027
100
AcDbSpline
210
0
220
0
230
1
 70
8
 71
1
 72
4
 73
2
 74
0
 40
0
 40
0
 40
0.282843
 40
0.282843
 10
4.65912
 20
1.61225
 30
0
 10
4.69087
 20
1.644
 30
0
  0
SPLINE
  5
B6B
330
A02
100
AcDbEntity
  8
Shape2DView027
100
AcDbSpline
210
0
220
0
230
1
 70
8
 71
1
 72
4
 73
2
 74
0
 40
0
 40
0
 40
0.282843
 40
0.282843
 10
4.69087
 20
1.644
 30
0
 10
4.72262
 20
1.67575
 30
0
  0
SPLINE
  5
B6C
330
A02
100
AcDbEntity
  8
Shape2DView027
100
AcDbSpline
210
0
220
0
230
1
 70
8
 71
1
 72
4
 73
2
 74
0
 40
0
 40
0
 40
0.707107
 40
0.707107
 10
4.72262
 20
1.67575
 30
0
 10
4.802
 20
1.75513
 30
0
  0
SPLINE
  5
B6D
330
A02
100
AcDbEntity
  8
Shape2DView027
100
AcDbSpline
210
0
220
0
230
1
 70
8
 71
1
 72
4
 73
2
 74
0
 40
0
 40
0
 40
0.707107
 40
0.707107
 10
4.802
 20
1.75513
 30
0
 10
4.88137
 20
1.8345
 30
0
  0
SPLINE
  5
B6E
330
A02
100
AcDbEntity
  8
Shape2DView027
100
AcDbSpline
210
0
220
0
230
1
 70
8
 71
1
 72
4
 73
2
 74
0
 40
0
 40
0
 40
0.565685
 40
0.565685
 10
4.88137
 20
1.8345
 30
0
 10
4.94487
 20
1.898
 30
0
  0
SPLINE
  5
B6F
330
A02
100
AcDbEntity
  8
Shape2DView027
100
AcDbSpline
210
0
220
0
230
1
 70
8
 71
3
 72
8
 73
4
 74
0
 40
0
 40
0
 40
0
 40
0
 40
1
 40
1
 40
1
 40
1
 10
4.94487
 20
1.898
 30
0
 10
4.81787
 20
1.94563
 30
0
 10
4.675
 20
1.9615
 30
0
 10
4.53212
 20
1.9615
 30
0
  0
SPLINE
  5
B70
330
A02
100
AcDbEntity
  8
Shape2DView027
100
AcDbSpline
210
0
220
0
230
1
 70
8
 71
3
 72
8
 73
4
 74
0
 40
0
 40
0
 40
0
 40
0
 40
1
 40
1
 40
1
 40
1
 10
4.53212
 20
1.9615
 30
0
 10
3.81775
 20
1.9615
 30
0
 10
3.24625
 20
1.39
 30
0
 10
3.24625
 20
0.675625
 30
0
  0
SPLINE
  5
B71
330
A02
100
AcDbEntity
  8
Shape2DView027
100
AcDbSpline
210
0
220
0
230
1
 70
8
 71
2
 72
6
 73
3
 74
0
 40
0
 40
0
 40
0
 40
1
 40
1
 40
1
 10
3.24625
 20
0.675625
 30
0
 10
3.24228
 20
0.389875
 30
0
 10
3.35737
 20
0.15175
 30
0
  0
SPLINE
  5
B72
330
A02
100
AcDbEntity
  8
Shape2DView027
100
AcDbSpline
210
0
220
0
230
1
 70
8
 71
3
 72
8
 73
4
 74
0
 40
0
 40
0
 40
0
 40
0
 40
1
 40
1
 40
1
 40
1
 10
3.35737
 20
0.15175
 30
0
 10
3.45262
 20
-0.0705
 30
0
 10
3.61137
 20
-0.261
 30
0
 10
3.81775
 20
-0.403875
 30
0
  0
SPLINE
  5
B73
330
A02
100
AcDbEntity
  8
Shape2DView027
100
AcDbSpline
210
0
220
0
230
1
 70
8
 71
3
 72
8
 73
4
 74
0
 40
0
 40
0
 40
0
 40
0
 40
1
 40
1
 40
1
 40
1
 10
3.81775
 20
-0.403875
 30
0
 10
3.8495
 20
-0.41975
 30
0
 10
3.86538
 20
-0.435625
 30
0
 10
3.89712
 20
-0.4515
 30
0
  0
SPLINE
  5
B74
330
A02
100
AcDbEntity
  8
Shape2DView027
100
AcDbSpline
210
0
220
0
230
1
 70
8
 71
1
 72
4
 73
2
 74
0
 40
0
 40
0
 40
43.4
 40
43.4
 10
3.89712
 20
-0.4515
 30
0
 10
3.89712
 20
-7.34125
 30
0
  0
SPLINE
  5
B75
330
A02
100
AcDbEntity
  8
Shape2DView027
100
AcDbSpline
210
0
220
0
230
1
 70
8
 71
3
 72
8
 73
4
 74
0
 40
0
 40
0
 40
0
 40
0
 40
1
 40
1
 40
1
 40
1
 10
3.89712
 20
-7.34125
 30
0
 10
3.35737
 20
-7.57937
 30
0
 10
2.9605
 20
-8.135
 30
0
 10
2.9605
 20
-8.77
 30
0
  0
SPLINE
  5
B76
330
A02
100
AcDbEntity
  8
Shape2DView027
100
AcDbSpline
210
0
220
0
230
1
 70
8
 71
3
 72
8
 73
4
 74
0
 40
0
 40
0
 40
0
 40
0
 40
1
 40
1
 40
1
 40
1
 10
2.9605
 20
-8.77
 30
0
 10
2.9605
 20
-9.26212
 30
0
 10
3.18275
 20
-9.70662
 30
0
 10
3.54787
 20
-9.99237
 30
0
  0
SPLINE
  5
B77
330
A02
100
AcDbEntity
  8
Shape2DView027
100
AcDbSpline
210
0
220
0
230
1
 70
8
 71
1
 72
4
 73
2
 74
0
 40
0
 40
0
 40
0.9
 40
0.9
 10
3.54787
 20
-9.99237
 30
0
 10
3.69075
 20
-9.99237
 30
0
  0
SPLINE
  5
B78
330
A02
100
AcDbEntity
  8
Shape2DView027
100
AcDbSpline
210
0
220
0
230
1
 70
8
 71
1
 72
4
 73
2
 74
0
 40
0
 40
0
 40
6.2
 40
6.2
 10
3.69075
 20
-9.99237
 30
0
 10
3.69075
 20
-9.00812
 30
0
  0
SPLINE
  5
B79
330
A02
100
AcDbEntity
  8
Shape2DView027
100
AcDbSpline
210
0
220
0
230
1
 70
8
 71
1
 72
4
 73
2
 74
0
 40
0
 40
0
 40
6.7624
 40
6.7624
 10
3.69075
 20
-9.00812
 30
0
 10
4.53212
 20
-8.34137
 30
0
  0
SPLINE
  5
B7A
330
A02
100
AcDbEntity
  8
Shape2DView027
100
AcDbSpline
210
0
220
0
230
1
 70
8
 71
1
 72
4
 73
2
 74
0
 40
0
 40
0
 40
6.84105
 40
6.84105
 10
4.53212
 20
-8.34137
 30
0
 10
5.38937
 20
-9.00812
 30
0
  0
SPLINE
  5
B7B
330
A02
100
AcDbEntity
  8
Shape2DView027
100
AcDbSpline
210
0
220
0
230
1
 70
8
 71
1
 72
4
 73
2
 74
0
 40
0
 40
0
 40
6.2
 40
6.2
 10
5.38937
 20
-9.00812
 30
0
 10
5.38937
 20
-9.99237
 30
0
  0
SPLINE
  5
B7C
330
A02
100
AcDbEntity
  8
Shape2DView027
100
AcDbSpline
210
0
220
0
230
1
 70
8
 71
1
 72
4
 73
2
 74
0
 40
0
 40
0
 40
0.8
 40
0.8
 10
5.38937
 20
-9.99237
 30
0
 10
5.51638
 20
-9.99237
 30
0
  0
SPLINE
  5
B7D
330
A02
100
AcDbEntity
  8
Shape2DView027
100
AcDbSpline
210
0
220
0
230
1
 70
8
 71
1
 72
4
 73
2
 74
0
 40
0
 40
0
 40
0.1
 40
0.1
 10
5.51638
 20
-9.99237
 30
0
 10
5.53225
 20
-9.99237
 30
0
  0
SPLINE
  5
B7E
330
A02
100
AcDbEntity
  8
Shape2DView027
100
AcDbSpline
210
0
220
0
230
1
 70
8
 71
3
 72
8
 73
4
 74
0
 40
0
 40
0
 40
0
 40
0
 40
1
 40
1
 40
1
 40
1
 10
5.53225
 20
-9.99237
 30
0
 10
5.89737
 20
-9.70662
 30
0
 10
6.11962
 20
-9.26212
 30
0
 10
6.11962
 20
-8.77
 30
0
  0
SPLINE
  5
B7F
330
A02
100
AcDbEntity
  8
Shape2DView027
100
AcDbSpline
210
0
220
0
230
1
 70
8
 71
3
 72
8
 73
4
 74
0
 40
0
 40
0
 40
0
 40
0
 40
1
 40
1
 40
1
 40
1
 10
6.11962
 20
-8.77
 30
0
 10
6.10375
 20
-8.135
 30
0
 10
5.73863
 20
-7.57937
 30
0
 10
5.19887
 20
-7.34125
 30
0
  0
SPLINE
  5
B80
330
A02
100
AcDbEntity
  8
Shape2DView027
100
AcDbSpline
210
0
220
0
230
1
 70
8
 71
1
 72
4
 73
2
 74
0
 40
0
 40
0
 40
1.20416
 40
1.20416
 10
3.18275
 20
-0.943625
 30
0
 10
3.32562
 20
-0.816625
 30
0
  0
SPLINE
  5
B81
330
A02
100
AcDbEntity
  8
Shape2DView027
100
AcDbSpline
210
0
220
0
230
1
 70
8
 71
1
 72
4
 73
2
 74
0
 40
0
 40
0
 40
1.20416
 40
1.20416
 10
3.32562
 20
-0.816625
 30
0
 10
3.4685
 20
-0.689625
 30
0
  0
SPLINE
  5
B82
330
A02
100
AcDbEntity
  8
Shape2DView027
100
AcDbSpline
210
0
220
0
230
1
 70
8
 71
1
 72
4
 73
2
 74
0
 40
0
 40
0
 40
1.20416
 40
1.20416
 10
3.4685
 20
-0.689625
 30
0
 10
3.61137
 20
-0.562625
 30
0
  0
SPLINE
  5
B83
330
A02
100
AcDbEntity
  8
Shape2DView027
100
AcDbSpline
210
0
220
0
230
1
 70
8
 71
1
 72
4
 73
2
 74
0
 40
0
 40
0
 40
0.5
 40
0.5
 10
3.61137
 20
-0.562625
 30
0
 10
3.67488
 20
-0.515
 30
0
  0
SPLINE
  5
B84
330
A02
100
AcDbEntity
  8
Shape2DView027
100
AcDbSpline
210
0
220
0
230
1
 70
8
 71
3
 72
8
 73
4
 74
0
 40
0
 40
0
 40
0
 40
0
 40
1
 40
1
 40
1
 40
1
 10
3.67488
 20
-0.515
 30
0
 10
3.4685
 20
-0.372125
 30
0
 10
3.30975
 20
-0.1975
 30
0
 10
3.2145
 20
0.040625
 30
0
  0
SPLINE
  5
B85
330
A02
100
AcDbEntity
  8
Shape2DView027
100
AcDbSpline
210
0
220
0
230
1
 70
8
 71
1
 72
4
 73
2
 74
0
 40
0
 40
0
 40
0.223607
 40
0.223607
 10
3.2145
 20
0.040625
 30
0
 10
3.18275
 20
0.02475
 30
0
  0
SPLINE
  5
B86
330
A02
100
AcDbEntity
  8
Shape2DView027
100
AcDbSpline
210
0
220
0
230
1
 70
8
 71
1
 72
4
 73
2
 74
0
 40
0
 40
0
 40
0.282843
 40
0.282843
 10
3.18275
 20
0.02475
 30
0
 10
3.151
 20
-0.007
 30
0
  0
SPLINE
  5
B87
330
A02
100
AcDbEntity
  8
Shape2DView027
100
AcDbSpline
210
0
220
0
230
1
 70
8
 71
1
 72
4
 73
2
 74
0
 40
0
 40
0
 40
1.28062
 40
1.28062
 10
3.151
 20
-0.007
 30
0
 10
2.99225
 20
-0.134
 30
0
  0
SPLINE
  5
B88
330
A02
100
AcDbEntity
  8
Shape2DView027
100
AcDbSpline
210
0
220
0
230
1
 70
8
 71
1
 72
4
 73
2
 74
0
 40
0
 40
0
 40
1.28062
 40
1.28062
 10
2.99225
 20
-0.134
 30
0
 10
2.8335
 20
-0.261
 30
0
  0
SPLINE
  5
B89
330
A02
100
AcDbEntity
  8
Shape2DView027
100
AcDbSpline
210
0
220
0
230
1
 70
8
 71
1
 72
4
 73
2
 74
0
 40
0
 40
0
 40
1.28062
 40
1.28062
 10
2.8335
 20
-0.261
 30
0
 10
2.67475
 20
-0.388
 30
0
  0
SPLINE
  5
B8A
330
A02
100
AcDbEntity
  8
Shape2DView027
100
AcDbSpline
210
0
220
0
230
1
 70
8
 71
1
 72
4
 73
2
 74
0
 40
0
 40
0
 40
0.640312
 40
0.640312
 10
2.67475
 20
-0.388
 30
0
 10
2.59538
 20
-0.4515
 30
0
  0
SPLINE
  5
B8B
330
A02
100
AcDbEntity
  8
Shape2DView027
100
AcDbSpline
210
0
220
0
230
1
 70
8
 71
1
 72
4
 73
2
 74
0
 40
0
 40
0
 40
0.640312
 40
0.640312
 10
2.59538
 20
-0.4515
 30
0
 10
2.516
 20
-0.515
 30
0
  0
SPLINE
  5
B8C
330
A02
100
AcDbEntity
  8
Shape2DView027
100
AcDbSpline
210
0
220
0
230
1
 70
8
 71
1
 72
4
 73
2
 74
0
 40
0
 40
0
 40
0.640312
 40
0.640312
 10
2.516
 20
-0.515
 30
0
 10
2.43663
 20
-0.5785
 30
0
  0
SPLINE
  5
B8D
330
A02
100
AcDbEntity
  8
Shape2DView027
100
AcDbSpline
210
0
220
0
230
1
 70
8
 71
1
 72
4
 73
2
 74
0
 40
0
 40
0
 40
0.640312
 40
0.640312
 10
2.43663
 20
-0.5785
 30
0
 10
2.35725
 20
-0.642
 30
0
  0
SPLINE
  5
B8E
330
A02
100
AcDbEntity
  8
Shape2DView027
100
AcDbSpline
210
0
220
0
230
1
 70
8
 71
1
 72
4
 73
2
 74
0
 40
0
 40
0
 40
0.640312
 40
0.640312
 10
2.35725
 20
-0.642
 30
0
 10
2.27788
 20
-0.7055
 30
0
  0
SPLINE
  5
B8F
330
A02
100
AcDbEntity
  8
Shape2DView027
100
AcDbSpline
210
0
220
0
230
1
 70
8
 71
1
 72
4
 73
2
 74
0
 40
0
 40
0
 40
0.282843
 40
0.282843
 10
2.27788
 20
-0.7055
 30
0
 10
2.24613
 20
-0.73725
 30
0
  0
SPLINE
  5
B90
330
A02
100
AcDbEntity
  8
Shape2DView027
100
AcDbSpline
210
0
220
0
230
1
 70
8
 71
1
 72
4
 73
2
 74
0
 40
0
 40
0
 40
0.141421
 40
0.141421
 10
2.24613
 20
-0.73725
 30
0
 10
2.23025
 20
-0.753125
 30
0
  0
SPLINE
  5
B91
330
A02
100
AcDbEntity
  8
Shape2DView027
100
AcDbSpline
210
0
220
0
230
1
 70
8
 71
1
 72
4
 73
2
 74
0
 40
0
 40
0
 40
0.141421
 40
0.141421
 10
2.23025
 20
-0.753125
 30
0
 10
2.21438
 20
-0.769
 30
0
  0
SPLINE
  5
B92
330
A02
100
AcDbEntity
  8
Shape2DView027
100
AcDbSpline
210
0
220
0
230
1
 70
8
 71
1
 72
4
 73
2
 74
0
 40
0
 40
0
 40
1.14018
 40
1.14018
 10
2.21438
 20
-0.769
 30
0
 10
2.0715
 20
-0.880125
 30
0
  0
SPLINE
  5
B93
330
A02
100
AcDbEntity
  8
Shape2DView027
100
AcDbSpline
210
0
220
0
230
1
 70
8
 71
1
 72
4
 73
2
 74
0
 40
0
 40
0
 40
5.56058
 40
5.56058
 10
2.0715
 20
-0.880125
 30
0
 10
1.373
 20
-1.41988
 30
0
  0
SPLINE
  5
B94
330
A02
100
AcDbEntity
  8
Shape2DView027
100
AcDbSpline
210
0
220
0
230
1
 70
8
 71
1
 72
4
 73
2
 74
0
 40
0
 40
0
 40
1
 40
1
 10
1.373
 20
-1.41988
 30
0
 10
1.246
 20
-1.51513
 30
0
  0
SPLINE
  5
B95
330
A02
100
AcDbEntity
  8
Shape2DView027
100
AcDbSpline
210
0
220
0
230
1
 70
8
 71
1
 72
4
 73
2
 74
0
 40
0
 40
0
 40
0.640312
 40
0.640312
 10
1.246
 20
-1.51513
 30
0
 10
1.16663
 20
-1.57863
 30
0
  0
SPLINE
  5
B96
330
A02
100
AcDbEntity
  8
Shape2DView027
100
AcDbSpline
210
0
220
0
230
1
 70
8
 71
1
 72
4
 73
2
 74
0
 40
0
 40
0
 40
0.640312
 40
0.640312
 10
1.16663
 20
-1.57863
 30
0
 10
1.08725
 20
-1.64213
 30
0
  0
SPLINE
  5
B97
330
A02
100
AcDbEntity
  8
Shape2DView027
100
AcDbSpline
210
0
220
0
230
1
 70
8
 71
1
 72
4
 73
2
 74
0
 40
0
 40
0
 40
0.424264
 40
0.424264
 10
1.08725
 20
-1.64213
 30
0
 10
1.03963
 20
-1.68975
 30
0
  0
SPLINE
  5
B98
330
A02
100
AcDbEntity
  8
Shape2DView027
100
AcDbSpline
210
0
220
0
230
1
 70
8
 71
1
 72
4
 73
2
 74
0
 40
0
 40
0
 40
0.781025
 40
0.781025
 10
1.03963
 20
-1.68975
 30
0
 10
0.944375
 20
-1.76913
 30
0
  0
SPLINE
  5
B99
330
A02
100
AcDbEntity
  8
Shape2DView027
100
AcDbSpline
210
0
220
0
230
1
 70
8
 71
1
 72
4
 73
2
 74
0
 40
0
 40
0
 40
0.781025
 40
0.781025
 10
0.944375
 20
-1.76913
 30
0
 10
0.849125
 20
-1.8485
 30
0
  0
SPLINE
  5
B9A
330
A02
100
AcDbEntity
  8
Shape2DView027
100
AcDbSpline
210
0
220
0
230
1
 70
8
 71
1
 72
4
 73
2
 74
0
 40
0
 40
0
 40
0.223607
 40
0.223607
 10
0.849125
 20
-1.8485
 30
0
 10
0.817375
 20
-1.86438
 30
0
  0
SPLINE
  5
B9B
330
A02
100
AcDbEntity
  8
Shape2DView027
100
AcDbSpline
210
0
220
0
230
1
 70
8
 71
1
 72
4
 73
2
 74
0
 40
0
 40
0
 40
0.223607
 40
0.223607
 10
0.817375
 20
-1.86438
 30
0
 10
0.785625
 20
-1.88025
 30
0
  0
SPLINE
  5
B9C
330
A02
100
AcDbEntity
  8
Shape2DView027
100
AcDbSpline
210
0
220
0
230
1
 70
8
 71
1
 72
4
 73
2
 74
0
 40
0
 40
0
 40
0.640312
 40
0.640312
 10
0.785625
 20
-1.88025
 30
0
 10
0.70625
 20
-1.94375
 30
0
  0
SPLINE
  5
B9D
330
A02
100
AcDbEntity
  8
Shape2DView027
100
AcDbSpline
210
0
220
0
230
1
 70
8
 71
1
 72
4
 73
2
 74
0
 40
0
 40
0
 40
0.640312
 40
0.640312
 10
0.70625
 20
-1.94375
 30
0
 10
0.626875
 20
-2.00725
 30
0
  0
SPLINE
  5
B9E
330
A02
100
AcDbEntity
  8
Shape2DView027
100
AcDbSpline
210
0
220
0
230
1
 70
8
 71
1
 72
4
 73
2
 74
0
 40
0
 40
0
 40
0.565685
 40
0.565685
 10
0.626875
 20
-2.00725
 30
0
 10
0.563375
 20
-2.07075
 30
0
  0
SPLINE
  5
B9F
330
A02
100
AcDbEntity
  8
Shape2DView027
100
AcDbSpline
210
0
220
0
230
1
 70
8
 71
1
 72
4
 73
2
 74
0
 40
0
 40
0
 40
0.707107
 40
0.707107
 10
0.563375
 20
-2.07075
 30
0
 10
0.484
 20
-2.15013
 30
0
  0
SPLINE
  5
BA0
330
A02
100
AcDbEntity
  8
Shape2DView027
100
AcDbSpline
210
0
220
0
230
1
 70
8
 71
1
 72
4
 73
2
 74
0
 40
0
 40
0
 40
0.707107
 40
0.707107
 10
0.484
 20
-2.15013
 30
0
 10
0.404625
 20
-2.2295
 30
0
  0
SPLINE
  5
BA1
330
A02
100
AcDbEntity
  8
Shape2DView027
100
AcDbSpline
210
0
220
0
230
1
 70
8
 71
1
 72
4
 73
2
 74
0
 40
0
 40
0
 40
0.565685
 40
0.565685
 10
0.404625
 20
-2.2295
 30
0
 10
0.341125
 20
-2.293
 30
0
  0
SPLINE
  5
BA2
330
A02
100
AcDbEntity
  8
Shape2DView027
100
AcDbSpline
210
0
220
0
230
1
 70
8
 71
1
 72
4
 73
2
 74
0
 40
0
 40
0
 40
0.5
 40
0.5
 10
0.341125
 20
-2.293
 30
0
 10
0.277625
 20
-2.34063
 30
0
  0
SPLINE
  5
BA3
330
A02
100
AcDbEntity
  8
Shape2DView027
100
AcDbSpline
210
0
220
0
230
1
 70
8
 71
1
 72
4
 73
2
 74
0
 40
0
 40
0
 40
0.223607
 40
0.223607
 10
0.277625
 20
-2.34063
 30
0
 10
0.245875
 20
-2.3565
 30
0
  0
SPLINE
  5
BA4
330
A02
100
AcDbEntity
  8
Shape2DView027
100
AcDbSpline
210
0
220
0
230
1
 70
8
 71
3
 72
8
 73
4
 74
0
 40
0
 40
0
 40
0
 40
0
 40
1
 40
1
 40
1
 40
1
 10
0.245875
 20
-2.3565
 30
0
 10
0.57925
 20
-2.62637
 30
0
 10
0.785625
 20
-2.78513
 30
0
 10
0.89675
 20
-2.83275
 30
0
  0
SPLINE
  5
BA5
330
A02
100
AcDbEntity
  8
Shape2DView027
100
AcDbSpline
210
0
220
0
230
1
 70
8
 71
1
 72
4
 73
2
 74
0
 40
0
 40
0
 40
1
 40
1
 10
0.89675
 20
-2.83275
 30
0
 10
0.944375
 20
-2.83275
 30
0
  0
SPLINE
  5
BA6
330
A02
100
AcDbEntity
  8
Shape2DView027
100
AcDbSpline
210
0
220
0
230
1
 70
8
 71
3
 72
8
 73
4
 74
0
 40
0
 40
0
 40
0
 40
0
 40
1
 40
1
 40
1
 40
1
 10
0.944375
 20
-2.83275
 30
0
 10
1.02375
 20
-2.83275
 30
0
 10
1.10313
 20
-2.83275
 30
0
 10
1.21425
 20
-2.84863
 30
0
  0
SPLINE
  5
BA7
330
A02
100
AcDbEntity
  8
Shape2DView027
100
AcDbSpline
210
0
220
0
230
1
 70
8
 71
1
 72
4
 73
2
 74
0
 40
0
 40
0
 40
0.848528
 40
0.848528
 10
1.21425
 20
-2.84863
 30
0
 10
1.3095
 20
-2.75338
 30
0
  0
SPLINE
  5
BA8
330
A02
100
AcDbEntity
  8
Shape2DView027
100
AcDbSpline
210
0
220
0
230
1
 70
8
 71
1
 72
4
 73
2
 74
0
 40
0
 40
0
 40
0.5
 40
0.5
 10
1.3095
 20
-2.75338
 30
0
 10
1.373
 20
-2.70575
 30
0
  0
SPLINE
  5
BA9
330
A02
100
AcDbEntity
  8
Shape2DView027
100
AcDbSpline
210
0
220
0
230
1
 70
8
 71
1
 72
4
 73
2
 74
0
 40
0
 40
0
 40
1.06301
 40
1.06301
 10
1.373
 20
-2.70575
 30
0
 10
1.5
 20
-2.59463
 30
0
  0
SPLINE
  5
BAA
330
A02
100
AcDbEntity
  8
Shape2DView027
100
AcDbSpline
210
0
220
0
230
1
 70
8
 71
1
 72
4
 73
2
 74
0
 40
0
 40
0
 40
0.424264
 40
0.424264
 10
1.5
 20
-2.59463
 30
0
 10
1.54763
 20
-2.547
 30
0
  0
SPLINE
  5
BAB
330
A02
100
AcDbEntity
  8
Shape2DView027
100
AcDbSpline
210
0
220
0
230
1
 70
8
 71
1
 72
4
 73
2
 74
0
 40
0
 40
0
 40
1.13137
 40
1.13137
 10
1.54763
 20
-2.547
 30
0
 10
1.67463
 20
-2.42
 30
0
  0
SPLINE
  5
BAC
330
A02
100
AcDbEntity
  8
Shape2DView027
100
AcDbSpline
210
0
220
0
230
1
 70
8
 71
1
 72
4
 73
2
 74
0
 40
0
 40
0
 40
0.424264
 40
0.424264
 10
1.67463
 20
-2.42
 30
0
 10
1.72225
 20
-2.37237
 30
0
  0
SPLINE
  5
BAD
330
A02
100
AcDbEntity
  8
Shape2DView027
100
AcDbSpline
210
0
220
0
230
1
 70
8
 71
1
 72
4
 73
2
 74
0
 40
0
 40
0
 40
0.640312
 40
0.640312
 10
1.72225
 20
-2.37237
 30
0
 10
1.80163
 20
-2.30888
 30
0
  0
SPLINE
  5
BAE
330
A02
100
AcDbEntity
  8
Shape2DView027
100
AcDbSpline
210
0
220
0
230
1
 70
8
 71
1
 72
4
 73
2
 74
0
 40
0
 40
0
 40
0.565685
 40
0.565685
 10
1.80163
 20
-2.30888
 30
0
 10
1.86513
 20
-2.24537
 30
0
  0
SPLINE
  5
BAF
330
A02
100
AcDbEntity
  8
Shape2DView027
100
AcDbSpline
210
0
220
0
230
1
 70
8
 71
1
 72
4
 73
2
 74
0
 40
0
 40
0
 40
1.06301
 40
1.06301
 10
1.86513
 20
-2.24537
 30
0
 10
1.99213
 20
-2.13425
 30
0
  0
SPLINE
  5
BB0
330
A02
100
AcDbEntity
  8
Shape2DView027
100
AcDbSpline
210
0
220
0
230
1
 70
8
 71
1
 72
4
 73
2
 74
0
 40
0
 40
0
 40
1.06301
 40
1.06301
 10
1.99213
 20
-2.13425
 30
0
 10
2.11913
 20
-2.02313
 30
0
  0
SPLINE
  5
BB1
330
A02
100
AcDbEntity
  8
Shape2DView027
100
AcDbSpline
210
0
220
0
230
1
 70
8
 71
1
 72
4
 73
2
 74
0
 40
0
 40
0
 40
1.06301
 40
1.06301
 10
2.11913
 20
-2.02313
 30
0
 10
2.24613
 20
-1.912
 30
0
  0
SPLINE
  5
BB2
330
A02
100
AcDbEntity
  8
Shape2DView027
100
AcDbSpline
210
0
220
0
230
1
 70
8
 71
1
 72
4
 73
2
 74
0
 40
0
 40
0
 40
0.989949
 40
0.989949
 10
2.24613
 20
-1.912
 30
0
 10
2.35725
 20
-1.80088
 30
0
  0
SPLINE
  5
BB3
330
A02
100
AcDbEntity
  8
Shape2DView027
100
AcDbSpline
210
0
220
0
230
1
 70
8
 71
1
 72
4
 73
2
 74
0
 40
0
 40
0
 40
2.70185
 40
2.70185
 10
2.35725
 20
-1.80088
 30
0
 10
2.62713
 20
-1.4675
 30
0
  0
SPLINE
  5
BB4
330
A02
100
AcDbEntity
  8
Shape2DView027
100
AcDbSpline
210
0
220
0
230
1
 70
8
 71
1
 72
4
 73
2
 74
0
 40
0
 40
0
 40
1.13137
 40
1.13137
 10
2.62713
 20
-1.4675
 30
0
 10
2.75413
 20
-1.3405
 30
0
  0
SPLINE
  5
BB5
330
A02
100
AcDbEntity
  8
Shape2DView027
100
AcDbSpline
210
0
220
0
230
1
 70
8
 71
1
 72
4
 73
2
 74
0
 40
0
 40
0
 40
1.13137
 40
1.13137
 10
2.75413
 20
-1.3405
 30
0
 10
2.88113
 20
-1.2135
 30
0
  0
SPLINE
  5
BB6
330
A02
100
AcDbEntity
  8
Shape2DView027
100
AcDbSpline
210
0
220
0
230
1
 70
8
 71
1
 72
4
 73
2
 74
0
 40
0
 40
0
 40
1.13137
 40
1.13137
 10
2.88113
 20
-1.2135
 30
0
 10
3.00813
 20
-1.0865
 30
0
  0
SPLINE
  5
BB7
330
A02
100
AcDbEntity
  8
Shape2DView027
100
AcDbSpline
210
0
220
0
230
1
 70
8
 71
1
 72
4
 73
2
 74
0
 40
0
 40
0
 40
1.42127
 40
1.42127
 10
3.00813
 20
-1.0865
 30
0
 10
3.18275
 20
-0.943625
 30
0
  0
SPLINE
  5
BB8
330
A02
100
AcDbEntity
  8
Shape2DView027
100
AcDbSpline
210
0
220
0
230
1
 70
8
 71
3
 72
8
 73
4
 74
0
 40
0
 40
0
 40
0
 40
0
 40
1
 40
1
 40
1
 40
1
 10
-4.77063
 20
1.72338
 30
0
 10
-4.977
 20
1.91388
 30
0
 10
-5.104
 20
2.04088
 30
0
 10
-5.104
 20
2.07263
 30
0
  0
SPLINE
  5
BB9
330
A02
100
AcDbEntity
  8
Shape2DView027
100
AcDbSpline
210
0
220
0
230
1
 70
8
 71
3
 72
8
 73
4
 74
0
 40
0
 40
0
 40
0
 40
0
 40
1
 40
1
 40
1
 40
1
 10
-5.104
 20
2.07263
 30
0
 10
-5.15163
 20
2.24725
 30
0
 10
-5.11987
 20
2.66
 30
0
 10
-5.43737
 20
2.94575
 30
0
  0
SPLINE
  5
BBA
330
A02
100
AcDbEntity
  8
Shape2DView027
100
AcDbSpline
210
0
220
0
230
1
 70
8
 71
3
 72
8
 73
4
 74
0
 40
0
 40
0
 40
0
 40
0
 40
1
 40
1
 40
1
 40
1
 10
-5.43737
 20
2.94575
 30
0
 10
-5.72312
 20
3.19975
 30
0
 10
-5.97713
 20
3.26325
 30
0
 10
-6.13588
 20
3.26325
 30
0
  0
SPLINE
  5
BBB
330
A02
100
AcDbEntity
  8
Shape2DView027
100
AcDbSpline
210
0
220
0
230
1
 70
8
 71
3
 72
8
 73
4
 74
0
 40
0
 40
0
 40
0
 40
0
 40
1
 40
1
 40
1
 40
1
 10
-6.13588
 20
3.26325
 30
0
 10
-6.15175
 20
3.26325
 30
0
 10
-6.1835
 20
3.26325
 30
0
 10
-6.19938
 20
3.26325
 30
0
  0
SPLINE
  5
BBC
330
A02
100
AcDbEntity
  8
Shape2DView027
100
AcDbSpline
210
0
220
0
230
1
 70
8
 71
2
 72
6
 73
3
 74
0
 40
0
 40
0
 40
0
 40
1
 40
1
 40
1
 10
-6.19938
 20
3.26325
 30
0
 10
-6.38988
 20
3.25928
 30
0
 10
-6.48513
 20
3.2315
 30
0
  0
SPLINE
  5
BBD
330
A02
100
AcDbEntity
  8
Shape2DView027
100
AcDbSpline
210
0
220
0
230
1
 70
8
 71
1
 72
4
 73
2
 74
0
 40
0
 40
0
 40
1
 40
1
 10
-6.48513
 20
3.2315
 30
0
 10
-6.628
 20
3.18388
 30
0
  0
SPLINE
  5
BBE
330
A02
100
AcDbEntity
  8
Shape2DView027
100
AcDbSpline
210
0
220
0
230
1
 70
8
 71
2
 72
6
 73
3
 74
0
 40
0
 40
0
 40
0
 40
1
 40
1
 40
1
 10
-6.628
 20
3.18388
 30
0
 10
-6.67563
 20
3.15609
 30
0
 10
-6.67563
 20
3.15213
 30
0
  0
SPLINE
  5
BBF
330
A02
100
AcDbEntity
  8
Shape2DView027
100
AcDbSpline
210
0
220
0
230
1
 70
8
 71
1
 72
4
 73
2
 74
0
 40
0
 40
0
 40
4.74236
 40
4.74236
 10
-6.67563
 20
3.15213
 30
0
 10
-6.12
 20
2.64413
 30
0
  0
SPLINE
  5
BC0
330
A02
100
AcDbEntity
  8
Shape2DView027
100
AcDbSpline
210
0
220
0
230
1
 70
8
 71
3
 72
8
 73
4
 74
0
 40
0
 40
0
 40
0
 40
0
 40
1
 40
1
 40
1
 40
1
 10
-6.12
 20
2.64413
 30
0
 10
-6.08825
 20
2.50125
 30
0
 10
-6.10413
 20
2.39013
 30
0
 10
-6.13588
 20
2.29488
 30
0
  0
SPLINE
  5
BC1
330
A02
100
AcDbEntity
  8
Shape2DView027
100
AcDbSpline
210
0
220
0
230
1
 70
8
 71
3
 72
8
 73
4
 74
0
 40
0
 40
0
 40
0
 40
0
 40
1
 40
1
 40
1
 40
1
 10
-6.13588
 20
2.29488
 30
0
 10
-6.16762
 20
2.24725
 30
0
 10
-6.19938
 20
2.16788
 30
0
 10
-6.247
 20
2.13612
 30
0
  0
SPLINE
  5
BC2
330
A02
100
AcDbEntity
  8
Shape2DView027
100
AcDbSpline
210
0
220
0
230
1
 70
8
 71
3
 72
8
 73
4
 74
0
 40
0
 40
0
 40
0
 40
0
 40
1
 40
1
 40
1
 40
1
 10
-6.247
 20
2.13612
 30
0
 10
-6.29462
 20
2.10438
 30
0
 10
-6.32638
 20
2.07263
 30
0
 10
-6.374
 20
2.04088
 30
0
  0
SPLINE
  5
BC3
330
A02
100
AcDbEntity
  8
Shape2DView027
100
AcDbSpline
210
0
220
0
230
1
 70
8
 71
3
 72
8
 73
4
 74
0
 40
0
 40
0
 40
0
 40
0
 40
1
 40
1
 40
1
 40
1
 10
-6.374
 20
2.04088
 30
0
 10
-6.40575
 20
2.025
 30
0
 10
-6.45338
 20
2.00913
 30
0
 10
-6.48513
 20
1.99325
 30
0
  0
SPLINE
  5
BC4
330
A02
100
AcDbEntity
  8
Shape2DView027
100
AcDbSpline
210
0
220
0
230
1
 70
8
 71
1
 72
4
 73
2
 74
0
 40
0
 40
0
 40
4.39318
 40
4.39318
 10
-6.48513
 20
1.99325
 30
0
 10
-7.009
 20
2.45363
 30
0
  0
SPLINE
  5
BC5
330
A02
100
AcDbEntity
  8
Shape2DView027
100
AcDbSpline
210
0
220
0
230
1
 70
8
 71
1
 72
4
 73
2
 74
0
 40
0
 40
0
 40
1.60312
 40
1.60312
 10
-7.009
 20
2.45363
 30
0
 10
-7.263
 20
2.43775
 30
0
  0
SPLINE
  5
BC6
330
A02
100
AcDbEntity
  8
Shape2DView027
100
AcDbSpline
210
0
220
0
230
1
 70
8
 71
3
 72
8
 73
4
 74
0
 40
0
 40
0
 40
0
 40
0
 40
1
 40
1
 40
1
 40
1
 10
-7.263
 20
2.43775
 30
0
 10
-7.263
 20
2.43775
 30
0
 10
-7.39
 20
1.92975
 30
0
 10
-6.882
 20
1.48525
 30
0
  0
SPLINE
  5
BC7
330
A02
100
AcDbEntity
  8
Shape2DView027
100
AcDbSpline
210
0
220
0
230
1
 70
8
 71
3
 72
8
 73
4
 74
0
 40
0
 40
0
 40
0
 40
0
 40
1
 40
1
 40
1
 40
1
 10
-6.882
 20
1.48525
 30
0
 10
-6.6915
 20
1.3265
 30
0
 10
-6.48513
 20
1.29475
 30
0
 10
-6.3105
 20
1.29475
 30
0
  0
SPLINE
  5
BC8
330
A02
100
AcDbEntity
  8
Shape2DView027
100
AcDbSpline
210
0
220
0
230
1
 70
8
 71
3
 72
8
 73
4
 74
0
 40
0
 40
0
 40
0
 40
0
 40
1
 40
1
 40
1
 40
1
 10
-6.3105
 20
1.29475
 30
0
 10
-6.13588
 20
1.29475
 30
0
 10
-5.993
 20
1.3265
 30
0
 10
-5.9295
 20
1.3265
 30
0
  0
SPLINE
  5
BC9
330
A02
100
AcDbEntity
  8
Shape2DView027
100
AcDbSpline
210
0
220
0
230
1
 70
8
 71
1
 72
4
 73
2
 74
0
 40
0
 40
0
 40
0.1
 40
0.1
 10
-5.9295
 20
1.3265
 30
0
 10
-5.91362
 20
1.3265
 30
0
  0
SPLINE
  5
BCA
330
A02
100
AcDbEntity
  8
Shape2DView027
100
AcDbSpline
210
0
220
0
230
1
 70
8
 71
3
 72
8
 73
4
 74
0
 40
0
 40
0
 40
0
 40
0
 40
1
 40
1
 40
1
 40
1
 10
-5.91363
 20
1.3265
 30
0
 10
-5.88187
 20
1.3265
 30
0
 10
-5.4215
 20
0.929625
 30
0
 10
-4.75475
 20
0.374
 30
0
  0
SPLINE
  5
BCB
330
A02
100
AcDbEntity
  8
Shape2DView027
100
AcDbSpline
210
0
220
0
230
1
 70
8
 71
1
 72
4
 73
2
 74
0
 40
0
 40
0
 40
8.5
 40
8.5
 10
-4.75475
 20
0.374
 30
0
 10
-4.75475
 20
1.72338
 30
0
  0
SPLINE
  5
BCC
330
A02
100
AcDbEntity
  8
Shape2DView027
100
AcDbSpline
210
0
220
0
230
1
 70
8
 71
1
 72
4
 73
2
 74
0
 40
0
 40
0
 40
0.1
 40
0.1
 10
-4.75475
 20
1.72338
 30
0
 10
-4.77063
 20
1.72338
 30
0
  0
SPLINE
  5
BCD
330
A02
100
AcDbEntity
  8
Shape2DView027
100
AcDbSpline
210
0
220
0
230
1
 70
8
 71
1
 72
4
 73
2
 74
0
 40
0
 40
0
 40
0.412311
 40
0.412311
 10
7.83412
 20
0.46925
 30
0
 10
7.81825
 20
0.53275
 30
0
  0
SPLINE
  5
BCE
330
A02
100
AcDbEntity
  8
Shape2DView027
100
AcDbSpline
210
0
220
0
230
1
 70
8
 71
1
 72
4
 73
2
 74
0
 40
0
 40
0
 40
0.412311
 40
0.412311
 10
7.81825
 20
0.53275
 30
0
 10
7.80238
 20
0.59625
 30
0
  0
SPLINE
  5
BCF
330
A02
100
AcDbEntity
  8
Shape2DView027
100
AcDbSpline
210
0
220
0
230
1
 70
8
 71
1
 72
4
 73
2
 74
0
 40
0
 40
0
 40
0.538516
 40
0.538516
 10
7.80238
 20
0.59625
 30
0
 10
7.77062
 20
0.675625
 30
0
  0
SPLINE
  5
BD0
330
A02
100
AcDbEntity
  8
Shape2DView027
100
AcDbSpline
210
0
220
0
230
1
 70
8
 71
1
 72
4
 73
2
 74
0
 40
0
 40
0
 40
0.412311
 40
0.412311
 10
7.77062
 20
0.675625
 30
0
 10
7.75475
 20
0.739125
 30
0
  0
SPLINE
  5
BD1
330
A02
100
AcDbEntity
  8
Shape2DView027
100
AcDbSpline
210
0
220
0
230
1
 70
8
 71
1
 72
4
 73
2
 74
0
 40
0
 40
0
 40
0.412311
 40
0.412311
 10
7.75475
 20
0.739125
 30
0
 10
7.73887
 20
0.802625
 30
0
  0
SPLINE
  5
BD2
330
A02
100
AcDbEntity
  8
Shape2DView027
100
AcDbSpline
210
0
220
0
230
1
 70
8
 71
1
 72
4
 73
2
 74
0
 40
0
 40
0
 40
0.412311
 40
0.412311
 10
7.73887
 20
0.802625
 30
0
 10
7.723
 20
0.866125
 30
0
  0
SPLINE
  5
BD3
330
A02
100
AcDbEntity
  8
Shape2DView027
100
AcDbSpline
210
0
220
0
230
1
 70
8
 71
1
 72
4
 73
2
 74
0
 40
0
 40
0
 40
0.509902
 40
0.509902
 10
7.723
 20
0.866125
 30
0
 10
7.70712
 20
0.9455
 30
0
  0
SPLINE
  5
BD4
330
A02
100
AcDbEntity
  8
Shape2DView027
100
AcDbSpline
210
0
220
0
230
1
 70
8
 71
1
 72
4
 73
2
 74
0
 40
0
 40
0
 40
0.447214
 40
0.447214
 10
7.70712
 20
0.9455
 30
0
 10
7.67537
 20
1.009
 30
0
  0
SPLINE
  5
BD5
330
A02
100
AcDbEntity
  8
Shape2DView027
100
AcDbSpline
210
0
220
0
230
1
 70
8
 71
1
 72
4
 73
2
 74
0
 40
0
 40
0
 40
0.412311
 40
0.412311
 10
7.67537
 20
1.009
 30
0
 10
7.6595
 20
1.0725
 30
0
  0
SPLINE
  5
BD6
330
A02
100
AcDbEntity
  8
Shape2DView027
100
AcDbSpline
210
0
220
0
230
1
 70
8
 71
1
 72
4
 73
2
 74
0
 40
0
 40
0
 40
0.538516
 40
0.538516
 10
7.6595
 20
1.0725
 30
0
 10
7.62775
 20
1.15188
 30
0
  0
SPLINE
  5
BD7
330
A02
100
AcDbEntity
  8
Shape2DView027
100
AcDbSpline
210
0
220
0
230
1
 70
8
 71
1
 72
4
 73
2
 74
0
 40
0
 40
0
 40
0.412311
 40
0.412311
 10
7.62775
 20
1.15188
 30
0
 10
7.61187
 20
1.21538
 30
0
  0
SPLINE
  5
BD8
330
A02
100
AcDbEntity
  8
Shape2DView027
100
AcDbSpline
210
0
220
0
230
1
 70
8
 71
1
 72
4
 73
2
 74
0
 40
0
 40
0
 40
0.447214
 40
0.447214
 10
7.61187
 20
1.21538
 30
0
 10
7.58012
 20
1.27887
 30
0
  0
SPLINE
  5
BD9
330
A02
100
AcDbEntity
  8
Shape2DView027
100
AcDbSpline
210
0
220
0
230
1
 70
8
 71
1
 72
4
 73
2
 74
0
 40
0
 40
0
 40
0.948683
 40
0.948683
 10
7.58012
 20
1.27887
 30
0
 10
7.5325
 20
1.42175
 30
0
  0
SPLINE
  5
BDA
330
A02
100
AcDbEntity
  8
Shape2DView027
100
AcDbSpline
210
0
220
0
230
1
 70
8
 71
1
 72
4
 73
2
 74
0
 40
0
 40
0
 40
0.447214
 40
0.447214
 10
7.5325
 20
1.42175
 30
0
 10
7.50075
 20
1.48525
 30
0
  0
SPLINE
  5
BDB
330
A02
100
AcDbEntity
  8
Shape2DView027
100
AcDbSpline
210
0
220
0
230
1
 70
8
 71
1
 72
4
 73
2
 74
0
 40
0
 40
0
 40
0.538516
 40
0.538516
 10
7.50075
 20
1.48525
 30
0
 10
7.469
 20
1.56463
 30
0
  0
SPLINE
  5
BDC
330
A02
100
AcDbEntity
  8
Shape2DView027
100
AcDbSpline
210
0
220
0
230
1
 70
8
 71
1
 72
4
 73
2
 74
0
 40
0
 40
0
 40
0.8544
 40
0.8544
 10
7.469
 20
1.56463
 30
0
 10
7.42138
 20
1.69163
 30
0
  0
SPLINE
  5
BDD
330
A02
100
AcDbEntity
  8
Shape2DView027
100
AcDbSpline
210
0
220
0
230
1
 70
8
 71
1
 72
4
 73
2
 74
0
 40
0
 40
0
 40
0.984886
 40
0.984886
 10
7.42138
 20
1.69163
 30
0
 10
7.35787
 20
1.8345
 30
0
  0
SPLINE
  5
BDE
330
A02
100
AcDbEntity
  8
Shape2DView027
100
AcDbSpline
210
0
220
0
230
1
 70
8
 71
1
 72
4
 73
2
 74
0
 40
0
 40
0
 40
0.894427
 40
0.894427
 10
7.35787
 20
1.8345
 30
0
 10
7.29437
 20
1.9615
 30
0
  0
SPLINE
  5
BDF
330
A02
100
AcDbEntity
  8
Shape2DView027
100
AcDbSpline
210
0
220
0
230
1
 70
8
 71
1
 72
4
 73
2
 74
0
 40
0
 40
0
 40
1.02956
 40
1.02956
 10
7.29437
 20
1.9615
 30
0
 10
7.215
 20
2.10438
 30
0
  0
SPLINE
  5
BE0
330
A02
100
AcDbEntity
  8
Shape2DView027
100
AcDbSpline
210
0
220
0
230
1
 70
8
 71
1
 72
4
 73
2
 74
0
 40
0
 40
0
 40
0.447214
 40
0.447214
 10
7.215
 20
2.10438
 30
0
 10
7.18325
 20
2.16788
 30
0
  0
SPLINE
  5
BE1
330
A02
100
AcDbEntity
  8
Shape2DView027
100
AcDbSpline
210
0
220
0
230
1
 70
8
 71
1
 72
4
 73
2
 74
0
 40
0
 40
0
 40
0.538516
 40
0.538516
 10
7.18325
 20
2.16788
 30
0
 10
7.1515
 20
2.24725
 30
0
  0
SPLINE
  5
BE2
330
A02
100
AcDbEntity
  8
Shape2DView027
100
AcDbSpline
210
0
220
0
230
1
 70
8
 71
1
 72
4
 73
2
 74
0
 40
0
 40
0
 40
0.943398
 40
0.943398
 10
7.1515
 20
2.24725
 30
0
 10
7.07212
 20
2.37425
 30
0
  0
SPLINE
  5
BE3
330
A02
100
AcDbEntity
  8
Shape2DView027
100
AcDbSpline
210
0
220
0
230
1
 70
8
 71
1
 72
4
 73
2
 74
0
 40
0
 40
0
 40
1.02956
 40
1.02956
 10
7.07212
 20
2.37425
 30
0
 10
6.99275
 20
2.51713
 30
0
  0
SPLINE
  5
BE4
330
A02
100
AcDbEntity
  8
Shape2DView027
100
AcDbSpline
210
0
220
0
230
1
 70
8
 71
1
 72
4
 73
2
 74
0
 40
0
 40
0
 40
0.5
 40
0.5
 10
6.99275
 20
2.51713
 30
0
 10
6.94513
 20
2.58063
 30
0
  0
SPLINE
  5
BE5
330
A02
100
AcDbEntity
  8
Shape2DView027
100
AcDbSpline
210
0
220
0
230
1
 70
8
 71
1
 72
4
 73
2
 74
0
 40
0
 40
0
 40
0.538516
 40
0.538516
 10
6.94513
 20
2.58063
 30
0
 10
6.91337
 20
2.66
 30
0
  0
SPLINE
  5
BE6
330
A02
100
AcDbEntity
  8
Shape2DView027
100
AcDbSpline
210
0
220
0
230
1
 70
8
 71
1
 72
4
 73
2
 74
0
 40
0
 40
0
 40
0.5
 40
0.5
 10
6.91337
 20
2.66
 30
0
 10
6.86575
 20
2.7235
 30
0
  0
SPLINE
  5
BE7
330
A02
100
AcDbEntity
  8
Shape2DView027
100
AcDbSpline
210
0
220
0
230
1
 70
8
 71
1
 72
4
 73
2
 74
0
 40
0
 40
0
 40
0.447214
 40
0.447214
 10
6.86575
 20
2.7235
 30
0
 10
6.834
 20
2.787
 30
0
  0
SPLINE
  5
BE8
330
A02
100
AcDbEntity
  8
Shape2DView027
100
AcDbSpline
210
0
220
0
230
1
 70
8
 71
1
 72
4
 73
2
 74
0
 40
0
 40
0
 40
0.424264
 40
0.424264
 10
6.834
 20
2.787
 30
0
 10
6.78637
 20
2.83463
 30
0
  0
SPLINE
  5
BE9
330
A02
100
AcDbEntity
  8
Shape2DView027
100
AcDbSpline
210
0
220
0
230
1
 70
8
 71
1
 72
4
 73
2
 74
0
 40
0
 40
0
 40
0.5
 40
0.5
 10
6.78637
 20
2.83463
 30
0
 10
6.73875
 20
2.89813
 30
0
  0
SPLINE
  5
BEA
330
A02
100
AcDbEntity
  8
Shape2DView027
100
AcDbSpline
210
0
220
0
230
1
 70
8
 71
1
 72
4
 73
2
 74
0
 40
0
 40
0
 40
0.424264
 40
0.424264
 10
6.73875
 20
2.89813
 30
0
 10
6.69112
 20
2.94575
 30
0
  0
SPLINE
  5
BEB
330
A02
100
AcDbEntity
  8
Shape2DView027
100
AcDbSpline
210
0
220
0
230
1
 70
8
 71
1
 72
4
 73
2
 74
0
 40
0
 40
0
 40
0.424264
 40
0.424264
 10
6.69112
 20
2.94575
 30
0
 10
6.6435
 20
2.99338
 30
0
  0
SPLINE
  5
BEC
330
A02
100
AcDbEntity
  8
Shape2DView027
100
AcDbSpline
210
0
220
0
230
1
 70
8
 71
1
 72
4
 73
2
 74
0
 40
0
 40
0
 40
0.360555
 40
0.360555
 10
6.6435
 20
2.99338
 30
0
 10
6.61175
 20
3.041
 30
0
  0
SPLINE
  5
BED
330
A02
100
AcDbEntity
  8
Shape2DView027
100
AcDbSpline
210
0
220
0
230
1
 70
8
 71
1
 72
4
 73
2
 74
0
 40
0
 40
0
 40
0.360555
 40
0.360555
 10
6.61175
 20
3.041
 30
0
 10
6.56412
 20
3.07275
 30
0
  0
SPLINE
  5
BEE
330
A02
100
AcDbEntity
  8
Shape2DView027
100
AcDbSpline
210
0
220
0
230
1
 70
8
 71
1
 72
4
 73
2
 74
0
 40
0
 40
0
 40
0.424264
 40
0.424264
 10
6.56412
 20
3.07275
 30
0
 10
6.5165
 20
3.12038
 30
0
  0
SPLINE
  5
BEF
330
A02
100
AcDbEntity
  8
Shape2DView027
100
AcDbSpline
210
0
220
0
230
1
 70
8
 71
1
 72
4
 73
2
 74
0
 40
0
 40
0
 40
0.360555
 40
0.360555
 10
6.5165
 20
3.12038
 30
0
 10
6.46887
 20
3.15213
 30
0
  0
SPLINE
  5
BF0
330
A02
100
AcDbEntity
  8
Shape2DView027
100
AcDbSpline
210
0
220
0
230
1
 70
8
 71
1
 72
4
 73
2
 74
0
 40
0
 40
0
 40
0.360555
 40
0.360555
 10
6.46887
 20
3.15213
 30
0
 10
6.42125
 20
3.18388
 30
0
  0
SPLINE
  5
BF1
330
A02
100
AcDbEntity
  8
Shape2DView027
100
AcDbSpline
210
0
220
0
230
1
 70
8
 71
1
 72
4
 73
2
 74
0
 40
0
 40
0
 40
0.316228
 40
0.316228
 10
6.42125
 20
3.18388
 30
0
 10
6.37363
 20
3.19975
 30
0
  0
SPLINE
  5
BF2
330
A02
100
AcDbEntity
  8
Shape2DView027
100
AcDbSpline
210
0
220
0
230
1
 70
8
 71
1
 72
4
 73
2
 74
0
 40
0
 40
0
 40
0.447214
 40
0.447214
 10
6.37363
 20
3.19975
 30
0
 10
6.31013
 20
3.2315
 30
0
  0
SPLINE
  5
BF3
330
A02
100
AcDbEntity
  8
Shape2DView027
100
AcDbSpline
210
0
220
0
230
1
 70
8
 71
1
 72
4
 73
2
 74
0
 40
0
 40
0
 40
0.316228
 40
0.316228
 10
6.31013
 20
3.2315
 30
0
 10
6.2625
 20
3.24738
 30
0
  0
SPLINE
  5
BF4
330
A02
100
AcDbEntity
  8
Shape2DView027
100
AcDbSpline
210
0
220
0
230
1
 70
8
 71
1
 72
4
 73
2
 74
0
 40
0
 40
0
 40
0.1
 40
0.1
 10
6.2625
 20
3.24738
 30
0
 10
6.24662
 20
3.24738
 30
0
  0
SPLINE
  5
BF5
330
A02
100
AcDbEntity
  8
Shape2DView027
100
AcDbSpline
210
0
220
0
230
1
 70
8
 71
1
 72
4
 73
2
 74
0
 40
0
 40
0
 40
0.141421
 40
0.141421
 10
6.24662
 20
3.24738
 30
0
 10
6.23075
 20
3.2315
 30
0
  0
SPLINE
  5
BF6
330
A02
100
AcDbEntity
  8
Shape2DView027
100
AcDbSpline
210
0
220
0
230
1
 70
8
 71
1
 72
4
 73
2
 74
0
 40
0
 40
0
 40
0.1
 40
0.1
 10
6.23075
 20
3.2315
 30
0
 10
6.21487
 20
3.2315
 30
0
  0
SPLINE
  5
BF7
330
A02
100
AcDbEntity
  8
Shape2DView027
100
AcDbSpline
210
0
220
0
230
1
 70
8
 71
1
 72
4
 73
2
 74
0
 40
0
 40
0
 40
0.2
 40
0.2
 10
6.21487
 20
3.2315
 30
0
 10
6.18312
 20
3.2315
 30
0
  0
SPLINE
  5
BF8
330
A02
100
AcDbEntity
  8
Shape2DView027
100
AcDbSpline
210
0
220
0
230
1
 70
8
 71
1
 72
4
 73
2
 74
0
 40
0
 40
0
 40
0.1
 40
0.1
 10
6.18312
 20
3.2315
 30
0
 10
6.16725
 20
3.2315
 30
0
  0
SPLINE
  5
BF9
330
A02
100
AcDbEntity
  8
Shape2DView027
100
AcDbSpline
210
0
220
0
230
1
 70
8
 71
1
 72
4
 73
2
 74
0
 40
0
 40
0
 40
0.1
 40
0.1
 10
6.16725
 20
3.2315
 30
0
 10
6.15138
 20
3.2315
 30
0
  0
SPLINE
  5
BFA
330
A02
100
AcDbEntity
  8
Shape2DView027
100
AcDbSpline
210
0
220
0
230
1
 70
8
 71
1
 72
4
 73
2
 74
0
 40
0
 40
0
 40
0.1
 40
0.1
 10
6.15138
 20
3.2315
 30
0
 10
6.1355
 20
3.2315
 30
0
  0
SPLINE
  5
BFB
330
A02
100
AcDbEntity
  8
Shape2DView027
100
AcDbSpline
210
0
220
0
230
1
 70
8
 71
1
 72
4
 73
2
 74
0
 40
0
 40
0
 40
0.1
 40
0.1
 10
6.1355
 20
3.2315
 30
0
 10
6.11962
 20
3.2315
 30
0
  0
SPLINE
  5
BFC
330
A02
100
AcDbEntity
  8
Shape2DView027
100
AcDbSpline
210
0
220
0
230
1
 70
8
 71
1
 72
4
 73
2
 74
0
 40
0
 40
0
 40
0.1
 40
0.1
 10
6.11962
 20
3.2315
 30
0
 10
6.10375
 20
3.2315
 30
0
  0
SPLINE
  5
BFD
330
A02
100
AcDbEntity
  8
Shape2DView027
100
AcDbSpline
210
0
220
0
230
1
 70
8
 71
1
 72
4
 73
2
 74
0
 40
0
 40
0
 40
0.1
 40
0.1
 10
6.10375
 20
3.2315
 30
0
 10
6.08788
 20
3.2315
 30
0
  0
SPLINE
  5
BFE
330
A02
100
AcDbEntity
  8
Shape2DView027
100
AcDbSpline
210
0
220
0
230
1
 70
8
 71
1
 72
4
 73
2
 74
0
 40
0
 40
0
 40
0.141421
 40
0.141421
 10
6.08788
 20
3.2315
 30
0
 10
6.072
 20
3.24738
 30
0
  0
SPLINE
  5
BFF
330
A02
100
AcDbEntity
  8
Shape2DView027
100
AcDbSpline
210
0
220
0
230
1
 70
8
 71
1
 72
4
 73
2
 74
0
 40
0
 40
0
 40
0.1
 40
0.1
 10
6.072
 20
3.24738
 30
0
 10
6.05613
 20
3.24738
 30
0
  0
SPLINE
  5
C00
330
A02
100
AcDbEntity
  8
Shape2DView027
100
AcDbSpline
210
0
220
0
230
1
 70
8
 71
1
 72
4
 73
2
 74
0
 40
0
 40
0
 40
0.1
 40
0.1
 10
6.05613
 20
3.24738
 30
0
 10
6.04025
 20
3.24738
 30
0
  0
SPLINE
  5
C01
330
A02
100
AcDbEntity
  8
Shape2DView027
100
AcDbSpline
210
0
220
0
230
1
 70
8
 71
1
 72
4
 73
2
 74
0
 40
0
 40
0
 40
0.1
 40
0.1
 10
6.04025
 20
3.24738
 30
0
 10
6.04025
 20
3.26325
 30
0
  0
SPLINE
  5
C02
330
A02
100
AcDbEntity
  8
Shape2DView027
100
AcDbSpline
210
0
220
0
230
1
 70
8
 71
1
 72
4
 73
2
 74
0
 40
0
 40
0
 40
0.1
 40
0.1
 10
6.04025
 20
3.26325
 30
0
 10
6.02437
 20
3.26325
 30
0
  0
SPLINE
  5
C03
330
A02
100
AcDbEntity
  8
Shape2DView027
100
AcDbSpline
210
0
220
0
230
1
 70
8
 71
1
 72
4
 73
2
 74
0
 40
0
 40
0
 40
0.141421
 40
0.141421
 10
6.02437
 20
3.26325
 30
0
 10
6.0085
 20
3.27913
 30
0
  0
SPLINE
  5
C04
330
A02
100
AcDbEntity
  8
Shape2DView027
100
AcDbSpline
210
0
220
0
230
1
 70
8
 71
1
 72
4
 73
2
 74
0
 40
0
 40
0
 40
0.141421
 40
0.141421
 10
6.0085
 20
3.27913
 30
0
 10
5.99263
 20
3.295
 30
0
  0
SPLINE
  5
C05
330
A02
100
AcDbEntity
  8
Shape2DView027
100
AcDbSpline
210
0
220
0
230
1
 70
8
 71
1
 72
4
 73
2
 74
0
 40
0
 40
0
 40
0.141421
 40
0.141421
 10
5.99263
 20
3.295
 30
0
 10
5.97675
 20
3.31088
 30
0
  0
SPLINE
  5
C06
330
A02
100
AcDbEntity
  8
Shape2DView027
100
AcDbSpline
210
0
220
0
230
1
 70
8
 71
1
 72
4
 73
2
 74
0
 40
0
 40
0
 40
0.1
 40
0.1
 10
5.97675
 20
3.31088
 30
0
 10
5.96087
 20
3.31088
 30
0
  0
SPLINE
  5
C07
330
A02
100
AcDbEntity
  8
Shape2DView027
100
AcDbSpline
210
0
220
0
230
1
 70
8
 71
1
 72
4
 73
2
 74
0
 40
0
 40
0
 40
0.1
 40
0.1
 10
5.96087
 20
3.31088
 30
0
 10
5.96087
 20
3.32675
 30
0
  0
SPLINE
  5
C08
330
A02
100
AcDbEntity
  8
Shape2DView027
100
AcDbSpline
210
0
220
0
230
1
 70
8
 71
1
 72
4
 73
2
 74
0
 40
0
 40
0
 40
0.141421
 40
0.141421
 10
5.96087
 20
3.32675
 30
0
 10
5.945
 20
3.34263
 30
0
  0
SPLINE
  5
C09
330
A02
100
AcDbEntity
  8
Shape2DView027
100
AcDbSpline
210
0
220
0
230
1
 70
8
 71
1
 72
4
 73
2
 74
0
 40
0
 40
0
 40
0.141421
 40
0.141421
 10
5.945
 20
3.34263
 30
0
 10
5.92912
 20
3.3585
 30
0
  0
SPLINE
  5
C0A
330
A02
100
AcDbEntity
  8
Shape2DView027
100
AcDbSpline
210
0
220
0
230
1
 70
8
 71
1
 72
4
 73
2
 74
0
 40
0
 40
0
 40
0.1
 40
0.1
 10
5.92912
 20
3.3585
 30
0
 10
5.91325
 20
3.3585
 30
0
  0
SPLINE
  5
C0B
330
A02
100
AcDbEntity
  8
Shape2DView027
100
AcDbSpline
210
0
220
0
230
1
 70
8
 71
1
 72
4
 73
2
 74
0
 40
0
 40
0
 40
0.1
 40
0.1
 10
5.91325
 20
3.3585
 30
0
 10
5.91325
 20
3.37438
 30
0
  0
SPLINE
  5
C0C
330
A02
100
AcDbEntity
  8
Shape2DView027
100
AcDbSpline
210
0
220
0
230
1
 70
8
 71
1
 72
4
 73
2
 74
0
 40
0
 40
0
 40
0.141421
 40
0.141421
 10
5.91325
 20
3.37438
 30
0
 10
5.89738
 20
3.39025
 30
0
  0
SPLINE
  5
C0D
330
A02
100
AcDbEntity
  8
Shape2DView027
100
AcDbSpline
210
0
220
0
230
1
 70
8
 71
1
 72
4
 73
2
 74
0
 40
0
 40
0
 40
0.223607
 40
0.223607
 10
5.89738
 20
3.39025
 30
0
 10
5.8815
 20
3.422
 30
0
  0
SPLINE
  5
C0E
330
A02
100
AcDbEntity
  8
Shape2DView027
100
AcDbSpline
210
0
220
0
230
1
 70
8
 71
1
 72
4
 73
2
 74
0
 40
0
 40
0
 40
0.1
 40
0.1
 10
5.8815
 20
3.422
 30
0
 10
5.8815
 20
3.43788
 30
0
  0
SPLINE
  5
C0F
330
A02
100
AcDbEntity
  8
Shape2DView027
100
AcDbSpline
210
0
220
0
230
1
 70
8
 71
1
 72
4
 73
2
 74
0
 40
0
 40
0
 40
0.1
 40
0.1
 10
5.8815
 20
3.43788
 30
0
 10
5.86562
 20
3.43788
 30
0
  0
SPLINE
  5
C10
330
A02
100
AcDbEntity
  8
Shape2DView027
100
AcDbSpline
210
0
220
0
230
1
 70
8
 71
1
 72
4
 73
2
 74
0
 40
0
 40
0
 40
0.2
 40
0.2
 10
5.86562
 20
3.43788
 30
0
 10
5.86562
 20
3.46963
 30
0
  0
SPLINE
  5
C11
330
A02
100
AcDbEntity
  8
Shape2DView027
100
AcDbSpline
210
0
220
0
230
1
 70
8
 71
1
 72
4
 73
2
 74
0
 40
0
 40
0
 40
0.223607
 40
0.223607
 10
5.86562
 20
3.46963
 30
0
 10
5.84975
 20
3.50137
 30
0
  0
SPLINE
  5
C12
330
A02
100
AcDbEntity
  8
Shape2DView027
100
AcDbSpline
210
0
220
0
230
1
 70
8
 71
1
 72
4
 73
2
 74
0
 40
0
 40
0
 40
0.141421
 40
0.141421
 10
5.84975
 20
3.50137
 30
0
 10
5.83387
 20
3.51725
 30
0
  0
SPLINE
  5
C13
330
A02
100
AcDbEntity
  8
Shape2DView027
100
AcDbSpline
210
0
220
0
230
1
 70
8
 71
1
 72
4
 73
2
 74
0
 40
0
 40
0
 40
0.223607
 40
0.223607
 10
5.83387
 20
3.51725
 30
0
 10
5.818
 20
3.549
 30
0
  0
SPLINE
  5
C14
330
A02
100
AcDbEntity
  8
Shape2DView027
100
AcDbSpline
210
0
220
0
230
1
 70
8
 71
1
 72
4
 73
2
 74
0
 40
0
 40
0
 40
0.2
 40
0.2
 10
5.818
 20
3.549
 30
0
 10
5.818
 20
3.58075
 30
0
  0
SPLINE
  5
C15
330
A02
100
AcDbEntity
  8
Shape2DView027
100
AcDbSpline
210
0
220
0
230
1
 70
8
 71
1
 72
4
 73
2
 74
0
 40
0
 40
0
 40
0.141421
 40
0.141421
 10
5.818
 20
3.58075
 30
0
 10
5.80213
 20
3.59663
 30
0
  0
SPLINE
  5
C16
330
A02
100
AcDbEntity
  8
Shape2DView027
100
AcDbSpline
210
0
220
0
230
1
 70
8
 71
1
 72
4
 73
2
 74
0
 40
0
 40
0
 40
0.1
 40
0.1
 10
5.80213
 20
3.59663
 30
0
 10
5.80213
 20
3.6125
 30
0
  0
SPLINE
  5
C17
330
A02
100
AcDbEntity
  8
Shape2DView027
100
AcDbSpline
210
0
220
0
230
1
 70
8
 71
1
 72
4
 73
2
 74
0
 40
0
 40
0
 40
0.223607
 40
0.223607
 10
5.80213
 20
3.6125
 30
0
 10
5.78625
 20
3.64425
 30
0
  0
SPLINE
  5
C18
330
A02
100
AcDbEntity
  8
Shape2DView027
100
AcDbSpline
210
0
220
0
230
1
 70
8
 71
1
 72
4
 73
2
 74
0
 40
0
 40
0
 40
0.3
 40
0.3
 10
5.78625
 20
3.64425
 30
0
 10
5.78625
 20
3.69188
 30
0
  0
SPLINE
  5
C19
330
A02
100
AcDbEntity
  8
Shape2DView027
100
AcDbSpline
210
0
220
0
230
1
 70
8
 71
1
 72
4
 73
2
 74
0
 40
0
 40
0
 40
0.223607
 40
0.223607
 10
5.78625
 20
3.69188
 30
0
 10
5.77037
 20
3.72363
 30
0
  0
SPLINE
  5
C1A
330
A02
100
AcDbEntity
  8
Shape2DView027
100
AcDbSpline
210
0
220
0
230
1
 70
8
 71
1
 72
4
 73
2
 74
0
 40
0
 40
0
 40
0.223607
 40
0.223607
 10
5.77037
 20
3.72363
 30
0
 10
5.7545
 20
3.75538
 30
0
  0
SPLINE
  5
C1B
330
A02
100
AcDbEntity
  8
Shape2DView027
100
AcDbSpline
210
0
220
0
230
1
 70
8
 71
1
 72
4
 73
2
 74
0
 40
0
 40
0
 40
3.32415
 40
3.32415
 10
5.7545
 20
3.75538
 30
0
 10
5.38937
 20
4.13637
 30
0
  0
SPLINE
  5
C1C
330
A02
100
AcDbEntity
  8
Shape2DView027
100
AcDbSpline
210
0
220
0
230
1
 70
8
 71
1
 72
4
 73
2
 74
0
 40
0
 40
0
 40
0.223607
 40
0.223607
 10
5.38937
 20
4.13637
 30
0
 10
5.35762
 20
4.1205
 30
0
  0
SPLINE
  5
C1D
330
A02
100
AcDbEntity
  8
Shape2DView027
100
AcDbSpline
210
0
220
0
230
1
 70
8
 71
1
 72
4
 73
2
 74
0
 40
0
 40
0
 40
0.316228
 40
0.316228
 10
5.35762
 20
4.1205
 30
0
 10
5.31
 20
4.10463
 30
0
  0
SPLINE
  5
C1E
330
A02
100
AcDbEntity
  8
Shape2DView027
100
AcDbSpline
210
0
220
0
230
1
 70
8
 71
1
 72
4
 73
2
 74
0
 40
0
 40
0
 40
0.2
 40
0.2
 10
5.31
 20
4.10463
 30
0
 10
5.27825
 20
4.10463
 30
0
  0
SPLINE
  5
C1F
330
A02
100
AcDbEntity
  8
Shape2DView027
100
AcDbSpline
210
0
220
0
230
1
 70
8
 71
1
 72
4
 73
2
 74
0
 40
0
 40
0
 40
0.316228
 40
0.316228
 10
5.27825
 20
4.10463
 30
0
 10
5.23062
 20
4.08875
 30
0
  0
SPLINE
  5
C20
330
A02
100
AcDbEntity
  8
Shape2DView027
100
AcDbSpline
210
0
220
0
230
1
 70
8
 71
1
 72
4
 73
2
 74
0
 40
0
 40
0
 40
0.223607
 40
0.223607
 10
5.23062
 20
4.08875
 30
0
 10
5.19887
 20
4.07288
 30
0
  0
SPLINE
  5
C21
330
A02
100
AcDbEntity
  8
Shape2DView027
100
AcDbSpline
210
0
220
0
230
1
 70
8
 71
1
 72
4
 73
2
 74
0
 40
0
 40
0
 40
0.223607
 40
0.223607
 10
5.19887
 20
4.07288
 30
0
 10
5.16712
 20
4.057
 30
0
  0
SPLINE
  5
C22
330
A02
100
AcDbEntity
  8
Shape2DView027
100
AcDbSpline
210
0
220
0
230
1
 70
8
 71
1
 72
4
 73
2
 74
0
 40
0
 40
0
 40
0.223607
 40
0.223607
 10
5.16712
 20
4.057
 30
0
 10
5.13537
 20
4.04113
 30
0
  0
SPLINE
  5
C23
330
A02
100
AcDbEntity
  8
Shape2DView027
100
AcDbSpline
210
0
220
0
230
1
 70
8
 71
1
 72
4
 73
2
 74
0
 40
0
 40
0
 40
0.223607
 40
0.223607
 10
5.13537
 20
4.04113
 30
0
 10
5.10362
 20
4.02525
 30
0
  0
SPLINE
  5
C24
330
A02
100
AcDbEntity
  8
Shape2DView027
100
AcDbSpline
210
0
220
0
230
1
 70
8
 71
1
 72
4
 73
2
 74
0
 40
0
 40
0
 40
0.223607
 40
0.223607
 10
5.10362
 20
4.02525
 30
0
 10
5.07187
 20
4.00938
 30
0
  0
SPLINE
  5
C25
330
A02
100
AcDbEntity
  8
Shape2DView027
100
AcDbSpline
210
0
220
0
230
1
 70
8
 71
1
 72
4
 73
2
 74
0
 40
0
 40
0
 40
0.141421
 40
0.141421
 10
5.07187
 20
4.00938
 30
0
 10
5.056
 20
3.9935
 30
0
  0
SPLINE
  5
C26
330
A02
100
AcDbEntity
  8
Shape2DView027
100
AcDbSpline
210
0
220
0
230
1
 70
8
 71
1
 72
4
 73
2
 74
0
 40
0
 40
0
 40
0.223607
 40
0.223607
 10
5.056
 20
3.9935
 30
0
 10
5.02425
 20
3.97763
 30
0
  0
SPLINE
  5
C27
330
A02
100
AcDbEntity
  8
Shape2DView027
100
AcDbSpline
210
0
220
0
230
1
 70
8
 71
1
 72
4
 73
2
 74
0
 40
0
 40
0
 40
0.141421
 40
0.141421
 10
5.02425
 20
3.97763
 30
0
 10
5.00837
 20
3.96175
 30
0
  0
SPLINE
  5
C28
330
A02
100
AcDbEntity
  8
Shape2DView027
100
AcDbSpline
210
0
220
0
230
1
 70
8
 71
1
 72
4
 73
2
 74
0
 40
0
 40
0
 40
0.223607
 40
0.223607
 10
5.00837
 20
3.96175
 30
0
 10
4.97662
 20
3.94588
 30
0
  0
SPLINE
  5
C29
330
A02
100
AcDbEntity
  8
Shape2DView027
100
AcDbSpline
210
0
220
0
230
1
 70
8
 71
1
 72
4
 73
2
 74
0
 40
0
 40
0
 40
0.141421
 40
0.141421
 10
4.97662
 20
3.94588
 30
0
 10
4.96075
 20
3.93
 30
0
  0
SPLINE
  5
C2A
330
A02
100
AcDbEntity
  8
Shape2DView027
100
AcDbSpline
210
0
220
0
230
1
 70
8
 71
1
 72
4
 73
2
 74
0
 40
0
 40
0
 40
0.223607
 40
0.223607
 10
4.96075
 20
3.93
 30
0
 10
4.94487
 20
3.89825
 30
0
  0
SPLINE
  5
C2B
330
A02
100
AcDbEntity
  8
Shape2DView027
100
AcDbSpline
210
0
220
0
230
1
 70
8
 71
1
 72
4
 73
2
 74
0
 40
0
 40
0
 40
0.141421
 40
0.141421
 10
4.94487
 20
3.89825
 30
0
 10
4.929
 20
3.88238
 30
0
  0
SPLINE
  5
C2C
330
A02
100
AcDbEntity
  8
Shape2DView027
100
AcDbSpline
210
0
220
0
230
1
 70
8
 71
1
 72
4
 73
2
 74
0
 40
0
 40
0
 40
0.282843
 40
0.282843
 10
4.929
 20
3.88238
 30
0
 10
4.89725
 20
3.85063
 30
0
  0
SPLINE
  5
C2D
330
A02
100
AcDbEntity
  8
Shape2DView027
100
AcDbSpline
210
0
220
0
230
1
 70
8
 71
1
 72
4
 73
2
 74
0
 40
0
 40
0
 40
0.141421
 40
0.141421
 10
4.89725
 20
3.85063
 30
0
 10
4.88138
 20
3.83475
 30
0
  0
SPLINE
  5
C2E
330
A02
100
AcDbEntity
  8
Shape2DView027
100
AcDbSpline
210
0
220
0
230
1
 70
8
 71
1
 72
4
 73
2
 74
0
 40
0
 40
0
 40
0.223607
 40
0.223607
 10
4.88138
 20
3.83475
 30
0
 10
4.8655
 20
3.803
 30
0
  0
SPLINE
  5
C2F
330
A02
100
AcDbEntity
  8
Shape2DView027
100
AcDbSpline
210
0
220
0
230
1
 70
8
 71
1
 72
4
 73
2
 74
0
 40
0
 40
0
 40
0.223607
 40
0.223607
 10
4.8655
 20
3.803
 30
0
 10
4.84962
 20
3.77125
 30
0
  0
SPLINE
  5
C30
330
A02
100
AcDbEntity
  8
Shape2DView027
100
AcDbSpline
210
0
220
0
230
1
 70
8
 71
1
 72
4
 73
2
 74
0
 40
0
 40
0
 40
0.2
 40
0.2
 10
4.84962
 20
3.77125
 30
0
 10
4.84962
 20
3.7395
 30
0
  0
SPLINE
  5
C31
330
A02
100
AcDbEntity
  8
Shape2DView027
100
AcDbSpline
210
0
220
0
230
1
 70
8
 71
1
 72
4
 73
2
 74
0
 40
0
 40
0
 40
0.223607
 40
0.223607
 10
4.84962
 20
3.7395
 30
0
 10
4.83375
 20
3.70775
 30
0
  0
SPLINE
  5
C32
330
A02
100
AcDbEntity
  8
Shape2DView027
100
AcDbSpline
210
0
220
0
230
1
 70
8
 71
1
 72
4
 73
2
 74
0
 40
0
 40
0
 40
0.2
 40
0.2
 10
4.83375
 20
3.70775
 30
0
 10
4.83375
 20
3.676
 30
0
  0
SPLINE
  5
C33
330
A02
100
AcDbEntity
  8
Shape2DView027
100
AcDbSpline
210
0
220
0
230
1
 70
8
 71
1
 72
4
 73
2
 74
0
 40
0
 40
0
 40
0.223607
 40
0.223607
 10
4.83375
 20
3.676
 30
0
 10
4.81787
 20
3.64425
 30
0
  0
SPLINE
  5
C34
330
A02
100
AcDbEntity
  8
Shape2DView027
100
AcDbSpline
210
0
220
0
230
1
 70
8
 71
1
 72
4
 73
2
 74
0
 40
0
 40
0
 40
3.30151
 40
3.30151
 10
4.81787
 20
3.64425
 30
0
 10
5.1195
 20
3.21563
 30
0
  0
SPLINE
  5
C35
330
A02
100
AcDbEntity
  8
Shape2DView027
100
AcDbSpline
210
0
220
0
230
1
 70
8
 71
1
 72
4
 73
2
 74
0
 40
0
 40
0
 40
0.316228
 40
0.316228
 10
5.1195
 20
3.21563
 30
0
 10
5.16712
 20
3.19975
 30
0
  0
SPLINE
  5
C36
330
A02
100
AcDbEntity
  8
Shape2DView027
100
AcDbSpline
210
0
220
0
230
1
 70
8
 71
1
 72
4
 73
2
 74
0
 40
0
 40
0
 40
0.2
 40
0.2
 10
5.16712
 20
3.19975
 30
0
 10
5.19887
 20
3.19975
 30
0
  0
SPLINE
  5
C37
330
A02
100
AcDbEntity
  8
Shape2DView027
100
AcDbSpline
210
0
220
0
230
1
 70
8
 71
1
 72
4
 73
2
 74
0
 40
0
 40
0
 40
0.223607
 40
0.223607
 10
5.19887
 20
3.19975
 30
0
 10
5.23062
 20
3.18388
 30
0
  0
SPLINE
  5
C38
330
A02
100
AcDbEntity
  8
Shape2DView027
100
AcDbSpline
210
0
220
0
230
1
 70
8
 71
1
 72
4
 73
2
 74
0
 40
0
 40
0
 40
0.2
 40
0.2
 10
5.23062
 20
3.18388
 30
0
 10
5.26237
 20
3.18388
 30
0
  0
SPLINE
  5
C39
330
A02
100
AcDbEntity
  8
Shape2DView027
100
AcDbSpline
210
0
220
0
230
1
 70
8
 71
1
 72
4
 73
2
 74
0
 40
0
 40
0
 40
0.538516
 40
0.538516
 10
5.26237
 20
3.18388
 30
0
 10
5.34175
 20
3.15213
 30
0
  0
SPLINE
  5
C3A
330
A02
100
AcDbEntity
  8
Shape2DView027
100
AcDbSpline
210
0
220
0
230
1
 70
8
 71
1
 72
4
 73
2
 74
0
 40
0
 40
0
 40
0.360555
 40
0.360555
 10
5.34175
 20
3.15213
 30
0
 10
5.38937
 20
3.12038
 30
0
  0
SPLINE
  5
C3B
330
A02
100
AcDbEntity
  8
Shape2DView027
100
AcDbSpline
210
0
220
0
230
1
 70
8
 71
1
 72
4
 73
2
 74
0
 40
0
 40
0
 40
0.447214
 40
0.447214
 10
5.38937
 20
3.12038
 30
0
 10
5.45287
 20
3.08863
 30
0
  0
SPLINE
  5
C3C
330
A02
100
AcDbEntity
  8
Shape2DView027
100
AcDbSpline
210
0
220
0
230
1
 70
8
 71
1
 72
4
 73
2
 74
0
 40
0
 40
0
 40
0.360555
 40
0.360555
 10
5.45287
 20
3.08863
 30
0
 10
5.5005
 20
3.05688
 30
0
  0
SPLINE
  5
C3D
330
A02
100
AcDbEntity
  8
Shape2DView027
100
AcDbSpline
210
0
220
0
230
1
 70
8
 71
1
 72
4
 73
2
 74
0
 40
0
 40
0
 40
0.223607
 40
0.223607
 10
5.5005
 20
3.05688
 30
0
 10
5.51638
 20
3.02513
 30
0
  0
SPLINE
  5
C3E
330
A02
100
AcDbEntity
  8
Shape2DView027
100
AcDbSpline
210
0
220
0
230
1
 70
8
 71
1
 72
4
 73
2
 74
0
 40
0
 40
0
 40
0.223607
 40
0.223607
 10
5.51638
 20
3.02513
 30
0
 10
5.54812
 20
3.00925
 30
0
  0
SPLINE
  5
C3F
330
A02
100
AcDbEntity
  8
Shape2DView027
100
AcDbSpline
210
0
220
0
230
1
 70
8
 71
1
 72
4
 73
2
 74
0
 40
0
 40
0
 40
0.223607
 40
0.223607
 10
5.54812
 20
3.00925
 30
0
 10
5.564
 20
2.9775
 30
0
  0
SPLINE
  5
C40
330
A02
100
AcDbEntity
  8
Shape2DView027
100
AcDbSpline
210
0
220
0
230
1
 70
8
 71
1
 72
4
 73
2
 74
0
 40
0
 40
0
 40
0.141421
 40
0.141421
 10
5.564
 20
2.9775
 30
0
 10
5.57988
 20
2.96163
 30
0
  0
SPLINE
  5
C41
330
A02
100
AcDbEntity
  8
Shape2DView027
100
AcDbSpline
210
0
220
0
230
1
 70
8
 71
1
 72
4
 73
2
 74
0
 40
0
 40
0
 40
0.223607
 40
0.223607
 10
5.57988
 20
2.96163
 30
0
 10
5.59575
 20
2.92988
 30
0
  0
SPLINE
  5
C42
330
A02
100
AcDbEntity
  8
Shape2DView027
100
AcDbSpline
210
0
220
0
230
1
 70
8
 71
1
 72
4
 73
2
 74
0
 40
0
 40
0
 40
0.223607
 40
0.223607
 10
5.59575
 20
2.92988
 30
0
 10
5.61162
 20
2.89813
 30
0
  0
SPLINE
  5
C43
330
A02
100
AcDbEntity
  8
Shape2DView027
100
AcDbSpline
210
0
220
0
230
1
 70
8
 71
1
 72
4
 73
2
 74
0
 40
0
 40
0
 40
0.141421
 40
0.141421
 10
5.61162
 20
2.89813
 30
0
 10
5.6275
 20
2.88225
 30
0
  0
SPLINE
  5
C44
330
A02
100
AcDbEntity
  8
Shape2DView027
100
AcDbSpline
210
0
220
0
230
1
 70
8
 71
1
 72
4
 73
2
 74
0
 40
0
 40
0
 40
0.2
 40
0.2
 10
5.6275
 20
2.88225
 30
0
 10
5.6275
 20
2.8505
 30
0
  0
SPLINE
  5
C45
330
A02
100
AcDbEntity
  8
Shape2DView027
100
AcDbSpline
210
0
220
0
230
1
 70
8
 71
1
 72
4
 73
2
 74
0
 40
0
 40
0
 40
0.223607
 40
0.223607
 10
5.6275
 20
2.8505
 30
0
 10
5.64337
 20
2.81875
 30
0
  0
SPLINE
  5
C46
330
A02
100
AcDbEntity
  8
Shape2DView027
100
AcDbSpline
210
0
220
0
230
1
 70
8
 71
1
 72
4
 73
2
 74
0
 40
0
 40
0
 40
0.223607
 40
0.223607
 10
5.64337
 20
2.81875
 30
0
 10
5.65925
 20
2.787
 30
0
  0
SPLINE
  5
C47
330
A02
100
AcDbEntity
  8
Shape2DView027
100
AcDbSpline
210
0
220
0
230
1
 70
8
 71
1
 72
4
 73
2
 74
0
 40
0
 40
0
 40
0.3
 40
0.3
 10
5.65925
 20
2.787
 30
0
 10
5.65925
 20
2.73938
 30
0
  0
SPLINE
  5
C48
330
A02
100
AcDbEntity
  8
Shape2DView027
100
AcDbSpline
210
0
220
0
230
1
 70
8
 71
1
 72
4
 73
2
 74
0
 40
0
 40
0
 40
0.2
 40
0.2
 10
5.65925
 20
2.73938
 30
0
 10
5.65925
 20
2.70763
 30
0
  0
SPLINE
  5
C49
330
A02
100
AcDbEntity
  8
Shape2DView027
100
AcDbSpline
210
0
220
0
230
1
 70
8
 71
1
 72
4
 73
2
 74
0
 40
0
 40
0
 40
0.223607
 40
0.223607
 10
5.65925
 20
2.70763
 30
0
 10
5.67512
 20
2.67588
 30
0
  0
SPLINE
  5
C4A
330
A02
100
AcDbEntity
  8
Shape2DView027
100
AcDbSpline
210
0
220
0
230
1
 70
8
 71
1
 72
4
 73
2
 74
0
 40
0
 40
0
 40
0.3
 40
0.3
 10
5.67512
 20
2.67588
 30
0
 10
5.67512
 20
2.62825
 30
0
  0
SPLINE
  5
C4B
330
A02
100
AcDbEntity
  8
Shape2DView027
100
AcDbSpline
210
0
220
0
230
1
 70
8
 71
1
 72
4
 73
2
 74
0
 40
0
 40
0
 40
0.2
 40
0.2
 10
5.67512
 20
2.62825
 30
0
 10
5.67512
 20
2.5965
 30
0
  0
SPLINE
  5
C4C
330
A02
100
AcDbEntity
  8
Shape2DView027
100
AcDbSpline
210
0
220
0
230
1
 70
8
 71
1
 72
4
 73
2
 74
0
 40
0
 40
0
 40
0.3
 40
0.3
 10
5.67512
 20
2.5965
 30
0
 10
5.67512
 20
2.54888
 30
0
  0
SPLINE
  5
C4D
330
A02
100
AcDbEntity
  8
Shape2DView027
100
AcDbSpline
210
0
220
0
230
1
 70
8
 71
1
 72
4
 73
2
 74
0
 40
0
 40
0
 40
0.5
 40
0.5
 10
5.67512
 20
2.54888
 30
0
 10
5.67512
 20
2.4695
 30
0
  0
SPLINE
  5
C4E
330
A02
100
AcDbEntity
  8
Shape2DView027
100
AcDbSpline
210
0
220
0
230
1
 70
8
 71
1
 72
4
 73
2
 74
0
 40
0
 40
0
 40
0.608276
 40
0.608276
 10
5.67512
 20
2.4695
 30
0
 10
5.65925
 20
2.37425
 30
0
  0
SPLINE
  5
C4F
330
A02
100
AcDbEntity
  8
Shape2DView027
100
AcDbSpline
210
0
220
0
230
1
 70
8
 71
1
 72
4
 73
2
 74
0
 40
0
 40
0
 40
0.223607
 40
0.223607
 10
5.65925
 20
2.37425
 30
0
 10
5.6275
 20
2.35838
 30
0
  0
SPLINE
  5
C50
330
A02
100
AcDbEntity
  8
Shape2DView027
100
AcDbSpline
210
0
220
0
230
1
 70
8
 71
1
 72
4
 73
2
 74
0
 40
0
 40
0
 40
0.141421
 40
0.141421
 10
5.6275
 20
2.35838
 30
0
 10
5.61162
 20
2.3425
 30
0
  0
SPLINE
  5
C51
330
A02
100
AcDbEntity
  8
Shape2DView027
100
AcDbSpline
210
0
220
0
230
1
 70
8
 71
1
 72
4
 73
2
 74
0
 40
0
 40
0
 40
0.360555
 40
0.360555
 10
5.61162
 20
2.3425
 30
0
 10
5.564
 20
2.31075
 30
0
  0
SPLINE
  5
C52
330
A02
100
AcDbEntity
  8
Shape2DView027
100
AcDbSpline
210
0
220
0
230
1
 70
8
 71
1
 72
4
 73
2
 74
0
 40
0
 40
0
 40
0.141421
 40
0.141421
 10
5.564
 20
2.31075
 30
0
 10
5.54812
 20
2.29488
 30
0
  0
SPLINE
  5
C53
330
A02
100
AcDbEntity
  8
Shape2DView027
100
AcDbSpline
210
0
220
0
230
1
 70
8
 71
1
 72
4
 73
2
 74
0
 40
0
 40
0
 40
0.223607
 40
0.223607
 10
5.54812
 20
2.29488
 30
0
 10
5.53225
 20
2.26313
 30
0
  0
SPLINE
  5
C54
330
A02
100
AcDbEntity
  8
Shape2DView027
100
AcDbSpline
210
0
220
0
230
1
 70
8
 71
1
 72
4
 73
2
 74
0
 40
0
 40
0
 40
0.360555
 40
0.360555
 10
5.53225
 20
2.26313
 30
0
 10
5.48462
 20
2.23137
 30
0
  0
SPLINE
  5
C55
330
A02
100
AcDbEntity
  8
Shape2DView027
100
AcDbSpline
210
0
220
0
230
1
 70
8
 71
1
 72
4
 73
2
 74
0
 40
0
 40
0
 40
0.141421
 40
0.141421
 10
5.48462
 20
2.23137
 30
0
 10
5.46875
 20
2.2155
 30
0
  0
SPLINE
  5
C56
330
A02
100
AcDbEntity
  8
Shape2DView027
100
AcDbSpline
210
0
220
0
230
1
 70
8
 71
1
 72
4
 73
2
 74
0
 40
0
 40
0
 40
0.1
 40
0.1
 10
5.46875
 20
2.2155
 30
0
 10
5.46875
 20
2.19963
 30
0
  0
SPLINE
  5
C57
330
A02
100
AcDbEntity
  8
Shape2DView027
100
AcDbSpline
210
0
220
0
230
1
 70
8
 71
1
 72
4
 73
2
 74
0
 40
0
 40
0
 40
0.223607
 40
0.223607
 10
5.46875
 20
2.19963
 30
0
 10
5.45287
 20
2.16788
 30
0
  0
SPLINE
  5
C58
330
A02
100
AcDbEntity
  8
Shape2DView027
100
AcDbSpline
210
0
220
0
230
1
 70
8
 71
1
 72
4
 73
2
 74
0
 40
0
 40
0
 40
0.141421
 40
0.141421
 10
5.45287
 20
2.16788
 30
0
 10
5.437
 20
2.152
 30
0
  0
SPLINE
  5
C59
330
A02
100
AcDbEntity
  8
Shape2DView027
100
AcDbSpline
210
0
220
0
230
1
 70
8
 71
1
 72
4
 73
2
 74
0
 40
0
 40
0
 40
0.223607
 40
0.223607
 10
5.437
 20
2.152
 30
0
 10
5.42112
 20
2.12025
 30
0
  0
SPLINE
  5
C5A
330
A02
100
AcDbEntity
  8
Shape2DView027
100
AcDbSpline
210
0
220
0
230
1
 70
8
 71
1
 72
4
 73
2
 74
0
 40
0
 40
0
 40
0.1
 40
0.1
 10
5.42112
 20
2.12025
 30
0
 10
5.42112
 20
2.10438
 30
0
  0
SPLINE
  5
C5B
330
A02
100
AcDbEntity
  8
Shape2DView027
100
AcDbSpline
210
0
220
0
230
1
 70
8
 71
1
 72
4
 73
2
 74
0
 40
0
 40
0
 40
0.2
 40
0.2
 10
5.42112
 20
2.10438
 30
0
 10
5.42112
 20
2.07263
 30
0
  0
SPLINE
  5
C5C
330
A02
100
AcDbEntity
  8
Shape2DView027
100
AcDbSpline
210
0
220
0
230
1
 70
8
 71
1
 72
4
 73
2
 74
0
 40
0
 40
0
 40
1.41421
 40
1.41421
 10
5.42112
 20
2.07263
 30
0
 10
5.26237
 20
1.91388
 30
0
  0
SPLINE
  5
C5D
330
A02
100
AcDbEntity
  8
Shape2DView027
100
AcDbSpline
210
0
220
0
230
1
 70
8
 71
1
 72
4
 73
2
 74
0
 40
0
 40
0
 40
0.360555
 40
0.360555
 10
5.26237
 20
1.91388
 30
0
 10
5.21475
 20
1.88213
 30
0
  0
SPLINE
  5
C5E
330
A02
100
AcDbEntity
  8
Shape2DView027
100
AcDbSpline
210
0
220
0
230
1
 70
8
 71
1
 72
4
 73
2
 74
0
 40
0
 40
0
 40
0.141421
 40
0.141421
 10
5.21475
 20
1.88213
 30
0
 10
5.19887
 20
1.86625
 30
0
  0
SPLINE
  5
C5F
330
A02
100
AcDbEntity
  8
Shape2DView027
100
AcDbSpline
210
0
220
0
230
1
 70
8
 71
1
 72
4
 73
2
 74
0
 40
0
 40
0
 40
0.223607
 40
0.223607
 10
5.19887
 20
1.86625
 30
0
 10
5.183
 20
1.8345
 30
0
  0
SPLINE
  5
C60
330
A02
100
AcDbEntity
  8
Shape2DView027
100
AcDbSpline
210
0
220
0
230
1
 70
8
 71
1
 72
4
 73
2
 74
0
 40
0
 40
0
 40
0.707107
 40
0.707107
 10
5.183
 20
1.8345
 30
0
 10
5.10362
 20
1.75512
 30
0
  0
SPLINE
  5
C61
330
A02
100
AcDbEntity
  8
Shape2DView027
100
AcDbSpline
210
0
220
0
230
1
 70
8
 71
1
 72
4
 73
2
 74
0
 40
0
 40
0
 40
0.640312
 40
0.640312
 10
5.10362
 20
1.75512
 30
0
 10
5.02425
 20
1.69163
 30
0
  0
SPLINE
  5
C62
330
A02
100
AcDbEntity
  8
Shape2DView027
100
AcDbSpline
210
0
220
0
230
1
 70
8
 71
1
 72
4
 73
2
 74
0
 40
0
 40
0
 40
0.707107
 40
0.707107
 10
5.02425
 20
1.69163
 30
0
 10
4.94487
 20
1.61225
 30
0
  0
SPLINE
  5
C63
330
A02
100
AcDbEntity
  8
Shape2DView027
100
AcDbSpline
210
0
220
0
230
1
 70
8
 71
1
 72
4
 73
2
 74
0
 40
0
 40
0
 40
0.707107
 40
0.707107
 10
4.94487
 20
1.61225
 30
0
 10
4.8655
 20
1.53288
 30
0
  0
SPLINE
  5
C64
330
A02
100
AcDbEntity
  8
Shape2DView027
100
AcDbSpline
210
0
220
0
230
1
 70
8
 71
1
 72
4
 73
2
 74
0
 40
0
 40
0
 40
0.282843
 40
0.282843
 10
4.8655
 20
1.53288
 30
0
 10
4.83375
 20
1.50113
 30
0
  0
SPLINE
  5
C65
330
A02
100
AcDbEntity
  8
Shape2DView027
100
AcDbSpline
210
0
220
0
230
1
 70
8
 71
1
 72
4
 73
2
 74
0
 40
0
 40
0
 40
0.360555
 40
0.360555
 10
4.83375
 20
1.50113
 30
0
 10
4.802
 20
1.4535
 30
0
  0
SPLINE
  5
C66
330
A02
100
AcDbEntity
  8
Shape2DView027
100
AcDbSpline
210
0
220
0
230
1
 70
8
 71
1
 72
4
 73
2
 74
0
 40
0
 40
0
 40
0.640312
 40
0.640312
 10
4.802
 20
1.4535
 30
0
 10
4.72263
 20
1.39
 30
0
  0
SPLINE
  5
C67
330
A02
100
AcDbEntity
  8
Shape2DView027
100
AcDbSpline
210
0
220
0
230
1
 70
8
 71
1
 72
4
 73
2
 74
0
 40
0
 40
0
 40
0.707107
 40
0.707107
 10
4.72263
 20
1.39
 30
0
 10
4.64325
 20
1.31063
 30
0
  0
SPLINE
  5
C68
330
A02
100
AcDbEntity
  8
Shape2DView027
100
AcDbSpline
210
0
220
0
230
1
 70
8
 71
1
 72
4
 73
2
 74
0
 40
0
 40
0
 40
4.25206
 40
4.25206
 10
4.64325
 20
1.31063
 30
0
 10
4.13525
 20
0.866125
 30
0
  0
SPLINE
  5
C69
330
A02
100
AcDbEntity
  8
Shape2DView027
100
AcDbSpline
210
0
220
0
230
1
 70
8
 71
1
 72
4
 73
2
 74
0
 40
0
 40
0
 40
1.5
 40
1.5
 10
4.13525
 20
0.866125
 30
0
 10
4.13525
 20
0.628
 30
0
  0
SPLINE
  5
C6A
330
A02
100
AcDbEntity
  8
Shape2DView027
100
AcDbSpline
210
0
220
0
230
1
 70
8
 71
1
 72
4
 73
2
 74
0
 40
0
 40
0
 40
3.33017
 40
3.33017
 10
4.13525
 20
0.628
 30
0
 10
4.53212
 20
0.27875
 30
0
  0
SPLINE
  5
C6B
330
A02
100
AcDbEntity
  8
Shape2DView027
100
AcDbSpline
210
0
220
0
230
1
 70
8
 71
1
 72
4
 73
2
 74
0
 40
0
 40
0
 40
0.2
 40
0.2
 10
4.53212
 20
0.27875
 30
0
 10
4.56387
 20
0.27875
 30
0
  0
SPLINE
  5
C6C
330
A02
100
AcDbEntity
  8
Shape2DView027
100
AcDbSpline
210
0
220
0
230
1
 70
8
 71
1
 72
4
 73
2
 74
0
 40
0
 40
0
 40
4.39318
 40
4.39318
 10
4.56387
 20
0.27875
 30
0
 10
5.08775
 20
0.739125
 30
0
  0
SPLINE
  5
C6D
330
A02
100
AcDbEntity
  8
Shape2DView027
100
AcDbSpline
210
0
220
0
230
1
 70
8
 71
1
 72
4
 73
2
 74
0
 40
0
 40
0
 40
1.28062
 40
1.28062
 10
5.08775
 20
0.739125
 30
0
 10
5.2465
 20
0.866125
 30
0
  0
SPLINE
  5
C6E
330
A02
100
AcDbEntity
  8
Shape2DView027
100
AcDbSpline
210
0
220
0
230
1
 70
8
 71
1
 72
4
 73
2
 74
0
 40
0
 40
0
 40
1.34536
 40
1.34536
 10
5.2465
 20
0.866125
 30
0
 10
5.40525
 20
1.009
 30
0
  0
SPLINE
  5
C6F
330
A02
100
AcDbEntity
  8
Shape2DView027
100
AcDbSpline
210
0
220
0
230
1
 70
8
 71
1
 72
4
 73
2
 74
0
 40
0
 40
0
 40
1.36015
 40
1.36015
 10
5.40525
 20
1.009
 30
0
 10
5.57988
 20
1.136
 30
0
  0
SPLINE
  5
C70
330
A02
100
AcDbEntity
  8
Shape2DView027
100
AcDbSpline
210
0
220
0
230
1
 70
8
 71
1
 72
4
 73
2
 74
0
 40
0
 40
0
 40
1.28062
 40
1.28062
 10
5.57988
 20
1.136
 30
0
 10
5.73863
 20
1.263
 30
0
  0
SPLINE
  5
C71
330
A02
100
AcDbEntity
  8
Shape2DView027
100
AcDbSpline
210
0
220
0
230
1
 70
8
 71
1
 72
4
 73
2
 74
0
 40
0
 40
0
 40
1.42127
 40
1.42127
 10
5.73863
 20
1.263
 30
0
 10
5.91325
 20
1.40588
 30
0
  0
SPLINE
  5
C72
330
A02
100
AcDbEntity
  8
Shape2DView027
100
AcDbSpline
210
0
220
0
230
1
 70
8
 71
1
 72
4
 73
2
 74
0
 40
0
 40
0
 40
0.1
 40
0.1
 10
5.91325
 20
1.40588
 30
0
 10
5.92912
 20
1.40588
 30
0
  0
SPLINE
  5
C73
330
A02
100
AcDbEntity
  8
Shape2DView027
100
AcDbSpline
210
0
220
0
230
1
 70
8
 71
1
 72
4
 73
2
 74
0
 40
0
 40
0
 40
0.1
 40
0.1
 10
5.92912
 20
1.40588
 30
0
 10
5.945
 20
1.40588
 30
0
  0
SPLINE
  5
C74
330
A02
100
AcDbEntity
  8
Shape2DView027
100
AcDbSpline
210
0
220
0
230
1
 70
8
 71
1
 72
4
 73
2
 74
0
 40
0
 40
0
 40
0.1
 40
0.1
 10
5.945
 20
1.40588
 30
0
 10
5.96087
 20
1.40588
 30
0
  0
SPLINE
  5
C75
330
A02
100
AcDbEntity
  8
Shape2DView027
100
AcDbSpline
210
0
220
0
230
1
 70
8
 71
1
 72
4
 73
2
 74
0
 40
0
 40
0
 40
0.1
 40
0.1
 10
5.96087
 20
1.40588
 30
0
 10
5.97675
 20
1.40588
 30
0
  0
SPLINE
  5
C76
330
A02
100
AcDbEntity
  8
Shape2DView027
100
AcDbSpline
210
0
220
0
230
1
 70
8
 71
1
 72
4
 73
2
 74
0
 40
0
 40
0
 40
0.1
 40
0.1
 10
5.97675
 20
1.40588
 30
0
 10
5.99263
 20
1.40588
 30
0
  0
SPLINE
  5
C77
330
A02
100
AcDbEntity
  8
Shape2DView027
100
AcDbSpline
210
0
220
0
230
1
 70
8
 71
1
 72
4
 73
2
 74
0
 40
0
 40
0
 40
0.2
 40
0.2
 10
5.99263
 20
1.40588
 30
0
 10
6.02437
 20
1.40588
 30
0
  0
SPLINE
  5
C78
330
A02
100
AcDbEntity
  8
Shape2DView027
100
AcDbSpline
210
0
220
0
230
1
 70
8
 71
1
 72
4
 73
2
 74
0
 40
0
 40
0
 40
0.316228
 40
0.316228
 10
6.02437
 20
1.40588
 30
0
 10
6.072
 20
1.42175
 30
0
  0
SPLINE
  5
C79
330
A02
100
AcDbEntity
  8
Shape2DView027
100
AcDbSpline
210
0
220
0
230
1
 70
8
 71
1
 72
4
 73
2
 74
0
 40
0
 40
0
 40
0.2
 40
0.2
 10
6.072
 20
1.42175
 30
0
 10
6.10375
 20
1.42175
 30
0
  0
SPLINE
  5
C7A
330
A02
100
AcDbEntity
  8
Shape2DView027
100
AcDbSpline
210
0
220
0
230
1
 70
8
 71
1
 72
4
 73
2
 74
0
 40
0
 40
0
 40
0.223607
 40
0.223607
 10
6.10375
 20
1.42175
 30
0
 10
6.1355
 20
1.43763
 30
0
  0
SPLINE
  5
C7B
330
A02
100
AcDbEntity
  8
Shape2DView027
100
AcDbSpline
210
0
220
0
230
1
 70
8
 71
1
 72
4
 73
2
 74
0
 40
0
 40
0
 40
0.2
 40
0.2
 10
6.1355
 20
1.43763
 30
0
 10
6.16725
 20
1.43763
 30
0
  0
SPLINE
  5
C7C
330
A02
100
AcDbEntity
  8
Shape2DView027
100
AcDbSpline
210
0
220
0
230
1
 70
8
 71
1
 72
4
 73
2
 74
0
 40
0
 40
0
 40
0.141421
 40
0.141421
 10
6.16725
 20
1.43763
 30
0
 10
6.18312
 20
1.4535
 30
0
  0
SPLINE
  5
C7D
330
A02
100
AcDbEntity
  8
Shape2DView027
100
AcDbSpline
210
0
220
0
230
1
 70
8
 71
1
 72
4
 73
2
 74
0
 40
0
 40
0
 40
0.1
 40
0.1
 10
6.18312
 20
1.4535
 30
0
 10
6.199
 20
1.4535
 30
0
  0
SPLINE
  5
C7E
330
A02
100
AcDbEntity
  8
Shape2DView027
100
AcDbSpline
210
0
220
0
230
1
 70
8
 71
1
 72
4
 73
2
 74
0
 40
0
 40
0
 40
0.223607
 40
0.223607
 10
6.199
 20
1.4535
 30
0
 10
6.23075
 20
1.46938
 30
0
  0
SPLINE
  5
C7F
330
A02
100
AcDbEntity
  8
Shape2DView027
100
AcDbSpline
210
0
220
0
230
1
 70
8
 71
1
 72
4
 73
2
 74
0
 40
0
 40
0
 40
0.223607
 40
0.223607
 10
6.23075
 20
1.46938
 30
0
 10
6.2625
 20
1.48525
 30
0
  0
SPLINE
  5
C80
330
A02
100
AcDbEntity
  8
Shape2DView027
100
AcDbSpline
210
0
220
0
230
1
 70
8
 71
1
 72
4
 73
2
 74
0
 40
0
 40
0
 40
0.316228
 40
0.316228
 10
6.2625
 20
1.48525
 30
0
 10
6.31013
 20
1.50113
 30
0
  0
SPLINE
  5
C81
330
A02
100
AcDbEntity
  8
Shape2DView027
100
AcDbSpline
210
0
220
0
230
1
 70
8
 71
1
 72
4
 73
2
 74
0
 40
0
 40
0
 40
0.316228
 40
0.316228
 10
6.31013
 20
1.50113
 30
0
 10
6.35775
 20
1.517
 30
0
  0
SPLINE
  5
C82
330
A02
100
AcDbEntity
  8
Shape2DView027
100
AcDbSpline
210
0
220
0
230
1
 70
8
 71
1
 72
4
 73
2
 74
0
 40
0
 40
0
 40
0.447214
 40
0.447214
 10
6.35775
 20
1.517
 30
0
 10
6.42125
 20
1.54875
 30
0
  0
SPLINE
  5
C83
330
A02
100
AcDbEntity
  8
Shape2DView027
100
AcDbSpline
210
0
220
0
230
1
 70
8
 71
1
 72
4
 73
2
 74
0
 40
0
 40
0
 40
0.141421
 40
0.141421
 10
6.42125
 20
1.54875
 30
0
 10
6.43712
 20
1.56463
 30
0
  0
SPLINE
  5
C84
330
A02
100
AcDbEntity
  8
Shape2DView027
100
AcDbSpline
210
0
220
0
230
1
 70
8
 71
1
 72
4
 73
2
 74
0
 40
0
 40
0
 40
0.2
 40
0.2
 10
6.43712
 20
1.56463
 30
0
 10
6.46887
 20
1.56463
 30
0
  0
SPLINE
  5
C85
330
A02
100
AcDbEntity
  8
Shape2DView027
100
AcDbSpline
210
0
220
0
230
1
 70
8
 71
1
 72
4
 73
2
 74
0
 40
0
 40
0
 40
0.360555
 40
0.360555
 10
6.46887
 20
1.56463
 30
0
 10
6.5165
 20
1.59638
 30
0
  0
SPLINE
  5
C86
330
A02
100
AcDbEntity
  8
Shape2DView027
100
AcDbSpline
210
0
220
0
230
1
 70
8
 71
1
 72
4
 73
2
 74
0
 40
0
 40
0
 40
0.141421
 40
0.141421
 10
6.5165
 20
1.59638
 30
0
 10
6.53237
 20
1.61225
 30
0
  0
SPLINE
  5
C87
330
A02
100
AcDbEntity
  8
Shape2DView027
100
AcDbSpline
210
0
220
0
230
1
 70
8
 71
1
 72
4
 73
2
 74
0
 40
0
 40
0
 40
0.1
 40
0.1
 10
6.53237
 20
1.61225
 30
0
 10
6.54825
 20
1.61225
 30
0
  0
SPLINE
  5
C88
330
A02
100
AcDbEntity
  8
Shape2DView027
100
AcDbSpline
210
0
220
0
230
1
 70
8
 71
1
 72
4
 73
2
 74
0
 40
0
 40
0
 40
0.223607
 40
0.223607
 10
6.54825
 20
1.61225
 30
0
 10
6.58
 20
1.62813
 30
0
  0
SPLINE
  5
C89
330
A02
100
AcDbEntity
  8
Shape2DView027
100
AcDbSpline
210
0
220
0
230
1
 70
8
 71
1
 72
4
 73
2
 74
0
 40
0
 40
0
 40
0.1
 40
0.1
 10
6.58
 20
1.62813
 30
0
 10
6.59587
 20
1.62813
 30
0
  0
SPLINE
  5
C8A
330
A02
100
AcDbEntity
  8
Shape2DView027
100
AcDbSpline
210
0
220
0
230
1
 70
8
 71
1
 72
4
 73
2
 74
0
 40
0
 40
0
 40
0.2
 40
0.2
 10
6.59587
 20
1.62813
 30
0
 10
6.62762
 20
1.62813
 30
0
  0
SPLINE
  5
C8B
330
A02
100
AcDbEntity
  8
Shape2DView027
100
AcDbSpline
210
0
220
0
230
1
 70
8
 71
1
 72
4
 73
2
 74
0
 40
0
 40
0
 40
0.1
 40
0.1
 10
6.62762
 20
1.62813
 30
0
 10
6.6435
 20
1.62813
 30
0
  0
SPLINE
  5
C8C
330
A02
100
AcDbEntity
  8
Shape2DView027
100
AcDbSpline
210
0
220
0
230
1
 70
8
 71
1
 72
4
 73
2
 74
0
 40
0
 40
0
 40
0.2
 40
0.2
 10
6.6435
 20
1.62813
 30
0
 10
6.67525
 20
1.62813
 30
0
  0
SPLINE
  5
C8D
330
A02
100
AcDbEntity
  8
Shape2DView027
100
AcDbSpline
210
0
220
0
230
1
 70
8
 71
1
 72
4
 73
2
 74
0
 40
0
 40
0
 40
0.1
 40
0.1
 10
6.67525
 20
1.62813
 30
0
 10
6.69112
 20
1.62813
 30
0
  0
SPLINE
  5
C8E
330
A02
100
AcDbEntity
  8
Shape2DView027
100
AcDbSpline
210
0
220
0
230
1
 70
8
 71
1
 72
4
 73
2
 74
0
 40
0
 40
0
 40
0.223607
 40
0.223607
 10
6.69112
 20
1.62813
 30
0
 10
6.72287
 20
1.61225
 30
0
  0
SPLINE
  5
C8F
330
A02
100
AcDbEntity
  8
Shape2DView027
100
AcDbSpline
210
0
220
0
230
1
 70
8
 71
1
 72
4
 73
2
 74
0
 40
0
 40
0
 40
0.1
 40
0.1
 10
6.72287
 20
1.61225
 30
0
 10
6.73875
 20
1.61225
 30
0
  0
SPLINE
  5
C90
330
A02
100
AcDbEntity
  8
Shape2DView027
100
AcDbSpline
210
0
220
0
230
1
 70
8
 71
1
 72
4
 73
2
 74
0
 40
0
 40
0
 40
0.223607
 40
0.223607
 10
6.73875
 20
1.61225
 30
0
 10
6.75462
 20
1.5805
 30
0
  0
SPLINE
  5
C91
330
A02
100
AcDbEntity
  8
Shape2DView027
100
AcDbSpline
210
0
220
0
230
1
 70
8
 71
1
 72
4
 73
2
 74
0
 40
0
 40
0
 40
0.141421
 40
0.141421
 10
6.75462
 20
1.5805
 30
0
 10
6.7705
 20
1.56463
 30
0
  0
SPLINE
  5
C92
330
A02
100
AcDbEntity
  8
Shape2DView027
100
AcDbSpline
210
0
220
0
230
1
 70
8
 71
1
 72
4
 73
2
 74
0
 40
0
 40
0
 40
0.141421
 40
0.141421
 10
6.7705
 20
1.56463
 30
0
 10
6.78637
 20
1.54875
 30
0
  0
SPLINE
  5
C93
330
A02
100
AcDbEntity
  8
Shape2DView027
100
AcDbSpline
210
0
220
0
230
1
 70
8
 71
1
 72
4
 73
2
 74
0
 40
0
 40
0
 40
0.141421
 40
0.141421
 10
6.78637
 20
1.54875
 30
0
 10
6.80225
 20
1.53288
 30
0
  0
SPLINE
  5
C94
330
A02
100
AcDbEntity
  8
Shape2DView027
100
AcDbSpline
210
0
220
0
230
1
 70
8
 71
1
 72
4
 73
2
 74
0
 40
0
 40
0
 40
0.223607
 40
0.223607
 10
6.80225
 20
1.53288
 30
0
 10
6.81812
 20
1.50113
 30
0
  0
SPLINE
  5
C95
330
A02
100
AcDbEntity
  8
Shape2DView027
100
AcDbSpline
210
0
220
0
230
1
 70
8
 71
1
 72
4
 73
2
 74
0
 40
0
 40
0
 40
0.223607
 40
0.223607
 10
6.81812
 20
1.50113
 30
0
 10
6.834
 20
1.46938
 30
0
  0
SPLINE
  5
C96
330
A02
100
AcDbEntity
  8
Shape2DView027
100
AcDbSpline
210
0
220
0
230
1
 70
8
 71
1
 72
4
 73
2
 74
0
 40
0
 40
0
 40
0.223607
 40
0.223607
 10
6.834
 20
1.46938
 30
0
 10
6.84988
 20
1.43763
 30
0
  0
SPLINE
  5
C97
330
A02
100
AcDbEntity
  8
Shape2DView027
100
AcDbSpline
210
0
220
0
230
1
 70
8
 71
1
 72
4
 73
2
 74
0
 40
0
 40
0
 40
0.3
 40
0.3
 10
6.84988
 20
1.43763
 30
0
 10
6.84988
 20
1.39
 30
0
  0
SPLINE
  5
C98
330
A02
100
AcDbEntity
  8
Shape2DView027
100
AcDbSpline
210
0
220
0
230
1
 70
8
 71
1
 72
4
 73
2
 74
0
 40
0
 40
0
 40
0.223607
 40
0.223607
 10
6.84988
 20
1.39
 30
0
 10
6.86575
 20
1.35825
 30
0
  0
SPLINE
  5
C99
330
A02
100
AcDbEntity
  8
Shape2DView027
100
AcDbSpline
210
0
220
0
230
1
 70
8
 71
1
 72
4
 73
2
 74
0
 40
0
 40
0
 40
0.5
 40
0.5
 10
6.86575
 20
1.35825
 30
0
 10
6.92925
 20
1.31063
 30
0
  0
SPLINE
  5
C9A
330
A02
100
AcDbEntity
  8
Shape2DView027
100
AcDbSpline
210
0
220
0
230
1
 70
8
 71
1
 72
4
 73
2
 74
0
 40
0
 40
0
 40
0.282843
 40
0.282843
 10
6.92925
 20
1.31063
 30
0
 10
6.961
 20
1.27887
 30
0
  0
SPLINE
  5
C9B
330
A02
100
AcDbEntity
  8
Shape2DView027
100
AcDbSpline
210
0
220
0
230
1
 70
8
 71
1
 72
4
 73
2
 74
0
 40
0
 40
0
 40
0.223607
 40
0.223607
 10
6.961
 20
1.27887
 30
0
 10
6.97687
 20
1.24713
 30
0
  0
SPLINE
  5
C9C
330
A02
100
AcDbEntity
  8
Shape2DView027
100
AcDbSpline
210
0
220
0
230
1
 70
8
 71
1
 72
4
 73
2
 74
0
 40
0
 40
0
 40
0.565685
 40
0.565685
 10
6.97687
 20
1.24713
 30
0
 10
7.04037
 20
1.18363
 30
0
  0
SPLINE
  5
C9D
330
A02
100
AcDbEntity
  8
Shape2DView027
100
AcDbSpline
210
0
220
0
230
1
 70
8
 71
1
 72
4
 73
2
 74
0
 40
0
 40
0
 40
0.565685
 40
0.565685
 10
7.04037
 20
1.18363
 30
0
 10
7.10387
 20
1.12013
 30
0
  0
SPLINE
  5
C9E
330
A02
100
AcDbEntity
  8
Shape2DView027
100
AcDbSpline
210
0
220
0
230
1
 70
8
 71
1
 72
4
 73
2
 74
0
 40
0
 40
0
 40
0.5
 40
0.5
 10
7.10387
 20
1.12013
 30
0
 10
7.1515
 20
1.05663
 30
0
  0
SPLINE
  5
C9F
330
A02
100
AcDbEntity
  8
Shape2DView027
100
AcDbSpline
210
0
220
0
230
1
 70
8
 71
1
 72
4
 73
2
 74
0
 40
0
 40
0
 40
0.5
 40
0.5
 10
7.1515
 20
1.05663
 30
0
 10
7.19912
 20
0.993125
 30
0
  0
SPLINE
  5
CA0
330
A02
100
AcDbEntity
  8
Shape2DView027
100
AcDbSpline
210
0
220
0
230
1
 70
8
 71
1
 72
4
 73
2
 74
0
 40
0
 40
0
 40
0.583095
 40
0.583095
 10
7.19912
 20
0.993125
 30
0
 10
7.24675
 20
0.91375
 30
0
  0
SPLINE
  5
CA1
330
A02
100
AcDbEntity
  8
Shape2DView027
100
AcDbSpline
210
0
220
0
230
1
 70
8
 71
1
 72
4
 73
2
 74
0
 40
0
 40
0
 40
0.282843
 40
0.282843
 10
7.24675
 20
0.91375
 30
0
 10
7.2785
 20
0.882
 30
0
  0
SPLINE
  5
CA2
330
A02
100
AcDbEntity
  8
Shape2DView027
100
AcDbSpline
210
0
220
0
230
1
 70
8
 71
1
 72
4
 73
2
 74
0
 40
0
 40
0
 40
0.360555
 40
0.360555
 10
7.2785
 20
0.882
 30
0
 10
7.31025
 20
0.834375
 30
0
  0
SPLINE
  5
CA3
330
A02
100
AcDbEntity
  8
Shape2DView027
100
AcDbSpline
210
0
220
0
230
1
 70
8
 71
1
 72
4
 73
2
 74
0
 40
0
 40
0
 40
0.583095
 40
0.583095
 10
7.31025
 20
0.834375
 30
0
 10
7.35787
 20
0.755
 30
0
  0
SPLINE
  5
CA4
330
A02
100
AcDbEntity
  8
Shape2DView027
100
AcDbSpline
210
0
220
0
230
1
 70
8
 71
1
 72
4
 73
2
 74
0
 40
0
 40
0
 40
0.538516
 40
0.538516
 10
7.35787
 20
0.755
 30
0
 10
7.38962
 20
0.675625
 30
0
  0
SPLINE
  5
CA5
330
A02
100
AcDbEntity
  8
Shape2DView027
100
AcDbSpline
210
0
220
0
230
1
 70
8
 71
1
 72
4
 73
2
 74
0
 40
0
 40
0
 40
0.583095
 40
0.583095
 10
7.38962
 20
0.675625
 30
0
 10
7.43725
 20
0.59625
 30
0
  0
SPLINE
  5
CA6
330
A02
100
AcDbEntity
  8
Shape2DView027
100
AcDbSpline
210
0
220
0
230
1
 70
8
 71
1
 72
4
 73
2
 74
0
 40
0
 40
0
 40
0.360555
 40
0.360555
 10
7.43725
 20
0.59625
 30
0
 10
7.469
 20
0.548625
 30
0
  0
SPLINE
  5
CA7
330
A02
100
AcDbEntity
  8
Shape2DView027
100
AcDbSpline
210
0
220
0
230
1
 70
8
 71
1
 72
4
 73
2
 74
0
 40
0
 40
0
 40
0.316228
 40
0.316228
 10
7.469
 20
0.548625
 30
0
 10
7.48487
 20
0.501
 30
0
  0
SPLINE
  5
CA8
330
A02
100
AcDbEntity
  8
Shape2DView027
100
AcDbSpline
210
0
220
0
230
1
 70
8
 71
1
 72
4
 73
2
 74
0
 40
0
 40
0
 40
0.583095
 40
0.583095
 10
7.48487
 20
0.501
 30
0
 10
7.5325
 20
0.421625
 30
0
  0
SPLINE
  5
CA9
330
A02
100
AcDbEntity
  8
Shape2DView027
100
AcDbSpline
210
0
220
0
230
1
 70
8
 71
1
 72
4
 73
2
 74
0
 40
0
 40
0
 40
0.728011
 40
0.728011
 10
7.5325
 20
0.421625
 30
0
 10
7.56425
 20
0.3105
 30
0
  0
SPLINE
  5
CAA
330
A02
100
AcDbEntity
  8
Shape2DView027
100
AcDbSpline
210
0
220
0
230
1
 70
8
 71
1
 72
4
 73
2
 74
0
 40
0
 40
0
 40
0.632456
 40
0.632456
 10
7.56425
 20
0.3105
 30
0
 10
7.596
 20
0.21525
 30
0
  0
SPLINE
  5
CAB
330
A02
100
AcDbEntity
  8
Shape2DView027
100
AcDbSpline
210
0
220
0
230
1
 70
8
 71
1
 72
4
 73
2
 74
0
 40
0
 40
0
 40
0.67082
 40
0.67082
 10
7.596
 20
0.21525
 30
0
 10
7.64363
 20
0.12
 30
0
  0
SPLINE
  5
CAC
330
A02
100
AcDbEntity
  8
Shape2DView027
100
AcDbSpline
210
0
220
0
230
1
 70
8
 71
1
 72
4
 73
2
 74
0
 40
0
 40
0
 40
0.316228
 40
0.316228
 10
7.64363
 20
0.12
 30
0
 10
7.69125
 20
0.104125
 30
0
  0
SPLINE
  5
CAD
330
A02
100
AcDbEntity
  8
Shape2DView027
100
AcDbSpline
210
0
220
0
230
1
 70
8
 71
1
 72
4
 73
2
 74
0
 40
0
 40
0
 40
0.2
 40
0.2
 10
7.69125
 20
0.104125
 30
0
 10
7.723
 20
0.104125
 30
0
  0
SPLINE
  5
CAE
330
A02
100
AcDbEntity
  8
Shape2DView027
100
AcDbSpline
210
0
220
0
230
1
 70
8
 71
1
 72
4
 73
2
 74
0
 40
0
 40
0
 40
0.3
 40
0.3
 10
7.723
 20
0.104125
 30
0
 10
7.77062
 20
0.104125
 30
0
  0
SPLINE
  5
CAF
330
A02
100
AcDbEntity
  8
Shape2DView027
100
AcDbSpline
210
0
220
0
230
1
 70
8
 71
1
 72
4
 73
2
 74
0
 40
0
 40
0
 40
0.2
 40
0.2
 10
7.77062
 20
0.104125
 30
0
 10
7.80238
 20
0.104125
 30
0
  0
SPLINE
  5
CB0
330
A02
100
AcDbEntity
  8
Shape2DView027
100
AcDbSpline
210
0
220
0
230
1
 70
8
 71
1
 72
4
 73
2
 74
0
 40
0
 40
0
 40
0.223607
 40
0.223607
 10
7.80238
 20
0.104125
 30
0
 10
7.83412
 20
0.12
 30
0
  0
SPLINE
  5
CB1
330
A02
100
AcDbEntity
  8
Shape2DView027
100
AcDbSpline
210
0
220
0
230
1
 70
8
 71
1
 72
4
 73
2
 74
0
 40
0
 40
0
 40
0.2
 40
0.2
 10
7.83412
 20
0.12
 30
0
 10
7.86587
 20
0.12
 30
0
  0
SPLINE
  5
CB2
330
A02
100
AcDbEntity
  8
Shape2DView027
100
AcDbSpline
210
0
220
0
230
1
 70
8
 71
1
 72
4
 73
2
 74
0
 40
0
 40
0
 40
0.223607
 40
0.223607
 10
7.86587
 20
0.12
 30
0
 10
7.89762
 20
0.135875
 30
0
  0
SPLINE
  5
CB3
330
A02
100
AcDbEntity
  8
Shape2DView027
100
AcDbSpline
210
0
220
0
230
1
 70
8
 71
1
 72
4
 73
2
 74
0
 40
0
 40
0
 40
0.141421
 40
0.141421
 10
7.89762
 20
0.135875
 30
0
 10
7.9135
 20
0.15175
 30
0
  0
SPLINE
  5
CB4
330
A02
100
AcDbEntity
  8
Shape2DView027
100
AcDbSpline
210
0
220
0
230
1
 70
8
 71
1
 72
4
 73
2
 74
0
 40
0
 40
0
 40
1.17047
 40
1.17047
 10
7.9135
 20
0.15175
 30
0
 10
7.85
 20
0.326375
 30
0
  0
SPLINE
  5
CB5
330
A02
100
AcDbEntity
  8
Shape2DView027
100
AcDbSpline
210
0
220
0
230
1
 70
8
 71
1
 72
4
 73
2
 74
0
 40
0
 40
0
 40
0.905539
 40
0.905539
 10
7.85
 20
0.326375
 30
0
 10
7.83412
 20
0.46925
 30
0
  0
SPLINE
  5
CB6
330
A02
100
AcDbEntity
  8
Shape2DView027
100
AcDbSpline
210
0
220
0
230
1
 70
8
 71
3
 72
8
 73
4
 74
0
 40
0
 40
0
 40
0
 40
0
 40
1
 40
1
 40
1
 40
1
 10
4.675
 20
-7.119
 30
0
 10
4.675
 20
-7.15075
 30
0
 10
4.65912
 20
-7.16663
 30
0
 10
4.65912
 20
-7.19837
 30
0
  0
SPLINE
  5
CB7
330
A02
100
AcDbEntity
  8
Shape2DView027
100
AcDbSpline
210
0
220
0
230
1
 70
8
 71
2
 72
6
 73
3
 74
0
 40
0
 40
0
 40
0
 40
1
 40
1
 40
1
 10
4.65912
 20
-7.19837
 30
0
 10
4.6115
 20
-7.27378
 30
0
 10
4.51625
 20
-7.27775
 30
0
  0
SPLINE
  5
CB8
330
A02
100
AcDbEntity
  8
Shape2DView027
100
AcDbSpline
210
0
220
0
230
1
 70
8
 71
2
 72
6
 73
3
 74
0
 40
0
 40
0
 40
0
 40
1
 40
1
 40
1
 10
4.51625
 20
-7.27775
 30
0
 10
4.421
 20
-7.27378
 30
0
 10
4.37337
 20
-7.19837
 30
0
  0
SPLINE
  5
CB9
330
A02
100
AcDbEntity
  8
Shape2DView027
100
AcDbSpline
210
0
220
0
230
1
 70
8
 71
3
 72
8
 73
4
 74
0
 40
0
 40
0
 40
0
 40
0
 40
1
 40
1
 40
1
 40
1
 10
4.37337
 20
-7.19837
 30
0
 10
4.3575
 20
-7.1825
 30
0
 10
4.3575
 20
-7.15075
 30
0
 10
4.3575
 20
-7.119
 30
0
  0
SPLINE
  5
CBA
330
A02
100
AcDbEntity
  8
Shape2DView027
100
AcDbSpline
210
0
220
0
230
1
 70
8
 71
1
 72
4
 73
2
 74
0
 40
0
 40
0
 40
37.2
 40
37.2
 10
4.3575
 20
-7.119
 30
0
 10
4.3575
 20
-1.2135
 30
0
  0
SPLINE
  5
CBB
330
A02
100
AcDbEntity
  8
Shape2DView027
100
AcDbSpline
210
0
220
0
230
1
 70
8
 71
3
 72
8
 73
4
 74
0
 40
0
 40
0
 40
0
 40
0
 40
1
 40
1
 40
1
 40
1
 10
4.3575
 20
-1.2135
 30
0
 10
4.3575
 20
-1.11825
 30
0
 10
4.43687
 20
-1.05475
 30
0
 10
4.51625
 20
-1.05475
 30
0
  0
SPLINE
  5
CBC
330
A02
100
AcDbEntity
  8
Shape2DView027
100
AcDbSpline
210
0
220
0
230
1
 70
8
 71
3
 72
8
 73
4
 74
0
 40
0
 40
0
 40
0
 40
0
 40
1
 40
1
 40
1
 40
1
 10
4.51625
 20
-1.05475
 30
0
 10
4.6115
 20
-1.05475
 30
0
 10
4.675
 20
-1.13412
 30
0
 10
4.675
 20
-1.2135
 30
0
  0
SPLINE
  5
CBD
330
A02
100
AcDbEntity
  8
Shape2DView027
100
AcDbSpline
210
0
220
0
230
1
 70
8
 71
1
 72
4
 73
2
 74
0
 40
0
 40
0
 40
37.2
 40
37.2
 10
4.675
 20
-1.2135
 30
0
 10
4.675
 20
-7.119
 30
0
  0
ENDSEC
  0
SECTION
  2
OBJECTS
  0
DICTIONARY
  5
F000
330
0
100
AcDbDictionary
  3
ACAD_GROUP
350
F001
  0
DICTIONARY
  5
F001
330
F000
100
AcDbDictionary
  0
ENDSEC
  0
EOF