999
FreeCAD v1.0 39109 (Git)
  0
SECTION
  2
HEADER
  9
$ACADVER
  1
AC1014
  9
$ACADMAINTVER
 70
     9
  9
$DWGCODEPAGE
  3
ANSI_1252
  9
$TEXTSTYLE
  7
STANDARD
  9
$DIMSTYLE
  2
STANDARD
  9
$DIMTXSTY
  7
STANDARD
  9
$CMLSTYLE
  2
STANDARD
  9
$LUNITS
 70
2
  9
$INSUNITS
 70
4
  9
$PEXTMAX
 10
50
 20
50
 30
50
  9
$PEXTMIN
 10
0
 20
0
 30
0
  9
$HANDSEED
  5
FFFF
  0
ENDSEC
  0
SECTION
  2
CLASSES
  0
CLASS
  1
ACDBDICTIONARYWDFLT
  2
AcDbDictionaryWithDefault
  3
ObjectDBX Classes
 90
        0
280
     0
281
     0
  0
CLASS
  1
XRECORD
  2
AcDbXrecord
  3
ObjectDBX Classes
 90
        0
280
     0
281
     0
  0
CLASS
  1
LWPOLYLINE
  2
AcDbPolyline
  3
ObjectDBX Classes
 90
        0
280
     0
281
     1
  0
ENDSEC
  0
SECTION
  2
TABLES
  0
TABLE
  2
VPORT
  5
20
330
0
100
AcDbSymbolTable
 70
     1
  0
VPORT
  5
21
330
20
100
AcDbSymbolTableRecord
100
AcDbViewportTableRecord
  2
*ACTIVE
 70
     0
  0
ENDTAB
  0
TABLE
  2
LTYPE
  5
22
330
0
100
AcDbSymbolTable
 70
     1
  0
LTYPE
  5
23
330
21
100
AcDbSymbolTableRecord
100
AcDbLinetypeTableRecord
  2
BYBLOCK
 70
     0
  3

 72
    65
 73
     0
 40
0.0
  0
LTYPE
  5
24
330
21
100
AcDbSymbolTableRecord
100
AcDbLinetypeTableRecord
  2
BYLAYER
 70
     0
  3

 72
    65
 73
     0
 40
0.0
  0
LTYPE
  5
25
330
21
100
AcDbSymbolTableRecord
100
AcDbLinetypeTableRecord
  2
CONTINUOUS
 70
     0
  3
Solid line
 72
    65
 73
     0
 40
0.0
  0
ENDTAB
  0
TABLE
  2
LAYER
  5
A54
330
0
100
AcDbSymbolTable
 70
3
  0
LAYER
  5
A55
330
A54
100
AcDbSymbolTableRecord
100
AcDbLayerTableRecord
  2
0
 70
   0
 62
   7
  6
CONTINUOUS
  0
LAYER
  5
A56
330
A54
100
AcDbSymbolTableRecord
100
AcDbLayerTableRecord
  2
none
 70
    0
 62
    7
  6
CONTINUOUS
  0
LAYER
  5
A57
330
A54
100
AcDbSymbolTableRecord
100
AcDbLayerTableRecord
  2
Shape2DView026
 70
    0
 62
    7
  6
CONTINUOUS
  0
ENDTAB
  0
TABLE
  2
STYLE
  5
70
330
0
100
AcDbSymbolTable
 70
     2
  0
STYLE
  5
71
330
70
100
AcDbSymbolTableRecord
100
AcDbTextStyleTableRecord
  2
STANDARD
 70
     0
 40
0.0
 41
1.0
 50
0.0
 71
     0
 42
2.5
  3
arial.ttf
  4

  0
STYLE
  5
72
330
70
100
AcDbSymbolTableRecord
100
AcDbTextStyleTableRecord
  2
ANNOTATIVE
 70
     0
 40
0.0
 41
1.0
 50
0.0
 71
     0
 42
2.5
  3
arial.ttf
  4

  0
ENDTAB
  0
TABLE
  2
VIEW
  5
73
330
0
100
AcDbSymbolTable
 70
     0
  0
ENDTAB
  0
TABLE
  2
UCS
  5
74
330
0
100
AcDbSymbolTable
 70
     0
  0
ENDTAB
  0
TABLE
  2
APPID
  5
75
330
0
100
AcDbSymbolTable
 70
     2
  0
APPID
  5
76
330
75
100
AcDbSymbolTableRecord
100
AcDbRegAppTableRecord
  2
ACAD
 70
     0
  0
APPID
  5
77
330
75
100
AcDbSymbolTableRecord
100
AcDbRegAppTableRecord
  2
ACADANNOTATIVE
 70
     0
  0
ENDTAB
  0
TABLE
  2
DIMSTYLE
  5
78
330
0
100
AcDbSymbolTable
 70
     2
  0
DIMSTYLE
105
79
330
78
100
AcDbSymbolTableRecord
100
AcDbDimStyleTableRecord
  2
STANDARD
 70
     0
  3

  4

  5

  6

  7

 40
0.0
 41
2.5
 42
0.625
 43
3.75
 44
1.25
 45
0.0
 46
0.0
 47
0.0
 48
0.0
140
2.5
141
2.5
142
0.0
143
0.03937007874016
144
1.0
145
0.0
146
1.0
147
0.625
 71
     0
 72
     0
 73
     0
 74
     0
 75
     0
 76
     0
 77
     1
 78
     8
170
     0
171
     3
172
     1
173
     0
174
     0
175
     0
176
     0
177
     0
178
     0
270
     2
271
     2
272
     2
273
     2
274
     3
340
71
275
     0
280
     0
281
     0
282
     0
283
     0
284
     8
285
     0
286
     0
287
     3
288
     0
  0
ENDTAB
  0
TABLE
  2
BLOCK_RECORD
  5
A01
330
0
100
AcDbSymbolTable
  70
5
  0
BLOCK_RECORD
  5
A02
330
A01
100
AcDbSymbolTableRecord
100
AcDbBlockTableRecord
  2
*MODEL_SPACE
  0
BLOCK_RECORD
  5
A03
330
A01
100
AcDbSymbolTableRecord
100
AcDbBlockTableRecord
  2
*PAPER_SPACE
  0
ENDTAB
  0
ENDSEC
  0
SECTION
  2
BLOCKS
  0
BLOCK
  5
A04
330
A02
100
AcDbEntity
  8
0
100
AcDbBlockBegin
  2
*MODEL_SPACE
 70
   0
 10
0
 20
0
 30
0
  3
*MODEL_SPACE
  1
 
  0
ENDBLK
  5
A05
330
A02
100
AcDbEntity
  8
0
100
AcDbBlockEnd
  0
BLOCK
  5
A06
330
A03
100
AcDbEntity
 67
1
  8
0
100
AcDbBlockBegin
  2
*PAPER_SPACE
 70
   0
 10
0
 20
0
 30
0
  3
*PAPER_SPACE
  1
 
  0
ENDBLK
  5
A07
330
A03
100
AcDbEntity
 67
    1
  8
0
100
AcDbBlockEnd
  0
ENDSEC
  0
SECTION
  2
ENTITIES
  0
ARC
  5
A08
330
A02
100
AcDbEntity
  8
Shape2DView026
100
AcDbCircle
 10
0.000000000
 20
0.000000000
 30
0.000000000
 40
38.500000000
100
AcDbArc
 50
10.209543870
 51
24.645593602
  0
ARC
  5
A09
330
A02
100
AcDbEntity
  8
Shape2DView026
100
AcDbCircle
 10
0.000000000
 20
0.000000000
 30
0.000000000
 40
38.500000000
100
AcDbArc
 50
65.354406398
 51
79.790456130
  0
ARC
  5
A0A
330
A02
100
AcDbEntity
  8
Shape2DView026
100
AcDbCircle
 10
6.700000000
 20
37.201478465
 30
0.000000000
 40
0.700000000
100
AcDbArc
 50
79.790456130
 51
180.000000000
  0
ARC
  5
A0B
330
A02
100
AcDbEntity
  8
Shape2DView026
100
AcDbCircle
 10
14.386644649
 20
31.357207397
 30
0.000000000
 40
4.000000000
100
AcDbArc
 50
-45.000000000
 51
65.354406398
  0
LINE
  5
A0C
330
A02
100
AcDbEntity
  8
Shape2DView026
100
AcDbLine
 10
6.000000000
 20
34.962415177
 30
0.000000000
 11
6.000000000
 21
37.201478465
 31
0.000000000
  0
LINE
  5
A0D
330
A02
100
AcDbEntity
  8
Shape2DView026
100
AcDbLine
 10
15.556349186
 20
26.870057685
 30
0.000000000
 11
17.215071773
 21
28.528780272
 31
0.000000000
  0
LINE
  5
A0E
330
A02
100
AcDbEntity
  8
Shape2DView026
100
AcDbLine
 10
-6.000000000
 20
34.962415177
 30
0.000000000
 11
6.000000000
 21
34.962415177
 31
0.000000000
  0
ARC
  5
A0F
330
A02
100
AcDbEntity
  8
Shape2DView026
100
AcDbCircle
 10
21.213203436
 20
21.213203436
 30
0.000000000
 40
8.000000000
100
AcDbArc
 50
135.000000000
 51
-45.000000000
  0
LINE
  5
A10
330
A02
100
AcDbEntity
  8
Shape2DView026
100
AcDbLine
 10
-6.000000000
 20
37.201478465
 30
0.000000000
 11
-6.000000000
 21
34.962415177
 31
0.000000000
  0
LINE
  5
A11
330
A02
100
AcDbEntity
  8
Shape2DView026
100
AcDbLine
 10
28.528780272
 20
17.215071773
 30
0.000000000
 11
26.870057685
 21
15.556349186
 31
0.000000000
  0
ARC
  5
A12
330
A02
100
AcDbEntity
  8
Shape2DView026
100
AcDbCircle
 10
-6.700000000
 20
37.201478465
 30
0.000000000
 40
0.700000000
100
AcDbArc
 50
0.000000000
 51
100.209543870
  0
ARC
  5
A13
330
A02
100
AcDbEntity
  8
Shape2DView026
100
AcDbCircle
 10
31.357207397
 20
14.386644649
 30
0.000000000
 40
4.000000000
100
AcDbArc
 50
24.645593602
 51
135.000000000
  0
ARC
  5
A14
330
A02
100
AcDbEntity
  8
Shape2DView026
100
AcDbCircle
 10
0.000000000
 20
0.000000000
 30
0.000000000
 40
38.500000000
100
AcDbArc
 50
100.209543870
 51
169.790456130
  0
ARC
  5
A15
330
A02
100
AcDbEntity
  8
Shape2DView026
100
AcDbCircle
 10
-37.201478465
 20
6.700000000
 30
0.000000000
 40
0.700000000
100
AcDbArc
 50
169.790456130
 51
-90.000000000
  0
ARC
  5
A16
330
A02
100
AcDbEntity
  8
Shape2DView026
100
AcDbCircle
 10
37.201478465
 20
6.700000000
 30
0.000000000
 40
0.700000000
100
AcDbArc
 50
-90.000000000
 51
10.209543870
  0
LINE
  5
A17
330
A02
100
AcDbEntity
  8
Shape2DView026
100
AcDbLine
 10
-34.962415177
 20
6.000000000
 30
0.000000000
 11
-37.201478465
 21
6.000000000
 31
0.000000000
  0
LINE
  5
A18
330
A02
100
AcDbEntity
  8
Shape2DView026
100
AcDbLine
 10
37.201478465
 20
6.000000000
 30
0.000000000
 11
34.962415177
 21
6.000000000
 31
0.000000000
  0
LINE
  5
A19
330
A02
100
AcDbEntity
  8
Shape2DView026
100
AcDbLine
 10
-34.962415177
 20
-6.000000000
 30
0.000000000
 11
-34.962415177
 21
6.000000000
 31
0.000000000
  0
LINE
  5
A1A
330
A02
100
AcDbEntity
  8
Shape2DView026
100
AcDbLine
 10
34.962415177
 20
6.000000000
 30
0.000000000
 11
34.962415177
 21
-6.000000000
 31
0.000000000
  0
LINE
  5
A1B
330
A02
100
AcDbEntity
  8
Shape2DView026
100
AcDbLine
 10
-37.201478465
 20
-6.000000000
 30
0.000000000
 11
-34.962415177
 21
-6.000000000
 31
0.000000000
  0
LINE
  5
A1C
330
A02
100
AcDbEntity
  8
Shape2DView026
100
AcDbLine
 10
34.962415177
 20
-6.000000000
 30
0.000000000
 11
37.201478465
 21
-6.000000000
 31
0.000000000
  0
ARC
  5
A1D
330
A02
100
AcDbEntity
  8
Shape2DView026
100
AcDbCircle
 10
-37.201478465
 20
-6.700000000
 30
0.000000000
 40
0.700000000
100
AcDbArc
 50
90.000000000
 51
-169.790456130
  0
ARC
  5
A1E
330
A02
100
AcDbEntity
  8
Shape2DView026
100
AcDbCircle
 10
37.201478465
 20
-6.700000000
 30
0.000000000
 40
0.700000000
100
AcDbArc
 50
-10.209543870
 51
90.000000000
  0
ARC
  5
A1F
330
A02
100
AcDbEntity
  8
Shape2DView026
100
AcDbCircle
 10
0.000000000
 20
0.000000000
 30
0.000000000
 40
38.500000000
100
AcDbArc
 50
-169.790456130
 51
-100.209543870
  0
ARC
  5
A20
330
A02
100
AcDbEntity
  8
Shape2DView026
100
AcDbCircle
 10
0.000000000
 20
0.000000000
 30
0.000000000
 40
38.500000000
100
AcDbArc
 50
-79.790456130
 51
-10.209543870
  0
ARC
  5
A21
330
A02
100
AcDbEntity
  8
Shape2DView026
100
AcDbCircle
 10
-6.700000000
 20
-37.201478465
 30
0.000000000
 40
0.700000000
100
AcDbArc
 50
-100.209543870
 51
0.000000000
  0
ARC
  5
A22
330
A02
100
AcDbEntity
  8
Shape2DView026
100
AcDbCircle
 10
6.700000000
 20
-37.201478465
 30
0.000000000
 40
0.700000000
100
AcDbArc
 50
-180.000000000
 51
-79.790456130
  0
LINE
  5
A23
330
A02
100
AcDbEntity
  8
Shape2DView026
100
AcDbLine
 10
-6.000000000
 20
-34.962415177
 30
0.000000000
 11
-6.000000000
 21
-37.201478465
 31
0.000000000
  0
LINE
  5
A24
330
A02
100
AcDbEntity
  8
Shape2DView026
100
AcDbLine
 10
6.000000000
 20
-37.201478465
 30
0.000000000
 11
6.000000000
 21
-34.962415177
 31
0.000000000
  0
LINE
  5
A25
330
A02
100
AcDbEntity
  8
Shape2DView026
100
AcDbLine
 10
6.000000000
 20
-34.962415177
 30
0.000000000
 11
-6.000000000
 21
-34.962415177
 31
0.000000000
  0
LINE
  5
A26
330
A02
100
AcDbEntity
  8
Shape2DView026
100
AcDbLine
 10
-17.983067865
 20
-20.139743548
 30
0.000000000
 11
-22.963292719
 21
-25.119968402
 31
0.000000000
  0
LINE
  5
A27
330
A02
100
AcDbEntity
  8
Shape2DView026
100
AcDbLine
 10
-20.139743548
 20
-17.983067865
 30
0.000000000
 11
-17.983067865
 21
-20.139743548
 31
0.000000000
  0
LINE
  5
A28
330
A02
100
AcDbEntity
  8
Shape2DView026
100
AcDbLine
 10
-22.963292719
 20
-25.119968402
 30
0.000000000
 11
-25.119968402
 21
-22.963292719
 31
0.000000000
  0
LINE
  5
A29
330
A02
100
AcDbEntity
  8
Shape2DView026
100
AcDbLine
 10
-25.119968402
 20
-22.963292719
 30
0.000000000
 11
-20.139743548
 21
-17.983067865
 31
0.000000000
  0
LINE
  5
A2A
330
A02
100
AcDbEntity
  8
Shape2DView026
100
AcDbLine
 10
25.488518989
 20
-8.907042144
 30
0.000000000
 11
31.995496340
 21
-11.602320413
 31
0.000000000
  0
LINE
  5
A2B
330
A02
100
AcDbEntity
  8
Shape2DView026
100
AcDbLine
 10
24.321334520
 20
-11.724874719
 30
0.000000000
 11
25.488518989
 21
-8.907042144
 31
0.000000000
  0
LINE
  5
A2C
330
A02
100
AcDbEntity
  8
Shape2DView026
100
AcDbLine
 10
31.995496340
 20
-11.602320413
 30
0.000000000
 11
30.828311871
 21
-14.420152987
 31
0.000000000
  0
LINE
  5
A2D
330
A02
100
AcDbEntity
  8
Shape2DView026
100
AcDbLine
 10
30.828311871
 20
-14.420152987
 30
0.000000000
 11
24.321334520
 21
-11.724874719
 31
0.000000000
  0
LINE
  5
A2E
330
A02
100
AcDbEntity
  8
Shape2DView026
100
AcDbLine
 10
15.393714626
 20
8.746910883
 30
0.000000000
 11
20.110116857
 21
4.030508653
 31
0.000000000
  0
ARC
  5
A2F
330
A02
100
AcDbEntity
  8
Shape2DView026
100
AcDbCircle
 10
15.181582592
 20
8.534778849
 30
0.000000000
 40
0.300000000
100
AcDbArc
 50
45.000000000
 51
-135.000000000
  0
LINE
  5
A30
330
A02
100
AcDbEntity
  8
Shape2DView026
100
AcDbLine
 10
19.685852788
 20
3.606244584
 30
0.000000000
 11
14.969450558
 21
8.322646815
 31
0.000000000
  0
LINE
  5
A31
330
A02
100
AcDbEntity
  8
Shape2DView026
100
AcDbLine
 10
-6.689230150
 20
-22.768838354
 30
0.000000000
 11
19.685852788
 21
3.606244584
 31
0.000000000
  0
LINE
  5
A32
330
A02
100
AcDbEntity
  8
Shape2DView026
100
AcDbLine
 10
-4.808326112
 20
-24.649742392
 30
0.000000000
 11
-6.689230150
 21
-22.768838354
 31
0.000000000
  0
LINE
  5
A33
330
A02
100
AcDbEntity
  8
Shape2DView026
100
AcDbLine
 10
21.566756826
 20
1.725340546
 30
0.000000000
 11
-4.808326112
 21
-24.649742392
 31
0.000000000
  0
LINE
  5
A34
330
A02
100
AcDbEntity
  8
Shape2DView026
100
AcDbLine
 10
26.283159057
 20
-2.991061684
 30
0.000000000
 11
21.566756826
 21
1.725340546
 31
0.000000000
  0
ARC
  5
A35
330
A02
100
AcDbEntity
  8
Shape2DView026
100
AcDbCircle
 10
26.495291091
 20
-2.778929650
 30
0.000000000
 40
0.300000000
100
AcDbArc
 50
-135.000000000
 51
45.000000000
  0
LINE
  5
A36
330
A02
100
AcDbEntity
  8
Shape2DView026
100
AcDbLine
 10
21.991020895
 20
2.149604615
 30
0.000000000
 11
26.707423125
 21
-2.566797616
 31
0.000000000
  0
LINE
  5
A37
330
A02
100
AcDbEntity
  8
Shape2DView026
100
AcDbLine
 10
20.110116857
 20
4.030508653
 30
0.000000000
 11
21.991020895
 21
2.149604615
 31
0.000000000
  0
LINE
  5
A38
330
A02
100
AcDbEntity
  8
Shape2DView026
100
AcDbLine
 10
2.149604615
 20
21.991020895
 30
0.000000000
 11
-2.566797616
 21
26.707423125
 31
0.000000000
  0
ARC
  5
A39
330
A02
100
AcDbEntity
  8
Shape2DView026
100
AcDbCircle
 10
-2.778929650
 20
26.495291091
 30
0.000000000
 40
0.300000000
100
AcDbArc
 50
45.000000000
 51
-135.000000000
  0
LINE
  5
A3A
330
A02
100
AcDbEntity
  8
Shape2DView026
100
AcDbLine
 10
-2.991061684
 20
26.283159057
 30
0.000000000
 11
1.725340546
 21
21.566756826
 31
0.000000000
  0
LINE
  5
A3B
330
A02
100
AcDbEntity
  8
Shape2DView026
100
AcDbLine
 10
-24.649742392
 20
-4.808326112
 30
0.000000000
 11
1.725340546
 21
21.566756826
 31
0.000000000
  0
LINE
  5
A3C
330
A02
100
AcDbEntity
  8
Shape2DView026
100
AcDbLine
 10
-22.768838354
 20
-6.689230150
 30
0.000000000
 11
-24.649742392
 21
-4.808326112
 31
0.000000000
  0
LINE
  5
A3D
330
A02
100
AcDbEntity
  8
Shape2DView026
100
AcDbLine
 10
3.606244584
 20
19.685852788
 30
0.000000000
 11
-22.768838354
 21
-6.689230150
 31
0.000000000
  0
LINE
  5
A3E
330
A02
100
AcDbEntity
  8
Shape2DView026
100
AcDbLine
 10
3.606244584
 20
19.685852788
 30
0.000000000
 11
8.322646815
 21
14.969450558
 31
0.000000000
  0
ARC
  5
A3F
330
A02
100
AcDbEntity
  8
Shape2DView026
100
AcDbCircle
 10
8.534778849
 20
15.181582592
 30
0.000000000
 40
0.300000000
100
AcDbArc
 50
-135.000000000
 51
45.000000000
  0
LINE
  5
A40
330
A02
100
AcDbEntity
  8
Shape2DView026
100
AcDbLine
 10
8.746910883
 20
15.393714626
 30
0.000000000
 11
4.030508653
 21
20.110116857
 31
0.000000000
  0
LINE
  5
A41
330
A02
100
AcDbEntity
  8
Shape2DView026
100
AcDbLine
 10
2.149604615
 20
21.991020895
 30
0.000000000
 11
4.030508653
 21
20.110116857
 31
0.000000000
  0
LINE
  5
A42
330
A02
100
AcDbEntity
  8
Shape2DView026
100
AcDbLine
 10
-11.724874719
 20
24.321334520
 30
0.000000000
 11
-14.420152987
 21
30.828311871
 31
0.000000000
  0
LINE
  5
A43
330
A02
100
AcDbEntity
  8
Shape2DView026
100
AcDbLine
 10
-8.907042144
 20
25.488518989
 30
0.000000000
 11
-11.724874719
 21
24.321334520
 31
0.000000000
  0
LINE
  5
A44
330
A02
100
AcDbEntity
  8
Shape2DView026
100
AcDbLine
 10
-14.420152987
 20
30.828311871
 30
0.000000000
 11
-11.602320413
 21
31.995496340
 31
0.000000000
  0
LINE
  5
A45
330
A02
100
AcDbEntity
  8
Shape2DView026
100
AcDbLine
 10
-11.602320413
 20
31.995496340
 30
0.000000000
 11
-8.907042144
 21
25.488518989
 31
0.000000000
  0
LINE
  5
A46
330
A02
100
AcDbEntity
  8
Shape2DView026
100
AcDbLine
 10
9.968845291
 20
11.193590162
 30
0.000000000
 11
6.105141986
 21
10.158313982
 31
0.000000000
  0
ARC
  5
A47
330
A02
100
AcDbEntity
  8
Shape2DView026
100
AcDbCircle
 10
10.227664336
 20
10.227664336
 30
0.000000000
 40
1.000000000
100
AcDbArc
 50
-15.000000000
 51
105.000000000
  0
ARC
  5
A48
330
A02
100
AcDbEntity
  8
Shape2DView026
100
AcDbCircle
 10
6.363961031
 20
9.192388155
 30
0.000000000
 40
1.000000000
100
AcDbArc
 50
105.000000000
 51
-135.000000000
  0
LINE
  5
A49
330
A02
100
AcDbEntity
  8
Shape2DView026
100
AcDbLine
 10
10.158313982
 20
6.105141986
 30
0.000000000
 11
11.193590162
 21
9.968845291
 31
0.000000000
  0
LINE
  5
A4A
330
A02
100
AcDbEntity
  8
Shape2DView026
100
AcDbLine
 10
5.656854249
 20
8.485281374
 30
0.000000000
 11
8.485281374
 21
5.656854249
 31
0.000000000
  0
ARC
  5
A4B
330
A02
100
AcDbEntity
  8
Shape2DView026
100
AcDbCircle
 10
9.192388155
 20
6.363961031
 30
0.000000000
 40
1.000000000
100
AcDbArc
 50
-135.000000000
 51
-15.000000000
  0
ARC
  5
A4C
330
A02
100
AcDbEntity
  8
Shape2DView026
100
AcDbCircle
 10
17.161481579
 20
10.514677836
 30
0.000000000
 40
0.300000000
100
AcDbArc
 50
45.000000000
 51
-135.000000000
  0
LINE
  5
A4D
330
A02
100
AcDbEntity
  8
Shape2DView026
100
AcDbLine
 10
28.263058044
 20
-1.011162697
 30
0.000000000
 11
16.949349545
 21
10.302545802
 31
0.000000000
  0
ARC
  5
A4E
330
A02
100
AcDbEntity
  8
Shape2DView026
100
AcDbCircle
 10
28.475190078
 20
-0.799030663
 30
0.000000000
 40
0.300000000
100
AcDbArc
 50
-135.000000000
 51
45.000000000
  0
LINE
  5
A4F
330
A02
100
AcDbEntity
  8
Shape2DView026
100
AcDbLine
 10
17.373613614
 20
10.726809871
 30
0.000000000
 11
28.687322113
 21
-0.586898628
 31
0.000000000
  0
ARC
  5
A50
330
A02
100
AcDbEntity
  8
Shape2DView026
100
AcDbCircle
 10
-0.799030663
 20
28.475190078
 30
0.000000000
 40
0.300000000
100
AcDbArc
 50
45.000000000
 51
-135.000000000
  0
LINE
  5
A51
330
A02
100
AcDbEntity
  8
Shape2DView026
100
AcDbLine
 10
-1.011162697
 20
28.263058044
 30
0.000000000
 11
10.302545802
 21
16.949349545
 31
0.000000000
  0
ARC
  5
A52
330
A02
100
AcDbEntity
  8
Shape2DView026
100
AcDbCircle
 10
10.514677836
 20
17.161481579
 30
0.000000000
 40
0.300000000
100
AcDbArc
 50
-135.000000000
 51
45.000000000
  0
LINE
  5
A53
330
A02
100
AcDbEntity
  8
Shape2DView026
100
AcDbLine
 10
10.726809871
 20
17.373613614
 30
0.000000000
 11
-0.586898628
 21
28.687322113
 31
0.000000000
  0
ENDSEC
  0
SECTION
  2
OBJECTS
  0
DICTIONARY
  5
F000
330
0
100
AcDbDictionary
  3
ACAD_GROUP
350
F001
  0
DICTIONARY
  5
F001
330
F000
100
AcDbDictionary
  0
ENDSEC
  0
EOF