<?xml version="1.0" encoding="UTF-8" standalone="no"?>
<!-- Created with Inkscape (http://www.inkscape.org/) -->

<svg
   width="210mm"
   height="297mm"
   viewBox="0 0 210 297"
   version="1.1"
   id="svg5"
   xml:space="preserve"
   inkscape:version="1.2.2 (b0a8486, 2022-12-01)"
   sodipodi:docname="#led_ring.svg"
   xmlns:inkscape="http://www.inkscape.org/namespaces/inkscape"
   xmlns:sodipodi="http://sodipodi.sourceforge.net/DTD/sodipodi-0.dtd"
   xmlns="http://www.w3.org/2000/svg"
   xmlns:svg="http://www.w3.org/2000/svg"><sodipodi:namedview
     id="namedview7"
     pagecolor="#ffffff"
     bordercolor="#666666"
     borderopacity="1.0"
     inkscape:showpageshadow="2"
     inkscape:pageopacity="0.0"
     inkscape:pagecheckerboard="0"
     inkscape:deskcolor="#d1d1d1"
     inkscape:document-units="mm"
     showgrid="false"
     inkscape:zoom="1.9426985"
     inkscape:cx="456.5814"
     inkscape:cy="586.0405"
     inkscape:window-width="1920"
     inkscape:window-height="975"
     inkscape:window-x="0"
     inkscape:window-y="0"
     inkscape:window-maximized="1"
     inkscape:current-layer="layer1" /><defs
     id="defs2"><marker
       id="DistanceX"
       orient="auto"
       refX="0.0"
       refY="0.0"
       style="overflow:visible"><path
         d="M 3,-3 L -3,3 M 0,-5 L  0,5"
         style="stroke:#000000; stroke-width:0.5"
         id="path150" /></marker><pattern
       id="Hatch"
       patternUnits="userSpaceOnUse"
       width="8"
       height="8"
       x="0"
       y="0"><path
         d="M8 4 l-4,4"
         stroke="#000000"
         stroke-width="0.25"
         linecap="square"
         id="path153" /><path
         d="M6 2 l-4,4"
         stroke="#000000"
         stroke-width="0.25"
         linecap="square"
         id="path155" /><path
         d="M4 0 l-4,4"
         stroke="#000000"
         stroke-width="0.25"
         linecap="square"
         id="path157" /></pattern><symbol
       id="*Model_Space" /><symbol
       id="*Paper_Space" /><marker
       id="DistanceX-3"
       orient="auto"
       refX="0.0"
       refY="0.0"
       style="overflow:visible"><path
         d="M 3,-3 L -3,3 M 0,-5 L  0,5"
         style="stroke:#000000; stroke-width:0.5"
         id="path675" /></marker><pattern
       id="Hatch-6"
       patternUnits="userSpaceOnUse"
       width="8"
       height="8"
       x="0"
       y="0"><path
         d="M8 4 l-4,4"
         stroke="#000000"
         stroke-width="0.25"
         linecap="square"
         id="path678" /><path
         d="M6 2 l-4,4"
         stroke="#000000"
         stroke-width="0.25"
         linecap="square"
         id="path680" /><path
         d="M4 0 l-4,4"
         stroke="#000000"
         stroke-width="0.25"
         linecap="square"
         id="path682" /></pattern><symbol
       id="*Model_Space-7" /><symbol
       id="*Paper_Space-5" /><marker
       id="DistanceX-35"
       orient="auto"
       refX="0.0"
       refY="0.0"
       style="overflow:visible"><path
         d="M 3,-3 L -3,3 M 0,-5 L  0,5"
         style="stroke:#000000; stroke-width:0.5"
         id="path1102" /></marker><pattern
       id="Hatch-62"
       patternUnits="userSpaceOnUse"
       width="8"
       height="8"
       x="0"
       y="0"><path
         d="M8 4 l-4,4"
         stroke="#000000"
         stroke-width="0.25"
         linecap="square"
         id="path1105" /><path
         d="M6 2 l-4,4"
         stroke="#000000"
         stroke-width="0.25"
         linecap="square"
         id="path1107" /><path
         d="M4 0 l-4,4"
         stroke="#000000"
         stroke-width="0.25"
         linecap="square"
         id="path1109" /></pattern><symbol
       id="*Model_Space-9" /><symbol
       id="*Paper_Space-1" /><symbol
       id="*D1"><path
         style="fill:none;stroke:#000000;stroke-linecap:round"
         d="M -507.11 108.307 L 507.11 108.307"
         id="path1114" /><path
         style="fill:none;stroke:#000000;stroke-linecap:round"
         d="M -507.11 108.307 L -483.488 104.374 L -483.488 112.24 z"
         id="path1116" /><path
         style="fill:none;stroke:#000000;stroke-linecap:round"
         d="M 507.11 108.307 L 483.488 112.24 L 483.488 104.374 z"
         id="path1118" /><text
         x="0.000000"
         y="90.590551"
         style="font-size: 23.622px; fill: #000000; font-family: Arial; text-anchor: middle"
         id="text1122"><tspan
           sodipodi:role="line"
           dx="0.000000"
           dy="11.811024"
           id="tspan1120">268,35</tspan></text><path
         style="fill:none;stroke:#000000;stroke-linecap:round"
         d="M -507.11 399.449 L -507.11 96.4961"
         id="path1124" /><path
         style="fill:none;stroke:#000000;stroke-linecap:round"
         d="M 507.11 399.449 L 507.11 96.4961"
         id="path1126" /></symbol><marker
       id="DistanceX-2"
       orient="auto"
       refX="0.0"
       refY="0.0"
       style="overflow:visible"><path
         d="M 3,-3 L -3,3 M 0,-5 L  0,5"
         style="stroke:#000000; stroke-width:0.5"
         id="path1561" /></marker><pattern
       id="Hatch-7"
       patternUnits="userSpaceOnUse"
       width="8"
       height="8"
       x="0"
       y="0"><path
         d="M8 4 l-4,4"
         stroke="#000000"
         stroke-width="0.25"
         linecap="square"
         id="path1564" /><path
         d="M6 2 l-4,4"
         stroke="#000000"
         stroke-width="0.25"
         linecap="square"
         id="path1566" /><path
         d="M4 0 l-4,4"
         stroke="#000000"
         stroke-width="0.25"
         linecap="square"
         id="path1568" /></pattern><symbol
       id="SHAPE2DVIEW010"><path
         style="fill:none;stroke:#000000"
         d="M 80.9777 1013.75 L 55.5764 988.346"
         id="path1571" /><path
         style="fill:none;stroke:#000000"
         d="M 72.9542 1021.77 L 80.9777 1013.75"
         id="path1573" /><path
         style="fill:none;stroke:#000000"
         d="M 55.5764 988.346 L -55.5764 988.346"
         id="path1575" /><path
         d="M 72.954159,1021.771221 L 63.117789,1017.882066 L 67.006944,1027.718436"
         style="fill:none;stroke:#000000"
         id="path1577" /><path
         style="fill:none;stroke:#000000"
         d="M -55.5764 988.346 L -80.9776 1013.75"
         id="path1579" /><path
         style="fill:none;stroke:#000000"
         d="M 56.6576 1038.07 L 67.0069 1027.72"
         id="path1581" /><path
         style="fill:none;stroke:#000000"
         d="M -72.9541 1021.77 L -80.9776 1013.75"
         id="path1583" /><path
         d="M 56.657645,1038.067735 L 57.459404,1038.869494"
         style="fill:none;stroke:#000000"
         id="path1585" /><path
         d="M -67.006910,1027.718433 L -63.117749,1017.882062 L -72.954120,1021.771224"
         style="fill:none;stroke:#000000"
         id="path1587" /><path
         style="fill:none;stroke:#000000"
         d="M 68.8509 1027.48 L 57.4594 1038.87"
         id="path1589" /><path
         style="fill:none;stroke:#000000"
         d="M -56.6576 1038.07 L -67.0069 1027.72"
         id="path1591" /><path
         d="M 68.850919,1027.477979 L 72.713702,1023.615196"
         style="fill:none;stroke:#000000"
         id="path1593" /><path
         d="M -57.459367,1038.869493 L -56.657609,1038.067735"
         style="fill:none;stroke:#000000"
         id="path1595" /><path
         style="fill:none;stroke:#000000"
         d="M 91.6678 1004.66 L 72.7137 1023.62"
         id="path1597" /><path
         style="fill:none;stroke:#000000"
         d="M -68.8509 1027.48 L -57.4594 1038.87"
         id="path1599" /><path
         style="fill:none;stroke:#000000"
         d="M 91.6678 1004.66 L 91.4005 1004.39"
         id="path1601" /><path
         d="M -72.713659,1023.615202 L -68.850888,1027.477972"
         style="fill:none;stroke:#000000"
         id="path1603" /><path
         d="M 92.251007,1001.828918 L 91.400529,1004.393862"
         style="fill:none;stroke:#000000"
         id="path1605" /><path
         style="fill:none;stroke:#000000"
         d="M -91.6677 1004.66 L -72.7137 1023.62"
         id="path1607" /><path
         style="fill:none;stroke:#000000"
         d="M 96.2666 1001.24 L 92.251 1001.83"
         id="path1609" /><path
         style="fill:none;stroke:#000000"
         d="M -91.4005 1004.39 L -91.6677 1004.66"
         id="path1611" /><path
         style="fill:none;stroke:#000000"
         d="M 104.819 1009.79 L 96.2666 1001.24"
         id="path1613" /><path
         d="M -91.400493,1004.393862 L -92.250970,1001.828918"
         style="fill:none;stroke:#000000"
         id="path1615" /><path
         style="fill:none;stroke:#000000"
         d="M 70.6103 1044 L 104.819 1009.79"
         id="path1617" /><path
         style="fill:none;stroke:#000000"
         d="M -92.251 1001.83 L -96.2665 1001.24"
         id="path1619" /><path
         d="M 70.610274,1044.002775 L 71.412033,1044.804534"
         style="fill:none;stroke:#000000"
         id="path1621" /><path
         style="fill:none;stroke:#000000"
         d="M -96.2665 1001.24 L -104.819 1009.79"
         id="path1623" /><path
         style="fill:none;stroke:#000000"
         d="M 105.62 1010.6 L 71.412 1044.8"
         id="path1625" /><path
         style="fill:none;stroke:#000000"
         d="M -104.819 1009.79 L -70.6102 1044"
         id="path1627" /><path
         style="fill:none;stroke:#000000"
         d="M 111.924 1016.9 L 105.62 1010.6"
         id="path1629" /><path
         d="M -71.411996,1044.804534 L -70.610238,1044.002775"
         style="fill:none;stroke:#000000"
         id="path1631" /><path
         style="fill:none;stroke:#000000"
         d="M 77.7152 1051.11 L 111.924 1016.9"
         id="path1633" /><path
         style="fill:none;stroke:#000000"
         d="M -71.412 1044.8 L -105.62 1010.6"
         id="path1635" /><path
         d="M 77.715153,1051.107655 L 78.516912,1051.909414"
         style="fill:none;stroke:#000000"
         id="path1637" /><path
         style="fill:none;stroke:#000000"
         d="M -105.62 1010.6 L -111.923 1016.9"
         id="path1639" /><path
         style="fill:none;stroke:#000000"
         d="M 112.725 1017.7 L 78.5169 1051.91"
         id="path1641" /><path
         style="fill:none;stroke:#000000"
         d="M -111.923 1016.9 L -77.7151 1051.11"
         id="path1643" /><path
         style="fill:none;stroke:#000000"
         d="M 121.277 1026.25 L 112.725 1017.7"
         id="path1645" /><path
         d="M -78.516876,1051.909413 L -77.715117,1051.107654"
         style="fill:none;stroke:#000000"
         id="path1647" /><path
         style="fill:none;stroke:#000000"
         d="M 120.691 1030.27 L 121.277 1026.25"
         id="path1649" /><path
         style="fill:none;stroke:#000000"
         d="M -78.5169 1051.91 L -112.725 1017.7"
         id="path1651" /><path
         d="M 118.125825,1031.119158 L 120.690770,1030.268681"
         style="fill:none;stroke:#000000"
         id="path1653" /><path
         style="fill:none;stroke:#000000"
         d="M -112.725 1017.7 L -121.277 1026.25"
         id="path1655" /><path
         style="fill:none;stroke:#000000"
         d="M 118.126 1031.12 L 117.859 1030.85"
         id="path1657" /><path
         style="fill:none;stroke:#000000"
         d="M -121.277 1026.25 L -120.691 1030.27"
         id="path1659" /><path
         style="fill:none;stroke:#000000"
         d="M 117.859 1030.85 L 83.6502 1065.06"
         id="path1661" /><path
         d="M -120.690733,1030.268681 L -118.125789,1031.119158"
         style="fill:none;stroke:#000000"
         id="path1663" /><path
         d="M 83.650194,1065.060284 L 84.451953,1065.862043"
         style="fill:none;stroke:#000000"
         id="path1665" /><path
         style="fill:none;stroke:#000000"
         d="M -117.859 1030.85 L -118.126 1031.12"
         id="path1667" /><path
         style="fill:none;stroke:#000000"
         d="M 84.452 1065.86 L 108.772 1041.54"
         id="path1669" /><path
         style="fill:none;stroke:#000000"
         d="M -117.859 1030.85 L -83.6502 1065.06"
         id="path1671" /><path
         style="fill:none;stroke:#000000"
         d="M 134.173 1066.94 L 108.772 1041.54"
         id="path1673" /><path
         d="M -84.451916,1065.862042 L -83.650157,1065.060283"
         style="fill:none;stroke:#000000"
         id="path1675" /><path
         style="fill:none;stroke:#000000"
         d="M 134.173 1178.1 L 134.173 1066.94"
         id="path1677" /><path
         style="fill:none;stroke:#000000"
         d="M -84.4519 1065.86 L -108.772 1041.54"
         id="path1679" /><path
         style="fill:none;stroke:#000000"
         d="M 108.772 1203.5 L 134.173 1178.1"
         id="path1681" /><path
         style="fill:none;stroke:#000000"
         d="M -108.772 1041.54 L -134.173 1066.94"
         id="path1683" /><path
         style="fill:none;stroke:#000000"
         d="M 84.452 1179.18 L 108.772 1203.5"
         id="path1685" /><path
         style="fill:none;stroke:#000000"
         d="M -134.173 1066.94 L -134.173 1178.1"
         id="path1687" /><path
         d="M 84.451952,1179.177296 L 83.650193,1179.979055"
         style="fill:none;stroke:#000000"
         id="path1689" /><path
         style="fill:none;stroke:#000000"
         d="M -134.173 1178.1 L -108.772 1203.5"
         id="path1691" /><path
         style="fill:none;stroke:#000000"
         d="M 117.859 1214.19 L 83.6502 1179.98"
         id="path1693" /><path
         style="fill:none;stroke:#000000"
         d="M -84.4519 1179.18 L -108.772 1203.5"
         id="path1695" /><path
         style="fill:none;stroke:#000000"
         d="M 117.859 1214.19 L 118.126 1213.92"
         id="path1697" /><path
         d="M -83.650158,1179.979055 L -84.451916,1179.177296"
         style="fill:none;stroke:#000000"
         id="path1699" /><path
         d="M 120.690769,1214.770658 L 118.125825,1213.920180"
         style="fill:none;stroke:#000000"
         id="path1701" /><path
         style="fill:none;stroke:#000000"
         d="M -117.859 1214.19 L -83.6502 1179.98"
         id="path1703" /><path
         style="fill:none;stroke:#000000"
         d="M 121.277 1218.79 L 120.691 1214.77"
         id="path1705" /><path
         style="fill:none;stroke:#000000"
         d="M -118.126 1213.92 L -117.859 1214.19"
         id="path1707" /><path
         style="fill:none;stroke:#000000"
         d="M 112.725 1227.34 L 121.277 1218.79"
         id="path1709" /><path
         d="M -118.125789,1213.920180 L -120.690734,1214.770657"
         style="fill:none;stroke:#000000"
         id="path1711" /><path
         style="fill:none;stroke:#000000"
         d="M 78.5169 1193.13 L 112.725 1227.34"
         id="path1713" /><path
         style="fill:none;stroke:#000000"
         d="M -120.691 1214.77 L -121.277 1218.79"
         id="path1715" /><path
         d="M 78.516912,1193.129925 L 77.715153,1193.931684"
         style="fill:none;stroke:#000000"
         id="path1717" /><path
         style="fill:none;stroke:#000000"
         d="M -121.277 1218.79 L -112.725 1227.34"
         id="path1719" /><path
         style="fill:none;stroke:#000000"
         d="M 111.924 1228.14 L 77.7152 1193.93"
         id="path1721" /><path
         style="fill:none;stroke:#000000"
         d="M -112.725 1227.34 L -78.5169 1193.13"
         id="path1723" /><path
         style="fill:none;stroke:#000000"
         d="M 105.62 1234.44 L 111.924 1228.14"
         id="path1725" /><path
         d="M -77.715117,1193.931684 L -78.516876,1193.129925"
         style="fill:none;stroke:#000000"
         id="path1727" /><path
         style="fill:none;stroke:#000000"
         d="M 71.412 1200.23 L 105.62 1234.44"
         id="path1729" /><path
         style="fill:none;stroke:#000000"
         d="M -77.7151 1193.93 L -111.923 1228.14"
         id="path1731" /><path
         d="M 71.412032,1200.234805 L 70.610274,1201.036563"
         style="fill:none;stroke:#000000"
         id="path1733" /><path
         style="fill:none;stroke:#000000"
         d="M -111.923 1228.14 L -105.62 1234.44"
         id="path1735" /><path
         style="fill:none;stroke:#000000"
         d="M 104.819 1235.24 L 70.6103 1201.04"
         id="path1737" /><path
         style="fill:none;stroke:#000000"
         d="M -105.62 1234.44 L -71.412 1200.23"
         id="path1739" /><path
         style="fill:none;stroke:#000000"
         d="M 96.2666 1243.8 L 104.819 1235.24"
         id="path1741" /><path
         d="M -70.610238,1201.036563 L -71.411997,1200.234804"
         style="fill:none;stroke:#000000"
         id="path1743" /><path
         style="fill:none;stroke:#000000"
         d="M 92.251 1243.21 L 96.2666 1243.8"
         id="path1745" /><path
         style="fill:none;stroke:#000000"
         d="M -70.6102 1201.04 L -104.819 1235.24"
         id="path1747" /><path
         d="M 91.400529,1240.645476 L 92.251006,1243.210421"
         style="fill:none;stroke:#000000"
         id="path1749" /><path
         style="fill:none;stroke:#000000"
         d="M -104.819 1235.24 L -96.2665 1243.8"
         id="path1751" /><path
         style="fill:none;stroke:#000000"
         d="M 91.4005 1240.65 L 91.6678 1240.38"
         id="path1753" /><path
         style="fill:none;stroke:#000000"
         d="M -96.2665 1243.8 L -92.251 1243.21"
         id="path1755" /><path
         style="fill:none;stroke:#000000"
         d="M 91.6678 1240.38 L 72.7137 1221.42"
         id="path1757" /><path
         d="M -92.250971,1243.210420 L -91.400493,1240.645476"
         style="fill:none;stroke:#000000"
         id="path1759" /><path
         d="M 72.713695,1221.424136 L 68.850925,1217.561366"
         style="fill:none;stroke:#000000"
         id="path1761" /><path
         style="fill:none;stroke:#000000"
         d="M -91.6677 1240.38 L -91.4005 1240.65"
         id="path1763" /><path
         style="fill:none;stroke:#000000"
         d="M 68.8509 1217.56 L 57.4594 1206.17"
         id="path1765" /><path
         style="fill:none;stroke:#000000"
         d="M -91.6677 1240.38 L -72.7137 1221.42"
         id="path1767" /><path
         d="M 57.459404,1206.169845 L 56.657645,1206.971604"
         style="fill:none;stroke:#000000"
         id="path1769" /><path
         d="M -68.850883,1217.561359 L -72.713666,1221.424142"
         style="fill:none;stroke:#000000"
         id="path1771" /><path
         style="fill:none;stroke:#000000"
         d="M 56.6576 1206.97 L 67.0069 1217.32"
         id="path1773" /><path
         style="fill:none;stroke:#000000"
         d="M -68.8509 1217.56 L -57.4594 1206.17"
         id="path1775" /><path
         d="M 67.006946,1217.320905 L 67.193393,1228.845448"
         style="fill:none;stroke:#000000"
         id="path1777" /><path
         d="M -56.657609,1206.971603 L -57.459368,1206.169844"
         style="fill:none;stroke:#000000"
         id="path1779" /><path
         d="M 67.193393,1228.845448 L 72.954156,1223.268115"
         style="fill:none;stroke:#000000"
         id="path1781" /><path
         style="fill:none;stroke:#000000"
         d="M -56.6576 1206.97 L -67.0069 1217.32"
         id="path1783" /><path
         style="fill:none;stroke:#000000"
         d="M 72.9542 1223.27 L 80.9777 1231.29"
         id="path1785" /><path
         d="M -67.193360,1228.845444 L -67.006908,1217.320902"
         style="fill:none;stroke:#000000"
         id="path1787" /><path
         style="fill:none;stroke:#000000"
         d="M 55.5764 1256.69 L 80.9777 1231.29"
         id="path1789" /><path
         d="M -72.954123,1223.268117 L -67.193360,1228.845444"
         style="fill:none;stroke:#000000"
         id="path1791" /><path
         style="fill:none;stroke:#000000"
         d="M -55.5764 1256.69 L 55.5764 1256.69"
         id="path1793" /><path
         style="fill:none;stroke:#000000"
         d="M -72.9541 1223.27 L -80.9776 1231.29"
         id="path1795" /><path
         style="fill:none;stroke:#000000"
         d="M -80.9776 1231.29 L -55.5764 1256.69"
         id="path1797" /><path
         d="M -102.220793,1095.129683 L -108.902117,1083.557290 L -120.474510,1090.238614"
         style="fill:none;stroke:#000000"
         id="path1799" /><path
         d="M -102.220793,1095.129683 L -105.424051,1113.296256 L -105.424051,1131.743078 L -102.220794,1149.909651"
         style="fill:none;stroke:#000000"
         id="path1801" /><path
         d="M -120.474510,1090.238614 L -123.657356,1106.239864 L -124.724391,1122.519667 L -123.657357,1138.799469 L -120.474511,1154.800719"
         style="fill:none;stroke:#000000"
         id="path1803" /><path
         d="M -120.474511,1154.800719 L -108.902119,1161.482043 L -102.220794,1149.909651"
         style="fill:none;stroke:#000000"
         id="path1805" /><path
         d="M -81.599982,1090.166913 L -86.837049,1081.096047 L -76.362915,1081.096047 L -81.599982,1090.166913"
         style="fill:none;stroke:#000000"
         id="path1807" /><path
         d="M -81.599982,1166.966913 L -86.837049,1157.896047 L -76.362915,1157.896047 L -81.599982,1166.966913"
         style="fill:none;stroke:#000000"
         id="path1809" /><path
         d="M -27.389968,1224.740480 L -38.962361,1231.421804 L -32.281037,1242.994197"
         style="fill:none;stroke:#000000"
         id="path1811" /><path
         d="M -27.389968,1224.740480 L -9.223395,1227.943738 L 9.223427,1227.943738 L 27.390000,1224.740482"
         style="fill:none;stroke:#000000"
         id="path1813" /><path
         d="M -32.281037,1242.994197 L -16.279787,1246.177044 L 0.000015,1247.244079 L 16.279818,1246.177044 L 32.281068,1242.994198"
         style="fill:none;stroke:#000000"
         id="path1815" /><path
         d="M 32.281068,1242.994198 L 38.962392,1231.421806 L 27.390000,1224.740482"
         style="fill:none;stroke:#000000"
         id="path1817" /><path
         d="M 27.390004,1020.298858 L 38.962397,1013.617534 L 32.281073,1002.045142"
         style="fill:none;stroke:#000000"
         id="path1819" /><path
         d="M 27.390004,1020.298858 L 9.223431,1017.095600 L -9.223391,1017.095600 L -27.389964,1020.298857"
         style="fill:none;stroke:#000000"
         id="path1821" /><path
         d="M 32.281073,1002.045142 L 16.279823,998.862295 L 0.000021,997.795260 L -16.279782,998.862294 L -32.281032,1002.045140"
         style="fill:none;stroke:#000000"
         id="path1823" /><path
         d="M -32.281032,1002.045140 L -38.962356,1013.617533 L -27.389964,1020.298857"
         style="fill:none;stroke:#000000"
         id="path1825" /><path
         d="M 81.600018,1090.166913 L 76.362951,1081.096047 L 86.837085,1081.096047 L 81.600018,1090.166913"
         style="fill:none;stroke:#000000"
         id="path1827" /><path
         d="M 81.600018,1166.966913 L 76.362951,1157.896047 L 86.837085,1157.896047 L 81.600018,1166.966913"
         style="fill:none;stroke:#000000"
         id="path1829" /><path
         d="M 102.220829,1149.909655 L 108.902153,1161.482048 L 120.474546,1154.800724"
         style="fill:none;stroke:#000000"
         id="path1831" /><path
         d="M 102.220829,1149.909655 L 105.424087,1131.743082 L 105.424087,1113.296260 L 102.220830,1095.129687"
         style="fill:none;stroke:#000000"
         id="path1833" /><path
         d="M 120.474546,1154.800724 L 123.657393,1138.799474 L 124.724427,1122.519672 L 123.657393,1106.239869 L 120.474547,1090.238619"
         style="fill:none;stroke:#000000"
         id="path1835" /><path
         d="M 120.474547,1090.238619 L 108.902155,1083.557295 L 102.220830,1095.129687"
         style="fill:none;stroke:#000000"
         id="path1837" /></symbol><marker
       id="DistanceX-0"
       orient="auto"
       refX="0.0"
       refY="0.0"
       style="overflow:visible"><path
         d="M 3,-3 L -3,3 M 0,-5 L  0,5"
         style="stroke:#000000; stroke-width:0.5"
         id="path2618" /></marker><pattern
       id="Hatch-9"
       patternUnits="userSpaceOnUse"
       width="8"
       height="8"
       x="0"
       y="0"><path
         d="M8 4 l-4,4"
         stroke="#000000"
         stroke-width="0.25"
         linecap="square"
         id="path2621" /><path
         d="M6 2 l-4,4"
         stroke="#000000"
         stroke-width="0.25"
         linecap="square"
         id="path2623" /><path
         d="M4 0 l-4,4"
         stroke="#000000"
         stroke-width="0.25"
         linecap="square"
         id="path2625" /></pattern><symbol
       id="SHAPE2DVIEW011"><path
         style="fill:none;stroke:#000000"
         d="M -108.772 1041.54 L -134.173 1066.94"
         id="path2628" /><path
         style="fill:none;stroke:#000000"
         d="M -100.748 1049.57 L -108.772 1041.54"
         id="path2630" /><path
         style="fill:none;stroke:#000000"
         d="M -134.173 1066.94 L -134.173 1178.1"
         id="path2632" /><path
         d="M -100.748448,1049.565544 A 5.763780,5.763780 0.000000 1 0 -94.801233,1055.512759"
         style="fill:none;stroke:#000000"
         id="path2634" /><path
         style="fill:none;stroke:#000000"
         d="M -134.173 1178.1 L -108.772 1203.5"
         id="path2636" /><path
         style="fill:none;stroke:#000000"
         d="M -84.4519 1065.86 L -94.8012 1055.51"
         id="path2638" /><path
         style="fill:none;stroke:#000000"
         d="M -100.748 1195.47 L -108.772 1203.5"
         id="path2640" /><path
         d="M -84.451934,1065.862058 A 0.566929,0.566929 0.000000 0 0 -83.650175,1065.060299"
         style="fill:none;stroke:#000000"
         id="path2642" /><path
         d="M -94.801236,1189.526613 A 5.763780,5.763780 0.000000 1 0 -100.748446,1195.473823"
         style="fill:none;stroke:#000000"
         id="path2644" /><path
         style="fill:none;stroke:#000000"
         d="M -95.0417 1053.67 L -83.6502 1065.06"
         id="path2646" /><path
         style="fill:none;stroke:#000000"
         d="M -84.4519 1179.18 L -94.8012 1189.53"
         id="path2648" /><path
         d="M -95.041690,1053.668784 A 5.763780,5.763780 0.000000 0 0 -98.904473,1049.806001"
         style="fill:none;stroke:#000000"
         id="path2650" /><path
         d="M -83.650176,1179.979071 A 0.566929,0.566929 0.000000 0 0 -84.451935,1179.177312"
         style="fill:none;stroke:#000000"
         id="path2652" /><path
         style="fill:none;stroke:#000000"
         d="M -117.859 1030.85 L -98.9045 1049.81"
         id="path2654" /><path
         style="fill:none;stroke:#000000"
         d="M -95.0417 1191.37 L -83.6502 1179.98"
         id="path2656" /><path
         style="fill:none;stroke:#000000"
         d="M -117.859 1030.85 L -118.126 1031.12"
         id="path2658" /><path
         d="M -98.904467,1195.233362 A 5.763780,5.763780 0.000000 0 0 -95.041697,1191.370592"
         style="fill:none;stroke:#000000"
         id="path2660" /><path
         d="M -120.690751,1030.268696 A 1.511811,1.511811 0.000000 0 0 -118.125807,1031.119174"
         style="fill:none;stroke:#000000"
         id="path2662" /><path
         style="fill:none;stroke:#000000"
         d="M -117.859 1214.19 L -98.9045 1195.23"
         id="path2664" /><path
         style="fill:none;stroke:#000000"
         d="M -121.277 1026.25 L -120.691 1030.27"
         id="path2666" /><path
         style="fill:none;stroke:#000000"
         d="M -118.126 1213.92 L -117.859 1214.19"
         id="path2668" /><path
         style="fill:none;stroke:#000000"
         d="M -112.725 1017.7 L -121.277 1026.25"
         id="path2670" /><path
         d="M -118.125807,1213.920196 A 1.511811,1.511811 0.000000 0 0 -120.690752,1214.770673"
         style="fill:none;stroke:#000000"
         id="path2672" /><path
         style="fill:none;stroke:#000000"
         d="M -78.5169 1051.91 L -112.725 1017.7"
         id="path2674" /><path
         style="fill:none;stroke:#000000"
         d="M -120.691 1214.77 L -121.277 1218.79"
         id="path2676" /><path
         d="M -78.516894,1051.909429 A 0.566929,0.566929 0.000000 1 0 -77.715135,1051.107670"
         style="fill:none;stroke:#000000"
         id="path2678" /><path
         style="fill:none;stroke:#000000"
         d="M -121.277 1218.79 L -112.725 1227.34"
         id="path2680" /><path
         style="fill:none;stroke:#000000"
         d="M -111.924 1016.9 L -77.7151 1051.11"
         id="path2682" /><path
         style="fill:none;stroke:#000000"
         d="M -112.725 1227.34 L -78.5169 1193.13"
         id="path2684" /><path
         style="fill:none;stroke:#000000"
         d="M -105.62 1010.6 L -111.924 1016.9"
         id="path2686" /><path
         d="M -77.715135,1193.931699 A 0.566929,0.566929 0.000000 0 0 -78.516894,1193.129941"
         style="fill:none;stroke:#000000"
         id="path2688" /><path
         style="fill:none;stroke:#000000"
         d="M -71.412 1044.8 L -105.62 1010.6"
         id="path2690" /><path
         style="fill:none;stroke:#000000"
         d="M -77.7151 1193.93 L -111.924 1228.14"
         id="path2692" /><path
         d="M -71.412014,1044.804550 A 0.566929,0.566929 0.000000 0 0 -70.610256,1044.002791"
         style="fill:none;stroke:#000000"
         id="path2694" /><path
         style="fill:none;stroke:#000000"
         d="M -111.924 1228.14 L -105.62 1234.44"
         id="path2696" /><path
         style="fill:none;stroke:#000000"
         d="M -104.819 1009.79 L -70.6103 1044"
         id="path2698" /><path
         style="fill:none;stroke:#000000"
         d="M -105.62 1234.44 L -71.412 1200.23"
         id="path2700" /><path
         style="fill:none;stroke:#000000"
         d="M -96.2665 1001.24 L -104.819 1009.79"
         id="path2702" /><path
         d="M -70.610256,1201.036579 A 0.566929,0.566929 0.000000 1 0 -71.412015,1200.234820"
         style="fill:none;stroke:#000000"
         id="path2704" /><path
         style="fill:none;stroke:#000000"
         d="M -92.251 1001.83 L -96.2665 1001.24"
         id="path2706" /><path
         style="fill:none;stroke:#000000"
         d="M -70.6103 1201.04 L -104.819 1235.24"
         id="path2708" /><path
         d="M -91.400511,1004.393878 A 1.511811,1.511811 0.000000 0 0 -92.250988,1001.828934"
         style="fill:none;stroke:#000000"
         id="path2710" /><path
         style="fill:none;stroke:#000000"
         d="M -104.819 1235.24 L -96.2665 1243.8"
         id="path2712" /><path
         style="fill:none;stroke:#000000"
         d="M -91.4005 1004.39 L -91.6678 1004.66"
         id="path2714" /><path
         style="fill:none;stroke:#000000"
         d="M -96.2665 1243.8 L -92.251 1243.21"
         id="path2716" /><path
         style="fill:none;stroke:#000000"
         d="M -91.6678 1004.66 L -57.4594 1038.87"
         id="path2718" /><path
         d="M -92.250989,1243.210436 A 1.511811,1.511811 0.000000 0 0 -91.400511,1240.645492"
         style="fill:none;stroke:#000000"
         id="path2720" /><path
         d="M -57.459385,1038.869509 A 0.566929,0.566929 0.000000 0 0 -56.657627,1038.067751"
         style="fill:none;stroke:#000000"
         id="path2722" /><path
         style="fill:none;stroke:#000000"
         d="M -91.6678 1240.38 L -91.4005 1240.65"
         id="path2724" /><path
         style="fill:none;stroke:#000000"
         d="M -56.6576 1038.07 L -80.9776 1013.75"
         id="path2726" /><path
         style="fill:none;stroke:#000000"
         d="M -91.6678 1240.38 L -57.4594 1206.17"
         id="path2728" /><path
         style="fill:none;stroke:#000000"
         d="M -55.5764 988.346 L -80.9776 1013.75"
         id="path2730" /><path
         d="M -56.657627,1206.971619 A 0.566929,0.566929 0.000000 0 0 -57.459386,1206.169860"
         style="fill:none;stroke:#000000"
         id="path2732" /><path
         style="fill:none;stroke:#000000"
         d="M 55.5764 988.346 L -55.5764 988.346"
         id="path2734" /><path
         style="fill:none;stroke:#000000"
         d="M -56.6576 1206.97 L -80.9776 1231.29"
         id="path2736" /><path
         style="fill:none;stroke:#000000"
         d="M 80.9776 1013.75 L 55.5764 988.346"
         id="path2738" /><path
         style="fill:none;stroke:#000000"
         d="M -80.9776 1231.29 L -55.5764 1256.69"
         id="path2740" /><path
         style="fill:none;stroke:#000000"
         d="M 56.6576 1038.07 L 80.9776 1013.75"
         id="path2742" /><path
         style="fill:none;stroke:#000000"
         d="M -55.5764 1256.69 L 55.5764 1256.69"
         id="path2744" /><path
         d="M 56.657627,1038.067751 A 0.566929,0.566929 0.000000 0 0 57.459386,1038.869510"
         style="fill:none;stroke:#000000"
         id="path2746" /><path
         style="fill:none;stroke:#000000"
         d="M 55.5764 1256.69 L 80.9776 1231.29"
         id="path2748" /><path
         style="fill:none;stroke:#000000"
         d="M 91.6678 1004.66 L 57.4594 1038.87"
         id="path2750" /><path
         style="fill:none;stroke:#000000"
         d="M 56.6576 1206.97 L 80.9776 1231.29"
         id="path2752" /><path
         style="fill:none;stroke:#000000"
         d="M 91.6678 1004.66 L 91.4005 1004.39"
         id="path2754" /><path
         d="M 57.459385,1206.169861 A 0.566929,0.566929 0.000000 0 0 56.657627,1206.971620"
         style="fill:none;stroke:#000000"
         id="path2756" /><path
         d="M 92.250989,1001.828934 A 1.511811,1.511811 0.000000 0 0 91.400511,1004.393878"
         style="fill:none;stroke:#000000"
         id="path2758" /><path
         style="fill:none;stroke:#000000"
         d="M 91.6678 1240.38 L 57.4594 1206.17"
         id="path2760" /><path
         style="fill:none;stroke:#000000"
         d="M 96.2665 1001.24 L 92.251 1001.83"
         id="path2762" /><path
         style="fill:none;stroke:#000000"
         d="M 91.4005 1240.65 L 91.6678 1240.38"
         id="path2764" /><path
         style="fill:none;stroke:#000000"
         d="M 104.819 1009.79 L 96.2665 1001.24"
         id="path2766" /><path
         d="M 91.400511,1240.645492 A 1.511811,1.511811 0.000000 0 0 92.250988,1243.210437"
         style="fill:none;stroke:#000000"
         id="path2768" /><path
         style="fill:none;stroke:#000000"
         d="M 70.6103 1044 L 104.819 1009.79"
         id="path2770" /><path
         style="fill:none;stroke:#000000"
         d="M 92.251 1243.21 L 96.2665 1243.8"
         id="path2772" /><path
         d="M 70.610256,1044.002791 A 0.566929,0.566929 0.000000 1 0 71.412015,1044.804550"
         style="fill:none;stroke:#000000"
         id="path2774" /><path
         style="fill:none;stroke:#000000"
         d="M 96.2665 1243.8 L 104.819 1235.24"
         id="path2776" /><path
         style="fill:none;stroke:#000000"
         d="M 105.62 1010.6 L 71.412 1044.8"
         id="path2778" /><path
         style="fill:none;stroke:#000000"
         d="M 104.819 1235.24 L 70.6103 1201.04"
         id="path2780" /><path
         style="fill:none;stroke:#000000"
         d="M 111.924 1016.9 L 105.62 1010.6"
         id="path2782" /><path
         d="M 71.412014,1200.234820 A 0.566929,0.566929 0.000000 0 0 70.610256,1201.036579"
         style="fill:none;stroke:#000000"
         id="path2784" /><path
         style="fill:none;stroke:#000000"
         d="M 77.7151 1051.11 L 111.924 1016.9"
         id="path2786" /><path
         style="fill:none;stroke:#000000"
         d="M 71.412 1200.23 L 105.62 1234.44"
         id="path2788" /><path
         d="M 77.715135,1051.107671 A 0.566929,0.566929 0.000000 0 0 78.516894,1051.909429"
         style="fill:none;stroke:#000000"
         id="path2790" /><path
         style="fill:none;stroke:#000000"
         d="M 105.62 1234.44 L 111.924 1228.14"
         id="path2792" /><path
         style="fill:none;stroke:#000000"
         d="M 112.725 1017.7 L 78.5169 1051.91"
         id="path2794" /><path
         style="fill:none;stroke:#000000"
         d="M 111.924 1228.14 L 77.7151 1193.93"
         id="path2796" /><path
         style="fill:none;stroke:#000000"
         d="M 121.277 1026.25 L 112.725 1017.7"
         id="path2798" /><path
         d="M 78.516894,1193.129941 A 0.566929,0.566929 0.000000 1 0 77.715135,1193.931700"
         style="fill:none;stroke:#000000"
         id="path2800" /><path
         style="fill:none;stroke:#000000"
         d="M 120.691 1030.27 L 121.277 1026.25"
         id="path2802" /><path
         style="fill:none;stroke:#000000"
         d="M 78.5169 1193.13 L 112.725 1227.34"
         id="path2804" /><path
         d="M 118.125807,1031.119174 A 1.511811,1.511811 0.000000 0 0 120.690752,1030.268697"
         style="fill:none;stroke:#000000"
         id="path2806" /><path
         style="fill:none;stroke:#000000"
         d="M 112.725 1227.34 L 121.277 1218.79"
         id="path2808" /><path
         style="fill:none;stroke:#000000"
         d="M 118.126 1031.12 L 117.859 1030.85"
         id="path2810" /><path
         style="fill:none;stroke:#000000"
         d="M 121.277 1218.79 L 120.691 1214.77"
         id="path2812" /><path
         style="fill:none;stroke:#000000"
         d="M 117.859 1030.85 L 98.9045 1049.81"
         id="path2814" /><path
         d="M 120.690751,1214.770674 A 1.511811,1.511811 0.000000 0 0 118.125807,1213.920196"
         style="fill:none;stroke:#000000"
         id="path2816" /><path
         d="M 98.904467,1049.806008 A 5.763780,5.763780 0.000000 0 0 95.041697,1053.668779"
         style="fill:none;stroke:#000000"
         id="path2818" /><path
         style="fill:none;stroke:#000000"
         d="M 117.859 1214.19 L 118.126 1213.92"
         id="path2820" /><path
         style="fill:none;stroke:#000000"
         d="M 95.0417 1053.67 L 83.6502 1065.06"
         id="path2822" /><path
         style="fill:none;stroke:#000000"
         d="M 117.859 1214.19 L 98.9045 1195.23"
         id="path2824" /><path
         d="M 83.650176,1065.060300 A 0.566929,0.566929 0.000000 0 0 84.451935,1065.862058"
         style="fill:none;stroke:#000000"
         id="path2826" /><path
         d="M 95.041690,1191.370586 A 5.763780,5.763780 0.000000 0 0 98.904473,1195.233369"
         style="fill:none;stroke:#000000"
         id="path2828" /><path
         style="fill:none;stroke:#000000"
         d="M 84.4519 1065.86 L 94.8012 1055.51"
         id="path2830" /><path
         style="fill:none;stroke:#000000"
         d="M 95.0417 1191.37 L 83.6502 1179.98"
         id="path2832" /><path
         d="M 94.801236,1055.512757 A 5.763780,5.763780 0.000000 0 0 106.325779,1055.326311"
         style="fill:none;stroke:#000000"
         id="path2834" /><path
         d="M 84.451934,1179.177312 A 0.566929,0.566929 0.000000 0 0 83.650175,1179.979071"
         style="fill:none;stroke:#000000"
         id="path2836" /><path
         d="M 106.325779,1055.326311 A 5.763780,5.763780 0.000000 0 0 100.748446,1049.565547"
         style="fill:none;stroke:#000000"
         id="path2838" /><path
         style="fill:none;stroke:#000000"
         d="M 84.4519 1179.18 L 94.8012 1189.53"
         id="path2840" /><path
         style="fill:none;stroke:#000000"
         d="M 100.748 1049.57 L 108.772 1041.54"
         id="path2842" /><path
         d="M 106.325775,1189.713063 A 5.763780,5.763780 0.000000 0 0 94.801233,1189.526611"
         style="fill:none;stroke:#000000"
         id="path2844" /><path
         style="fill:none;stroke:#000000"
         d="M 134.173 1066.94 L 108.772 1041.54"
         id="path2846" /><path
         d="M 100.748448,1195.473826 A 5.763780,5.763780 0.000000 0 0 106.325775,1189.713063"
         style="fill:none;stroke:#000000"
         id="path2848" /><path
         style="fill:none;stroke:#000000"
         d="M 134.173 1178.1 L 134.173 1066.94"
         id="path2850" /><path
         style="fill:none;stroke:#000000"
         d="M 100.748 1195.47 L 108.772 1203.5"
         id="path2852" /><path
         style="fill:none;stroke:#000000"
         d="M 108.772 1203.5 L 134.173 1178.1"
         id="path2854" /><path
         d="M -27.389986,1224.740496 A 9.448819,9.448819 0.000000 1 0 -32.281055,1242.994213"
         style="fill:none;stroke:#000000"
         id="path2856" /><path
         d="M -27.389986,1224.740496 A 105.826772,105.826772 0.000000 0 0 27.389982,1224.740497"
         style="fill:none;stroke:#000000"
         id="path2858" /><path
         d="M -32.281055,1242.994213 A 124.724409,124.724409 0.000000 0 0 32.281050,1242.994214"
         style="fill:none;stroke:#000000"
         id="path2860" /><path
         d="M 32.281050,1242.994214 A 9.448819,9.448819 0.000000 0 0 27.389982,1224.740497"
         style="fill:none;stroke:#000000"
         id="path2862" /><path
         d="M -32.352756,1204.119685 A 6.047244,6.047244 0.000000 0, 0 -44.447244,1204.119685 A 6.047244,6.047244 0.000000 0, 0 -32.352756,1204.119685 z"
         style="fill:none;stroke:#000000"
         id="path2864" /><path
         d="M 44.447244,1204.119685 A 6.047244,6.047244 0.000000 0, 0 32.352756,1204.119685 A 6.047244,6.047244 0.000000 0, 0 44.447244,1204.119685 z"
         style="fill:none;stroke:#000000"
         id="path2866" /><path
         d="M 102.220811,1149.909671 A 9.448819,9.448819 0.000000 1 0 120.474528,1154.800740"
         style="fill:none;stroke:#000000"
         id="path2868" /><path
         d="M 102.220811,1149.909671 A 105.826772,105.826772 0.000000 0 0 102.220812,1095.129703"
         style="fill:none;stroke:#000000"
         id="path2870" /><path
         d="M 120.474528,1154.800740 A 124.724409,124.724409 0.000000 0 0 120.474529,1090.238635"
         style="fill:none;stroke:#000000"
         id="path2872" /><path
         d="M 120.474529,1090.238635 A 9.448819,9.448819 0.000000 0 0 102.220812,1095.129703"
         style="fill:none;stroke:#000000"
         id="path2874" /><path
         d="M -102.220811,1095.129699 A 9.448819,9.448819 0.000000 1 0 -120.474528,1090.238630"
         style="fill:none;stroke:#000000"
         id="path2876" /><path
         d="M -102.220811,1095.129699 A 105.826772,105.826772 0.000000 0 0 -102.220812,1149.909667"
         style="fill:none;stroke:#000000"
         id="path2878" /><path
         d="M -120.474528,1090.238630 A 124.724409,124.724409 0.000000 0 0 -120.474529,1154.800735"
         style="fill:none;stroke:#000000"
         id="path2880" /><path
         d="M -120.474529,1154.800735 A 9.448819,9.448819 0.000000 0 0 -102.220812,1149.909667"
         style="fill:none;stroke:#000000"
         id="path2882" /><path
         d="M -32.352756,1040.919685 A 6.047244,6.047244 0.000000 0, 0 -44.447244,1040.919685 A 6.047244,6.047244 0.000000 0, 0 -32.352756,1040.919685 z"
         style="fill:none;stroke:#000000"
         id="path2884" /><path
         d="M 44.447244,1040.919685 A 6.047244,6.047244 0.000000 0, 0 32.352756,1040.919685 A 6.047244,6.047244 0.000000 0, 0 44.447244,1040.919685 z"
         style="fill:none;stroke:#000000"
         id="path2886" /><path
         d="M 27.389986,1020.298874 A 9.448819,9.448819 0.000000 1 0 32.281055,1002.045157"
         style="fill:none;stroke:#000000"
         id="path2888" /><path
         d="M 27.389986,1020.298874 A 105.826772,105.826772 0.000000 0 0 -27.389982,1020.298873"
         style="fill:none;stroke:#000000"
         id="path2890" /><path
         d="M 32.281055,1002.045157 A 124.724409,124.724409 0.000000 0 0 -32.281050,1002.045156"
         style="fill:none;stroke:#000000"
         id="path2892" /><path
         d="M -32.281050,1002.045156 A 9.448819,9.448819 0.000000 0 0 -27.389982,1020.298873"
         style="fill:none;stroke:#000000"
         id="path2894" /></symbol></defs><g
     inkscape:label="Layer 1"
     inkscape:groupmode="layer"
     id="layer1"><path
       id="path3704"
       style="fill:none;fill-opacity:1;stroke:#0000ff;stroke-width:0.2;stroke-dasharray:none;stroke-opacity:1"
       d="M 90.295264 113.00034 L 83.574744 119.72189 L 90.009493 126.15612 C 90.147976 126.2972 89.938504 126.50644 89.797103 126.368 L 80.745976 117.31687 L 80.816772 117.24607 C 81.049445 117.01392 80.91757 116.61548 80.59198 116.56808 L 79.529513 116.41202 L 77.266602 118.67389 L 86.317729 127.72605 C 86.457983 127.86785 86.246755 128.07878 86.105339 127.93793 L 77.054728 118.88835 L 75.386613 120.55543 L 84.43774 129.60656 C 84.582052 129.74765 84.367267 129.96268 84.225867 129.81843 L 75.17474 120.76679 L 72.912345 123.02918 L 73.067375 124.09268 C 73.114966 124.41808 73.513243 124.55005 73.745886 124.31748 L 73.816683 124.24616 L 78.831364 129.26239 C 79.322098 129.40921 79.706177 129.79314 79.853524 130.28404 L 82.86781 133.29781 C 83.008181 133.43922 82.796842 133.65031 82.65542 133.50968 L 79.917086 130.77135 C 79.873881 132.10598 78.25857 132.74466 77.314661 131.80074 C 76.370751 130.85681 77.009152 129.24143 78.343538 129.19883 L 76.220671 127.07441 L 69.500151 133.79493 L 69.500151 163.20606 L 76.220671 169.92658 L 78.343538 167.80216 C 77.009146 167.75947 76.370742 166.14417 77.314661 165.20025 C 78.258579 164.25632 79.873896 164.89485 79.917086 166.22965 L 82.65542 163.49131 C 82.796845 163.3506 83.008181 163.56165 82.86781 163.70319 L 79.853524 166.71696 C 79.706177 167.20778 79.322097 167.5917 78.831364 167.7386 L 73.816683 172.75483 L 73.745886 172.68352 C 73.513245 172.45088 73.114965 172.58282 73.067375 172.90831 L 72.912345 173.97181 L 75.17474 176.2342 L 84.225867 167.18256 C 84.367295 167.04219 84.578103 167.25323 84.43774 167.39443 L 75.386613 176.44608 L 77.054728 178.11264 L 86.105339 169.06203 C 86.246755 168.92018 86.460226 169.13307 86.317729 169.27494 L 77.266602 178.32452 L 79.529513 180.58898 L 80.59198 180.43291 C 80.917548 180.38539 81.049419 179.98701 80.816772 179.75492 L 80.745976 179.68412 L 89.797103 170.633 C 89.938511 170.49368 90.148776 170.70367 90.009493 170.84487 L 83.574744 177.2791 L 90.295264 183.99962 L 119.70484 183.99962 L 126.42536 177.2791 L 119.99061 170.84487 C 119.85041 170.70369 120.06159 170.49277 120.203 170.633 L 129.25361 179.68412 L 129.18281 179.75492 C 128.95016 179.98699 129.08255 180.38541 129.40812 180.43291 L 130.47059 180.58898 L 132.7335 178.32452 L 123.68237 169.27494 C 123.54226 169.13311 123.75283 168.92258 123.89425 169.06203 L 132.94537 178.11264 L 134.61297 176.44556 L 125.56236 167.39443 C 125.41956 167.25322 125.63282 167.03975 125.77424 167.18256 L 134.82536 176.2342 L 137.08776 173.97181 L 136.93273 172.90831 C 136.88514 172.58282 136.48689 172.45087 136.25422 172.68352 L 136.18342 172.75483 L 131.16822 167.7386 C 130.67748 167.5917 130.29393 167.20778 130.14658 166.71696 L 127.13229 163.70319 C 126.99223 163.56168 127.20326 163.35091 127.34468 163.49131 L 130.08302 166.22965 C 130.14783 164.2297 133.1318 164.27814 133.13193 166.27874 C 133.13192 167.10177 132.4787 167.77606 131.65605 167.80216 L 133.77943 169.92658 L 140.49995 163.20606 L 140.49995 133.79493 L 133.77943 127.07441 L 131.65605 129.19832 C 132.47871 129.22435 133.13193 129.8992 133.13193 130.72225 C 133.1318 132.72292 130.14782 132.77119 130.08302 130.77135 L 127.34468 133.50968 C 127.20325 133.65 126.99223 133.43927 127.13229 133.29781 L 130.14658 130.28404 C 130.29393 129.79314 130.67748 129.40921 131.16822 129.26239 L 136.18342 124.24616 L 136.25422 124.31748 C 136.48687 124.55003 136.88513 124.41808 136.93273 124.09268 L 137.08776 123.02918 L 134.82536 120.76679 L 125.77424 129.81843 C 125.63281 129.95679 125.42394 129.74767 125.56236 129.60656 L 134.61297 120.55543 L 132.94537 118.88835 L 123.89425 127.93793 C 123.75284 128.08134 123.53956 127.86784 123.68237 127.72605 L 132.7335 118.67389 L 130.47059 116.41202 L 129.40812 116.56808 C 129.08253 116.61549 128.95013 117.0139 129.18281 117.24607 L 129.25361 117.31687 L 120.203 126.368 C 120.06156 126.50707 119.8515 126.29725 119.99061 126.15612 L 126.42536 119.72189 L 119.70484 113.00034 L 90.295264 113.00034 z M 104.99979 115.50044 C 107.87147 115.50044 110.74325 115.87529 113.54087 116.62492 C 116.76773 117.48354 115.4707 122.32445 112.2469 121.4546 C 107.49935 120.1825 102.50075 120.1825 97.753206 121.4546 C 94.53792 122.30965 93.247184 117.49208 96.459229 116.62492 C 99.256878 115.87529 102.12815 115.50044 104.99979 115.50044 z M 94.803516 125.31121 A 1.6 1.6 0 0 1 96.440108 126.9106 A 1.6001607 1.6001607 0 0 1 93.239787 126.9106 A 1.6 1.6 0 0 1 94.562187 125.33499 A 1.6 1.6 0 0 1 94.803516 125.31121 z M 114.88239 125.33499 A 1.6 1.6 0 0 1 116.7598 126.9106 A 1.6 1.6 0 0 1 113.55999 126.9106 A 1.6 1.6 0 0 1 114.88239 125.33499 z M 75.446558 138.09545 C 75.462371 138.0953 75.478281 138.09532 75.4941 138.09545 C 76.973797 138.10752 78.467621 139.34089 77.953898 141.25339 C 76.681801 146.00095 76.681801 151.00004 77.953898 155.7476 C 78.810452 158.9638 73.990473 160.2551 73.124219 157.04158 C 71.624965 151.44625 71.624965 145.55467 73.124219 139.95942 C 73.470214 138.67125 74.450305 138.10495 75.446558 138.09545 z M 134.50652 138.09855 C 135.51887 138.08999 136.5243 138.6524 136.87537 139.95942 C 138.37457 145.55469 138.37457 151.44625 136.87537 157.04158 C 136.01622 160.26744 131.17681 158.97091 132.04569 155.7476 C 133.31779 151.00004 133.31779 146.00095 132.04569 141.25339 C 131.53259 139.34319 133.02692 138.11105 134.50652 138.09855 z M 94.803516 168.49101 A 1.6 1.6 0 0 1 96.440108 170.09039 A 1.6001607 1.6001607 0 0 1 93.239787 170.09039 A 1.6 1.6 0 0 1 94.562187 168.51478 A 1.6 1.6 0 0 1 94.803516 168.49101 z M 115.12372 168.49101 A 1.6 1.6 0 0 1 116.7598 170.09039 A 1.6 1.6 0 0 1 113.55999 170.09039 A 1.6 1.6 0 0 1 114.88239 168.51478 A 1.6 1.6 0 0 1 115.12372 168.49101 z M 96.999764 175.442 C 97.23695 175.44191 97.488728 175.47499 97.753206 175.54639 C 102.50076 176.81849 107.49935 176.81849 112.2469 175.54639 C 115.46247 174.69076 116.75351 179.50924 113.54087 180.37607 C 107.94561 181.87533 102.05449 181.87533 96.459229 180.37607 C 93.534369 179.59825 94.325198 175.54864 96.898995 175.44407 C 96.932277 175.44272 96.96588 175.44202 96.999764 175.442 z " /></g></svg>
