<?xml version="1.0" encoding="UTF-8" standalone="no"?>
<!-- Created with Inkscape (http://www.inkscape.org/) -->

<svg
   width="210mm"
   height="297mm"
   viewBox="0 0 210 297"
   version="1.1"
   id="svg12049"
   xml:space="preserve"
   inkscape:version="1.2.2 (b0a8486, 2022-12-01)"
   sodipodi:docname="side4.svg"
   xmlns:inkscape="http://www.inkscape.org/namespaces/inkscape"
   xmlns:sodipodi="http://sodipodi.sourceforge.net/DTD/sodipodi-0.dtd"
   xmlns="http://www.w3.org/2000/svg"
   xmlns:svg="http://www.w3.org/2000/svg"><sodipodi:namedview
     id="namedview12051"
     pagecolor="#ffffff"
     bordercolor="#666666"
     borderopacity="1.0"
     inkscape:showpageshadow="2"
     inkscape:pageopacity="0.0"
     inkscape:pagecheckerboard="0"
     inkscape:deskcolor="#d1d1d1"
     inkscape:document-units="mm"
     showgrid="false"
     inkscape:zoom="1.345188"
     inkscape:cx="327.83522"
     inkscape:cy="560.88814"
     inkscape:window-width="1920"
     inkscape:window-height="975"
     inkscape:window-x="0"
     inkscape:window-y="0"
     inkscape:window-maximized="1"
     inkscape:current-layer="layer1" /><defs
     id="defs12046"><marker
       id="DistanceX"
       orient="auto"
       refX="0.0"
       refY="0.0"
       style="overflow:visible"><path
         d="M 3,-3 L -3,3 M 0,-5 L  0,5"
         style="stroke:#000000; stroke-width:0.5"
         id="path13160" /></marker><pattern
       id="Hatch"
       patternUnits="userSpaceOnUse"
       width="8"
       height="8"
       x="0"
       y="0"><path
         d="M8 4 l-4,4"
         stroke="#000000"
         stroke-width="0.25"
         linecap="square"
         id="path13163" /><path
         d="M6 2 l-4,4"
         stroke="#000000"
         stroke-width="0.25"
         linecap="square"
         id="path13165" /><path
         d="M4 0 l-4,4"
         stroke="#000000"
         stroke-width="0.25"
         linecap="square"
         id="path13167" /></pattern><symbol
       id="*Model_Space" /><symbol
       id="*Paper_Space" /></defs><g
     inkscape:label="Layer 1"
     inkscape:groupmode="layer"
     id="layer1"><g
       id="g13333"
       transform="matrix(0.26458333,0,0,0.26458333,76.699982,-96.149887)"
       style="fill:none;stroke:#0000ff;stroke-opacity:1;stroke-width:0.75590552;stroke-dasharray:none"><g
         inkscape:label="0"
         id="g13174"
         style="fill:none;stroke:#0000ff;stroke-opacity:1;stroke-width:0.75590552;stroke-dasharray:none" /><g
         inkscape:label="Shape2DView003"
         id="g13268"
         style="fill:none;stroke:#0000ff;stroke-opacity:1;stroke-width:0.75590552;stroke-dasharray:none"><path
           id="path13194"
           style="fill:none;stroke:#0000ff;stroke-linecap:round;fill-opacity:1;stroke-opacity:1;stroke-width:0.75590552;stroke-dasharray:none"
           d="M 57.860305 726.80155 L 55.436477 730.05545 C 54.693563 731.05277 55.405772 732.47159 56.649367 732.47147 L 56.649367 933.54374 L 27.450148 933.54374 L 27.450148 744.56522 L -35.149462 744.56522 L -35.149462 1084.7195 L 0.00092925198 1084.7195 L 0.00092925198 1122.5203 L 249.07124 1122.5203 L 249.07124 744.56522 L 174.37593 744.56522 L 174.37593 933.54374 L 145.17867 933.54374 L 145.17867 732.47147 C 146.42228 732.47161 147.1328 731.05278 146.3896 730.05545 L 143.96577 726.80155 L 133.00484 726.80155 L 133.00484 775.18045 C 133.00483 775.93639 131.87208 775.93639 131.87202 775.18045 L 131.87007 726.80155 L 69.956008 726.80155 L 69.956008 775.18045 C 69.955008 775.93538 68.822255 775.93538 68.821243 775.18045 L 68.821243 726.80155 L 57.860305 726.80155 z M 119.24312 1022.1707 C 119.52736 1022.1707 119.81298 1022.3615 119.81148 1022.741 L 119.81148 1083.2098 C 119.80833 1083.9644 118.67971 1083.9657 118.67671 1083.2117 L 118.67671 1059.0203 L 83.149368 1059.0203 L 83.149368 1083.2117 C 83.149371 1083.9689 82.016578 1083.9689 82.016555 1083.2117 L 82.016555 1022.741 C 82.016578 1021.9851 83.149371 1021.9851 83.149368 1022.741 L 83.149368 1046.9305 L 118.67671 1046.9305 L 118.67671 1022.741 C 118.67516 1022.3615 118.95887 1022.1707 119.24312 1022.1707 z M 70.487258 1022.1726 C 70.770719 1022.1726 71.055622 1022.3631 71.055618 1022.741 L 71.055618 1083.2117 C 71.055627 1083.9689 69.920831 1083.9689 69.920852 1083.2117 L 69.920852 1022.741 C 69.920842 1022.3631 70.203798 1022.1726 70.487258 1022.1726 z M 131.33882 1022.1726 C 131.62229 1022.1726 131.90511 1022.3631 131.90523 1022.741 L 131.90523 1083.2117 C 131.90499 1083.9689 130.77224 1083.9689 130.77242 1083.2117 L 130.77242 1022.741 C 130.77233 1022.3631 131.05535 1022.1726 131.33882 1022.1726 z " /></g><g
         inkscape:label="none"
         id="g13270"
         style="fill:none;stroke:#0000ff;stroke-opacity:1;stroke-width:0.75590552;stroke-dasharray:none" /></g></g></svg>
