<?xml version="1.0" encoding="UTF-8" standalone="no"?>
<!-- Created with Inkscape (http://www.inkscape.org/) -->

<svg
   width="210mm"
   height="297mm"
   viewBox="0 0 210 297"
   version="1.1"
   id="svg14554"
   xml:space="preserve"
   inkscape:version="1.2.2 (b0a8486, 2022-12-01)"
   sodipodi:docname="side8.svg"
   xmlns:inkscape="http://www.inkscape.org/namespaces/inkscape"
   xmlns:sodipodi="http://sodipodi.sourceforge.net/DTD/sodipodi-0.dtd"
   xmlns="http://www.w3.org/2000/svg"
   xmlns:svg="http://www.w3.org/2000/svg"><sodipodi:namedview
     id="namedview14556"
     pagecolor="#ffffff"
     bordercolor="#666666"
     borderopacity="1.0"
     inkscape:showpageshadow="2"
     inkscape:pageopacity="0.0"
     inkscape:pagecheckerboard="0"
     inkscape:deskcolor="#d1d1d1"
     inkscape:document-units="mm"
     showgrid="false"
     inkscape:zoom="0.95119155"
     inkscape:cx="400.55024"
     inkscape:cy="490.43749"
     inkscape:window-width="1920"
     inkscape:window-height="975"
     inkscape:window-x="0"
     inkscape:window-y="0"
     inkscape:window-maximized="1"
     inkscape:current-layer="layer1" /><defs
     id="defs14551"><marker
       id="DistanceX"
       orient="auto"
       refX="0.0"
       refY="0.0"
       style="overflow:visible"><path
         d="M 3,-3 L -3,3 M 0,-5 L  0,5"
         style="stroke:#000000; stroke-width:0.5"
         id="path16391" /></marker><pattern
       id="Hatch"
       patternUnits="userSpaceOnUse"
       width="8"
       height="8"
       x="0"
       y="0"><path
         d="M8 4 l-4,4"
         stroke="#000000"
         stroke-width="0.25"
         linecap="square"
         id="path16394" /><path
         d="M6 2 l-4,4"
         stroke="#000000"
         stroke-width="0.25"
         linecap="square"
         id="path16396" /><path
         d="M4 0 l-4,4"
         stroke="#000000"
         stroke-width="0.25"
         linecap="square"
         id="path16398" /></pattern><symbol
       id="*Model_Space" /><symbol
       id="*Paper_Space" /><marker
       id="DistanceX-3"
       orient="auto"
       refX="0.0"
       refY="0.0"
       style="overflow:visible"><path
         d="M 3,-3 L -3,3 M 0,-5 L  0,5"
         style="stroke:#000000; stroke-width:0.5"
         id="path27" /></marker><pattern
       id="Hatch-6"
       patternUnits="userSpaceOnUse"
       width="8"
       height="8"
       x="0"
       y="0"><path
         d="M8 4 l-4,4"
         stroke="#000000"
         stroke-width="0.25"
         linecap="square"
         id="path30" /><path
         d="M6 2 l-4,4"
         stroke="#000000"
         stroke-width="0.25"
         linecap="square"
         id="path32" /><path
         d="M4 0 l-4,4"
         stroke="#000000"
         stroke-width="0.25"
         linecap="square"
         id="path34" /></pattern><symbol
       id="*Model_Space-7" /><symbol
       id="*Paper_Space-5" /></defs><g
     inkscape:label="Layer 1"
     inkscape:groupmode="layer"
     id="layer1"
     style="display:inline"><g
       inkscape:label="0"
       id="g41"
       style="fill:none;fill-opacity:1;stroke:#0000ff;stroke-width:0.755906;stroke-dasharray:none;stroke-opacity:1"
       transform="matrix(0.26458333,0,0,0.26458333,103.40001,-96.149999)" /><path
       id="path47"
       style="fill:none;fill-opacity:1;stroke:#0000ff;stroke-width:0.2;stroke-linecap:round;stroke-dasharray:none;stroke-opacity:1"
       d="M 92.009371 96.149687 L 91.36755 97.011133 C 91.170935 97.275026 91.359451 97.649912 91.68846 97.649854 L 91.68846 150.84971 L 83.962834 150.84971 L 83.962834 100.85017 L 67.40002 100.85017 L 67.40002 200.85027 L 142.60008 200.85027 L 142.60008 100.85017 L 122.83746 100.85017 L 122.83746 150.84971 L 115.11184 150.84971 L 115.11184 97.649854 C 115.44087 97.649912 115.62936 97.275026 115.43275 97.011133 L 114.79093 96.149687 L 111.89084 96.149687 L 111.89084 108.94994 C 111.89058 109.14969 111.59139 109.14969 111.59112 108.94994 L 111.59112 96.149687 L 95.209176 96.149687 L 95.209176 108.94994 C 95.208911 109.14969 94.9092 109.14969 94.908936 108.94994 L 94.908936 96.149687 L 92.009371 96.149687 z M 99.15002 102.1488 L 107.65028 102.1488 C 108.7548 102.14931 109.65012 103.04499 109.65015 104.1492 L 109.65015 107.64924 C 109.65011 108.75396 108.75479 109.64966 107.65028 109.64964 L 99.15002 109.64964 C 98.045415 109.64966 97.150097 108.75396 97.150142 107.64924 L 97.150142 104.1492 C 97.150097 103.04501 98.045415 102.1488 99.15002 102.1488 z M 95.350252 174.29944 C 95.425252 174.29944 95.500116 174.34931 95.500114 174.4493 L 95.500114 190.44936 C 95.500118 190.6497 95.19987 190.6497 95.199874 190.44936 L 95.199874 174.4493 C 95.199872 174.3493 95.275254 174.29944 95.350252 174.29944 z M 108.24972 174.29944 C 108.32482 174.29944 108.40023 174.34973 108.4001 174.44982 L 108.4001 190.44987 C 108.39984 190.64995 108.10012 190.64995 108.09986 190.44987 L 108.09986 184.04923 L 98.699919 184.04923 L 98.699919 190.44987 C 98.699656 190.64995 98.400456 190.64995 98.400195 190.44987 L 98.400195 174.44982 C 98.40006 174.3497 98.474995 174.29996 98.550057 174.29996 C 98.625117 174.29996 98.700051 174.34973 98.699919 174.44982 L 98.699919 180.85046 L 108.09986 180.85046 L 108.09986 174.44982 C 108.09973 174.3497 108.17456 174.29944 108.24972 174.29944 z M 111.45004 174.29944 C 111.52504 174.29944 111.59991 174.34931 111.59991 174.4493 L 111.59991 190.44936 C 111.59991 190.6497 111.30018 190.6497 111.30018 190.44936 L 111.30018 174.4493 C 111.30018 174.3493 111.37508 174.29944 111.45004 174.29944 z " /><g
       inkscape:label="none"
       id="g139"
       style="fill:none;fill-opacity:1;stroke:#0000ff;stroke-width:0.755906;stroke-dasharray:none;stroke-opacity:1"
       transform="matrix(0.26458333,0,0,0.26458333,103.40001,-96.149999)" /></g><g
     inkscape:groupmode="layer"
     id="layer2"
     inkscape:label="Layer 2"
     style="display:inline" /></svg>
