<?xml version="1.0" encoding="UTF-8" standalone="no"?>
<!-- Created with Inkscape (http://www.inkscape.org/) -->

<svg
   width="210mm"
   height="297mm"
   viewBox="0 0 210 297"
   version="1.1"
   id="svg4138"
   xml:space="preserve"
   inkscape:version="1.2.2 (b0a8486, 2022-12-01)"
   sodipodi:docname="top_bot.svg"
   xmlns:inkscape="http://www.inkscape.org/namespaces/inkscape"
   xmlns:sodipodi="http://sodipodi.sourceforge.net/DTD/sodipodi-0.dtd"
   xmlns="http://www.w3.org/2000/svg"
   xmlns:svg="http://www.w3.org/2000/svg"><sodipodi:namedview
     id="namedview4140"
     pagecolor="#ffffff"
     bordercolor="#666666"
     borderopacity="1.0"
     inkscape:showpageshadow="2"
     inkscape:pageopacity="0.0"
     inkscape:pagecheckerboard="0"
     inkscape:deskcolor="#d1d1d1"
     inkscape:document-units="mm"
     showgrid="false"
     inkscape:zoom="1.345188"
     inkscape:cx="578.35782"
     inkscape:cy="602.51801"
     inkscape:window-width="1920"
     inkscape:window-height="975"
     inkscape:window-x="0"
     inkscape:window-y="0"
     inkscape:window-maximized="1"
     inkscape:current-layer="g7491" /><defs
     id="defs4135"><marker
       id="DistanceX"
       orient="auto"
       refX="0.0"
       refY="0.0"
       style="overflow:visible"><path
         d="M 3,-3 L -3,3 M 0,-5 L  0,5"
         style="stroke:#000000; stroke-width:0.5"
         id="path7427" /></marker><pattern
       id="Hatch"
       patternUnits="userSpaceOnUse"
       width="8"
       height="8"
       x="0"
       y="0"><path
         d="M8 4 l-4,4"
         stroke="#000000"
         stroke-width="0.25"
         linecap="square"
         id="path7430" /><path
         d="M6 2 l-4,4"
         stroke="#000000"
         stroke-width="0.25"
         linecap="square"
         id="path7432" /><path
         d="M4 0 l-4,4"
         stroke="#000000"
         stroke-width="0.25"
         linecap="square"
         id="path7434" /></pattern><symbol
       id="*Model_Space" /><symbol
       id="*Paper_Space" /></defs><g
     inkscape:label="Layer 1"
     inkscape:groupmode="layer"
     id="layer1"><g
       id="g7534"
       transform="matrix(0.26458333,0,0,0.26458333,105,-148.50003)"
       style="fill:none;fill-opacity:1"><g
         inkscape:label="0"
         id="g7441"
         style="fill:none;fill-opacity:1" /><g
         inkscape:label="Shape2DView008"
         id="g7491"
         style="fill:none;fill-opacity:1"><path
           id="path7449"
           style="fill:none;fill-opacity:1;stroke:#0000ff;stroke-linecap:round;stroke-width:0.75590552;stroke-dasharray:none;stroke-opacity:1"
           d="M -147.61211 952.23067 C -160.13657 952.23055 -170.28966 962.38222 -170.28985 974.90645 L -170.28985 1270.1311 C -170.28969 1282.6564 -160.13657 1292.8084 -147.61211 1292.8088 L 147.6125 1292.8088 C 160.13693 1292.8084 170.29001 1282.6564 170.29023 1270.1311 L 170.29023 974.90645 C 170.29006 962.38213 160.13695 952.23043 147.6125 952.23067 L -147.61211 952.23067 z M -44.264457 974.36153 L 44.264841 974.36153 L 44.264841 986.45723 L -44.264457 986.45723 L -44.264457 974.36153 z M -148.15704 1078.2502 L -136.06329 1078.2502 L -136.06329 1166.7795 L -148.15704 1166.7795 L -148.15704 1078.2502 z M 136.06367 1078.2502 L 148.15742 1078.2502 L 148.15742 1166.7795 L 136.06367 1166.7795 L 136.06367 1078.2502 z M -44.264457 1258.5803 L 44.264841 1258.5803 L 44.264841 1270.6799 L -44.264457 1270.6799 L -44.264457 1258.5803 z " /></g><g
         inkscape:label="none"
         id="g7493"
         style="fill:none;fill-opacity:1" /></g></g></svg>
