  0
SECTION
  2
HEADER
  9
$ACADVER
  1
AC1027
  9
$ACADMAINTVER
 70
   105
  9
$DWGCODEPAGE
  3
ANSI_1252
  9
$REQUIREDVERSIONS
160
                 0
  9
$INSBASE
 10
0.0
 20
0.0
 30
0.0
  9
$EXTMIN
 10
0.0
 20
0.0
 30
0.0
  9
$EXTMAX
 10
594.5
 20
420.5
 30
0.0
  9
$LIMMIN
 10
0.0
 20
0.0
  9
$LIMMAX
 10
594.5
 20
420.5
  9
$ORTHOMODE
 70
     0
  9
$REGENMODE
 70
     1
  9
$FILLMODE
 70
     1
  9
$QTEXTMODE
 70
     0
  9
$MIRRTEXT
 70
     1
  9
$LTSCALE
 40
0.5
  9
$ATTMODE
 70
     1
  9
$TEXTSIZE
 40
1.75
  9
$TRACEWID
 40
1.0
  9
$TEXTSTYLE
  7
Standard
  9
$CLAYER
  8
0
  9
$CELTYPE
  6
ByLayer
  9
$CECOLOR
 62
   256
  9
$CELTSCALE
 40
1.0
  9
$DISPSILH
 70
     0
  9
$DIMSCALE
 40
1.0
  9
$DIMASZ
 40
1.651
  9
$DIMEXO
 40
0.5
  9
$DIMDLI
 40
3.75
  9
$DIMRND
 40
0.0
  9
$DIMDLE
 40
0.0
  9
$DIMEXE
 40
0.5
  9
$DIMTP
 40
0.0
  9
$DIMTM
 40
0.0
  9
$DIMTXT
 40
1.75
  9
$DIMCEN
 40
2.5
  9
$DIMTSZ
 40
0.0
  9
$DIMTOL
 70
     0
  9
$DIMLIM
 70
     0
  9
$DIMTIH
 70
     1
  9
$DIMTOH
 70
     1
  9
$DIMSE1
 70
     0
  9
$DIMSE2
 70
     0
  9
$DIMTAD
 70
     1
  9
$DIMZIN
 70
     1
  9
$DIMBLK
  1

  9
$DIMASO
 70
     1
  9
$DIMSHO
 70
     1
  9
$DIMPOST
  1

  9
$DIMAPOST
  1

  9
$DIMALT
 70
     0
  9
$DIMALTD
 70
     3
  9
$DIMALTF
 40
0.0393700787
  9
$DIMLFAC
 40
1.0
  9
$DIMTOFL
 70
     1
  9
$DIMTVP
 40
0.0
  9
$DIMTIX
 70
     0
  9
$DIMSOXD
 70
     0
  9
$DIMSAH
 70
     0
  9
$DIMBLK1
  1

  9
$DIMBLK2
  1

  9
$DIMSTYLE
  2
ISO-25
  9
$DIMCLRD
 70
     0
  9
$DIMCLRE
 70
     0
  9
$DIMCLRT
 70
     0
  9
$DIMTFAC
 40
1.0
  9
$DIMGAP
 40
0.762
  9
$DIMJUST
 70
     0
  9
$DIMSD1
 70
     0
  9
$DIMSD2
 70
     0
  9
$DIMTOLJ
 70
     0
  9
$DIMTZIN
 70
     1
  9
$DIMALTZ
 70
     0
  9
$DIMALTTZ
 70
     0
  9
$DIMUPT
 70
     0
  9
$DIMDEC
 70
     2
  9
$DIMTDEC
 70
     2
  9
$DIMALTU
 70
     2
  9
$DIMALTTD
 70
     3
  9
$DIMTXSTY
  7
Standard
  9
$DIMAUNIT
 70
     0
  9
$DIMADEC
 70
     2
  9
$DIMALTRND
 40
0.0
  9
$DIMAZIN
 70
     0
  9
$DIMDSEP
 70
    44
  9
$DIMATFIT
 70
     3
  9
$DIMFRAC
 70
     0
  9
$DIMLDRBLK
  1

  9
$DIMLUNIT
 70
     2
  9
$DIMLWD
 70
    -2
  9
$DIMLWE
 70
    -2
  9
$DIMTMOVE
 70
     0
  9
$DIMFXL
 40
1.0
  9
$DIMFXLON
 70
     0
  9
$DIMJOGANG
 40
0.7853981634
  9
$DIMTFILL
 70
     0
  9
$DIMTFILLCLR
 70
     0
  9
$DIMARCSYM
 70
     0
  9
$DIMLTYPE
  6

  9
$DIMLTEX1
  6

  9
$DIMLTEX2
  6

  9
$DIMTXTDIRECTION
 70
     0
  9
$LUNITS
 70
     2
  9
$LUPREC
 70
     2
  9
$SKETCHINC
 40
1.0
  9
$FILLETRAD
 40
10.0
  9
$AUNITS
 70
     0
  9
$AUPREC
 70
     2
  9
$MENU
  1
.
  9
$ELEVATION
 40
0.0
  9
$PELEVATION
 40
0.0
  9
$THICKNESS
 40
0.0
  9
$LIMCHECK
 70
     0
  9
$CHAMFERA
 40
0.0
  9
$CHAMFERB
 40
0.0
  9
$CHAMFERC
 40
0.0
  9
$CHAMFERD
 40
0.0
  9
$SKPOLY
 70
     0
  9
$TDCREATE
 40
2459593.686471621
  9
$TDUCREATE
 40
2459593.457304954
  9
$TDUPDATE
 40
2459593.686479942
  9
$TDUUPDATE
 40
2459593.457313275
  9
$TDINDWG
 40
0.0000000116
  9
$TDUSRTIMER
 40
0.0000000116
  9
$USRTIMER
 70
     1
  9
$ANGBASE
 50
0.0
  9
$ANGDIR
 70
     0
  9
$PDMODE
 70
     0
  9
$PDSIZE
 40
-1.0
  9
$PLINEWID
 40
0.0
  9
$SPLFRAME
 70
     0
  9
$SPLINETYPE
 70
     6
  9
$SPLINESEGS
 70
     8
  9
$HANDSEED
  5
1E2
  9
$SURFTAB1
 70
     6
  9
$SURFTAB2
 70
     6
  9
$SURFTYPE
 70
     6
  9
$SURFU
 70
     6
  9
$SURFV
 70
     6
  9
$UCSBASE
  2

  9
$UCSNAME
  2

  9
$UCSORG
 10
0.0
 20
0.0
 30
0.0
  9
$UCSXDIR
 10
1.0
 20
0.0
 30
0.0
  9
$UCSYDIR
 10
0.0
 20
1.0
 30
0.0
  9
$UCSORTHOREF
  2

  9
$UCSORTHOVIEW
 70
     0
  9
$UCSORGTOP
 10
0.0
 20
0.0
 30
0.0
  9
$UCSORGBOTTOM
 10
0.0
 20
0.0
 30
0.0
  9
$UCSORGLEFT
 10
0.0
 20
0.0
 30
0.0
  9
$UCSORGRIGHT
 10
0.0
 20
0.0
 30
0.0
  9
$UCSORGFRONT
 10
0.0
 20
0.0
 30
0.0
  9
$UCSORGBACK
 10
0.0
 20
0.0
 30
0.0
  9
$PUCSBASE
  2

  9
$PUCSNAME
  2

  9
$PUCSORG
 10
0.0
 20
0.0
 30
0.0
  9
$PUCSXDIR
 10
1.0
 20
0.0
 30
0.0
  9
$PUCSYDIR
 10
0.0
 20
1.0
 30
0.0
  9
$PUCSORTHOREF
  2

  9
$PUCSORTHOVIEW
 70
     0
  9
$PUCSORGTOP
 10
0.0
 20
0.0
 30
0.0
  9
$PUCSORGBOTTOM
 10
0.0
 20
0.0
 30
0.0
  9
$PUCSORGLEFT
 10
0.0
 20
0.0
 30
0.0
  9
$PUCSORGRIGHT
 10
0.0
 20
0.0
 30
0.0
  9
$PUCSORGFRONT
 10
0.0
 20
0.0
 30
0.0
  9
$PUCSORGBACK
 10
0.0
 20
0.0
 30
0.0
  9
$USERI1
 70
     0
  9
$USERI2
 70
     0
  9
$USERI3
 70
     0
  9
$USERI4
 70
     0
  9
$USERI5
 70
     0
  9
$USERR1
 40
0.0
  9
$USERR2
 40
0.0
  9
$USERR3
 40
0.0
  9
$USERR4
 40
0.0
  9
$USERR5
 40
0.0
  9
$WORLDVIEW
 70
     1
  9
$SHADEDGE
 70
     3
  9
$SHADEDIF
 70
    70
  9
$TILEMODE
 70
     1
  9
$MAXACTVP
 70
    64
  9
$PINSBASE
 10
0.0
 20
0.0
 30
0.0
  9
$PLIMCHECK
 70
     0
  9
$PEXTMIN
 10
1.0000000000E+20
 20
1.0000000000E+20
 30
1.0000000000E+20
  9
$PEXTMAX
 10
-1.0000000000E+20
 20
-1.0000000000E+20
 30
-1.0000000000E+20
  9
$PLIMMIN
 10
0.0
 20
0.0
  9
$PLIMMAX
 10
420.0
 20
297.0
  9
$UNITMODE
 70
     0
  9
$VISRETAIN
 70
     1
  9
$PLINEGEN
 70
     0
  9
$PSLTSCALE
 70
     1
  9
$TREEDEPTH
 70
  3020
  9
$CMLSTYLE
  2
Standard
  9
$CMLJUST
 70
     0
  9
$CMLSCALE
 40
20.0
  9
$PROXYGRAPHICS
 70
     1
  9
$MEASUREMENT
 70
     1
  9
$CELWEIGHT
370
    -1
  9
$ENDCAPS
280
     0
  9
$JOINSTYLE
280
     0
  9
$LWDISPLAY
290
     1
  9
$INSUNITS
 70
     4
  9
$HYPERLINKBASE
  1

  9
$STYLESHEET
  1

  9
$XEDIT
290
     1
  9
$CEPSNTYPE
380
     0
  9
$PSTYLEMODE
290
     1
  9
$FINGERPRINTGUID
  2
{37EA92A5-3707-4C47-A26E-2F270874B665}
  9
$VERSIONGUID
  2
{FAEB1C32-E019-11D5-929B-00C0DF256EC4}
  9
$EXTNAMES
290
     1
  9
$PSVPSCALE
 40
0.0
  9
$OLESTARTUP
290
     0
  9
$SORTENTS
280
   127
  9
$INDEXCTL
280
     0
  9
$HIDETEXT
280
     1
  9
$XCLIPFRAME
280
     2
  9
$HALOGAP
280
     0
  9
$OBSCOLOR
 70
   257
  9
$OBSLTYPE
280
     0
  9
$INTERSECTIONDISPLAY
280
     0
  9
$INTERSECTIONCOLOR
 70
   257
  9
$DIMASSOC
280
     2
  9
$PROJECTNAME
  1

  9
$CAMERADISPLAY
290
     0
  9
$LENSLENGTH
 40
50.0
  9
$CAMERAHEIGHT
 40
0.0
  9
$STEPSPERSEC
 40
2.0
  9
$STEPSIZE
 40
6.0
  9
$3DDWFPREC
 40
2.0
  9
$PSOLWIDTH
 40
5.0
  9
$PSOLHEIGHT
 40
80.0
  9
$LOFTANG1
 40
1.5707963268
  9
$LOFTANG2
 40
1.5707963268
  9
$LOFTMAG1
 40
0.0
  9
$LOFTMAG2
 40
0.0
  9
$LOFTPARAM
 70
     7
  9
$LOFTNORMALS
280
     1
  9
$LATITUDE
 40
37.795
  9
$LONGITUDE
 40
-122.394
  9
$NORTHDIRECTION
 40
0.0
  9
$TIMEZONE
 70
 -8000
  9
$LIGHTGLYPHDISPLAY
280
     1
  9
$TILEMODELIGHTSYNCH
280
     1
  9
$CMATERIAL
347
44
  9
$SOLIDHIST
280
     0
  9
$SHOWHIST
280
     1
  9
$DWFFRAME
280
     2
  9
$DGNFRAME
280
     2
  9
$REALWORLDSCALE
290
     1
  9
$INTERFERECOLOR
 62
   256
  9
$CSHADOW
280
     0
  9
$SHADOWPLANELOCATION
 40
0.0
  0
ENDSEC
  0
SECTION
  2
CLASSES
  0
CLASS
  1
ACDBDICTIONARYWDFLT
  2
AcDbDictionaryWithDefault
  3
ObjectDBX Classes
 90
        0
 91
        4
280
     0
281
     0
  0
CLASS
  1
VISUALSTYLE
  2
AcDbVisualStyle
  3
ObjectDBX Classes
 90
     4095
 91
        4
280
     0
281
     0
  0
CLASS
  1
MATERIAL
  2
AcDbMaterial
  3
ObjectDBX Classes
 90
     1153
 91
        4
280
     0
281
     0
  0
CLASS
  1
SCALE
  2
AcDbScale
  3
ObjectDBX Classes
 90
     1153
 91
        4
280
     0
281
     0
  0
CLASS
  1
TABLESTYLE
  2
AcDbTableStyle
  3
ObjectDBX Classes
 90
     4095
 91
        4
280
     0
281
     0
  0
CLASS
  1
MLEADERSTYLE
  2
AcDbMLeaderStyle
  3
ACDB_MLEADERSTYLE_CLASS
 90
     4095
 91
        4
280
     0
281
     0
  0
CLASS
  1
SUN
  2
AcDbSun
  3
SCENEOE
 90
     1153
 91
        4
280
     0
281
     0
  0
CLASS
  1
DICTIONARYVAR
  2
AcDbDictionaryVar
  3
ObjectDBX Classes
 90
        0
 91
        4
280
     0
281
     0
  0
CLASS
  1
CELLSTYLEMAP
  2
AcDbCellStyleMap
  3
ObjectDBX Classes
 90
     1152
 91
        4
280
     0
281
     0
  0
ENDSEC
  0
SECTION
  2
TABLES
  0
TABLE
  2
VPORT
  5
8
330
0
100
AcDbSymbolTable
 70
     1
  0
VPORT
  5
29
330
8
100
AcDbSymbolTableRecord
100
AcDbViewportTableRecord
  2
*Active
 70
     0
 10
0.0
 20
0.0
 11
1.0
 21
1.0
 12
297.25
 22
210.25
 13
0.0
 23
0.0
 14
10.0
 24
10.0
 15
10.0
 25
10.0
 16
0.0
 26
0.0
 36
1.0
 17
0.0
 27
0.0
 37
0.0
 40
420.5
 41
1.4137931034
 42
50.0
 43
0.0
 44
0.0
 50
0.0
 51
0.0
 71
     0
 72
  2000
 73
     1
 74
     3
 75
     0
 76
     0
 77
     0
 78
     0
281
     0
 65
     1
110
0.0
120
0.0
130
0.0
111
1.0
121
0.0
131
0.0
112
0.0
122
1.0
132
0.0
 79
     0
146
0.0
348
2F
 60
     3
 61
     5
292
     1
282
     1
141
0.0
142
0.0
 63
   250
361
6D
  0
ENDTAB
  0
TABLE
  2
LTYPE
  5
5
330
0
100
AcDbSymbolTable
 70
     8
  0
LTYPE
  5
14
330
5
100
AcDbSymbolTableRecord
100
AcDbLinetypeTableRecord
  2
ByBlock
 70
     0
  3

 72
    65
 73
     0
 40
0.0
  0
LTYPE
  5
15
330
5
100
AcDbSymbolTableRecord
100
AcDbLinetypeTableRecord
  2
ByLayer
 70
     0
  3

 72
    65
 73
     0
 40
0.0
  0
LTYPE
  5
16
330
5
100
AcDbSymbolTableRecord
100
AcDbLinetypeTableRecord
  2
Continuous
 70
     0
  3
Solid line
 72
    65
 73
     0
 40
0.0
  0
LTYPE
  5
6E
330
5
100
AcDbSymbolTableRecord
100
AcDbLinetypeTableRecord
  2
SLD-Solid
 70
     0
  3
SolidWorks Line Style
 72
    65
 73
     0
 40
0.0
  0
LTYPE
  5
6F
330
5
100
AcDbSymbolTableRecord
100
AcDbLinetypeTableRecord
  2
SLD-Dashed
 70
     0
  3
SolidWorks Line Style
 72
    65
 73
     2
 40
1.905
 49
1.27
 74
     0
 49
-0.635
 74
     0
  0
LTYPE
  5
70
330
5
100
AcDbSymbolTableRecord
100
AcDbLinetypeTableRecord
  2
SLD-Phantom
 70
     0
  3
SolidWorks Line Style
 72
    65
 73
     6
 40
12.7
 49
6.35
 74
     0
 49
-1.27
 74
     0
 49
1.27
 74
     0
 49
-1.27
 74
     0
 49
1.27
 74
     0
 49
-1.27
 74
     0
  0
LTYPE
  5
71
330
5
100
AcDbSymbolTableRecord
100
AcDbLinetypeTableRecord
  2
SLD-Chain
 70
     0
  3
SolidWorks Line Style
 72
    65
 73
     4
 40
10.16
 49
6.35
 74
     0
 49
-1.27
 74
     0
 49
1.27
 74
     0
 49
-1.27
 74
     0
  0
LTYPE
  5
72
330
5
100
AcDbSymbolTableRecord
100
AcDbLinetypeTableRecord
  2
SLD-Center
 70
     0
  3
SolidWorks Line Style
 72
    65
 73
     4
 40
19.05
 49
15.24
 74
     0
 49
-1.27
 74
     0
 49
1.27
 74
     0
 49
-1.27
 74
     0
  0
LTYPE
  5
73
330
5
100
AcDbSymbolTableRecord
100
AcDbLinetypeTableRecord
  2
SLD-Stitch
 70
     0
  3
SolidWorks Line Style
 72
    65
 73
     2
 40
0.635
 49
0.0
 74
     0
 49
-0.635
 74
     0
  0
LTYPE
  5
74
330
5
100
AcDbSymbolTableRecord
100
AcDbLinetypeTableRecord
  2
SLD-Thin-Thick-Chain
 70
     0
  3
SolidWorks Line Style
 72
    65
 73
     4
 40
10.16
 49
6.35
 74
     0
 49
-1.27
 74
     0
 49
1.27
 74
     0
 49
-1.27
 74
     0
  0
ENDTAB
  0
TABLE
  2
LAYER
  5
2
330
0
100
AcDbSymbolTable
 70
     1
  0
LAYER
  5
10
330
2
100
AcDbSymbolTableRecord
100
AcDbLayerTableRecord
  2
0
 70
     0
 62
     7
  6
Continuous
370
    -3
390
F
347
46
348
0
  0
ENDTAB
  0
TABLE
  2
STYLE
  5
3
330
0
100
AcDbSymbolTable
 70
     1
  0
STYLE
  5
11
330
3
100
AcDbSymbolTableRecord
100
AcDbTextStyleTableRecord
  2
Standard
 70
     0
 40
0.0
 41
1.0
 50
0.0
 71
     0
 42
1.75
  3
txt
  4

  0
ENDTAB
  0
TABLE
  2
VIEW
  5
6
330
0
100
AcDbSymbolTable
 70
     0
  0
ENDTAB
  0
TABLE
  2
UCS
  5
7
330
0
100
AcDbSymbolTable
 70
     0
  0
ENDTAB
  0
TABLE
  2
APPID
  5
9
330
0
100
AcDbSymbolTable
 70
     1
  0
APPID
  5
12
330
9
100
AcDbSymbolTableRecord
100
AcDbRegAppTableRecord
  2
ACAD
 70
     0
  0
ENDTAB
  0
TABLE
  2
DIMSTYLE
  5
A
330
0
100
AcDbSymbolTable
 70
     1
100
AcDbDimStyleTable
  0
DIMSTYLE
105
27
330
A
100
AcDbSymbolTableRecord
100
AcDbDimStyleTableRecord
  2
ISO-25
 70
     0
 41
2.5
 42
0.625
 43
3.75
 44
1.25
 73
     0
 74
     0
 77
     1
 78
     8
140
2.5
141
2.5
143
0.0393700787
147
0.625
171
     3
172
     1
178
     0
271
     2
272
     2
274
     3
278
    44
283
     0
284
     8
340
11
  0
ENDTAB
  0
TABLE
  2
BLOCK_RECORD
  5
1
330
0
100
AcDbSymbolTable
 70
     1
  0
BLOCK_RECORD
  5
1F
330
1
100
AcDbSymbolTableRecord
100
AcDbBlockTableRecord
  2
*Model_Space
340
22
 70
     0
280
     1
281
     0
  0
BLOCK_RECORD
  5
1B
330
1
100
AcDbSymbolTableRecord
100
AcDbBlockTableRecord
  2
*Paper_Space
340
1E
 70
     0
280
     1
281
     0
  0
BLOCK_RECORD
  5
23
330
1
100
AcDbSymbolTableRecord
100
AcDbBlockTableRecord
  2
*Paper_Space0
340
26
 70
     0
280
     1
281
     0
  0
ENDTAB
  0
ENDSEC
  0
SECTION
  2
BLOCKS
  0
BLOCK
  5
20
330
1F
100
AcDbEntity
  8
0
100
AcDbBlockBegin
  2
*Model_Space
 70
     0
 10
0.0
 20
0.0
 30
0.0
  3
*Model_Space
  1

  0
ENDBLK
  5
21
330
1F
100
AcDbEntity
  8
0
100
AcDbBlockEnd
  0
BLOCK
  5
1C
330
1B
100
AcDbEntity
 67
     1
  8
0
100
AcDbBlockBegin
  2
*Paper_Space
 70
     0
 10
0.0
 20
0.0
 30
0.0
  3
*Paper_Space
  1

  0
ENDBLK
  5
1D
330
1B
100
AcDbEntity
 67
     1
  8
0
100
AcDbBlockEnd
  0
BLOCK
  5
24
330
23
100
AcDbEntity
  8
0
100
AcDbBlockBegin
  2
*Paper_Space0
 70
     0
 10
0.0
 20
0.0
 30
0.0
  3
*Paper_Space0
  1

  0
ENDBLK
  5
25
330
23
100
AcDbEntity
  8
0
100
AcDbBlockEnd
  0
ENDSEC
  0
SECTION
  2
ENTITIES
  0
LINE
  5
75
330
1F
100
AcDbEntity
  8
0
  6
SLD-Solid
 62
     7
370
    25
100
AcDbLine
 10
248.5427632827
 20
236.7231457388
 30
0.0
 11
256.0205148121
 21
236.7231457388
 31
0.0
  0
LINE
  5
76
330
1F
100
AcDbEntity
  8
0
  6
SLD-Solid
 62
     7
370
    25
100
AcDbLine
 10
265.2995056465
 20
259.1246112562
 30
0.0
 11
260.011936832
 21
264.4121800708
 31
0.0
  0
LINE
  5
77
330
1F
100
AcDbEntity
  8
0
  6
SLD-Solid
 62
     7
370
    25
100
AcDbLine
 10
267.2440492947
 20
261.0691549045
 30
0.0
 11
265.2995056465
 21
259.1246112562
 31
0.0
  0
LINE
  5
78
330
1F
100
AcDbEntity
  8
0
  6
SLD-Solid
 62
     7
370
    25
100
AcDbLine
 10
261.9564804802
 20
266.356723719
 30
0.0
 11
267.2440492947
 21
261.0691549045
 31
0.0
  0
LINE
  5
79
330
1F
100
AcDbEntity
  8
0
  6
SLD-Solid
 62
     7
370
    25
100
AcDbLine
 10
289.6455148121
 20
270.3481457388
 30
0.0
 11
289.6455148121
 21
277.8258972683
 31
0.0
  0
LINE
  5
7A
330
1F
100
AcDbEntity
  8
0
  6
SLD-Solid
 62
     7
370
    25
100
AcDbLine
 10
292.3955148121
 20
270.3481457388
 30
0.0
 11
289.6455148121
 21
270.3481457388
 31
0.0
  0
LINE
  5
7B
330
1F
100
AcDbEntity
  8
0
  6
SLD-Solid
 62
     7
370
    25
100
AcDbLine
 10
292.3955148121
 20
277.8258972683
 30
0.0
 11
292.3955148121
 21
270.3481457388
 31
0.0
  0
LINE
  5
7C
330
1F
100
AcDbEntity
  8
0
  6
SLD-Solid
 62
     7
370
    25
100
AcDbLine
 10
314.7969803295
 20
261.0691549045
 30
0.0
 11
320.0845491441
 21
266.356723719
 31
0.0
  0
LINE
  5
7D
330
1F
100
AcDbEntity
  8
0
  6
SLD-Solid
 62
     7
370
    25
100
AcDbLine
 10
316.7415239778
 20
259.1246112562
 30
0.0
 11
314.7969803295
 21
261.0691549045
 31
0.0
  0
LINE
  5
7E
330
1F
100
AcDbEntity
  8
0
  6
SLD-Solid
 62
     7
370
    25
100
AcDbLine
 10
322.0290927923
 20
264.4121800708
 30
0.0
 11
316.7415239778
 21
259.1246112562
 31
0.0
  0
LINE
  5
7F
330
1F
100
AcDbEntity
  8
0
  6
SLD-Solid
 62
     7
370
    25
100
AcDbLine
 10
326.0205148121
 20
236.7231457388
 30
0.0
 11
333.4982663416
 21
236.7231457388
 31
0.0
  0
LINE
  5
80
330
1F
100
AcDbEntity
  8
0
  6
SLD-Solid
 62
     7
370
    25
100
AcDbLine
 10
326.0205148121
 20
233.9731457388
 30
0.0
 11
326.0205148121
 21
236.7231457388
 31
0.0
  0
LINE
  5
81
330
1F
100
AcDbEntity
  8
0
  6
SLD-Solid
 62
     7
370
    25
100
AcDbLine
 10
333.4982663416
 20
233.9731457388
 30
0.0
 11
326.0205148121
 21
233.9731457388
 31
0.0
  0
LINE
  5
82
330
1F
100
AcDbEntity
  8
0
  6
SLD-Solid
 62
     7
370
    25
100
AcDbLine
 10
316.7415239778
 20
211.5716802214
 30
0.0
 11
322.0290927923
 21
206.2841114069
 31
0.0
  0
LINE
  5
83
330
1F
100
AcDbEntity
  8
0
  6
SLD-Solid
 62
     7
370
    25
100
AcDbLine
 10
314.7969803295
 20
209.6271365732
 30
0.0
 11
316.7415239778
 21
211.5716802214
 31
0.0
  0
LINE
  5
84
330
1F
100
AcDbEntity
  8
0
  6
SLD-Solid
 62
     7
370
    25
100
AcDbLine
 10
320.0845491441
 20
204.3395677587
 30
0.0
 11
314.7969803295
 21
209.6271365732
 31
0.0
  0
LINE
  5
85
330
1F
100
AcDbEntity
  8
0
  6
SLD-Solid
 62
     7
370
    25
100
AcDbLine
 10
292.3955148121
 20
200.3481457388
 30
0.0
 11
292.3955148121
 21
192.8703942094
 31
0.0
  0
LINE
  5
86
330
1F
100
AcDbEntity
  8
0
  6
SLD-Solid
 62
     7
370
    25
100
AcDbLine
 10
289.6455148121
 20
200.3481457388
 30
0.0
 11
292.3955148121
 21
200.3481457388
 31
0.0
  0
LINE
  5
87
330
1F
100
AcDbEntity
  8
0
  6
SLD-Solid
 62
     7
370
    25
100
AcDbLine
 10
289.6455148121
 20
192.8703942094
 30
0.0
 11
289.6455148121
 21
200.3481457388
 31
0.0
  0
LINE
  5
88
330
1F
100
AcDbEntity
  8
0
  6
SLD-Solid
 62
     7
370
    25
100
AcDbLine
 10
267.2440492947
 20
209.6271365732
 30
0.0
 11
261.9564804802
 21
204.3395677587
 31
0.0
  0
LINE
  5
89
330
1F
100
AcDbEntity
  8
0
  6
SLD-Solid
 62
     7
370
    25
100
AcDbLine
 10
265.2995056465
 20
211.5716802214
 30
0.0
 11
267.2440492947
 21
209.6271365732
 31
0.0
  0
LINE
  5
8A
330
1F
100
AcDbEntity
  8
0
  6
SLD-Solid
 62
     7
370
    25
100
AcDbLine
 10
260.011936832
 20
206.2841114069
 30
0.0
 11
265.2995056465
 21
211.5716802214
 31
0.0
  0
LINE
  5
8B
330
1F
100
AcDbEntity
  8
0
  6
SLD-Solid
 62
     7
370
    25
100
AcDbLine
 10
256.0205148121
 20
236.7231457388
 30
0.0
 11
256.0205148121
 21
233.9731457388
 31
0.0
  0
CIRCLE
  5
8C
330
1F
100
AcDbEntity
  8
0
  6
SLD-Solid
 62
     7
370
    25
100
AcDbCircle
 10
291.0205148121
 20
235.3481457388
 30
0.0
 40
14.0
  0
CIRCLE
  5
8D
330
1F
100
AcDbEntity
  8
0
  6
SLD-Solid
 62
     7
370
    25
100
AcDbCircle
 10
312.7205148121
 20
213.7981457388
 30
0.0
 40
1.508592127383451
  0
CIRCLE
  5
8E
330
1F
100
AcDbEntity
  8
0
  6
SLD-Solid
 62
     7
370
    25
100
AcDbCircle
 10
269.1705148121
 20
234.5881457388
 30
0.0
 40
1.499999999999972
  0
CIRCLE
  5
8F
330
1F
100
AcDbEntity
  8
0
  6
SLD-Solid
 62
     7
370
    25
100
AcDbCircle
 10
312.7205148121
 20
234.5881457388
 30
0.0
 40
1.500000000000028
  0
CIRCLE
  5
90
330
1F
100
AcDbEntity
  8
0
  6
SLD-Solid
 62
     7
370
    25
100
AcDbCircle
 10
269.1705148121
 20
213.7981457388
 30
0.0
 40
1.500029659018963
  0
LINE
  5
91
330
1F
100
AcDbEntity
  8
0
  6
SLD-Solid
 62
     7
370
    25
100
AcDbLine
 10
256.0205148121
 20
233.9731457388
 30
0.0
 11
248.5427632827
 21
233.9731457388
 31
0.0
  0
ARC
  5
92
330
1F
100
AcDbEntity
  8
0
  6
SLD-Solid
 62
     7
370
    25
100
AcDbCircle
 10
291.0205148121
 20
235.3481457388
 30
0.0
 40
42.50000000000002
100
AcDbArc
 50
271.8540105163
 51
313.1459894837
  0
ARC
  5
93
330
1F
100
AcDbEntity
  8
0
  6
SLD-Solid
 62
     7
370
    25
100
AcDbCircle
 10
291.0205148121
 20
235.3481457388
 30
0.0
 40
42.50000000000004
100
AcDbArc
 50
226.8540105163
 51
268.1459894837
  0
ARC
  5
94
330
1F
100
AcDbEntity
  8
0
  6
SLD-Solid
 62
     7
370
    25
100
AcDbCircle
 10
291.0205148121
 20
235.3481457388
 30
0.0
 40
42.50000000000004
100
AcDbArc
 50
316.8540105163
 51
358.1459894837
  0
ARC
  5
95
330
1F
100
AcDbEntity
  8
0
  6
SLD-Solid
 62
     7
370
    25
100
AcDbCircle
 10
291.0205148121
 20
235.3481457388
 30
0.0
 40
42.50000000000004
100
AcDbArc
 50
1.8540105163
 51
43.1459894837
  0
ARC
  5
96
330
1F
100
AcDbEntity
  8
0
  6
SLD-Solid
 62
     7
370
    25
100
AcDbCircle
 10
291.0205148121
 20
235.3481457388
 30
0.0
 40
42.50000000000006
100
AcDbArc
 50
46.8540105163
 51
88.1459894837
  0
ARC
  5
97
330
1F
100
AcDbEntity
  8
0
  6
SLD-Solid
 62
     7
370
    25
100
AcDbCircle
 10
291.0205148121
 20
235.3481457388
 30
0.0
 40
42.5
100
AcDbArc
 50
91.8540105163
 51
133.1459894837
  0
ARC
  5
98
330
1F
100
AcDbEntity
  8
0
  6
SLD-Solid
 62
     7
370
    25
100
AcDbCircle
 10
291.0205148121
 20
235.3481457388
 30
0.0
 40
42.50000000000003
100
AcDbArc
 50
136.8540105163
 51
178.1459894837
  0
ARC
  5
99
330
1F
100
AcDbEntity
  8
0
  6
SLD-Solid
 62
     7
370
    25
100
AcDbCircle
 10
291.0205148121
 20
235.3481457388
 30
0.0
 40
42.50000000000004
100
AcDbArc
 50
181.8540105163
 51
223.1459894837
  0
LINE
  5
9A
330
1F
100
AcDbEntity
  8
0
  6
SLD-Solid
 62
     7
370
    25
100
AcDbLine
 10
123.015045437
 20
276.3922150317
 30
0.0
 11
123.015045437
 21
279.1422168794
 31
0.0
  0
LINE
  5
9B
330
1F
100
AcDbEntity
  8
0
  6
SLD-Solid
 62
     7
370
    25
100
AcDbLine
 10
123.015045437
 20
279.1422168794
 30
0.0
 11
115.515045721
 21
279.1422168794
 31
0.0
  0
ARC
  5
9C
330
1F
100
AcDbEntity
  8
0
  6
SLD-Solid
 62
     7
370
    25
100
AcDbCircle
 10
121.5150457565
 20
279.1422179815
 30
0.0
 40
6.000000000000114
100
AcDbArc
 50
110.0
 51
180.0
  0
LINE
  5
9D
330
1F
100
AcDbEntity
  8
0
  6
SLD-Solid
 62
     7
370
    25
100
AcDbLine
 10
119.4629247924
 20
284.7803766909
 30
0.0
 11
120.4026176286
 21
285.1223955932
 31
0.0
  0
ARC
  5
9E
330
1F
100
AcDbEntity
  8
0
  6
SLD-Solid
 62
     7
370
    25
100
AcDbCircle
 10
169.0584809505
 20
177.9202338451
 30
0.0
 40
14.99999999999999
100
AcDbArc
 50
311.6553359377
 51
29.6960324835
  0
LINE
  5
9F
330
1F
100
AcDbEntity
  8
0
  6
SLD-Solid
 62
     7
370
    25
100
AcDbLine
 10
179.0282048908
 20
166.7128848913
 30
0.0
 11
142.2459252802
 21
133.9924718323
 31
0.0
  0
ARC
  5
A0
330
1F
100
AcDbEntity
  8
0
  6
SLD-Solid
 62
     7
370
    25
100
AcDbCircle
 10
138.9226839486
 20
137.7282528463
 30
0.0
 40
5.000000000000023
100
AcDbArc
 50
270.0
 51
311.6553359377
  0
LINE
  5
A1
330
1F
100
AcDbEntity
  8
0
  6
SLD-Solid
 62
     7
370
    25
100
AcDbLine
 10
138.9226832119
 20
132.728249866
 30
0.0
 11
137.4850229052
 21
132.728249866
 31
0.0
  0
ARC
  5
A2
330
1F
100
AcDbEntity
  8
0
  6
SLD-Solid
 62
     7
370
    25
100
AcDbCircle
 10
137.4850232097
 20
137.7282528463
 30
0.0
 40
4.999999999999967
100
AcDbArc
 50
150.0
 51
270.0
  0
LINE
  5
A3
330
1F
100
AcDbEntity
  8
0
  6
SLD-Solid
 62
     7
370
    25
100
AcDbLine
 10
143.7841740129
 20
158.6387018743
 30
0.0
 11
133.1548963365
 21
140.2282501641
 31
0.0
  0
ARC
  5
A4
330
1F
100
AcDbEntity
  8
0
  6
SLD-Solid
 62
     7
370
    25
100
AcDbCircle
 10
109.1431569952
 20
178.6387005816
 30
0.0
 40
40.0
100
AcDbArc
 50
330.0
 51
20.0
  0
LINE
  5
A5
330
1F
100
AcDbEntity
  8
0
  6
SLD-Solid
 62
     7
370
    25
100
AcDbLine
 10
115.515045721
 20
241.3922186079
 30
0.0
 11
115.515045721
 21
229.142217997
 31
0.0
  0
LINE
  5
A6
330
1F
100
AcDbEntity
  8
0
  6
SLD-Solid
 62
     7
370
    25
100
AcDbLine
 10
115.515045721
 20
241.3922186079
 30
0.0
 11
123.015045437
 21
241.3922186079
 31
0.0
  0
LINE
  5
A7
330
1F
100
AcDbEntity
  8
0
  6
SLD-Solid
 62
     7
370
    25
100
AcDbLine
 10
123.015045437
 20
241.3922186079
 30
0.0
 11
123.015045437
 21
244.1422167304
 31
0.0
  0
LINE
  5
A8
330
1F
100
AcDbEntity
  8
0
  6
SLD-Solid
 62
     7
370
    25
100
AcDbLine
 10
123.015045437
 20
244.1422167304
 30
0.0
 11
115.515045721
 21
244.1422167304
 31
0.0
  0
LINE
  5
A9
330
1F
100
AcDbEntity
  8
0
  6
SLD-Solid
 62
     7
370
    25
100
AcDbLine
 10
115.515045721
 20
276.3922150317
 30
0.0
 11
115.515045721
 21
244.1422167304
 31
0.0
  0
LINE
  5
AA
330
1F
100
AcDbEntity
  8
0
  6
SLD-Solid
 62
     7
370
    25
100
AcDbLine
 10
115.515045721
 20
276.3922150317
 30
0.0
 11
123.015045437
 21
276.3922150317
 31
0.0
  0
LINE
  5
AB
330
1F
100
AcDbEntity
  8
0
  6
SLD-Solid
 62
     7
370
    25
100
AcDbLine
 10
139.4210469601
 20
212.4030549149
 30
0.0
 11
146.7308618752
 21
192.3195059481
 31
0.0
  0
ARC
  5
AC
330
1F
100
AcDbEntity
  8
0
  6
SLD-Solid
 62
     7
370
    25
100
AcDbCircle
 10
115.5150457565
 20
203.7019818995
 30
0.0
 40
25.44023608200531
100
AcDbArc
 50
20.0
 51
90.0
  0
ARC
  5
AD
330
1F
100
AcDbEntity
  8
0
  6
SLD-Solid
 62
     7
370
    25
100
AcDbCircle
 10
122.112718234
 20
280.4239307456
 30
0.0
 40
4.999999999999964
100
AcDbArc
 50
29.6960324835
 51
110.0
  0
LINE
  5
AE
330
1F
100
AcDbEntity
  8
0
  6
SLD-Solid
 62
     7
370
    25
100
AcDbLine
 10
126.4560476569
 20
282.9009230318
 30
0.0
 11
182.0884712664
 21
185.3512107464
 31
0.0
  0
LINE
  5
AF
330
1F
100
AcDbEntity
  8
0
  6
SLD-Solid
 62
     7
370
    25
100
AcDbLine
 10
454.9832687639
 20
347.8211980018
 30
0.0
 11
461.1582687639
 21
347.8211980018
 31
0.0
  0
LINE
  5
B0
330
1F
100
AcDbEntity
  8
0
  6
SLD-Solid
 62
     7
370
    25
100
AcDbLine
 10
461.1582687639
 20
347.8211980018
 30
0.0
 11
461.1582687639
 21
343.4295313352
 31
0.0
  0
LINE
  5
B1
330
1F
100
AcDbEntity
  8
0
  6
SLD-Solid
 62
     7
370
    25
100
AcDbLine
 10
461.1582687639
 20
343.4295313352
 30
0.0
 11
458.1582687639
 21
343.4295313352
 31
0.0
  0
LINE
  5
B2
330
1F
100
AcDbEntity
  8
0
  6
SLD-Solid
 62
     7
370
    25
100
AcDbLine
 10
458.1582687639
 20
343.4295313352
 30
0.0
 11
458.1582687639
 21
333.2128646685
 31
0.0
  0
LINE
  5
B3
330
1F
100
AcDbEntity
  8
0
  6
SLD-Solid
 62
     7
370
    25
100
AcDbLine
 10
458.1582687639
 20
333.2128646685
 30
0.0
 11
461.1582687639
 21
333.2128646685
 31
0.0
  0
LINE
  5
B4
330
1F
100
AcDbEntity
  8
0
  6
SLD-Solid
 62
     7
370
    25
100
AcDbLine
 10
461.1582687639
 20
333.2128646685
 30
0.0
 11
461.1582687639
 21
322.8211980018
 31
0.0
  0
LINE
  5
B5
330
1F
100
AcDbEntity
  8
0
  6
SLD-Solid
 62
     7
370
    25
100
AcDbLine
 10
454.9832687639
 20
325.8211980018
 30
0.0
 11
454.9832687639
 21
322.8211980018
 31
0.0
  0
LINE
  5
B6
330
1F
100
AcDbEntity
  8
0
  6
SLD-Solid
 62
     7
370
    25
100
AcDbLine
 10
442.1582687639
 20
325.8211980018
 30
0.0
 11
454.9832687639
 21
325.8211980018
 31
0.0
  0
LINE
  5
B7
330
1F
100
AcDbEntity
  8
0
  6
SLD-Solid
 62
     7
370
    25
100
AcDbLine
 10
442.1582687639
 20
322.8211980018
 30
0.0
 11
442.1582687639
 21
325.8211980018
 31
0.0
  0
LINE
  5
B8
330
1F
100
AcDbEntity
  8
0
  6
SLD-Solid
 62
     7
370
    25
100
AcDbLine
 10
426.1582687639
 20
325.8211980018
 30
0.0
 11
426.1582687639
 21
322.8211980018
 31
0.0
  0
LINE
  5
B9
330
1F
100
AcDbEntity
  8
0
  6
SLD-Solid
 62
     7
370
    25
100
AcDbLine
 10
413.3332687639
 20
325.8211980018
 30
0.0
 11
426.1582687639
 21
325.8211980018
 31
0.0
  0
LINE
  5
BA
330
1F
100
AcDbEntity
  8
0
  6
SLD-Solid
 62
     7
370
    25
100
AcDbLine
 10
413.3332687639
 20
322.8211980018
 30
0.0
 11
413.3332687639
 21
325.8211980018
 31
0.0
  0
LINE
  5
BB
330
1F
100
AcDbEntity
  8
0
  6
SLD-Solid
 62
     7
370
    25
100
AcDbLine
 10
410.1582687639
 20
322.8211980018
 30
0.0
 11
413.3332687639
 21
322.8211980018
 31
0.0
  0
LINE
  5
BC
330
1F
100
AcDbEntity
  8
0
  6
SLD-Solid
 62
     7
370
    25
100
AcDbLine
 10
410.1582687639
 20
322.8211980018
 30
0.0
 11
410.1582687639
 21
333.0378646685
 31
0.0
  0
LINE
  5
BD
330
1F
100
AcDbEntity
  8
0
  6
SLD-Solid
 62
     7
370
    25
100
AcDbLine
 10
410.1582687639
 20
333.0378646685
 30
0.0
 11
407.1582687639
 21
333.0378646685
 31
0.0
  0
LINE
  5
BE
330
1F
100
AcDbEntity
  8
0
  6
SLD-Solid
 62
     7
370
    25
100
AcDbLine
 10
407.1582687639
 20
343.6045313352
 30
0.0
 11
407.1582687639
 21
333.0378646685
 31
0.0
  0
LINE
  5
BF
330
1F
100
AcDbEntity
  8
0
  6
SLD-Solid
 62
     7
370
    25
100
AcDbLine
 10
407.1582687639
 20
343.6045313352
 30
0.0
 11
410.1582687639
 21
343.6045313352
 31
0.0
  0
LINE
  5
C0
330
1F
100
AcDbEntity
  8
0
  6
SLD-Solid
 62
     7
370
    25
100
AcDbLine
 10
410.1582687639
 20
343.6045313352
 30
0.0
 11
410.1582687639
 21
347.8211980018
 31
0.0
  0
LINE
  5
C1
330
1F
100
AcDbEntity
  8
0
  6
SLD-Solid
 62
     7
370
    25
100
AcDbLine
 10
413.3332687639
 20
347.8211980018
 30
0.0
 11
410.1582687639
 21
347.8211980018
 31
0.0
  0
LINE
  5
C2
330
1F
100
AcDbEntity
  8
0
  6
SLD-Solid
 62
     7
370
    25
100
AcDbLine
 10
413.3332687639
 20
347.8211980018
 30
0.0
 11
413.3332687639
 21
350.8211980018
 31
0.0
  0
LINE
  5
C3
330
1F
100
AcDbEntity
  8
0
  6
SLD-Solid
 62
     7
370
    25
100
AcDbLine
 10
413.3332687639
 20
350.8211980018
 30
0.0
 11
426.1582687639
 21
350.8211980018
 31
0.0
  0
LINE
  5
C4
330
1F
100
AcDbEntity
  8
0
  6
SLD-Solid
 62
     7
370
    25
100
AcDbLine
 10
426.1582687639
 20
350.8211980018
 30
0.0
 11
426.1582687639
 21
353.8211980018
 31
0.0
  0
LINE
  5
C5
330
1F
100
AcDbEntity
  8
0
  6
SLD-Solid
 62
     7
370
    25
100
AcDbLine
 10
426.1582687639
 20
353.8211980018
 30
0.0
 11
432.5332687639
 21
353.8211980018
 31
0.0
  0
LINE
  5
C6
330
1F
100
AcDbEntity
  8
0
  6
SLD-Solid
 62
     7
370
    25
100
AcDbLine
 10
432.5332687639
 20
353.8211980018
 30
0.0
 11
432.5332687639
 21
341.8162840508
 31
0.0
  0
LINE
  5
C7
330
1F
100
AcDbEntity
  8
0
  6
SLD-Solid
 62
     7
370
    25
100
AcDbLine
 10
432.5332687639
 20
341.8162840508
 30
0.0
 11
435.7832687639
 21
341.8162840508
 31
0.0
  0
LINE
  5
C8
330
1F
100
AcDbEntity
  8
0
  6
SLD-Solid
 62
     7
370
    25
100
AcDbLine
 10
435.7832687639
 20
353.8211980018
 30
0.0
 11
435.7832687639
 21
341.8162840508
 31
0.0
  0
LINE
  5
C9
330
1F
100
AcDbEntity
  8
0
  6
SLD-Solid
 62
     7
370
    25
100
AcDbLine
 10
435.7832687639
 20
353.8211980018
 30
0.0
 11
442.1582687639
 21
353.8211980018
 31
0.0
  0
LINE
  5
CA
330
1F
100
AcDbEntity
  8
0
  6
SLD-Solid
 62
     7
370
    25
100
AcDbLine
 10
442.1582687639
 20
350.8211980018
 30
0.0
 11
454.9832687639
 21
350.8211980018
 31
0.0
  0
LINE
  5
CB
330
1F
100
AcDbEntity
  8
0
  6
SLD-Solid
 62
     7
370
    25
100
AcDbLine
 10
454.9832687639
 20
347.8211980018
 30
0.0
 11
454.9832687639
 21
350.8211980018
 31
0.0
  0
LINE
  5
CC
330
1F
100
AcDbEntity
  8
0
  6
SLD-Solid
 62
     7
370
    25
100
AcDbLine
 10
442.1582687639
 20
353.8211980018
 30
0.0
 11
442.1582687639
 21
350.8211980018
 31
0.0
  0
LINE
  5
CD
330
1F
100
AcDbEntity
  8
0
  6
SLD-Solid
 62
     7
370
    25
100
AcDbLine
 10
454.5759770707
 20
403.4887377418
 30
0.0
 11
458.1582687639
 21
407.071029435
 31
0.0
  0
LINE
  5
CE
330
1F
100
AcDbEntity
  8
0
  6
SLD-Solid
 62
     7
370
    25
100
AcDbLine
 10
458.1582687639
 20
406.0155730833
 30
0.0
 11
458.1582687639
 21
407.071029435
 31
0.0
  0
LINE
  5
CF
330
1F
100
AcDbEntity
  8
0
  6
SLD-Solid
 62
     7
370
    25
100
AcDbLine
 10
458.1582687639
 20
406.0155730833
 30
0.0
 11
461.1582687639
 21
406.0155730833
 31
0.0
  0
LINE
  5
D0
330
1F
100
AcDbEntity
  8
0
  6
SLD-Solid
 62
     7
370
    25
100
AcDbLine
 10
461.1582687639
 20
392.8405730833
 30
0.0
 11
461.1582687639
 21
406.0155730833
 31
0.0
  0
LINE
  5
D1
330
1F
100
AcDbEntity
  8
0
  6
SLD-Solid
 62
     7
370
    25
100
AcDbLine
 10
458.1582687639
 20
392.8405730833
 30
0.0
 11
461.1582687639
 21
392.8405730833
 31
0.0
  0
LINE
  5
D2
330
1F
100
AcDbEntity
  8
0
  6
SLD-Solid
 62
     7
370
    25
100
AcDbLine
 10
458.1582687639
 20
377.1905730833
 30
0.0
 11
458.1582687639
 21
392.8405730833
 31
0.0
  0
LINE
  5
D3
330
1F
100
AcDbEntity
  8
0
  6
SLD-Solid
 62
     7
370
    25
100
AcDbLine
 10
458.1582687639
 20
377.1905730833
 30
0.0
 11
461.1582687639
 21
377.1905730833
 31
0.0
  0
LINE
  5
D4
330
1F
100
AcDbEntity
  8
0
  6
SLD-Solid
 62
     7
370
    25
100
AcDbLine
 10
461.1582687639
 20
364.0155730833
 30
0.0
 11
461.1582687639
 21
377.1905730833
 31
0.0
  0
LINE
  5
D5
330
1F
100
AcDbEntity
  8
0
  6
SLD-Solid
 62
     7
370
    25
100
AcDbLine
 10
458.1582687639
 20
364.0155730833
 30
0.0
 11
461.1582687639
 21
364.0155730833
 31
0.0
  0
LINE
  5
D6
330
1F
100
AcDbEntity
  8
0
  6
SLD-Solid
 62
     7
370
    25
100
AcDbLine
 10
458.1582687639
 20
364.0155730833
 30
0.0
 11
458.1582687639
 21
362.9601167315
 31
0.0
  0
LINE
  5
D7
330
1F
100
AcDbEntity
  8
0
  6
SLD-Solid
 62
     7
370
    25
100
AcDbLine
 10
458.1582687639
 20
362.9601167315
 30
0.0
 11
454.5759770707
 21
366.5424084248
 31
0.0
  0
LINE
  5
D8
330
1F
100
AcDbEntity
  8
0
  6
SLD-Solid
 62
     7
370
    25
100
AcDbLine
 10
454.5759770707
 20
366.5424084248
 30
0.0
 11
452.4546567271
 21
364.4210880812
 31
0.0
  0
LINE
  5
D9
330
1F
100
AcDbEntity
  8
0
  6
SLD-Solid
 62
     7
370
    25
100
AcDbLine
 10
452.4546567271
 20
364.4210880812
 30
0.0
 11
455.8601717251
 21
361.0155730833
 31
0.0
  0
LINE
  5
DA
330
1F
100
AcDbEntity
  8
0
  6
SLD-Solid
 62
     7
370
    25
100
AcDbLine
 10
455.1582687639
 20
361.0155730833
 30
0.0
 11
455.8601717251
 21
361.0155730833
 31
0.0
  0
LINE
  5
DB
330
1F
100
AcDbEntity
  8
0
  6
SLD-Solid
 62
     7
370
    25
100
AcDbLine
 10
455.1582687639
 20
361.0155730833
 30
0.0
 11
455.1582687639
 21
358.0155730833
 31
0.0
  0
LINE
  5
DC
330
1F
100
AcDbEntity
  8
0
  6
SLD-Solid
 62
     7
370
    25
100
AcDbLine
 10
441.9832687639
 20
358.0155730833
 30
0.0
 11
455.1582687639
 21
358.0155730833
 31
0.0
  0
LINE
  5
DD
330
1F
100
AcDbEntity
  8
0
  6
SLD-Solid
 62
     7
370
    25
100
AcDbLine
 10
441.9832687639
 20
361.0155730833
 30
0.0
 11
441.9832687639
 21
358.0155730833
 31
0.0
  0
LINE
  5
DE
330
1F
100
AcDbEntity
  8
0
  6
SLD-Solid
 62
     7
370
    25
100
AcDbLine
 10
426.3332687639
 20
361.0155730833
 30
0.0
 11
441.9832687639
 21
361.0155730833
 31
0.0
  0
LINE
  5
DF
330
1F
100
AcDbEntity
  8
0
  6
SLD-Solid
 62
     7
370
    25
100
AcDbLine
 10
426.3332687639
 20
361.0155730833
 30
0.0
 11
426.3332687639
 21
358.0155730833
 31
0.0
  0
LINE
  5
E0
330
1F
100
AcDbEntity
  8
0
  6
SLD-Solid
 62
     7
370
    25
100
AcDbLine
 10
413.1582687639
 20
358.0155730833
 30
0.0
 11
426.3332687639
 21
358.0155730833
 31
0.0
  0
LINE
  5
E1
330
1F
100
AcDbEntity
  8
0
  6
SLD-Solid
 62
     7
370
    25
100
AcDbLine
 10
413.1582687639
 20
361.0155730833
 30
0.0
 11
413.1582687639
 21
358.0155730833
 31
0.0
  0
LINE
  5
E2
330
1F
100
AcDbEntity
  8
0
  6
SLD-Solid
 62
     7
370
    25
100
AcDbLine
 10
413.1582687639
 20
361.0155730833
 30
0.0
 11
412.4563658028
 21
361.0155730833
 31
0.0
  0
LINE
  5
E3
330
1F
100
AcDbEntity
  8
0
  6
SLD-Solid
 62
     7
370
    25
100
AcDbLine
 10
412.4563658028
 20
361.0155730833
 30
0.0
 11
415.8618808007
 21
364.4210880812
 31
0.0
  0
LINE
  5
E4
330
1F
100
AcDbEntity
  8
0
  6
SLD-Solid
 62
     7
370
    25
100
AcDbLine
 10
415.8618808007
 20
364.4210880812
 30
0.0
 11
413.7405604572
 21
366.5424084248
 31
0.0
  0
LINE
  5
E5
330
1F
100
AcDbEntity
  8
0
  6
SLD-Solid
 62
     7
370
    25
100
AcDbLine
 10
413.7405604572
 20
366.5424084248
 30
0.0
 11
410.1582687639
 21
362.9601167315
 31
0.0
  0
LINE
  5
E6
330
1F
100
AcDbEntity
  8
0
  6
SLD-Solid
 62
     7
370
    25
100
AcDbLine
 10
410.1582687639
 20
364.0155730833
 30
0.0
 11
410.1582687639
 21
362.9601167315
 31
0.0
  0
LINE
  5
E7
330
1F
100
AcDbEntity
  8
0
  6
SLD-Solid
 62
     7
370
    25
100
AcDbLine
 10
410.1582687639
 20
364.0155730833
 30
0.0
 11
407.1582687639
 21
364.0155730833
 31
0.0
  0
LINE
  5
E8
330
1F
100
AcDbEntity
  8
0
  6
SLD-Solid
 62
     7
370
    25
100
AcDbLine
 10
407.1582687639
 20
377.1905730833
 30
0.0
 11
407.1582687639
 21
364.0155730833
 31
0.0
  0
LINE
  5
E9
330
1F
100
AcDbEntity
  8
0
  6
SLD-Solid
 62
     7
370
    25
100
AcDbLine
 10
410.1582687639
 20
377.1905730833
 30
0.0
 11
407.1582687639
 21
377.1905730833
 31
0.0
  0
LINE
  5
EA
330
1F
100
AcDbEntity
  8
0
  6
SLD-Solid
 62
     7
370
    25
100
AcDbLine
 10
410.1582687639
 20
392.8405730833
 30
0.0
 11
410.1582687639
 21
377.1905730833
 31
0.0
  0
LINE
  5
EB
330
1F
100
AcDbEntity
  8
0
  6
SLD-Solid
 62
     7
370
    25
100
AcDbLine
 10
410.1582687639
 20
392.8405730833
 30
0.0
 11
407.1582687639
 21
392.8405730833
 31
0.0
  0
LINE
  5
EC
330
1F
100
AcDbEntity
  8
0
  6
SLD-Solid
 62
     7
370
    25
100
AcDbLine
 10
407.1582687639
 20
406.0155730833
 30
0.0
 11
407.1582687639
 21
392.8405730833
 31
0.0
  0
LINE
  5
ED
330
1F
100
AcDbEntity
  8
0
  6
SLD-Solid
 62
     7
370
    25
100
AcDbLine
 10
410.1582687639
 20
406.0155730833
 30
0.0
 11
407.1582687639
 21
406.0155730833
 31
0.0
  0
LINE
  5
EE
330
1F
100
AcDbEntity
  8
0
  6
SLD-Solid
 62
     7
370
    25
100
AcDbLine
 10
410.1582687639
 20
406.0155730833
 30
0.0
 11
410.1582687639
 21
407.071029435
 31
0.0
  0
LINE
  5
EF
330
1F
100
AcDbEntity
  8
0
  6
SLD-Solid
 62
     7
370
    25
100
AcDbLine
 10
410.1582687639
 20
407.071029435
 30
0.0
 11
413.7405604572
 21
403.4887377418
 31
0.0
  0
LINE
  5
F0
330
1F
100
AcDbEntity
  8
0
  6
SLD-Solid
 62
     7
370
    25
100
AcDbLine
 10
413.7405604572
 20
403.4887377418
 30
0.0
 11
415.8618808007
 21
405.6100580853
 31
0.0
  0
LINE
  5
F1
330
1F
100
AcDbEntity
  8
0
  6
SLD-Solid
 62
     7
370
    25
100
AcDbLine
 10
415.8618808007
 20
405.6100580853
 30
0.0
 11
412.4563658028
 21
409.0155730833
 31
0.0
  0
LINE
  5
F2
330
1F
100
AcDbEntity
  8
0
  6
SLD-Solid
 62
     7
370
    25
100
AcDbLine
 10
413.1582687639
 20
409.0155730833
 30
0.0
 11
412.4563658028
 21
409.0155730833
 31
0.0
  0
LINE
  5
F3
330
1F
100
AcDbEntity
  8
0
  6
SLD-Solid
 62
     7
370
    25
100
AcDbLine
 10
426.3332687639
 20
409.0155730833
 30
0.0
 11
441.9832687639
 21
409.0155730833
 31
0.0
  0
LINE
  5
F4
330
1F
100
AcDbEntity
  8
0
  6
SLD-Solid
 62
     7
370
    25
100
AcDbLine
 10
455.1582687639
 20
409.0155730833
 30
0.0
 11
455.8601717251
 21
409.0155730833
 31
0.0
  0
LINE
  5
F5
330
1F
100
AcDbEntity
  8
0
  6
SLD-Solid
 62
     7
370
    25
100
AcDbLine
 10
455.8601717251
 20
409.0155730833
 30
0.0
 11
452.4546567271
 21
405.6100580853
 31
0.0
  0
LINE
  5
F6
330
1F
100
AcDbEntity
  8
0
  6
SLD-Solid
 62
     7
370
    25
100
AcDbLine
 10
452.4546567271
 20
405.6100580853
 30
0.0
 11
454.5759770707
 21
403.4887377418
 31
0.0
  0
CIRCLE
  5
F7
330
1F
100
AcDbEntity
  8
0
  6
SLD-Solid
 62
     7
370
    25
100
AcDbCircle
 10
434.1582687639
 20
385.0155730833
 30
0.0
 40
3.250000000000057
  0
CIRCLE
  5
F8
330
1F
100
AcDbEntity
  8
0
  6
SLD-Solid
 62
     7
370
    25
100
AcDbCircle
 10
425.8739975165
 20
405.0155730833
 30
0.0
 40
1.5
  0
CIRCLE
  5
F9
330
1F
100
AcDbEntity
  8
0
  6
SLD-Solid
 62
     7
370
    25
100
AcDbCircle
 10
442.4425400114
 20
405.0155730833
 30
0.0
 40
1.5
  0
CIRCLE
  5
FA
330
1F
100
AcDbEntity
  8
0
  6
SLD-Solid
 62
     7
370
    25
100
AcDbCircle
 10
442.4425400114
 20
365.0155730833
 30
0.0
 40
1.5
  0
CIRCLE
  5
FB
330
1F
100
AcDbEntity
  8
0
  6
SLD-Solid
 62
     7
370
    25
100
AcDbCircle
 10
425.8739975165
 20
365.0155730833
 30
0.0
 40
1.5
  0
CIRCLE
  5
FC
330
1F
100
AcDbEntity
  8
0
  6
SLD-Solid
 62
     7
370
    25
100
AcDbCircle
 10
412.3082687639
 20
385.7755730833
 30
0.0
 40
0.75
  0
CIRCLE
  5
FD
330
1F
100
AcDbEntity
  8
0
  6
SLD-Solid
 62
     7
370
    25
100
AcDbCircle
 10
455.8582687639
 20
385.7755730833
 30
0.0
 40
0.75
  0
LINE
  5
FE
330
1F
100
AcDbEntity
  8
0
  6
SLD-Solid
 62
     7
370
    25
100
AcDbLine
 10
455.1582687639
 20
409.0155730833
 30
0.0
 11
455.1582687639
 21
412.0155730833
 31
0.0
  0
LINE
  5
FF
330
1F
100
AcDbEntity
  8
0
  6
SLD-Solid
 62
     7
370
    25
100
AcDbLine
 10
441.9832687639
 20
409.0155730833
 30
0.0
 11
441.9832687639
 21
412.0155730833
 31
0.0
  0
LINE
  5
100
330
1F
100
AcDbEntity
  8
0
  6
SLD-Solid
 62
     7
370
    25
100
AcDbLine
 10
426.3332687639
 20
412.0155730833
 30
0.0
 11
413.1582687639
 21
412.0155730833
 31
0.0
  0
LINE
  5
101
330
1F
100
AcDbEntity
  8
0
  6
SLD-Solid
 62
     7
370
    25
100
AcDbLine
 10
455.1582687639
 20
412.0155730833
 30
0.0
 11
441.9832687639
 21
412.0155730833
 31
0.0
  0
LINE
  5
102
330
1F
100
AcDbEntity
  8
0
  6
SLD-Solid
 62
     7
370
    25
100
AcDbLine
 10
426.3332687639
 20
409.0155730833
 30
0.0
 11
426.3332687639
 21
412.0155730833
 31
0.0
  0
LINE
  5
103
330
1F
100
AcDbEntity
  8
0
  6
SLD-Solid
 62
     7
370
    25
100
AcDbLine
 10
413.1582687639
 20
409.0155730833
 30
0.0
 11
413.1582687639
 21
412.0155730833
 31
0.0
  0
LINE
  5
104
330
1F
100
AcDbEntity
  8
0
  6
SLD-Solid
 62
     7
370
    25
100
AcDbLine
 10
351.3967470091
 20
353.8211980018
 30
0.0
 11
351.5717470091
 21
353.8211980018
 31
0.0
  0
LINE
  5
105
330
1F
100
AcDbEntity
  8
0
  6
SLD-Solid
 62
     7
370
    25
100
AcDbLine
 10
351.5717470091
 20
350.8211980018
 30
0.0
 11
351.5717470091
 21
353.8211980018
 31
0.0
  0
LINE
  5
106
330
1F
100
AcDbEntity
  8
0
  6
SLD-Solid
 62
     7
370
    25
100
AcDbLine
 10
364.3967470091
 20
350.8211980018
 30
0.0
 11
351.5717470091
 21
350.8211980018
 31
0.0
  0
LINE
  5
107
330
1F
100
AcDbEntity
  8
0
  6
SLD-Solid
 62
     7
370
    25
100
AcDbLine
 10
364.3967470091
 20
353.8211980018
 30
0.0
 11
364.3967470091
 21
350.8211980018
 31
0.0
  0
LINE
  5
108
330
1F
100
AcDbEntity
  8
0
  6
SLD-Solid
 62
     7
370
    25
100
AcDbLine
 10
364.3967470091
 20
353.8211980018
 30
0.0
 11
370.8967470091
 21
353.8211980018
 31
0.0
  0
LINE
  5
109
330
1F
100
AcDbEntity
  8
0
  6
SLD-Solid
 62
     7
370
    25
100
AcDbLine
 10
370.8967470091
 20
341.8162840508
 30
0.0
 11
370.8967470091
 21
353.8211980018
 31
0.0
  0
LINE
  5
10A
330
1F
100
AcDbEntity
  8
0
  6
SLD-Solid
 62
     7
370
    25
100
AcDbLine
 10
373.8967470091
 20
341.8162840508
 30
0.0
 11
370.8967470091
 21
341.8162840508
 31
0.0
  0
LINE
  5
10B
330
1F
100
AcDbEntity
  8
0
  6
SLD-Solid
 62
     7
370
    25
100
AcDbLine
 10
373.8967470091
 20
341.8162840508
 30
0.0
 11
373.8967470091
 21
353.8211980018
 31
0.0
  0
LINE
  5
10C
330
1F
100
AcDbEntity
  8
0
  6
SLD-Solid
 62
     7
370
    25
100
AcDbLine
 10
373.8967470091
 20
353.8211980018
 30
0.0
 11
380.3967470091
 21
353.8211980018
 31
0.0
  0
LINE
  5
10D
330
1F
100
AcDbEntity
  8
0
  6
SLD-Solid
 62
     7
370
    25
100
AcDbLine
 10
380.3967470091
 20
350.8211980018
 30
0.0
 11
380.3967470091
 21
353.8211980018
 31
0.0
  0
LINE
  5
10E
330
1F
100
AcDbEntity
  8
0
  6
SLD-Solid
 62
     7
370
    25
100
AcDbLine
 10
380.3967470091
 20
350.8211980018
 30
0.0
 11
377.3967470091
 21
350.8211980018
 31
0.0
  0
LINE
  5
10F
330
1F
100
AcDbEntity
  8
0
  6
SLD-Solid
 62
     7
370
    25
100
AcDbLine
 10
377.3967470091
 20
350.8211980018
 30
0.0
 11
377.3967470091
 21
342.8211980018
 31
0.0
  0
LINE
  5
110
330
1F
100
AcDbEntity
  8
0
  6
SLD-Solid
 62
     7
370
    25
100
AcDbLine
 10
377.3967470091
 20
342.8211980018
 30
0.0
 11
391.3967470091
 21
342.8211980018
 31
0.0
  0
LINE
  5
111
330
1F
100
AcDbEntity
  8
0
  6
SLD-Solid
 62
     7
370
    25
100
AcDbLine
 10
391.3967470091
 20
342.8211980018
 30
0.0
 11
391.3967470091
 21
350.8211980018
 31
0.0
  0
LINE
  5
112
330
1F
100
AcDbEntity
  8
0
  6
SLD-Solid
 62
     7
370
    25
100
AcDbLine
 10
393.2217470091
 20
350.8211980018
 30
0.0
 11
391.3967470091
 21
350.8211980018
 31
0.0
  0
LINE
  5
113
330
1F
100
AcDbEntity
  8
0
  6
SLD-Solid
 62
     7
370
    25
100
AcDbLine
 10
393.2217470091
 20
353.8211980018
 30
0.0
 11
393.2217470091
 21
350.8211980018
 31
0.0
  0
LINE
  5
114
330
1F
100
AcDbEntity
  8
0
  6
SLD-Solid
 62
     7
370
    25
100
AcDbLine
 10
393.2217470091
 20
353.8211980018
 30
0.0
 11
393.8967470091
 21
353.8211980018
 31
0.0
  0
LINE
  5
115
330
1F
100
AcDbEntity
  8
0
  6
SLD-Solid
 62
     7
370
    25
100
AcDbLine
 10
393.8967470091
 20
347.8211980018
 30
0.0
 11
393.8967470091
 21
353.8211980018
 31
0.0
  0
LINE
  5
116
330
1F
100
AcDbEntity
  8
0
  6
SLD-Solid
 62
     7
370
    25
100
AcDbLine
 10
399.3967470091
 20
347.8211980018
 30
0.0
 11
393.8967470091
 21
347.8211980018
 31
0.0
  0
LINE
  5
117
330
1F
100
AcDbEntity
  8
0
  6
SLD-Solid
 62
     7
370
    25
100
AcDbLine
 10
399.3967470091
 20
347.8211980018
 30
0.0
 11
399.3967470091
 21
343.4295313352
 31
0.0
  0
LINE
  5
118
330
1F
100
AcDbEntity
  8
0
  6
SLD-Solid
 62
     7
370
    25
100
AcDbLine
 10
399.3967470091
 20
343.4295313352
 30
0.0
 11
396.3967470091
 21
343.4295313352
 31
0.0
  0
LINE
  5
119
330
1F
100
AcDbEntity
  8
0
  6
SLD-Solid
 62
     7
370
    25
100
AcDbLine
 10
396.3967470091
 20
343.4295313352
 30
0.0
 11
396.3967470091
 21
333.2128646685
 31
0.0
  0
LINE
  5
11A
330
1F
100
AcDbEntity
  8
0
  6
SLD-Solid
 62
     7
370
    25
100
AcDbLine
 10
396.3967470091
 20
333.2128646685
 30
0.0
 11
399.3967470091
 21
333.2128646685
 31
0.0
  0
LINE
  5
11B
330
1F
100
AcDbEntity
  8
0
  6
SLD-Solid
 62
     7
370
    25
100
AcDbLine
 10
399.3967470091
 20
333.2128646685
 30
0.0
 11
399.3967470091
 21
322.8211980018
 31
0.0
  0
LINE
  5
11C
330
1F
100
AcDbEntity
  8
0
  6
SLD-Solid
 62
     7
370
    25
100
AcDbLine
 10
393.2217470091
 20
322.8211980018
 30
0.0
 11
399.3967470091
 21
322.8211980018
 31
0.0
  0
LINE
  5
11D
330
1F
100
AcDbEntity
  8
0
  6
SLD-Solid
 62
     7
370
    25
100
AcDbLine
 10
393.2217470091
 20
325.8211980018
 30
0.0
 11
393.2217470091
 21
322.8211980018
 31
0.0
  0
LINE
  5
11E
330
1F
100
AcDbEntity
  8
0
  6
SLD-Solid
 62
     7
370
    25
100
AcDbLine
 10
380.3967470091
 20
325.8211980018
 30
0.0
 11
393.2217470091
 21
325.8211980018
 31
0.0
  0
LINE
  5
11F
330
1F
100
AcDbEntity
  8
0
  6
SLD-Solid
 62
     7
370
    25
100
AcDbLine
 10
380.3967470091
 20
322.8211980018
 30
0.0
 11
380.3967470091
 21
325.8211980018
 31
0.0
  0
LINE
  5
120
330
1F
100
AcDbEntity
  8
0
  6
SLD-Solid
 62
     7
370
    25
100
AcDbLine
 10
364.3967470091
 20
322.8211980018
 30
0.0
 11
380.3967470091
 21
322.8211980018
 31
0.0
  0
LINE
  5
121
330
1F
100
AcDbEntity
  8
0
  6
SLD-Solid
 62
     7
370
    25
100
AcDbLine
 10
364.3967470091
 20
325.8211980018
 30
0.0
 11
364.3967470091
 21
322.8211980018
 31
0.0
  0
LINE
  5
122
330
1F
100
AcDbEntity
  8
0
  6
SLD-Solid
 62
     7
370
    25
100
AcDbLine
 10
351.5717470091
 20
325.8211980018
 30
0.0
 11
364.3967470091
 21
325.8211980018
 31
0.0
  0
LINE
  5
123
330
1F
100
AcDbEntity
  8
0
  6
SLD-Solid
 62
     7
370
    25
100
AcDbLine
 10
351.5717470091
 20
322.8211980018
 30
0.0
 11
351.5717470091
 21
325.8211980018
 31
0.0
  0
LINE
  5
124
330
1F
100
AcDbEntity
  8
0
  6
SLD-Solid
 62
     7
370
    25
100
AcDbLine
 10
348.3967470091
 20
322.8211980018
 30
0.0
 11
351.5717470091
 21
322.8211980018
 31
0.0
  0
LINE
  5
125
330
1F
100
AcDbEntity
  8
0
  6
SLD-Solid
 62
     7
370
    25
100
AcDbLine
 10
348.3967470091
 20
322.8211980018
 30
0.0
 11
348.3967470091
 21
333.0378646685
 31
0.0
  0
LINE
  5
126
330
1F
100
AcDbEntity
  8
0
  6
SLD-Solid
 62
     7
370
    25
100
AcDbLine
 10
348.3967470091
 20
333.0378646685
 30
0.0
 11
345.3967470091
 21
333.0378646685
 31
0.0
  0
LINE
  5
127
330
1F
100
AcDbEntity
  8
0
  6
SLD-Solid
 62
     7
370
    25
100
AcDbLine
 10
345.3967470091
 20
343.6045313352
 30
0.0
 11
345.3967470091
 21
333.0378646685
 31
0.0
  0
LINE
  5
128
330
1F
100
AcDbEntity
  8
0
  6
SLD-Solid
 62
     7
370
    25
100
AcDbLine
 10
345.3967470091
 20
343.6045313352
 30
0.0
 11
348.3967470091
 21
343.6045313352
 31
0.0
  0
LINE
  5
129
330
1F
100
AcDbEntity
  8
0
  6
SLD-Solid
 62
     7
370
    25
100
AcDbLine
 10
348.3967470091
 20
343.6045313352
 30
0.0
 11
348.3967470091
 21
347.8211980018
 31
0.0
  0
LINE
  5
12A
330
1F
100
AcDbEntity
  8
0
  6
SLD-Solid
 62
     7
370
    25
100
AcDbLine
 10
348.3967470091
 20
347.8211980018
 30
0.0
 11
351.3967470091
 21
347.8211980018
 31
0.0
  0
LINE
  5
12B
330
1F
100
AcDbEntity
  8
0
  6
SLD-Solid
 62
     7
370
    25
100
AcDbLine
 10
351.3967470091
 20
347.8211980018
 30
0.0
 11
351.3967470091
 21
353.8211980018
 31
0.0
  0
LINE
  5
12C
330
1F
100
AcDbEntity
  8
0
  6
SLD-Solid
 62
     7
370
    25
100
AcDbLine
 10
518.1085768268
 20
347.8211980018
 30
0.0
 11
512.1085768268
 21
347.8211980018
 31
0.0
  0
LINE
  5
12D
330
1F
100
AcDbEntity
  8
0
  6
SLD-Solid
 62
     7
370
    25
100
AcDbLine
 10
518.1085768268
 20
347.8211980018
 30
0.0
 11
518.1085768268
 21
343.4295313352
 31
0.0
  0
LINE
  5
12E
330
1F
100
AcDbEntity
  8
0
  6
SLD-Solid
 62
     7
370
    25
100
AcDbLine
 10
518.1085768268
 20
343.4295313352
 30
0.0
 11
515.1085768268
 21
343.4295313352
 31
0.0
  0
LINE
  5
12F
330
1F
100
AcDbEntity
  8
0
  6
SLD-Solid
 62
     7
370
    25
100
AcDbLine
 10
515.1085768268
 20
343.4295313352
 30
0.0
 11
515.1085768268
 21
333.2128646685
 31
0.0
  0
LINE
  5
130
330
1F
100
AcDbEntity
  8
0
  6
SLD-Solid
 62
     7
370
    25
100
AcDbLine
 10
515.1085768268
 20
333.2128646685
 30
0.0
 11
518.1085768268
 21
333.2128646685
 31
0.0
  0
LINE
  5
131
330
1F
100
AcDbEntity
  8
0
  6
SLD-Solid
 62
     7
370
    25
100
AcDbLine
 10
518.1085768268
 20
333.2128646685
 30
0.0
 11
518.1085768268
 21
322.8211980018
 31
0.0
  0
LINE
  5
132
330
1F
100
AcDbEntity
  8
0
  6
SLD-Solid
 62
     7
370
    25
100
AcDbLine
 10
511.9335768268
 20
322.8211980018
 30
0.0
 11
518.1085768268
 21
322.8211980018
 31
0.0
  0
LINE
  5
133
330
1F
100
AcDbEntity
  8
0
  6
SLD-Solid
 62
     7
370
    25
100
AcDbLine
 10
511.9335768268
 20
322.8211980018
 30
0.0
 11
511.9335768268
 21
325.8211980018
 31
0.0
  0
LINE
  5
134
330
1F
100
AcDbEntity
  8
0
  6
SLD-Solid
 62
     7
370
    25
100
AcDbLine
 10
511.9335768268
 20
325.8211980018
 30
0.0
 11
499.1085768268
 21
325.8211980018
 31
0.0
  0
LINE
  5
135
330
1F
100
AcDbEntity
  8
0
  6
SLD-Solid
 62
     7
370
    25
100
AcDbLine
 10
499.1085768268
 20
325.8211980018
 30
0.0
 11
499.1085768268
 21
322.8211980018
 31
0.0
  0
LINE
  5
136
330
1F
100
AcDbEntity
  8
0
  6
SLD-Solid
 62
     7
370
    25
100
AcDbLine
 10
483.1085768268
 20
322.8211980018
 30
0.0
 11
499.1085768268
 21
322.8211980018
 31
0.0
  0
LINE
  5
137
330
1F
100
AcDbEntity
  8
0
  6
SLD-Solid
 62
     7
370
    25
100
AcDbLine
 10
483.1085768268
 20
322.8211980018
 30
0.0
 11
483.1085768268
 21
325.8211980018
 31
0.0
  0
LINE
  5
138
330
1F
100
AcDbEntity
  8
0
  6
SLD-Solid
 62
     7
370
    25
100
AcDbLine
 10
483.1085768268
 20
325.8211980018
 30
0.0
 11
470.2835768268
 21
325.8211980018
 31
0.0
  0
LINE
  5
139
330
1F
100
AcDbEntity
  8
0
  6
SLD-Solid
 62
     7
370
    25
100
AcDbLine
 10
470.2835768268
 20
325.8211980018
 30
0.0
 11
470.2835768268
 21
322.8211980018
 31
0.0
  0
LINE
  5
13A
330
1F
100
AcDbEntity
  8
0
  6
SLD-Solid
 62
     7
370
    25
100
AcDbLine
 10
467.1085768268
 20
322.8211980018
 30
0.0
 11
470.2835768268
 21
322.8211980018
 31
0.0
  0
LINE
  5
13B
330
1F
100
AcDbEntity
  8
0
  6
SLD-Solid
 62
     7
370
    25
100
AcDbLine
 10
467.1085768268
 20
322.8211980018
 30
0.0
 11
467.1085768268
 21
333.0378646685
 31
0.0
  0
LINE
  5
13C
330
1F
100
AcDbEntity
  8
0
  6
SLD-Solid
 62
     7
370
    25
100
AcDbLine
 10
467.1085768268
 20
333.0378646685
 30
0.0
 11
464.1085768268
 21
333.0378646685
 31
0.0
  0
LINE
  5
13D
330
1F
100
AcDbEntity
  8
0
  6
SLD-Solid
 62
     7
370
    25
100
AcDbLine
 10
464.1085768268
 20
343.6045313352
 30
0.0
 11
464.1085768268
 21
333.0378646685
 31
0.0
  0
LINE
  5
13E
330
1F
100
AcDbEntity
  8
0
  6
SLD-Solid
 62
     7
370
    25
100
AcDbLine
 10
464.1085768268
 20
343.6045313352
 30
0.0
 11
467.1085768268
 21
343.6045313352
 31
0.0
  0
LINE
  5
13F
330
1F
100
AcDbEntity
  8
0
  6
SLD-Solid
 62
     7
370
    25
100
AcDbLine
 10
467.1085768268
 20
343.6045313352
 30
0.0
 11
467.1085768268
 21
347.8211980018
 31
0.0
  0
LINE
  5
140
330
1F
100
AcDbEntity
  8
0
  6
SLD-Solid
 62
     7
370
    25
100
AcDbLine
 10
470.1085768268
 20
347.8211980018
 30
0.0
 11
467.1085768268
 21
347.8211980018
 31
0.0
  0
LINE
  5
141
330
1F
100
AcDbEntity
  8
0
  6
SLD-Solid
 62
     7
370
    25
100
AcDbLine
 10
470.1085768268
 20
347.8211980018
 30
0.0
 11
470.1085768268
 21
353.8211980018
 31
0.0
  0
LINE
  5
142
330
1F
100
AcDbEntity
  8
0
  6
SLD-Solid
 62
     7
370
    25
100
AcDbLine
 10
470.1085768268
 20
353.8211980018
 30
0.0
 11
470.2835768268
 21
353.8211980018
 31
0.0
  0
LINE
  5
143
330
1F
100
AcDbEntity
  8
0
  6
SLD-Solid
 62
     7
370
    25
100
AcDbLine
 10
470.2835768268
 20
350.8211980018
 30
0.0
 11
470.2835768268
 21
353.8211980018
 31
0.0
  0
LINE
  5
144
330
1F
100
AcDbEntity
  8
0
  6
SLD-Solid
 62
     7
370
    25
100
AcDbLine
 10
483.1085768268
 20
350.8211980018
 30
0.0
 11
470.2835768268
 21
350.8211980018
 31
0.0
  0
LINE
  5
145
330
1F
100
AcDbEntity
  8
0
  6
SLD-Solid
 62
     7
370
    25
100
AcDbLine
 10
483.1085768268
 20
353.8211980018
 30
0.0
 11
483.1085768268
 21
350.8211980018
 31
0.0
  0
LINE
  5
146
330
1F
100
AcDbEntity
  8
0
  6
SLD-Solid
 62
     7
370
    25
100
AcDbLine
 10
483.1085768268
 20
353.8211980018
 30
0.0
 11
489.4835768268
 21
353.8211980018
 31
0.0
  0
LINE
  5
147
330
1F
100
AcDbEntity
  8
0
  6
SLD-Solid
 62
     7
370
    25
100
AcDbLine
 10
489.4835768268
 20
341.8162840508
 30
0.0
 11
489.4835768268
 21
353.8211980018
 31
0.0
  0
LINE
  5
148
330
1F
100
AcDbEntity
  8
0
  6
SLD-Solid
 62
     7
370
    25
100
AcDbLine
 10
492.7335768268
 20
341.8162840508
 30
0.0
 11
489.4835768268
 21
341.8162840508
 31
0.0
  0
LINE
  5
149
330
1F
100
AcDbEntity
  8
0
  6
SLD-Solid
 62
     7
370
    25
100
AcDbLine
 10
492.7335768268
 20
341.8162840508
 30
0.0
 11
492.7335768268
 21
353.8211980018
 31
0.0
  0
LINE
  5
14A
330
1F
100
AcDbEntity
  8
0
  6
SLD-Solid
 62
     7
370
    25
100
AcDbLine
 10
492.7335768268
 20
353.8211980018
 30
0.0
 11
499.1085768268
 21
353.8211980018
 31
0.0
  0
LINE
  5
14B
330
1F
100
AcDbEntity
  8
0
  6
SLD-Solid
 62
     7
370
    25
100
AcDbLine
 10
499.1085768268
 20
350.8211980018
 30
0.0
 11
499.1085768268
 21
353.8211980018
 31
0.0
  0
LINE
  5
14C
330
1F
100
AcDbEntity
  8
0
  6
SLD-Solid
 62
     7
370
    25
100
AcDbLine
 10
511.9335768268
 20
350.8211980018
 30
0.0
 11
499.1085768268
 21
350.8211980018
 31
0.0
  0
LINE
  5
14D
330
1F
100
AcDbEntity
  8
0
  6
SLD-Solid
 62
     7
370
    25
100
AcDbLine
 10
511.9335768268
 20
353.8211980018
 30
0.0
 11
511.9335768268
 21
350.8211980018
 31
0.0
  0
LINE
  5
14E
330
1F
100
AcDbEntity
  8
0
  6
SLD-Solid
 62
     7
370
    25
100
AcDbLine
 10
511.9335768268
 20
353.8211980018
 30
0.0
 11
512.1085768268
 21
353.8211980018
 31
0.0
  0
LINE
  5
14F
330
1F
100
AcDbEntity
  8
0
  6
SLD-Solid
 62
     7
370
    25
100
AcDbLine
 10
512.1085768268
 20
347.8211980018
 30
0.0
 11
512.1085768268
 21
353.8211980018
 31
0.0
  0
LINE
  5
150
330
1F
100
AcDbEntity
  8
0
  6
SLD-Solid
 62
     7
370
    25
100
AcDbLine
 10
574.7177402686
 20
347.8211980018
 30
0.0
 11
568.5427402686
 21
347.8211980018
 31
0.0
  0
LINE
  5
151
330
1F
100
AcDbEntity
  8
0
  6
SLD-Solid
 62
     7
370
    25
100
AcDbLine
 10
574.7177402686
 20
343.4295313352
 30
0.0
 11
571.7177402686
 21
343.4295313352
 31
0.0
  0
LINE
  5
152
330
1F
100
AcDbEntity
  8
0
  6
SLD-Solid
 62
     7
370
    25
100
AcDbLine
 10
571.7177402686
 20
343.4295313352
 30
0.0
 11
571.7177402686
 21
333.2128646685
 31
0.0
  0
LINE
  5
153
330
1F
100
AcDbEntity
  8
0
  6
SLD-Solid
 62
     7
370
    25
100
AcDbLine
 10
571.7177402686
 20
333.2128646685
 30
0.0
 11
574.7177402686
 21
333.2128646685
 31
0.0
  0
LINE
  5
154
330
1F
100
AcDbEntity
  8
0
  6
SLD-Solid
 62
     7
370
    25
100
AcDbLine
 10
574.7177402686
 20
333.2128646685
 30
0.0
 11
574.7177402686
 21
322.8211980018
 31
0.0
  0
LINE
  5
155
330
1F
100
AcDbEntity
  8
0
  6
SLD-Solid
 62
     7
370
    25
100
AcDbLine
 10
568.5427402686
 20
322.8211980018
 30
0.0
 11
574.7177402686
 21
322.8211980018
 31
0.0
  0
LINE
  5
156
330
1F
100
AcDbEntity
  8
0
  6
SLD-Solid
 62
     7
370
    25
100
AcDbLine
 10
568.5427402686
 20
322.8211980018
 30
0.0
 11
568.5427402686
 21
325.8211980018
 31
0.0
  0
LINE
  5
157
330
1F
100
AcDbEntity
  8
0
  6
SLD-Solid
 62
     7
370
    25
100
AcDbLine
 10
568.5427402686
 20
325.8211980018
 30
0.0
 11
555.7177402686
 21
325.8211980018
 31
0.0
  0
LINE
  5
158
330
1F
100
AcDbEntity
  8
0
  6
SLD-Solid
 62
     7
370
    25
100
AcDbLine
 10
555.7177402686
 20
325.8211980018
 30
0.0
 11
555.7177402686
 21
322.8211980018
 31
0.0
  0
LINE
  5
159
330
1F
100
AcDbEntity
  8
0
  6
SLD-Solid
 62
     7
370
    25
100
AcDbLine
 10
539.7177402686
 20
322.8211980018
 30
0.0
 11
555.7177402686
 21
322.8211980018
 31
0.0
  0
LINE
  5
15A
330
1F
100
AcDbEntity
  8
0
  6
SLD-Solid
 62
     7
370
    25
100
AcDbLine
 10
539.7177402686
 20
322.8211980018
 30
0.0
 11
539.7177402686
 21
325.8211980018
 31
0.0
  0
LINE
  5
15B
330
1F
100
AcDbEntity
  8
0
  6
SLD-Solid
 62
     7
370
    25
100
AcDbLine
 10
539.7177402686
 20
325.8211980018
 30
0.0
 11
526.8927402686
 21
325.8211980018
 31
0.0
  0
LINE
  5
15C
330
1F
100
AcDbEntity
  8
0
  6
SLD-Solid
 62
     7
370
    25
100
AcDbLine
 10
526.8927402686
 20
325.8211980018
 30
0.0
 11
526.8927402686
 21
322.8211980018
 31
0.0
  0
LINE
  5
15D
330
1F
100
AcDbEntity
  8
0
  6
SLD-Solid
 62
     7
370
    25
100
AcDbLine
 10
523.7177402686
 20
322.8211980018
 30
0.0
 11
526.8927402686
 21
322.8211980018
 31
0.0
  0
LINE
  5
15E
330
1F
100
AcDbEntity
  8
0
  6
SLD-Solid
 62
     7
370
    25
100
AcDbLine
 10
523.7177402686
 20
322.8211980018
 30
0.0
 11
523.7177402686
 21
333.0378646685
 31
0.0
  0
LINE
  5
15F
330
1F
100
AcDbEntity
  8
0
  6
SLD-Solid
 62
     7
370
    25
100
AcDbLine
 10
523.7177402686
 20
333.0378646685
 30
0.0
 11
520.7177402686
 21
333.0378646685
 31
0.0
  0
LINE
  5
160
330
1F
100
AcDbEntity
  8
0
  6
SLD-Solid
 62
     7
370
    25
100
AcDbLine
 10
520.7177402686
 20
343.6045313352
 30
0.0
 11
520.7177402686
 21
333.0378646685
 31
0.0
  0
LINE
  5
161
330
1F
100
AcDbEntity
  8
0
  6
SLD-Solid
 62
     7
370
    25
100
AcDbLine
 10
520.7177402686
 20
343.6045313352
 30
0.0
 11
523.7177402686
 21
343.6045313352
 31
0.0
  0
LINE
  5
162
330
1F
100
AcDbEntity
  8
0
  6
SLD-Solid
 62
     7
370
    25
100
AcDbLine
 10
523.7177402686
 20
343.6045313352
 30
0.0
 11
523.7177402686
 21
347.8211980018
 31
0.0
  0
LINE
  5
163
330
1F
100
AcDbEntity
  8
0
  6
SLD-Solid
 62
     7
370
    25
100
AcDbLine
 10
526.8927402686
 20
347.8211980018
 30
0.0
 11
523.7177402686
 21
347.8211980018
 31
0.0
  0
LINE
  5
164
330
1F
100
AcDbEntity
  8
0
  6
SLD-Solid
 62
     7
370
    25
100
AcDbLine
 10
526.8927402686
 20
347.8211980018
 30
0.0
 11
526.8927402686
 21
350.8211980018
 31
0.0
  0
LINE
  5
165
330
1F
100
AcDbEntity
  8
0
  6
SLD-Solid
 62
     7
370
    25
100
AcDbLine
 10
526.8927402686
 20
350.8211980018
 30
0.0
 11
539.7177402686
 21
350.8211980018
 31
0.0
  0
LINE
  5
166
330
1F
100
AcDbEntity
  8
0
  6
SLD-Solid
 62
     7
370
    25
100
AcDbLine
 10
539.7177402686
 20
350.8211980018
 30
0.0
 11
539.7177402686
 21
353.8211980018
 31
0.0
  0
LINE
  5
167
330
1F
100
AcDbEntity
  8
0
  6
SLD-Solid
 62
     7
370
    25
100
AcDbLine
 10
539.7177402686
 20
353.8211980018
 30
0.0
 11
546.2177402686
 21
353.8211980018
 31
0.0
  0
LINE
  5
168
330
1F
100
AcDbEntity
  8
0
  6
SLD-Solid
 62
     7
370
    25
100
AcDbLine
 10
546.2177402686
 20
353.8211980018
 30
0.0
 11
546.2177402686
 21
341.8162840508
 31
0.0
  0
LINE
  5
169
330
1F
100
AcDbEntity
  8
0
  6
SLD-Solid
 62
     7
370
    25
100
AcDbLine
 10
546.2177402686
 20
341.8162840508
 30
0.0
 11
549.2177402686
 21
341.8162840508
 31
0.0
  0
LINE
  5
16A
330
1F
100
AcDbEntity
  8
0
  6
SLD-Solid
 62
     7
370
    25
100
AcDbLine
 10
549.2177402686
 20
353.8211980018
 30
0.0
 11
549.2177402686
 21
341.8162840508
 31
0.0
  0
LINE
  5
16B
330
1F
100
AcDbEntity
  8
0
  6
SLD-Solid
 62
     7
370
    25
100
AcDbLine
 10
549.2177402686
 20
353.8211980018
 30
0.0
 11
555.7177402686
 21
353.8211980018
 31
0.0
  0
LINE
  5
16C
330
1F
100
AcDbEntity
  8
0
  6
SLD-Solid
 62
     7
370
    25
100
AcDbLine
 10
555.7177402686
 20
353.8211980018
 30
0.0
 11
555.7177402686
 21
350.8211980018
 31
0.0
  0
LINE
  5
16D
330
1F
100
AcDbEntity
  8
0
  6
SLD-Solid
 62
     7
370
    25
100
AcDbLine
 10
555.7177402686
 20
350.8211980018
 30
0.0
 11
568.5427402686
 21
350.8211980018
 31
0.0
  0
LINE
  5
16E
330
1F
100
AcDbEntity
  8
0
  6
SLD-Solid
 62
     7
370
    25
100
AcDbLine
 10
568.5427402686
 20
347.8211980018
 30
0.0
 11
568.5427402686
 21
350.8211980018
 31
0.0
  0
LINE
  5
16F
330
1F
100
AcDbEntity
  8
0
  6
SLD-Solid
 62
     7
370
    25
100
AcDbLine
 10
574.7177402686
 20
347.8211980018
 30
0.0
 11
574.7177402686
 21
343.4295313352
 31
0.0
  0
LINE
  5
170
330
1F
100
AcDbEntity
  8
0
  6
SLD-Solid
 62
     7
370
    25
100
AcDbLine
 10
166.5168177069
 20
275.098436058
 30
0.0
 11
166.5168177069
 21
277.848436058
 31
0.0
  0
LINE
  5
171
330
1F
100
AcDbEntity
  8
0
  6
SLD-Solid
 62
     7
370
    25
100
AcDbLine
 10
166.5168177069
 20
277.848436058
 30
0.0
 11
159.0168177069
 21
277.848436058
 31
0.0
  0
ARC
  5
172
330
1F
100
AcDbEntity
  8
0
  6
SLD-Solid
 62
     7
370
    25
100
AcDbCircle
 10
165.0168177069
 20
277.848436058
 30
0.0
 40
6.000000000000114
100
AcDbArc
 50
110.0
 51
180.0
  0
LINE
  5
173
330
1F
100
AcDbEntity
  8
0
  6
SLD-Solid
 62
     7
370
    25
100
AcDbLine
 10
162.9646968469
 20
283.4865917827
 30
0.0
 11
163.9043894677
 21
283.828611926
 31
0.0
  0
ARC
  5
174
330
1F
100
AcDbEntity
  8
0
  6
SLD-Solid
 62
     7
370
    25
100
AcDbCircle
 10
212.5602529009
 20
176.6264519215
 30
0.0
 40
15.00000000000002
100
AcDbArc
 50
311.6553359377
 51
29.6960324835
  0
LINE
  5
175
330
1F
100
AcDbEntity
  8
0
  6
SLD-Solid
 62
     7
370
    25
100
AcDbLine
 10
222.5299747315
 20
165.4191040363
 30
0.0
 11
185.7476965091
 21
132.6986882943
 31
0.0
  0
ARC
  5
176
330
1F
100
AcDbEntity
  8
0
  6
SLD-Solid
 62
     7
370
    25
100
AcDbCircle
 10
182.424455899
 20
136.4344709227
 30
0.0
 40
5.000000000000023
100
AcDbArc
 50
270.0
 51
311.6553359377
  0
LINE
  5
177
330
1F
100
AcDbEntity
  8
0
  6
SLD-Solid
 62
     7
370
    25
100
AcDbLine
 10
182.424455899
 20
131.4344709227
 30
0.0
 11
180.98679516
 21
131.4344709227
 31
0.0
  0
ARC
  5
178
330
1F
100
AcDbEntity
  8
0
  6
SLD-Solid
 62
     7
370
    25
100
AcDbCircle
 10
180.98679516
 20
136.4344709227
 30
0.0
 40
4.999999999999967
100
AcDbArc
 50
150.0
 51
270.0
  0
LINE
  5
179
330
1F
100
AcDbEntity
  8
0
  6
SLD-Solid
 62
     7
370
    25
100
AcDbLine
 10
187.285945097
 20
157.344918658
 30
0.0
 11
176.6566681411
 21
138.9344709227
 31
0.0
  0
ARC
  5
17A
330
1F
100
AcDbEntity
  8
0
  6
SLD-Solid
 62
     7
370
    25
100
AcDbCircle
 10
152.6449289456
 20
177.344918658
 30
0.0
 40
40.0
100
AcDbArc
 50
330.0
 51
20.0
  0
LINE
  5
17B
330
1F
100
AcDbEntity
  8
0
  6
SLD-Solid
 62
     7
370
    25
100
AcDbLine
 10
159.0168177069
 20
240.098436058
 30
0.0
 11
159.0168177069
 21
227.848436058
 31
0.0
  0
LINE
  5
17C
330
1F
100
AcDbEntity
  8
0
  6
SLD-Solid
 62
     7
370
    25
100
AcDbLine
 10
159.0168177069
 20
240.098436058
 30
0.0
 11
166.5168177069
 21
240.098436058
 31
0.0
  0
LINE
  5
17D
330
1F
100
AcDbEntity
  8
0
  6
SLD-Solid
 62
     7
370
    25
100
AcDbLine
 10
166.5168177069
 20
240.098436058
 30
0.0
 11
166.5168177069
 21
242.848436058
 31
0.0
  0
LINE
  5
17E
330
1F
100
AcDbEntity
  8
0
  6
SLD-Solid
 62
     7
370
    25
100
AcDbLine
 10
166.5168177069
 20
242.848436058
 30
0.0
 11
159.0168177069
 21
242.848436058
 31
0.0
  0
LINE
  5
17F
330
1F
100
AcDbEntity
  8
0
  6
SLD-Solid
 62
     7
370
    25
100
AcDbLine
 10
159.0168177069
 20
275.098436058
 30
0.0
 11
159.0168177069
 21
242.848436058
 31
0.0
  0
LINE
  5
180
330
1F
100
AcDbEntity
  8
0
  6
SLD-Solid
 62
     7
370
    25
100
AcDbLine
 10
159.0168177069
 20
275.098436058
 30
0.0
 11
166.5168177069
 21
275.098436058
 31
0.0
  0
LINE
  5
181
330
1F
100
AcDbEntity
  8
0
  6
SLD-Solid
 62
     7
370
    25
100
AcDbLine
 10
182.9228198242
 20
211.109273167
 30
0.0
 11
190.2326337771
 21
191.0257243911
 31
0.0
  0
ARC
  5
182
330
1F
100
AcDbEntity
  8
0
  6
SLD-Solid
 62
     7
370
    25
100
AcDbCircle
 10
159.0168177069
 20
202.408199976
 30
0.0
 40
25.44023608200531
100
AcDbArc
 50
20.0
 51
90.0
  0
ARC
  5
183
330
1F
100
AcDbEntity
  8
0
  6
SLD-Solid
 62
     7
370
    25
100
AcDbCircle
 10
165.6144901843
 20
279.1301488221
 30
0.0
 40
5.000000000000013
100
AcDbArc
 50
29.6960324835
 51
110.0
  0
LINE
  5
184
330
1F
100
AcDbEntity
  8
0
  6
SLD-Solid
 62
     7
370
    25
100
AcDbLine
 10
169.9578192893
 20
281.607141411
 30
0.0
 11
225.5902402159
 21
184.0574296884
 31
0.0
  0
LINE
  5
185
330
1F
100
AcDbEntity
  8
0
  6
SLD-Solid
 62
     7
370
    25
100
AcDbLine
 10
210.3100135338
 20
274.5345530931
 30
0.0
 11
210.3100135338
 21
277.2845530931
 31
0.0
  0
LINE
  5
186
330
1F
100
AcDbEntity
  8
0
  6
SLD-Solid
 62
     7
370
    25
100
AcDbLine
 10
210.3100135338
 20
277.2845530931
 30
0.0
 11
202.8100135338
 21
277.2845530931
 31
0.0
  0
ARC
  5
187
330
1F
100
AcDbEntity
  8
0
  6
SLD-Solid
 62
     7
370
    25
100
AcDbCircle
 10
208.8100135338
 20
277.2845530931
 30
0.0
 40
6.000000000000114
100
AcDbArc
 50
110.0
 51
180.0
  0
LINE
  5
188
330
1F
100
AcDbEntity
  8
0
  6
SLD-Solid
 62
     7
370
    25
100
AcDbLine
 10
206.7578926738
 20
282.9227088178
 30
0.0
 11
207.6975852946
 21
283.2647289611
 31
0.0
  0
ARC
  5
189
330
1F
100
AcDbEntity
  8
0
  6
SLD-Solid
 62
     7
370
    25
100
AcDbCircle
 10
256.3534487278
 20
176.0625689567
 30
0.0
 40
15.0
100
AcDbArc
 50
311.6553359377
 51
29.6960324835
  0
LINE
  5
18A
330
1F
100
AcDbEntity
  8
0
  6
SLD-Solid
 62
     7
370
    25
100
AcDbLine
 10
266.3231705584
 20
164.8552210714
 30
0.0
 11
229.5408923361
 21
132.1348053294
 31
0.0
  0
ARC
  5
18B
330
1F
100
AcDbEntity
  8
0
  6
SLD-Solid
 62
     7
370
    25
100
AcDbCircle
 10
226.2176517259
 20
135.8705879579
 30
0.0
 40
5.000000000000023
100
AcDbArc
 50
270.0
 51
311.6553359377
  0
LINE
  5
18C
330
1F
100
AcDbEntity
  8
0
  6
SLD-Solid
 62
     7
370
    25
100
AcDbLine
 10
226.2176517259
 20
130.8705879579
 30
0.0
 11
224.779990987
 21
130.8705879579
 31
0.0
  0
ARC
  5
18D
330
1F
100
AcDbEntity
  8
0
  6
SLD-Solid
 62
     7
370
    25
100
AcDbCircle
 10
224.779990987
 20
135.8705879579
 30
0.0
 40
4.999999999999967
100
AcDbArc
 50
150.0
 51
270.0
  0
LINE
  5
18E
330
1F
100
AcDbEntity
  8
0
  6
SLD-Solid
 62
     7
370
    25
100
AcDbLine
 10
231.0791409239
 20
156.7810356931
 30
0.0
 11
220.449863968
 21
138.3705879579
 31
0.0
  0
ARC
  5
18F
330
1F
100
AcDbEntity
  8
0
  6
SLD-Solid
 62
     7
370
    25
100
AcDbCircle
 10
196.4381247725
 20
176.7810356931
 30
0.0
 40
40.0
100
AcDbArc
 50
330.0
 51
20.0
  0
LINE
  5
190
330
1F
100
AcDbEntity
  8
0
  6
SLD-Solid
 62
     7
370
    25
100
AcDbLine
 10
202.8100135338
 20
239.5345530931
 30
0.0
 11
202.8100135338
 21
227.2845530931
 31
0.0
  0
LINE
  5
191
330
1F
100
AcDbEntity
  8
0
  6
SLD-Solid
 62
     7
370
    25
100
AcDbLine
 10
202.8100135338
 20
239.5345530931
 30
0.0
 11
210.3100135338
 21
239.5345530931
 31
0.0
  0
LINE
  5
192
330
1F
100
AcDbEntity
  8
0
  6
SLD-Solid
 62
     7
370
    25
100
AcDbLine
 10
210.3100135338
 20
239.5345530931
 30
0.0
 11
210.3100135338
 21
242.2845530931
 31
0.0
  0
LINE
  5
193
330
1F
100
AcDbEntity
  8
0
  6
SLD-Solid
 62
     7
370
    25
100
AcDbLine
 10
210.3100135338
 20
242.2845530931
 30
0.0
 11
202.8100135338
 21
242.2845530931
 31
0.0
  0
LINE
  5
194
330
1F
100
AcDbEntity
  8
0
  6
SLD-Solid
 62
     7
370
    25
100
AcDbLine
 10
202.8100135338
 20
274.5345530931
 30
0.0
 11
202.8100135338
 21
242.2845530931
 31
0.0
  0
LINE
  5
195
330
1F
100
AcDbEntity
  8
0
  6
SLD-Solid
 62
     7
370
    25
100
AcDbLine
 10
202.8100135338
 20
274.5345530931
 30
0.0
 11
210.3100135338
 21
274.5345530931
 31
0.0
  0
LINE
  5
196
330
1F
100
AcDbEntity
  8
0
  6
SLD-Solid
 62
     7
370
    25
100
AcDbLine
 10
226.7160156511
 20
210.5453902021
 30
0.0
 11
234.025829604
 21
190.4618414262
 31
0.0
  0
ARC
  5
197
330
1F
100
AcDbEntity
  8
0
  6
SLD-Solid
 62
     7
370
    25
100
AcDbCircle
 10
202.8100135338
 20
201.8443170111
 30
0.0
 40
25.44023608200532
100
AcDbArc
 50
20.0
 51
90.0
  0
ARC
  5
198
330
1F
100
AcDbEntity
  8
0
  6
SLD-Solid
 62
     7
370
    25
100
AcDbCircle
 10
209.4076860113
 20
278.5662658572
 30
0.0
 40
5.000000000000013
100
AcDbArc
 50
29.6960324835
 51
110.0
  0
LINE
  5
199
330
1F
100
AcDbEntity
  8
0
  6
SLD-Solid
 62
     7
370
    25
100
AcDbLine
 10
213.7510151162
 20
281.0432584462
 30
0.0
 11
269.3834360428
 21
183.4935467235
 31
0.0
  0
LINE
  5
19A
330
1F
100
AcDbEntity
  8
0
  6
SLD-Solid
 62
     7
370
    25
100
AcDbLine
 10
81.4435743219
 20
273.7477745536
 30
0.0
 11
81.4435743219
 21
276.4977745536
 31
0.0
  0
LINE
  5
19B
330
1F
100
AcDbEntity
  8
0
  6
SLD-Solid
 62
     7
370
    25
100
AcDbLine
 10
81.4435743219
 20
276.4977745536
 30
0.0
 11
73.9435743219
 21
276.4977745536
 31
0.0
  0
ARC
  5
19C
330
1F
100
AcDbEntity
  8
0
  6
SLD-Solid
 62
     7
370
    25
100
AcDbCircle
 10
79.9435743219
 20
276.4977745536
 30
0.0
 40
6.000000000000114
100
AcDbArc
 50
110.0
 51
180.0
  0
LINE
  5
19D
330
1F
100
AcDbEntity
  8
0
  6
SLD-Solid
 62
     7
370
    25
100
AcDbLine
 10
77.891453462
 20
282.1359302783
 30
0.0
 11
78.8311460827
 21
282.4779504216
 31
0.0
  0
ARC
  5
19E
330
1F
100
AcDbEntity
  8
0
  6
SLD-Solid
 62
     7
370
    25
100
AcDbCircle
 10
127.487009516
 20
175.2757904172
 30
0.0
 40
14.99999999999999
100
AcDbArc
 50
311.6553359377
 51
29.6960324835
  0
LINE
  5
19F
330
1F
100
AcDbEntity
  8
0
  6
SLD-Solid
 62
     7
370
    25
100
AcDbLine
 10
137.4567313465
 20
164.0684425319
 30
0.0
 11
100.6744531242
 21
131.3480267899
 31
0.0
  0
ARC
  5
1A0
330
1F
100
AcDbEntity
  8
0
  6
SLD-Solid
 62
     7
370
    25
100
AcDbCircle
 10
97.351212514
 20
135.0838094183
 30
0.0
 40
5.000000000000023
100
AcDbArc
 50
270.0
 51
311.6553359377
  0
LINE
  5
1A1
330
1F
100
AcDbEntity
  8
0
  6
SLD-Solid
 62
     7
370
    25
100
AcDbLine
 10
97.351212514
 20
130.0838094183
 30
0.0
 11
95.9135517751
 21
130.0838094183
 31
0.0
  0
ARC
  5
1A2
330
1F
100
AcDbEntity
  8
0
  6
SLD-Solid
 62
     7
370
    25
100
AcDbCircle
 10
95.9135517751
 20
135.0838094183
 30
0.0
 40
4.999999999999994
100
AcDbArc
 50
150.0
 51
270.0
  0
LINE
  5
1A3
330
1F
100
AcDbEntity
  8
0
  6
SLD-Solid
 62
     7
370
    25
100
AcDbLine
 10
102.212701712
 20
155.9942571536
 30
0.0
 11
91.5834247562
 21
137.5838094183
 31
0.0
  0
ARC
  5
1A4
330
1F
100
AcDbEntity
  8
0
  6
SLD-Solid
 62
     7
370
    25
100
AcDbCircle
 10
67.5716855607
 20
175.9942571536
 30
0.0
 40
39.99999999999999
100
AcDbArc
 50
330.0
 51
20.0
  0
LINE
  5
1A5
330
1F
100
AcDbEntity
  8
0
  6
SLD-Solid
 62
     7
370
    25
100
AcDbLine
 10
73.9435743219
 20
238.7477745536
 30
0.0
 11
73.9435743219
 21
226.4977745536
 31
0.0
  0
LINE
  5
1A6
330
1F
100
AcDbEntity
  8
0
  6
SLD-Solid
 62
     7
370
    25
100
AcDbLine
 10
73.9435743219
 20
238.7477745536
 30
0.0
 11
81.4435743219
 21
238.7477745536
 31
0.0
  0
LINE
  5
1A7
330
1F
100
AcDbEntity
  8
0
  6
SLD-Solid
 62
     7
370
    25
100
AcDbLine
 10
81.4435743219
 20
238.7477745536
 30
0.0
 11
81.4435743219
 21
241.4977745536
 31
0.0
  0
LINE
  5
1A8
330
1F
100
AcDbEntity
  8
0
  6
SLD-Solid
 62
     7
370
    25
100
AcDbLine
 10
81.4435743219
 20
241.4977745536
 30
0.0
 11
73.9435743219
 21
241.4977745536
 31
0.0
  0
LINE
  5
1A9
330
1F
100
AcDbEntity
  8
0
  6
SLD-Solid
 62
     7
370
    25
100
AcDbLine
 10
73.9435743219
 20
273.7477745536
 30
0.0
 11
73.9435743219
 21
241.4977745536
 31
0.0
  0
LINE
  5
1AA
330
1F
100
AcDbEntity
  8
0
  6
SLD-Solid
 62
     7
370
    25
100
AcDbLine
 10
73.9435743219
 20
273.7477745536
 30
0.0
 11
81.4435743219
 21
273.7477745536
 31
0.0
  0
LINE
  5
1AB
330
1F
100
AcDbEntity
  8
0
  6
SLD-Solid
 62
     7
370
    25
100
AcDbLine
 10
97.8495764392
 20
209.7586116626
 30
0.0
 11
105.1593903921
 21
189.6750628867
 31
0.0
  0
ARC
  5
1AC
330
1F
100
AcDbEntity
  8
0
  6
SLD-Solid
 62
     7
370
    25
100
AcDbCircle
 10
73.9435743219
 20
201.0575384716
 30
0.0
 40
25.44023608200534
100
AcDbArc
 50
20.0
 51
90.0
  0
ARC
  5
1AD
330
1F
100
AcDbEntity
  8
0
  6
SLD-Solid
 62
     7
370
    25
100
AcDbCircle
 10
80.5412467994
 20
277.7794873177
 30
0.0
 40
5.000000000000018
100
AcDbArc
 50
29.6960324835
 51
110.0
  0
LINE
  5
1AE
330
1F
100
AcDbEntity
  8
0
  6
SLD-Solid
 62
     7
370
    25
100
AcDbLine
 10
84.8845759044
 20
280.2564799067
 30
0.0
 11
140.5169968309
 21
182.706768184
 31
0.0
  0
LINE
  5
1AF
330
1F
100
AcDbEntity
  8
0
  6
SLD-Solid
 62
     7
370
    25
100
AcDbLine
 10
337.5538190057
 20
236.0348064136
 30
0.0
 11
345.0315705352
 21
236.0348064136
 31
0.0
  0
LINE
  5
1B0
330
1F
100
AcDbEntity
  8
0
  6
SLD-Solid
 62
     7
370
    25
100
AcDbLine
 10
354.3105613695
 20
258.436271931
 30
0.0
 11
349.022992555
 21
263.7238407455
 31
0.0
  0
LINE
  5
1B1
330
1F
100
AcDbEntity
  8
0
  6
SLD-Solid
 62
     7
370
    25
100
AcDbLine
 10
356.2551050178
 20
260.3808155793
 30
0.0
 11
354.3105613695
 21
258.436271931
 31
0.0
  0
LINE
  5
1B2
330
1F
100
AcDbEntity
  8
0
  6
SLD-Solid
 62
     7
370
    25
100
AcDbLine
 10
350.9675362033
 20
265.6683843938
 30
0.0
 11
356.2551050178
 21
260.3808155793
 31
0.0
  0
LINE
  5
1B3
330
1F
100
AcDbEntity
  8
0
  6
SLD-Solid
 62
     7
370
    25
100
AcDbLine
 10
378.6565705352
 20
269.6598064136
 30
0.0
 11
378.6565705352
 21
277.1375579431
 31
0.0
  0
LINE
  5
1B4
330
1F
100
AcDbEntity
  8
0
  6
SLD-Solid
 62
     7
370
    25
100
AcDbLine
 10
381.4065705352
 20
269.6598064136
 30
0.0
 11
378.6565705352
 21
269.6598064136
 31
0.0
  0
LINE
  5
1B5
330
1F
100
AcDbEntity
  8
0
  6
SLD-Solid
 62
     7
370
    25
100
AcDbLine
 10
381.4065705352
 20
277.1375579431
 30
0.0
 11
381.4065705352
 21
269.6598064136
 31
0.0
  0
LINE
  5
1B6
330
1F
100
AcDbEntity
  8
0
  6
SLD-Solid
 62
     7
370
    25
100
AcDbLine
 10
403.8080360526
 20
260.3808155793
 30
0.0
 11
409.0956048671
 21
265.6683843938
 31
0.0
  0
LINE
  5
1B7
330
1F
100
AcDbEntity
  8
0
  6
SLD-Solid
 62
     7
370
    25
100
AcDbLine
 10
405.7525797008
 20
258.436271931
 30
0.0
 11
403.8080360526
 21
260.3808155793
 31
0.0
  0
LINE
  5
1B8
330
1F
100
AcDbEntity
  8
0
  6
SLD-Solid
 62
     7
370
    25
100
AcDbLine
 10
411.0401485154
 20
263.7238407455
 30
0.0
 11
405.7525797008
 21
258.436271931
 31
0.0
  0
LINE
  5
1B9
330
1F
100
AcDbEntity
  8
0
  6
SLD-Solid
 62
     7
370
    25
100
AcDbLine
 10
415.0315705352
 20
236.0348064136
 30
0.0
 11
422.5093220647
 21
236.0348064136
 31
0.0
  0
LINE
  5
1BA
330
1F
100
AcDbEntity
  8
0
  6
SLD-Solid
 62
     7
370
    25
100
AcDbLine
 10
415.0315705352
 20
233.2848064136
 30
0.0
 11
415.0315705352
 21
236.0348064136
 31
0.0
  0
LINE
  5
1BB
330
1F
100
AcDbEntity
  8
0
  6
SLD-Solid
 62
     7
370
    25
100
AcDbLine
 10
422.5093220647
 20
233.2848064136
 30
0.0
 11
415.0315705352
 21
233.2848064136
 31
0.0
  0
LINE
  5
1BC
330
1F
100
AcDbEntity
  8
0
  6
SLD-Solid
 62
     7
370
    25
100
AcDbLine
 10
405.7525797008
 20
210.8833408962
 30
0.0
 11
411.0401485154
 21
205.5957720817
 31
0.0
  0
LINE
  5
1BD
330
1F
100
AcDbEntity
  8
0
  6
SLD-Solid
 62
     7
370
    25
100
AcDbLine
 10
403.8080360526
 20
208.938797248
 30
0.0
 11
405.7525797008
 21
210.8833408962
 31
0.0
  0
LINE
  5
1BE
330
1F
100
AcDbEntity
  8
0
  6
SLD-Solid
 62
     7
370
    25
100
AcDbLine
 10
409.0956048671
 20
203.6512284334
 30
0.0
 11
403.8080360526
 21
208.938797248
 31
0.0
  0
LINE
  5
1BF
330
1F
100
AcDbEntity
  8
0
  6
SLD-Solid
 62
     7
370
    25
100
AcDbLine
 10
381.4065705352
 20
199.6598064136
 30
0.0
 11
381.4065705352
 21
192.1820548842
 31
0.0
  0
LINE
  5
1C0
330
1F
100
AcDbEntity
  8
0
  6
SLD-Solid
 62
     7
370
    25
100
AcDbLine
 10
378.6565705352
 20
199.6598064136
 30
0.0
 11
381.4065705352
 21
199.6598064136
 31
0.0
  0
LINE
  5
1C1
330
1F
100
AcDbEntity
  8
0
  6
SLD-Solid
 62
     7
370
    25
100
AcDbLine
 10
378.6565705352
 20
192.1820548842
 30
0.0
 11
378.6565705352
 21
199.6598064136
 31
0.0
  0
LINE
  5
1C2
330
1F
100
AcDbEntity
  8
0
  6
SLD-Solid
 62
     7
370
    25
100
AcDbLine
 10
356.2551050178
 20
208.938797248
 30
0.0
 11
350.9675362033
 21
203.6512284334
 31
0.0
  0
LINE
  5
1C3
330
1F
100
AcDbEntity
  8
0
  6
SLD-Solid
 62
     7
370
    25
100
AcDbLine
 10
354.3105613695
 20
210.8833408962
 30
0.0
 11
356.2551050178
 21
208.938797248
 31
0.0
  0
LINE
  5
1C4
330
1F
100
AcDbEntity
  8
0
  6
SLD-Solid
 62
     7
370
    25
100
AcDbLine
 10
349.022992555
 20
205.5957720817
 30
0.0
 11
354.3105613695
 21
210.8833408962
 31
0.0
  0
LINE
  5
1C5
330
1F
100
AcDbEntity
  8
0
  6
SLD-Solid
 62
     7
370
    25
100
AcDbLine
 10
345.0315705352
 20
236.0348064136
 30
0.0
 11
345.0315705352
 21
233.2848064136
 31
0.0
  0
CIRCLE
  5
1C6
330
1F
100
AcDbEntity
  8
0
  6
SLD-Solid
 62
     7
370
    25
100
AcDbCircle
 10
380.0315705352
 20
234.6598064136
 30
0.0
 40
14.0
  0
CIRCLE
  5
1C7
330
1F
100
AcDbEntity
  8
0
  6
SLD-Solid
 62
     7
370
    25
100
AcDbCircle
 10
400.0315705352
 20
242.9440776611
 30
0.0
 40
1.500000000000796
  0
CIRCLE
  5
1C8
330
1F
100
AcDbEntity
  8
0
  6
SLD-Solid
 62
     7
370
    25
100
AcDbCircle
 10
400.0315705352
 20
226.3755351662
 30
0.0
 40
1.500000000000767
  0
CIRCLE
  5
1C9
330
1F
100
AcDbEntity
  8
0
  6
SLD-Solid
 62
     7
370
    25
100
AcDbCircle
 10
388.3158417826
 20
214.6598064136
 30
0.0
 40
1.500000000000767
  0
CIRCLE
  5
1CA
330
1F
100
AcDbEntity
  8
0
  6
SLD-Solid
 62
     7
370
    25
100
AcDbCircle
 10
371.7472992877
 20
214.6598064136
 30
0.0
 40
1.500000000000739
  0
CIRCLE
  5
1CB
330
1F
100
AcDbEntity
  8
0
  6
SLD-Solid
 62
     7
370
    25
100
AcDbCircle
 10
360.0315705352
 20
226.3755351662
 30
0.0
 40
1.500000000000739
  0
CIRCLE
  5
1CC
330
1F
100
AcDbEntity
  8
0
  6
SLD-Solid
 62
     7
370
    25
100
AcDbCircle
 10
388.3158417826
 20
254.6598064136
 30
0.0
 40
1.500000000000796
  0
CIRCLE
  5
1CD
330
1F
100
AcDbEntity
  8
0
  6
SLD-Solid
 62
     7
370
    25
100
AcDbCircle
 10
371.7472992877
 20
254.6598064136
 30
0.0
 40
1.500000000000796
  0
CIRCLE
  5
1CE
330
1F
100
AcDbEntity
  8
0
  6
SLD-Solid
 62
     7
370
    25
100
AcDbCircle
 10
360.0315705352
 20
242.9440776611
 30
0.0
 40
1.500000000000796
  0
LINE
  5
1CF
330
1F
100
AcDbEntity
  8
0
  6
SLD-Solid
 62
     7
370
    25
100
AcDbLine
 10
345.0315705352
 20
233.2848064136
 30
0.0
 11
337.5538190057
 21
233.2848064136
 31
0.0
  0
ARC
  5
1D0
330
1F
100
AcDbEntity
  8
0
  6
SLD-Solid
 62
     7
370
    25
100
AcDbCircle
 10
380.0315705352
 20
234.6598064136
 30
0.0
 40
42.50000000000005
100
AcDbArc
 50
271.8540105163
 51
313.1459894837
  0
ARC
  5
1D1
330
1F
100
AcDbEntity
  8
0
  6
SLD-Solid
 62
     7
370
    25
100
AcDbCircle
 10
380.0315705352
 20
234.6598064136
 30
0.0
 40
42.50000000000006
100
AcDbArc
 50
226.8540105163
 51
268.1459894837
  0
ARC
  5
1D2
330
1F
100
AcDbEntity
  8
0
  6
SLD-Solid
 62
     7
370
    25
100
AcDbCircle
 10
380.0315705352
 20
234.6598064136
 30
0.0
 40
42.50000000000004
100
AcDbArc
 50
316.8540105163
 51
358.1459894837
  0
ARC
  5
1D3
330
1F
100
AcDbEntity
  8
0
  6
SLD-Solid
 62
     7
370
    25
100
AcDbCircle
 10
380.0315705352
 20
234.6598064136
 30
0.0
 40
42.50000000000003
100
AcDbArc
 50
1.8540105163
 51
43.1459894837
  0
ARC
  5
1D4
330
1F
100
AcDbEntity
  8
0
  6
SLD-Solid
 62
     7
370
    25
100
AcDbCircle
 10
380.0315705352
 20
234.6598064136
 30
0.0
 40
42.50000000000002
100
AcDbArc
 50
46.8540105163
 51
88.1459894837
  0
ARC
  5
1D5
330
1F
100
AcDbEntity
  8
0
  6
SLD-Solid
 62
     7
370
    25
100
AcDbCircle
 10
380.0315705352
 20
234.6598064136
 30
0.0
 40
42.50000000000002
100
AcDbArc
 50
91.8540105163
 51
133.1459894837
  0
ARC
  5
1D6
330
1F
100
AcDbEntity
  8
0
  6
SLD-Solid
 62
     7
370
    25
100
AcDbCircle
 10
380.0315705352
 20
234.6598064136
 30
0.0
 40
42.50000000000002
100
AcDbArc
 50
136.8540105163
 51
178.1459894837
  0
ARC
  5
1D7
330
1F
100
AcDbEntity
  8
0
  6
SLD-Solid
 62
     7
370
    25
100
AcDbCircle
 10
380.0315705352
 20
234.6598064136
 30
0.0
 40
42.50000000000004
100
AcDbArc
 50
181.8540105163
 51
223.1459894837
  0
ENDSEC
  0
SECTION
  2
OBJECTS
  0
DICTIONARY
  5
C
330
0
100
AcDbDictionary
281
     1
  3
ACAD_DETAILVIEWSTYLE
350
1DF
  3
ACAD_GROUP
350
D
  3
ACAD_LAYOUT
350
1A
  3
ACAD_MATERIAL
350
43
  3
ACAD_MLEADERSTYLE
350
6B
  3
ACAD_MLINESTYLE
350
17
  3
ACAD_PLOTSETTINGS
350
19
  3
ACAD_PLOTSTYLENAME
350
E
  3
ACAD_SCALELIST
350
47
  3
ACAD_SECTIONVIEWSTYLE
350
1E0
  3
ACAD_TABLESTYLE
350
69
  3
ACAD_VISUALSTYLE
350
2A
  3
ACDB_RECOMPOSE_DATA
350
1DC
  3
AcDbVariableDictionary
350
1D8
  0
SUN
  5
6D
330
29
100
AcDbSun
 90
        1
290
     0
 63
     7
421
 16777215
 40
1.0
291
     1
 91
  2455826
 92
 54000000
292
     0
 70
     2
 71
   256
280
     1
  0
DICTIONARY
  5
1DF
102
{ACAD_REACTORS
330
C
102
}
330
C
100
AcDbDictionary
281
     1
  0
DICTIONARY
  5
D
102
{ACAD_REACTORS
330
C
102
}
330
C
100
AcDbDictionary
281
     1
  0
DICTIONARY
  5
1A
102
{ACAD_REACTORS
330
C
102
}
330
C
100
AcDbDictionary
281
     1
  3
Layout1
350
1E
  3
Layout2
350
26
  3
Model
350
22
  0
DICTIONARY
  5
43
102
{ACAD_REACTORS
330
C
102
}
330
C
100
AcDbDictionary
281
     1
  3
ByBlock
350
45
  3
ByLayer
350
44
  3
Global
350
46
  0
DICTIONARY
  5
6B
102
{ACAD_REACTORS
330
C
102
}
330
C
100
AcDbDictionary
281
     1
  3
Standard
350
6C
  0
DICTIONARY
  5
17
102
{ACAD_REACTORS
330
C
102
}
330
C
100
AcDbDictionary
281
     1
  3
Standard
350
18
  0
DICTIONARY
  5
19
102
{ACAD_REACTORS
330
C
102
}
330
C
100
AcDbDictionary
281
     1
  0
ACDBDICTIONARYWDFLT
  5
E
102
{ACAD_REACTORS
330
C
102
}
330
C
100
AcDbDictionary
281
     1
  3
Normal
350
F
100
AcDbDictionaryWithDefault
340
F
  0
DICTIONARY
  5
47
102
{ACAD_REACTORS
330
C
102
}
330
C
100
AcDbDictionary
281
     1
  3
A0
350
48
  3
A1
350
49
  3
A2
350
4A
  3
A3
350
4B
  3
A4
350
4C
  3
A5
350
4D
  3
A6
350
4E
  3
A7
350
4F
  3
A8
350
50
  3
A9
350
51
  3
B0
350
52
  3
B1
350
53
  3
B2
350
54
  3
B3
350
55
  3
B4
350
56
  3
B5
350
57
  3
B6
350
58
  3
B7
350
59
  3
B8
350
5A
  3
B9
350
5B
  3
C0
350
5C
  3
C1
350
5D
  3
C2
350
5E
  3
C3
350
5F
  3
C4
350
60
  3
C5
350
61
  3
C6
350
62
  3
C7
350
63
  3
C8
350
64
  3
C9
350
65
  3
D0
350
66
  3
D1
350
67
  3
D2
350
68
  0
DICTIONARY
  5
1E0
102
{ACAD_REACTORS
330
C
102
}
330
C
100
AcDbDictionary
281
     1
  0
DICTIONARY
  5
69
102
{ACAD_REACTORS
330
C
102
}
330
C
100
AcDbDictionary
281
     1
  3
Standard
350
6A
  0
DICTIONARY
  5
2A
102
{ACAD_REACTORS
330
C
102
}
330
C
100
AcDbDictionary
281
     1
  3
2dWireframe
350
2F
  3
Basic
350
32
  3
Brighten
350
36
  3
ColorChange
350
3A
  3
Conceptual
350
34
  3
Dim
350
35
  3
EdgeColorOff
350
3D
  3
Facepattern
350
39
  3
Flat
350
2B
  3
FlatWithEdges
350
2C
  3
Gouraud
350
2D
  3
GouraudWithEdges
350
2E
  3
Hidden
350
31
  3
JitterOff
350
3B
  3
Linepattern
350
38
  3
OverhangOff
350
3C
  3
Realistic
350
33
  3
Shaded
350
42
  3
Shaded with edges
350
41
  3
Shades of Gray
350
3E
  3
Sketchy
350
3F
  3
Thicken
350
37
  3
Wireframe
350
30
  3
X-Ray
350
40
  0
XRECORD
  5
1DC
102
{ACAD_REACTORS
330
C
102
}
330
C
100
AcDbXrecord
280
     1
 90
        1
330
6A
  0
DICTIONARY
  5
1D8
102
{ACAD_REACTORS
330
C
102
}
330
C
100
AcDbDictionary
281
     1
  3
CANNOSCALE
350
1D9
  3
CMLEADERSTYLE
350
1DE
  3
CTABLESTYLE
350
1DD
  3
SECTIONTHICKNESSINC
350
1E1
  0
LAYOUT
  5
1E
102
{ACAD_REACTORS
330
1A
102
}
330
1A
100
AcDbPlotSettings
  1

  2
none_device
  4

  6

 40
0.0
 41
0.0
 42
0.0
 43
0.0
 44
0.0
 45
0.0
 46
0.0
 47
0.0
 48
0.0
 49
0.0
140
0.0
141
0.0
142
1.0
143
1.0
 70
   688
 72
     1
 73
     0
 74
     5
  7

 75
    16
 76
     0
 77
     2
 78
   300
147
1.0
148
0.0
149
0.0
100
AcDbLayout
  1
Layout1
 70
     1
 71
     1
 10
0.0
 20
0.0
 11
420.0
 21
297.0
 12
0.0
 22
0.0
 32
0.0
 14
1.0000000000E+20
 24
1.0000000000E+20
 34
1.0000000000E+20
 15
-1.0000000000E+20
 25
-1.0000000000E+20
 35
-1.0000000000E+20
146
0.0
 13
0.0
 23
0.0
 33
0.0
 16
1.0
 26
0.0
 36
0.0
 17
0.0
 27
1.0
 37
0.0
 76
     0
330
1B
  0
LAYOUT
  5
26
102
{ACAD_REACTORS
330
1A
102
}
330
1A
100
AcDbPlotSettings
  1

  2
none_device
  4

  6

 40
0.0
 41
0.0
 42
0.0
 43
0.0
 44
0.0
 45
0.0
 46
0.0
 47
0.0
 48
0.0
 49
0.0
140
0.0
141
0.0
142
1.0
143
1.0
 70
   688
 72
     1
 73
     0
 74
     5
  7

 75
    16
 76
     0
 77
     2
 78
   300
147
1.0
148
0.0
149
0.0
100
AcDbLayout
  1
Layout2
 70
     1
 71
     2
 10
0.0
 20
0.0
 11
0.0
 21
0.0
 12
0.0
 22
0.0
 32
0.0
 14
0.0
 24
0.0
 34
0.0
 15
0.0
 25
0.0
 35
0.0
146
0.0
 13
0.0
 23
0.0
 33
0.0
 16
1.0
 26
0.0
 36
0.0
 17
0.0
 27
1.0
 37
0.0
 76
     0
330
23
  0
LAYOUT
  5
22
102
{ACAD_REACTORS
330
1A
102
}
330
1A
100
AcDbPlotSettings
  1

  2
none_device
  4
Letter_(8.50_x_11.00_Inches)
  6

 40
6.35
 41
6.35
 42
6.35000508
 43
6.35000508
 44
215.9
 45
279.4
 46
0.0
 47
0.0
 48
0.0
 49
0.0
140
0.0
141
0.0
142
1.0
143
1.0
 70
  1712
 72
     1
 73
     0
 74
     0
  7

 75
     0
 76
     0
 77
     2
 78
   300
147
1.0
148
0.0
149
0.0
100
AcDbLayout
  1
Model
 70
     1
 71
     0
 10
0.0
 20
0.0
 11
594.5
 21
420.5
 12
0.0
 22
0.0
 32
0.0
 14
0.0
 24
0.0
 34
0.0
 15
594.5
 25
420.5
 35
0.0
146
0.0
 13
0.0
 23
0.0
 33
0.0
 16
1.0
 26
0.0
 36
0.0
 17
0.0
 27
1.0
 37
0.0
 76
     0
330
1F
331
29
  0
MATERIAL
  5
45
102
{ACAD_REACTORS
330
43
102
}
330
43
100
AcDbMaterial
  1
ByBlock
 72
     1
 94
      127
  0
MATERIAL
  5
44
102
{ACAD_REACTORS
330
43
102
}
330
43
100
AcDbMaterial
  1
ByLayer
 72
     1
 94
      127
  0
MATERIAL
  5
46
102
{ACAD_REACTORS
330
43
102
}
330
43
100
AcDbMaterial
  1
Global
 72
     1
 94
      127
  0
MLEADERSTYLE
  5
6C
102
{ACAD_REACTORS
330
6B
102
}
330
6B
100
AcDbMLeaderStyle
179
     2
170
     2
171
     1
172
     0
 90
        2
 40
0.0
 41
0.0
173
     1
 91
-1056964608
340
14
 92
       -2
290
     1
 42
2.0
291
     1
 43
8.0
  3
Standard
341
0
 44
4.0
300

342
11
174
     1
178
     6
175
     1
176
     0
 93
-1056964608
 45
4.0
292
     0
297
     0
 46
4.0
343
0
 94
-1056964608
 47
1.0
 49
1.0
140
1.0
293
     1
141
0.0
294
     1
177
     0
142
1.0
295
     0
296
     0
143
3.75
271
     0
272
     9
273
     9
298
     0
  0
MLINESTYLE
  5
18
102
{ACAD_REACTORS
330
17
102
}
330
17
100
AcDbMlineStyle
  2
Standard
 70
     0
  3

 62
   256
 51
90.0
 52
90.0
 71
     2
 49
0.5
 62
   256
  6
BYLAYER
 49
-0.5
 62
   256
  6
BYLAYER
  0
ACDBPLACEHOLDER
  5
F
102
{ACAD_REACTORS
330
E
102
}
330
E
  0
SCALE
  5
48
102
{ACAD_REACTORS
330
47
102
}
330
47
100
AcDbScale
 70
     0
300
1:1
140
1.0
141
1.0
290
     1
  0
SCALE
  5
49
102
{ACAD_REACTORS
330
47
102
}
330
47
100
AcDbScale
 70
     0
300
1:2
140
1.0
141
2.0
290
     0
  0
SCALE
  5
4A
102
{ACAD_REACTORS
330
47
102
}
330
47
100
AcDbScale
 70
     0
300
1:4
140
1.0
141
4.0
290
     0
  0
SCALE
  5
4B
102
{ACAD_REACTORS
330
47
102
}
330
47
100
AcDbScale
 70
     0
300
1:5
140
1.0
141
5.0
290
     0
  0
SCALE
  5
4C
102
{ACAD_REACTORS
330
47
102
}
330
47
100
AcDbScale
 70
     0
300
1:8
140
1.0
141
8.0
290
     0
  0
SCALE
  5
4D
102
{ACAD_REACTORS
330
47
102
}
330
47
100
AcDbScale
 70
     0
300
1:10
140
1.0
141
10.0
290
     0
  0
SCALE
  5
4E
102
{ACAD_REACTORS
330
47
102
}
330
47
100
AcDbScale
 70
     0
300
1:16
140
1.0
141
16.0
290
     0
  0
SCALE
  5
4F
102
{ACAD_REACTORS
330
47
102
}
330
47
100
AcDbScale
 70
     0
300
1:20
140
1.0
141
20.0
290
     0
  0
SCALE
  5
50
102
{ACAD_REACTORS
330
47
102
}
330
47
100
AcDbScale
 70
     0
300
1:30
140
1.0
141
30.0
290
     0
  0
SCALE
  5
51
102
{ACAD_REACTORS
330
47
102
}
330
47
100
AcDbScale
 70
     0
300
1:40
140
1.0
141
40.0
290
     0
  0
SCALE
  5
52
102
{ACAD_REACTORS
330
47
102
}
330
47
100
AcDbScale
 70
     0
300
1:50
140
1.0
141
50.0
290
     0
  0
SCALE
  5
53
102
{ACAD_REACTORS
330
47
102
}
330
47
100
AcDbScale
 70
     0
300
1:100
140
1.0
141
100.0
290
     0
  0
SCALE
  5
54
102
{ACAD_REACTORS
330
47
102
}
330
47
100
AcDbScale
 70
     0
300
2:1
140
2.0
141
1.0
290
     0
  0
SCALE
  5
55
102
{ACAD_REACTORS
330
47
102
}
330
47
100
AcDbScale
 70
     0
300
4:1
140
4.0
141
1.0
290
     0
  0
SCALE
  5
56
102
{ACAD_REACTORS
330
47
102
}
330
47
100
AcDbScale
 70
     0
300
8:1
140
8.0
141
1.0
290
     0
  0
SCALE
  5
57
102
{ACAD_REACTORS
330
47
102
}
330
47
100
AcDbScale
 70
     0
300
10:1
140
10.0
141
1.0
290
     0
  0
SCALE
  5
58
102
{ACAD_REACTORS
330
47
102
}
330
47
100
AcDbScale
 70
     0
300
100:1
140
100.0
141
1.0
290
     0
  0
SCALE
  5
59
102
{ACAD_REACTORS
330
47
102
}
330
47
100
AcDbScale
 70
     0
300
1/128" = 1'-0"
140
0.0078125
141
12.0
290
     0
  0
SCALE
  5
5A
102
{ACAD_REACTORS
330
47
102
}
330
47
100
AcDbScale
 70
     0
300
1/64" = 1'-0"
140
0.015625
141
12.0
290
     0
  0
SCALE
  5
5B
102
{ACAD_REACTORS
330
47
102
}
330
47
100
AcDbScale
 70
     0
300
1/32" = 1'-0"
140
0.03125
141
12.0
290
     0
  0
SCALE
  5
5C
102
{ACAD_REACTORS
330
47
102
}
330
47
100
AcDbScale
 70
     0
300
1/16" = 1'-0"
140
0.0625
141
12.0
290
     0
  0
SCALE
  5
5D
102
{ACAD_REACTORS
330
47
102
}
330
47
100
AcDbScale
 70
     0
300
3/32" = 1'-0"
140
0.09375
141
12.0
290
     0
  0
SCALE
  5
5E
102
{ACAD_REACTORS
330
47
102
}
330
47
100
AcDbScale
 70
     0
300
1/8" = 1'-0"
140
0.125
141
12.0
290
     0
  0
SCALE
  5
5F
102
{ACAD_REACTORS
330
47
102
}
330
47
100
AcDbScale
 70
     0
300
3/16" = 1'-0"
140
0.1875
141
12.0
290
     0
  0
SCALE
  5
60
102
{ACAD_REACTORS
330
47
102
}
330
47
100
AcDbScale
 70
     0
300
1/4" = 1'-0"
140
0.25
141
12.0
290
     0
  0
SCALE
  5
61
102
{ACAD_REACTORS
330
47
102
}
330
47
100
AcDbScale
 70
     0
300
3/8" = 1'-0"
140
0.375
141
12.0
290
     0
  0
SCALE
  5
62
102
{ACAD_REACTORS
330
47
102
}
330
47
100
AcDbScale
 70
     0
300
1/2" = 1'-0"
140
0.5
141
12.0
290
     0
  0
SCALE
  5
63
102
{ACAD_REACTORS
330
47
102
}
330
47
100
AcDbScale
 70
     0
300
3/4" = 1'-0"
140
0.75
141
12.0
290
     0
  0
SCALE
  5
64
102
{ACAD_REACTORS
330
47
102
}
330
47
100
AcDbScale
 70
     0
300
1" = 1'-0"
140
1.0
141
12.0
290
     0
  0
SCALE
  5
65
102
{ACAD_REACTORS
330
47
102
}
330
47
100
AcDbScale
 70
     0
300
1-1/2" = 1'-0"
140
1.5
141
12.0
290
     0
  0
SCALE
  5
66
102
{ACAD_REACTORS
330
47
102
}
330
47
100
AcDbScale
 70
     0
300
3" = 1'-0"
140
3.0
141
12.0
290
     0
  0
SCALE
  5
67
102
{ACAD_REACTORS
330
47
102
}
330
47
100
AcDbScale
 70
     0
300
6" = 1'-0"
140
6.0
141
12.0
290
     0
  0
SCALE
  5
68
102
{ACAD_REACTORS
330
47
102
}
330
47
100
AcDbScale
 70
     0
300
1'-0" = 1'-0"
140
12.0
141
12.0
290
     0
  0
TABLESTYLE
  5
6A
102
{ACAD_REACTORS
330
69
102
}
102
{ACAD_XDICTIONARY
360
1DA
102
}
330
69
100
AcDbTableStyle
  3
Standard
 70
     0
 71
     0
 40
0.06
 41
0.06
280
     0
281
     0
  7
Standard
140
4.5
170
     2
 62
     0
 63
   257
283
     0
 90
        4
 91
        0
  1

274
    -2
284
     1
 64
     0
275
    -2
285
     1
 65
     0
276
    -2
286
     1
 66
     0
277
    -2
287
     1
 67
     0
278
    -2
288
     1
 68
     0
279
    -2
289
     1
 69
     0
  7
Standard
140
6.0
170
     5
 62
     0
 63
   257
283
     0
 90
        4
 91
        0
  1

274
    -2
284
     1
 64
     0
275
    -2
285
     1
 65
     0
276
    -2
286
     1
 66
     0
277
    -2
287
     1
 67
     0
278
    -2
288
     1
 68
     0
279
    -2
289
     1
 69
     0
  7
Standard
140
4.5
170
     5
 62
     0
 63
   257
283
     0
 90
        4
 91
        0
  1

274
    -2
284
     1
 64
     0
275
    -2
285
     1
 65
     0
276
    -2
286
     1
 66
     0
277
    -2
287
     1
 67
     0
278
    -2
288
     1
 68
     0
279
    -2
289
     1
 69
     0
  0
VISUALSTYLE
  5
2F
102
{ACAD_REACTORS
330
2A
102
}
330
2A
100
AcDbVisualStyle
  2
2dWireframe
 70
     4
177
     3
291
     0
 70
    58
 90
        0
176
     1
 90
        2
176
     1
 90
        0
176
     1
 90
        0
176
     1
 40
0.6
176
     1
 40
30.0
176
     1
 62
     7
420
 16777215
176
     1
 90
        1
176
     1
 90
        4
176
     1
 62
     7
176
     1
 62
   257
176
     1
 90
        1
176
     1
 90
        1
176
     1
 40
1.0
176
     1
 90
        0
176
     1
 62
   257
176
     1
 40
1.0
176
     1
 90
        1
176
     1
 90
        6
176
     1
 90
        2
176
     1
 62
     7
176
     1
 90
        5
176
     1
 90
        0
176
     1
 90
        0
176
     1
290
     0
176
     1
 90
        1
176
     1
 40
0.0
176
     1
 90
        0
176
     1
290
     1
176
     1
290
     1
176
     1
290
     0
176
     1
290
     0
176
     1
290
     0
176
     1
290
     0
176
     1
290
     0
176
     1
290
     0
176
     1
290
     0
176
     1
 90
       50
176
     1
 40
0.0
176
     1
 40
1.0
176
     1
 90
        0
176
     1
 62
    18
420
        0
176
     1
 90
       50
176
     1
 90
        3
176
     1
 62
     5
420
      255
176
     1
290
     0
176
     1
 90
       50
176
     1
 90
       50
176
     1
 90
       50
176
     1
290
     0
176
     1
 90
       50
176
     1
 62
   256
176
     0
 40
1.0
176
     0
 90
        2
176
     1
  1
strokes_ogs.tif
176
     1
290
     0
176
     1
 40
1.0
176
     1
 40
1.0
176
     1
  0
VISUALSTYLE
  5
32
102
{ACAD_REACTORS
330
2A
102
}
330
2A
100
AcDbVisualStyle
  2
Basic
 70
     7
177
     3
291
     1
 70
    58
 90
        1
176
     1
 90
        0
176
     1
 90
        1
176
     1
 90
        0
176
     1
 40
0.6
176
     1
 40
30.0
176
     1
 62
     7
420
 16777215
176
     1
 90
        0
176
     1
 90
        4
176
     1
 62
     7
176
     1
 62
   257
176
     1
 90
        1
176
     1
 90
        1
176
     1
 40
1.0
176
     1
 90
        8
176
     1
 62
     7
176
     1
 40
1.0
176
     1
 90
        1
176
     1
 90
        6
176
     1
 90
        2
176
     1
 62
     7
176
     1
 90
        5
176
     1
 90
        0
176
     1
 90
        0
176
     1
290
     0
176
     1
 90
        1
176
     1
 40
0.0
176
     1
 90
        0
176
     1
290
     0
176
     1
290
     1
176
     1
290
     1
176
     1
290
     0
176
     1
290
     0
176
     1
290
     0
176
     1
290
     0
176
     1
290
     0
176
     1
290
     0
176
     1
 90
       50
176
     1
 40
0.0
176
     1
 40
1.0
176
     1
 90
        0
176
     1
 62
    18
420
        0
176
     1
 90
       50
176
     1
 90
        3
176
     1
 62
     5
420
      255
176
     1
290
     0
176
     1
 90
       50
176
     1
 90
       50
176
     1
 90
       50
176
     1
290
     0
176
     1
 90
       50
176
     1
 62
   256
176
     0
 40
1.0
176
     0
 90
        2
176
     1
  1
strokes_ogs.tif
176
     1
290
     0
176
     1
 40
1.0
176
     1
 40
1.0
176
     1
  0
VISUALSTYLE
  5
36
102
{ACAD_REACTORS
330
2A
102
}
330
2A
100
AcDbVisualStyle
  2
Brighten
 70
    12
177
     3
291
     1
 70
    58
 90
        2
176
     1
 90
        2
176
     1
 90
        0
176
     1
 90
        0
176
     1
 40
0.6
176
     1
 40
30.0
176
     1
 62
     7
420
 16777215
176
     1
 90
        1
176
     1
 90
        4
176
     1
 62
     7
176
     1
 62
   257
176
     1
 90
        1
176
     1
 90
        1
176
     1
 40
1.0
176
     1
 90
        8
176
     1
 62
     7
176
     1
 40
1.0
176
     1
 90
        1
176
     1
 90
        6
176
     1
 90
        2
176
     1
 62
     7
176
     1
 90
        5
176
     1
 90
        0
176
     1
 90
        0
176
     1
290
     0
176
     1
 90
        1
176
     1
 40
50.0
176
     1
 90
        0
176
     1
290
     0
176
     1
290
     1
176
     1
290
     1
176
     1
290
     0
176
     1
290
     0
176
     1
290
     0
176
     1
290
     0
176
     1
290
     0
176
     1
290
     0
176
     1
 90
       50
176
     1
 40
0.0
176
     1
 40
1.0
176
     1
 90
        0
176
     1
 62
    18
420
        0
176
     1
 90
       50
176
     1
 90
        3
176
     1
 62
     5
420
      255
176
     1
290
     0
176
     1
 90
       50
176
     1
 90
       50
176
     1
 90
       50
176
     1
290
     0
176
     1
 90
       50
176
     1
 62
   256
176
     0
 40
1.0
176
     0
 90
        2
176
     1
  1
strokes_ogs.tif
176
     1
290
     0
176
     1
 40
1.0
176
     1
 40
1.0
176
     1
  0
VISUALSTYLE
  5
3A
102
{ACAD_REACTORS
330
2A
102
}
330
2A
100
AcDbVisualStyle
  2
ColorChange
 70
    16
177
     3
291
     1
 70
    58
 90
        2
176
     1
 90
        2
176
     1
 90
        3
176
     1
 90
        0
176
     1
 40
0.6
176
     1
 40
30.0
176
     1
 62
     8
420
  8421504
176
     1
 90
        1
176
     1
 90
        4
176
     1
 62
     7
176
     1
 62
   257
176
     1
 90
        1
176
     1
 90
        1
176
     1
 40
1.0
176
     1
 90
        8
176
     1
 62
     8
420
  8421504
176
     1
 40
1.0
176
     1
 90
        1
176
     1
 90
        6
176
     1
 90
        2
176
     1
 62
     7
176
     1
 90
        5
176
     1
 90
        0
176
     1
 90
        0
176
     1
290
     0
176
     1
 90
        1
176
     1
 40
0.0
176
     1
 90
        0
176
     1
290
     0
176
     1
290
     1
176
     1
290
     1
176
     1
290
     0
176
     1
290
     0
176
     1
290
     0
176
     1
290
     0
176
     1
290
     0
176
     1
290
     0
176
     1
 90
       50
176
     1
 40
0.0
176
     1
 40
1.0
176
     1
 90
        0
176
     1
 62
    18
420
        0
176
     1
 90
       50
176
     1
 90
        3
176
     1
 62
     5
420
      255
176
     1
290
     0
176
     1
 90
       50
176
     1
 90
       50
176
     1
 90
       50
176
     1
290
     0
176
     1
 90
       50
176
     1
 62
   256
176
     0
 40
1.0
176
     0
 90
        2
176
     1
  1
strokes_ogs.tif
176
     1
290
     0
176
     1
 40
1.0
176
     1
 40
1.0
176
     1
  0
VISUALSTYLE
  5
34
102
{ACAD_REACTORS
330
2A
102
}
330
2A
100
AcDbVisualStyle
  2
Conceptual
 70
     9
177
     3
291
     0
 70
    58
 90
        3
176
     1
 90
        2
176
     1
 90
        0
176
     1
 90
        0
176
     1
 40
0.6
176
     1
 40
30.0
176
     1
 62
     7
420
 16777215
176
     1
 90
        2
176
     1
 90
        2
176
     1
 62
     7
176
     1
 62
   257
176
     1
 90
        1
176
     1
 90
        1
176
     1
 40
179.0
176
     1
 90
        8
176
     1
 62
     7
176
     1
 40
1.0
176
     1
 90
        1
176
     1
 90
        6
176
     1
 90
        2
176
     1
 62
     7
176
     1
 90
        3
176
     1
 90
        0
176
     1
 90
        0
176
     1
290
     0
176
     1
 90
        1
176
     1
 40
0.0
176
     1
 90
        0
176
     1
290
     0
176
     1
290
     1
176
     1
290
     1
176
     1
290
     0
176
     1
290
     0
176
     1
290
     0
176
     1
290
     0
176
     1
290
     0
176
     1
290
     0
176
     1
 90
       50
176
     1
 40
0.0
176
     1
 40
1.0
176
     1
 90
        0
176
     1
 62
    18
420
        0
176
     1
 90
       50
176
     1
 90
        3
176
     1
 62
     5
420
      255
176
     1
290
     0
176
     1
 90
       50
176
     1
 90
       50
176
     1
 90
       50
176
     1
290
     0
176
     1
 90
       50
176
     1
 62
   256
176
     0
 40
1.0
176
     0
 90
        2
176
     1
  1
strokes_ogs.tif
176
     1
290
     0
176
     1
 40
1.0
176
     1
 40
1.0
176
     1
  0
VISUALSTYLE
  5
35
102
{ACAD_REACTORS
330
2A
102
}
330
2A
100
AcDbVisualStyle
  2
Dim
 70
    11
177
     3
291
     1
 70
    58
 90
        2
176
     1
 90
        2
176
     1
 90
        0
176
     1
 90
        0
176
     1
 40
0.6
176
     1
 40
30.0
176
     1
 62
     7
420
 16777215
176
     1
 90
        1
176
     1
 90
        4
176
     1
 62
     7
176
     1
 62
   257
176
     1
 90
        1
176
     1
 90
        1
176
     1
 40
1.0
176
     1
 90
        8
176
     1
 62
     7
176
     1
 40
1.0
176
     1
 90
        1
176
     1
 90
        6
176
     1
 90
        2
176
     1
 62
     7
176
     1
 90
        5
176
     1
 90
        0
176
     1
 90
        0
176
     1
290
     0
176
     1
 90
        1
176
     1
 40
-50.0
176
     1
 90
        0
176
     1
290
     0
176
     1
290
     1
176
     1
290
     1
176
     1
290
     0
176
     1
290
     0
176
     1
290
     0
176
     1
290
     0
176
     1
290
     0
176
     1
290
     0
176
     1
 90
       50
176
     1
 40
0.0
176
     1
 40
1.0
176
     1
 90
        0
176
     1
 62
    18
420
        0
176
     1
 90
       50
176
     1
 90
        3
176
     1
 62
     5
420
      255
176
     1
290
     0
176
     1
 90
       50
176
     1
 90
       50
176
     1
 90
       50
176
     1
290
     0
176
     1
 90
       50
176
     1
 62
   256
176
     0
 40
1.0
176
     0
 90
        2
176
     1
  1
strokes_ogs.tif
176
     1
290
     0
176
     1
 40
1.0
176
     1
 40
1.0
176
     1
  0
VISUALSTYLE
  5
3D
102
{ACAD_REACTORS
330
2A
102
}
330
2A
100
AcDbVisualStyle
  2
EdgeColorOff
 70
    22
177
     3
291
     1
 70
    58
 90
        2
176
     0
 90
        2
176
     0
 90
        0
176
     0
 90
        0
176
     0
 40
0.6
176
     0
 40
30.0
176
     0
 62
     7
420
 16777215
176
     0
 90
        1
176
     0
 90
        4
176
     0
 62
     7
176
     0
 62
   257
176
     0
 90
        1
176
     0
 90
        1
176
     0
 40
1.0
176
     0
 90
        8
176
     2
 62
     7
176
     0
 40
1.0
176
     0
 90
        1
176
     0
 90
        6
176
     0
 90
        2
176
     0
 62
     7
176
     0
 90
        5
176
     0
 90
        0
176
     0
 90
        0
176
     0
290
     0
176
     0
 90
        1
176
     0
 40
0.0
176
     0
 90
        0
176
     0
290
     0
176
     0
290
     1
176
     0
290
     1
176
     0
290
     0
176
     0
290
     0
176
     0
290
     0
176
     0
290
     0
176
     0
290
     0
176
     0
290
     0
176
     0
 90
       50
176
     0
 40
0.0
176
     0
 40
1.0
176
     0
 90
        0
176
     0
 62
    18
420
        0
176
     0
 90
       50
176
     0
 90
        3
176
     0
 62
     5
420
      255
176
     0
290
     0
176
     0
 90
       50
176
     0
 90
       50
176
     0
 90
       50
176
     0
290
     0
176
     0
 90
       50
176
     0
 62
   256
176
     0
 40
1.0
176
     0
 90
        2
176
     0
  1
strokes_ogs.tif
176
     0
290
     0
176
     0
 40
1.0
176
     0
 40
1.0
176
     0
  0
VISUALSTYLE
  5
39
102
{ACAD_REACTORS
330
2A
102
}
330
2A
100
AcDbVisualStyle
  2
Facepattern
 70
    15
177
     3
291
     1
 70
    58
 90
        2
176
     1
 90
        2
176
     1
 90
        0
176
     1
 90
        0
176
     1
 40
0.6
176
     1
 40
30.0
176
     1
 62
     7
420
 16777215
176
     1
 90
        1
176
     1
 90
        4
176
     1
 62
     7
176
     1
 62
   257
176
     1
 90
        1
176
     1
 90
        1
176
     1
 40
1.0
176
     1
 90
        8
176
     1
 62
     7
176
     1
 40
1.0
176
     1
 90
        1
176
     1
 90
        6
176
     1
 90
        2
176
     1
 62
     7
176
     1
 90
        5
176
     1
 90
        0
176
     1
 90
        0
176
     1
290
     0
176
     1
 90
        1
176
     1
 40
0.0
176
     1
 90
        0
176
     1
290
     0
176
     1
290
     1
176
     1
290
     1
176
     1
290
     0
176
     1
290
     0
176
     1
290
     0
176
     1
290
     0
176
     1
290
     0
176
     1
290
     0
176
     1
 90
       50
176
     1
 40
0.0
176
     1
 40
1.0
176
     1
 90
        0
176
     1
 62
    18
420
        0
176
     1
 90
       50
176
     1
 90
        3
176
     1
 62
     5
420
      255
176
     1
290
     0
176
     1
 90
       50
176
     1
 90
       50
176
     1
 90
       50
176
     1
290
     0
176
     1
 90
       50
176
     1
 62
   256
176
     0
 40
1.0
176
     0
 90
        2
176
     1
  1
strokes_ogs.tif
176
     1
290
     0
176
     1
 40
1.0
176
     1
 40
1.0
176
     1
  0
VISUALSTYLE
  5
2B
102
{ACAD_REACTORS
330
2A
102
}
330
2A
100
AcDbVisualStyle
  2
Flat
 70
     0
177
     3
291
     1
 70
    58
 90
        2
176
     1
 90
        1
176
     1
 90
        1
176
     1
 90
        2
176
     1
 40
0.6
176
     1
 40
30.0
176
     1
 62
     7
420
 16777215
176
     1
 90
        0
176
     1
 90
        0
176
     1
 62
     7
176
     1
 62
   257
176
     1
 90
        1
176
     1
 90
        1
176
     1
 40
1.0
176
     1
 90
        8
176
     1
 62
     7
176
     1
 40
1.0
176
     1
 90
        1
176
     1
 90
        6
176
     1
 90
        2
176
     1
 62
     7
176
     1
 90
        5
176
     1
 90
        0
176
     1
 90
        0
176
     1
290
     0
176
     1
 90
       13
176
     1
 40
0.0
176
     1
 90
        0
176
     1
290
     0
176
     1
290
     1
176
     1
290
     1
176
     1
290
     0
176
     1
290
     0
176
     1
290
     0
176
     1
290
     0
176
     1
290
     0
176
     1
290
     0
176
     1
 90
       50
176
     1
 40
0.0
176
     1
 40
1.0
176
     1
 90
        0
176
     1
 62
    18
420
        0
176
     1
 90
       50
176
     1
 90
        3
176
     1
 62
     5
420
      255
176
     1
290
     0
176
     1
 90
       50
176
     1
 90
       50
176
     1
 90
       50
176
     1
290
     0
176
     1
 90
       50
176
     1
 62
   256
176
     0
 40
1.0
176
     0
 90
        2
176
     1
  1
strokes_ogs.tif
176
     1
290
     0
176
     1
 40
1.0
176
     1
 40
1.0
176
     1
  0
VISUALSTYLE
  5
2C
102
{ACAD_REACTORS
330
2A
102
}
330
2A
100
AcDbVisualStyle
  2
FlatWithEdges
 70
     1
177
     3
291
     1
 70
    58
 90
        2
176
     1
 90
        1
176
     1
 90
        1
176
     1
 90
        2
176
     1
 40
0.6
176
     1
 40
30.0
176
     1
 62
     7
420
 16777215
176
     1
 90
        1
176
     1
 90
        0
176
     1
 62
     7
176
     1
 62
   257
176
     1
 90
        1
176
     1
 90
        1
176
     1
 40
1.0
176
     1
 90
        0
176
     1
 62
   257
176
     1
 40
1.0
176
     1
 90
        1
176
     1
 90
        6
176
     1
 90
        2
176
     1
 62
     7
176
     1
 90
        5
176
     1
 90
        0
176
     1
 90
        0
176
     1
290
     0
176
     1
 90
       13
176
     1
 40
0.0
176
     1
 90
        0
176
     1
290
     0
176
     1
290
     1
176
     1
290
     1
176
     1
290
     0
176
     1
290
     0
176
     1
290
     0
176
     1
290
     0
176
     1
290
     0
176
     1
290
     0
176
     1
 90
       50
176
     1
 40
0.0
176
     1
 40
1.0
176
     1
 90
        0
176
     1
 62
    18
420
        0
176
     1
 90
       50
176
     1
 90
        3
176
     1
 62
     5
420
      255
176
     1
290
     0
176
     1
 90
       50
176
     1
 90
       50
176
     1
 90
       50
176
     1
290
     0
176
     1
 90
       50
176
     1
 62
   256
176
     0
 40
1.0
176
     0
 90
        2
176
     1
  1
strokes_ogs.tif
176
     1
290
     0
176
     1
 40
1.0
176
     1
 40
1.0
176
     1
  0
VISUALSTYLE
  5
2D
102
{ACAD_REACTORS
330
2A
102
}
330
2A
100
AcDbVisualStyle
  2
Gouraud
 70
     2
177
     3
291
     1
 70
    58
 90
        2
176
     1
 90
        2
176
     1
 90
        1
176
     1
 90
        2
176
     1
 40
0.6
176
     1
 40
30.0
176
     1
 62
     7
420
 16777215
176
     1
 90
        0
176
     1
 90
        0
176
     1
 62
     7
176
     1
 62
   257
176
     1
 90
        1
176
     1
 90
        1
176
     1
 40
1.0
176
     1
 90
        0
176
     1
 62
     7
176
     1
 40
1.0
176
     1
 90
        1
176
     1
 90
        6
176
     1
 90
        2
176
     1
 62
     7
176
     1
 90
        5
176
     1
 90
        0
176
     1
 90
        0
176
     1
290
     0
176
     1
 90
       13
176
     1
 40
0.0
176
     1
 90
        0
176
     1
290
     0
176
     1
290
     1
176
     1
290
     1
176
     1
290
     0
176
     1
290
     0
176
     1
290
     0
176
     1
290
     0
176
     1
290
     0
176
     1
290
     0
176
     1
 90
       50
176
     1
 40
0.0
176
     1
 40
1.0
176
     1
 90
        0
176
     1
 62
    18
420
        0
176
     1
 90
       50
176
     1
 90
        3
176
     1
 62
     5
420
      255
176
     1
290
     0
176
     1
 90
       50
176
     1
 90
       50
176
     1
 90
       50
176
     1
290
     0
176
     1
 90
       50
176
     1
 62
   256
176
     0
 40
1.0
176
     0
 90
        2
176
     1
  1
strokes_ogs.tif
176
     1
290
     0
176
     1
 40
1.0
176
     1
 40
1.0
176
     1
  0
VISUALSTYLE
  5
2E
102
{ACAD_REACTORS
330
2A
102
}
330
2A
100
AcDbVisualStyle
  2
GouraudWithEdges
 70
     3
177
     3
291
     1
 70
    58
 90
        2
176
     1
 90
        2
176
     1
 90
        1
176
     1
 90
        2
176
     1
 40
0.6
176
     1
 40
30.0
176
     1
 62
     7
420
 16777215
176
     1
 90
        1
176
     1
 90
        0
176
     1
 62
     7
176
     1
 62
   257
176
     1
 90
        1
176
     1
 90
        1
176
     1
 40
1.0
176
     1
 90
        0
176
     1
 62
   257
176
     1
 40
1.0
176
     1
 90
        1
176
     1
 90
        6
176
     1
 90
        2
176
     1
 62
     7
176
     1
 90
        5
176
     1
 90
        0
176
     1
 90
        0
176
     1
290
     0
176
     1
 90
       13
176
     1
 40
0.0
176
     1
 90
        0
176
     1
290
     0
176
     1
290
     1
176
     1
290
     1
176
     1
290
     0
176
     1
290
     0
176
     1
290
     0
176
     1
290
     0
176
     1
290
     0
176
     1
290
     0
176
     1
 90
       50
176
     1
 40
0.0
176
     1
 40
1.0
176
     1
 90
        0
176
     1
 62
    18
420
        0
176
     1
 90
       50
176
     1
 90
        3
176
     1
 62
     5
420
      255
176
     1
290
     0
176
     1
 90
       50
176
     1
 90
       50
176
     1
 90
       50
176
     1
290
     0
176
     1
 90
       50
176
     1
 62
   256
176
     0
 40
1.0
176
     0
 90
        2
176
     1
  1
strokes_ogs.tif
176
     1
290
     0
176
     1
 40
1.0
176
     1
 40
1.0
176
     1
  0
VISUALSTYLE
  5
31
102
{ACAD_REACTORS
330
2A
102
}
330
2A
100
AcDbVisualStyle
  2
Hidden
 70
     6
177
     3
291
     0
 70
    58
 90
        1
176
     1
 90
        2
176
     1
 90
        2
176
     1
 90
        0
176
     1
 40
0.6
176
     1
 40
30.0
176
     1
 62
     7
420
 16777215
176
     1
 90
        2
176
     1
 90
        2
176
     1
 62
     7
176
     1
 62
   257
176
     1
 90
        2
176
     1
 90
        1
176
     1
 40
40.0
176
     1
 90
        0
176
     1
 62
   257
176
     1
 40
1.0
176
     1
 90
        1
176
     1
 90
        6
176
     1
 90
        2
176
     1
 62
     7
176
     1
 90
        3
176
     1
 90
        0
176
     1
 90
        0
176
     1
290
     0
176
     1
 90
        1
176
     1
 40
0.0
176
     1
 90
        0
176
     1
290
     0
176
     1
290
     1
176
     1
290
     1
176
     1
290
     0
176
     1
290
     0
176
     1
290
     0
176
     1
290
     0
176
     1
290
     0
176
     1
290
     0
176
     1
 90
       50
176
     1
 40
0.0
176
     1
 40
1.0
176
     1
 90
        0
176
     1
 62
    18
420
        0
176
     1
 90
       50
176
     1
 90
        3
176
     1
 62
     5
420
      255
176
     1
290
     0
176
     1
 90
       50
176
     1
 90
       50
176
     1
 90
       50
176
     1
290
     0
176
     1
 90
       50
176
     1
 62
   256
176
     0
 40
1.0
176
     0
 90
        2
176
     1
  1
strokes_ogs.tif
176
     1
290
     0
176
     1
 40
1.0
176
     1
 40
1.0
176
     1
  0
VISUALSTYLE
  5
3B
102
{ACAD_REACTORS
330
2A
102
}
330
2A
100
AcDbVisualStyle
  2
JitterOff
 70
    20
177
     3
291
     1
 70
    58
 90
        2
176
     0
 90
        2
176
     0
 90
        0
176
     0
 90
        0
176
     0
 40
0.6
176
     0
 40
30.0
176
     0
 62
     7
420
 16777215
176
     0
 90
        1
176
     0
 90
        4
176
     0
 62
     7
176
     0
 62
   257
176
     0
 90
        1
176
     0
 90
        1
176
     0
 40
1.0
176
     0
 90
       10
176
     2
 62
     7
176
     0
 40
1.0
176
     0
 90
        1
176
     0
 90
        6
176
     0
 90
        2
176
     0
 62
     7
176
     0
 90
        5
176
     0
 90
        0
176
     0
 90
        0
176
     0
290
     0
176
     0
 90
        1
176
     0
 40
0.0
176
     0
 90
        0
176
     0
290
     0
176
     0
290
     1
176
     0
290
     1
176
     0
290
     0
176
     0
290
     0
176
     0
290
     0
176
     0
290
     0
176
     0
290
     0
176
     0
290
     0
176
     0
 90
       50
176
     0
 40
0.0
176
     0
 40
1.0
176
     0
 90
        0
176
     0
 62
    18
420
        0
176
     0
 90
       50
176
     0
 90
        3
176
     0
 62
     5
420
      255
176
     0
290
     0
176
     0
 90
       50
176
     0
 90
       50
176
     0
 90
       50
176
     0
290
     0
176
     0
 90
       50
176
     0
 62
   256
176
     0
 40
1.0
176
     0
 90
        2
176
     0
  1
strokes_ogs.tif
176
     0
290
     0
176
     0
 40
1.0
176
     0
 40
1.0
176
     0
  0
VISUALSTYLE
  5
38
102
{ACAD_REACTORS
330
2A
102
}
330
2A
100
AcDbVisualStyle
  2
Linepattern
 70
    14
177
     3
291
     1
 70
    58
 90
        2
176
     1
 90
        2
176
     1
 90
        0
176
     1
 90
        0
176
     1
 40
0.6
176
     1
 40
30.0
176
     1
 62
     7
420
 16777215
176
     1
 90
        1
176
     1
 90
        4
176
     1
 62
     7
176
     1
 62
   257
176
     1
 90
        7
176
     1
 90
        7
176
     1
 40
1.0
176
     1
 90
        8
176
     1
 62
     7
176
     1
 40
1.0
176
     1
 90
        1
176
     1
 90
        6
176
     1
 90
        2
176
     1
 62
     7
176
     1
 90
        5
176
     1
 90
        0
176
     1
 90
        0
176
     1
290
     0
176
     1
 90
        1
176
     1
 40
0.0
176
     1
 90
        0
176
     1
290
     0
176
     1
290
     1
176
     1
290
     1
176
     1
290
     0
176
     1
290
     0
176
     1
290
     0
176
     1
290
     0
176
     1
290
     0
176
     1
290
     0
176
     1
 90
       50
176
     1
 40
0.0
176
     1
 40
1.0
176
     1
 90
        0
176
     1
 62
    18
420
        0
176
     1
 90
       50
176
     1
 90
        3
176
     1
 62
     5
420
      255
176
     1
290
     0
176
     1
 90
       50
176
     1
 90
       50
176
     1
 90
       50
176
     1
290
     0
176
     1
 90
       50
176
     1
 62
   256
176
     0
 40
1.0
176
     0
 90
        2
176
     1
  1
strokes_ogs.tif
176
     1
290
     0
176
     1
 40
1.0
176
     1
 40
1.0
176
     1
  0
VISUALSTYLE
  5
3C
102
{ACAD_REACTORS
330
2A
102
}
330
2A
100
AcDbVisualStyle
  2
OverhangOff
 70
    21
177
     3
291
     1
 70
    58
 90
        2
176
     0
 90
        2
176
     0
 90
        0
176
     0
 90
        0
176
     0
 40
0.6
176
     0
 40
30.0
176
     0
 62
     7
420
 16777215
176
     0
 90
        1
176
     0
 90
        4
176
     0
 62
     7
176
     0
 62
   257
176
     0
 90
        1
176
     0
 90
        1
176
     0
 40
1.0
176
     0
 90
        9
176
     2
 62
     7
176
     0
 40
1.0
176
     0
 90
        1
176
     0
 90
        6
176
     0
 90
        2
176
     0
 62
     7
176
     0
 90
        5
176
     0
 90
        0
176
     0
 90
        0
176
     0
290
     0
176
     0
 90
        1
176
     0
 40
0.0
176
     0
 90
        0
176
     0
290
     0
176
     0
290
     1
176
     0
290
     1
176
     0
290
     0
176
     0
290
     0
176
     0
290
     0
176
     0
290
     0
176
     0
290
     0
176
     0
290
     0
176
     0
 90
       50
176
     0
 40
0.0
176
     0
 40
1.0
176
     0
 90
        0
176
     0
 62
    18
420
        0
176
     0
 90
       50
176
     0
 90
        3
176
     0
 62
     5
420
      255
176
     0
290
     0
176
     0
 90
       50
176
     0
 90
       50
176
     0
 90
       50
176
     0
290
     0
176
     0
 90
       50
176
     0
 62
   256
176
     0
 40
1.0
176
     0
 90
        2
176
     0
  1
strokes_ogs.tif
176
     0
290
     0
176
     0
 40
1.0
176
     0
 40
1.0
176
     0
  0
VISUALSTYLE
  5
33
102
{ACAD_REACTORS
330
2A
102
}
330
2A
100
AcDbVisualStyle
  2
Realistic
 70
     8
177
     3
291
     0
 70
    58
 90
        2
176
     1
 90
        3
176
     1
 90
        0
176
     1
 90
        2
176
     1
 40
0.6
176
     1
 40
30.0
176
     1
 62
     7
420
 16777215
176
     1
 90
        0
176
     1
 90
        0
176
     1
 62
     7
176
     1
 62
   257
176
     1
 90
        1
176
     1
 90
        1
176
     1
 40
1.0
176
     1
 90
        8
176
     1
 62
   257
176
     1
 40
1.0
176
     1
 90
        1
176
     1
 90
        6
176
     1
 90
        2
176
     1
 62
     7
176
     1
 90
        3
176
     1
 90
        0
176
     1
 90
        0
176
     1
290
     0
176
     1
 90
       13
176
     1
 40
0.0
176
     1
 90
        0
176
     1
290
     0
176
     1
290
     1
176
     1
290
     1
176
     1
290
     0
176
     1
290
     0
176
     1
290
     0
176
     1
290
     0
176
     1
290
     0
176
     1
290
     0
176
     1
 90
       50
176
     1
 40
0.0
176
     1
 40
1.0
176
     1
 90
        0
176
     1
 62
    18
420
        0
176
     1
 90
       50
176
     1
 90
        3
176
     1
 62
     5
420
      255
176
     1
290
     0
176
     1
 90
       50
176
     1
 90
       50
176
     1
 90
       50
176
     1
290
     0
176
     1
 90
       50
176
     1
 62
   256
176
     0
 40
1.0
176
     0
 90
        2
176
     1
  1
strokes_ogs.tif
176
     1
290
     0
176
     1
 40
1.0
176
     1
 40
1.0
176
     1
  0
VISUALSTYLE
  5
42
102
{ACAD_REACTORS
330
2A
102
}
330
2A
100
AcDbVisualStyle
  2
Shaded
 70
    27
177
     3
291
     0
 70
    58
 90
        2
176
     1
 90
        2
176
     1
 90
        1
176
     1
 90
        2
176
     1
 40
0.6
176
     1
 40
30.0
176
     1
 62
     7
420
 16777215
176
     1
 90
        0
176
     1
 90
        4
176
     1
 62
     7
176
     1
 62
   257
176
     1
 90
        1
176
     1
 90
        1
176
     1
 40
1.0
176
     1
 90
        8
176
     1
 62
   257
176
     1
 40
1.0
176
     1
 90
        1
176
     1
 90
        6
176
     1
 90
        2
176
     1
 62
     8
420
  7895160
176
     1
 90
        3
176
     1
 90
        0
176
     1
 90
        0
176
     1
290
     0
176
     1
 90
        5
176
     1
 40
0.0
176
     1
 90
        0
176
     1
290
     0
176
     1
290
     1
176
     1
290
     1
176
     1
290
     0
176
     1
290
     0
176
     1
290
     0
176
     1
290
     0
176
     1
290
     0
176
     1
290
     0
176
     1
 90
       50
176
     1
 40
0.0
176
     1
 40
1.0
176
     1
 90
        0
176
     1
 62
    18
420
        0
176
     1
 90
       50
176
     1
 90
        3
176
     1
 62
     5
420
      255
176
     1
290
     0
176
     1
 90
       50
176
     1
 90
       50
176
     1
 90
       50
176
     1
290
     0
176
     1
 90
       50
176
     1
 62
   256
176
     0
 40
1.0
176
     0
 90
        2
176
     1
  1
strokes_ogs.tif
176
     1
290
     0
176
     1
 40
1.0
176
     1
 40
1.0
176
     1
  0
VISUALSTYLE
  5
41
102
{ACAD_REACTORS
330
2A
102
}
330
2A
100
AcDbVisualStyle
  2
Shaded with edges
 70
    26
177
     3
291
     0
 70
    58
 90
        2
176
     1
 90
        2
176
     1
 90
        1
176
     1
 90
        2
176
     1
 40
0.6
176
     1
 40
30.0
176
     1
 62
     7
420
 16777215
176
     1
 90
        1
176
     1
 90
       10
176
     1
 62
     7
176
     1
 62
   257
176
     1
 90
        2
176
     1
 90
        1
176
     1
 40
1.0
176
     1
 90
        8
176
     1
 62
   257
176
     1
 40
1.0
176
     1
 90
        1
176
     1
 90
        6
176
     1
 90
        2
176
     1
 62
     7
176
     1
 90
        3
176
     1
 90
        0
176
     1
 90
        0
176
     1
290
     0
176
     1
 90
        5
176
     1
 40
0.0
176
     1
 90
        0
176
     1
290
     0
176
     1
290
     1
176
     1
290
     1
176
     1
290
     0
176
     1
290
     0
176
     1
290
     0
176
     1
290
     0
176
     1
290
     0
176
     1
290
     0
176
     1
 90
       50
176
     1
 40
0.0
176
     1
 40
1.0
176
     1
 90
        0
176
     1
 62
    18
420
        0
176
     1
 90
       50
176
     1
 90
        3
176
     1
 62
     5
420
      255
176
     1
290
     0
176
     1
 90
       50
176
     1
 90
       50
176
     1
 90
       50
176
     1
290
     0
176
     1
 90
       50
176
     1
 62
   256
176
     0
 40
1.0
176
     0
 90
        2
176
     1
  1
strokes_ogs.tif
176
     1
290
     0
176
     1
 40
1.0
176
     1
 40
1.0
176
     1
  0
VISUALSTYLE
  5
3E
102
{ACAD_REACTORS
330
2A
102
}
330
2A
100
AcDbVisualStyle
  2
Shades of Gray
 70
    23
177
     3
291
     0
 70
    58
 90
        2
176
     1
 90
        2
176
     1
 90
        3
176
     1
 90
        0
176
     1
 40
0.6
176
     1
 40
30.0
176
     1
 62
     7
420
 16777215
176
     1
 90
        2
176
     1
 90
        2
176
     1
 62
     7
176
     1
 62
     7
176
     1
 90
        1
176
     1
 90
        1
176
     1
 40
40.0
176
     1
 90
        8
176
     1
 62
     7
176
     1
 40
1.0
176
     1
 90
        1
176
     1
 90
        6
176
     1
 90
        2
176
     1
 62
     7
176
     1
 90
        3
176
     1
 90
        0
176
     1
 90
        0
176
     1
290
     0
176
     1
 90
        1
176
     1
 40
0.0
176
     1
 90
        0
176
     1
290
     0
176
     1
290
     1
176
     1
290
     1
176
     1
290
     0
176
     1
290
     0
176
     1
290
     0
176
     1
290
     0
176
     1
290
     0
176
     1
290
     0
176
     1
 90
       50
176
     1
 40
0.0
176
     1
 40
1.0
176
     1
 90
        0
176
     1
 62
    18
420
        0
176
     1
 90
       50
176
     1
 90
        3
176
     1
 62
     5
420
      255
176
     1
290
     0
176
     1
 90
       50
176
     1
 90
       50
176
     1
 90
       50
176
     1
290
     0
176
     1
 90
       50
176
     1
 62
   256
176
     0
 40
1.0
176
     0
 90
        2
176
     1
  1
strokes_ogs.tif
176
     1
290
     0
176
     1
 40
1.0
176
     1
 40
1.0
176
     1
  0
VISUALSTYLE
  5
3F
102
{ACAD_REACTORS
330
2A
102
}
330
2A
100
AcDbVisualStyle
  2
Sketchy
 70
    24
177
     3
291
     0
 70
    58
 90
        1
176
     1
 90
        2
176
     1
 90
        2
176
     1
 90
        0
176
     1
 40
0.6
176
     1
 40
30.0
176
     1
 62
     7
420
 16777215
176
     1
 90
        2
176
     1
 90
        2
176
     1
 62
     7
176
     1
 62
     7
176
     1
 90
        1
176
     1
 90
        1
176
     1
 40
40.0
176
     1
 90
       11
176
     1
 62
     7
176
     1
 40
1.0
176
     1
 90
        1
176
     1
 90
        6
176
     1
 90
        2
176
     1
 62
     7
176
     1
 90
        6
176
     1
 90
        0
176
     1
 90
        0
176
     1
290
     0
176
     1
 90
        1
176
     1
 40
0.0
176
     1
 90
        0
176
     1
290
     0
176
     1
290
     1
176
     1
290
     1
176
     1
290
     0
176
     1
290
     0
176
     1
290
     0
176
     1
290
     0
176
     1
290
     0
176
     1
290
     0
176
     1
 90
       50
176
     1
 40
0.0
176
     1
 40
1.0
176
     1
 90
        0
176
     1
 62
    18
420
        0
176
     1
 90
       50
176
     1
 90
        3
176
     1
 62
     5
420
      255
176
     1
290
     0
176
     1
 90
       50
176
     1
 90
       50
176
     1
 90
       50
176
     1
290
     0
176
     1
 90
       50
176
     1
 62
   256
176
     0
 40
1.0
176
     0
 90
        2
176
     1
  1
strokes_ogs.tif
176
     1
290
     0
176
     1
 40
1.0
176
     1
 40
1.0
176
     1
  0
VISUALSTYLE
  5
37
102
{ACAD_REACTORS
330
2A
102
}
330
2A
100
AcDbVisualStyle
  2
Thicken
 70
    13
177
     3
291
     1
 70
    58
 90
        2
176
     1
 90
        2
176
     1
 90
        0
176
     1
 90
        0
176
     1
 40
0.6
176
     1
 40
30.0
176
     1
 62
     7
420
 16777215
176
     1
 90
        1
176
     1
 90
        4
176
     1
 62
     7
176
     1
 62
   257
176
     1
 90
        1
176
     1
 90
        1
176
     1
 40
1.0
176
     1
 90
       12
176
     1
 62
     7
176
     1
 40
1.0
176
     1
 90
        1
176
     1
 90
        6
176
     1
 90
        2
176
     1
 62
     7
176
     1
 90
        5
176
     1
 90
        0
176
     1
 90
        0
176
     1
290
     0
176
     1
 90
        1
176
     1
 40
0.0
176
     1
 90
        0
176
     1
290
     0
176
     1
290
     1
176
     1
290
     1
176
     1
290
     0
176
     1
290
     0
176
     1
290
     0
176
     1
290
     0
176
     1
290
     0
176
     1
290
     0
176
     1
 90
       50
176
     1
 40
0.0
176
     1
 40
1.0
176
     1
 90
        0
176
     1
 62
    18
420
        0
176
     1
 90
       50
176
     1
 90
        3
176
     1
 62
     5
420
      255
176
     1
290
     0
176
     1
 90
       50
176
     1
 90
       50
176
     1
 90
       50
176
     1
290
     0
176
     1
 90
       50
176
     1
 62
   256
176
     0
 40
1.0
176
     0
 90
        2
176
     1
  1
strokes_ogs.tif
176
     1
290
     0
176
     1
 40
1.0
176
     1
 40
1.0
176
     1
  0
VISUALSTYLE
  5
30
102
{ACAD_REACTORS
330
2A
102
}
330
2A
100
AcDbVisualStyle
  2
Wireframe
 70
     5
177
     3
291
     0
 70
    58
 90
        0
176
     1
 90
        2
176
     1
 90
        0
176
     1
 90
        0
176
     1
 40
0.6
176
     1
 40
30.0
176
     1
 62
     7
420
 16777215
176
     1
 90
        1
176
     1
 90
        4
176
     1
 62
     7
176
     1
 62
   257
176
     1
 90
        1
176
     1
 90
        1
176
     1
 40
1.0
176
     1
 90
        0
176
     1
 62
   257
176
     1
 40
1.0
176
     1
 90
        1
176
     1
 90
        6
176
     1
 90
        2
176
     1
 62
     7
176
     1
 90
        3
176
     1
 90
        0
176
     1
 90
        0
176
     1
290
     0
176
     1
 90
        1
176
     1
 40
0.0
176
     1
 90
        0
176
     1
290
     0
176
     1
290
     1
176
     1
290
     1
176
     1
290
     0
176
     1
290
     0
176
     1
290
     0
176
     1
290
     0
176
     1
290
     0
176
     1
290
     0
176
     1
 90
       50
176
     1
 40
0.0
176
     1
 40
1.0
176
     1
 90
        0
176
     1
 62
    18
420
        0
176
     1
 90
       50
176
     1
 90
        3
176
     1
 62
     5
420
      255
176
     1
290
     0
176
     1
 90
       50
176
     1
 90
       50
176
     1
 90
       50
176
     1
290
     0
176
     1
 90
       50
176
     1
 62
   256
176
     0
 40
1.0
176
     0
 90
        2
176
     1
  1
strokes_ogs.tif
176
     1
290
     0
176
     1
 40
1.0
176
     1
 40
1.0
176
     1
  0
VISUALSTYLE
  5
40
102
{ACAD_REACTORS
330
2A
102
}
330
2A
100
AcDbVisualStyle
  2
X-Ray
 70
    25
177
     3
291
     0
 70
    58
 90
        2
176
     1
 90
        2
176
     1
 90
        1
176
     1
 90
        1
176
     1
 40
0.5
176
     1
 40
30.0
176
     1
 62
     7
420
 16777215
176
     1
 90
        1
176
     1
 90
        0
176
     1
 62
     7
176
     1
 62
   257
176
     1
 90
        1
176
     1
 90
        1
176
     1
 40
1.0
176
     1
 90
        8
176
     1
 62
     7
176
     1
 40
1.0
176
     1
 90
        1
176
     1
 90
        6
176
     1
 90
        2
176
     1
 62
     7
176
     1
 90
        3
176
     1
 90
        0
176
     1
 90
        0
176
     1
290
     0
176
     1
 90
       13
176
     1
 40
0.0
176
     1
 90
        0
176
     1
290
     0
176
     1
290
     1
176
     1
290
     1
176
     1
290
     0
176
     1
290
     0
176
     1
290
     0
176
     1
290
     0
176
     1
290
     0
176
     1
290
     0
176
     1
 90
       50
176
     1
 40
0.0
176
     1
 40
1.0
176
     1
 90
        0
176
     1
 62
    18
420
        0
176
     1
 90
       50
176
     1
 90
        3
176
     1
 62
     5
420
      255
176
     1
290
     0
176
     1
 90
       50
176
     1
 90
       50
176
     1
 90
       50
176
     1
290
     0
176
     1
 90
       50
176
     1
 62
   256
176
     0
 40
1.0
176
     0
 90
        2
176
     1
  1
strokes_ogs.tif
176
     1
290
     0
176
     1
 40
1.0
176
     1
 40
1.0
176
     1
  0
DICTIONARYVAR
  5
1D9
102
{ACAD_REACTORS
330
1D8
102
}
330
1D8
100
DictionaryVariables
280
     0
  1
1:1
  0
DICTIONARYVAR
  5
1DE
102
{ACAD_REACTORS
330
1D8
102
}
330
1D8
100
DictionaryVariables
280
     0
  1
Standard
  0
DICTIONARYVAR
  5
1DD
102
{ACAD_REACTORS
330
1D8
102
}
330
1D8
100
DictionaryVariables
280
     0
  1
Standard
  0
DICTIONARYVAR
  5
1E1
102
{ACAD_REACTORS
330
1D8
102
}
330
1D8
100
DictionaryVariables
280
     0
  1
6.000000
  0
DICTIONARY
  5
1DA
330
6A
100
AcDbDictionary
280
     1
281
     1
  3
ACAD_ROUNDTRIP_2008_TABLESTYLE_CELLSTYLEMAP
360
1DB
  0
CELLSTYLEMAP
  5
1DB
102
{ACAD_REACTORS
330
1DA
102
}
330
1DA
100
AcDbCellStyleMap
 90
        3
300
CELLSTYLE
  1
TABLEFORMAT_BEGIN
 90
        5
170
     1
 91
        0
 92
    32768
 62
   257
 93
        1
300
CONTENTFORMAT
  1
CONTENTFORMAT_BEGIN
 90
        0
 91
        0
 92
        4
 93
        0
300

 40
0.0
140
1.0
 94
        5
 62
     0
340
11
144
6.0
309
CONTENTFORMAT_END
171
     1
301
MARGIN
  1
CELLMARGIN_BEGIN
 40
1.5
 40
1.5
 40
1.5
 40
1.5
 40
1.5
 40
1.5
309
CELLMARGIN_END
 94
        6
 95
        1
302
GRIDFORMAT
  1
GRIDFORMAT_BEGIN
 90
        0
 91
        1
 62
     0
 92
       -2
340
14
 93
        0
 40
0.045
309
GRIDFORMAT_END
 95
        2
302
GRIDFORMAT
  1
GRIDFORMAT_BEGIN
 90
        0
 91
        1
 62
     0
 92
       -2
340
14
 93
        0
 40
0.045
309
GRIDFORMAT_END
 95
        4
302
GRIDFORMAT
  1
GRIDFORMAT_BEGIN
 90
        0
 91
        1
 62
     0
 92
       -2
340
14
 93
        0
 40
0.045
309
GRIDFORMAT_END
 95
        8
302
GRIDFORMAT
  1
GRIDFORMAT_BEGIN
 90
        0
 91
        1
 62
     0
 92
       -2
340
14
 93
        0
 40
0.045
309
GRIDFORMAT_END
 95
       16
302
GRIDFORMAT
  1
GRIDFORMAT_BEGIN
 90
        0
 91
        1
 62
     0
 92
       -2
340
14
 93
        0
 40
0.045
309
GRIDFORMAT_END
 95
       32
302
GRIDFORMAT
  1
GRIDFORMAT_BEGIN
 90
        0
 91
        1
 62
     0
 92
       -2
340
14
 93
        0
 40
0.045
309
GRIDFORMAT_END
309
TABLEFORMAT_END
  1
CELLSTYLE_BEGIN
 90
        1
 91
        1
300
_TITLE
309
CELLSTYLE_END
300
CELLSTYLE
  1
TABLEFORMAT_BEGIN
 90
        5
170
     1
 91
        0
 92
        0
 62
   257
 93
        1
300
CONTENTFORMAT
  1
CONTENTFORMAT_BEGIN
 90
        0
 91
        0
 92
        4
 93
        0
300

 40
0.0
140
1.0
 94
        5
 62
     0
340
11
144
4.5
309
CONTENTFORMAT_END
171
     1
301
MARGIN
  1
CELLMARGIN_BEGIN
 40
1.5
 40
1.5
 40
1.5
 40
1.5
 40
1.5
 40
1.5
309
CELLMARGIN_END
 94
        6
 95
        1
302
GRIDFORMAT
  1
GRIDFORMAT_BEGIN
 90
        0
 91
        1
 62
     0
 92
       -2
340
14
 93
        0
 40
0.045
309
GRIDFORMAT_END
 95
        2
302
GRIDFORMAT
  1
GRIDFORMAT_BEGIN
 90
        0
 91
        1
 62
     0
 92
       -2
340
14
 93
        0
 40
0.045
309
GRIDFORMAT_END
 95
        4
302
GRIDFORMAT
  1
GRIDFORMAT_BEGIN
 90
        0
 91
        1
 62
     0
 92
       -2
340
14
 93
        0
 40
0.045
309
GRIDFORMAT_END
 95
        8
302
GRIDFORMAT
  1
GRIDFORMAT_BEGIN
 90
        0
 91
        1
 62
     0
 92
       -2
340
14
 93
        0
 40
0.045
309
GRIDFORMAT_END
 95
       16
302
GRIDFORMAT
  1
GRIDFORMAT_BEGIN
 90
        0
 91
        1
 62
     0
 92
       -2
340
14
 93
        0
 40
0.045
309
GRIDFORMAT_END
 95
       32
302
GRIDFORMAT
  1
GRIDFORMAT_BEGIN
 90
        0
 91
        1
 62
     0
 92
       -2
340
14
 93
        0
 40
0.045
309
GRIDFORMAT_END
309
TABLEFORMAT_END
  1
CELLSTYLE_BEGIN
 90
        2
 91
        1
300
_HEADER
309
CELLSTYLE_END
300
CELLSTYLE
  1
TABLEFORMAT_BEGIN
 90
        5
170
     1
 91
        0
 92
        0
 62
   257
 93
        1
300
CONTENTFORMAT
  1
CONTENTFORMAT_BEGIN
 90
        0
 91
        0
 92
        4
 93
        0
300

 40
0.0
140
1.0
 94
        2
 62
     0
340
11
144
4.5
309
CONTENTFORMAT_END
171
     1
301
MARGIN
  1
CELLMARGIN_BEGIN
 40
1.5
 40
1.5
 40
1.5
 40
1.5
 40
1.5
 40
1.5
309
CELLMARGIN_END
 94
        6
 95
        1
302
GRIDFORMAT
  1
GRIDFORMAT_BEGIN
 90
        0
 91
        1
 62
     0
 92
       -2
340
14
 93
        0
 40
0.045
309
GRIDFORMAT_END
 95
        2
302
GRIDFORMAT
  1
GRIDFORMAT_BEGIN
 90
        0
 91
        1
 62
     0
 92
       -2
340
14
 93
        0
 40
0.045
309
GRIDFORMAT_END
 95
        4
302
GRIDFORMAT
  1
GRIDFORMAT_BEGIN
 90
        0
 91
        1
 62
     0
 92
       -2
340
14
 93
        0
 40
0.045
309
GRIDFORMAT_END
 95
        8
302
GRIDFORMAT
  1
GRIDFORMAT_BEGIN
 90
        0
 91
        1
 62
     0
 92
       -2
340
14
 93
        0
 40
0.045
309
GRIDFORMAT_END
 95
       16
302
GRIDFORMAT
  1
GRIDFORMAT_BEGIN
 90
        0
 91
        1
 62
     0
 92
       -2
340
14
 93
        0
 40
0.045
309
GRIDFORMAT_END
 95
       32
302
GRIDFORMAT
  1
GRIDFORMAT_BEGIN
 90
        0
 91
        1
 62
     0
 92
       -2
340
14
 93
        0
 40
0.045
309
GRIDFORMAT_END
309
TABLEFORMAT_END
  1
CELLSTYLE_BEGIN
 90
        3
 91
        2
300
_DATA
309
CELLSTYLE_END
  0
ENDSEC
  0
EOF
